<svg width="182" height="48" viewBox="0 0 182 48" fill="none" xmlns="http://www.w3.org/2000/svg">
<path d="M48 24C48 10.7452 37.2548 0 24 0C10.7452 0 0 10.7452 0 24C0 37.2548 10.7452 48 24 48C37.2548 48 48 37.2548 48 24Z" fill="url(#paint0_linear_4046_3449)"/>
<path fill-rule="evenodd" clip-rule="evenodd" d="M7.52148 14.0801V18.0481H13.8986V33.9201H18.1501V18.0481H24.2407L27.1588 24.1418L22.0571 33.9201H26.6487L30.56 26.1258H31.9771L35.8884 33.9201H40.48L35.3783 24.1418L40.1965 14.0801H35.6617L31.9771 22.1578H30.56L26.8754 14.0801H24.5272H22.3405H7.52148Z" fill="url(#paint1_linear_4046_3449)"/>
<path fill-rule="evenodd" clip-rule="evenodd" d="M7.52148 14.0801V18.0481H13.8986V33.9201H18.1501V18.0481H24.2407L27.1588 24.1418L22.0571 33.9201H26.6487L30.56 26.1258H31.9771L35.8884 33.9201H40.48L35.3783 24.1418L40.1965 14.0801H35.6617L31.9771 22.1578H30.56L26.8754 14.0801H24.5272H22.3405H7.52148Z" fill="#CCF381"/>
<path d="M166.639 31.8039V16.1968H181.634V31.8039H177.349V19.869H170.923V31.8039H166.639Z" fill="#052644"/>
<path d="M143.834 31.8039V16.1968H149.648L153.321 24.6124H153.78L157.452 16.1968H163.266V31.8039H158.982V24.0003L159.135 21.2461H158.982L155.616 28.8967H151.485L148.118 21.2461H147.965L148.118 24.0003V31.8039H143.834Z" fill="#052644"/>
<path d="M126.986 29.8755C125.374 28.2638 124.568 26.3053 124.568 23.9999C124.568 21.6945 125.374 19.7462 126.986 18.1549C128.618 16.5432 130.617 15.7373 132.984 15.7373C135.391 15.7373 137.37 16.533 138.921 18.1243C140.471 19.7156 141.247 21.6741 141.247 23.9999V24.918H129.006C129.169 25.938 129.628 26.8051 130.383 27.5192C131.138 28.2332 132.005 28.5902 132.984 28.5902C134.065 28.5902 134.994 28.2842 135.769 27.6722C136.075 27.407 136.32 27.1009 136.503 26.7541H141.094C140.747 27.7946 140.237 28.7126 139.563 29.5083C137.931 31.3444 135.738 32.2625 132.984 32.2625C130.617 32.2625 128.618 31.4668 126.986 29.8755ZM129.159 22.3168H136.656C136.493 21.5007 136.075 20.8173 135.402 20.2664C134.749 19.6952 133.943 19.4096 132.984 19.4096C132.025 19.4096 131.209 19.685 130.536 20.2358C129.863 20.7867 129.404 21.4803 129.159 22.3168Z" fill="#052644"/>
<path d="M109.107 31.8039V16.1968H113.392V22.0112H115.228L119.359 16.1968H124.103L119.053 23.3883L124.562 31.8039H119.665L115.687 25.6835H113.392V31.8039H109.107Z" fill="#052644"/>
<path d="M90.7559 31.8039L95.3462 23.8473L91.0619 16.1968H95.8052L98.7124 22.0112H99.4775L102.385 16.1968H107.128L102.844 23.8473L107.434 31.8039H102.691L99.4775 25.6835H98.7124L95.4992 31.8039H90.7559Z" fill="#052644"/>
<path d="M76.0328 29.8755C74.4211 28.2638 73.6152 26.3053 73.6152 23.9999C73.6152 21.6945 74.4211 19.7462 76.0328 18.1549C77.6649 16.5432 79.6643 15.7373 82.0308 15.7373C84.4382 15.7373 86.4172 16.533 87.9677 18.1243C89.5182 19.7156 90.2934 21.6741 90.2934 23.9999V24.918H78.0526C78.2158 25.938 78.6748 26.8051 79.4297 27.5192C80.1845 28.2332 81.0516 28.5902 82.0308 28.5902C83.1121 28.5902 84.0404 28.2842 84.8156 27.6722C85.1217 27.407 85.3665 27.1009 85.5501 26.7541H90.1404C89.7936 27.7946 89.2836 28.7126 88.6103 29.5083C86.9782 31.3444 84.785 32.2625 82.0308 32.2625C79.6643 32.2625 77.6649 31.4668 76.0328 29.8755ZM78.2056 22.3168H85.7031C85.5399 21.5007 85.1217 20.8173 84.4484 20.2664C83.7956 19.6952 82.9897 19.4096 82.0308 19.4096C81.072 19.4096 80.2559 19.685 79.5827 20.2358C78.9094 20.7867 78.4504 21.4803 78.2056 22.3168Z" fill="#052644"/>
<path d="M58 19.869V16.1968H72.6891V19.869H67.4867V31.8039H63.2024V19.869H58Z" fill="#052644"/>
<defs>
<linearGradient id="paint0_linear_4046_3449" x1="-3.70935" y1="-9.05101" x2="47.8843" y2="53.1294" gradientUnits="userSpaceOnUse">
<stop stop-color="#0385FF"/>
<stop offset="1" stop-color="#032BFF"/>
</linearGradient>
<linearGradient id="paint1_linear_4046_3449" x1="4.97452" y1="10.339" x2="40.4005" y2="36.0402" gradientUnits="userSpaceOnUse">
<stop stop-color="#0385FF"/>
<stop offset="1" stop-color="#032BFF"/>
</linearGradient>
</defs>
</svg>
