<svg width="207" height="128" viewBox="0 0 207 128" fill="none" xmlns="http://www.w3.org/2000/svg">
<g filter="url(#filter0_d_3687_2337)">
<rect x="24.4277" y="16" width="157.714" height="80" rx="8" fill="white" shape-rendering="crispEdges"/>
<rect x="24.9277" y="16.5" width="156.714" height="79" rx="7.5" stroke="#132239" stroke-opacity="0.04" shape-rendering="crispEdges"/>
<g clip-path="url(#clip0_3687_2337)">
<path fill-rule="evenodd" clip-rule="evenodd" d="M59.3819 70.7655C51.2232 70.7655 44.6094 64.1517 44.6094 55.9931C44.6094 47.8344 51.2232 41.2206 59.3819 41.2206C67.5405 41.2206 74.1543 47.8344 74.1543 55.9931C74.1543 64.1517 67.5405 70.7655 59.3819 70.7655ZM53.8117 55.7457C54.7631 55.1964 56.0429 54.8156 57.6513 54.6032C58.7482 54.4431 59.6299 54.2538 60.2965 54.0351C60.9631 53.8165 61.6235 53.5184 62.2776 53.1408C63.8137 52.2539 64.7804 50.9988 65.1777 49.3754L63.2589 46.0519C63.0394 46.9076 62.7061 47.6691 62.2589 48.3365C61.8118 49.0039 61.3256 49.4893 60.8003 49.7925C59.8291 50.3532 58.552 50.7389 56.969 50.9495C56.0485 51.0717 55.2243 51.2406 54.4965 51.4561C53.7687 51.6717 53.043 51.9884 52.3196 52.4061C50.8033 53.2815 49.8365 54.5366 49.4194 56.1715L51.3382 59.495C51.5743 58.668 51.9093 57.9151 52.3432 57.2362C52.7771 56.5572 53.2666 56.0604 53.8117 55.7457ZM57.5995 62.185C58.5509 61.6357 59.8308 61.2549 61.4391 61.0425C62.536 60.8824 63.4177 60.693 64.0843 60.4744C64.7509 60.2558 65.4113 59.9577 66.0654 59.5801C67.6015 58.6932 68.5682 57.4381 68.9655 55.8147L67.0467 52.4912C66.8272 53.3469 66.4939 54.1084 66.0467 54.7758C65.5996 55.4432 65.1134 55.9285 64.5881 56.2318C63.6169 56.7925 62.3398 57.1782 60.7568 57.3888C59.8363 57.511 59.0121 57.6798 58.2843 57.8954C57.5565 58.111 56.8308 58.4277 56.1074 58.8453C54.5911 59.7208 53.6244 60.9759 53.2072 62.6107L55.126 65.9343C55.3622 65.1073 55.6972 64.3544 56.131 63.6755C56.5649 62.9965 57.0544 62.4997 57.5995 62.185Z" fill="#1165EF"/>
<path fill-rule="evenodd" clip-rule="evenodd" d="M90.9709 64.705L90.3624 62.7112H90.2588C89.5683 63.583 88.8735 64.1764 88.1744 64.4914C87.4753 64.8064 86.5776 64.9639 85.4815 64.9639C84.0746 64.9639 82.9763 64.5842 82.1866 63.8246C81.3968 63.0651 81.002 61.9905 81.002 60.6009C81.002 59.125 81.55 58.0116 82.6462 57.2607C83.7423 56.5098 85.4124 56.0998 87.6565 56.0308L90.1293 55.9531V55.1892C90.1293 54.2743 89.9157 53.5903 89.4885 53.1372C89.0612 52.6841 88.3988 52.4575 87.5012 52.4575C86.7675 52.4575 86.0641 52.5654 85.3909 52.7812C84.7176 52.9969 84.0703 53.2516 83.4489 53.545L82.4649 51.37C83.2417 50.9643 84.0919 50.6558 85.0154 50.4443C85.9389 50.2328 86.8107 50.1271 87.6306 50.1271C89.4518 50.1271 90.8263 50.5241 91.7541 51.3182C92.682 52.1123 93.1459 53.3594 93.1459 55.0598V64.705H90.9709ZM86.4395 62.6336C87.5443 62.6336 88.4312 62.325 89.1001 61.7079C89.769 61.0907 90.1034 60.2255 90.1034 59.1121V57.8692L88.265 57.9469C86.8322 57.9987 85.7901 58.2382 85.1384 58.6654C84.4868 59.0927 84.1609 59.7464 84.1609 60.6268C84.1609 61.2655 84.3508 61.7596 84.7306 62.1092C85.1104 62.4588 85.68 62.6336 86.4395 62.6336ZM100.977 64.705H97.9341V50.386H100.977V64.705ZM97.7528 46.5927C97.7528 46.0489 97.9017 45.6303 98.1995 45.3369C98.4972 45.0434 98.9223 44.8967 99.4747 44.8967C100.01 44.8967 100.426 45.0434 100.724 45.3369C101.022 45.6303 101.171 46.0489 101.171 46.5927C101.171 47.1105 101.022 47.5184 100.724 47.8161C100.426 48.1139 100.01 48.2628 99.4747 48.2628C98.9223 48.2628 98.4972 48.1139 98.1995 47.8161C97.9017 47.5184 97.7528 47.1105 97.7528 46.5927ZM113.131 50.1271C113.744 50.1271 114.249 50.1703 114.646 50.2566L114.348 53.0919C113.917 52.9883 113.468 52.9365 113.002 52.9365C111.785 52.9365 110.799 53.3336 110.044 54.1276C109.288 54.9217 108.911 55.9531 108.911 57.2219V64.705H105.868V50.386H108.25L108.652 52.9106H108.807C109.282 52.0562 109.901 51.3786 110.665 50.878C111.429 50.3774 112.251 50.1271 113.131 50.1271ZM122.14 64.9639C120.353 64.9639 118.96 64.3166 117.958 63.022C116.957 61.7273 116.456 59.9105 116.456 57.5714C116.456 55.2238 116.964 53.3961 117.978 52.0885C118.992 50.7809 120.397 50.1271 122.192 50.1271C124.073 50.1271 125.506 50.8219 126.49 52.2115H126.646C126.499 51.1844 126.425 50.3731 126.425 49.7775V44.5601H129.481V64.705H127.099L126.568 62.8278H126.425C125.45 64.2519 124.022 64.9639 122.14 64.9639ZM122.956 62.5041C124.207 62.5041 125.118 62.1524 125.687 61.4489C126.257 60.7455 126.551 59.604 126.568 58.0246V57.5973C126.568 55.7934 126.274 54.5117 125.687 53.7522C125.101 52.9926 124.181 52.6129 122.93 52.6129C121.86 52.6129 121.035 53.0466 120.457 53.914C119.879 54.7814 119.59 56.0178 119.59 57.6232C119.59 59.2113 119.87 60.4218 120.431 61.2547C120.992 62.0876 121.834 62.5041 122.956 62.5041ZM140.626 64.9639C138.399 64.9639 136.658 64.3145 135.402 63.0155C134.146 61.7165 133.518 59.9277 133.518 57.6491C133.518 55.3101 134.101 53.4717 135.266 52.1338C136.431 50.796 138.032 50.1271 140.069 50.1271C141.959 50.1271 143.452 50.7011 144.549 51.849C145.645 52.997 146.193 54.5764 146.193 56.5875V58.2317H136.651C136.694 59.6213 137.07 60.6894 137.778 61.436C138.485 62.1826 139.482 62.5559 140.768 62.5559C141.614 62.5559 142.402 62.476 143.131 62.3164C143.86 62.1567 144.644 61.8913 145.481 61.5201V63.9929C144.738 64.3468 143.988 64.5971 143.228 64.7439C142.468 64.8906 141.601 64.9639 140.626 64.9639ZM140.069 52.4316C139.102 52.4316 138.328 52.738 137.745 53.3508C137.163 53.9636 136.815 54.8569 136.703 56.0308H143.202C143.185 54.8483 142.9 53.9528 142.348 53.3443C141.795 52.7359 141.036 52.4316 140.069 52.4316ZM153.454 64.705L148.016 50.386H151.227L154.14 58.7107C154.641 60.109 154.943 61.2396 155.046 62.1027H155.15C155.227 61.4813 155.53 60.3506 156.056 58.7107L158.969 50.386H162.206L156.742 64.705H153.454Z" fill="#1165EF"/>
</g>
</g>
<defs>
<filter id="filter0_d_3687_2337" x="0.427734" y="0" width="205.715" height="128" filterUnits="userSpaceOnUse" color-interpolation-filters="sRGB">
<feFlood flood-opacity="0" result="BackgroundImageFix"/>
<feColorMatrix in="SourceAlpha" type="matrix" values="0 0 0 0 0 0 0 0 0 0 0 0 0 0 0 0 0 0 127 0" result="hardAlpha"/>
<feOffset dy="8"/>
<feGaussianBlur stdDeviation="12"/>
<feComposite in2="hardAlpha" operator="out"/>
<feColorMatrix type="matrix" values="0 0 0 0 0.0745098 0 0 0 0 0.133333 0 0 0 0 0.223529 0 0 0 0.04 0"/>
<feBlend mode="normal" in2="BackgroundImageFix" result="effect1_dropShadow_3687_2337"/>
<feBlend mode="normal" in="SourceGraphic" in2="effect1_dropShadow_3687_2337" result="shape"/>
</filter>
<clipPath id="clip0_3687_2337">
<rect width="117.794" height="30" fill="white" transform="translate(44.3887 41)"/>
</clipPath>
</defs>
</svg>
