<svg width="159" height="80" viewBox="0 0 159 80" fill="none" xmlns="http://www.w3.org/2000/svg">
<rect x="0.428711" width="157.714" height="80" rx="8" fill="white"/>
<rect x="0.928711" y="0.5" width="156.714" height="79" rx="7.5" stroke="#132239" stroke-opacity="0.04"/>
<g clip-path="url(#clip0_633_143)">
<path fill-rule="evenodd" clip-rule="evenodd" d="M35.3819 54.7657C27.2232 54.7657 20.6094 48.1518 20.6094 39.9932C20.6094 31.8346 27.2232 25.2207 35.3819 25.2207C43.5405 25.2207 50.1543 31.8346 50.1543 39.9932C50.1543 48.1518 43.5405 54.7657 35.3819 54.7657ZM29.8117 39.7459C30.7631 39.1966 32.0429 38.8157 33.6513 38.6033C34.7482 38.4432 35.6299 38.2539 36.2965 38.0353C36.9631 37.8167 37.6235 37.5185 38.2776 37.1409C39.8137 36.254 40.7804 34.9989 41.1777 33.3755L39.2589 30.052C39.0394 30.9077 38.7061 31.6692 38.2589 32.3366C37.8118 33.0041 37.3256 33.4894 36.8003 33.7926C35.8291 34.3534 34.552 34.739 32.969 34.9496C32.0485 35.0718 31.2243 35.2407 30.4965 35.4563C29.7687 35.6719 29.043 35.9885 28.3196 36.4062C26.8033 37.2816 25.8365 38.5367 25.4194 40.1716L27.3382 43.4951C27.5743 42.6682 27.9093 41.9152 28.3432 41.2363C28.7771 40.5574 29.2666 40.0606 29.8117 39.7459ZM33.5995 46.1851C34.5509 45.6359 35.8308 45.255 37.4391 45.0426C38.536 44.8825 39.4177 44.6932 40.0843 44.4746C40.7509 44.2559 41.4113 43.9578 42.0654 43.5802C43.6015 42.6933 44.5682 41.4382 44.9655 39.8148L43.0467 36.4913C42.8272 37.347 42.4939 38.1085 42.0467 38.7759C41.5996 39.4433 41.1134 39.9287 40.5881 40.2319C39.6169 40.7927 38.3398 41.1783 36.7568 41.3889C35.8363 41.5111 35.0121 41.68 34.2843 41.8956C33.5565 42.1111 32.8308 42.4278 32.1074 42.8455C30.5911 43.7209 29.6244 44.976 29.2072 46.6109L31.126 49.9344C31.3622 49.1074 31.6972 48.3545 32.131 47.6756C32.5649 46.9967 33.0544 46.4998 33.5995 46.1851Z" fill="#1165EF"/>
<path fill-rule="evenodd" clip-rule="evenodd" d="M66.9699 48.705L66.3614 46.7112H66.2578C65.5673 47.583 64.8725 48.1764 64.1734 48.4914C63.4743 48.8064 62.5767 48.9639 61.4805 48.9639C60.0736 48.9639 58.9753 48.5842 58.1856 47.8246C57.3958 47.0651 57.001 45.9905 57.001 44.6009C57.001 43.125 57.549 42.0116 58.6452 41.2607C59.7414 40.5098 61.4115 40.0998 63.6556 40.0308L66.1284 39.9531V39.1892C66.1284 38.2743 65.9147 37.5903 65.4875 37.1372C65.0603 36.6841 64.3978 36.4575 63.5002 36.4575C62.7665 36.4575 62.0631 36.5654 61.3899 36.7812C60.7167 36.9969 60.0693 37.2516 59.4479 37.545L58.4639 35.37C59.2407 34.9643 60.0909 34.6558 61.0144 34.4443C61.938 34.2328 62.8097 34.1271 63.6297 34.1271C65.4508 34.1271 66.8253 34.5241 67.7532 35.3182C68.681 36.1123 69.1449 37.3594 69.1449 39.0598V48.705H66.9699ZM62.4386 46.6336C63.5434 46.6336 64.4302 46.325 65.0991 45.7079C65.768 45.0907 66.1025 44.2255 66.1025 43.1121V41.8692L64.264 41.9469C62.8313 41.9987 61.7891 42.2382 61.1374 42.6654C60.4858 43.0927 60.16 43.7464 60.16 44.6268C60.16 45.2655 60.3498 45.7597 60.7296 46.1092C61.1094 46.4588 61.679 46.6336 62.4386 46.6336ZM76.9755 48.705H73.9331V34.386H76.9755V48.705ZM73.7518 30.5927C73.7518 30.0489 73.9007 29.6303 74.1985 29.3369C74.4963 29.0434 74.9213 28.8967 75.4737 28.8967C76.0089 28.8967 76.4253 29.0434 76.7231 29.3369C77.0209 29.6303 77.1697 30.0489 77.1697 30.5927C77.1697 31.1105 77.0209 31.5184 76.7231 31.8161C76.4253 32.1139 76.0089 32.2628 75.4737 32.2628C74.9213 32.2628 74.4963 32.1139 74.1985 31.8161C73.9007 31.5184 73.7518 31.1105 73.7518 30.5927ZM89.1303 34.1271C89.7431 34.1271 90.2481 34.1703 90.6451 34.2566L90.3473 37.0919C89.9158 36.9883 89.4669 36.9365 89.0009 36.9365C87.7839 36.9365 86.7978 37.3336 86.0426 38.1276C85.2873 38.9217 84.9097 39.9531 84.9097 41.2219V48.705H81.8673V34.386H84.2495L84.6508 36.9106H84.8062C85.2809 36.0562 85.9001 35.3786 86.664 34.878C87.4279 34.3774 88.25 34.1271 89.1303 34.1271ZM98.1391 48.9639C96.3524 48.9639 94.9585 48.3166 93.9573 47.022C92.9561 45.7273 92.4555 43.9105 92.4555 41.5714C92.4555 39.2238 92.9626 37.3961 93.9767 36.0885C94.9909 34.7809 96.3956 34.1271 98.1909 34.1271C100.072 34.1271 101.505 34.8219 102.489 36.2115H102.645C102.498 35.1844 102.424 34.3731 102.424 33.7775V28.5601H105.48V48.705H103.098L102.567 46.8278H102.424C101.449 48.2519 100.021 48.9639 98.1391 48.9639ZM98.9547 46.5041C100.206 46.5041 101.117 46.1524 101.686 45.4489C102.256 44.7455 102.55 43.604 102.567 42.0246V41.5973C102.567 39.7934 102.273 38.5117 101.686 37.7522C101.1 36.9926 100.18 36.6129 98.9288 36.6129C97.8586 36.6129 97.0343 37.0466 96.456 37.914C95.8777 38.7814 95.5886 40.0178 95.5886 41.6232C95.5886 43.2113 95.8691 44.4218 96.4301 45.2547C96.9912 46.0876 97.8327 46.5041 98.9547 46.5041ZM116.625 48.9639C114.398 48.9639 112.657 48.3145 111.401 47.0155C110.145 45.7165 109.517 43.9277 109.517 41.6491C109.517 39.3101 110.1 37.4717 111.265 36.1338C112.43 34.796 114.031 34.1271 116.068 34.1271C117.958 34.1271 119.451 34.7011 120.548 35.849C121.644 36.997 122.192 38.5764 122.192 40.5875V42.2317H112.65C112.693 43.6213 113.069 44.6894 113.777 45.436C114.484 46.1826 115.481 46.5559 116.767 46.5559C117.613 46.5559 118.401 46.476 119.13 46.3164C119.859 46.1567 120.643 45.8913 121.48 45.5201V47.9929C120.738 48.3468 119.987 48.5971 119.227 48.7439C118.468 48.8906 117.6 48.9639 116.625 48.9639ZM116.068 36.4316C115.101 36.4316 114.327 36.738 113.744 37.3508C113.162 37.9636 112.814 38.8569 112.702 40.0308H119.201C119.184 38.8483 118.899 37.9528 118.347 37.3443C117.794 36.7359 117.035 36.4316 116.068 36.4316ZM129.453 48.705L124.015 34.386H127.226L130.139 42.7107C130.64 44.109 130.942 45.2396 131.045 46.1027H131.149C131.227 45.4813 131.529 44.3506 132.055 42.7107L134.968 34.386H138.205L132.741 48.705H129.453Z" fill="#1165EF"/>
</g>
<defs>
<clipPath id="clip0_633_143">
<rect width="117.794" height="30" fill="white" transform="translate(20.3887 25)"/>
</clipPath>
</defs>
</svg>
