<svg width="802" height="168" viewBox="0 0 802 168" fill="none" xmlns="http://www.w3.org/2000/svg">
<path fill-rule="evenodd" clip-rule="evenodd" d="M193.802 165.945V0.106445H155.48V165.945H193.802ZM7.41065 69.3551C2.62972 79.0664 0.239258 90.3464 0.239258 103.195C0.239258 116.044 2.62972 127.399 7.41065 137.259C12.341 146.97 18.9894 154.515 27.3561 159.894C35.7227 165.123 44.9857 167.738 55.1452 167.738C63.96 167.738 71.6543 165.945 78.2281 162.359C84.9513 158.773 90.1804 154.067 93.9155 148.24V165.945H132.238V40.8937H93.9155V58.5981C90.3298 52.7713 85.1754 48.0651 78.4522 44.4794C71.8784 40.8937 64.1841 39.1009 55.3693 39.1009C45.0604 39.1009 35.7227 41.7154 27.3561 46.9446C18.9894 52.1737 12.341 59.6439 7.41065 69.3551ZM85.8477 80.7845C91.2262 86.3125 93.9155 93.8574 93.9155 103.419C93.9155 112.981 91.2262 120.526 85.8477 126.054C80.6186 131.582 74.1942 134.346 66.5746 134.346C58.955 134.346 52.4559 131.582 47.0774 126.054C41.8482 120.377 39.2337 112.757 39.2337 103.195C39.2337 93.6333 41.8482 86.1631 47.0774 80.7845C52.4559 75.2566 58.955 72.4926 66.5746 72.4926C74.1942 72.4926 80.6186 75.2566 85.8477 80.7845ZM449.251 69.3551C444.47 79.0664 442.08 90.3464 442.08 103.195C442.08 116.044 444.47 127.399 449.251 137.259C454.181 146.97 460.83 154.515 469.196 159.894C477.563 165.123 486.826 167.738 496.986 167.738C505.8 167.738 513.495 165.945 520.068 162.359C526.792 158.773 532.021 154.067 535.756 148.24V165.945H574.078V40.8937H535.756V58.5981C532.17 52.7713 527.016 48.0651 520.293 44.4794C513.719 40.8937 506.025 39.1009 497.21 39.1009C486.901 39.1009 477.563 41.7154 469.196 46.9446C460.83 52.1737 454.181 59.6439 449.251 69.3551ZM527.688 80.7845C533.067 86.3125 535.756 93.8574 535.756 103.419C535.756 112.981 533.067 120.526 527.688 126.054C522.459 131.582 516.035 134.346 508.415 134.346C500.795 134.346 494.296 131.582 488.918 126.054C483.689 120.377 481.074 112.757 481.074 103.195C481.074 93.6333 483.689 86.1631 488.918 80.7845C494.296 75.2566 500.795 72.4926 508.415 72.4926C516.035 72.4926 522.459 75.2566 527.688 80.7845ZM667.017 133.449V165.945H647.52C633.625 165.945 622.794 162.583 615.025 155.86C607.256 148.987 603.371 137.857 603.371 122.468V72.7167H588.132V40.8937H603.371V10.4153H641.693V40.8937H666.793V72.7167H641.693V122.916C641.693 126.652 642.59 129.341 644.382 130.984C646.175 132.628 649.163 133.449 653.347 133.449H667.017ZM801.088 112.608C801.537 108.723 801.761 104.988 801.761 101.402C801.761 88.8524 799.071 77.8712 793.693 68.4587C788.464 59.0463 781.143 51.8002 771.731 46.7205C762.318 41.6407 751.561 39.1009 739.459 39.1009C727.059 39.1009 716.078 41.7154 706.516 46.9446C696.954 52.1737 689.484 59.6439 684.105 69.3551C678.876 79.0664 676.261 90.4211 676.261 103.419C676.261 116.417 678.951 127.772 684.329 137.483C689.708 147.195 697.178 154.665 706.74 159.894C716.302 165.123 727.208 167.738 739.459 167.738C749.619 167.738 758.807 165.87 767.024 162.135C775.242 158.4 782.039 153.245 787.418 146.672C792.946 140.098 796.756 132.702 798.847 124.485H758.06C754.325 132.553 747.677 136.587 738.115 136.587C731.69 136.587 726.237 134.57 721.755 130.536C717.422 126.353 714.957 120.377 714.359 112.608H801.088ZM755.819 75.6301C760.301 79.5146 762.542 84.7438 762.542 91.3175H714.584C715.629 84.445 718.319 79.1411 722.651 75.406C727.133 71.6709 732.587 69.8034 739.011 69.8034C745.734 69.8034 751.337 71.7456 755.819 75.6301Z" fill="black"/>
<path fill-rule="evenodd" clip-rule="evenodd" d="M376.508 39.1064C392.046 39.1064 404.372 43.8127 413.485 53.2251C422.748 62.6376 427.38 75.7104 427.38 92.4436V124.686C422.708 119.423 415.892 116.106 408.302 116.106C400.742 116.106 393.951 119.396 389.282 124.621V97.5981C389.282 89.5303 387.115 83.33 382.783 78.9973C378.599 74.5152 372.773 72.2741 365.302 72.2741C357.832 72.2741 351.931 74.5152 347.598 78.9973C343.415 83.33 341.323 89.5303 341.323 97.5981V165.502H303.225V97.5981C303.225 89.5303 301.059 83.33 296.726 78.9973C292.543 74.5152 286.716 72.2741 279.246 72.2741C271.776 72.2741 265.874 74.5152 261.541 78.9973C257.358 83.33 255.266 89.5303 255.266 97.5981V165.502H216.944V40.4511H255.266V56.1385C259.151 50.9093 264.231 46.8007 270.506 43.8127C276.781 40.6752 283.877 39.1064 291.796 39.1064C301.208 39.1064 309.575 41.1234 316.896 45.1573C324.366 49.1912 330.193 54.9432 334.376 62.4134C338.709 55.5409 344.61 49.9382 352.08 45.6055C359.55 41.2728 367.693 39.1064 376.508 39.1064ZM427.38 165.502V146.655C427.38 136.135 418.851 127.606 408.331 127.606C397.81 127.606 389.282 136.135 389.282 146.655V165.502H427.38Z" fill="url(#paint0_radial_2_110)"/>
<defs>
<radialGradient id="paint0_radial_2_110" cx="0" cy="0" r="1" gradientUnits="userSpaceOnUse" gradientTransform="translate(427.802 165.106) rotate(-149.156) scale(245.758 245.758)">
<stop stop-color="#EA68FF"/>
<stop offset="1" stop-color="#0285FF"/>
</radialGradient>
</defs>
</svg>
