<svg width="1200" height="297" viewBox="0 0 1200 297" fill="none" xmlns="http://www.w3.org/2000/svg">
<g clip-path="url(#clip0_1776_1281)">
<rect width="1200" height="296" transform="translate(0 0.890625)" fill="#ECF3EE"/>
<path fill-rule="evenodd" clip-rule="evenodd" d="M3.45638 41.5612C-4.30123 41.5612 -8.18004 41.5612 -10.59 39.1512C-13 36.7412 -13 32.8624 -13 25.1048C-13 17.3472 -13 13.4684 -10.59 11.0584C-8.18004 8.64844 -4.30123 8.64844 3.45638 8.64844C11.214 8.64844 15.0928 8.64844 17.5028 11.0584C19.9128 13.4684 19.9128 17.3472 19.9128 25.1048C19.9128 32.8624 19.9128 36.7412 17.5028 39.1512C15.0928 41.5612 11.214 41.5612 3.45638 41.5612ZM85.7383 41.5612C77.9806 41.5612 74.1018 41.5612 71.6919 39.1512C69.2819 36.7412 69.2819 32.8624 69.2819 25.1048C69.2819 17.3472 69.2819 13.4684 71.6919 11.0584C74.1018 8.64844 77.9806 8.64844 85.7383 8.64844C93.4959 8.64844 97.3747 8.64844 99.7846 11.0584C102.195 13.4684 102.195 17.3472 102.195 25.1048C102.195 32.8624 102.195 36.7412 99.7846 39.1512C97.3747 41.5612 93.4959 41.5612 85.7383 41.5612ZM1182.5 39.1512C1184.91 41.5612 1188.79 41.5612 1196.54 41.5612C1204.3 41.5612 1208.18 41.5612 1210.59 39.1512C1213 36.7412 1213 32.8624 1213 25.1048C1213 17.3472 1213 13.4684 1210.59 11.0584C1208.18 8.64844 1204.3 8.64844 1196.54 8.64844C1188.79 8.64844 1184.91 8.64844 1182.5 11.0584C1180.09 13.4684 1180.09 17.3472 1180.09 25.1048C1180.09 32.8624 1180.09 36.7412 1182.5 39.1512ZM44.5973 82.7021C36.8397 82.7021 32.9609 82.7021 30.5509 80.2921C28.1409 77.8822 28.1409 74.0034 28.1409 66.2458C28.1409 58.4881 28.1409 54.6093 30.5509 52.1994C32.9609 49.7894 36.8397 49.7894 44.5973 49.7894C52.3549 49.7894 56.2337 49.7894 58.6437 52.1994C61.0537 54.6093 61.0537 58.4881 61.0537 66.2458C61.0537 74.0034 61.0537 77.8822 58.6437 80.2921C56.2337 82.7021 52.3549 82.7021 44.5973 82.7021ZM71.6919 80.2921C74.1018 82.7021 77.9806 82.7021 85.7383 82.7021C93.4959 82.7021 97.3747 82.7021 99.7846 80.2921C102.195 77.8822 102.195 74.0034 102.195 66.2458C102.195 58.4881 102.195 54.6093 99.7846 52.1994C97.3747 49.7894 93.4959 49.7894 85.7383 49.7894C77.9806 49.7894 74.1018 49.7894 71.6919 52.1994C69.2819 54.6093 69.2819 58.4881 69.2819 66.2458C69.2819 74.0034 69.2819 77.8822 71.6919 80.2921ZM168.02 82.7021C160.263 82.7021 156.384 82.7021 153.974 80.2921C151.564 77.8822 151.564 74.0034 151.564 66.2458C151.564 58.4881 151.564 54.6093 153.974 52.1994C156.384 49.7894 160.263 49.7894 168.02 49.7894C175.778 49.7894 179.657 49.7894 182.067 52.1994C184.477 54.6093 184.477 58.4881 184.477 66.2458C184.477 74.0034 184.477 77.8822 182.067 80.2921C179.657 82.7021 175.778 82.7021 168.02 82.7021ZM976.792 80.2921C979.202 82.7021 983.081 82.7021 990.839 82.7021C998.597 82.7021 1002.48 82.7021 1004.89 80.2921C1007.3 77.8822 1007.3 74.0034 1007.3 66.2458C1007.3 58.4881 1007.3 54.6093 1004.89 52.1994C1002.48 49.7894 998.597 49.7894 990.839 49.7894C983.081 49.7894 979.202 49.7894 976.792 52.1994C974.383 54.6093 974.383 58.4881 974.383 66.2458C974.383 74.0034 974.383 77.8822 976.792 80.2921ZM1073.12 82.7021C1065.36 82.7021 1061.48 82.7021 1059.07 80.2921C1056.66 77.8822 1056.66 74.0034 1056.66 66.2458C1056.66 58.4881 1056.66 54.6093 1059.07 52.1994C1061.48 49.7894 1065.36 49.7894 1073.12 49.7894C1080.88 49.7894 1084.76 49.7894 1087.17 52.1994C1089.58 54.6093 1089.58 58.4881 1089.58 66.2458C1089.58 74.0034 1089.58 77.8822 1087.17 80.2921C1084.76 82.7021 1080.88 82.7021 1073.12 82.7021ZM1141.36 80.2921C1143.77 82.7021 1147.65 82.7021 1155.4 82.7021C1163.16 82.7021 1167.04 82.7021 1169.45 80.2921C1171.86 77.8822 1171.86 74.0034 1171.86 66.2458C1171.86 58.4881 1171.86 54.6093 1169.45 52.1994C1167.04 49.7894 1163.16 49.7894 1155.4 49.7894C1147.65 49.7894 1143.77 49.7894 1141.36 52.1994C1138.95 54.6093 1138.95 58.4881 1138.95 66.2458C1138.95 74.0034 1138.95 77.8822 1141.36 80.2921ZM3.45638 123.843C-4.30123 123.843 -8.18004 123.843 -10.59 121.433C-13 119.023 -13 115.144 -13 107.387C-13 99.6291 -13 95.7503 -10.59 93.3403C-8.18004 90.9303 -4.30123 90.9303 3.45638 90.9303C11.214 90.9303 15.0928 90.9303 17.5028 93.3403C19.9128 95.7503 19.9128 99.6291 19.9128 107.387C19.9128 115.144 19.9128 119.023 17.5028 121.433C15.0928 123.843 11.214 123.843 3.45638 123.843ZM71.6919 121.433C74.1018 123.843 77.9806 123.843 85.7383 123.843C93.4959 123.843 97.3747 123.843 99.7846 121.433C102.195 119.023 102.195 115.144 102.195 107.387C102.195 99.6291 102.195 95.7503 99.7846 93.3403C97.3747 90.9303 93.4959 90.9303 85.7383 90.9303C77.9806 90.9303 74.1018 90.9303 71.6919 93.3403C69.2819 95.7503 69.2819 99.6291 69.2819 107.387C69.2819 115.144 69.2819 119.023 71.6919 121.433ZM126.879 123.843C119.122 123.843 115.243 123.843 112.833 121.433C110.423 119.023 110.423 115.144 110.423 107.387C110.423 99.6291 110.423 95.7503 112.833 93.3403C115.243 90.9303 119.122 90.9303 126.879 90.9303C134.637 90.9303 138.516 90.9303 140.926 93.3403C143.336 95.7503 143.336 99.6291 143.336 107.387C143.336 115.144 143.336 119.023 140.926 121.433C138.516 123.843 134.637 123.843 126.879 123.843ZM1017.93 121.433C1020.34 123.843 1024.22 123.843 1031.98 123.843C1039.74 123.843 1043.62 123.843 1046.03 121.433C1048.44 119.023 1048.44 115.144 1048.44 107.387C1048.44 99.6291 1048.44 95.7503 1046.03 93.3403C1043.62 90.9303 1039.74 90.9303 1031.98 90.9303C1024.22 90.9303 1020.34 90.9303 1017.93 93.3403C1015.52 95.7503 1015.52 99.6291 1015.52 107.387C1015.52 115.144 1015.52 119.023 1017.93 121.433ZM1114.26 123.843C1106.5 123.843 1102.63 123.843 1100.22 121.433C1097.81 119.023 1097.81 115.144 1097.81 107.387C1097.81 99.6291 1097.81 95.7503 1100.22 93.3403C1102.63 90.9303 1106.5 90.9303 1114.26 90.9303C1122.02 90.9303 1125.9 90.9303 1128.31 93.3403C1130.72 95.7503 1130.72 99.6291 1130.72 107.387C1130.72 115.144 1130.72 119.023 1128.31 121.433C1125.9 123.843 1122.02 123.843 1114.26 123.843ZM30.5509 162.574C32.9609 164.984 36.8397 164.984 44.5973 164.984C52.3549 164.984 56.2337 164.984 58.6437 162.574C61.0537 160.164 61.0537 156.285 61.0537 148.528C61.0537 140.77 61.0537 136.891 58.6437 134.481C56.2337 132.071 52.3549 132.071 44.5973 132.071C36.8397 132.071 32.9609 132.071 30.5509 134.481C28.1409 136.891 28.1409 140.77 28.1409 148.528C28.1409 156.285 28.1409 160.164 30.5509 162.574ZM85.7383 164.984C77.9806 164.984 74.1018 164.984 71.6919 162.574C69.2819 160.164 69.2819 156.285 69.2819 148.528C69.2819 140.77 69.2819 136.891 71.6919 134.481C74.1018 132.071 77.9806 132.071 85.7383 132.071C93.4959 132.071 97.3747 132.071 99.7846 134.481C102.195 136.891 102.195 140.77 102.195 148.528C102.195 156.285 102.195 160.164 99.7846 162.574C97.3747 164.984 93.4959 164.984 85.7383 164.984ZM153.974 162.574C156.384 164.984 160.263 164.984 168.02 164.984C175.778 164.984 179.657 164.984 182.067 162.574C184.477 160.164 184.477 156.285 184.477 148.528C184.477 140.77 184.477 136.891 182.067 134.481C179.657 132.071 175.778 132.071 168.02 132.071C160.263 132.071 156.384 132.071 153.974 134.481C151.564 136.891 151.564 140.77 151.564 148.528C151.564 156.285 151.564 160.164 153.974 162.574ZM209.161 164.984C201.403 164.984 197.525 164.984 195.115 162.574C192.705 160.164 192.705 156.285 192.705 148.528C192.705 140.77 192.705 136.891 195.115 134.481C197.525 132.071 201.403 132.071 209.161 132.071C216.919 132.071 220.797 132.071 223.207 134.481C225.617 136.891 225.617 140.77 225.617 148.528C225.617 156.285 225.617 160.164 223.207 162.574C220.797 164.984 216.919 164.984 209.161 164.984ZM976.792 162.574C979.202 164.984 983.081 164.984 990.839 164.984C998.597 164.984 1002.48 164.984 1004.89 162.574C1007.3 160.164 1007.3 156.285 1007.3 148.528C1007.3 140.77 1007.3 136.891 1004.89 134.481C1002.48 132.071 998.597 132.071 990.839 132.071C983.081 132.071 979.202 132.071 976.792 134.481C974.383 136.891 974.383 140.77 974.383 148.528C974.383 156.285 974.383 160.164 976.792 162.574ZM1196.54 164.984C1188.79 164.984 1184.91 164.984 1182.5 162.574C1180.09 160.164 1180.09 156.285 1180.09 148.528C1180.09 140.77 1180.09 136.891 1182.5 134.481C1184.91 132.071 1188.79 132.071 1196.54 132.071C1204.3 132.071 1208.18 132.071 1210.59 134.481C1213 136.891 1213 140.77 1213 148.528C1213 156.285 1213 160.164 1210.59 162.574C1208.18 164.984 1204.3 164.984 1196.54 164.984ZM-10.59 203.715C-8.18004 206.125 -4.30123 206.125 3.45638 206.125C11.214 206.125 15.0928 206.125 17.5028 203.715C19.9128 201.305 19.9128 197.426 19.9128 189.669C19.9128 181.911 19.9128 178.032 17.5028 175.622C15.0928 173.212 11.214 173.212 3.45638 173.212C-4.30123 173.212 -8.18004 173.212 -10.59 175.622C-13 178.032 -13 181.911 -13 189.669C-13 197.426 -13 201.305 -10.59 203.715ZM126.879 206.125C119.122 206.125 115.243 206.125 112.833 203.715C110.423 201.305 110.423 197.426 110.423 189.669C110.423 181.911 110.423 178.032 112.833 175.622C115.243 173.212 119.122 173.212 126.879 173.212C134.637 173.212 138.516 173.212 140.926 175.622C143.336 178.032 143.336 181.911 143.336 189.669C143.336 197.426 143.336 201.305 140.926 203.715C138.516 206.125 134.637 206.125 126.879 206.125ZM976.792 203.715C979.202 206.125 983.081 206.125 990.839 206.125C998.597 206.125 1002.48 206.125 1004.89 203.715C1007.3 201.305 1007.3 197.426 1007.3 189.669C1007.3 181.911 1007.3 178.032 1004.89 175.622C1002.48 173.212 998.597 173.212 990.839 173.212C983.081 173.212 979.202 173.212 976.792 175.622C974.383 178.032 974.383 181.911 974.383 189.669C974.383 197.426 974.383 201.305 976.792 203.715ZM1073.12 206.125C1065.36 206.125 1061.48 206.125 1059.07 203.715C1056.66 201.305 1056.66 197.426 1056.66 189.669C1056.66 181.911 1056.66 178.032 1059.07 175.622C1061.48 173.212 1065.36 173.212 1073.12 173.212C1080.88 173.212 1084.76 173.212 1087.17 175.622C1089.58 178.032 1089.58 181.911 1089.58 189.669C1089.58 197.426 1089.58 201.305 1087.17 203.715C1084.76 206.125 1080.88 206.125 1073.12 206.125ZM1100.22 203.715C1102.63 206.125 1106.5 206.125 1114.26 206.125C1122.02 206.125 1125.9 206.125 1128.31 203.715C1130.72 201.305 1130.72 197.426 1130.72 189.669C1130.72 181.911 1130.72 178.032 1128.31 175.622C1125.9 173.212 1122.02 173.212 1114.26 173.212C1106.5 173.212 1102.63 173.212 1100.22 175.622C1097.81 178.032 1097.81 181.911 1097.81 189.669C1097.81 197.426 1097.81 201.305 1100.22 203.715ZM1155.4 206.125C1147.65 206.125 1143.77 206.125 1141.36 203.715C1138.95 201.305 1138.95 197.426 1138.95 189.669C1138.95 181.911 1138.95 178.032 1141.36 175.622C1143.77 173.212 1147.65 173.212 1155.4 173.212C1163.16 173.212 1167.04 173.212 1169.45 175.622C1171.86 178.032 1171.86 181.911 1171.86 189.669C1171.86 197.426 1171.86 201.305 1169.45 203.715C1167.04 206.125 1163.16 206.125 1155.4 206.125ZM30.5509 244.856C32.9609 247.266 36.8397 247.266 44.5973 247.266C52.3549 247.266 56.2337 247.266 58.6437 244.856C61.0537 242.446 61.0537 238.567 61.0537 230.81C61.0537 223.052 61.0537 219.173 58.6437 216.763C56.2337 214.353 52.3549 214.353 44.5973 214.353C36.8397 214.353 32.9609 214.353 30.5509 216.763C28.1409 219.173 28.1409 223.052 28.1409 230.81C28.1409 238.567 28.1409 242.446 30.5509 244.856ZM85.7383 247.266C77.9806 247.266 74.1018 247.266 71.6919 244.856C69.2819 242.446 69.2819 238.567 69.2819 230.81C69.2819 223.052 69.2819 219.173 71.6919 216.763C74.1018 214.353 77.9806 214.353 85.7383 214.353C93.4959 214.353 97.3747 214.353 99.7846 216.763C102.195 219.173 102.195 223.052 102.195 230.81C102.195 238.567 102.195 242.446 99.7846 244.856C97.3747 247.266 93.4959 247.266 85.7383 247.266ZM153.974 244.856C156.384 247.266 160.263 247.266 168.02 247.266C175.778 247.266 179.657 247.266 182.067 244.856C184.477 242.446 184.477 238.567 184.477 230.81C184.477 223.052 184.477 219.173 182.067 216.763C179.657 214.353 175.778 214.353 168.02 214.353C160.263 214.353 156.384 214.353 153.974 216.763C151.564 219.173 151.564 223.052 151.564 230.81C151.564 238.567 151.564 242.446 153.974 244.856ZM250.302 247.266C242.544 247.266 238.666 247.266 236.256 244.856C233.846 242.446 233.846 238.567 233.846 230.81C233.846 223.052 233.846 219.173 236.256 216.763C238.666 214.353 242.544 214.353 250.302 214.353C258.06 214.353 261.938 214.353 264.348 216.763C266.758 219.173 266.758 223.052 266.758 230.81C266.758 238.567 266.758 242.446 264.348 244.856C261.938 247.266 258.06 247.266 250.302 247.266ZM935.652 244.856C938.062 247.266 941.94 247.266 949.698 247.266C957.456 247.266 961.334 247.266 963.744 244.856C966.154 242.446 966.154 238.567 966.154 230.81C966.154 223.052 966.154 219.173 963.744 216.763C961.334 214.353 957.456 214.353 949.698 214.353C941.94 214.353 938.062 214.353 935.652 216.763C933.242 219.173 933.242 223.052 933.242 230.81C933.242 238.567 933.242 242.446 935.652 244.856ZM1031.98 247.266C1024.22 247.266 1020.34 247.266 1017.93 244.856C1015.52 242.446 1015.52 238.567 1015.52 230.81C1015.52 223.052 1015.52 219.173 1017.93 216.763C1020.34 214.353 1024.22 214.353 1031.98 214.353C1039.74 214.353 1043.62 214.353 1046.03 216.763C1048.44 219.173 1048.44 223.052 1048.44 230.81C1048.44 238.567 1048.44 242.446 1046.03 244.856C1043.62 247.266 1039.74 247.266 1031.98 247.266ZM1059.07 244.856C1061.48 247.266 1065.36 247.266 1073.12 247.266C1080.88 247.266 1084.76 247.266 1087.17 244.856C1089.58 242.446 1089.58 238.567 1089.58 230.81C1089.58 223.052 1089.58 219.173 1087.17 216.763C1084.76 214.353 1080.88 214.353 1073.12 214.353C1065.36 214.353 1061.48 214.353 1059.07 216.763C1056.66 219.173 1056.66 223.052 1056.66 230.81C1056.66 238.567 1056.66 242.446 1059.07 244.856ZM1114.26 247.266C1106.5 247.266 1102.63 247.266 1100.22 244.856C1097.81 242.446 1097.81 238.567 1097.81 230.81C1097.81 223.052 1097.81 219.173 1100.22 216.763C1102.63 214.353 1106.5 214.353 1114.26 214.353C1122.02 214.353 1125.9 214.353 1128.31 216.763C1130.72 219.173 1130.72 223.052 1130.72 230.81C1130.72 238.567 1130.72 242.446 1128.31 244.856C1125.9 247.266 1122.02 247.266 1114.26 247.266ZM1182.5 244.856C1184.91 247.266 1188.79 247.266 1196.54 247.266C1204.3 247.266 1208.18 247.266 1210.59 244.856C1213 242.446 1213 238.567 1213 230.81C1213 223.052 1213 219.173 1210.59 216.763C1208.18 214.353 1204.3 214.353 1196.54 214.353C1188.79 214.353 1184.91 214.353 1182.5 216.763C1180.09 219.173 1180.09 223.052 1180.09 230.81C1180.09 238.567 1180.09 242.446 1182.5 244.856ZM3.45638 288.407C-4.30123 288.407 -8.18004 288.407 -10.59 285.997C-13 283.587 -13 279.708 -13 271.95C-13 264.193 -13 260.314 -10.59 257.904C-8.18004 255.494 -4.30123 255.494 3.45638 255.494C11.214 255.494 15.0928 255.494 17.5028 257.904C19.9128 260.314 19.9128 264.193 19.9128 271.95C19.9128 279.708 19.9128 283.587 17.5028 285.997C15.0928 288.407 11.214 288.407 3.45638 288.407ZM30.5509 285.997C32.9609 288.407 36.8397 288.407 44.5973 288.407C52.3549 288.407 56.2337 288.407 58.6437 285.997C61.0537 283.587 61.0537 279.708 61.0537 271.95C61.0537 264.193 61.0537 260.314 58.6437 257.904C56.2337 255.494 52.3549 255.494 44.5973 255.494C36.8397 255.494 32.9609 255.494 30.5509 257.904C28.1409 260.314 28.1409 264.193 28.1409 271.95C28.1409 279.708 28.1409 283.587 30.5509 285.997ZM126.879 288.407C119.122 288.407 115.243 288.407 112.833 285.997C110.423 283.587 110.423 279.708 110.423 271.95C110.423 264.193 110.423 260.314 112.833 257.904C115.243 255.494 119.122 255.494 126.879 255.494C134.637 255.494 138.516 255.494 140.926 257.904C143.336 260.314 143.336 264.193 143.336 271.95C143.336 279.708 143.336 283.587 140.926 285.997C138.516 288.407 134.637 288.407 126.879 288.407ZM195.115 285.997C197.525 288.407 201.403 288.407 209.161 288.407C216.919 288.407 220.797 288.407 223.207 285.997C225.617 283.587 225.617 279.708 225.617 271.95C225.617 264.193 225.617 260.314 223.207 257.904C220.797 255.494 216.919 255.494 209.161 255.494C201.403 255.494 197.525 255.494 195.115 257.904C192.705 260.314 192.705 264.193 192.705 271.95C192.705 279.708 192.705 283.587 195.115 285.997ZM250.302 288.407C242.544 288.407 238.666 288.407 236.256 285.997C233.846 283.587 233.846 279.708 233.846 271.95C233.846 264.193 233.846 260.314 236.256 257.904C238.666 255.494 242.544 255.494 250.302 255.494C258.06 255.494 261.938 255.494 264.348 257.904C266.758 260.314 266.758 264.193 266.758 271.95C266.758 279.708 266.758 283.587 264.348 285.997C261.938 288.407 258.06 288.407 250.302 288.407ZM277.397 285.997C279.807 288.407 283.685 288.407 291.443 288.407C299.201 288.407 303.079 288.407 305.489 285.997C307.899 283.587 307.899 279.708 307.899 271.95C307.899 264.193 307.899 260.314 305.489 257.904C303.079 255.494 299.201 255.494 291.443 255.494C283.685 255.494 279.807 255.494 277.397 257.904C274.987 260.314 274.987 264.193 274.987 271.95C274.987 279.708 274.987 283.587 277.397 285.997ZM373.725 288.407C365.967 288.407 362.088 288.407 359.678 285.997C357.268 283.587 357.268 279.708 357.268 271.95C357.268 264.193 357.268 260.314 359.678 257.904C362.088 255.494 365.967 255.494 373.725 255.494C381.482 255.494 385.361 255.494 387.771 257.904C390.181 260.314 390.181 264.193 390.181 271.95C390.181 279.708 390.181 283.587 387.771 285.997C385.361 288.407 381.482 288.407 373.725 288.407ZM853.37 285.997C855.78 288.407 859.658 288.407 867.416 288.407C875.174 288.407 879.052 288.407 881.462 285.997C883.872 283.587 883.872 279.708 883.872 271.95C883.872 264.193 883.872 260.314 881.462 257.904C879.052 255.494 875.174 255.494 867.416 255.494C859.658 255.494 855.78 255.494 853.37 257.904C850.96 260.314 850.96 264.193 850.96 271.95C850.96 279.708 850.96 283.587 853.37 285.997ZM908.557 288.407C900.799 288.407 896.921 288.407 894.511 285.997C892.101 283.587 892.101 279.708 892.101 271.95C892.101 264.193 892.101 260.314 894.511 257.904C896.921 255.494 900.799 255.494 908.557 255.494C916.315 255.494 920.193 255.494 922.603 257.904C925.013 260.314 925.013 264.193 925.013 271.95C925.013 279.708 925.013 283.587 922.603 285.997C920.193 288.407 916.315 288.407 908.557 288.407ZM935.652 285.997C938.062 288.407 941.94 288.407 949.698 288.407C957.456 288.407 961.334 288.407 963.744 285.997C966.154 283.587 966.154 279.708 966.154 271.95C966.154 264.193 966.154 260.314 963.744 257.904C961.334 255.494 957.456 255.494 949.698 255.494C941.94 255.494 938.062 255.494 935.652 257.904C933.242 260.314 933.242 264.193 933.242 271.95C933.242 279.708 933.242 283.587 935.652 285.997ZM1031.98 288.407C1024.22 288.407 1020.34 288.407 1017.93 285.997C1015.52 283.587 1015.52 279.708 1015.52 271.95C1015.52 264.193 1015.52 260.314 1017.93 257.904C1020.34 255.494 1024.22 255.494 1031.98 255.494C1039.74 255.494 1043.62 255.494 1046.03 257.904C1048.44 260.314 1048.44 264.193 1048.44 271.95C1048.44 279.708 1048.44 283.587 1046.03 285.997C1043.62 288.407 1039.74 288.407 1031.98 288.407ZM1100.22 285.997C1102.63 288.407 1106.5 288.407 1114.26 288.407C1122.02 288.407 1125.9 288.407 1128.31 285.997C1130.72 283.587 1130.72 279.708 1130.72 271.95C1130.72 264.193 1130.72 260.314 1128.31 257.904C1125.9 255.494 1122.02 255.494 1114.26 255.494C1106.5 255.494 1102.63 255.494 1100.22 257.904C1097.81 260.314 1097.81 264.193 1097.81 271.95C1097.81 279.708 1097.81 283.587 1100.22 285.997ZM1196.54 288.407C1188.79 288.407 1184.91 288.407 1182.5 285.997C1180.09 283.587 1180.09 279.708 1180.09 271.95C1180.09 264.193 1180.09 260.314 1182.5 257.904C1184.91 255.494 1188.79 255.494 1196.54 255.494C1204.3 255.494 1208.18 255.494 1210.59 257.904C1213 260.314 1213 264.193 1213 271.95C1213 279.708 1213 283.587 1210.59 285.997C1208.18 288.407 1204.3 288.407 1196.54 288.407Z" fill="#5BD473"/>
<path d="M192.858 192.665C192.376 180.317 193.133 176.703 196.607 174.758C198.708 173.581 202.09 173.265 210.413 173.463C225.24 173.817 225.103 173.667 225.103 189.669C225.103 200.075 224.824 202.217 223.266 203.774C221.709 205.332 219.568 205.611 209.161 205.611C193.497 205.611 193.358 205.5 192.858 192.665Z" fill="#5BD473"/>
<path fill-rule="evenodd" clip-rule="evenodd" d="M32.0444 10.1938C28.571 12.1387 27.814 15.7529 28.2954 28.1004C28.7953 40.9353 28.9341 41.0464 44.5985 41.0464C55.0051 41.0464 57.1465 40.7677 58.7037 39.2094C60.2619 37.6523 60.5406 35.5109 60.5406 25.1043C60.5406 9.1025 60.6774 9.25266 45.8502 8.89885C37.5274 8.70035 34.1456 9.01713 32.0444 10.1938ZM114.326 10.1938C110.853 12.1387 110.096 15.7529 110.577 28.1004C111.077 40.9353 111.216 41.0464 126.88 41.0464C143.139 41.0464 142.823 41.3632 142.823 25.1043C142.823 9.1025 142.959 9.25266 128.132 8.89885C119.809 8.70035 116.428 9.01713 114.326 10.1938ZM155.467 10.1938C151.994 12.1387 151.237 15.7529 151.718 28.1004C152.218 40.9353 152.357 41.0464 168.021 41.0464C178.428 41.0464 180.569 40.7677 182.127 39.2094C183.685 37.6523 183.963 35.5109 183.963 25.1043C183.963 9.1025 184.1 9.25266 169.273 8.89885C160.95 8.70035 157.568 9.01713 155.467 10.1938ZM196.608 10.1938C193.135 12.1387 192.378 15.7529 192.859 28.1004C193.359 40.9353 193.498 41.0464 209.162 41.0464C219.569 41.0464 221.71 40.7677 223.267 39.2094C224.826 37.6523 225.104 35.5109 225.104 25.1043C225.104 9.1025 225.241 9.25266 210.414 8.89885C202.091 8.70035 198.709 9.01713 196.608 10.1938ZM237.749 10.1938C234.276 12.1387 233.519 15.7529 234 28.1004C234.5 40.9353 234.639 41.0464 250.303 41.0464C266.562 41.0464 266.245 41.3632 266.245 25.1043C266.245 9.1025 266.382 9.25266 251.555 8.89885C243.232 8.70035 239.85 9.01713 237.749 10.1938ZM278.89 10.1938C275.417 12.1387 274.66 15.7529 275.141 28.1004C275.641 40.9353 275.78 41.0464 291.444 41.0464C307.703 41.0464 307.386 41.3632 307.386 25.1043C307.386 9.1025 307.523 9.25266 292.696 8.89885C284.373 8.70035 280.991 9.01713 278.89 10.1938ZM320.031 10.1938C316.558 12.1387 315.801 15.7529 316.282 28.1004C316.782 40.9353 316.921 41.0464 332.585 41.0464C348.844 41.0464 348.527 41.3632 348.527 25.1043C348.527 9.1025 348.664 9.25266 333.837 8.89885C325.514 8.70035 322.132 9.01713 320.031 10.1938ZM361.172 10.1938C357.699 12.1387 356.942 15.7529 357.423 28.1004C357.923 40.9353 358.062 41.0464 373.726 41.0464C389.985 41.0464 389.668 41.3632 389.668 25.1043C389.668 9.1025 389.805 9.25266 374.978 8.89885C366.655 8.70035 363.273 9.01713 361.172 10.1938ZM402.313 10.1938C398.839 12.1387 398.082 15.7529 398.564 28.1004C399.064 40.9353 399.203 41.0464 414.867 41.0464C431.126 41.0464 430.809 41.3632 430.809 25.1043C430.809 9.1025 430.946 9.25266 416.119 8.89885C407.796 8.70035 404.414 9.01713 402.313 10.1938ZM443.454 10.1938C439.98 12.1387 439.223 15.7529 439.705 28.1004C440.205 40.9353 440.343 41.0464 456.008 41.0464C472.267 41.0464 471.95 41.3632 471.95 25.1043C471.95 9.1025 472.087 9.25266 457.26 8.89885C448.937 8.70035 445.555 9.01713 443.454 10.1938ZM484.595 10.1938C481.121 12.1387 480.364 15.7529 480.846 28.1004C481.346 40.9353 481.484 41.0464 497.149 41.0464C513.408 41.0464 513.091 41.3632 513.091 25.1043C513.091 9.1025 513.228 9.25266 498.401 8.89885C490.078 8.70035 486.696 9.01713 484.595 10.1938ZM525.736 10.1938C522.262 12.1387 521.505 15.7529 521.987 28.1004C522.487 40.9353 522.625 41.0464 538.29 41.0464C554.549 41.0464 554.232 41.3632 554.232 25.1043C554.232 9.1025 554.369 9.25266 539.541 8.89885C531.219 8.70035 527.837 9.01713 525.736 10.1938ZM566.877 10.1938C563.403 12.1387 562.646 15.7529 563.128 28.1004C563.627 40.9353 563.766 41.0464 579.431 41.0464C595.69 41.0464 595.373 41.3632 595.373 25.1043C595.373 9.1025 595.51 9.25266 580.682 8.89885C572.36 8.70035 568.978 9.01713 566.877 10.1938ZM608.018 10.1938C604.544 12.1387 603.787 15.7529 604.269 28.1004C604.768 40.9353 604.907 41.0464 620.572 41.0464C636.831 41.0464 636.514 41.3632 636.514 25.1043C636.514 9.1025 636.651 9.25266 621.823 8.89885C613.501 8.70035 610.119 9.01713 608.018 10.1938ZM649.158 10.1938C645.685 12.1387 644.928 15.7529 645.409 28.1004C645.909 40.9353 646.048 41.0464 661.713 41.0464C677.971 41.0464 677.655 41.3632 677.655 25.1043C677.655 9.1025 677.791 9.25266 662.964 8.89885C654.641 8.70035 651.26 9.01713 649.158 10.1938ZM690.299 10.1938C686.826 12.1387 686.069 15.7529 686.55 28.1004C687.05 40.9353 687.189 41.0464 702.854 41.0464C719.112 41.0464 718.796 41.3632 718.796 25.1043C718.796 9.1025 718.932 9.25266 704.105 8.89885C695.782 8.70035 692.401 9.01713 690.299 10.1938ZM731.44 10.1938C727.967 12.1387 727.21 15.7529 727.691 28.1004C728.191 40.9353 728.33 41.0464 743.994 41.0464C760.253 41.0464 759.937 41.3632 759.937 25.1043C759.937 9.1025 760.073 9.25266 745.246 8.89885C736.923 8.70035 733.542 9.01713 731.44 10.1938ZM772.581 10.1938C769.108 12.1387 768.351 15.7529 768.832 28.1004C769.332 40.9353 769.471 41.0464 785.135 41.0464C801.394 41.0464 801.078 41.3632 801.078 25.1043C801.078 9.1025 801.214 9.25266 786.387 8.89885C778.064 8.70035 774.683 9.01713 772.581 10.1938ZM813.722 10.1938C810.249 12.1387 809.492 15.7529 809.973 28.1004C810.473 40.9353 810.612 41.0464 826.276 41.0464C842.535 41.0464 842.218 41.3632 842.218 25.1043C842.218 9.1025 842.355 9.25266 827.528 8.89885C819.205 8.70035 815.823 9.01713 813.722 10.1938ZM854.863 10.1938C851.39 12.1387 850.633 15.7529 851.114 28.1004C851.614 40.9353 851.753 41.0464 867.417 41.0464C883.676 41.0464 883.359 41.3632 883.359 25.1043C883.359 9.1025 883.496 9.25266 868.669 8.89885C860.346 8.70035 856.964 9.01713 854.863 10.1938ZM896.004 10.1938C892.531 12.1387 891.774 15.7529 892.255 28.1004C892.755 40.9353 892.894 41.0464 908.558 41.0464C924.817 41.0464 924.5 41.3632 924.5 25.1043C924.5 9.1025 924.637 9.25266 909.81 8.89885C901.487 8.70035 898.105 9.01713 896.004 10.1938ZM937.145 10.1938C933.672 12.1387 932.915 15.7529 933.396 28.1004C933.896 40.9353 934.035 41.0464 949.699 41.0464C965.958 41.0464 965.641 41.3632 965.641 25.1043C965.641 9.1025 965.778 9.25266 950.951 8.89885C942.628 8.70035 939.246 9.01713 937.145 10.1938ZM978.286 10.1938C974.813 12.1387 974.056 15.7529 974.537 28.1004C975.037 40.9353 975.176 41.0464 990.84 41.0464C1007.1 41.0464 1006.78 41.3632 1006.78 25.1043C1006.78 9.1025 1006.92 9.25266 992.092 8.89885C983.769 8.70035 980.387 9.01713 978.286 10.1938ZM1019.43 10.1938C1015.95 12.1387 1015.2 15.7529 1015.68 28.1004C1016.18 40.9353 1016.32 41.0464 1031.98 41.0464C1048.24 41.0464 1047.92 41.3632 1047.92 25.1043C1047.92 9.1025 1048.06 9.25266 1033.23 8.89885C1024.91 8.70035 1021.53 9.01713 1019.43 10.1938ZM1060.57 10.1938C1057.09 12.1387 1056.34 15.7529 1056.82 28.1004C1057.32 40.9353 1057.46 41.0464 1073.12 41.0464C1089.38 41.0464 1089.06 41.3632 1089.06 25.1043C1089.06 9.1025 1089.2 9.25266 1074.37 8.89885C1066.05 8.70035 1062.67 9.01713 1060.57 10.1938ZM1101.71 10.1938C1098.24 12.1387 1097.48 15.7529 1097.96 28.1004C1098.46 40.9353 1098.6 41.0464 1114.26 41.0464C1130.52 41.0464 1130.21 41.3632 1130.21 25.1043C1130.21 9.1025 1130.34 9.25266 1115.51 8.89885C1107.19 8.70035 1103.81 9.01713 1101.71 10.1938ZM1142.85 10.1938C1139.38 12.1387 1138.62 15.7529 1139.1 28.1004C1139.6 40.9353 1139.74 41.0464 1155.4 41.0464C1171.66 41.0464 1171.35 41.3632 1171.35 25.1043C1171.35 9.1025 1171.48 9.25266 1156.66 8.89885C1148.33 8.70035 1144.95 9.01713 1142.85 10.1938ZM-9.09658 51.3347C-12.5699 53.2796 -13.3269 56.8939 -12.8455 69.2413C-12.3457 82.0762 -12.2068 82.1873 3.45758 82.1873C19.7165 82.1873 19.3997 82.5041 19.3997 66.2452C19.3997 50.2434 19.5365 50.3936 4.70929 50.0398C-3.61352 49.8413 -6.9953 50.1581 -9.09658 51.3347ZM114.326 51.3347C110.853 53.2796 110.096 56.8939 110.577 69.2413C111.077 82.0762 111.216 82.1873 126.88 82.1873C143.139 82.1873 142.823 82.5041 142.823 66.2452C142.823 50.2434 142.959 50.3936 128.132 50.0398C119.809 49.8413 116.428 50.1581 114.326 51.3347ZM196.608 51.3347C193.135 53.2796 192.378 56.8939 192.859 69.2413C193.359 82.0762 193.498 82.1873 209.162 82.1873C225.421 82.1873 225.104 82.5041 225.104 66.2452C225.104 50.2434 225.241 50.3936 210.414 50.0398C202.091 49.8413 198.709 50.1581 196.608 51.3347ZM237.749 51.3347C234.276 53.2796 233.519 56.8939 234 69.2413C234.5 82.0762 234.639 82.1873 250.303 82.1873C266.562 82.1873 266.245 82.5041 266.245 66.2452C266.245 50.2434 266.382 50.3936 251.555 50.0398C243.232 49.8413 239.85 50.1581 237.749 51.3347ZM278.89 51.3347C275.417 53.2796 274.66 56.8939 275.141 69.2413C275.641 82.0762 275.78 82.1873 291.444 82.1873C307.703 82.1873 307.386 82.5041 307.386 66.2452C307.386 50.2434 307.523 50.3936 292.696 50.0398C284.373 49.8413 280.991 50.1581 278.89 51.3347ZM320.031 51.3347C316.558 53.2796 315.801 56.8939 316.282 69.2413C316.782 82.0762 316.921 82.1873 332.585 82.1873C348.844 82.1873 348.527 82.5041 348.527 66.2452C348.527 50.2434 348.664 50.3936 333.837 50.0398C325.514 49.8413 322.132 50.1581 320.031 51.3347ZM361.172 51.3347C357.699 53.2796 356.942 56.8939 357.423 69.2413C357.923 82.0762 358.062 82.1873 373.726 82.1873C389.985 82.1873 389.668 82.5041 389.668 66.2452C389.668 50.2434 389.805 50.3936 374.978 50.0398C366.655 49.8413 363.273 50.1581 361.172 51.3347ZM402.313 51.3347C398.839 53.2796 398.082 56.8939 398.564 69.2413C399.064 82.0762 399.203 82.1873 414.867 82.1873C431.126 82.1873 430.809 82.5041 430.809 66.2452C430.809 50.2434 430.946 50.3936 416.119 50.0398C407.796 49.8413 404.414 50.1581 402.313 51.3347ZM443.454 51.3347C439.98 53.2796 439.223 56.8939 439.705 69.2413C440.205 82.0762 440.343 82.1873 456.008 82.1873C472.267 82.1873 471.95 82.5041 471.95 66.2452C471.95 50.2434 472.087 50.3936 457.26 50.0398C448.937 49.8413 445.555 50.1581 443.454 51.3347ZM484.595 51.3347C481.121 53.2796 480.364 56.8939 480.846 69.2413C481.346 82.0762 481.484 82.1873 497.149 82.1873C513.408 82.1873 513.091 82.5041 513.091 66.2452C513.091 50.2434 513.228 50.3936 498.401 50.0398C490.078 49.8413 486.696 50.1581 484.595 51.3347ZM525.736 51.3347C522.262 53.2796 521.505 56.8939 521.987 69.2413C522.487 82.0762 522.625 82.1873 538.29 82.1873C554.549 82.1873 554.232 82.5041 554.232 66.2452C554.232 50.2434 554.369 50.3936 539.541 50.0398C531.219 49.8413 527.837 50.1581 525.736 51.3347ZM566.877 51.3347C563.403 53.2796 562.646 56.8939 563.128 69.2413C563.627 82.0762 563.766 82.1873 579.431 82.1873C595.69 82.1873 595.373 82.5041 595.373 66.2452C595.373 50.2434 595.51 50.3936 580.682 50.0398C572.36 49.8413 568.978 50.1581 566.877 51.3347ZM608.018 51.3347C604.544 53.2796 603.787 56.8939 604.269 69.2413C604.768 82.0762 604.907 82.1873 620.572 82.1873C636.831 82.1873 636.514 82.5041 636.514 66.2452C636.514 50.2434 636.651 50.3936 621.823 50.0398C613.501 49.8413 610.119 50.1581 608.018 51.3347ZM649.158 51.3347C645.685 53.2796 644.928 56.8939 645.409 69.2413C645.909 82.0762 646.048 82.1873 661.713 82.1873C677.971 82.1873 677.655 82.5041 677.655 66.2452C677.655 50.2434 677.791 50.3936 662.964 50.0398C654.641 49.8413 651.26 50.1581 649.158 51.3347ZM690.299 51.3347C686.826 53.2796 686.069 56.8939 686.55 69.2413C687.05 82.0762 687.189 82.1873 702.854 82.1873C719.112 82.1873 718.796 82.5041 718.796 66.2452C718.796 50.2434 718.932 50.3936 704.105 50.0398C695.782 49.8413 692.401 50.1581 690.299 51.3347ZM731.44 51.3347C727.967 53.2796 727.21 56.8939 727.691 69.2413C728.191 82.0762 728.33 82.1873 743.994 82.1873C760.253 82.1873 759.937 82.5041 759.937 66.2452C759.937 50.2434 760.073 50.3936 745.246 50.0398C736.923 49.8413 733.542 50.1581 731.44 51.3347ZM772.581 51.3347C769.108 53.2796 768.351 56.8939 768.832 69.2413C769.332 82.0762 769.471 82.1873 785.135 82.1873C801.394 82.1873 801.078 82.5041 801.078 66.2452C801.078 50.2434 801.214 50.3936 786.387 50.0398C778.064 49.8413 774.683 50.1581 772.581 51.3347ZM813.722 51.3347C810.249 53.2796 809.492 56.8939 809.973 69.2413C810.473 82.0762 810.612 82.1873 826.276 82.1873C842.535 82.1873 842.218 82.5041 842.218 66.2452C842.218 50.2434 842.355 50.3936 827.528 50.0398C819.205 49.8413 815.823 50.1581 813.722 51.3347ZM854.863 51.3347C851.39 53.2796 850.633 56.8939 851.114 69.2413C851.614 82.0762 851.753 82.1873 867.417 82.1873C883.676 82.1873 883.359 82.5041 883.359 66.2452C883.359 50.2434 883.496 50.3936 868.669 50.0398C860.346 49.8413 856.964 50.1581 854.863 51.3347ZM896.004 51.3347C892.531 53.2796 891.774 56.8939 892.255 69.2413C892.755 82.0762 892.894 82.1873 908.558 82.1873C924.817 82.1873 924.5 82.5041 924.5 66.2452C924.5 50.2434 924.637 50.3936 909.81 50.0398C901.487 49.8413 898.105 50.1581 896.004 51.3347ZM937.145 51.3347C933.672 53.2796 932.915 56.8939 933.396 69.2413C933.896 82.0762 934.035 82.1873 949.699 82.1873C965.958 82.1873 965.641 82.5041 965.641 66.2452C965.641 50.2434 965.778 50.3936 950.951 50.0398C942.628 49.8413 939.246 50.1581 937.145 51.3347ZM1019.43 51.3347C1015.95 53.2796 1015.2 56.8939 1015.68 69.2413C1016.18 82.0762 1016.32 82.1873 1031.98 82.1873C1048.24 82.1873 1047.92 82.5041 1047.92 66.2452C1047.92 50.2434 1048.06 50.3936 1033.23 50.0398C1024.91 49.8413 1021.53 50.1581 1019.43 51.3347ZM1101.71 51.3347C1098.24 53.2796 1097.48 56.8939 1097.96 69.2413C1098.46 82.0762 1098.6 82.1873 1114.26 82.1873C1130.52 82.1873 1130.21 82.5041 1130.21 66.2452C1130.21 50.2434 1130.34 50.3936 1115.51 50.0398C1107.19 49.8413 1103.81 50.1581 1101.71 51.3347ZM1183.99 51.3347C1180.52 53.2796 1179.76 56.8939 1180.24 69.2413C1180.74 82.0762 1180.88 82.1873 1196.54 82.1873C1212.8 82.1873 1212.49 82.5041 1212.49 66.2452C1212.49 50.2434 1212.62 50.3936 1197.8 50.0398C1189.47 49.8413 1186.09 50.1581 1183.99 51.3347ZM32.0444 92.4756C28.571 94.4206 27.814 98.0348 28.2954 110.382C28.7953 123.217 28.9341 123.328 44.5985 123.328C55.0051 123.328 57.1465 123.05 58.7037 121.491C60.2619 119.934 60.5406 117.793 60.5406 107.386C60.5406 91.3844 60.6774 91.5345 45.8502 91.1807C37.5274 90.9822 34.1456 91.299 32.0444 92.4756ZM155.467 92.4756C151.994 94.4206 151.237 98.0348 151.718 110.382C152.218 123.217 152.357 123.328 168.021 123.328C184.28 123.328 183.963 123.645 183.963 107.386C183.963 91.3844 184.1 91.5345 169.273 91.1807C160.95 90.9822 157.568 91.299 155.467 92.4756ZM196.608 92.4756C193.135 94.4206 192.378 98.0348 192.859 110.382C193.359 123.217 193.498 123.328 209.162 123.328C225.421 123.328 225.104 123.645 225.104 107.386C225.104 91.3844 225.241 91.5345 210.414 91.1807C202.091 90.9822 198.709 91.299 196.608 92.4756ZM237.749 92.4756C234.276 94.4206 233.519 98.0348 234 110.382C234.5 123.217 234.639 123.328 250.303 123.328C266.562 123.328 266.245 123.645 266.245 107.386C266.245 91.3844 266.382 91.5345 251.555 91.1807C243.232 90.9822 239.85 91.299 237.749 92.4756ZM278.89 92.4756C275.417 94.4206 274.66 98.0348 275.141 110.382C275.641 123.217 275.78 123.328 291.444 123.328C307.703 123.328 307.386 123.645 307.386 107.386C307.386 91.3844 307.523 91.5345 292.696 91.1807C284.373 90.9822 280.991 91.299 278.89 92.4756ZM320.031 92.4756C316.558 94.4206 315.801 98.0348 316.282 110.382C316.782 123.217 316.921 123.328 332.585 123.328C348.844 123.328 348.527 123.645 348.527 107.386C348.527 91.3844 348.664 91.5345 333.837 91.1807C325.514 90.9822 322.132 91.299 320.031 92.4756ZM361.172 92.4756C357.699 94.4206 356.942 98.0348 357.423 110.382C357.923 123.217 358.062 123.328 373.726 123.328C389.985 123.328 389.668 123.645 389.668 107.386C389.668 91.3844 389.805 91.5345 374.978 91.1807C366.655 90.9822 363.273 91.299 361.172 92.4756ZM402.313 92.4756C398.839 94.4206 398.082 98.0348 398.564 110.382C399.064 123.217 399.203 123.328 414.867 123.328C431.126 123.328 430.809 123.645 430.809 107.386C430.809 91.3844 430.946 91.5345 416.119 91.1807C407.796 90.9822 404.414 91.299 402.313 92.4756ZM443.454 92.4756C439.98 94.4206 439.223 98.0348 439.705 110.382C440.205 123.217 440.343 123.328 456.008 123.328C472.267 123.328 471.95 123.645 471.95 107.386C471.95 91.3844 472.087 91.5345 457.26 91.1807C448.937 90.9822 445.555 91.299 443.454 92.4756ZM484.595 92.4756C481.121 94.4206 480.364 98.0348 480.846 110.382C481.346 123.217 481.484 123.328 497.149 123.328C513.408 123.328 513.091 123.645 513.091 107.386C513.091 91.3844 513.228 91.5345 498.401 91.1807C490.078 90.9822 486.696 91.299 484.595 92.4756ZM525.736 92.4756C522.262 94.4206 521.505 98.0348 521.987 110.382C522.487 123.217 522.625 123.328 538.29 123.328C554.549 123.328 554.232 123.645 554.232 107.386C554.232 91.3844 554.369 91.5345 539.541 91.1807C531.219 90.9822 527.837 91.299 525.736 92.4756ZM566.877 92.4756C563.403 94.4206 562.646 98.0348 563.128 110.382C563.627 123.217 563.766 123.328 579.431 123.328C595.69 123.328 595.373 123.645 595.373 107.386C595.373 91.3844 595.51 91.5345 580.682 91.1807C572.36 90.9822 568.978 91.299 566.877 92.4756ZM608.018 92.4756C604.544 94.4206 603.787 98.0348 604.269 110.382C604.768 123.217 604.907 123.328 620.572 123.328C636.831 123.328 636.514 123.645 636.514 107.386C636.514 91.3844 636.651 91.5345 621.823 91.1807C613.501 90.9822 610.119 91.299 608.018 92.4756ZM649.158 92.4756C645.685 94.4206 644.928 98.0348 645.409 110.382C645.909 123.217 646.048 123.328 661.713 123.328C677.971 123.328 677.655 123.645 677.655 107.386C677.655 91.3844 677.791 91.5345 662.964 91.1807C654.641 90.9822 651.26 91.299 649.158 92.4756ZM690.299 92.4756C686.826 94.4206 686.069 98.0348 686.55 110.382C687.05 123.217 687.189 123.328 702.854 123.328C719.112 123.328 718.796 123.645 718.796 107.386C718.796 91.3844 718.932 91.5345 704.105 91.1807C695.782 90.9822 692.401 91.299 690.299 92.4756ZM731.44 92.4756C727.967 94.4206 727.21 98.0348 727.691 110.382C728.191 123.217 728.33 123.328 743.994 123.328C760.253 123.328 759.937 123.645 759.937 107.386C759.937 91.3844 760.073 91.5345 745.246 91.1807C736.923 90.9822 733.542 91.299 731.44 92.4756ZM772.581 92.4756C769.108 94.4206 768.351 98.0348 768.832 110.382C769.332 123.217 769.471 123.328 785.135 123.328C801.394 123.328 801.078 123.645 801.078 107.386C801.078 91.3844 801.214 91.5345 786.387 91.1807C778.064 90.9822 774.683 91.299 772.581 92.4756ZM813.722 92.4756C810.249 94.4206 809.492 98.0348 809.973 110.382C810.473 123.217 810.612 123.328 826.276 123.328C842.535 123.328 842.218 123.645 842.218 107.386C842.218 91.3844 842.355 91.5345 827.528 91.1807C819.205 90.9822 815.823 91.299 813.722 92.4756ZM854.863 92.4756C851.39 94.4206 850.633 98.0348 851.114 110.382C851.614 123.217 851.753 123.328 867.417 123.328C883.676 123.328 883.359 123.645 883.359 107.386C883.359 91.3844 883.496 91.5345 868.669 91.1807C860.346 90.9822 856.964 91.299 854.863 92.4756ZM896.004 92.4756C892.531 94.4206 891.774 98.0348 892.255 110.382C892.755 123.217 892.894 123.328 908.558 123.328C924.817 123.328 924.5 123.645 924.5 107.386C924.5 91.3844 924.637 91.5345 909.81 91.1807C901.487 90.9822 898.105 91.299 896.004 92.4756ZM937.145 92.4756C933.672 94.4206 932.915 98.0348 933.396 110.382C933.896 123.217 934.035 123.328 949.699 123.328C965.958 123.328 965.641 123.645 965.641 107.386C965.641 91.3844 965.778 91.5345 950.951 91.1807C942.628 90.9822 939.246 91.299 937.145 92.4756ZM978.286 92.4756C974.813 94.4206 974.056 98.0348 974.537 110.382C975.037 123.217 975.176 123.328 990.84 123.328C1007.1 123.328 1006.78 123.645 1006.78 107.386C1006.78 91.3844 1006.92 91.5345 992.092 91.1807C983.769 90.9822 980.387 91.299 978.286 92.4756ZM1060.57 92.4756C1057.09 94.4206 1056.34 98.0348 1056.82 110.382C1057.32 123.217 1057.46 123.328 1073.12 123.328C1089.38 123.328 1089.06 123.645 1089.06 107.386C1089.06 91.3844 1089.2 91.5345 1074.37 91.1807C1066.05 90.9822 1062.67 91.299 1060.57 92.4756ZM1142.85 92.4756C1139.38 94.4206 1138.62 98.0348 1139.1 110.382C1139.6 123.217 1139.74 123.328 1155.4 123.328C1171.66 123.328 1171.35 123.645 1171.35 107.386C1171.35 91.3844 1171.48 91.5345 1156.66 91.1807C1148.33 90.9822 1144.95 91.299 1142.85 92.4756ZM1183.99 92.4756C1180.52 94.4206 1179.76 98.0348 1180.24 110.382C1180.74 123.217 1180.88 123.328 1196.54 123.328C1212.8 123.328 1212.49 123.645 1212.49 107.386C1212.49 91.3844 1212.62 91.5345 1197.8 91.1807C1189.47 90.9822 1186.09 91.299 1183.99 92.4756ZM-9.09658 133.617C-12.5699 135.562 -13.3269 139.176 -12.8455 151.523C-12.3457 164.358 -12.2068 164.469 3.45758 164.469C19.7165 164.469 19.3997 164.786 19.3997 148.527C19.3997 132.525 19.5365 132.675 4.70929 132.322C-3.61352 132.123 -6.9953 132.44 -9.09658 133.617ZM114.326 133.617C110.853 135.562 110.096 139.176 110.577 151.523C111.077 164.358 111.216 164.469 126.88 164.469C137.287 164.469 139.428 164.19 140.986 162.632C142.544 161.075 142.823 158.934 142.823 148.527C142.823 132.525 142.959 132.675 128.132 132.322C119.809 132.123 116.428 132.44 114.326 133.617ZM237.749 133.617C234.276 135.562 233.519 139.176 234 151.523C234.5 164.358 234.639 164.469 250.303 164.469C266.562 164.469 266.245 164.786 266.245 148.527C266.245 132.525 266.382 132.675 251.555 132.322C243.232 132.123 239.85 132.44 237.749 133.617ZM278.89 133.617C275.417 135.562 274.66 139.176 275.141 151.523C275.641 164.358 275.78 164.469 291.444 164.469C307.703 164.469 307.386 164.786 307.386 148.527C307.386 132.525 307.523 132.675 292.696 132.322C284.373 132.123 280.991 132.44 278.89 133.617ZM320.031 133.617C316.558 135.562 315.801 139.176 316.282 151.523C316.782 164.358 316.921 164.469 332.585 164.469C348.844 164.469 348.527 164.786 348.527 148.527C348.527 132.525 348.664 132.675 333.837 132.322C325.514 132.123 322.132 132.44 320.031 133.617ZM361.172 133.617C357.699 135.562 356.942 139.176 357.423 151.523C357.923 164.358 358.062 164.469 373.726 164.469C389.985 164.469 389.668 164.786 389.668 148.527C389.668 132.525 389.805 132.675 374.978 132.322C366.655 132.123 363.273 132.44 361.172 133.617ZM402.313 133.617C398.839 135.562 398.082 139.176 398.564 151.523C399.064 164.358 399.203 164.469 414.867 164.469C431.126 164.469 430.809 164.786 430.809 148.527C430.809 132.525 430.946 132.675 416.119 132.322C407.796 132.123 404.414 132.44 402.313 133.617ZM443.454 133.617C439.98 135.562 439.223 139.176 439.705 151.523C440.205 164.358 440.343 164.469 456.008 164.469C472.267 164.469 471.95 164.786 471.95 148.527C471.95 132.525 472.087 132.675 457.26 132.322C448.937 132.123 445.555 132.44 443.454 133.617ZM484.595 133.617C481.121 135.562 480.364 139.176 480.846 151.523C481.346 164.358 481.484 164.469 497.149 164.469C513.408 164.469 513.091 164.786 513.091 148.527C513.091 132.525 513.228 132.675 498.401 132.322C490.078 132.123 486.696 132.44 484.595 133.617ZM525.736 133.617C522.262 135.562 521.505 139.176 521.987 151.523C522.487 164.358 522.625 164.469 538.29 164.469C554.549 164.469 554.232 164.786 554.232 148.527C554.232 132.525 554.369 132.675 539.541 132.322C531.219 132.123 527.837 132.44 525.736 133.617ZM566.877 133.617C563.403 135.562 562.646 139.176 563.128 151.523C563.627 164.358 563.766 164.469 579.431 164.469C595.69 164.469 595.373 164.786 595.373 148.527C595.373 132.525 595.51 132.675 580.682 132.322C572.36 132.123 568.978 132.44 566.877 133.617ZM608.018 133.617C604.544 135.562 603.787 139.176 604.269 151.523C604.768 164.358 604.907 164.469 620.572 164.469C636.831 164.469 636.514 164.786 636.514 148.527C636.514 132.525 636.651 132.675 621.823 132.322C613.501 132.123 610.119 132.44 608.018 133.617ZM649.158 133.617C645.685 135.562 644.928 139.176 645.409 151.523C645.909 164.358 646.048 164.469 661.713 164.469C677.971 164.469 677.655 164.786 677.655 148.527C677.655 132.525 677.791 132.675 662.964 132.322C654.641 132.123 651.26 132.44 649.158 133.617ZM690.299 133.617C686.826 135.562 686.069 139.176 686.55 151.523C687.05 164.358 687.189 164.469 702.854 164.469C719.112 164.469 718.796 164.786 718.796 148.527C718.796 132.525 718.932 132.675 704.105 132.322C695.782 132.123 692.401 132.44 690.299 133.617ZM731.44 133.617C727.967 135.562 727.21 139.176 727.691 151.523C728.191 164.358 728.33 164.469 743.994 164.469C760.253 164.469 759.937 164.786 759.937 148.527C759.937 132.525 760.073 132.675 745.246 132.322C736.923 132.123 733.542 132.44 731.44 133.617ZM772.581 133.617C769.108 135.562 768.351 139.176 768.832 151.523C769.332 164.358 769.471 164.469 785.135 164.469C801.394 164.469 801.078 164.786 801.078 148.527C801.078 132.525 801.214 132.675 786.387 132.322C778.064 132.123 774.683 132.44 772.581 133.617ZM813.722 133.617C810.249 135.562 809.492 139.176 809.973 151.523C810.473 164.358 810.612 164.469 826.276 164.469C842.535 164.469 842.218 164.786 842.218 148.527C842.218 132.525 842.355 132.675 827.528 132.322C819.205 132.123 815.823 132.44 813.722 133.617ZM854.863 133.617C851.39 135.562 850.633 139.176 851.114 151.523C851.614 164.358 851.753 164.469 867.417 164.469C883.676 164.469 883.359 164.786 883.359 148.527C883.359 132.525 883.496 132.675 868.669 132.322C860.346 132.123 856.964 132.44 854.863 133.617ZM896.004 133.617C892.531 135.562 891.774 139.176 892.255 151.523C892.755 164.358 892.894 164.469 908.558 164.469C924.817 164.469 924.5 164.786 924.5 148.527C924.5 132.525 924.637 132.675 909.81 132.322C901.487 132.123 898.105 132.44 896.004 133.617ZM937.145 133.617C933.672 135.562 932.915 139.176 933.396 151.523C933.896 164.358 934.035 164.469 949.699 164.469C965.958 164.469 965.641 164.786 965.641 148.527C965.641 132.525 965.778 132.675 950.951 132.322C942.628 132.123 939.246 132.44 937.145 133.617ZM1019.43 133.617C1015.95 135.562 1015.2 139.176 1015.68 151.523C1016.18 164.358 1016.32 164.469 1031.98 164.469C1048.24 164.469 1047.92 164.786 1047.92 148.527C1047.92 132.525 1048.06 132.675 1033.23 132.322C1024.91 132.123 1021.53 132.44 1019.43 133.617ZM1060.57 133.617C1057.09 135.562 1056.34 139.176 1056.82 151.523C1057.32 164.358 1057.46 164.469 1073.12 164.469C1089.38 164.469 1089.06 164.786 1089.06 148.527C1089.06 132.525 1089.2 132.675 1074.37 132.322C1066.05 132.123 1062.67 132.44 1060.57 133.617ZM1101.71 133.617C1098.24 135.562 1097.48 139.176 1097.96 151.523C1098.46 164.358 1098.6 164.469 1114.26 164.469C1130.52 164.469 1130.21 164.786 1130.21 148.527C1130.21 132.525 1130.34 132.675 1115.51 132.322C1107.19 132.123 1103.81 132.44 1101.71 133.617ZM1142.85 133.617C1139.38 135.562 1138.62 139.176 1139.1 151.523C1139.6 164.358 1139.74 164.469 1155.4 164.469C1171.66 164.469 1171.35 164.786 1171.35 148.527C1171.35 132.525 1171.48 132.675 1156.66 132.322C1148.33 132.123 1144.95 132.44 1142.85 133.617ZM32.0444 174.758C28.571 176.702 27.814 180.317 28.2954 192.664C28.7953 205.499 28.9341 205.61 44.5985 205.61C60.8574 205.61 60.5406 205.927 60.5406 189.668C60.5406 173.666 60.6774 173.816 45.8502 173.463C37.5274 173.264 34.1456 173.581 32.0444 174.758ZM73.1853 174.758C69.712 176.702 68.955 180.317 69.4363 192.664C69.9362 205.499 70.075 205.61 85.7395 205.61C101.998 205.61 101.682 205.927 101.682 189.668C101.682 173.666 101.818 173.816 86.9912 173.463C78.6684 173.264 75.2866 173.581 73.1853 174.758ZM155.467 174.758C151.994 176.702 151.237 180.317 151.718 192.664C152.218 205.499 152.357 205.61 168.021 205.61C178.428 205.61 180.569 205.331 182.127 203.773C183.685 202.216 183.963 200.075 183.963 189.668C183.963 173.666 184.1 173.816 169.273 173.463C160.95 173.264 157.568 173.581 155.467 174.758ZM237.749 174.758C234.276 176.702 233.519 180.317 234 192.664C234.5 205.499 234.639 205.61 250.303 205.61C266.562 205.61 266.245 205.927 266.245 189.668C266.245 173.666 266.382 173.816 251.555 173.463C243.232 173.264 239.85 173.581 237.749 174.758ZM278.89 174.758C275.417 176.702 274.66 180.317 275.141 192.664C275.641 205.499 275.78 205.61 291.444 205.61C307.703 205.61 307.386 205.927 307.386 189.668C307.386 173.666 307.523 173.816 292.696 173.463C284.373 173.264 280.991 173.581 278.89 174.758ZM320.031 174.758C316.558 176.702 315.801 180.317 316.282 192.664C316.782 205.499 316.921 205.61 332.585 205.61C348.844 205.61 348.527 205.927 348.527 189.668C348.527 173.666 348.664 173.816 333.837 173.463C325.514 173.264 322.132 173.581 320.031 174.758ZM361.172 174.758C357.699 176.702 356.942 180.317 357.423 192.664C357.923 205.499 358.062 205.61 373.726 205.61C389.985 205.61 389.668 205.927 389.668 189.668C389.668 173.666 389.805 173.816 374.978 173.463C366.655 173.264 363.273 173.581 361.172 174.758ZM402.313 174.758C398.839 176.702 398.082 180.317 398.564 192.664C399.064 205.499 399.203 205.61 414.867 205.61C431.126 205.61 430.809 205.927 430.809 189.668C430.809 173.666 430.946 173.816 416.119 173.463C407.796 173.264 404.414 173.581 402.313 174.758ZM443.454 174.758C439.98 176.702 439.223 180.317 439.705 192.664C440.205 205.499 440.343 205.61 456.008 205.61C472.267 205.61 471.95 205.927 471.95 189.668C471.95 173.666 472.087 173.816 457.26 173.463C448.937 173.264 445.555 173.581 443.454 174.758ZM484.595 174.758C481.121 176.702 480.364 180.317 480.846 192.664C481.346 205.499 481.484 205.61 497.149 205.61C513.408 205.61 513.091 205.927 513.091 189.668C513.091 173.666 513.228 173.816 498.401 173.463C490.078 173.264 486.696 173.581 484.595 174.758ZM525.736 174.758C522.262 176.702 521.505 180.317 521.987 192.664C522.487 205.499 522.625 205.61 538.29 205.61C554.549 205.61 554.232 205.927 554.232 189.668C554.232 173.666 554.369 173.816 539.541 173.463C531.219 173.264 527.837 173.581 525.736 174.758ZM566.877 174.758C563.403 176.702 562.646 180.317 563.128 192.664C563.627 205.499 563.766 205.61 579.431 205.61C595.69 205.61 595.373 205.927 595.373 189.668C595.373 173.666 595.51 173.816 580.682 173.463C572.36 173.264 568.978 173.581 566.877 174.758ZM608.018 174.758C604.544 176.702 603.787 180.317 604.269 192.664C604.768 205.499 604.907 205.61 620.572 205.61C636.831 205.61 636.514 205.927 636.514 189.668C636.514 173.666 636.651 173.816 621.823 173.463C613.501 173.264 610.119 173.581 608.018 174.758ZM649.158 174.758C645.685 176.702 644.928 180.317 645.409 192.664C645.909 205.499 646.048 205.61 661.713 205.61C677.971 205.61 677.655 205.927 677.655 189.668C677.655 173.666 677.791 173.816 662.964 173.463C654.641 173.264 651.26 173.581 649.158 174.758ZM690.299 174.758C686.826 176.702 686.069 180.317 686.55 192.664C687.05 205.499 687.189 205.61 702.854 205.61C719.112 205.61 718.796 205.927 718.796 189.668C718.796 173.666 718.932 173.816 704.105 173.463C695.782 173.264 692.401 173.581 690.299 174.758ZM731.44 174.758C727.967 176.702 727.21 180.317 727.691 192.664C728.191 205.499 728.33 205.61 743.994 205.61C760.253 205.61 759.937 205.927 759.937 189.668C759.937 173.666 760.073 173.816 745.246 173.463C736.923 173.264 733.542 173.581 731.44 174.758ZM772.581 174.758C769.108 176.702 768.351 180.317 768.832 192.664C769.332 205.499 769.471 205.61 785.135 205.61C801.394 205.61 801.078 205.927 801.078 189.668C801.078 173.666 801.214 173.816 786.387 173.463C778.064 173.264 774.683 173.581 772.581 174.758ZM813.722 174.758C810.249 176.702 809.492 180.317 809.973 192.664C810.473 205.499 810.612 205.61 826.276 205.61C842.535 205.61 842.218 205.927 842.218 189.668C842.218 173.666 842.355 173.816 827.528 173.463C819.205 173.264 815.823 173.581 813.722 174.758ZM854.863 174.758C851.39 176.702 850.633 180.317 851.114 192.664C851.614 205.499 851.753 205.61 867.417 205.61C883.676 205.61 883.359 205.927 883.359 189.668C883.359 173.666 883.496 173.816 868.669 173.463C860.346 173.264 856.964 173.581 854.863 174.758ZM896.004 174.758C892.531 176.702 891.774 180.317 892.255 192.664C892.755 205.499 892.894 205.61 908.558 205.61C924.817 205.61 924.5 205.927 924.5 189.668C924.5 173.666 924.637 173.816 909.81 173.463C901.487 173.264 898.105 173.581 896.004 174.758ZM937.145 174.758C933.672 176.702 932.915 180.317 933.396 192.664C933.896 205.499 934.035 205.61 949.699 205.61C965.958 205.61 965.641 205.927 965.641 189.668C965.641 173.666 965.778 173.816 950.951 173.463C942.628 173.264 939.246 173.581 937.145 174.758ZM1019.43 174.758C1015.95 176.702 1015.2 180.317 1015.68 192.664C1016.18 205.499 1016.32 205.61 1031.98 205.61C1048.24 205.61 1047.92 205.927 1047.92 189.668C1047.92 173.666 1048.06 173.816 1033.23 173.463C1024.91 173.264 1021.53 173.581 1019.43 174.758ZM1183.99 174.758C1180.52 176.702 1179.76 180.317 1180.24 192.664C1180.74 205.499 1180.88 205.61 1196.54 205.61C1212.8 205.61 1212.49 205.927 1212.49 189.668C1212.49 173.666 1212.62 173.816 1197.8 173.463C1189.47 173.264 1186.09 173.581 1183.99 174.758ZM-9.09658 215.898C-12.5699 217.843 -13.3269 221.458 -12.8455 233.805C-12.3457 246.64 -12.2068 246.751 3.45758 246.751C19.7165 246.751 19.3997 247.068 19.3997 230.809C19.3997 214.807 19.5365 214.957 4.70929 214.604C-3.61352 214.405 -6.9953 214.722 -9.09658 215.898ZM114.326 215.898C110.853 217.843 110.096 221.458 110.577 233.805C111.077 246.64 111.216 246.751 126.88 246.751C137.287 246.751 139.428 246.472 140.986 244.914C142.544 243.357 142.823 241.216 142.823 230.809C142.823 214.807 142.959 214.957 128.132 214.604C119.809 214.405 116.428 214.722 114.326 215.898ZM196.608 215.898C193.135 217.843 192.378 221.458 192.859 233.805C193.359 246.64 193.498 246.751 209.162 246.751C219.569 246.751 221.71 246.472 223.267 244.914C224.826 243.357 225.104 241.216 225.104 230.809C225.104 214.807 225.241 214.957 210.414 214.604C202.091 214.405 198.709 214.722 196.608 215.898ZM278.89 215.898C275.417 217.843 274.66 221.458 275.141 233.805C275.641 246.64 275.78 246.751 291.444 246.751C307.703 246.751 307.386 247.068 307.386 230.809C307.386 214.807 307.523 214.957 292.696 214.604C284.373 214.405 280.991 214.722 278.89 215.898ZM320.031 215.898C316.558 217.843 315.801 221.458 316.282 233.805C316.782 246.64 316.921 246.751 332.585 246.751C348.844 246.751 348.527 247.068 348.527 230.809C348.527 214.807 348.664 214.957 333.837 214.604C325.514 214.405 322.132 214.722 320.031 215.898ZM361.172 215.898C357.699 217.843 356.942 221.458 357.423 233.805C357.923 246.64 358.062 246.751 373.726 246.751C389.985 246.751 389.668 247.068 389.668 230.809C389.668 214.807 389.805 214.957 374.978 214.604C366.655 214.405 363.273 214.722 361.172 215.898ZM402.313 215.898C398.839 217.843 398.082 221.458 398.564 233.805C399.064 246.64 399.203 246.751 414.867 246.751C431.126 246.751 430.809 247.068 430.809 230.809C430.809 214.807 430.946 214.957 416.119 214.604C407.796 214.405 404.414 214.722 402.313 215.898ZM443.454 215.898C439.98 217.843 439.223 221.458 439.705 233.805C440.205 246.64 440.343 246.751 456.008 246.751C472.267 246.751 471.95 247.068 471.95 230.809C471.95 214.807 472.087 214.957 457.26 214.604C448.937 214.405 445.555 214.722 443.454 215.898ZM484.595 215.898C481.121 217.843 480.364 221.458 480.846 233.805C481.346 246.64 481.484 246.751 497.149 246.751C513.408 246.751 513.091 247.068 513.091 230.809C513.091 214.807 513.228 214.957 498.401 214.604C490.078 214.405 486.696 214.722 484.595 215.898ZM525.736 215.898C522.262 217.843 521.505 221.458 521.987 233.805C522.487 246.64 522.625 246.751 538.29 246.751C554.549 246.751 554.232 247.068 554.232 230.809C554.232 214.807 554.369 214.957 539.541 214.604C531.219 214.405 527.837 214.722 525.736 215.898ZM566.877 215.898C563.403 217.843 562.646 221.458 563.128 233.805C563.627 246.64 563.766 246.751 579.431 246.751C595.69 246.751 595.373 247.068 595.373 230.809C595.373 214.807 595.51 214.957 580.682 214.604C572.36 214.405 568.978 214.722 566.877 215.898ZM608.018 215.898C604.544 217.843 603.787 221.458 604.269 233.805C604.768 246.64 604.907 246.751 620.572 246.751C636.831 246.751 636.514 247.068 636.514 230.809C636.514 214.807 636.651 214.957 621.823 214.604C613.501 214.405 610.119 214.722 608.018 215.898ZM649.158 215.898C645.685 217.843 644.928 221.458 645.409 233.805C645.909 246.64 646.048 246.751 661.713 246.751C677.971 246.751 677.655 247.068 677.655 230.809C677.655 214.807 677.791 214.957 662.964 214.604C654.641 214.405 651.26 214.722 649.158 215.898ZM690.299 215.898C686.826 217.843 686.069 221.458 686.55 233.805C687.05 246.64 687.189 246.751 702.854 246.751C719.112 246.751 718.796 247.068 718.796 230.809C718.796 214.807 718.932 214.957 704.105 214.604C695.782 214.405 692.401 214.722 690.299 215.898ZM731.44 215.898C727.967 217.843 727.21 221.458 727.691 233.805C728.191 246.64 728.33 246.751 743.994 246.751C760.253 246.751 759.937 247.068 759.937 230.809C759.937 214.807 760.073 214.957 745.246 214.604C736.923 214.405 733.542 214.722 731.44 215.898ZM772.581 215.898C769.108 217.843 768.351 221.458 768.832 233.805C769.332 246.64 769.471 246.751 785.135 246.751C801.394 246.751 801.078 247.068 801.078 230.809C801.078 214.807 801.214 214.957 786.387 214.604C778.064 214.405 774.683 214.722 772.581 215.898ZM813.722 215.898C810.249 217.843 809.492 221.458 809.973 233.805C810.473 246.64 810.612 246.751 826.276 246.751C842.535 246.751 842.218 247.068 842.218 230.809C842.218 214.807 842.355 214.957 827.528 214.604C819.205 214.405 815.823 214.722 813.722 215.898ZM854.863 215.898C851.39 217.843 850.633 221.458 851.114 233.805C851.614 246.64 851.753 246.751 867.417 246.751C883.676 246.751 883.359 247.068 883.359 230.809C883.359 214.807 883.496 214.957 868.669 214.604C860.346 214.405 856.964 214.722 854.863 215.898ZM896.004 215.898C892.531 217.843 891.774 221.458 892.255 233.805C892.755 246.64 892.894 246.751 908.558 246.751C924.817 246.751 924.5 247.068 924.5 230.809C924.5 214.807 924.637 214.957 909.81 214.604C901.487 214.405 898.105 214.722 896.004 215.898ZM978.286 215.898C974.813 217.843 974.056 221.458 974.537 233.805C975.037 246.64 975.176 246.751 990.84 246.751C1007.1 246.751 1006.78 247.068 1006.78 230.809C1006.78 214.807 1006.92 214.957 992.092 214.604C983.769 214.405 980.387 214.722 978.286 215.898ZM1142.85 215.898C1139.38 217.843 1138.62 221.458 1139.1 233.805C1139.6 246.64 1139.74 246.751 1155.4 246.751C1171.66 246.751 1171.35 247.068 1171.35 230.809C1171.35 214.807 1171.48 214.957 1156.66 214.604C1148.33 214.405 1144.95 214.722 1142.85 215.898ZM73.1853 257.039C69.712 258.984 68.955 262.599 69.4363 274.946C69.9362 287.781 70.075 287.892 85.7395 287.892C101.998 287.892 101.682 288.209 101.682 271.95C101.682 255.948 101.818 256.098 86.9912 255.744C78.6684 255.546 75.2866 255.863 73.1853 257.039ZM155.467 257.039C151.994 258.984 151.237 262.599 151.718 274.946C152.218 287.781 152.357 287.892 168.021 287.892C184.28 287.892 183.963 288.209 183.963 271.95C183.963 255.948 184.1 256.098 169.273 255.744C160.95 255.546 157.568 255.863 155.467 257.039ZM320.031 257.039C316.558 258.984 315.801 262.599 316.282 274.946C316.782 287.781 316.921 287.892 332.585 287.892C342.992 287.892 345.133 287.613 346.69 286.055C348.248 284.498 348.527 282.356 348.527 271.95C348.527 255.948 348.664 256.098 333.837 255.744C325.514 255.546 322.132 255.863 320.031 257.039ZM402.313 257.039C398.839 258.984 398.082 262.599 398.564 274.946C399.064 287.781 399.203 287.892 414.867 287.892C425.274 287.892 427.415 287.613 428.972 286.055C430.53 284.498 430.809 282.356 430.809 271.95C430.809 255.948 430.946 256.098 416.119 255.744C407.796 255.546 404.414 255.863 402.313 257.039ZM443.454 257.039C439.98 258.984 439.223 262.599 439.705 274.946C440.205 287.781 440.343 287.892 456.008 287.892C466.415 287.892 468.556 287.613 470.113 286.055C471.671 284.498 471.95 282.356 471.95 271.95C471.95 255.948 472.087 256.098 457.26 255.744C448.937 255.546 445.555 255.863 443.454 257.039ZM484.595 257.039C481.121 258.984 480.364 262.599 480.846 274.946C481.346 287.781 481.484 287.892 497.149 287.892C507.555 287.892 509.697 287.613 511.254 286.055C512.812 284.498 513.091 282.356 513.091 271.95C513.091 255.948 513.228 256.098 498.401 255.744C490.078 255.546 486.696 255.863 484.595 257.039ZM525.736 257.039C522.262 258.984 521.505 262.599 521.987 274.946C522.487 287.781 522.625 287.892 538.29 287.892C554.549 287.892 554.232 288.209 554.232 271.95C554.232 255.948 554.369 256.098 539.541 255.744C531.219 255.546 527.837 255.863 525.736 257.039ZM566.877 257.039C563.403 258.984 562.646 262.599 563.128 274.946C563.627 287.781 563.766 287.892 579.431 287.892C595.69 287.892 595.373 288.209 595.373 271.95C595.373 255.948 595.51 256.098 580.682 255.744C572.36 255.546 568.978 255.863 566.877 257.039ZM608.018 257.039C604.544 258.984 603.787 262.599 604.269 274.946C604.768 287.781 604.907 287.892 620.572 287.892C636.831 287.892 636.514 288.209 636.514 271.95C636.514 255.948 636.651 256.098 621.823 255.744C613.501 255.546 610.119 255.863 608.018 257.039ZM649.158 257.039C645.685 258.984 644.928 262.599 645.409 274.946C645.909 287.781 646.048 287.892 661.713 287.892C677.971 287.892 677.655 288.209 677.655 271.95C677.655 255.948 677.791 256.098 662.964 255.744C654.641 255.546 651.26 255.863 649.158 257.039ZM690.299 257.039C686.826 258.984 686.069 262.599 686.55 274.946C687.05 287.781 687.189 287.892 702.854 287.892C719.112 287.892 718.796 288.209 718.796 271.95C718.796 255.948 718.932 256.098 704.105 255.744C695.782 255.546 692.401 255.863 690.299 257.039ZM731.44 257.039C727.967 258.984 727.21 262.599 727.691 274.946C728.191 287.781 728.33 287.892 743.994 287.892C760.253 287.892 759.937 288.209 759.937 271.95C759.937 255.948 760.073 256.098 745.246 255.744C736.923 255.546 733.542 255.863 731.44 257.039ZM772.581 257.039C769.108 258.984 768.351 262.599 768.832 274.946C769.332 287.781 769.471 287.892 785.135 287.892C801.394 287.892 801.078 288.209 801.078 271.95C801.078 255.948 801.214 256.098 786.387 255.744C778.064 255.546 774.683 255.863 772.581 257.039ZM813.722 257.039C810.249 258.984 809.492 262.599 809.973 274.946C810.473 287.781 810.612 287.892 826.276 287.892C842.535 287.892 842.218 288.209 842.218 271.95C842.218 255.948 842.355 256.098 827.528 255.744C819.205 255.546 815.823 255.863 813.722 257.039ZM978.286 257.039C974.813 258.984 974.056 262.599 974.537 274.946C975.037 287.781 975.176 287.892 990.84 287.892C1007.1 287.892 1006.78 288.209 1006.78 271.95C1006.78 255.948 1006.92 256.098 992.092 255.744C983.769 255.546 980.387 255.863 978.286 257.039ZM1060.57 257.039C1057.09 258.984 1056.34 262.599 1056.82 274.946C1057.32 287.781 1057.46 287.892 1073.12 287.892C1089.38 287.892 1089.06 288.209 1089.06 271.95C1089.06 255.948 1089.2 256.098 1074.37 255.744C1066.05 255.546 1062.67 255.863 1060.57 257.039ZM1142.85 257.039C1139.38 258.984 1138.62 262.599 1139.1 274.946C1139.6 287.781 1139.74 287.892 1155.4 287.892C1171.66 287.892 1171.35 288.209 1171.35 271.95C1171.35 255.948 1171.48 256.098 1156.66 255.744C1148.33 255.546 1144.95 255.863 1142.85 257.039Z" fill="#F4F8F5"/>
<rect y="0.523438" width="1200" height="296" fill="url(#paint0_linear_1776_1281)"/>
</g>
<defs>
<linearGradient id="paint0_linear_1776_1281" x1="-5.23018e-08" y1="294.803" x2="1200" y2="294.803" gradientUnits="userSpaceOnUse">
<stop stop-color="#ECF3EE" stop-opacity="0"/>
<stop offset="0.500667" stop-color="#ECF3EE"/>
<stop offset="1" stop-color="#ECF3EE" stop-opacity="0"/>
</linearGradient>
<clipPath id="clip0_1776_1281">
<rect width="1200" height="296" fill="white" transform="translate(0 0.890625)"/>
</clipPath>
</defs>
</svg>
