<svg width="245" height="24" viewBox="0 0 245 24" fill="none" xmlns="http://www.w3.org/2000/svg">
<path fill-rule="evenodd" clip-rule="evenodd" d="M4.59821 0.272853C4.52978 0.45159 4.50529 4.34421 4.54397 8.9234L4.61446 17.2487L5.34085 18.7823C6.2652 20.7333 7.76672 22.2348 9.71772 23.1592C11.1073 23.8174 11.4563 23.8856 13.4373 23.8856C15.5044 23.8856 15.7183 23.8387 17.3702 23.0223C20.3836 21.5329 22.0638 19.0713 22.2867 15.8193C22.4325 13.6921 21.9963 11.8788 20.9392 10.2178C18.3072 6.08169 12.5091 5.02483 8.7888 8.00294C8.17798 8.492 7.89626 8.60529 7.81799 8.39314C7.75734 8.22882 7.68113 6.29223 7.64863 4.08949L7.58959 0.0845044L6.15626 0.0163052C5.08201 -0.0347297 4.69181 0.0295789 4.59821 0.272853ZM42.8811 0.11334C42.6323 0.362107 42.6978 14.5219 42.9559 16.3079C43.2518 18.355 44.2799 20.2744 45.8477 21.7073C47.5763 23.2871 49.1607 23.8657 51.7589 23.8657C54.4248 23.8657 55.9563 23.2889 57.7844 21.5963C61.6821 17.9879 61.6826 12.1617 57.7856 8.55379C56.0827 6.97697 54.4537 6.34258 52.0786 6.33091C50.6631 6.32382 50.0784 6.43893 48.9439 6.94814C48.1768 7.29234 47.3733 7.76836 47.1584 8.00591C46.2617 8.99663 46.1654 8.65586 46.0999 4.26113L46.0375 0.0845044L44.5403 0.0179072C43.7166 -0.0187098 42.9701 0.0243152 42.8811 0.11334ZM62.9568 0.272624C62.8884 0.451132 62.8639 4.39524 62.9026 9.03737L62.9728 17.4776L63.6052 18.7647C64.5922 20.7736 65.8514 22.0398 67.839 23.0223C69.4909 23.8387 69.7049 23.8856 71.7719 23.8856C73.7405 23.8856 74.1058 23.8153 75.4455 23.1791C77.4091 22.2467 78.9543 20.7116 79.8657 18.7878C80.5261 17.3938 80.5948 17.0439 80.5948 15.0746C80.5948 13.1069 80.5257 12.7549 79.8684 11.3669C78.5408 8.56478 76.1568 6.80213 73.113 6.37188C70.8746 6.05537 68.9991 6.57716 67.1497 8.03063C66.5247 8.52153 66.2608 8.62199 66.1789 8.39977C66.1169 8.23179 66.0395 6.29223 66.007 4.08949L65.948 0.0845044L64.5147 0.0163052C63.4413 -0.0347297 63.05 0.0295789 62.9568 0.272624ZM83.5644 0.245619C83.502 0.408794 83.4777 5.69149 83.5104 11.985L83.5699 23.4279H85.1719H86.7739V11.7562V0.0845044L85.2259 0.0167629C84.1185 -0.0317546 83.6457 0.0334695 83.5644 0.245619ZM95.7975 6.67809C90.6443 8.13155 88.2217 14.0372 90.6253 19.2872C91.9626 22.2081 95.1514 24 99.0125 24C101.299 24 105.883 22.3662 105.883 21.5515C105.883 21.3778 105.67 20.8171 105.409 20.3056C104.873 19.2549 104.962 19.2579 102.336 20.2058C100.562 20.8464 98.07 20.9921 96.7061 20.5356C95.0629 19.9854 93.5252 18.2367 93.5252 16.918C93.5252 16.4654 93.6719 16.4535 99.981 16.3942L106.437 16.3333L106.581 15.6264C106.822 14.4514 106.403 11.9686 105.735 10.6043C104.473 8.02559 102.024 6.56137 98.7889 6.44992C97.6789 6.4117 96.3943 6.50965 95.7975 6.67809ZM24.73 7.15846C24.6575 7.34749 24.6346 10.0555 24.6792 13.1765C24.7529 18.3495 24.8023 18.9427 25.2388 19.8923C25.9393 21.4158 27.0156 22.5246 28.4883 23.24C29.6381 23.7981 30.0537 23.8721 32.0772 23.8785C34.8748 23.8872 36.2198 23.3757 37.7769 21.711C39.3878 19.9886 39.535 19.1885 39.462 12.5416L39.4006 6.9502H37.7986H36.1966L36.0822 12.5572C35.9509 18.9972 35.8559 19.3535 34.0259 20.2811C31.9088 21.3542 29.3552 20.5404 28.4611 18.5074C28.3144 18.1738 28.1569 15.6458 28.0837 12.4428L27.9578 6.9502L26.4098 6.88246C25.1999 6.82959 24.8332 6.88978 24.73 7.15846ZM100.746 9.95737C101.71 10.456 102.853 12.0338 102.96 13.0149L103.023 13.587L98.274 13.6488L93.5252 13.7108V13.1788C93.5252 12.8863 93.8353 12.1581 94.214 11.5605C95.5245 9.49439 98.4582 8.77441 100.746 9.95737ZM15.5497 10.1194C16.6425 10.5773 17.7298 11.5781 18.2918 12.6432C18.9335 13.8591 18.9887 16.4249 18.3966 17.524C16.6951 20.6836 12.6329 21.5155 9.98297 19.2471C6.09905 15.9225 8.28142 9.85942 13.3755 9.82166C14.1662 9.81571 15.1446 9.94982 15.5497 10.1194ZM54.0474 10.2379C55.1869 10.7568 56.5337 12.2237 56.9059 13.3509C57.0622 13.8248 57.1462 14.854 57.0944 15.6646C56.98 17.4613 56.1804 18.7317 54.5159 19.7607C53.5433 20.3621 53.1824 20.4527 51.7589 20.4527C50.3354 20.4527 49.9745 20.3621 49.0018 19.7607C47.3374 18.7317 46.5378 17.4613 46.4233 15.6646C46.3716 14.854 46.4556 13.8248 46.6119 13.3509C46.984 12.2237 48.3308 10.7568 49.4703 10.2379C50.6771 9.68824 52.8407 9.68824 54.0474 10.2379ZM74.2818 10.3732C76.4532 11.4735 77.5977 13.9646 77.0519 16.4029C76.6784 18.0722 74.9768 19.8639 73.3286 20.3234C68.5892 21.6451 64.6263 16.6297 67.0893 12.427C67.6926 11.3978 68.7407 10.4606 69.731 10.0656C70.8544 9.61729 73.0878 9.76811 74.2818 10.3732ZM0.722752 20.2042C-0.375988 21.3029 -0.196564 23.0031 1.08801 23.6675C2.02929 24.1542 2.77239 24.0762 3.56698 23.4075C4.14873 22.9182 4.27117 22.6468 4.27117 21.8483C4.27117 19.9275 2.03547 18.8915 0.722752 20.2042Z" fill="black"/>
<path d="M132.648 6L120.648 18" stroke="black" stroke-width="2" stroke-linecap="round" stroke-linejoin="round"/>
<path d="M120.648 6L132.648 18" stroke="black" stroke-width="2" stroke-linecap="round" stroke-linejoin="round"/>
<path fill-rule="evenodd" clip-rule="evenodd" d="M156.37 0.0444479C154.186 0.40124 152.407 1.79851 151.61 3.78428C151.469 4.13425 151.447 4.16701 151.331 4.19782C150.134 4.5169 149.244 5.01647 148.439 5.82135C147.287 6.97337 146.648 8.50381 146.648 10.1134C146.648 11.4888 147.193 13.0163 148.017 13.9518C148.103 14.0495 148.174 14.1614 148.174 14.2006C148.174 14.2398 148.133 14.4345 148.082 14.6333C147.812 15.6996 147.86 16.8915 148.215 17.9692C148.53 18.9238 149.223 19.969 149.963 20.6072C151.236 21.7052 152.859 22.2464 154.463 22.1079C154.727 22.0851 155.009 22.0513 155.089 22.0327C155.233 21.9996 155.24 22.0033 155.471 22.2297C156.379 23.1225 157.329 23.6323 158.593 23.906C159.169 24.0306 160.29 24.0315 160.901 23.9078C161.722 23.7414 162.456 23.4362 163.161 22.969C163.711 22.6043 164.423 21.8905 164.794 21.333C165.072 20.9135 165.364 20.348 165.451 20.0562C165.478 19.9671 165.52 19.877 165.546 19.8559C165.571 19.8348 165.723 19.7832 165.884 19.7412C167.873 19.22 169.526 17.5807 170.115 15.544C170.445 14.4032 170.419 13.1033 170.043 11.981C169.811 11.2883 169.471 10.6651 169.006 10.083L168.799 9.82385L168.895 9.45379C169.042 8.88485 169.086 8.52467 169.085 7.90158C169.083 6.97932 168.906 6.19026 168.515 5.36838C167.34 2.89493 164.736 1.51395 162.047 1.93828L161.754 1.98465L161.374 1.62046C160.58 0.857832 159.596 0.346974 158.451 0.102375C157.954 -0.00394557 156.854 -0.0345681 156.37 0.0444479ZM158.087 1.64925C158.431 1.7145 158.956 1.88954 159.252 2.03735C159.555 2.18848 160.077 2.54695 160.062 2.59287C160.054 2.61586 158.975 3.25344 157.664 4.00966C156.353 4.76592 155.211 5.43073 155.126 5.48702C155.033 5.54857 154.939 5.65599 154.89 5.75648C154.81 5.92282 154.809 5.93857 154.809 9.22929C154.809 12.0719 154.802 12.535 154.755 12.535C154.703 12.535 153.075 11.613 152.855 11.4592L152.75 11.3858L152.751 8.55682C152.752 5.68078 152.761 5.45216 152.903 4.89844C153.226 3.64368 154.232 2.46275 155.414 1.95036C155.781 1.7913 156.308 1.63968 156.659 1.59243C157.002 1.54621 157.687 1.57348 158.087 1.64925ZM164.126 3.58529C164.928 3.79752 165.619 4.19473 166.193 4.77297C166.867 5.45281 167.297 6.29525 167.449 7.23524C167.541 7.79686 167.518 8.64521 167.413 8.64521C167.387 8.64521 166.467 8.12513 165.368 7.48949C162.024 5.55467 162.421 5.76601 162.133 5.76601H161.883L159.088 7.38122C157.551 8.26962 156.26 9.00525 156.219 9.01596C156.146 9.03499 156.144 9.00807 156.144 7.89288C156.144 6.85191 156.15 6.74521 156.211 6.69308C156.302 6.6154 160.71 4.07232 161.044 3.90456C161.375 3.73894 161.71 3.62396 162.131 3.53126C162.625 3.42276 163.612 3.44953 164.126 3.58529ZM178.694 5.71243C176.395 5.98041 174.7 7.22956 173.93 9.2238C173.597 10.0845 173.501 10.742 173.471 12.3634C173.436 14.2856 173.514 15.2062 173.788 16.1197C174.062 17.0324 174.495 17.7694 175.134 18.4103C176.267 19.5471 177.733 20.0857 179.693 20.0857C180.972 20.0857 181.962 19.8774 182.893 19.4116C184.609 18.5541 185.652 16.9392 185.887 14.7769C185.909 14.5733 185.928 13.7188 185.928 12.8782C185.928 10.9607 185.87 10.3949 185.583 9.51672C184.882 7.37261 183.213 6.05527 180.779 5.72631C180.343 5.66736 179.149 5.65942 178.694 5.71243ZM151.187 8.91548L151.206 11.8733L151.301 12.0146C151.353 12.0923 151.473 12.205 151.568 12.2651C151.662 12.3251 152.924 13.0561 154.371 13.8894C155.818 14.7227 157.025 15.4259 157.053 15.4521C157.095 15.4913 157.085 15.513 156.996 15.5751C156.768 15.7341 155.15 16.6536 155.098 16.6536C155.068 16.6536 154.721 16.4673 154.326 16.2396C151.286 14.486 150.385 13.9623 150.217 13.85C149.256 13.2088 148.561 12.1676 148.329 11.0227C148.233 10.5513 148.223 9.80025 148.307 9.32249C148.545 7.95794 149.463 6.73396 150.725 6.10053C150.905 6.00992 151.079 5.94075 151.11 5.94677C151.16 5.95634 151.17 6.32679 151.187 8.91548ZM226.332 5.98529C226.322 6.01153 225.216 9.10402 223.873 12.8575C222.53 16.611 221.431 19.7131 221.431 19.7509C221.431 19.8162 221.503 19.8192 222.811 19.8097L224.191 19.7997L224.651 18.3695C224.904 17.5829 225.125 16.9179 225.142 16.8917C225.187 16.8222 230.489 16.8224 230.533 16.8919C230.549 16.9182 230.771 17.5831 231.026 18.3697L231.489 19.7997L232.867 19.8097C234.197 19.8194 234.245 19.8172 234.245 19.7476C234.245 19.6615 229.372 6.05424 229.316 5.98529C229.287 5.94864 228.939 5.93762 227.813 5.93762C226.676 5.93762 226.345 5.94826 226.332 5.98529ZM235.787 5.98601C235.777 6.01263 235.773 6.4545 235.779 6.96799L235.789 7.90158L237.257 7.92065L238.726 7.93971V12.8782V17.8167L237.257 17.8358L235.789 17.8548V18.8273V19.7997L240.032 19.8094L244.274 19.8191V18.8279V17.8367L242.797 17.8267L241.319 17.8167V12.8782V7.93971L242.797 7.92972L244.274 7.91977V6.92868V5.93762H240.04C236.654 5.93762 235.802 5.94731 235.787 5.98601ZM163.532 8.25067C164.429 8.76778 165.484 9.37596 165.877 9.60218C166.8 10.134 167.006 10.2755 167.371 10.6254C167.921 11.1535 168.313 11.7678 168.533 12.445C168.708 12.9855 168.748 13.263 168.745 13.9079C168.743 14.3896 168.726 14.566 168.655 14.8612C168.319 16.2407 167.488 17.3001 166.272 17.8973C166.084 17.9893 165.909 18.0646 165.881 18.0646C165.839 18.0646 165.83 17.5409 165.83 15.146C165.83 11.9703 165.838 12.0905 165.613 11.8665C165.55 11.8042 164.608 11.2389 163.52 10.6102C162.431 9.98147 161.18 9.25907 160.739 9.00479C160.299 8.7505 159.939 8.51902 159.939 8.49035C159.939 8.46167 160.376 8.18504 160.911 7.87561C161.446 7.56618 161.887 7.31247 161.892 7.31174C161.897 7.31106 162.635 7.73356 163.532 8.25067ZM180.551 7.82763C181.692 8.0439 182.555 8.77625 182.957 9.86771C183.218 10.5763 183.23 10.693 183.248 12.6291C183.259 13.8142 183.25 14.5052 183.22 14.7619C183.095 15.8418 182.672 16.7287 182.029 17.2612C180.965 18.1426 179.082 18.2746 177.806 17.5572C177.217 17.2259 176.693 16.5809 176.437 15.8746C176.19 15.1886 176.184 15.1243 176.184 12.8973C176.184 11.0834 176.191 10.8429 176.254 10.552C176.394 9.90112 176.603 9.41505 176.934 8.97455C177.67 7.9952 179.079 7.54849 180.551 7.82763ZM227.876 8.47319C227.876 8.48341 228.322 9.89971 228.868 11.6205C229.413 13.3412 229.859 14.7744 229.859 14.8052C229.859 14.8538 229.591 14.8612 227.84 14.8612C226.606 14.8612 225.813 14.8472 225.799 14.825C225.787 14.8051 226.173 13.548 226.657 12.0316C227.772 8.53599 227.799 8.45454 227.841 8.45454C227.86 8.45454 227.876 8.46293 227.876 8.47319ZM159.678 9.95321L160.816 10.6129L160.826 11.9871L160.836 13.3612L159.67 14.0355C158.633 14.636 158.496 14.7049 158.421 14.6658C158.166 14.5327 156.267 13.4286 156.21 13.3803C156.148 13.3274 156.144 13.2226 156.153 11.9718L156.163 10.6204L157.307 9.95695C157.936 9.59207 158.471 9.29351 158.495 9.29351C158.519 9.29351 159.052 9.59039 159.678 9.95321ZM192.964 9.37462C192.035 9.49067 191.146 9.97128 190.645 10.6282C190.541 10.7646 190.441 10.8817 190.424 10.8885C190.406 10.8953 190.387 10.6122 190.381 10.2593L190.37 9.61766H189.169H187.968V16.4629V23.3082H189.226H190.485L190.495 20.9724C190.5 19.6072 190.519 18.6366 190.539 18.6366C190.558 18.6366 190.636 18.7212 190.712 18.8247C191.13 19.3944 191.815 19.7956 192.664 19.9687C193.204 20.0786 194.058 20.0787 194.596 19.9689C196.406 19.6001 197.604 18.3192 197.88 16.4567C197.926 16.1492 197.94 15.7362 197.94 14.7278C197.94 13.2257 197.904 12.8536 197.694 12.2128C197.136 10.5112 195.894 9.52934 194.1 9.37192C193.586 9.3268 193.342 9.32737 192.964 9.37462ZM203.346 9.37371C201.75 9.5497 200.508 10.3719 199.866 11.6762C199.424 12.5759 199.338 13.1369 199.362 14.9746C199.377 16.152 199.387 16.3316 199.462 16.6727C199.848 18.4211 201.033 19.5612 202.858 19.9397C203.33 20.0377 204.584 20.0769 205.148 20.0113C206.292 19.8783 207.185 19.4735 207.878 18.7731C208.191 18.457 208.543 17.9796 208.541 17.8743C208.539 17.8201 206.964 16.8824 206.874 16.8824C206.853 16.8824 206.762 16.9772 206.672 17.093C206.411 17.4321 205.91 17.8795 205.615 18.0365C204.905 18.4155 203.948 18.4345 203.21 18.0843C202.472 17.7335 202.07 17.0026 202.049 15.9691L202.04 15.5286L205.453 15.5095L208.866 15.4905L208.878 14.4417C208.891 13.3087 208.86 12.9397 208.709 12.3724C208.529 11.7017 208.218 11.1517 207.73 10.6411C207.136 10.0211 206.434 9.64405 205.5 9.4443C205.065 9.35125 203.896 9.31296 203.346 9.37371ZM215.521 9.37199C214.435 9.50764 213.656 9.96465 213.208 10.729C213.155 10.8204 213.096 10.8952 213.077 10.8952C213.059 10.8952 213.039 10.6077 213.033 10.2564L213.023 9.61766H211.802H210.582V14.7087V19.7997H211.859H213.137L213.158 16.501C213.177 13.5654 213.186 13.1761 213.243 12.9636C213.503 12.0035 214.221 11.4672 215.247 11.4672C216.249 11.4672 216.903 11.9507 217.184 12.8973C217.246 13.1063 217.253 13.4147 217.273 16.4629L217.294 19.7997H218.571H219.849L219.86 16.501C219.872 13.0623 219.856 12.5628 219.714 11.9654C219.387 10.5983 218.492 9.70289 217.177 9.42668C216.817 9.35113 215.924 9.32165 215.521 9.37199ZM204.632 11.0672C205.408 11.2316 205.954 11.7166 206.214 12.4736C206.301 12.7268 206.378 13.3179 206.361 13.6028L206.349 13.8125H204.194H202.04L202.048 13.393C202.073 12.1366 202.679 11.2943 203.718 11.0728C204.063 10.9991 204.303 10.9976 204.632 11.0672ZM193.612 11.3764C194.334 11.5614 194.893 12.0754 195.157 12.7963C195.329 13.2694 195.356 13.5735 195.337 14.8829C195.324 15.8535 195.309 16.1064 195.254 16.3104C194.963 17.3821 194.163 18.0311 193.059 18.0907C192.605 18.1152 192.231 18.0414 191.839 17.8497C191.449 17.6593 191.027 17.2363 190.833 16.8414C190.59 16.3446 190.54 16.0655 190.515 15.0519C190.472 13.2736 190.633 12.6325 191.288 11.9731C191.879 11.3782 192.748 11.1551 193.612 11.3764ZM163.275 12.0331L164.248 12.5967L164.259 15.2829C164.266 16.9774 164.256 18.1171 164.23 18.3697C164.055 20.1099 162.947 21.5483 161.303 22.1688C160.207 22.5827 158.888 22.5103 157.803 21.9766C157.342 21.7499 156.933 21.4757 156.955 21.4084C156.973 21.3567 156.814 21.4503 159.595 19.8486C160.833 19.1359 161.895 18.5073 161.955 18.4517C162.015 18.3961 162.096 18.282 162.135 18.1981C162.202 18.0534 162.206 17.8765 162.207 14.7564C162.207 12.1502 162.217 11.4675 162.255 11.4684C162.281 11.4691 162.741 11.7232 163.275 12.0331ZM160.864 16.1292L160.854 17.2828L158.661 18.5513C156.242 19.9505 155.711 20.2313 155.225 20.3688C152.66 21.0933 150.018 19.4524 149.565 16.8534C149.508 16.5242 149.488 15.696 149.533 15.4731C149.552 15.3787 149.573 15.3551 149.627 15.3692C149.666 15.3792 150.757 16.0011 152.053 16.7512C153.349 17.5013 154.477 18.1461 154.561 18.1843C154.737 18.2641 154.935 18.274 155.113 18.2119C155.181 18.1881 156.475 17.4514 157.988 16.5747C159.501 15.698 160.77 14.9796 160.807 14.9782C160.87 14.9758 160.873 15.0477 160.864 16.1292Z" fill="black"/>
</svg>
