<svg width="58" height="58" viewBox="0 0 58 58" fill="none" xmlns="http://www.w3.org/2000/svg">
<path d="M25.567 3.91364C26.1805 -0.00242424 31.8195 -0.00242424 32.433 3.91364C32.8995 6.89166 36.6771 7.90386 38.5701 5.55808C41.0595 2.47342 45.943 5.29291 44.5162 8.99107C43.4313 11.8034 46.1966 14.5687 49.0089 13.4838C52.7071 12.057 55.5266 16.9405 52.4419 19.4299C50.0961 21.3229 51.1083 25.1005 54.0864 25.567C58.0024 26.1805 58.0024 31.8195 54.0864 32.433C51.1083 32.8995 50.0961 36.6771 52.4419 38.5701C55.5266 41.0595 52.7071 45.943 49.0089 44.5162C46.1966 43.4313 43.4313 46.1966 44.5162 49.0089C45.943 52.7071 41.0595 55.5266 38.5701 52.4419C36.6771 50.0961 32.8995 51.1083 32.433 54.0864C31.8195 58.0024 26.1805 58.0024 25.567 54.0864C25.1005 51.1083 21.3229 50.0961 19.4299 52.4419C16.9405 55.5266 12.057 52.7071 13.4838 49.0089C14.5687 46.1966 11.8034 43.4313 8.99107 44.5162C5.29291 45.943 2.47341 41.0595 5.55808 38.5701C7.90386 36.6771 6.89166 32.8995 3.91364 32.433C-0.00242424 31.8195 -0.00242424 26.1805 3.91364 25.567C6.89166 25.1005 7.90386 21.3229 5.55808 19.4299C2.47342 16.9405 5.29291 12.057 8.99107 13.4838C11.8034 14.5687 14.5687 11.8034 13.4838 8.99107C12.057 5.29291 16.9405 2.47341 19.4299 5.55808C21.3229 7.90386 25.1005 6.89166 25.567 3.91364Z" fill="#5BD473"/>
<path fill-rule="evenodd" clip-rule="evenodd" d="M21.2963 34.9261C21.1126 34.1366 21.1075 33.8896 21.078 24.3943L21.0479 14.6709H23.0274H25.0069V19.9514V25.2321L25.5234 24.747C26.9213 23.4343 28.675 22.5323 30.4353 22.2206C31.2981 22.0678 33.1166 22.1059 34.0341 22.2961C37.9354 23.1046 40.9767 26.0492 41.9859 29.9951C42.941 33.7295 41.7893 37.7797 39.033 40.3799C32.9729 46.0968 23.1955 43.0903 21.2963 34.9261ZM36.2827 28.1893C35.4551 27.3651 34.7002 26.8927 33.6749 26.5575C32.6749 26.2305 31.1002 26.1767 30.1369 26.4366C27.1949 27.2301 25.2721 29.6911 25.2584 32.6805C25.2534 33.7834 25.4346 34.5926 25.9022 35.5548C26.7032 37.2032 28.0794 38.3526 29.9494 38.9353C30.9085 39.2342 32.489 39.2342 33.448 38.9353C36.3549 38.0295 38.1525 35.6327 38.1391 32.6805C38.131 30.9067 37.515 29.4166 36.2827 28.1893Z" fill="white"/>
<path d="M17.5246 38.1543C16.6626 38.4618 16.0389 39.12 15.7864 39.9884C15.2026 41.9968 17.1958 43.8631 19.1965 43.1814C19.7103 43.0063 20.4587 42.3505 20.713 41.8524C20.9806 41.3283 21.0308 40.4265 20.8267 39.8117C20.6 39.1294 19.8269 38.3635 19.1669 38.1675C18.5864 37.9951 17.9846 37.9903 17.5246 38.1543Z" fill="white"/>
</svg>
