<svg width="24" height="25" viewBox="0 0 24 25" fill="none" xmlns="http://www.w3.org/2000/svg">
<path d="M12 9.18427L4.06386 14.3428C3.37601 14.7899 3.03209 15.0134 2.91297 15.2969C2.80888 15.5447 2.80888 15.8239 2.91297 16.0716M12 9.18427L19.9361 14.3428C20.624 14.7899 20.9679 15.0134 21.087 15.2969C21.1911 15.5447 21.1911 15.8239 21.087 16.0716M12 9.18427V2.68427M12 15.1843L4.06386 10.0258C3.37601 9.57868 3.03209 9.35513 2.91297 9.07163C2.80888 8.82388 2.80888 8.54466 2.91297 8.29691M12 15.1843L19.9361 10.0258C20.624 9.57868 20.9679 9.35513 21.087 9.07163C21.1911 8.82388 21.1911 8.54466 21.087 8.29691M12 15.1843V21.6843M21.272 16.1575L12.872 21.6175C12.5564 21.8226 12.3985 21.9252 12.2285 21.9651C12.0782 22.0004 11.9218 22.0004 11.7715 21.9651C11.6015 21.9252 11.4436 21.8226 11.128 21.6175L2.72802 16.1575C2.46201 15.9846 2.32901 15.8981 2.23265 15.7828C2.14735 15.6807 2.08327 15.5627 2.04417 15.4355C2 15.2919 2 15.1332 2 14.816V9.55256C2 9.2353 2 9.07667 2.04417 8.93303C2.08327 8.80588 2.14735 8.68781 2.23265 8.58573C2.32901 8.47041 2.46201 8.38396 2.72802 8.21105L11.128 2.75105C11.4436 2.5459 11.6015 2.44332 11.7715 2.40341C11.9218 2.36813 12.0782 2.36813 12.2285 2.40341C12.3985 2.44332 12.5564 2.5459 12.872 2.75106L21.272 8.21105C21.538 8.38396 21.671 8.47041 21.7674 8.58573C21.8527 8.68781 21.9167 8.80588 21.9558 8.93303C22 9.07667 22 9.2353 22 9.55256V14.816C22 15.1332 22 15.2919 21.9558 15.4355C21.9167 15.5627 21.8527 15.6807 21.7674 15.7828C21.671 15.8981 21.538 15.9846 21.272 16.1575Z" stroke="#5BD473" stroke-width="2" stroke-linecap="round" stroke-linejoin="round"/>
</svg>
