<svg width="627" height="476" viewBox="0 0 627 476" fill="none" xmlns="http://www.w3.org/2000/svg">
<g filter="url(#filter0_d_533_3704)">
<rect x="167" width="320" height="80" rx="8" fill="#F9FAFA"/>
<rect x="199" y="24" width="32" height="32" rx="16" fill="url(#paint0_linear_533_3704)"/>
<path d="M215.046 33.4H216.846V46H214.776V35.614L212.238 36.334L211.734 34.57L215.046 33.4Z" fill="#060F27"/>
<path d="M255.232 31.2C257.536 31.2 259.456 32.008 260.992 33.624C262.544 35.24 263.32 37.232 263.32 39.6C263.32 41.968 262.544 43.96 260.992 45.576C259.456 47.192 257.536 48 255.232 48H248.56V31.2H255.232ZM255.232 44.832C256.688 44.832 257.872 44.352 258.784 43.392C259.696 42.416 260.152 41.152 260.152 39.6C260.152 38.048 259.696 36.792 258.784 35.832C257.872 34.856 256.688 34.368 255.232 34.368H251.872V44.832H255.232ZM267.061 34.56C266.549 34.56 266.101 34.376 265.717 34.008C265.349 33.624 265.165 33.176 265.165 32.664C265.165 32.152 265.349 31.704 265.717 31.32C266.101 30.936 266.549 30.744 267.061 30.744C267.589 30.744 268.037 30.936 268.405 31.32C268.789 31.704 268.981 32.152 268.981 32.664C268.981 33.176 268.789 33.624 268.405 34.008C268.037 34.376 267.589 34.56 267.061 34.56ZM265.525 48V36H268.621V48H265.525ZM274.217 39.408C274.217 39.728 274.425 39.992 274.841 40.2C275.273 40.392 275.793 40.568 276.401 40.728C277.009 40.872 277.617 41.064 278.225 41.304C278.833 41.528 279.345 41.912 279.761 42.456C280.193 43 280.409 43.68 280.409 44.496C280.409 45.728 279.945 46.68 279.017 47.352C278.105 48.008 276.961 48.336 275.585 48.336C273.121 48.336 271.441 47.384 270.545 45.48L273.233 43.968C273.585 45.008 274.369 45.528 275.585 45.528C276.689 45.528 277.241 45.184 277.241 44.496C277.241 44.176 277.025 43.92 276.593 43.728C276.177 43.52 275.665 43.336 275.057 43.176C274.449 43.016 273.841 42.816 273.233 42.576C272.625 42.336 272.105 41.96 271.673 41.448C271.257 40.92 271.049 40.264 271.049 39.48C271.049 38.296 271.481 37.368 272.345 36.696C273.225 36.008 274.313 35.664 275.609 35.664C276.585 35.664 277.473 35.888 278.273 36.336C279.073 36.768 279.705 37.392 280.169 38.208L277.529 39.648C277.145 38.832 276.505 38.424 275.609 38.424C275.209 38.424 274.873 38.512 274.601 38.688C274.345 38.864 274.217 39.104 274.217 39.408ZM287.948 48.336C286.14 48.336 284.628 47.728 283.412 46.512C282.212 45.296 281.612 43.792 281.612 42C281.612 40.208 282.212 38.704 283.412 37.488C284.628 36.272 286.14 35.664 287.948 35.664C289.116 35.664 290.18 35.944 291.14 36.504C292.1 37.064 292.828 37.816 293.324 38.76L290.66 40.32C290.42 39.824 290.052 39.432 289.556 39.144C289.076 38.856 288.532 38.712 287.924 38.712C286.996 38.712 286.228 39.024 285.62 39.648C285.012 40.256 284.708 41.04 284.708 42C284.708 42.944 285.012 43.728 285.62 44.352C286.228 44.96 286.996 45.264 287.924 45.264C288.548 45.264 289.1 45.128 289.58 44.856C290.076 44.568 290.444 44.176 290.684 43.68L293.372 45.216C292.844 46.16 292.1 46.92 291.14 47.496C290.18 48.056 289.116 48.336 287.948 48.336ZM305.046 46.512C303.814 47.728 302.31 48.336 300.534 48.336C298.758 48.336 297.254 47.728 296.022 46.512C294.806 45.28 294.198 43.776 294.198 42C294.198 40.224 294.806 38.728 296.022 37.512C297.254 36.28 298.758 35.664 300.534 35.664C302.31 35.664 303.814 36.28 305.046 37.512C306.278 38.728 306.894 40.224 306.894 42C306.894 43.776 306.278 45.28 305.046 46.512ZM298.206 44.376C298.83 45 299.606 45.312 300.534 45.312C301.462 45.312 302.238 45 302.862 44.376C303.486 43.752 303.798 42.96 303.798 42C303.798 41.04 303.486 40.248 302.862 39.624C302.238 39 301.462 38.688 300.534 38.688C299.606 38.688 298.83 39 298.206 39.624C297.598 40.248 297.294 41.04 297.294 42C297.294 42.96 297.598 43.752 298.206 44.376ZM316.5 36H319.908L315.348 48H311.82L307.26 36H310.668L313.572 44.4L316.5 36ZM323.548 43.272C323.964 44.776 325.092 45.528 326.932 45.528C328.116 45.528 329.012 45.128 329.62 44.328L332.116 45.768C330.932 47.48 329.188 48.336 326.884 48.336C324.9 48.336 323.308 47.736 322.108 46.536C320.908 45.336 320.308 43.824 320.308 42C320.308 40.192 320.9 38.688 322.084 37.488C323.268 36.272 324.788 35.664 326.644 35.664C328.404 35.664 329.852 36.272 330.988 37.488C332.14 38.704 332.716 40.208 332.716 42C332.716 42.4 332.676 42.824 332.596 43.272H323.548ZM323.5 40.872H329.62C329.444 40.056 329.076 39.448 328.516 39.048C327.972 38.648 327.348 38.448 326.644 38.448C325.812 38.448 325.124 38.664 324.58 39.096C324.036 39.512 323.676 40.104 323.5 40.872ZM337.973 38.064C338.261 37.296 338.733 36.72 339.389 36.336C340.061 35.952 340.805 35.76 341.621 35.76V39.216C340.677 39.104 339.829 39.296 339.077 39.792C338.341 40.288 337.973 41.112 337.973 42.264V48H334.877V36H337.973V38.064ZM362.944 36H366.232L362.416 48H359.464L357.256 40.728L355.048 48H352.096L348.28 36H351.568L353.608 43.368L355.792 36H358.72L360.904 43.392L362.944 36ZM377.656 46.512C376.424 47.728 374.92 48.336 373.144 48.336C371.368 48.336 369.864 47.728 368.632 46.512C367.416 45.28 366.808 43.776 366.808 42C366.808 40.224 367.416 38.728 368.632 37.512C369.864 36.28 371.368 35.664 373.144 35.664C374.92 35.664 376.424 36.28 377.656 37.512C378.888 38.728 379.504 40.224 379.504 42C379.504 43.776 378.888 45.28 377.656 46.512ZM370.816 44.376C371.44 45 372.216 45.312 373.144 45.312C374.072 45.312 374.848 45 375.472 44.376C376.096 43.752 376.408 42.96 376.408 42C376.408 41.04 376.096 40.248 375.472 39.624C374.848 39 374.072 38.688 373.144 38.688C372.216 38.688 371.44 39 370.816 39.624C370.208 40.248 369.904 41.04 369.904 42C369.904 42.96 370.208 43.752 370.816 44.376ZM384.778 38.064C385.066 37.296 385.538 36.72 386.194 36.336C386.866 35.952 387.61 35.76 388.426 35.76V39.216C387.482 39.104 386.634 39.296 385.882 39.792C385.146 40.288 384.778 41.112 384.778 42.264V48H381.682V36H384.778V38.064ZM401.3 48H397.7L393.332 42.552V48H390.236V31.2H393.332V41.28L397.46 36H401.156L396.332 41.928L401.3 48ZM404.905 39.408C404.905 39.728 405.113 39.992 405.529 40.2C405.961 40.392 406.481 40.568 407.089 40.728C407.697 40.872 408.305 41.064 408.913 41.304C409.521 41.528 410.033 41.912 410.449 42.456C410.881 43 411.097 43.68 411.097 44.496C411.097 45.728 410.633 46.68 409.705 47.352C408.793 48.008 407.649 48.336 406.273 48.336C403.809 48.336 402.129 47.384 401.233 45.48L403.921 43.968C404.273 45.008 405.057 45.528 406.273 45.528C407.377 45.528 407.929 45.184 407.929 44.496C407.929 44.176 407.713 43.92 407.281 43.728C406.865 43.52 406.353 43.336 405.745 43.176C405.137 43.016 404.529 42.816 403.921 42.576C403.313 42.336 402.793 41.96 402.361 41.448C401.945 40.92 401.737 40.264 401.737 39.48C401.737 38.296 402.169 37.368 403.033 36.696C403.913 36.008 405.001 35.664 406.297 35.664C407.273 35.664 408.161 35.888 408.961 36.336C409.761 36.768 410.393 37.392 410.857 38.208L408.217 39.648C407.833 38.832 407.193 38.424 406.297 38.424C405.897 38.424 405.561 38.512 405.289 38.688C405.033 38.864 404.905 39.104 404.905 39.408ZM419.76 35.664C421.072 35.664 422.152 36.104 423 36.984C423.864 37.864 424.296 39.08 424.296 40.632V48H421.2V41.016C421.2 40.216 420.984 39.608 420.552 39.192C420.12 38.76 419.544 38.544 418.824 38.544C418.024 38.544 417.384 38.792 416.904 39.288C416.424 39.784 416.184 40.528 416.184 41.52V48H413.088V31.2H416.184V37.344C416.936 36.224 418.128 35.664 419.76 35.664ZM437.163 46.512C435.931 47.728 434.427 48.336 432.651 48.336C430.875 48.336 429.371 47.728 428.139 46.512C426.923 45.28 426.315 43.776 426.315 42C426.315 40.224 426.923 38.728 428.139 37.512C429.371 36.28 430.875 35.664 432.651 35.664C434.427 35.664 435.931 36.28 437.163 37.512C438.395 38.728 439.011 40.224 439.011 42C439.011 43.776 438.395 45.28 437.163 46.512ZM430.323 44.376C430.947 45 431.723 45.312 432.651 45.312C433.579 45.312 434.355 45 434.979 44.376C435.603 43.752 435.915 42.96 435.915 42C435.915 41.04 435.603 40.248 434.979 39.624C434.355 39 433.579 38.688 432.651 38.688C431.723 38.688 430.947 39 430.323 39.624C429.715 40.248 429.411 41.04 429.411 42C429.411 42.96 429.715 43.752 430.323 44.376ZM448.173 35.664C449.789 35.664 451.165 36.28 452.301 37.512C453.453 38.728 454.029 40.224 454.029 42C454.029 43.776 453.453 45.28 452.301 46.512C451.165 47.728 449.789 48.336 448.173 48.336C446.493 48.336 445.197 47.752 444.285 46.584V52.8H441.189V36H444.285V37.416C445.197 36.248 446.493 35.664 448.173 35.664ZM445.221 44.448C445.845 45.072 446.637 45.384 447.597 45.384C448.557 45.384 449.349 45.072 449.973 44.448C450.613 43.808 450.933 42.992 450.933 42C450.933 41.008 450.613 40.2 449.973 39.576C449.349 38.936 448.557 38.616 447.597 38.616C446.637 38.616 445.845 38.936 445.221 39.576C444.597 40.2 444.285 41.008 444.285 42C444.285 42.992 444.597 43.808 445.221 44.448Z" fill="#060F27"/>
</g>
<g filter="url(#filter1_d_533_3704)">
<rect x="71" y="116" width="189" height="80" rx="8" fill="#F9FAFA"/>
<rect x="103" y="140" width="32" height="32" rx="16" fill="url(#paint1_linear_533_3704)"/>
<path d="M114.558 162V160.38L118.95 155.898C120.018 154.83 120.552 153.906 120.552 153.126C120.552 152.514 120.366 152.04 119.994 151.704C119.634 151.356 119.172 151.182 118.608 151.182C117.552 151.182 116.772 151.704 116.268 152.748L114.522 151.722C114.918 150.882 115.476 150.246 116.196 149.814C116.916 149.382 117.714 149.166 118.59 149.166C119.694 149.166 120.642 149.514 121.434 150.21C122.226 150.906 122.622 151.854 122.622 153.054C122.622 154.338 121.908 155.706 120.48 157.158L117.636 160.002H122.856V162H114.558Z" fill="#060F27"/>
<path d="M159.232 147.2C161.536 147.2 163.456 148.008 164.992 149.624C166.544 151.24 167.32 153.232 167.32 155.6C167.32 157.968 166.544 159.96 164.992 161.576C163.456 163.192 161.536 164 159.232 164H152.56V147.2H159.232ZM159.232 160.832C160.688 160.832 161.872 160.352 162.784 159.392C163.696 158.416 164.152 157.152 164.152 155.6C164.152 154.048 163.696 152.792 162.784 151.832C161.872 150.856 160.688 150.368 159.232 150.368H155.872V160.832H159.232ZM172.141 159.272C172.557 160.776 173.685 161.528 175.525 161.528C176.709 161.528 177.605 161.128 178.213 160.328L180.709 161.768C179.525 163.48 177.781 164.336 175.477 164.336C173.493 164.336 171.901 163.736 170.701 162.536C169.501 161.336 168.901 159.824 168.901 158C168.901 156.192 169.493 154.688 170.677 153.488C171.861 152.272 173.381 151.664 175.237 151.664C176.997 151.664 178.445 152.272 179.581 153.488C180.733 154.704 181.309 156.208 181.309 158C181.309 158.4 181.269 158.824 181.189 159.272H172.141ZM172.093 156.872H178.213C178.037 156.056 177.669 155.448 177.109 155.048C176.565 154.648 175.941 154.448 175.237 154.448C174.405 154.448 173.717 154.664 173.173 155.096C172.629 155.512 172.269 156.104 172.093 156.872ZM185.858 155.408C185.858 155.728 186.066 155.992 186.482 156.2C186.914 156.392 187.434 156.568 188.042 156.728C188.65 156.872 189.258 157.064 189.866 157.304C190.474 157.528 190.986 157.912 191.402 158.456C191.834 159 192.05 159.68 192.05 160.496C192.05 161.728 191.586 162.68 190.658 163.352C189.746 164.008 188.602 164.336 187.226 164.336C184.762 164.336 183.082 163.384 182.186 161.48L184.874 159.968C185.226 161.008 186.01 161.528 187.226 161.528C188.33 161.528 188.882 161.184 188.882 160.496C188.882 160.176 188.666 159.92 188.234 159.728C187.818 159.52 187.306 159.336 186.698 159.176C186.09 159.016 185.482 158.816 184.874 158.576C184.266 158.336 183.746 157.96 183.314 157.448C182.898 156.92 182.69 156.264 182.69 155.48C182.69 154.296 183.122 153.368 183.986 152.696C184.866 152.008 185.954 151.664 187.25 151.664C188.226 151.664 189.114 151.888 189.914 152.336C190.714 152.768 191.346 153.392 191.81 154.208L189.17 155.648C188.786 154.832 188.146 154.424 187.25 154.424C186.85 154.424 186.514 154.512 186.242 154.688C185.986 154.864 185.858 155.104 185.858 155.408ZM195.577 150.56C195.065 150.56 194.617 150.376 194.233 150.008C193.865 149.624 193.681 149.176 193.681 148.664C193.681 148.152 193.865 147.704 194.233 147.32C194.617 146.936 195.065 146.744 195.577 146.744C196.105 146.744 196.553 146.936 196.921 147.32C197.305 147.704 197.497 148.152 197.497 148.664C197.497 149.176 197.305 149.624 196.921 150.008C196.553 150.376 196.105 150.56 195.577 150.56ZM194.041 164V152H197.137V164H194.041ZM209.163 152H212.187V163.424C212.187 165.28 211.571 166.696 210.339 167.672C209.123 168.648 207.651 169.136 205.923 169.136C204.627 169.136 203.483 168.888 202.491 168.392C201.515 167.896 200.763 167.168 200.235 166.208L202.875 164.696C203.483 165.816 204.531 166.376 206.019 166.376C206.995 166.376 207.763 166.12 208.323 165.608C208.883 165.096 209.163 164.368 209.163 163.424V162.128C208.251 163.344 206.971 163.952 205.323 163.952C203.627 163.952 202.203 163.36 201.051 162.176C199.915 160.976 199.347 159.52 199.347 157.808C199.347 156.112 199.923 154.664 201.075 153.464C202.227 152.264 203.643 151.664 205.323 151.664C206.971 151.664 208.251 152.272 209.163 153.488V152ZM203.379 160.184C204.019 160.792 204.827 161.096 205.803 161.096C206.779 161.096 207.579 160.792 208.203 160.184C208.843 159.56 209.163 158.768 209.163 157.808C209.163 156.864 208.843 156.088 208.203 155.48C207.579 154.856 206.779 154.544 205.803 154.544C204.827 154.544 204.019 154.856 203.379 155.48C202.755 156.088 202.443 156.864 202.443 157.808C202.443 158.768 202.755 159.56 203.379 160.184ZM221.666 151.664C222.978 151.664 224.058 152.104 224.906 152.984C225.77 153.864 226.202 155.08 226.202 156.632V164H223.106V157.016C223.106 156.216 222.89 155.608 222.458 155.192C222.026 154.76 221.45 154.544 220.73 154.544C219.93 154.544 219.29 154.792 218.81 155.288C218.33 155.784 218.09 156.528 218.09 157.52V164H214.994V152H218.09V153.344C218.842 152.224 220.034 151.664 221.666 151.664Z" fill="#060F27"/>
</g>
<rect x="103" y="140" width="32" height="32" rx="16" fill="#3A3960"/>
<g clip-path="url(#clip0_533_3704)">
<path d="M118.998 156.002C118.998 155.157 119.334 154.346 119.931 153.749C120.529 153.151 121.339 152.816 122.184 152.816C123.029 152.816 123.84 153.151 124.437 153.749C125.035 154.347 125.37 155.157 125.37 156.002C125.37 156.847 125.035 157.657 124.437 158.255C123.839 158.852 123.029 159.188 122.184 159.188C121.339 159.188 120.528 158.852 119.931 158.255C119.333 157.657 118.998 156.847 118.998 156.002Z" fill="#1ABCFE"/>
<path d="M112.626 162.374C112.626 161.529 112.962 160.718 113.559 160.121C114.157 159.523 114.967 159.188 115.812 159.188L118.999 159.188L118.998 162.374C118.998 163.219 118.663 164.029 118.065 164.627C117.468 165.224 116.657 165.56 115.812 165.56C114.967 165.56 114.157 165.224 113.559 164.627C112.962 164.029 112.626 163.219 112.626 162.374V162.374Z" fill="#0ACF83"/>
<path d="M118.998 146.443L118.998 152.816L122.184 152.816C123.029 152.816 123.839 152.48 124.437 151.883C125.035 151.285 125.37 150.475 125.37 149.63C125.37 148.785 125.035 147.974 124.437 147.377C123.84 146.779 123.029 146.444 122.184 146.444L118.998 146.443Z" fill="#FF7262"/>
<path d="M112.626 149.629C112.626 150.474 112.961 151.284 113.559 151.882C114.156 152.479 114.967 152.815 115.812 152.815L118.998 152.815L118.998 146.443L115.812 146.443C114.967 146.443 114.157 146.778 113.559 147.376C112.962 147.973 112.626 148.784 112.626 149.629V149.629Z" fill="#F24E1E"/>
<path d="M112.626 156.001C112.626 156.846 112.962 157.656 113.559 158.254C114.157 158.851 114.967 159.187 115.812 159.187L118.998 159.187L118.999 152.815L115.812 152.815C114.967 152.815 114.157 153.15 113.559 153.748C112.962 154.345 112.626 155.156 112.626 156.001V156.001Z" fill="#A259FF"/>
</g>
<g filter="url(#filter2_d_533_3704)">
<rect x="258" y="232" width="345" height="80" rx="8" fill="#F9FAFA"/>
<rect x="331.5" y="256" width="32" height="32" rx="16" fill="url(#paint2_linear_533_3704)"/>
<path d="M348.512 270.548C349.424 270.764 350.162 271.19 350.726 271.826C351.302 272.45 351.59 273.236 351.59 274.184C351.59 275.444 351.164 276.434 350.312 277.154C349.46 277.874 348.416 278.234 347.18 278.234C346.22 278.234 345.356 278.012 344.588 277.568C343.832 277.124 343.286 276.476 342.95 275.624L344.714 274.598C345.086 275.678 345.908 276.218 347.18 276.218C347.9 276.218 348.47 276.038 348.89 275.678C349.31 275.306 349.52 274.808 349.52 274.184C349.52 273.56 349.31 273.068 348.89 272.708C348.47 272.348 347.9 272.168 347.18 272.168H346.712L345.884 270.926L348.602 267.344H343.328V265.4H351.068V267.164L348.512 270.548Z" fill="#060F27"/>
<path d="M387.732 263.2C390.036 263.2 391.956 264.008 393.492 265.624C395.044 267.24 395.82 269.232 395.82 271.6C395.82 273.968 395.044 275.96 393.492 277.576C391.956 279.192 390.036 280 387.732 280H381.06V263.2H387.732ZM387.732 276.832C389.188 276.832 390.372 276.352 391.284 275.392C392.196 274.416 392.652 273.152 392.652 271.6C392.652 270.048 392.196 268.792 391.284 267.832C390.372 266.856 389.188 266.368 387.732 266.368H384.372V276.832H387.732ZM400.641 275.272C401.057 276.776 402.185 277.528 404.025 277.528C405.209 277.528 406.105 277.128 406.713 276.328L409.209 277.768C408.025 279.48 406.281 280.336 403.977 280.336C401.993 280.336 400.401 279.736 399.201 278.536C398.001 277.336 397.401 275.824 397.401 274C397.401 272.192 397.993 270.688 399.177 269.488C400.361 268.272 401.881 267.664 403.737 267.664C405.497 267.664 406.945 268.272 408.081 269.488C409.233 270.704 409.809 272.208 409.809 274C409.809 274.4 409.769 274.824 409.689 275.272H400.641ZM400.593 272.872H406.713C406.537 272.056 406.169 271.448 405.609 271.048C405.065 270.648 404.441 270.448 403.737 270.448C402.905 270.448 402.217 270.664 401.673 271.096C401.129 271.512 400.769 272.104 400.593 272.872ZM419.398 268H422.806L418.246 280H414.718L410.158 268H413.566L416.47 276.4L419.398 268ZM426.446 275.272C426.862 276.776 427.99 277.528 429.83 277.528C431.014 277.528 431.91 277.128 432.518 276.328L435.014 277.768C433.83 279.48 432.086 280.336 429.782 280.336C427.798 280.336 426.206 279.736 425.006 278.536C423.806 277.336 423.206 275.824 423.206 274C423.206 272.192 423.798 270.688 424.982 269.488C426.166 268.272 427.686 267.664 429.542 267.664C431.302 267.664 432.75 268.272 433.886 269.488C435.038 270.704 435.614 272.208 435.614 274C435.614 274.4 435.574 274.824 435.494 275.272H426.446ZM426.398 272.872H432.518C432.342 272.056 431.974 271.448 431.414 271.048C430.87 270.648 430.246 270.448 429.542 270.448C428.71 270.448 428.022 270.664 427.478 271.096C426.934 271.512 426.574 272.104 426.398 272.872ZM437.775 280V262.48H440.871V280H437.775ZM453.929 278.512C452.697 279.728 451.193 280.336 449.417 280.336C447.641 280.336 446.137 279.728 444.905 278.512C443.689 277.28 443.081 275.776 443.081 274C443.081 272.224 443.689 270.728 444.905 269.512C446.137 268.28 447.641 267.664 449.417 267.664C451.193 267.664 452.697 268.28 453.929 269.512C455.161 270.728 455.777 272.224 455.777 274C455.777 275.776 455.161 277.28 453.929 278.512ZM447.089 276.376C447.713 277 448.489 277.312 449.417 277.312C450.345 277.312 451.121 277 451.745 276.376C452.369 275.752 452.681 274.96 452.681 274C452.681 273.04 452.369 272.248 451.745 271.624C451.121 271 450.345 270.688 449.417 270.688C448.489 270.688 447.713 271 447.089 271.624C446.481 272.248 446.177 273.04 446.177 274C446.177 274.96 446.481 275.752 447.089 276.376ZM464.939 267.664C466.555 267.664 467.931 268.28 469.067 269.512C470.219 270.728 470.795 272.224 470.795 274C470.795 275.776 470.219 277.28 469.067 278.512C467.931 279.728 466.555 280.336 464.939 280.336C463.259 280.336 461.963 279.752 461.051 278.584V284.8H457.955V268H461.051V269.416C461.963 268.248 463.259 267.664 464.939 267.664ZM461.987 276.448C462.611 277.072 463.403 277.384 464.363 277.384C465.323 277.384 466.115 277.072 466.739 276.448C467.379 275.808 467.699 274.992 467.699 274C467.699 273.008 467.379 272.2 466.739 271.576C466.115 270.936 465.323 270.616 464.363 270.616C463.403 270.616 462.611 270.936 461.987 271.576C461.363 272.2 461.051 273.008 461.051 274C461.051 274.992 461.363 275.808 461.987 276.448ZM486.251 267.664C487.627 267.664 488.723 268.112 489.539 269.008C490.371 269.904 490.787 271.104 490.787 272.608V280H487.691V272.824C487.691 272.104 487.515 271.544 487.163 271.144C486.811 270.744 486.315 270.544 485.674 270.544C484.971 270.544 484.419 270.776 484.019 271.24C483.635 271.704 483.443 272.376 483.443 273.256V280H480.347V272.824C480.347 272.104 480.171 271.544 479.819 271.144C479.467 270.744 478.971 270.544 478.331 270.544C477.643 270.544 477.091 270.776 476.675 271.24C476.275 271.704 476.075 272.376 476.075 273.256V280H472.979V268H476.075V269.272C476.795 268.2 477.907 267.664 479.411 267.664C480.883 267.664 481.971 268.24 482.675 269.392C483.475 268.24 484.667 267.664 486.251 267.664ZM496.032 275.272C496.448 276.776 497.576 277.528 499.416 277.528C500.6 277.528 501.496 277.128 502.104 276.328L504.6 277.768C503.416 279.48 501.672 280.336 499.368 280.336C497.384 280.336 495.792 279.736 494.592 278.536C493.392 277.336 492.792 275.824 492.792 274C492.792 272.192 493.384 270.688 494.568 269.488C495.752 268.272 497.272 267.664 499.128 267.664C500.888 267.664 502.336 268.272 503.472 269.488C504.624 270.704 505.2 272.208 505.2 274C505.2 274.4 505.16 274.824 505.08 275.272H496.032ZM495.984 272.872H502.104C501.928 272.056 501.56 271.448 501 271.048C500.456 270.648 499.832 270.448 499.128 270.448C498.296 270.448 497.608 270.664 497.064 271.096C496.52 271.512 496.16 272.104 495.984 272.872ZM514.033 267.664C515.345 267.664 516.425 268.104 517.273 268.984C518.137 269.864 518.569 271.08 518.569 272.632V280H515.473V273.016C515.473 272.216 515.257 271.608 514.825 271.192C514.393 270.76 513.817 270.544 513.097 270.544C512.297 270.544 511.657 270.792 511.177 271.288C510.697 271.784 510.457 272.528 510.457 273.52V280H507.361V268H510.457V269.344C511.209 268.224 512.401 267.664 514.033 267.664ZM528.077 270.976H525.365V275.968C525.365 276.384 525.469 276.688 525.677 276.88C525.885 277.072 526.189 277.184 526.589 277.216C526.989 277.232 527.485 277.224 528.077 277.192V280C525.949 280.24 524.445 280.04 523.565 279.4C522.701 278.76 522.269 277.616 522.269 275.968V270.976H520.181V268H522.269V265.576L525.365 264.64V268H528.077V270.976Z" fill="#060F27"/>
</g>
<g clip-path="url(#clip1_533_3704)">
<path d="M301.828 264.199C300.399 264.198 298.987 264.811 297.912 266.021L297.913 260.068L295.78 260.068L295.779 270.091C295.779 273.345 298.417 275.983 301.672 275.983C304.927 275.983 307.566 273.346 307.566 270.091C307.566 266.837 305.079 264.199 301.828 264.199ZM301.672 273.711C299.671 273.711 298.051 272.088 298.051 270.091C298.051 268.093 299.675 266.47 301.673 266.47C303.674 266.47 305.294 268.094 305.294 270.091C305.294 272.088 303.674 273.712 301.672 273.711Z" fill="white"/>
<path d="M294.231 275.98C295.035 275.98 295.688 275.328 295.688 274.524C295.688 273.719 295.036 273.068 294.231 273.067C293.427 273.067 292.775 273.719 292.775 274.524C292.775 275.328 293.427 275.98 294.231 275.98Z" fill="white"/>
</g>
<rect x="273.129" y="254.129" width="35.7412" height="35.7412" rx="17.8706" fill="#0000FF" stroke="white" stroke-width="3.74125"/>
<g clip-path="url(#clip2_533_3704)">
<path d="M292.828 268.199C291.399 268.198 289.987 268.811 288.912 270.021L288.913 264.068L286.78 264.068L286.779 274.091C286.779 277.345 289.417 279.983 292.672 279.983C295.927 279.983 298.566 277.346 298.566 274.091C298.566 270.837 296.079 268.199 292.828 268.199ZM292.672 277.711C290.671 277.711 289.051 276.088 289.051 274.091C289.051 272.093 290.675 270.47 292.673 270.47C294.674 270.47 296.294 272.094 296.294 274.091C296.294 276.088 294.674 277.712 292.672 277.711Z" fill="white"/>
<path d="M285.231 279.98C286.035 279.98 286.688 279.328 286.688 278.524C286.688 277.719 286.036 277.068 285.231 277.067C284.427 277.067 283.775 277.719 283.775 278.524C283.775 279.328 284.427 279.98 285.231 279.98Z" fill="white"/>
</g>
<rect x="297.647" y="254.129" width="35.7412" height="35.7412" rx="17.8706" fill="#4855F2" stroke="white" stroke-width="3.74125"/>
<rect x="301.317" y="257.586" width="28.1822" height="28.1822" rx="14.0911" fill="#4855F2"/>
<path d="M321.056 270.135C321.056 270.135 319.635 274.515 319.519 274.876C319.477 274.504 318.435 266.644 318.435 266.644C316.013 266.644 314.718 268.338 314.034 270.125C314.034 270.125 312.307 274.515 312.16 274.886C312.149 274.546 311.897 270.176 311.897 270.176C311.75 267.986 309.707 266.654 308.054 266.654L310.054 278.564C312.591 278.553 313.96 276.87 314.676 275.083C314.676 275.083 316.203 271.209 316.266 271.034C316.276 271.199 317.361 278.564 317.361 278.564C319.908 278.564 321.277 276.984 322.014 275.259L325.583 266.655C323.067 266.654 321.741 268.338 321.056 270.135Z" fill="white"/>
<rect x="322.164" y="254.129" width="47.2412" height="35.7412" rx="17.8706" fill="#F9FAFA" stroke="white" stroke-width="3.74125"/>
<path d="M337.308 275.72V272.938H339.848V271.046H337.308V268.264H335.075V271.046H332.535V272.938H335.075V275.72H337.308Z" fill="#062037"/>
<path d="M348.241 277.774V275.429H349.486V273.423H348.241V266.226H345.652L340.458 273.553V275.429H345.943V277.774H348.241ZM342.885 273.261L345.781 269.202H345.943V273.423H342.885V273.261Z" fill="#062037"/>
<path d="M354.521 278C357.498 278 359.035 275.59 359.035 271.693C359.035 268.668 358.032 266 354.424 266C351.867 266 350.104 267.666 350.104 269.865C350.104 272.453 351.787 273.585 353.809 273.585C355.055 273.585 355.783 273.197 356.479 272.485H356.64C356.64 274.911 355.799 276.189 354.456 276.189C353.469 276.189 352.871 275.606 352.822 274.555H350.46C350.508 276.512 351.77 278 354.521 278ZM354.424 271.887C353.016 271.887 352.45 270.965 352.45 269.881C352.45 268.782 353.065 267.779 354.424 267.779C355.815 267.779 356.398 268.765 356.398 269.849C356.398 270.949 355.783 271.887 354.424 271.887Z" fill="#062037"/>
<g filter="url(#filter3_d_533_3704)">
<rect x="150" y="348" width="180" height="80" rx="8" fill="url(#paint3_linear_533_3704)"/>
<rect x="182" y="372" width="32" height="32" rx="16" fill="#F9FAFA"/>
<path d="M202.634 389.806V391.732H201.194V394H199.106V391.732H192.914V389.806L197.252 381.4H199.502L195.164 389.806H199.106V386.53H201.194V389.806H202.634Z" fill="#060F27"/>
<path d="M240.776 396L237.392 390.168H234.872V396H231.56V379.2H238.28C239.832 379.2 241.152 379.744 242.24 380.832C243.328 381.92 243.872 383.232 243.872 384.768C243.872 385.808 243.576 386.776 242.984 387.672C242.392 388.552 241.608 389.216 240.632 389.664L244.352 396H240.776ZM234.872 382.296V387.264H238.28C238.904 387.264 239.44 387.024 239.888 386.544C240.336 386.048 240.56 385.456 240.56 384.768C240.56 384.08 240.336 383.496 239.888 383.016C239.44 382.536 238.904 382.296 238.28 382.296H234.872ZM248.165 391.272C248.581 392.776 249.709 393.528 251.549 393.528C252.733 393.528 253.629 393.128 254.237 392.328L256.733 393.768C255.549 395.48 253.805 396.336 251.501 396.336C249.517 396.336 247.925 395.736 246.725 394.536C245.525 393.336 244.925 391.824 244.925 390C244.925 388.192 245.517 386.688 246.701 385.488C247.885 384.272 249.405 383.664 251.261 383.664C253.021 383.664 254.469 384.272 255.605 385.488C256.757 386.704 257.333 388.208 257.333 390C257.333 390.4 257.293 390.824 257.213 391.272H248.165ZM248.117 388.872H254.237C254.061 388.056 253.693 387.448 253.133 387.048C252.589 386.648 251.965 386.448 251.261 386.448C250.429 386.448 249.741 386.664 249.197 387.096C248.653 387.512 248.293 388.104 248.117 388.872ZM261.881 387.408C261.881 387.728 262.089 387.992 262.505 388.2C262.937 388.392 263.457 388.568 264.065 388.728C264.673 388.872 265.281 389.064 265.889 389.304C266.497 389.528 267.009 389.912 267.425 390.456C267.857 391 268.073 391.68 268.073 392.496C268.073 393.728 267.609 394.68 266.681 395.352C265.769 396.008 264.625 396.336 263.249 396.336C260.785 396.336 259.105 395.384 258.209 393.48L260.897 391.968C261.249 393.008 262.033 393.528 263.249 393.528C264.353 393.528 264.905 393.184 264.905 392.496C264.905 392.176 264.689 391.92 264.257 391.728C263.841 391.52 263.329 391.336 262.721 391.176C262.113 391.016 261.505 390.816 260.897 390.576C260.289 390.336 259.769 389.96 259.337 389.448C258.921 388.92 258.713 388.264 258.713 387.48C258.713 386.296 259.145 385.368 260.009 384.696C260.889 384.008 261.977 383.664 263.273 383.664C264.249 383.664 265.137 383.888 265.937 384.336C266.737 384.768 267.369 385.392 267.833 386.208L265.193 387.648C264.809 386.832 264.169 386.424 263.273 386.424C262.873 386.424 262.537 386.512 262.265 386.688C262.009 386.864 261.881 387.104 261.881 387.408ZM277.984 384H281.08V396H277.984V394.656C277.232 395.776 276.04 396.336 274.408 396.336C273.096 396.336 272.008 395.896 271.144 395.016C270.296 394.136 269.872 392.92 269.872 391.368V384H272.968V390.984C272.968 391.784 273.184 392.4 273.616 392.832C274.048 393.248 274.624 393.456 275.344 393.456C276.144 393.456 276.784 393.208 277.264 392.712C277.744 392.216 277.984 391.472 277.984 390.48V384ZM283.916 396V378.48H287.012V396H283.916ZM296.71 386.976H293.998V391.968C293.998 392.384 294.102 392.688 294.31 392.88C294.518 393.072 294.822 393.184 295.222 393.216C295.622 393.232 296.118 393.224 296.71 393.192V396C294.582 396.24 293.078 396.04 292.198 395.4C291.334 394.76 290.902 393.616 290.902 391.968V386.976H288.814V384H290.902V381.576L293.998 380.64V384H296.71V386.976Z" fill="#060F27"/>
</g>
<path d="M283.086 154.198C282.305 154.979 282.305 156.246 283.086 157.027L295.814 169.755C296.595 170.536 297.861 170.536 298.642 169.755C299.423 168.974 299.423 167.707 298.642 166.926L287.329 155.613L298.642 144.299C299.423 143.518 299.423 142.251 298.642 141.47C297.861 140.689 296.595 140.689 295.814 141.47L283.086 154.198ZM351.972 108.948C352.157 107.859 351.424 106.826 350.336 106.641C349.247 106.455 348.214 107.188 348.028 108.277L351.972 108.948ZM284.5 157.613L294.324 157.613L294.324 153.613L284.5 153.613L284.5 157.613ZM294.324 157.613C322.833 157.613 347.188 137.053 351.972 108.948L348.028 108.277C343.572 134.46 320.883 153.613 294.324 153.613L294.324 157.613Z" fill="url(#paint4_linear_533_3704)"/>
<path d="M350.431 386.793C349.746 387.66 349.893 388.917 350.76 389.602L364.879 400.767C365.745 401.452 367.003 401.305 367.688 400.439C368.373 399.573 368.226 398.315 367.36 397.63L354.809 387.705L364.734 375.155C365.419 374.289 365.272 373.031 364.405 372.346C363.539 371.661 362.281 371.808 361.596 372.674L350.431 386.793ZM407.068 339.255C407.008 338.152 406.066 337.306 404.963 337.366C403.86 337.425 403.014 338.368 403.074 339.471L407.068 339.255ZM352.232 390.02L365.598 388.458L365.134 384.485L351.768 386.047L352.232 390.02ZM365.598 388.458C390.244 385.579 408.403 364.033 407.068 339.255L403.074 339.471C404.295 362.139 387.682 381.851 365.134 384.485L365.598 388.458Z" fill="url(#paint5_linear_533_3704)"/>
<path d="M239.92 268.167C240.628 269.015 240.516 270.276 239.668 270.985L225.859 282.531C225.012 283.239 223.75 283.126 223.042 282.279C222.333 281.432 222.446 280.17 223.293 279.462L235.568 269.199L225.305 256.924C224.597 256.077 224.709 254.815 225.557 254.107C226.404 253.398 227.665 253.511 228.374 254.358L239.92 268.167ZM186.452 220.537C186.55 219.436 187.521 218.624 188.621 218.722C189.722 218.821 190.534 219.792 190.436 220.892L186.452 220.537ZM238.208 271.442L228.273 270.556L228.628 266.571L238.563 267.458L238.208 271.442ZM228.273 270.556C202.912 268.292 184.188 245.898 186.452 220.537L190.436 220.892C188.368 244.053 205.468 264.504 228.628 266.571L228.273 270.556Z" fill="url(#paint6_linear_533_3704)"/>
<defs>
<filter id="filter0_d_533_3704" x="143" y="0" width="368" height="128" filterUnits="userSpaceOnUse" color-interpolation-filters="sRGB">
<feFlood flood-opacity="0" result="BackgroundImageFix"/>
<feColorMatrix in="SourceAlpha" type="matrix" values="0 0 0 0 0 0 0 0 0 0 0 0 0 0 0 0 0 0 127 0" result="hardAlpha"/>
<feMorphology radius="16" operator="erode" in="SourceAlpha" result="effect1_dropShadow_533_3704"/>
<feOffset dy="24"/>
<feGaussianBlur stdDeviation="20"/>
<feComposite in2="hardAlpha" operator="out"/>
<feColorMatrix type="matrix" values="0 0 0 0 0.0106667 0 0 0 0 0.0266667 0 0 0 0 0.0693333 0 0 0 0.16 0"/>
<feBlend mode="normal" in2="BackgroundImageFix" result="effect1_dropShadow_533_3704"/>
<feBlend mode="normal" in="SourceGraphic" in2="effect1_dropShadow_533_3704" result="shape"/>
</filter>
<filter id="filter1_d_533_3704" x="47" y="116" width="237" height="128" filterUnits="userSpaceOnUse" color-interpolation-filters="sRGB">
<feFlood flood-opacity="0" result="BackgroundImageFix"/>
<feColorMatrix in="SourceAlpha" type="matrix" values="0 0 0 0 0 0 0 0 0 0 0 0 0 0 0 0 0 0 127 0" result="hardAlpha"/>
<feMorphology radius="16" operator="erode" in="SourceAlpha" result="effect1_dropShadow_533_3704"/>
<feOffset dy="24"/>
<feGaussianBlur stdDeviation="20"/>
<feComposite in2="hardAlpha" operator="out"/>
<feColorMatrix type="matrix" values="0 0 0 0 0.0106667 0 0 0 0 0.0266667 0 0 0 0 0.0693333 0 0 0 0.16 0"/>
<feBlend mode="normal" in2="BackgroundImageFix" result="effect1_dropShadow_533_3704"/>
<feBlend mode="normal" in="SourceGraphic" in2="effect1_dropShadow_533_3704" result="shape"/>
</filter>
<filter id="filter2_d_533_3704" x="234" y="232" width="393" height="128" filterUnits="userSpaceOnUse" color-interpolation-filters="sRGB">
<feFlood flood-opacity="0" result="BackgroundImageFix"/>
<feColorMatrix in="SourceAlpha" type="matrix" values="0 0 0 0 0 0 0 0 0 0 0 0 0 0 0 0 0 0 127 0" result="hardAlpha"/>
<feMorphology radius="16" operator="erode" in="SourceAlpha" result="effect1_dropShadow_533_3704"/>
<feOffset dy="24"/>
<feGaussianBlur stdDeviation="20"/>
<feComposite in2="hardAlpha" operator="out"/>
<feColorMatrix type="matrix" values="0 0 0 0 0.0106667 0 0 0 0 0.0266667 0 0 0 0 0.0693333 0 0 0 0.16 0"/>
<feBlend mode="normal" in2="BackgroundImageFix" result="effect1_dropShadow_533_3704"/>
<feBlend mode="normal" in="SourceGraphic" in2="effect1_dropShadow_533_3704" result="shape"/>
</filter>
<filter id="filter3_d_533_3704" x="126" y="348" width="228" height="128" filterUnits="userSpaceOnUse" color-interpolation-filters="sRGB">
<feFlood flood-opacity="0" result="BackgroundImageFix"/>
<feColorMatrix in="SourceAlpha" type="matrix" values="0 0 0 0 0 0 0 0 0 0 0 0 0 0 0 0 0 0 127 0" result="hardAlpha"/>
<feMorphology radius="16" operator="erode" in="SourceAlpha" result="effect1_dropShadow_533_3704"/>
<feOffset dy="24"/>
<feGaussianBlur stdDeviation="20"/>
<feComposite in2="hardAlpha" operator="out"/>
<feColorMatrix type="matrix" values="0 0 0 0 0.0106667 0 0 0 0 0.0266667 0 0 0 0 0.0693333 0 0 0 0.16 0"/>
<feBlend mode="normal" in2="BackgroundImageFix" result="effect1_dropShadow_533_3704"/>
<feBlend mode="normal" in="SourceGraphic" in2="effect1_dropShadow_533_3704" result="shape"/>
</filter>
<linearGradient id="paint0_linear_533_3704" x1="199" y1="56" x2="230.926" y2="57.5325" gradientUnits="userSpaceOnUse">
<stop stop-color="#5BD473"/>
<stop offset="1" stop-color="#98D45B"/>
</linearGradient>
<linearGradient id="paint1_linear_533_3704" x1="103" y1="172" x2="134.926" y2="173.533" gradientUnits="userSpaceOnUse">
<stop stop-color="#5BD473"/>
<stop offset="1" stop-color="#98D45B"/>
</linearGradient>
<linearGradient id="paint2_linear_533_3704" x1="331.5" y1="288" x2="363.426" y2="289.533" gradientUnits="userSpaceOnUse">
<stop stop-color="#5BD473"/>
<stop offset="1" stop-color="#98D45B"/>
</linearGradient>
<linearGradient id="paint3_linear_533_3704" x1="150" y1="428" x2="330" y2="428" gradientUnits="userSpaceOnUse">
<stop stop-color="#5BD473"/>
<stop offset="1" stop-color="#98D45B"/>
</linearGradient>
<linearGradient id="paint4_linear_533_3704" x1="302.5" y1="157.613" x2="340" y2="98.6126" gradientUnits="userSpaceOnUse">
<stop stop-color="#6A779B"/>
<stop offset="1" stop-color="#6A779B" stop-opacity="0"/>
</linearGradient>
<linearGradient id="paint5_linear_533_3704" x1="369.75" y1="387.767" x2="392.652" y2="331.427" gradientUnits="userSpaceOnUse">
<stop stop-color="#6A779B"/>
<stop offset="1" stop-color="#6A779B" stop-opacity="0"/>
</linearGradient>
<linearGradient id="paint6_linear_533_3704" x1="234.152" y1="273.624" x2="203.652" y2="211.624" gradientUnits="userSpaceOnUse">
<stop stop-color="#6A779B"/>
<stop offset="1" stop-color="#6A779B" stop-opacity="0"/>
</linearGradient>
<clipPath id="clip0_533_3704">
<rect width="12.7448" height="19.1173" fill="white" transform="translate(112.627 146.442)"/>
</clipPath>
<clipPath id="clip1_533_3704">
<rect width="15.495" height="16.2329" fill="white" transform="translate(292.25 259.883)"/>
</clipPath>
<clipPath id="clip2_533_3704">
<rect width="15.495" height="16.2329" fill="white" transform="translate(283.25 263.883)"/>
</clipPath>
</defs>
</svg>
