<svg width="57" height="56" viewBox="0 0 57 56" fill="none" xmlns="http://www.w3.org/2000/svg">
<path fill-rule="evenodd" clip-rule="evenodd" d="M35.2626 7.80196C30.7041 6.73268 25.96 6.73268 21.4014 7.80196C14.8183 9.34615 9.67819 14.4863 8.134 21.0694C7.06471 25.6279 7.06471 30.3721 8.134 34.9306C9.67819 41.5137 14.8183 46.6539 21.4014 48.198C25.96 49.2673 30.7041 49.2673 35.2626 48.198C41.8457 46.6539 46.9859 41.5137 48.5301 34.9306C49.5994 30.3721 49.5994 25.6279 48.5301 21.0694C46.9859 14.4863 41.8457 9.34615 35.2626 7.80196ZM20.2908 21.2989C20.2908 20.5588 20.8909 19.9587 21.631 19.9587H30.5657C31.3059 19.9587 31.9059 20.5588 31.9059 21.2989C31.9059 22.0391 31.3059 22.6391 30.5657 22.6391H21.631C20.8909 22.6391 20.2908 22.0391 20.2908 21.2989ZM20.2908 27.9999C20.2908 27.2598 20.8909 26.6597 21.631 26.6597H35.033C35.7732 26.6597 36.3732 27.2598 36.3732 27.9999C36.3732 28.7401 35.7732 29.3401 35.033 29.3401H21.631C20.8909 29.3401 20.2908 28.7401 20.2908 27.9999ZM20.2908 34.7009C20.2908 33.9608 20.8909 33.3607 21.631 33.3607H28.332C29.0722 33.3607 29.6722 33.9608 29.6722 34.7009C29.6722 35.4411 29.0722 36.0411 28.332 36.0411H21.631C20.8909 36.0411 20.2908 35.4411 20.2908 34.7009Z" fill="#363853"/>
</svg>
