<svg width="193" height="88" viewBox="0 0 193 88" fill="none" xmlns="http://www.w3.org/2000/svg">
<path d="M59.7539 34.2372H61.7621C62.9851 34.057 64.234 34.2155 65.3733 34.6952C66.8027 35.5552 67.8394 36.9396 68.2623 38.5531C68.5618 39.3987 68.5618 39.3987 69.2841 39.0992H69.8478V32.4052H50.9459V33.5854H51.721C52.0579 33.5831 52.3909 33.6563 52.6958 33.7995C53.0006 33.9428 53.2695 34.1526 53.4826 34.4134C54.2049 35.576 54.3282 36.8796 54.3282 43.6617C54.3282 50.8666 54.1696 52.6282 53.4826 53.5266C53.313 53.7576 53.0934 53.9472 52.8403 54.0814C52.5871 54.2157 52.3069 54.291 52.0205 54.3017C50.9459 54.4955 50.9459 54.4779 50.9459 54.9535C50.8865 55.1125 50.8865 55.2877 50.9459 55.4467H62.8719C62.9508 55.2911 62.9919 55.1191 62.9919 54.9447C62.9919 54.7702 62.9508 54.5982 62.8719 54.4426C62.583 54.3623 62.2886 54.3034 61.9911 54.2665C61.6692 54.2282 61.351 54.1634 61.0398 54.0727C60.5942 53.7473 60.2411 53.3113 60.0156 52.8077C59.7901 52.3042 59.6999 51.7504 59.7539 51.2013C59.5777 50.0387 59.4896 47.9071 59.4896 46.1455V44.7539H60.1943C61.0722 44.727 61.9495 44.8219 62.8014 45.0357C63.2095 45.2879 63.5569 45.6271 63.8188 46.0291C64.0807 46.431 64.2506 46.8858 64.3164 47.361L64.4749 47.9071H65.5495V40.1033H64.563L64.4045 40.8608C64.3378 41.3468 64.158 41.8103 63.8796 42.2141C63.6012 42.618 63.2319 42.9509 62.8014 43.1861C62.3845 43.3101 61.9454 43.3402 61.5155 43.2742H59.4896V41.3716C59.4896 39.3987 59.5953 35.2413 59.6658 34.5895L59.7539 34.2372ZM142.196 48.2066C141.363 46.8664 140.065 45.8814 138.55 45.4409C137.388 45.0779 136.315 44.478 135.396 43.6793C135.19 43.4795 135.035 43.2322 134.946 42.9589C134.857 42.6856 134.836 42.3947 134.886 42.1115C134.887 41.5561 135.109 41.0239 135.502 40.6318C135.769 40.3525 136.106 40.1509 136.479 40.0485C136.851 39.9461 137.244 39.9468 137.616 40.0505C138.386 40.2699 139.083 40.6936 139.631 41.2767C140.18 41.8597 140.561 42.5803 140.734 43.3622C141.016 44.155 141.051 44.155 141.562 43.9436L141.879 43.8203V39.4339L141.65 39.3282C139.916 38.7191 138.076 38.4674 136.242 38.5883C134.662 38.6284 133.155 39.2566 132.014 40.3499C131.497 40.8342 131.092 41.4256 130.827 42.0829C130.562 42.7402 130.444 43.4474 130.482 44.155C130.491 45.2368 130.921 46.2725 131.679 47.044C132.518 47.8684 133.546 48.4734 134.674 48.8055C137.405 49.8801 138.197 50.5671 138.197 51.8179C138.209 52.3453 138.041 52.861 137.721 53.2804C137.401 53.6997 136.948 53.9978 136.436 54.1255C135.821 54.2607 135.184 54.2607 134.568 54.1255C133.763 53.813 133.044 53.3126 132.471 52.6661C131.898 52.0196 131.488 51.2456 131.274 50.4086L131.045 49.8449H130.728C130.577 49.8561 130.428 49.8918 130.288 49.9506H130.112V54.9535H130.411C131.601 55.3494 132.829 55.621 134.075 55.7638H135.837C136.601 55.8199 137.369 55.7484 138.109 55.5524C139.049 55.3789 139.928 54.9625 140.657 54.3444C141.386 53.7263 141.941 52.9282 142.267 52.0293C142.477 51.5272 142.585 50.9881 142.584 50.4438C142.653 49.677 142.519 48.9054 142.196 48.2066V48.2066ZM125.602 39.0992C124.546 38.656 123.409 38.441 122.264 38.4683C121.12 38.4957 119.994 38.7647 118.961 39.2577C117.99 39.7328 117.129 40.4063 116.434 41.2346C115.739 42.063 115.226 43.0278 114.927 44.0669C114.546 45.2004 114.384 46.3961 114.451 47.5901C114.439 48.2397 114.492 48.8889 114.61 49.5278C114.894 51.0988 115.653 52.5451 116.783 53.6724C117.914 54.7998 119.362 55.5542 120.934 55.8343C121.957 55.9632 122.993 55.9632 124.017 55.8343C125.079 55.6471 126.095 55.2584 127.011 54.6893C127.769 54.2644 128.41 53.6594 128.879 52.9277C128.849 52.8128 128.796 52.7053 128.723 52.6114C128.65 52.5176 128.559 52.4394 128.456 52.3816C128.255 52.4544 128.065 52.5552 127.892 52.681C127.016 53.2585 125.981 53.5479 124.933 53.509C124.237 53.556 123.539 53.4477 122.89 53.1917C122.241 52.9358 121.657 52.5387 121.18 52.0293C120.812 51.6868 120.507 51.2811 120.282 50.8314C119.735 49.7362 119.44 48.5323 119.419 47.3082V46.6212H129.178V46.2689C129.2 45.9169 129.2 45.5639 129.178 45.2119C129.175 43.9681 128.842 42.7473 128.214 41.6737C127.586 40.6 126.685 39.7118 125.602 39.0992V39.0992ZM120.687 45.1943H119.454V44.155C119.859 41.495 120.863 39.9095 122.096 39.9095C123.33 39.9095 123.858 41.4773 124.087 44.3487V45.1591H123.03L120.687 45.1943ZM95.3556 38.5179C94.7469 38.4943 94.1417 38.6213 93.594 38.8878C92.4034 39.466 91.4417 40.4277 90.8635 41.6183L90.6345 42.0411V38.5179H90.5464C90.335 38.5179 83.8172 39.8214 83.6058 39.9095C83.3944 39.9976 83.4648 40.0152 83.4648 40.3323C83.4648 40.6494 83.4648 40.7022 83.6058 40.7199L84.2928 40.8608C84.4852 40.8655 84.674 40.914 84.8449 41.0025C85.0158 41.091 85.1644 41.2172 85.2793 41.3716C85.7197 41.953 85.8078 42.9747 85.8078 47.3258C85.8948 49.2846 85.8122 51.2473 85.5611 53.1919C85.502 53.4851 85.3533 53.7528 85.1356 53.9579C84.9179 54.163 84.6419 54.2954 84.3456 54.3369L83.7467 54.4602H83.5177V54.9535C83.4538 55.1178 83.4538 55.3001 83.5177 55.4643H93.365V54.9535C93.3991 54.7849 93.3991 54.6112 93.365 54.4426C92.7721 54.4195 92.1825 54.3429 91.6034 54.2136C91.288 54.0487 91.03 53.7921 90.8634 53.4776C90.6967 53.1632 90.6292 52.8056 90.6697 52.452C90.5288 51.4303 90.4583 48.4356 90.4936 46.1455C90.5288 43.8555 90.4936 43.7146 90.6873 43.556C91.2768 43.1041 92.0062 42.8734 92.7484 42.9042C93.448 42.9195 94.1348 43.0942 94.7566 43.4151C94.9722 43.5348 95.2034 43.6237 95.4436 43.6793C95.4436 43.6793 97.2052 39.4163 97.2052 39.2225C96.9798 38.9606 96.6926 38.7589 96.3696 38.6359C96.0467 38.5129 95.6981 38.4723 95.3556 38.5179V38.5179ZM83.4825 45.9165C83.421 44.6577 83.0596 43.4318 82.4283 42.341C81.7971 41.2501 80.9143 40.3259 79.8536 39.6453C78.593 38.9652 77.1905 38.5903 75.7587 38.5505C74.3269 38.5107 72.9058 38.8072 71.6094 39.4163C69.7764 40.3828 68.3925 42.0259 67.7515 43.9964C67.0894 46.2026 67.0894 48.5547 67.7515 50.7609C68.0986 51.9667 68.7473 53.064 69.6364 53.9494C70.7437 55.0299 72.1715 55.7221 73.7056 55.9224C74.6904 56.0047 75.6803 56.0047 76.6651 55.9224C77.0275 55.8672 77.3863 55.7908 77.7397 55.6934C79.1735 55.2923 80.4635 54.4911 81.4587 53.3836C82.4539 52.2761 83.1131 50.9082 83.3591 49.4397C83.535 48.2739 83.5764 47.0918 83.4825 45.9165V45.9165ZM76.1542 54.7245C74.3927 55.253 73.0715 53.5442 72.6311 49.9506C72.4693 48.0691 72.4693 46.1773 72.6311 44.2959C72.9834 41.4069 73.8818 39.9448 75.2735 39.9448C75.5542 39.9274 75.8351 39.9775 76.0925 40.0909C76.35 40.2042 76.5765 40.3776 76.7532 40.5965C77.9335 41.7768 78.5148 44.1197 78.5148 47.6429C78.6613 49.6368 78.3479 51.6378 77.5988 53.4914C77.2679 54.032 76.7561 54.4377 76.1542 54.6364V54.7245V54.7245ZM107.863 38.8702C107.366 38.8062 106.863 38.8062 106.365 38.8702C105.411 38.8694 104.468 39.0736 103.6 39.4691L103.054 39.6981V35.8755C103.149 34.5854 103.149 33.2901 103.054 32C102.842 32 96.113 33.286 96.0073 33.3388C95.9554 33.4689 95.9554 33.6139 96.0073 33.744C96.0073 34.1139 96.0073 34.0963 96.8001 34.2724C97.0226 34.3224 97.2364 34.4055 97.4342 34.5191C97.7781 34.8424 98.0069 35.2692 98.086 35.7346C98.2866 37.0752 98.3515 38.4326 98.2798 39.7862V55.253L98.7554 55.3587C99.46 55.5172 101.451 55.8519 102.102 55.9224C103.404 56.0259 104.712 56.0259 106.013 55.9224C107.458 55.7748 108.835 55.2358 109.996 54.3636C111.157 53.4913 112.058 52.3188 112.601 50.9723C112.926 50.1081 113.15 49.2098 113.271 48.2947C113.376 47.0552 113.334 45.8076 113.148 44.5777C112.959 43.1991 112.35 41.9121 111.405 40.891C110.459 39.87 109.223 39.1645 107.863 38.8702V38.8702ZM103.247 54.425C103.247 54.196 103.071 46.4803 103.107 43.3975V40.9841L103.617 40.8608C103.962 40.8114 104.312 40.8114 104.657 40.8608C105.038 40.822 105.421 40.9086 105.749 41.1074C106.407 41.5614 106.953 42.1588 107.347 42.8545C107.74 43.5502 107.971 44.3261 108.021 45.1238C108.15 46.4066 108.15 47.6989 108.021 48.9817C107.916 50.8461 107.198 52.6234 105.978 54.0375C105.632 54.3663 105.197 54.5867 104.727 54.6716C104.372 54.7335 104.008 54.7335 103.653 54.6716C103.318 54.6716 103.318 54.5659 103.318 54.425H103.247Z" fill="#7D90A1"/>
</svg>
