<svg width="93" height="24" viewBox="0 0 93 24" fill="none" xmlns="http://www.w3.org/2000/svg">
<path id="brand-1" d="M9.75485 2.23722H11.7631C12.986 2.05705 14.235 2.21545 15.3743 2.69523C16.8036 3.55516 17.8403 4.93956 18.2633 6.55311C18.5628 7.39867 18.5628 7.39867 19.285 7.0992H19.8487V0.405165H0.946912V1.58543H1.72201C2.05883 1.5831 2.3919 1.65626 2.69674 1.79953C3.00159 1.94281 3.27045 2.15256 3.4836 2.41338C4.20585 3.57602 4.32916 4.8796 4.32916 11.6617C4.32916 18.8666 4.17062 20.6282 3.4836 21.5266C3.31399 21.7576 3.0944 21.9472 2.84123 22.0814C2.58805 22.2157 2.30783 22.291 2.02148 22.3017C0.946912 22.4955 0.946912 22.4779 0.946912 22.9535C0.887488 23.1125 0.887488 23.2877 0.946912 23.4467H12.8729C12.9518 23.2911 12.9929 23.1191 12.9929 22.9447C12.9929 22.7702 12.9518 22.5982 12.8729 22.4426C12.584 22.3623 12.2896 22.3034 11.9921 22.2665C11.6702 22.2282 11.352 22.1634 11.0408 22.0727C10.5952 21.7473 10.2421 21.3113 10.0166 20.8077C9.79105 20.3042 9.70083 19.7504 9.75485 19.2013C9.57869 18.0387 9.49061 15.9071 9.49061 14.1455V12.7539H10.1952C11.0731 12.727 11.9505 12.8219 12.8024 13.0357C13.2105 13.2879 13.5579 13.6271 13.8198 14.0291C14.0816 14.431 14.2516 14.8858 14.3174 15.361L14.4759 15.9071H15.5505V8.1033H14.564L14.4054 8.86079C14.3387 9.34675 14.159 9.81029 13.8805 10.2141C13.6021 10.618 13.2329 10.9509 12.8024 11.1861C12.3855 11.3101 11.9463 11.3402 11.5164 11.2742H9.49061V9.37165C9.49061 7.39867 9.5963 3.24132 9.66677 2.58953L9.75485 2.23722ZM92.1971 16.2066C91.3645 14.8664 90.0657 13.8814 88.5506 13.4409C87.3892 13.0779 86.3155 12.478 85.3974 11.6793C85.1908 11.4795 85.0363 11.2322 84.9472 10.9589C84.8582 10.6856 84.8373 10.3947 84.8865 10.1115C84.8879 9.55606 85.1097 9.02386 85.5031 8.63178C85.7698 8.3525 86.1073 8.15089 86.4796 8.0485C86.8519 7.94612 87.245 7.94679 87.617 8.05046C88.3871 8.26993 89.0835 8.69363 89.6324 9.27665C90.1813 9.85968 90.5623 10.5803 90.735 11.3622C91.0169 12.155 91.0521 12.155 91.563 11.9436L91.88 11.8203V7.4339L91.651 7.32821C89.9168 6.7191 88.0771 6.46742 86.243 6.58834C84.6635 6.62836 83.1558 7.25656 82.0152 8.34993C81.4979 8.83417 81.0927 9.42563 80.8279 10.0829C80.5632 10.7402 80.4453 11.4474 80.4826 12.155C80.4925 13.2368 80.9219 14.2725 81.6805 15.044C82.5187 15.8684 83.5473 16.4734 84.6751 16.8055C87.4056 17.8801 88.1983 18.5671 88.1983 19.8179C88.21 20.3453 88.042 20.861 87.7219 21.2804C87.4018 21.6997 86.9486 21.9978 86.4367 22.1255C85.8216 22.2607 85.1846 22.2607 84.5695 22.1255C83.7641 21.813 83.0451 21.3126 82.4721 20.6661C81.8991 20.0196 81.4888 19.2456 81.2753 18.4086L81.0463 17.8449H80.7292C80.5777 17.8561 80.4289 17.8918 80.2888 17.9506H80.1126V22.9535H80.4121C81.6022 23.3494 82.8301 23.621 84.0762 23.7638H85.8378C86.6018 23.8199 87.3697 23.7484 88.1102 23.5524C89.0504 23.3789 89.9287 22.9625 90.658 22.3444C91.3874 21.7263 91.9423 20.9282 92.2676 20.0293C92.4778 19.5272 92.5856 18.9881 92.5847 18.4438C92.6541 17.677 92.5204 16.9054 92.1971 16.2066ZM75.603 7.0992C74.5474 6.656 73.41 6.44101 72.2654 6.46833C71.1209 6.49566 69.9951 6.76468 68.9618 7.25774C67.9906 7.73281 67.1297 8.40626 66.4349 9.23461C65.7401 10.063 65.2266 11.0278 64.9278 12.0669C64.5467 13.2004 64.3853 14.3961 64.4521 15.5901C64.4395 16.2397 64.4926 16.8889 64.6107 17.5278C64.8951 19.0988 65.6536 20.5451 66.7841 21.6724C67.9146 22.7998 69.363 23.5542 70.9348 23.8343C71.9583 23.9632 72.994 23.9632 74.0175 23.8343C75.0797 23.6471 76.0962 23.2584 77.0122 22.6893C77.77 22.2645 78.4113 21.6594 78.8795 20.9277C78.8495 20.8128 78.7965 20.7053 78.7239 20.6115C78.6512 20.5176 78.5604 20.4394 78.4567 20.3816C78.2557 20.4544 78.0659 20.5552 77.893 20.681C77.0169 21.2585 75.9822 21.5479 74.9336 21.509C74.2376 21.556 73.5398 21.4477 72.8908 21.1917C72.2419 20.9358 71.6579 20.5387 71.1814 20.0293C70.8128 19.6868 70.5085 19.2811 70.283 18.8314C69.7356 17.7362 69.4406 16.5323 69.4198 15.3082V14.6212H79.179V14.2689C79.2005 13.9169 79.2005 13.5639 79.179 13.2119C79.1755 11.9681 78.8428 10.7473 78.2147 9.67366C77.5866 8.60003 76.6855 7.71179 75.603 7.0992ZM70.6881 13.1943H69.455V12.155C69.8602 9.49496 70.8643 7.90953 72.0974 7.90953C73.3305 7.90953 73.859 9.47734 74.088 12.3487V13.1591H73.0311L70.6881 13.1943ZM45.3565 6.51787C44.7478 6.49427 44.1427 6.62134 43.5949 6.88781C42.4043 7.46601 41.4427 8.42767 40.8645 9.61827L40.6355 10.0411V6.51787H40.5474C40.336 6.51787 33.8181 7.82145 33.6067 7.90953C33.3954 7.99761 33.4658 8.01522 33.4658 8.33231C33.4658 8.6494 33.4658 8.70224 33.6067 8.71986L34.2938 8.86079C34.4862 8.86551 34.675 8.91396 34.8459 9.00247C35.0168 9.09098 35.1654 9.21723 35.2803 9.37165C35.7206 9.95297 35.8087 10.9747 35.8087 15.3258C35.8957 17.2846 35.8132 19.2473 35.5621 21.1919C35.503 21.4851 35.3543 21.7528 35.1366 21.9579C34.9189 22.163 34.6428 22.2954 34.3466 22.3369L33.7477 22.4602H33.5187V22.9535C33.4548 23.1178 33.4548 23.3001 33.5187 23.4643H43.3659V22.9535C43.4001 22.7849 43.4001 22.6112 43.3659 22.4426C42.773 22.4195 42.1834 22.3429 41.6043 22.2136C41.289 22.0487 41.031 21.7921 40.8643 21.4776C40.6977 21.1632 40.6302 20.8056 40.6707 20.452C40.5298 19.4303 40.4593 16.4356 40.4945 14.1455C40.5298 11.8555 40.4945 11.7146 40.6883 11.556C41.2778 11.1041 42.0072 10.8734 42.7494 10.9042C43.4489 10.9195 44.1358 11.0942 44.7576 11.4151C44.9731 11.5348 45.2044 11.6237 45.4446 11.6793C45.4446 11.6793 47.2062 7.41629 47.2062 7.22251C46.9808 6.96055 46.6936 6.75894 46.3706 6.6359C46.0477 6.51287 45.6991 6.4723 45.3565 6.51787ZM33.4834 13.9165C33.4219 12.6577 33.0605 11.4318 32.4293 10.341C31.7981 9.2501 30.9153 8.32588 29.8546 7.64529C28.594 6.96523 27.1915 6.59025 25.7597 6.55048C24.3279 6.51071 22.9067 6.80725 21.6103 7.41628C19.7774 8.38283 18.3934 10.0259 17.7525 11.9964C17.0904 14.2026 17.0904 16.5547 17.7525 18.7609C18.0995 19.9667 18.7483 21.064 19.6374 21.9494C20.7447 23.0299 22.1725 23.7221 23.7066 23.9224C24.6914 24.0047 25.6813 24.0047 26.6661 23.9224C27.0285 23.8672 27.3873 23.7908 27.7407 23.6934C29.1745 23.2923 30.4645 22.4911 31.4597 21.3836C32.4548 20.2761 33.114 18.9082 33.3601 17.4397C33.536 16.2739 33.5774 15.0918 33.4834 13.9165ZM26.1552 22.7245C24.3936 23.253 23.0724 21.5442 22.6321 17.9506C22.4703 16.0691 22.4703 14.1773 22.6321 12.2959C22.9844 9.40688 23.8828 7.94476 25.2744 7.94476C25.5552 7.92736 25.8361 7.97745 26.0935 8.09085C26.3509 8.20425 26.5775 8.37765 26.7542 8.59655C27.9344 9.77681 28.5158 12.1197 28.5158 15.6429C28.6623 17.6368 28.3489 19.6378 27.5997 21.4914C27.2689 22.032 26.7571 22.4377 26.1552 22.6364V22.7245ZM57.8638 6.87019C57.3667 6.80623 56.8635 6.80623 56.3664 6.87019C55.4123 6.86938 54.4691 7.07364 53.6008 7.46913L53.0547 7.69814V3.87549C53.1501 2.58542 53.1501 1.29007 53.0547 0C52.8433 0 46.114 1.28596 46.0083 1.33881C45.9564 1.46887 45.9564 1.61391 46.0083 1.74397C46.0083 2.11391 46.0083 2.09629 46.801 2.27245C47.0236 2.32236 47.2374 2.4055 47.4352 2.51907C47.7791 2.84243 48.0079 3.26922 48.087 3.73457C48.2876 5.07517 48.3525 6.43259 48.2808 7.78622V23.253L48.7564 23.3587C49.461 23.5172 51.4516 23.8519 52.1034 23.9224C53.4049 24.0259 54.7126 24.0259 56.0141 23.9224C57.4588 23.7748 58.8357 23.2358 59.9967 22.3636C61.1577 21.4913 62.0586 20.3188 62.6025 18.9723C62.9267 18.1081 63.1513 17.2098 63.2719 16.2947C63.3767 15.0552 63.3353 13.8076 63.1486 12.5777C62.9596 11.1991 62.3511 9.91205 61.4057 8.89104C60.4604 7.87002 59.2238 7.16451 57.8638 6.87019ZM53.2484 22.425C53.2484 22.196 53.0723 14.4803 53.1075 11.3975V8.9841L53.6184 8.86079C53.9631 8.8114 54.313 8.8114 54.6577 8.86079C55.0389 8.82203 55.4223 8.90861 55.7499 9.10741C56.4078 9.56144 56.9541 10.1588 57.3477 10.8545C57.7413 11.5502 57.972 12.3261 58.0223 13.1238C58.1507 14.4066 58.1507 15.6989 58.0223 16.9817C57.9169 18.8461 57.1985 20.6234 55.9789 22.0375C55.6327 22.3663 55.198 22.5867 54.7282 22.6716C54.3727 22.7335 54.0091 22.7335 53.6536 22.6716C53.3189 22.6716 53.3189 22.5659 53.3189 22.425H53.2484Z" fill="#7D90A1"/>
</svg>
