<svg width="588" height="465" viewBox="0 0 588 465" fill="none" xmlns="http://www.w3.org/2000/svg">
<rect width="588" height="464" transform="translate(0 0.525879)" fill="#DDEFE2"/>
<g filter="url(#filter0_d_1780_9030)">
<rect width="354.915" height="270.39" rx="17.7685" transform="matrix(1 0 -0.0629979 0.998014 99.5593 50.5994)" fill="white" shape-rendering="crispEdges"/>
<rect width="301.61" height="49.2107" rx="11.1053" transform="matrix(1 0 -0.0629979 0.998014 123.414 94.9326)" fill="white"/>
<path d="M135.926 125.976L136.74 113.075H144.549L144.461 114.46H138.214L137.942 118.772H143.772L143.685 120.158H137.855L137.575 124.591H143.908L143.821 125.976H135.926ZM147.364 120.158L146.996 125.976H145.521L146.132 116.296H147.555L147.459 117.82H147.598C147.855 117.323 148.224 116.925 148.706 116.625C149.187 116.325 149.796 116.174 150.53 116.174C151.184 116.174 151.748 116.307 152.223 116.573C152.698 116.838 153.054 117.242 153.292 117.785C153.535 118.322 153.631 119.003 153.579 119.829L153.191 125.976H151.716L152.098 119.932C152.145 119.176 151.983 118.585 151.611 118.157C151.239 117.724 150.709 117.508 150.021 117.508C149.547 117.508 149.115 117.612 148.726 117.82C148.337 118.027 148.02 118.328 147.775 118.72C147.537 119.113 147.399 119.592 147.364 120.158ZM159.91 116.296L159.83 117.56H154.815L154.895 116.296H159.91ZM156.498 113.992H157.973L157.392 123.205C157.36 123.708 157.441 124.077 157.634 124.314C157.828 124.545 158.15 124.66 158.601 124.66C158.7 124.66 158.801 124.654 158.906 124.643C159.017 124.631 159.136 124.614 159.265 124.591L159.493 125.924C159.351 125.976 159.178 126.017 158.974 126.046C158.775 126.08 158.574 126.097 158.372 126.097C157.591 126.097 156.969 125.867 156.507 125.405C156.05 124.943 155.845 124.343 155.892 123.604L156.498 113.992ZM164.665 126.184C163.734 126.184 162.94 125.976 162.284 125.561C161.633 125.145 161.149 124.565 160.832 123.82C160.515 123.07 160.387 122.201 160.45 121.214C160.512 120.221 160.747 119.347 161.153 118.59C161.56 117.834 162.1 117.242 162.775 116.815C163.456 116.388 164.233 116.174 165.106 116.174C165.609 116.174 166.104 116.258 166.591 116.426C167.078 116.593 167.512 116.864 167.893 117.24C168.28 117.615 168.576 118.111 168.78 118.729C168.983 119.347 169.057 120.106 169 121.006L168.96 121.647H161.481L161.562 120.365H168.234L167.518 120.85C167.559 120.204 167.494 119.629 167.323 119.127C167.152 118.625 166.873 118.23 166.487 117.941C166.106 117.652 165.618 117.508 165.022 117.508C164.426 117.508 163.905 117.655 163.458 117.95C163.018 118.238 162.67 118.616 162.415 119.084C162.16 119.551 162.015 120.054 161.981 120.59L161.928 121.439C161.882 122.172 161.97 122.793 162.192 123.301C162.415 123.809 162.746 124.195 163.186 124.461C163.627 124.721 164.148 124.851 164.749 124.851C165.137 124.851 165.493 124.796 165.818 124.686C166.143 124.571 166.429 124.4 166.674 124.175C166.92 123.944 167.115 123.661 167.257 123.327L168.671 123.742C168.49 124.227 168.209 124.654 167.827 125.024C167.451 125.387 166.993 125.673 166.454 125.881C165.915 126.083 165.319 126.184 164.665 126.184ZM170.092 125.976L170.703 116.296H172.126L172.033 117.768H172.137C172.347 117.289 172.692 116.902 173.173 116.607C173.661 116.307 174.194 116.157 174.772 116.157C174.882 116.157 175.018 116.16 175.179 116.166C175.341 116.166 175.465 116.169 175.552 116.174L175.457 117.681C175.405 117.67 175.291 117.652 175.113 117.629C174.935 117.606 174.745 117.595 174.543 117.595C174.074 117.595 173.649 117.693 173.266 117.889C172.883 118.085 172.574 118.354 172.339 118.694C172.109 119.035 171.98 119.424 171.953 119.863L171.567 125.976H170.092ZM180.226 125.976L181.04 113.075H188.848L188.761 114.46H182.514L182.242 118.772H188.072L187.985 120.158H182.155L181.875 124.591H188.208L188.121 125.976H180.226ZM189.821 125.976L190.432 116.296H191.855L191.759 117.82H191.898C192.133 117.3 192.485 116.896 192.955 116.607C193.424 116.319 193.974 116.174 194.604 116.174C195.241 116.174 195.761 116.319 196.165 116.607C196.575 116.896 196.882 117.3 197.086 117.82H197.19C197.476 117.317 197.875 116.919 198.385 116.625C198.901 116.325 199.504 116.174 200.192 116.174C201.059 116.174 201.754 116.446 202.275 116.988C202.796 117.525 203.021 118.362 202.949 119.499L202.54 125.976H201.048L201.457 119.499C201.502 118.784 201.338 118.273 200.964 117.967C200.59 117.661 200.137 117.508 199.604 117.508C198.928 117.508 198.388 117.716 197.986 118.131C197.59 118.541 197.373 119.055 197.334 119.673L196.936 125.976H195.409L195.827 119.344C195.862 118.795 195.713 118.354 195.382 118.019C195.05 117.678 194.601 117.508 194.034 117.508C193.647 117.508 193.279 117.612 192.93 117.82C192.582 118.027 192.292 118.313 192.061 118.677C191.835 119.041 191.708 119.459 191.678 119.932L191.296 125.976H189.821ZM207.281 126.201C206.667 126.201 206.117 126.086 205.628 125.855C205.14 125.618 204.762 125.278 204.495 124.833C204.228 124.389 204.115 123.852 204.154 123.223C204.189 122.669 204.327 122.221 204.569 121.881C204.81 121.534 205.12 121.263 205.496 121.067C205.879 120.865 206.294 120.715 206.739 120.616C207.191 120.518 207.644 120.44 208.099 120.383C208.694 120.308 209.175 120.25 209.542 120.209C209.914 120.169 210.188 120.1 210.362 120.002C210.541 119.904 210.639 119.736 210.653 119.499L210.657 119.448C210.696 118.83 210.555 118.351 210.236 118.01C209.922 117.664 209.421 117.491 208.733 117.491C208.027 117.491 207.462 117.646 207.037 117.958C206.613 118.264 206.309 118.593 206.125 118.945L204.734 118.443C205.025 117.854 205.393 117.395 205.836 117.066C206.284 116.737 206.762 116.506 207.268 116.374C207.779 116.241 208.278 116.174 208.764 116.174C209.076 116.174 209.432 116.212 209.832 116.287C210.233 116.356 210.617 116.506 210.984 116.737C211.357 116.962 211.654 117.306 211.873 117.768C212.099 118.224 212.188 118.836 212.139 119.603L211.737 125.976H210.245L210.328 124.66H210.258C210.147 124.868 209.965 125.093 209.712 125.336C209.46 125.572 209.132 125.777 208.728 125.95C208.33 126.118 207.847 126.201 207.281 126.201ZM207.59 124.868C208.18 124.868 208.685 124.752 209.104 124.522C209.524 124.291 209.849 123.993 210.08 123.63C210.312 123.26 210.44 122.876 210.465 122.478L210.552 121.11C210.483 121.185 210.34 121.254 210.122 121.318C209.91 121.376 209.664 121.428 209.384 121.474C209.109 121.52 208.84 121.56 208.578 121.595C208.316 121.624 208.106 121.647 207.949 121.664C207.558 121.716 207.191 121.8 206.848 121.915C206.506 122.025 206.224 122.189 206.002 122.409C205.785 122.628 205.665 122.928 205.641 123.309C205.609 123.823 205.775 124.213 206.14 124.478C206.511 124.738 206.995 124.868 207.59 124.868ZM213.646 125.976L214.257 116.296H215.732L215.121 125.976H213.646ZM215.105 114.685C214.815 114.685 214.573 114.587 214.377 114.391C214.181 114.195 214.092 113.958 214.109 113.681C214.127 113.404 214.246 113.167 214.467 112.971C214.687 112.774 214.942 112.676 215.231 112.676C215.521 112.676 215.763 112.774 215.959 112.971C216.155 113.167 216.244 113.404 216.226 113.681C216.209 113.958 216.09 114.195 215.869 114.391C215.649 114.587 215.394 114.685 215.105 114.685ZM219.319 113.075L218.504 125.976H217.029L217.844 113.075H219.319Z" fill="#7D90A1"/>
<rect x="0.520286" y="0.554164" width="300.499" height="48.1001" rx="10.5501" transform="matrix(1 0 -0.0629979 0.998014 123.448 94.9337)" stroke="#062037" stroke-opacity="0.16" stroke-width="1.11053"/>
<rect width="301.61" height="49.2107" rx="11.1053" transform="matrix(1 0 -0.0629979 0.998014 119.474 157.345)" fill="white"/>
<path d="M131.986 188.389L132.801 175.487H140.609L140.521 176.873H134.275L134.003 181.185H139.833L139.745 182.57H133.915L133.635 187.004H139.969L139.881 188.389H131.986ZM143.424 182.57L143.057 188.389H141.582L142.193 178.709H143.616L143.52 180.233H143.658C143.915 179.736 144.285 179.338 144.766 179.038C145.248 178.737 145.856 178.587 146.591 178.587C147.244 178.587 147.808 178.72 148.283 178.986C148.758 179.251 149.114 179.655 149.352 180.198C149.596 180.735 149.692 181.416 149.639 182.241L149.251 188.389H147.777L148.158 182.345C148.206 181.589 148.044 180.997 147.671 180.57C147.3 180.137 146.77 179.921 146.081 179.921C145.607 179.921 145.175 180.025 144.786 180.233C144.397 180.44 144.08 180.74 143.836 181.133C143.597 181.526 143.46 182.005 143.424 182.57ZM155.97 178.709L155.891 179.973H150.876L150.956 178.709H155.97ZM152.559 176.405H154.034L153.452 185.618C153.42 186.12 153.501 186.49 153.694 186.727C153.888 186.958 154.21 187.073 154.662 187.073C154.76 187.073 154.862 187.067 154.966 187.056C155.077 187.044 155.197 187.027 155.325 187.004L155.554 188.337C155.411 188.389 155.238 188.43 155.034 188.458C154.835 188.493 154.634 188.51 154.432 188.51C153.651 188.51 153.03 188.279 152.567 187.818C152.11 187.356 151.905 186.755 151.952 186.017L152.559 176.405ZM160.725 188.597C159.794 188.597 159 188.389 158.344 187.973C157.694 187.558 157.21 186.978 156.892 186.233C156.575 185.483 156.448 184.614 156.51 183.627C156.573 182.634 156.807 181.759 157.214 181.003C157.62 180.247 158.161 179.655 158.835 179.228C159.516 178.801 160.293 178.587 161.166 178.587C161.67 178.587 162.165 178.671 162.651 178.838C163.138 179.006 163.572 179.277 163.954 179.652C164.341 180.028 164.636 180.524 164.84 181.142C165.044 181.759 165.117 182.518 165.061 183.419L165.02 184.06H157.541L157.622 182.778H164.294L163.578 183.263C163.619 182.617 163.554 182.042 163.383 181.54C163.213 181.038 162.934 180.642 162.547 180.354C162.166 180.065 161.678 179.921 161.082 179.921C160.486 179.921 159.965 180.068 159.519 180.362C159.078 180.651 158.73 181.029 158.475 181.497C158.22 181.964 158.076 182.466 158.042 183.003L157.988 183.852C157.942 184.585 158.03 185.206 158.253 185.714C158.475 186.222 158.806 186.608 159.246 186.874C159.687 187.134 160.208 187.263 160.81 187.263C161.197 187.263 161.553 187.209 161.878 187.099C162.204 186.983 162.489 186.813 162.735 186.588C162.981 186.357 163.175 186.074 163.318 185.74L164.732 186.155C164.551 186.64 164.269 187.067 163.887 187.437C163.512 187.8 163.054 188.086 162.514 188.294C161.975 188.496 161.379 188.597 160.725 188.597ZM166.152 188.389L166.763 178.709H168.186L168.093 180.181H168.197C168.407 179.701 168.752 179.315 169.234 179.02C169.721 178.72 170.254 178.57 170.833 178.57C170.942 178.57 171.078 178.573 171.24 178.579C171.402 178.579 171.526 178.582 171.612 178.587L171.517 180.094C171.466 180.082 171.351 180.065 171.173 180.042C170.996 180.019 170.805 180.007 170.603 180.007C170.135 180.007 169.709 180.106 169.326 180.302C168.944 180.498 168.635 180.766 168.399 181.107C168.17 181.448 168.041 181.837 168.013 182.276L167.627 188.389H166.152ZM176.286 188.389L177.1 175.487H181.473C182.485 175.487 183.301 175.669 183.92 176.033C184.545 176.397 184.994 176.887 185.267 177.505C185.541 178.123 185.653 178.812 185.605 179.574C185.557 180.331 185.358 181.02 185.006 181.644C184.66 182.267 184.152 182.764 183.48 183.133C182.816 183.497 181.98 183.679 180.973 183.679H177.85L177.937 182.293H181.009C181.703 182.293 182.268 182.175 182.706 181.938C183.143 181.702 183.47 181.378 183.687 180.969C183.904 180.553 184.028 180.088 184.061 179.574C184.094 179.055 184.027 178.593 183.862 178.189C183.697 177.779 183.408 177.459 182.994 177.228C182.587 176.991 182.033 176.873 181.334 176.873H178.575L177.848 188.389H176.286ZM189.373 188.614C188.759 188.614 188.209 188.499 187.72 188.268C187.232 188.031 186.854 187.691 186.587 187.246C186.32 186.802 186.207 186.265 186.246 185.636C186.281 185.081 186.419 184.634 186.661 184.293C186.902 183.947 187.212 183.676 187.588 183.48C187.971 183.278 188.386 183.127 188.831 183.029C189.283 182.931 189.736 182.853 190.191 182.796C190.786 182.72 191.267 182.663 191.634 182.622C192.006 182.582 192.28 182.513 192.454 182.415C192.633 182.316 192.731 182.149 192.745 181.912L192.749 181.86C192.788 181.243 192.647 180.764 192.328 180.423C192.014 180.077 191.513 179.903 190.825 179.903C190.119 179.903 189.554 180.059 189.129 180.371C188.705 180.677 188.401 181.006 188.217 181.358L186.826 180.856C187.117 180.267 187.485 179.808 187.928 179.479C188.376 179.15 188.854 178.919 189.36 178.786C189.871 178.654 190.37 178.587 190.856 178.587C191.168 178.587 191.524 178.625 191.924 178.7C192.325 178.769 192.709 178.919 193.076 179.15C193.449 179.375 193.746 179.719 193.965 180.181C194.191 180.637 194.28 181.248 194.231 182.016L193.829 188.389H192.337L192.42 187.073H192.35C192.239 187.281 192.057 187.506 191.804 187.748C191.552 187.985 191.224 188.19 190.82 188.363C190.422 188.531 189.939 188.614 189.373 188.614ZM189.682 187.281C190.272 187.281 190.777 187.165 191.196 186.934C191.616 186.704 191.941 186.406 192.172 186.043C192.404 185.673 192.532 185.289 192.557 184.891L192.644 183.523C192.575 183.598 192.432 183.667 192.214 183.731C192.002 183.788 191.756 183.84 191.476 183.887C191.201 183.933 190.932 183.973 190.67 184.008C190.408 184.037 190.198 184.06 190.041 184.077C189.65 184.129 189.283 184.213 188.94 184.328C188.598 184.438 188.316 184.602 188.094 184.822C187.877 185.041 187.757 185.341 187.733 185.722C187.701 186.236 187.867 186.626 188.232 186.891C188.603 187.151 189.087 187.281 189.682 187.281ZM203.065 180.891L201.706 181.254C201.6 180.925 201.399 180.613 201.106 180.319C200.818 180.019 200.347 179.869 199.694 179.869C199.104 179.869 198.603 180.007 198.193 180.284C197.782 180.556 197.564 180.896 197.538 181.306C197.515 181.676 197.629 181.97 197.882 182.189C198.14 182.409 198.551 182.588 199.114 182.726L200.533 183.073C201.381 183.28 202.003 183.601 202.398 184.034C202.799 184.467 202.978 185.018 202.936 185.688C202.901 186.242 202.71 186.738 202.365 187.177C202.019 187.616 201.554 187.962 200.972 188.216C200.389 188.47 199.721 188.597 198.969 188.597C197.98 188.597 197.176 188.38 196.555 187.948C195.94 187.515 195.572 186.888 195.45 186.069L196.878 185.722C196.978 186.242 197.208 186.631 197.567 186.891C197.933 187.151 198.422 187.281 199.035 187.281C199.723 187.281 200.282 187.134 200.711 186.839C201.147 186.539 201.377 186.184 201.403 185.774C201.446 185.093 200.995 184.637 200.049 184.406L198.46 184.025C197.583 183.811 196.95 183.485 196.561 183.047C196.172 182.608 195.999 182.057 196.04 181.393C196.075 180.844 196.259 180.36 196.592 179.938C196.931 179.517 197.377 179.188 197.93 178.951C198.483 178.709 199.098 178.587 199.775 178.587C200.741 178.587 201.482 178.801 201.999 179.228C202.522 179.649 202.877 180.204 203.065 180.891ZM211.516 180.891L210.156 181.254C210.05 180.925 209.85 180.613 209.556 180.319C209.269 180.019 208.798 179.869 208.144 179.869C207.554 179.869 207.054 180.007 206.643 180.284C206.233 180.556 206.015 180.896 205.989 181.306C205.965 181.676 206.08 181.97 206.332 182.189C206.59 182.409 207.001 182.588 207.565 182.726L208.983 183.073C209.832 183.28 210.454 183.601 210.849 184.034C211.249 184.467 211.429 185.018 211.386 185.688C211.351 186.242 211.161 186.738 210.815 187.177C210.469 187.616 210.005 187.962 209.422 188.216C208.839 188.47 208.172 188.597 207.42 188.597C206.431 188.597 205.626 188.38 205.006 187.948C204.391 187.515 204.023 186.888 203.901 186.069L205.328 185.722C205.428 186.242 205.658 186.631 206.018 186.891C206.383 187.151 206.872 187.281 207.486 187.281C208.174 187.281 208.733 187.134 209.162 186.839C209.597 186.539 209.828 186.184 209.854 185.774C209.897 185.093 209.446 184.637 208.5 184.406L206.91 184.025C206.033 183.811 205.4 183.485 205.011 183.047C204.622 182.608 204.449 182.057 204.491 181.393C204.526 180.844 204.709 180.36 205.043 179.938C205.382 179.517 205.827 179.188 206.38 178.951C206.933 178.709 207.548 178.587 208.225 178.587C209.191 178.587 209.932 178.801 210.449 179.228C210.972 179.649 211.328 180.204 211.516 180.891ZM214.825 188.389L212.486 178.709H214.048L215.68 186.12H215.784L218.316 178.709H219.913L221.476 186.103H221.58L224.147 178.709H225.708L222.148 188.389H220.69L219.025 180.96H218.886L216.283 188.389H214.825ZM229.821 188.597C228.948 188.597 228.195 188.389 227.562 187.973C226.928 187.558 226.45 186.975 226.128 186.224C225.811 185.474 225.683 184.602 225.746 183.609C225.81 182.599 226.048 181.719 226.459 180.969C226.877 180.212 227.429 179.626 228.115 179.211C228.8 178.795 229.58 178.587 230.453 178.587C231.332 178.587 232.089 178.795 232.722 179.211C233.355 179.626 233.833 180.212 234.155 180.969C234.478 181.719 234.607 182.599 234.544 183.609C234.481 184.602 234.241 185.474 233.823 186.224C233.406 186.975 232.854 187.558 232.169 187.973C231.483 188.389 230.701 188.597 229.821 188.597ZM229.906 187.263C230.577 187.263 231.137 187.093 231.586 186.753C232.036 186.412 232.382 185.965 232.625 185.41C232.869 184.851 233.011 184.25 233.051 183.609C233.093 182.957 233.027 182.351 232.854 181.791C232.681 181.231 232.391 180.781 231.985 180.44C231.579 180.094 231.04 179.921 230.369 179.921C229.71 179.921 229.155 180.094 228.705 180.44C228.256 180.781 227.909 181.231 227.666 181.791C227.422 182.351 227.28 182.957 227.238 183.609C227.198 184.25 227.264 184.851 227.437 185.41C227.61 185.965 227.9 186.412 228.307 186.753C228.713 187.093 229.246 187.263 229.906 187.263ZM235.682 188.389L236.293 178.709H237.716L237.623 180.181H237.727C237.937 179.701 238.282 179.315 238.764 179.02C239.251 178.72 239.784 178.57 240.362 178.57C240.472 178.57 240.608 178.573 240.77 178.579C240.932 178.579 241.056 178.582 241.142 178.587L241.047 180.094C240.996 180.082 240.881 180.065 240.703 180.042C240.525 180.019 240.335 180.007 240.133 180.007C239.664 180.007 239.239 180.106 238.856 180.302C238.474 180.498 238.165 180.766 237.929 181.107C237.699 181.448 237.571 181.837 237.543 182.276L237.157 188.389H235.682ZM244.796 188.597C243.986 188.597 243.285 188.392 242.692 187.982C242.099 187.572 241.653 186.992 241.353 186.242C241.054 185.486 240.936 184.597 241.001 183.575C241.065 182.559 241.294 181.679 241.688 180.934C242.088 180.183 242.611 179.606 243.255 179.202C243.9 178.792 244.63 178.587 245.445 178.587C246.082 178.587 246.575 178.691 246.927 178.899C247.284 179.107 247.552 179.344 247.732 179.609C247.912 179.869 248.052 180.082 248.152 180.25H248.273L248.574 175.487H250.049L249.234 188.389H247.811L247.905 186.9H247.732C247.611 187.073 247.441 187.295 247.221 187.567C247.002 187.832 246.698 188.072 246.308 188.285C245.925 188.493 245.421 188.597 244.796 188.597ZM245.071 187.263C245.673 187.263 246.189 187.108 246.619 186.796C247.05 186.478 247.39 186.043 247.639 185.488C247.888 184.928 248.036 184.285 248.082 183.557C248.127 182.83 248.063 182.195 247.889 181.653C247.716 181.104 247.43 180.68 247.033 180.38C246.641 180.074 246.142 179.921 245.535 179.921C244.91 179.921 244.379 180.082 243.942 180.406C243.506 180.729 243.166 181.165 242.923 181.713C242.68 182.262 242.537 182.876 242.494 183.557C242.451 184.244 242.516 184.868 242.688 185.428C242.867 185.988 243.154 186.435 243.549 186.77C243.945 187.099 244.452 187.263 245.071 187.263Z" fill="#7D90A1"/>
<rect x="0.520286" y="0.554164" width="300.499" height="48.1001" rx="10.5501" transform="matrix(1 0 -0.0629979 0.998014 119.509 157.347)" stroke="#062037" stroke-opacity="0.16" stroke-width="1.11053"/>
<rect width="161.027" height="49.8101" rx="11.1053" transform="matrix(1 0 -0.0629979 0.998014 185.406 226.408)" fill="#0101C4"/>
<path d="M234.862 257.425C233.752 257.425 232.773 257.16 231.928 256.628C231.082 256.097 230.439 255.338 229.998 254.351C229.557 253.358 229.38 252.178 229.467 250.81C229.554 249.43 229.88 248.247 230.446 247.26C231.017 246.267 231.757 245.505 232.663 244.974C233.576 244.443 234.588 244.177 235.698 244.177C236.381 244.177 237.014 244.275 237.597 244.471C238.186 244.668 238.706 244.953 239.157 245.329C239.607 245.704 239.969 246.163 240.241 246.705C240.519 247.248 240.689 247.863 240.749 248.55H238.789C238.74 248.128 238.622 247.759 238.433 247.441C238.251 247.118 238.017 246.847 237.73 246.628C237.449 246.402 237.127 246.235 236.764 246.125C236.407 246.01 236.023 245.952 235.612 245.952C234.872 245.952 234.192 246.14 233.573 246.515C232.959 246.884 232.459 247.433 232.072 248.16C231.691 248.882 231.467 249.765 231.401 250.81C231.335 251.86 231.45 252.746 231.746 253.468C232.042 254.184 232.473 254.726 233.04 255.096C233.606 255.465 234.257 255.65 234.991 255.65C235.402 255.65 235.793 255.595 236.164 255.485C236.536 255.376 236.879 255.211 237.193 254.992C237.508 254.773 237.776 254.507 237.998 254.195C238.227 253.878 238.394 253.511 238.502 253.096H240.462C240.324 253.736 240.087 254.322 239.753 254.853C239.419 255.379 239.005 255.835 238.513 256.221C238.02 256.602 237.466 256.9 236.851 257.113C236.237 257.321 235.574 257.425 234.862 257.425ZM245.714 257.451C244.806 257.451 244.024 257.243 243.368 256.828C242.717 256.412 242.228 255.829 241.899 255.079C241.576 254.328 241.446 253.456 241.509 252.464C241.572 251.459 241.813 250.582 242.23 249.831C242.654 249.075 243.217 248.489 243.92 248.074C244.629 247.658 245.437 247.45 246.345 247.45C247.259 247.45 248.042 247.658 248.692 248.074C249.343 248.489 249.832 249.075 250.16 249.831C250.489 250.582 250.621 251.459 250.558 252.464C250.495 253.456 250.252 254.328 249.829 255.079C249.406 255.829 248.842 256.412 248.139 256.828C247.436 257.243 246.628 257.451 245.714 257.451ZM245.814 255.866C246.41 255.866 246.911 255.711 247.319 255.399C247.726 255.087 248.038 254.674 248.256 254.161C248.479 253.641 248.611 253.075 248.649 252.464C248.688 251.84 248.629 251.269 248.471 250.749C248.319 250.23 248.059 249.814 247.691 249.502C247.323 249.191 246.841 249.035 246.245 249.035C245.655 249.035 245.157 249.191 244.75 249.502C244.348 249.814 244.036 250.23 243.812 250.749C243.588 251.269 243.457 251.84 243.417 252.464C243.379 253.075 243.439 253.641 243.597 254.161C243.755 254.674 244.015 255.087 244.377 255.399C244.745 255.711 245.224 255.866 245.814 255.866ZM253.854 251.511L253.492 257.252H251.618L252.229 247.571H254.051L253.95 249.165H254.08C254.333 248.639 254.704 248.224 255.192 247.918C255.68 247.606 256.291 247.45 257.026 247.45C257.685 247.45 258.252 247.589 258.726 247.866C259.206 248.137 259.565 248.544 259.803 249.087C260.046 249.629 260.143 250.302 260.092 251.104L259.704 257.252H257.83L258.204 251.329C258.248 250.631 258.097 250.082 257.752 249.684C257.408 249.28 256.917 249.078 256.281 249.078C255.847 249.078 255.45 249.176 255.091 249.372C254.738 249.563 254.451 249.837 254.232 250.195C254.013 250.553 253.887 250.992 253.854 251.511ZM266.631 247.571L266.535 249.087H261.243L261.339 247.571H266.631ZM262.898 245.268H264.781L264.204 254.412C264.176 254.856 264.248 255.182 264.42 255.39C264.592 255.592 264.883 255.693 265.294 255.693C265.392 255.693 265.497 255.688 265.608 255.676C265.724 255.664 265.841 255.647 265.958 255.624L266.215 257.183C266.02 257.246 265.809 257.295 265.581 257.33C265.354 257.364 265.127 257.382 264.901 257.382C264.063 257.382 263.406 257.148 262.933 256.68C262.459 256.207 262.247 255.578 262.297 254.793L262.898 245.268ZM267.373 257.252L267.985 247.571H269.859L269.247 257.252H267.373ZM269.024 246.082C268.695 246.082 268.421 245.972 268.203 245.753C267.986 245.534 267.887 245.271 267.906 244.965C267.926 244.653 268.058 244.388 268.303 244.168C268.549 243.949 268.836 243.839 269.166 243.839C269.49 243.839 269.76 243.949 269.978 244.168C270.201 244.388 270.303 244.653 270.283 244.965C270.264 245.271 270.129 245.534 269.878 245.753C269.633 245.972 269.348 246.082 269.024 246.082ZM273.288 251.511L272.926 257.252H271.052L271.663 247.571H273.485L273.385 249.165H273.515C273.768 248.639 274.138 248.224 274.626 247.918C275.114 247.606 275.725 247.45 276.46 247.45C277.119 247.45 277.686 247.589 278.16 247.866C278.641 248.137 279 248.544 279.237 249.087C279.481 249.629 279.577 250.302 279.526 251.104L279.138 257.252H277.264L277.638 251.329C277.682 250.631 277.532 250.082 277.187 249.684C276.842 249.28 276.351 249.078 275.715 249.078C275.281 249.078 274.885 249.176 274.525 249.372C274.172 249.563 273.886 249.837 273.667 250.195C273.447 250.553 273.321 250.992 273.288 251.511ZM287.338 253.252L287.696 247.571H289.571L288.959 257.252H287.12L287.226 255.572H287.122C286.858 256.086 286.472 256.516 285.965 256.862C285.457 257.209 284.839 257.379 284.111 257.373C283.486 257.373 282.942 257.237 282.479 256.966C282.022 256.695 281.675 256.288 281.437 255.745C281.205 255.203 281.115 254.53 281.165 253.728L281.554 247.571H283.428L283.053 253.511C283.012 254.164 283.164 254.686 283.509 255.079C283.855 255.471 284.32 255.664 284.904 255.659C285.257 255.659 285.612 255.572 285.97 255.399C286.334 255.226 286.643 254.96 286.897 254.602C287.157 254.244 287.304 253.794 287.338 253.252ZM294.925 257.451C293.976 257.451 293.168 257.246 292.499 256.836C291.831 256.426 291.333 255.849 291.004 255.105C290.681 254.354 290.551 253.48 290.614 252.481C290.677 251.488 290.914 250.613 291.326 249.857C291.744 249.101 292.299 248.512 292.991 248.091C293.689 247.664 294.489 247.45 295.391 247.45C295.941 247.45 296.467 247.54 296.971 247.719C297.474 247.897 297.919 248.18 298.305 248.567C298.691 248.954 298.984 249.456 299.182 250.074C299.386 250.691 299.46 251.436 299.405 252.308L299.363 252.983H291.65L291.739 251.572H298.48L297.574 252.039C297.612 251.445 297.552 250.919 297.396 250.463C297.24 250.007 296.984 249.652 296.63 249.398C296.282 249.139 295.836 249.009 295.293 249.009C294.749 249.009 294.275 249.139 293.871 249.398C293.473 249.658 293.159 250.002 292.93 250.429C292.701 250.856 292.57 251.323 292.538 251.831L292.477 252.793C292.435 253.456 292.515 254.019 292.718 254.481C292.92 254.943 293.219 255.295 293.614 255.537C294.015 255.78 294.49 255.901 295.04 255.901C295.398 255.901 295.726 255.849 296.021 255.745C296.323 255.641 296.587 255.485 296.814 255.278C297.042 255.07 297.22 254.813 297.349 254.507L299.115 254.845C298.937 255.364 298.654 255.82 298.265 256.213C297.876 256.605 297.397 256.911 296.828 257.131C296.265 257.344 295.63 257.451 294.925 257.451Z" fill="white"/>
</g>
<g filter="url(#filter1_d_1780_9030)">
<g clip-path="url(#clip0_1780_9030)">
<rect x="20" y="360.526" width="548" height="84" rx="10" fill="white"/>
<path d="M51.2461 409.721C49.9961 409.721 48.8763 409.422 47.8867 408.823C46.8971 408.224 46.1191 407.368 45.5527 406.254C44.9863 405.135 44.7031 403.803 44.7031 402.26C44.7031 400.704 44.9863 399.37 45.5527 398.256C46.1257 397.137 46.9036 396.277 47.8867 395.678C48.8763 395.079 49.9961 394.78 51.2461 394.78C52.0143 394.78 52.7337 394.89 53.4043 395.112C54.0814 395.333 54.6868 395.655 55.2207 396.079C55.7546 396.502 56.194 397.019 56.5391 397.631C56.8906 398.243 57.125 398.937 57.2422 399.711H55.0352C54.9505 399.236 54.791 398.819 54.5566 398.461C54.3288 398.097 54.0456 397.791 53.707 397.543C53.375 397.29 53.0007 397.101 52.584 396.977C52.1738 396.847 51.7376 396.782 51.2754 396.782C50.4421 396.782 49.6901 396.993 49.0195 397.417C48.3555 397.833 47.8314 398.452 47.4473 399.272C47.0697 400.086 46.8809 401.082 46.8809 402.26C46.8809 403.445 47.0729 404.444 47.457 405.258C47.8411 406.066 48.3652 406.678 49.0293 407.094C49.6934 407.511 50.4388 407.719 51.2656 407.719C51.7279 407.719 52.1641 407.657 52.5742 407.534C52.9844 407.41 53.3587 407.224 53.6973 406.977C54.0358 406.73 54.319 406.43 54.5469 406.079C54.7812 405.721 54.944 405.307 55.0352 404.838H57.2422C57.1315 405.561 56.9069 406.222 56.5684 406.821C56.2298 407.413 55.7969 407.928 55.2695 408.364C54.7422 408.793 54.14 409.129 53.4629 409.37C52.7858 409.604 52.0469 409.721 51.2461 409.721ZM58.8828 409.526V398.608H60.9238V400.356H61.041C61.2428 399.77 61.5944 399.308 62.0957 398.969C62.6035 398.624 63.1764 398.452 63.8145 398.452C63.9447 398.452 64.0977 398.458 64.2734 398.471C64.4557 398.478 64.6022 398.487 64.7129 398.5V400.532C64.6283 400.506 64.4753 400.48 64.2539 400.454C64.0391 400.428 63.821 400.415 63.5996 400.415C63.0983 400.415 62.6491 400.522 62.252 400.737C61.8613 400.945 61.5521 401.235 61.3242 401.606C61.1029 401.971 60.9922 402.394 60.9922 402.875V409.526H58.8828ZM70.0449 409.75C68.9772 409.75 68.0527 409.519 67.2715 409.057C66.4902 408.595 65.888 407.944 65.4648 407.104C65.0482 406.258 64.8398 405.271 64.8398 404.145C64.8398 403.025 65.0449 402.039 65.4551 401.186C65.8717 400.333 66.4544 399.669 67.2031 399.194C67.9583 398.712 68.8438 398.471 69.8594 398.471C70.4779 398.471 71.0768 398.572 71.6562 398.774C72.2357 398.976 72.7565 399.295 73.2188 399.731C73.681 400.167 74.0456 400.734 74.3125 401.43C74.5859 402.127 74.7227 402.967 74.7227 403.95V404.711H66.041V403.12H73.6289L72.6426 403.647C72.6426 402.976 72.5384 402.384 72.3301 401.87C72.1217 401.355 71.8092 400.955 71.3926 400.668C70.9824 400.375 70.4714 400.229 69.8594 400.229C69.2474 400.229 68.7233 400.375 68.2871 400.668C67.8574 400.961 67.5286 401.349 67.3008 401.831C67.0729 402.312 66.959 402.84 66.959 403.413V404.497C66.959 405.245 67.0892 405.88 67.3496 406.401C67.61 406.922 67.9714 407.319 68.4336 407.592C68.9023 407.866 69.446 408.002 70.0645 408.002C70.4681 408.002 70.8327 407.944 71.1582 407.827C71.4902 407.709 71.7767 407.534 72.0176 407.299C72.2585 407.065 72.4408 406.775 72.5645 406.43L74.5762 406.811C74.4134 407.397 74.127 407.911 73.7168 408.354C73.3066 408.797 72.7891 409.142 72.1641 409.389C71.5456 409.63 70.8392 409.75 70.0449 409.75ZM79.3711 409.76C78.681 409.76 78.056 409.633 77.4961 409.379C76.9362 409.119 76.4935 408.741 76.168 408.247C75.8424 407.752 75.6797 407.15 75.6797 406.44C75.6797 405.821 75.7969 405.317 76.0312 404.926C76.2721 404.529 76.5944 404.213 76.998 403.979C77.4017 403.745 77.8509 403.569 78.3457 403.452C78.8405 403.334 79.3483 403.243 79.8691 403.178C80.5267 403.107 81.0573 403.045 81.4609 402.993C81.8646 402.941 82.1576 402.859 82.3398 402.749C82.5286 402.631 82.623 402.446 82.623 402.192V402.143C82.623 401.525 82.4473 401.046 82.0957 400.708C81.7507 400.369 81.2363 400.2 80.5527 400.2C79.8431 400.2 79.2799 400.356 78.8633 400.668C78.4531 400.974 78.1699 401.323 78.0137 401.713L76.0117 401.254C76.2526 400.59 76.6009 400.056 77.0566 399.653C77.5189 399.243 78.0462 398.943 78.6387 398.754C79.2376 398.566 79.8626 398.471 80.5137 398.471C80.9499 398.471 81.4121 398.523 81.9004 398.627C82.3887 398.725 82.8477 398.911 83.2773 399.184C83.7135 399.451 84.0684 399.835 84.3418 400.336C84.6152 400.838 84.752 401.486 84.752 402.28V409.526H82.6719V408.032H82.5938C82.4635 408.299 82.2585 408.566 81.9785 408.833C81.7051 409.099 81.3535 409.321 80.9238 409.497C80.4941 409.672 79.9766 409.76 79.3711 409.76ZM79.8301 408.061C80.4225 408.061 80.9271 407.947 81.3438 407.719C81.7604 407.485 82.0794 407.179 82.3008 406.801C82.5221 406.424 82.6328 406.023 82.6328 405.6V404.184C82.5547 404.256 82.4082 404.324 82.1934 404.389C81.9785 404.454 81.7344 404.51 81.4609 404.555C81.1875 404.601 80.9206 404.643 80.6602 404.682C80.3997 404.715 80.1816 404.741 80.0059 404.76C79.5957 404.819 79.2214 404.91 78.8828 405.034C78.5443 405.151 78.2708 405.327 78.0625 405.561C77.8607 405.789 77.7598 406.092 77.7598 406.469C77.7598 406.997 77.9551 407.394 78.3457 407.661C78.7363 407.928 79.2311 408.061 79.8301 408.061ZM91.8711 398.608V400.317H85.9141V398.608H91.8711ZM87.5059 396.01H89.625V406.323C89.625 406.824 89.7292 407.192 89.9375 407.426C90.1458 407.654 90.4811 407.768 90.9434 407.768C91.054 407.768 91.1712 407.762 91.2949 407.749C91.4251 407.736 91.5553 407.716 91.6855 407.69L92.0859 409.448C91.8711 409.519 91.6367 409.575 91.3828 409.614C91.1289 409.653 90.875 409.672 90.6211 409.672C89.6771 409.672 88.9219 409.409 88.3555 408.881C87.7891 408.347 87.5059 407.638 87.5059 406.752V396.01ZM97.9746 409.75C96.9069 409.75 95.9824 409.519 95.2012 409.057C94.4199 408.595 93.8177 407.944 93.3945 407.104C92.9779 406.258 92.7695 405.271 92.7695 404.145C92.7695 403.025 92.9746 402.039 93.3848 401.186C93.8014 400.333 94.3841 399.669 95.1328 399.194C95.888 398.712 96.7734 398.471 97.7891 398.471C98.4076 398.471 99.0065 398.572 99.5859 398.774C100.165 398.976 100.686 399.295 101.148 399.731C101.611 400.167 101.975 400.734 102.242 401.43C102.516 402.127 102.652 402.967 102.652 403.95V404.711H93.9707V403.12H101.559L100.572 403.647C100.572 402.976 100.468 402.384 100.26 401.87C100.051 401.355 99.7389 400.955 99.3223 400.668C98.9121 400.375 98.401 400.229 97.7891 400.229C97.1771 400.229 96.653 400.375 96.2168 400.668C95.7871 400.961 95.4583 401.349 95.2305 401.831C95.0026 402.312 94.8887 402.84 94.8887 403.413V404.497C94.8887 405.245 95.0189 405.88 95.2793 406.401C95.5397 406.922 95.901 407.319 96.3633 407.592C96.832 407.866 97.3757 408.002 97.9941 408.002C98.3978 408.002 98.7624 407.944 99.0879 407.827C99.4199 407.709 99.7064 407.534 99.9473 407.299C100.188 407.065 100.37 406.775 100.494 406.43L102.506 406.811C102.343 407.397 102.057 407.911 101.646 408.354C101.236 408.797 100.719 409.142 100.094 409.389C99.4753 409.63 98.7689 409.75 97.9746 409.75ZM109.986 409.526H107.652L112.887 394.975H115.426L120.65 409.526H118.326L114.205 397.622H114.088L109.986 409.526ZM110.377 403.833H117.926V405.668H110.377V403.833ZM126.344 409.526V394.975H131.539C132.665 394.975 133.6 395.17 134.342 395.561C135.084 395.945 135.641 396.482 136.012 397.172C136.383 397.856 136.568 398.647 136.568 399.545C136.568 400.431 136.383 401.212 136.012 401.889C135.641 402.566 135.081 403.09 134.332 403.461C133.59 403.833 132.652 404.018 131.52 404.018H127.604V402.143H131.314C132.037 402.143 132.62 402.039 133.062 401.831C133.512 401.622 133.837 401.326 134.039 400.942C134.247 400.558 134.352 400.092 134.352 399.545C134.352 398.992 134.247 398.517 134.039 398.12C133.831 397.716 133.502 397.407 133.053 397.192C132.61 396.971 132.027 396.86 131.305 396.86H128.541V409.526H126.344ZM134.625 409.526L131.1 402.954H133.531L137.125 409.526H134.625ZM142.818 409.75C141.751 409.75 140.826 409.519 140.045 409.057C139.264 408.595 138.661 407.944 138.238 407.104C137.822 406.258 137.613 405.271 137.613 404.145C137.613 403.025 137.818 402.039 138.229 401.186C138.645 400.333 139.228 399.669 139.977 399.194C140.732 398.712 141.617 398.471 142.633 398.471C143.251 398.471 143.85 398.572 144.43 398.774C145.009 398.976 145.53 399.295 145.992 399.731C146.454 400.167 146.819 400.734 147.086 401.43C147.359 402.127 147.496 402.967 147.496 403.95V404.711H138.814V403.12H146.402L145.416 403.647C145.416 402.976 145.312 402.384 145.104 401.87C144.895 401.355 144.583 400.955 144.166 400.668C143.756 400.375 143.245 400.229 142.633 400.229C142.021 400.229 141.497 400.375 141.061 400.668C140.631 400.961 140.302 401.349 140.074 401.831C139.846 402.312 139.732 402.84 139.732 403.413V404.497C139.732 405.245 139.863 405.88 140.123 406.401C140.383 406.922 140.745 407.319 141.207 407.592C141.676 407.866 142.219 408.002 142.838 408.002C143.242 408.002 143.606 407.944 143.932 407.827C144.264 407.709 144.55 407.534 144.791 407.299C145.032 407.065 145.214 406.775 145.338 406.43L147.35 406.811C147.187 407.397 146.9 407.911 146.49 408.354C146.08 408.797 145.562 409.142 144.938 409.389C144.319 409.63 143.613 409.75 142.818 409.75ZM153.531 413.842C152.229 413.842 151.204 413.598 150.455 413.11C149.706 412.622 149.189 412.042 148.902 411.372L150.719 410.62C150.849 410.828 151.021 411.049 151.236 411.284C151.458 411.518 151.754 411.717 152.125 411.879C152.496 412.042 152.975 412.124 153.561 412.124C154.361 412.124 155.025 411.928 155.553 411.538C156.08 411.153 156.344 410.535 156.344 409.682V407.543H156.197C156.08 407.771 155.901 408.028 155.66 408.315C155.419 408.595 155.09 408.839 154.674 409.047C154.257 409.256 153.714 409.36 153.043 409.36C152.184 409.36 151.409 409.158 150.719 408.754C150.035 408.344 149.488 407.745 149.078 406.958C148.674 406.163 148.473 405.187 148.473 404.028C148.473 402.869 148.671 401.876 149.068 401.049C149.472 400.216 150.019 399.578 150.709 399.135C151.399 398.693 152.184 398.471 153.062 398.471C153.74 398.471 154.286 398.585 154.703 398.813C155.126 399.034 155.455 399.295 155.689 399.594C155.924 399.894 156.106 400.157 156.236 400.385H156.393V398.608H158.453V409.77C158.453 410.708 158.235 411.476 157.799 412.075C157.369 412.674 156.783 413.116 156.041 413.403C155.299 413.696 154.462 413.842 153.531 413.842ZM153.512 407.592C154.43 407.592 155.133 407.277 155.621 406.645C156.116 406.007 156.363 405.125 156.363 403.999C156.363 403.263 156.256 402.618 156.041 402.065C155.826 401.505 155.507 401.069 155.084 400.756C154.661 400.437 154.137 400.278 153.512 400.278C152.874 400.278 152.34 400.444 151.91 400.776C151.487 401.101 151.168 401.547 150.953 402.114C150.738 402.674 150.631 403.302 150.631 403.999C150.631 404.708 150.738 405.336 150.953 405.883C151.168 406.424 151.49 406.844 151.92 407.143C152.356 407.443 152.887 407.592 153.512 407.592ZM160.484 409.526V398.608H162.594V409.526H160.484ZM161.549 396.928C161.178 396.928 160.862 396.805 160.602 396.557C160.341 396.31 160.211 396.014 160.211 395.668C160.211 395.317 160.341 395.017 160.602 394.77C160.862 394.523 161.178 394.399 161.549 394.399C161.913 394.399 162.226 394.523 162.486 394.77C162.753 395.017 162.887 395.317 162.887 395.668C162.887 396.014 162.753 396.31 162.486 396.557C162.226 396.805 161.913 396.928 161.549 396.928ZM172.789 401.284L170.865 401.616C170.742 401.251 170.51 400.916 170.172 400.61C169.84 400.304 169.342 400.151 168.678 400.151C168.079 400.151 167.577 400.288 167.174 400.561C166.777 400.828 166.578 401.17 166.578 401.586C166.578 401.951 166.712 402.247 166.979 402.475C167.252 402.703 167.685 402.885 168.277 403.022L170.025 403.413C171.021 403.64 171.767 403.999 172.262 404.487C172.757 404.975 173.004 405.6 173.004 406.362C173.004 407.019 172.815 407.605 172.438 408.12C172.06 408.627 171.536 409.028 170.865 409.321C170.195 409.607 169.42 409.75 168.541 409.75C167.317 409.75 166.321 409.487 165.553 408.959C164.785 408.432 164.312 407.69 164.137 406.733L166.178 406.42C166.308 406.954 166.572 407.358 166.969 407.631C167.372 407.905 167.893 408.042 168.531 408.042C169.221 408.042 169.775 407.895 170.191 407.602C170.615 407.309 170.826 406.954 170.826 406.538C170.826 405.847 170.312 405.382 169.283 405.141L167.438 404.731C166.415 404.497 165.66 404.129 165.172 403.627C164.69 403.12 164.449 402.482 164.449 401.713C164.449 401.069 164.628 400.502 164.986 400.014C165.351 399.526 165.849 399.148 166.48 398.881C167.118 398.608 167.844 398.471 168.658 398.471C169.843 398.471 170.771 398.728 171.441 399.243C172.118 399.757 172.568 400.437 172.789 401.284ZM179.566 398.608V400.317H173.609V398.608H179.566ZM175.201 396.01H177.32V406.323C177.32 406.824 177.424 407.192 177.633 407.426C177.841 407.654 178.176 407.768 178.639 407.768C178.749 407.768 178.867 407.762 178.99 407.749C179.12 407.736 179.251 407.716 179.381 407.69L179.781 409.448C179.566 409.519 179.332 409.575 179.078 409.614C178.824 409.653 178.57 409.672 178.316 409.672C177.372 409.672 176.617 409.409 176.051 408.881C175.484 408.347 175.201 407.638 175.201 406.752V396.01ZM181.09 409.526V398.608H183.131V400.356H183.248C183.45 399.77 183.801 399.308 184.303 398.969C184.811 398.624 185.383 398.452 186.021 398.452C186.152 398.452 186.305 398.458 186.48 398.471C186.663 398.478 186.809 398.487 186.92 398.5V400.532C186.835 400.506 186.682 400.48 186.461 400.454C186.246 400.428 186.028 400.415 185.807 400.415C185.305 400.415 184.856 400.522 184.459 400.737C184.068 400.945 183.759 401.235 183.531 401.606C183.31 401.971 183.199 402.394 183.199 402.875V409.526H181.09ZM191.012 409.76C190.322 409.76 189.697 409.633 189.137 409.379C188.577 409.119 188.134 408.741 187.809 408.247C187.483 407.752 187.32 407.15 187.32 406.44C187.32 405.821 187.438 405.317 187.672 404.926C187.913 404.529 188.235 404.213 188.639 403.979C189.042 403.745 189.492 403.569 189.986 403.452C190.481 403.334 190.989 403.243 191.51 403.178C192.167 403.107 192.698 403.045 193.102 402.993C193.505 402.941 193.798 402.859 193.98 402.749C194.169 402.631 194.264 402.446 194.264 402.192V402.143C194.264 401.525 194.088 401.046 193.736 400.708C193.391 400.369 192.877 400.2 192.193 400.2C191.484 400.2 190.921 400.356 190.504 400.668C190.094 400.974 189.811 401.323 189.654 401.713L187.652 401.254C187.893 400.59 188.242 400.056 188.697 399.653C189.16 399.243 189.687 398.943 190.279 398.754C190.878 398.566 191.503 398.471 192.154 398.471C192.59 398.471 193.053 398.523 193.541 398.627C194.029 398.725 194.488 398.911 194.918 399.184C195.354 399.451 195.709 399.835 195.982 400.336C196.256 400.838 196.393 401.486 196.393 402.28V409.526H194.312V408.032H194.234C194.104 408.299 193.899 408.566 193.619 408.833C193.346 409.099 192.994 409.321 192.564 409.497C192.135 409.672 191.617 409.76 191.012 409.76ZM191.471 408.061C192.063 408.061 192.568 407.947 192.984 407.719C193.401 407.485 193.72 407.179 193.941 406.801C194.163 406.424 194.273 406.023 194.273 405.6V404.184C194.195 404.256 194.049 404.324 193.834 404.389C193.619 404.454 193.375 404.51 193.102 404.555C192.828 404.601 192.561 404.643 192.301 404.682C192.04 404.715 191.822 404.741 191.646 404.76C191.236 404.819 190.862 404.91 190.523 405.034C190.185 405.151 189.911 405.327 189.703 405.561C189.501 405.789 189.4 406.092 189.4 406.469C189.4 406.997 189.596 407.394 189.986 407.661C190.377 407.928 190.872 408.061 191.471 408.061ZM203.512 398.608V400.317H197.555V398.608H203.512ZM199.146 396.01H201.266V406.323C201.266 406.824 201.37 407.192 201.578 407.426C201.786 407.654 202.122 407.768 202.584 407.768C202.695 407.768 202.812 407.762 202.936 407.749C203.066 407.736 203.196 407.716 203.326 407.69L203.727 409.448C203.512 409.519 203.277 409.575 203.023 409.614C202.77 409.653 202.516 409.672 202.262 409.672C201.318 409.672 200.562 409.409 199.996 408.881C199.43 408.347 199.146 407.638 199.146 406.752V396.01ZM205.035 409.526V398.608H207.145V409.526H205.035ZM206.1 396.928C205.729 396.928 205.413 396.805 205.152 396.557C204.892 396.31 204.762 396.014 204.762 395.668C204.762 395.317 204.892 395.017 205.152 394.77C205.413 394.523 205.729 394.399 206.1 394.399C206.464 394.399 206.777 394.523 207.037 394.77C207.304 395.017 207.438 395.317 207.438 395.668C207.438 396.014 207.304 396.31 207.037 396.557C206.777 396.805 206.464 396.928 206.1 396.928ZM213.756 409.75C212.734 409.75 211.839 409.516 211.07 409.047C210.309 408.579 209.716 407.921 209.293 407.075C208.876 406.228 208.668 405.245 208.668 404.125C208.668 402.993 208.876 402.003 209.293 401.157C209.716 400.304 210.309 399.643 211.07 399.174C211.839 398.706 212.734 398.471 213.756 398.471C214.785 398.471 215.68 398.706 216.441 399.174C217.203 399.643 217.796 400.304 218.219 401.157C218.642 402.003 218.854 402.993 218.854 404.125C218.854 405.245 218.642 406.228 218.219 407.075C217.796 407.921 217.203 408.579 216.441 409.047C215.68 409.516 214.785 409.75 213.756 409.75ZM213.756 407.963C214.426 407.963 214.98 407.788 215.416 407.436C215.852 407.084 216.174 406.619 216.383 406.04C216.598 405.454 216.705 404.816 216.705 404.125C216.705 403.422 216.598 402.778 216.383 402.192C216.174 401.606 215.852 401.137 215.416 400.786C214.98 400.434 214.426 400.258 213.756 400.258C213.092 400.258 212.542 400.434 212.105 400.786C211.676 401.137 211.354 401.606 211.139 402.192C210.924 402.778 210.816 403.422 210.816 404.125C210.816 404.816 210.924 405.454 211.139 406.04C211.354 406.619 211.676 407.084 212.105 407.436C212.542 407.788 213.092 407.963 213.756 407.963ZM222.496 403.051V409.526H220.387V398.608H222.438V400.405H222.584C222.831 399.812 223.219 399.344 223.746 398.999C224.273 398.647 224.951 398.471 225.777 398.471C226.52 398.471 227.167 398.627 227.721 398.94C228.281 399.246 228.714 399.705 229.02 400.317C229.332 400.929 229.488 401.687 229.488 402.592V409.526H227.379V402.846C227.379 402.058 227.171 401.44 226.754 400.991C226.337 400.535 225.771 400.307 225.055 400.307C224.566 400.307 224.127 400.418 223.736 400.639C223.352 400.854 223.049 401.163 222.828 401.567C222.607 401.971 222.496 402.465 222.496 403.051ZM236.129 409.526V394.975H241.324C242.451 394.975 243.385 395.183 244.127 395.6C244.869 396.01 245.426 396.573 245.797 397.29C246.168 397.999 246.354 398.8 246.354 399.692C246.354 400.584 246.168 401.388 245.797 402.104C245.426 402.814 244.866 403.377 244.117 403.793C243.375 404.204 242.438 404.409 241.305 404.409H237.75V402.553H241.1C241.822 402.553 242.405 402.43 242.848 402.182C243.297 401.935 243.622 401.596 243.824 401.167C244.033 400.73 244.137 400.239 244.137 399.692C244.137 399.139 244.033 398.65 243.824 398.227C243.622 397.797 243.297 397.462 242.848 397.221C242.398 396.98 241.812 396.86 241.09 396.86H238.326V409.526H236.129ZM250.973 409.76C250.283 409.76 249.658 409.633 249.098 409.379C248.538 409.119 248.095 408.741 247.77 408.247C247.444 407.752 247.281 407.15 247.281 406.44C247.281 405.821 247.398 405.317 247.633 404.926C247.874 404.529 248.196 404.213 248.6 403.979C249.003 403.745 249.452 403.569 249.947 403.452C250.442 403.334 250.95 403.243 251.471 403.178C252.128 403.107 252.659 403.045 253.062 402.993C253.466 402.941 253.759 402.859 253.941 402.749C254.13 402.631 254.225 402.446 254.225 402.192V402.143C254.225 401.525 254.049 401.046 253.697 400.708C253.352 400.369 252.838 400.2 252.154 400.2C251.445 400.2 250.882 400.356 250.465 400.668C250.055 400.974 249.771 401.323 249.615 401.713L247.613 401.254C247.854 400.59 248.202 400.056 248.658 399.653C249.12 399.243 249.648 398.943 250.24 398.754C250.839 398.566 251.464 398.471 252.115 398.471C252.551 398.471 253.014 398.523 253.502 398.627C253.99 398.725 254.449 398.911 254.879 399.184C255.315 399.451 255.67 399.835 255.943 400.336C256.217 400.838 256.354 401.486 256.354 402.28V409.526H254.273V408.032H254.195C254.065 408.299 253.86 408.566 253.58 408.833C253.307 409.099 252.955 409.321 252.525 409.497C252.096 409.672 251.578 409.76 250.973 409.76ZM251.432 408.061C252.024 408.061 252.529 407.947 252.945 407.719C253.362 407.485 253.681 407.179 253.902 406.801C254.124 406.424 254.234 406.023 254.234 405.6V404.184C254.156 404.256 254.01 404.324 253.795 404.389C253.58 404.454 253.336 404.51 253.062 404.555C252.789 404.601 252.522 404.643 252.262 404.682C252.001 404.715 251.783 404.741 251.607 404.76C251.197 404.819 250.823 404.91 250.484 405.034C250.146 405.151 249.872 405.327 249.664 405.561C249.462 405.789 249.361 406.092 249.361 406.469C249.361 406.997 249.557 407.394 249.947 407.661C250.338 407.928 250.833 408.061 251.432 408.061ZM262.945 413.842C261.643 413.842 260.618 413.598 259.869 413.11C259.12 412.622 258.603 412.042 258.316 411.372L260.133 410.62C260.263 410.828 260.436 411.049 260.65 411.284C260.872 411.518 261.168 411.717 261.539 411.879C261.91 412.042 262.389 412.124 262.975 412.124C263.775 412.124 264.439 411.928 264.967 411.538C265.494 411.153 265.758 410.535 265.758 409.682V407.543H265.611C265.494 407.771 265.315 408.028 265.074 408.315C264.833 408.595 264.505 408.839 264.088 409.047C263.671 409.256 263.128 409.36 262.457 409.36C261.598 409.36 260.823 409.158 260.133 408.754C259.449 408.344 258.902 407.745 258.492 406.958C258.089 406.163 257.887 405.187 257.887 404.028C257.887 402.869 258.085 401.876 258.482 401.049C258.886 400.216 259.433 399.578 260.123 399.135C260.813 398.693 261.598 398.471 262.477 398.471C263.154 398.471 263.701 398.585 264.117 398.813C264.54 399.034 264.869 399.295 265.104 399.594C265.338 399.894 265.52 400.157 265.65 400.385H265.807V398.608H267.867V409.77C267.867 410.708 267.649 411.476 267.213 412.075C266.783 412.674 266.197 413.116 265.455 413.403C264.713 413.696 263.876 413.842 262.945 413.842ZM262.926 407.592C263.844 407.592 264.547 407.277 265.035 406.645C265.53 406.007 265.777 405.125 265.777 403.999C265.777 403.263 265.67 402.618 265.455 402.065C265.24 401.505 264.921 401.069 264.498 400.756C264.075 400.437 263.551 400.278 262.926 400.278C262.288 400.278 261.754 400.444 261.324 400.776C260.901 401.101 260.582 401.547 260.367 402.114C260.152 402.674 260.045 403.302 260.045 403.999C260.045 404.708 260.152 405.336 260.367 405.883C260.582 406.424 260.904 406.844 261.334 407.143C261.77 407.443 262.301 407.592 262.926 407.592ZM274.596 409.75C273.528 409.75 272.604 409.519 271.822 409.057C271.041 408.595 270.439 407.944 270.016 407.104C269.599 406.258 269.391 405.271 269.391 404.145C269.391 403.025 269.596 402.039 270.006 401.186C270.423 400.333 271.005 399.669 271.754 399.194C272.509 398.712 273.395 398.471 274.41 398.471C275.029 398.471 275.628 398.572 276.207 398.774C276.786 398.976 277.307 399.295 277.77 399.731C278.232 400.167 278.596 400.734 278.863 401.43C279.137 402.127 279.273 402.967 279.273 403.95V404.711H270.592V403.12H278.18L277.193 403.647C277.193 402.976 277.089 402.384 276.881 401.87C276.673 401.355 276.36 400.955 275.943 400.668C275.533 400.375 275.022 400.229 274.41 400.229C273.798 400.229 273.274 400.375 272.838 400.668C272.408 400.961 272.079 401.349 271.852 401.831C271.624 402.312 271.51 402.84 271.51 403.413V404.497C271.51 405.245 271.64 405.88 271.9 406.401C272.161 406.922 272.522 407.319 272.984 407.592C273.453 407.866 273.997 408.002 274.615 408.002C275.019 408.002 275.383 407.944 275.709 407.827C276.041 407.709 276.327 407.534 276.568 407.299C276.809 407.065 276.992 406.775 277.115 406.43L279.127 406.811C278.964 407.397 278.678 407.911 278.268 408.354C277.857 408.797 277.34 409.142 276.715 409.389C276.096 409.63 275.39 409.75 274.596 409.75ZM283.697 390.288V414.213H281.793V390.288H283.697Z" fill="#062037"/>
<g filter="url(#filter2_dd_1780_9030)">
<rect x="496" y="374.526" width="56" height="56" rx="10" fill="#5BD473" shape-rendering="crispEdges"/>
<path d="M536 390.526L527.333 414.526C527.275 414.654 527.181 414.762 527.063 414.838C526.945 414.913 526.807 414.954 526.667 414.954C526.526 414.954 526.389 414.913 526.271 414.838C526.153 414.762 526.059 414.654 526 414.526L521.333 405.193L512 400.526C511.872 400.467 511.764 400.373 511.688 400.255C511.613 400.137 511.572 400 511.572 399.859C511.572 399.719 511.613 399.581 511.688 399.463C511.764 399.345 511.872 399.251 512 399.193L536 390.526Z" fill="white"/>
</g>
</g>
<rect x="20.5" y="361.026" width="547" height="83" rx="9.5" stroke="#33C24F"/>
</g>
<path fill-rule="evenodd" clip-rule="evenodd" d="M523.912 341.949C523.803 341.905 523.723 341.441 523.584 340.04C522.943 333.546 521.701 327.713 519.924 322.842C519.322 321.192 517.608 317.256 516.901 315.9C513.485 309.342 508.624 303.692 502.718 299.413C500.461 297.777 498.42 296.542 495.987 295.339C494.232 294.472 489.303 292.595 487.767 292.209C485.616 291.67 485.044 291.586 484.804 291.774C484.674 291.877 484.029 293.401 481.858 298.744C480.114 303.038 479.03 305.623 478.946 305.693C478.605 305.977 478.472 305.736 477.577 303.215C475.728 298.008 468.243 277.025 467.768 275.717C467.472 274.902 467.422 274.548 467.575 274.339C467.637 274.253 469.022 273.671 470.653 273.045C472.284 272.418 474.709 271.474 476.041 270.946C477.373 270.418 479.691 269.508 481.192 268.924C489.569 265.666 491.932 264.738 493.719 264.006C495.845 263.135 496.077 263.096 496.094 263.605C496.1 263.792 495.426 265.569 493.452 270.573C491.995 274.268 490.809 277.314 490.809 277.314C490.809 277.314 506.445 283.987 513.5 291.774C526.825 306.481 527.5 325 524.289 341.434C524.084 341.942 524.041 342.001 523.912 341.949Z" fill="#5BD473"/>
<defs>
<filter id="filter0_d_1780_9030" x="82.5253" y="50.5994" width="376.392" height="274.295" filterUnits="userSpaceOnUse" color-interpolation-filters="sRGB">
<feFlood flood-opacity="0" result="BackgroundImageFix"/>
<feColorMatrix in="SourceAlpha" type="matrix" values="0 0 0 0 0 0 0 0 0 0 0 0 0 0 0 0 0 0 127 0" result="hardAlpha"/>
<feOffset dx="4.44213" dy="4.44213"/>
<feComposite in2="hardAlpha" operator="out"/>
<feColorMatrix type="matrix" values="0 0 0 0 0.825 0 0 0 0 0.825 0 0 0 0 0.825 0 0 0 1 0"/>
<feBlend mode="normal" in2="BackgroundImageFix" result="effect1_dropShadow_1780_9030"/>
<feBlend mode="normal" in="SourceGraphic" in2="effect1_dropShadow_1780_9030" result="shape"/>
</filter>
<filter id="filter1_d_1780_9030" x="16" y="356.526" width="556" height="92" filterUnits="userSpaceOnUse" color-interpolation-filters="sRGB">
<feFlood flood-opacity="0" result="BackgroundImageFix"/>
<feColorMatrix in="SourceAlpha" type="matrix" values="0 0 0 0 0 0 0 0 0 0 0 0 0 0 0 0 0 0 127 0" result="hardAlpha"/>
<feMorphology radius="4" operator="dilate" in="SourceAlpha" result="effect1_dropShadow_1780_9030"/>
<feOffset/>
<feComposite in2="hardAlpha" operator="out"/>
<feColorMatrix type="matrix" values="0 0 0 0 0.2 0 0 0 0 0.760784 0 0 0 0 0.309804 0 0 0 0.12 0"/>
<feBlend mode="normal" in2="BackgroundImageFix" result="effect1_dropShadow_1780_9030"/>
<feBlend mode="normal" in="SourceGraphic" in2="effect1_dropShadow_1780_9030" result="shape"/>
</filter>
<filter id="filter2_dd_1780_9030" x="438" y="324.526" width="172" height="172" filterUnits="userSpaceOnUse" color-interpolation-filters="sRGB">
<feFlood flood-opacity="0" result="BackgroundImageFix"/>
<feColorMatrix in="SourceAlpha" type="matrix" values="0 0 0 0 0 0 0 0 0 0 0 0 0 0 0 0 0 0 127 0" result="hardAlpha"/>
<feOffset dy="8"/>
<feGaussianBlur stdDeviation="6"/>
<feComposite in2="hardAlpha" operator="out"/>
<feColorMatrix type="matrix" values="0 0 0 0 0.2 0 0 0 0 0.760784 0 0 0 0 0.309804 0 0 0 0.32 0"/>
<feBlend mode="normal" in2="BackgroundImageFix" result="effect1_dropShadow_1780_9030"/>
<feColorMatrix in="SourceAlpha" type="matrix" values="0 0 0 0 0 0 0 0 0 0 0 0 0 0 0 0 0 0 127 0" result="hardAlpha"/>
<feOffset dy="8"/>
<feGaussianBlur stdDeviation="29"/>
<feComposite in2="hardAlpha" operator="out"/>
<feColorMatrix type="matrix" values="0 0 0 0 0.2 0 0 0 0 0.760784 0 0 0 0 0.309804 0 0 0 0.16 0"/>
<feBlend mode="normal" in2="effect1_dropShadow_1780_9030" result="effect2_dropShadow_1780_9030"/>
<feBlend mode="normal" in="SourceGraphic" in2="effect2_dropShadow_1780_9030" result="shape"/>
</filter>
<clipPath id="clip0_1780_9030">
<rect x="20" y="360.526" width="548" height="84" rx="10" fill="white"/>
</clipPath>
</defs>
</svg>
