<svg width="384" height="152" viewBox="0 0 384 152" fill="none" xmlns="http://www.w3.org/2000/svg">
<path fill-rule="evenodd" clip-rule="evenodd" d="M190.275 32.0689C188.398 32.203 185.632 32.684 185.383 32.9197C185.295 33.0036 185.067 33.0718 184.876 33.0713C184.443 33.0703 182.015 33.9274 181.939 34.1082C181.908 34.1815 181.766 34.2415 181.624 34.2415C181.332 34.2415 179.66 35.0929 179.573 35.2856C179.542 35.3546 179.445 35.4109 179.358 35.4109C179.271 35.4109 178.878 35.6176 178.485 35.8704C174.358 38.5241 171.202 42.4566 169.537 47.0216C168.434 50.0449 168 52.5448 168 55.8759C168 59.0744 168.285 60.8566 169.336 64.2409C169.748 65.5689 171.063 68.3209 171.532 68.8362C171.664 68.9813 171.772 69.1727 171.772 69.2616C171.772 69.4438 171.862 69.5685 173.288 71.3553C175.207 73.7608 177.798 75.856 180.788 77.421C182.118 78.1171 184 78.8467 184.466 78.8467C184.641 78.8467 184.783 78.9143 184.783 78.9972C184.783 79.146 185.116 79.2241 188.079 79.7697C190.1 80.1422 196.312 80.0432 197.88 79.6137C200.46 78.9067 202.9 78.046 203.006 77.8054C203.037 77.7349 203.151 77.6773 203.26 77.6773C203.694 77.6773 207.087 75.6725 207.742 75.0293C207.896 74.8777 208.242 74.5838 208.51 74.3763C209.376 73.7061 210.976 72.18 210.976 72.0241C210.976 71.9409 209.406 70.3408 207.488 68.4685C205.569 66.5961 203.879 64.9327 203.732 64.7718C203.586 64.6111 203.38 64.4795 203.275 64.4795C203.17 64.4795 202.567 64.9309 201.934 65.4827C200.164 67.0281 199.252 67.5809 196.697 68.658C196.147 68.8897 193.386 69.3251 192.472 69.3239C191.353 69.3226 188.609 68.8803 187.656 68.5476C186.856 68.2681 185.434 67.6294 185.29 67.4851C185.244 67.4381 184.864 67.1807 184.445 66.9125C183.519 66.3188 181.791 64.6014 181.129 63.6164C180.666 62.9261 180.231 62.0218 179.658 60.5535C179.309 59.6583 178.868 57.0977 178.868 55.9594C178.868 54.792 179.313 52.2884 179.717 51.1826C180.588 48.7972 182.323 46.538 184.303 45.2134C185.14 44.6531 187.294 43.6594 188.163 43.4324C190.492 42.8241 194.219 42.8129 196.289 43.4078C198.317 43.9907 200.667 45.3509 202.409 46.9503C202.799 47.3088 203.194 47.6032 203.287 47.6042C203.38 47.6054 205.164 45.9115 207.251 43.8401L211.045 40.0741L209.955 39.0298C208.795 37.9194 206.541 36.0792 206.341 36.0792C206.275 36.0792 205.903 35.8662 205.515 35.6059C204.725 35.0767 203.752 34.5541 202.865 34.1825C202.54 34.0462 201.909 33.7811 201.464 33.5932C201.018 33.4054 200.372 33.2014 200.027 33.1401C199.683 33.0788 199.325 32.9699 199.232 32.8982C199.139 32.8265 198.759 32.7168 198.387 32.6544C198.015 32.5921 197.141 32.4394 196.443 32.3153C194.766 32.0166 192.356 31.9202 190.275 32.0689ZM189.684 48.2206C188.35 48.6383 187.236 49.2509 186.397 50.0287C185.344 51.0045 184.108 53.0161 184.108 53.7523C184.108 53.9187 184.02 54.1409 183.914 54.246C183.609 54.5481 183.679 57.1048 184.022 58.1485C184.721 60.2777 185.828 61.7539 187.559 62.8638C188.913 63.7325 189.787 64.0025 191.543 64.0947C192.974 64.1697 193.295 64.13 194.5 63.727C197.075 62.8663 198.815 61.1474 199.776 58.5154C200.12 57.5724 200.201 54.1615 199.889 53.7716C199.785 53.6426 199.647 53.317 199.582 53.0482C199.469 52.5794 198.625 51.2309 198.006 50.5297C197.167 49.5792 195.523 48.6005 194.089 48.1981C192.966 47.8828 190.727 47.8944 189.684 48.2206Z" fill="#6A779B"/>
<path fill-rule="evenodd" clip-rule="evenodd" d="M155.352 33.296C152.7 34.4776 151.05 35.7702 150.162 37.3632C149.709 38.1768 149.412 39.6471 149.507 40.6121L149.561 41.1661L150.176 41.1163C152.266 40.9472 154.104 39.5748 155.11 37.4311C155.55 36.4931 156.4 33.352 156.312 32.9855C156.294 32.9098 156.018 32.9993 155.352 33.296ZM146.08 35.8523C144.992 38.0335 144.581 39.4088 144.581 40.8625C144.582 42.5134 145.043 43.6827 146.216 45.0053L146.537 45.3673L146.912 45.0053C148.227 43.7373 148.9 42.0706 148.78 40.3831C148.718 39.5084 148.518 38.6454 148.126 37.5643C147.798 36.6583 146.877 34.7729 146.742 34.7308C146.693 34.7157 146.395 35.2203 146.08 35.8523ZM153.781 40.8625C153.203 41.0555 152.429 41.3607 152.061 41.5408C151.693 41.7207 151.372 41.868 151.348 41.868C151.324 41.868 150.95 42.1009 150.516 42.3856C149.394 43.1221 148.513 44.067 148.049 45.0325C147.619 45.9269 147.493 46.4414 147.484 47.3382L147.477 48.0219L148.245 47.9973C149.815 47.9469 150.969 47.485 152.048 46.4748C153.163 45.4308 153.975 43.9998 154.713 41.7803C154.934 41.1156 155.115 40.5558 155.115 40.5362C155.115 40.4488 154.76 40.5356 153.781 40.8625ZM142.11 43.6959C141.647 45.3732 141.522 46.1014 141.48 47.3784C141.45 48.2819 141.471 48.7301 141.563 49.1624C141.887 50.6751 142.668 51.9139 143.871 52.82C144.204 53.0709 144.325 53.1626 144.417 53.1389C144.47 53.1253 144.512 53.0734 144.58 52.9917C144.937 52.5579 145.581 51.1711 145.709 50.5559C146.066 48.8516 145.576 47.0777 144.153 44.9248C143.61 44.1043 142.6 42.8244 142.458 42.7773C142.409 42.7609 142.26 43.154 142.11 43.6959ZM150.265 48.2367C147.868 49.8535 146.757 50.9312 146.004 52.3731C145.525 53.2894 145.314 54.1171 145.314 55.0775C145.315 55.931 145.535 57.0718 145.7 57.0718C145.914 57.0718 147.073 56.6525 147.522 56.4124C149.493 55.3595 150.534 53.4526 150.871 50.2743C151 49.0648 151.031 47.8186 150.932 47.8244C150.899 47.8263 150.599 48.0119 150.265 48.2367ZM139.192 51.8234C139.192 52.2117 139.409 54.0831 139.521 54.6585C139.687 55.5141 140.099 56.7173 140.472 57.4338C140.768 58.0014 141.006 58.3159 141.576 58.8901C142.391 59.7103 142.978 60.0765 144.028 60.4204L144.068 60.4336C144.438 60.555 144.618 60.6138 144.725 60.551C144.827 60.4921 144.865 60.3261 144.94 60.0044L144.948 59.9678C145.088 59.3652 145.082 57.6214 144.938 57.112C144.506 55.5814 143.402 54.2051 141.566 52.9101C140.675 52.2815 139.426 51.5212 139.285 51.5212C139.231 51.5212 139.192 51.6502 139.192 51.8234ZM150.052 55.2417C148.323 57.009 147.198 58.6931 146.789 60.1286C146.546 60.9799 146.489 62.2653 146.664 62.9442C146.827 63.5731 147.055 64.2053 147.277 64.6378C147.357 64.7938 147.398 64.8734 147.459 64.8939C147.522 64.9151 147.607 64.8719 147.782 64.7837C148.615 64.3619 149.492 63.6267 150.071 62.8637C150.408 62.4197 150.882 61.3512 151.034 60.6917C151.233 59.8328 151.221 58.0698 151.007 56.6696C150.808 55.3669 150.676 54.7389 150.6 54.7389C150.569 54.7389 150.322 54.9652 150.052 55.2417ZM138.266 60.0616C138.452 60.6579 139.455 62.3936 140.145 63.3127C141.521 65.1443 142.94 66.0737 144.735 66.3182C145.403 66.4092 146.658 66.3308 146.789 66.1901C146.872 66.1011 146.615 64.886 146.387 64.2872C146.152 63.6707 145.522 62.7434 145.021 62.2772C143.692 61.0399 141.572 60.2542 138.679 59.9272C138.212 59.8744 138.208 59.8759 138.266 60.0616ZM151.613 62.4436C150.469 63.871 149.368 65.8633 149.047 67.087C148.593 68.8149 148.842 70.4248 149.793 71.9236L150.117 72.435L150.465 72.1968C151.652 71.3837 152.495 70.2756 152.947 68.9315C153.115 68.4334 153.134 68.2286 153.131 67.0065C153.128 65.4856 152.999 64.7633 152.385 62.8256L152.079 61.8623L151.613 62.4436ZM139.435 66.5144C139.435 66.5451 139.655 66.8961 139.924 67.2943C141.388 69.4614 143.02 71.0317 144.469 71.6674C145.098 71.9434 145.969 72.1147 146.743 72.1147C147.518 72.1147 148.644 71.8996 148.705 71.7397C148.728 71.6817 148.666 71.3722 148.568 71.052C148.248 70.0035 147.764 69.1951 147.041 68.5026C145.991 67.4959 144.821 67.0144 142.627 66.685C141.727 66.5498 139.435 66.4274 139.435 66.5144ZM146.062 72.7571C145.001 72.843 143.452 73.0834 143.355 73.1775C143.244 73.284 145.043 75.0026 146.073 75.7746C146.936 76.4217 147.848 76.8948 148.81 77.1949C149.619 77.4468 151.161 77.4619 151.961 77.2256C152.491 77.0687 153.418 76.6567 153.418 76.5776C153.418 76.5539 153.311 76.3246 153.181 76.0679C152.312 74.3556 150.753 73.1958 148.851 72.8469C148.22 72.7312 146.906 72.6888 146.062 72.7571ZM153.92 77.876C153.924 77.3621 154.391 76.8097 154.895 76.7244C155.551 76.6132 156.212 77.0515 156.331 77.6766C156.43 78.1974 156.003 78.8329 155.444 78.9981C154.735 79.207 153.916 78.6032 153.92 77.876ZM154.336 67.6267C152.646 70.5106 152.322 72.6628 153.295 74.5593C153.459 74.8807 153.751 75.3216 153.943 75.5393L154.292 75.935L154.565 75.7133C155.276 75.1371 156.018 74.079 156.292 73.2508C156.605 72.3056 156.522 70.7875 156.083 69.3895C155.848 68.6434 155.055 66.7471 154.962 66.7083C154.923 66.6923 154.642 67.1056 154.336 67.6267Z" fill="#6A779B"/>
<path fill-rule="evenodd" clip-rule="evenodd" d="M228.648 33.296C231.3 34.4776 232.95 35.7702 233.838 37.3632C234.291 38.1768 234.588 39.6471 234.493 40.6121L234.439 41.1661L233.824 41.1163C231.734 40.9472 229.896 39.5748 228.89 37.4311C228.45 36.4931 227.6 33.352 227.688 32.9855C227.706 32.9098 227.982 32.9993 228.648 33.296ZM237.92 35.8523C239.008 38.0335 239.419 39.4088 239.419 40.8625C239.418 42.5134 238.957 43.6827 237.784 45.0053L237.463 45.3673L237.088 45.0053C235.773 43.7373 235.1 42.0706 235.22 40.3831C235.282 39.5084 235.482 38.6454 235.874 37.5643C236.202 36.6583 237.123 34.7729 237.258 34.7308C237.307 34.7157 237.605 35.2203 237.92 35.8523ZM230.219 40.8625C230.797 41.0555 231.571 41.3607 231.939 41.5408C232.307 41.7207 232.628 41.868 232.652 41.868C232.676 41.868 233.05 42.1009 233.484 42.3856C234.606 43.1221 235.487 44.067 235.951 45.0325C236.381 45.9269 236.507 46.4414 236.516 47.3382L236.523 48.0219L235.755 47.9973C234.185 47.9469 233.031 47.485 231.952 46.4748C230.837 45.4308 230.025 43.9998 229.287 41.7803C229.066 41.1156 228.885 40.5558 228.885 40.5362C228.885 40.4488 229.24 40.5356 230.219 40.8625ZM241.89 43.6959C242.353 45.3732 242.478 46.1014 242.52 47.3784C242.55 48.2819 242.529 48.7301 242.437 49.1624C242.113 50.6751 241.332 51.9139 240.129 52.82C239.796 53.0709 239.675 53.1626 239.583 53.1389C239.53 53.1253 239.488 53.0734 239.42 52.9917C239.063 52.5579 238.419 51.1711 238.291 50.5559C237.934 48.8516 238.424 47.0777 239.847 44.9248C240.39 44.1043 241.4 42.8244 241.542 42.7773C241.591 42.7609 241.74 43.154 241.89 43.6959ZM233.735 48.2367C236.132 49.8535 237.243 50.9312 237.996 52.3731C238.475 53.2894 238.686 54.1171 238.686 55.0775C238.685 55.931 238.465 57.0718 238.3 57.0718C238.086 57.0718 236.927 56.6525 236.478 56.4124C234.507 55.3595 233.466 53.4526 233.129 50.2743C233 49.0648 232.969 47.8186 233.068 47.8244C233.101 47.8263 233.401 48.0119 233.735 48.2367ZM244.808 51.8234C244.808 52.2117 244.591 54.0831 244.479 54.6585C244.313 55.5141 243.901 56.7173 243.528 57.4338C243.232 58.0014 242.994 58.3159 242.424 58.8901C241.609 59.7103 241.022 60.0765 239.972 60.4204L239.932 60.4336C239.562 60.555 239.382 60.6138 239.275 60.551C239.173 60.4921 239.135 60.3261 239.06 60.0044L239.052 59.9678C238.912 59.3652 238.918 57.6214 239.062 57.112C239.494 55.5814 240.598 54.2051 242.434 52.9101C243.325 52.2815 244.574 51.5212 244.715 51.5212C244.769 51.5212 244.808 51.6502 244.808 51.8234ZM233.948 55.2417C235.677 57.009 236.802 58.6931 237.211 60.1286C237.454 60.9799 237.511 62.2653 237.336 62.9442C237.173 63.5731 236.945 64.2053 236.723 64.6378C236.643 64.7938 236.602 64.8734 236.541 64.8939C236.478 64.9151 236.393 64.8719 236.218 64.7837C235.385 64.3619 234.508 63.6267 233.929 62.8637C233.592 62.4197 233.118 61.3512 232.966 60.6917C232.767 59.8328 232.779 58.0698 232.993 56.6696C233.192 55.3669 233.324 54.7389 233.4 54.7389C233.431 54.7389 233.678 54.9652 233.948 55.2417ZM245.734 60.0616C245.548 60.6579 244.545 62.3936 243.855 63.3127C242.479 65.1443 241.06 66.0737 239.265 66.3182C238.597 66.4092 237.342 66.3308 237.211 66.1901C237.128 66.1011 237.385 64.886 237.613 64.2872C237.848 63.6707 238.478 62.7434 238.979 62.2772C240.308 61.0399 242.428 60.2542 245.321 59.9272C245.788 59.8744 245.792 59.8759 245.734 60.0616ZM232.387 62.4436C233.531 63.871 234.632 65.8633 234.953 67.087C235.407 68.8149 235.158 70.4248 234.207 71.9236L233.883 72.435L233.535 72.1968C232.348 71.3837 231.505 70.2756 231.053 68.9315C230.885 68.4334 230.866 68.2286 230.869 67.0065C230.872 65.4856 231.001 64.7633 231.615 62.8256L231.921 61.8623L232.387 62.4436ZM244.565 66.5144C244.565 66.5451 244.345 66.8961 244.076 67.2943C242.612 69.4614 240.98 71.0317 239.531 71.6674C238.902 71.9434 238.031 72.1147 237.257 72.1147C236.482 72.1147 235.356 71.8996 235.295 71.7397C235.272 71.6817 235.334 71.3722 235.432 71.052C235.752 70.0035 236.236 69.1951 236.959 68.5026C238.009 67.4959 239.179 67.0144 241.373 66.685C242.273 66.5498 244.565 66.4274 244.565 66.5144ZM237.938 72.7571C238.999 72.843 240.548 73.0834 240.645 73.1775C240.756 73.284 238.957 75.0026 237.927 75.7746C237.064 76.4217 236.152 76.8948 235.19 77.1949C234.381 77.4468 232.839 77.4619 232.039 77.2256C231.509 77.0687 230.582 76.6567 230.582 76.5776C230.582 76.5539 230.689 76.3246 230.819 76.0679C231.688 74.3556 233.247 73.1958 235.149 72.8469C235.78 72.7312 237.094 72.6888 237.938 72.7571ZM230.08 77.876C230.076 77.3621 229.609 76.8097 229.105 76.7244C228.449 76.6132 227.788 77.0515 227.669 77.6766C227.57 78.1974 227.997 78.8329 228.556 78.9981C229.265 79.207 230.084 78.6032 230.08 77.876ZM229.664 67.6267C231.354 70.5106 231.678 72.6628 230.705 74.5593C230.541 74.8807 230.249 75.3216 230.057 75.5393L229.708 75.935L229.435 75.7133C228.724 75.1371 227.982 74.079 227.708 73.2508C227.395 72.3056 227.478 70.7875 227.917 69.3895C228.152 68.6434 228.945 66.7471 229.038 66.7083C229.077 66.6923 229.358 67.1056 229.664 67.6267Z" fill="#6A779B"/>
<path d="M100.017 108H110.017V109.32H105.717V122H104.317V109.32H100.017V108ZM118.401 120.74C117.374 121.74 116.134 122.24 114.681 122.24C113.201 122.24 111.954 121.74 110.941 120.74C109.928 119.727 109.421 118.48 109.421 117C109.421 115.52 109.928 114.28 110.941 113.28C111.954 112.267 113.201 111.76 114.681 111.76C116.148 111.76 117.388 112.267 118.401 113.28C119.428 114.28 119.941 115.52 119.941 117C119.941 118.467 119.428 119.713 118.401 120.74ZM111.881 119.82C112.641 120.58 113.574 120.96 114.681 120.96C115.788 120.96 116.721 120.58 117.481 119.82C118.241 119.033 118.621 118.093 118.621 117C118.621 115.893 118.241 114.96 117.481 114.2C116.721 113.427 115.788 113.04 114.681 113.04C113.574 113.04 112.641 113.427 111.881 114.2C111.121 114.96 110.741 115.893 110.741 117C110.741 118.093 111.121 119.033 111.881 119.82ZM127.51 111.76C128.937 111.76 130.15 112.267 131.15 113.28C132.163 114.293 132.67 115.533 132.67 117C132.67 118.467 132.163 119.707 131.15 120.72C130.15 121.733 128.937 122.24 127.51 122.24C125.737 122.24 124.39 121.507 123.47 120.04V126H122.15V112H123.47V113.96C124.39 112.493 125.737 111.76 127.51 111.76ZM124.61 119.82C125.37 120.58 126.303 120.96 127.41 120.96C128.517 120.96 129.45 120.58 130.21 119.82C130.97 119.033 131.35 118.093 131.35 117C131.35 115.893 130.97 114.96 130.21 114.2C129.45 113.427 128.517 113.04 127.41 113.04C126.303 113.04 125.37 113.427 124.61 114.2C123.85 114.96 123.47 115.893 123.47 117C123.47 118.093 123.85 119.033 124.61 119.82ZM139.865 117.24V108H141.265V117.24C141.265 118.373 141.598 119.267 142.265 119.92C142.945 120.56 143.878 120.88 145.065 120.88C146.252 120.88 147.178 120.56 147.845 119.92C148.525 119.267 148.865 118.373 148.865 117.24V108H150.265V117.24C150.265 118.76 149.785 119.973 148.825 120.88C147.852 121.787 146.598 122.24 145.065 122.24C143.532 122.24 142.278 121.787 141.305 120.88C140.345 119.973 139.865 118.76 139.865 117.24ZM154.01 114.62C154.01 115.393 154.697 115.96 156.07 116.32C156.457 116.413 156.71 116.48 156.83 116.52C156.95 116.547 157.184 116.62 157.53 116.74C157.89 116.847 158.137 116.94 158.27 117.02C158.417 117.1 158.617 117.227 158.87 117.4C159.124 117.56 159.304 117.727 159.41 117.9C159.517 118.06 159.617 118.273 159.71 118.54C159.804 118.793 159.85 119.067 159.85 119.36C159.85 120.213 159.51 120.907 158.83 121.44C158.177 121.973 157.31 122.24 156.23 122.24C155.297 122.24 154.49 122.033 153.81 121.62C153.13 121.193 152.65 120.633 152.37 119.94L153.49 119.28C153.677 119.8 154.01 120.213 154.49 120.52C154.984 120.813 155.564 120.96 156.23 120.96C156.91 120.96 157.464 120.827 157.89 120.56C158.317 120.293 158.53 119.893 158.53 119.36C158.53 118.587 157.844 118.02 156.47 117.66C156.084 117.567 155.83 117.507 155.71 117.48C155.59 117.44 155.35 117.367 154.99 117.26C154.644 117.14 154.397 117.04 154.25 116.96C154.117 116.88 153.924 116.76 153.67 116.6C153.417 116.427 153.237 116.26 153.13 116.1C153.024 115.927 152.924 115.713 152.83 115.46C152.737 115.193 152.69 114.913 152.69 114.62C152.69 113.807 153.01 113.127 153.65 112.58C154.317 112.033 155.137 111.76 156.11 111.76C156.91 111.76 157.617 111.94 158.23 112.3C158.857 112.66 159.317 113.16 159.61 113.8L158.51 114.44C158.137 113.507 157.337 113.04 156.11 113.04C155.51 113.04 155.01 113.18 154.61 113.46C154.21 113.74 154.01 114.127 154.01 114.62ZM166.379 111.76C167.873 111.76 169.066 112.287 169.959 113.34C170.879 114.38 171.339 115.613 171.339 117.04C171.339 117.107 171.326 117.313 171.299 117.66H162.519C162.653 118.66 163.079 119.46 163.799 120.06C164.519 120.66 165.419 120.96 166.499 120.96C168.019 120.96 169.093 120.393 169.719 119.26L170.879 119.94C170.439 120.66 169.833 121.227 169.059 121.64C168.299 122.04 167.439 122.24 166.479 122.24C164.906 122.24 163.626 121.747 162.639 120.76C161.653 119.773 161.159 118.52 161.159 117C161.159 115.493 161.646 114.247 162.619 113.26C163.593 112.26 164.846 111.76 166.379 111.76ZM166.379 113.04C165.339 113.04 164.466 113.347 163.759 113.96C163.066 114.573 162.653 115.38 162.519 116.38H169.979C169.833 115.313 169.426 114.493 168.759 113.92C168.066 113.333 167.273 113.04 166.379 113.04ZM174.759 112V113.66C175.372 112.447 176.426 111.84 177.919 111.84V113.12C176.959 113.12 176.192 113.4 175.619 113.96C175.046 114.507 174.759 115.333 174.759 116.44V122H173.439V112H174.759ZM186.328 115.6V120.68H193.128V122H184.928V108H193.028V109.32H186.328V114.28H192.528V115.6H186.328ZM199.834 116.82L203.734 122H202.154L199.034 117.88L195.914 122H194.334L198.254 116.82L194.594 112H196.174L199.034 115.78L201.894 112H203.474L199.834 116.82ZM210.889 111.76C212.316 111.76 213.529 112.267 214.529 113.28C215.542 114.293 216.049 115.533 216.049 117C216.049 118.467 215.542 119.707 214.529 120.72C213.529 121.733 212.316 122.24 210.889 122.24C209.116 122.24 207.769 121.507 206.849 120.04V126H205.529V112H206.849V113.96C207.769 112.493 209.116 111.76 210.889 111.76ZM207.989 119.82C208.749 120.58 209.682 120.96 210.789 120.96C211.896 120.96 212.829 120.58 213.589 119.82C214.349 119.033 214.729 118.093 214.729 117C214.729 115.893 214.349 114.96 213.589 114.2C212.829 113.427 211.896 113.04 210.789 113.04C209.682 113.04 208.749 113.427 207.989 114.2C207.229 114.96 206.849 115.893 206.849 117C206.849 118.093 207.229 119.033 207.989 119.82ZM222.864 111.76C224.357 111.76 225.55 112.287 226.444 113.34C227.364 114.38 227.824 115.613 227.824 117.04C227.824 117.107 227.81 117.313 227.784 117.66H219.004C219.137 118.66 219.564 119.46 220.284 120.06C221.004 120.66 221.904 120.96 222.984 120.96C224.504 120.96 225.577 120.393 226.204 119.26L227.364 119.94C226.924 120.66 226.317 121.227 225.544 121.64C224.784 122.04 223.924 122.24 222.964 122.24C221.39 122.24 220.11 121.747 219.124 120.76C218.137 119.773 217.644 118.52 217.644 117C217.644 115.493 218.13 114.247 219.104 113.26C220.077 112.26 221.33 111.76 222.864 111.76ZM222.864 113.04C221.824 113.04 220.95 113.347 220.244 113.96C219.55 114.573 219.137 115.38 219.004 116.38H226.464C226.317 115.313 225.91 114.493 225.244 113.92C224.55 113.333 223.757 113.04 222.864 113.04ZM231.243 112V113.66C231.857 112.447 232.91 111.84 234.403 111.84V113.12C233.443 113.12 232.677 113.4 232.103 113.96C231.53 114.507 231.243 115.333 231.243 116.44V122H229.923V112H231.243ZM237.833 108.92C237.833 109.187 237.739 109.413 237.553 109.6C237.366 109.787 237.139 109.88 236.873 109.88C236.606 109.88 236.379 109.787 236.193 109.6C236.006 109.413 235.913 109.187 235.913 108.92C235.913 108.653 236.006 108.427 236.193 108.24C236.379 108.053 236.606 107.96 236.873 107.96C237.139 107.96 237.366 108.053 237.553 108.24C237.739 108.427 237.833 108.653 237.833 108.92ZM237.533 122H236.213V112H237.533V122ZM244.954 111.76C246.447 111.76 247.64 112.287 248.534 113.34C249.454 114.38 249.914 115.613 249.914 117.04C249.914 117.107 249.9 117.313 249.874 117.66H241.094C241.227 118.66 241.654 119.46 242.374 120.06C243.094 120.66 243.994 120.96 245.074 120.96C246.594 120.96 247.667 120.393 248.294 119.26L249.454 119.94C249.014 120.66 248.407 121.227 247.634 121.64C246.874 122.04 246.014 122.24 245.054 122.24C243.48 122.24 242.2 121.747 241.214 120.76C240.227 119.773 239.734 118.52 239.734 117C239.734 115.493 240.22 114.247 241.194 113.26C242.167 112.26 243.42 111.76 244.954 111.76ZM244.954 113.04C243.914 113.04 243.04 113.347 242.334 113.96C241.64 114.573 241.227 115.38 241.094 116.38H248.554C248.407 115.313 248 114.493 247.334 113.92C246.64 113.333 245.847 113.04 244.954 113.04ZM256.693 111.76C257.893 111.76 258.847 112.133 259.553 112.88C260.26 113.613 260.613 114.607 260.613 115.86V122H259.293V115.86C259.293 114.967 259.053 114.273 258.573 113.78C258.107 113.287 257.44 113.04 256.573 113.04C255.573 113.04 254.78 113.353 254.193 113.98C253.62 114.607 253.333 115.533 253.333 116.76V122H252.013V112H253.333V113.56C254.08 112.36 255.2 111.76 256.693 111.76ZM267.826 122.24C266.319 122.24 265.066 121.74 264.066 120.74C263.066 119.713 262.566 118.467 262.566 117C262.566 115.52 263.066 114.28 264.066 113.28C265.066 112.267 266.319 111.76 267.826 111.76C268.812 111.76 269.699 112 270.486 112.48C271.272 112.947 271.846 113.58 272.206 114.38L271.126 115C270.859 114.4 270.426 113.927 269.826 113.58C269.239 113.22 268.572 113.04 267.826 113.04C266.719 113.04 265.786 113.427 265.026 114.2C264.266 114.96 263.886 115.893 263.886 117C263.886 118.093 264.266 119.033 265.026 119.82C265.786 120.58 266.719 120.96 267.826 120.96C268.559 120.96 269.219 120.787 269.806 120.44C270.406 120.093 270.872 119.613 271.206 119L272.306 119.64C271.892 120.44 271.286 121.073 270.486 121.54C269.686 122.007 268.799 122.24 267.826 122.24ZM278.723 111.76C280.216 111.76 281.41 112.287 282.303 113.34C283.223 114.38 283.683 115.613 283.683 117.04C283.683 117.107 283.67 117.313 283.643 117.66H274.863C274.996 118.66 275.423 119.46 276.143 120.06C276.863 120.66 277.763 120.96 278.843 120.96C280.363 120.96 281.436 120.393 282.063 119.26L283.223 119.94C282.783 120.66 282.176 121.227 281.403 121.64C280.643 122.04 279.783 122.24 278.823 122.24C277.25 122.24 275.97 121.747 274.983 120.76C273.996 119.773 273.503 118.52 273.503 117C273.503 115.493 273.99 114.247 274.963 113.26C275.936 112.26 277.19 111.76 278.723 111.76ZM278.723 113.04C277.683 113.04 276.81 113.347 276.103 113.96C275.41 114.573 274.996 115.38 274.863 116.38H282.323C282.176 115.313 281.77 114.493 281.103 113.92C280.41 113.333 279.616 113.04 278.723 113.04ZM169.81 146H168.33L167.03 142.56H160.39L159.09 146H157.61L162.99 132H164.43L169.81 146ZM163.71 133.74L160.89 141.24H166.53L163.71 133.74ZM179.812 137.96V136H181.133V145.6C181.133 147.04 180.639 148.173 179.653 149C178.666 149.827 177.486 150.24 176.113 150.24C173.779 150.24 172.199 149.427 171.373 147.8L172.533 147.14C173.133 148.353 174.326 148.96 176.113 148.96C177.259 148.96 178.159 148.66 178.813 148.06C179.479 147.46 179.812 146.64 179.812 145.6V144.04C178.893 145.507 177.546 146.24 175.773 146.24C174.346 146.24 173.126 145.733 172.113 144.72C171.113 143.707 170.613 142.467 170.613 141C170.613 139.533 171.113 138.293 172.113 137.28C173.126 136.267 174.346 135.76 175.773 135.76C177.546 135.76 178.893 136.493 179.812 137.96ZM173.073 143.82C173.833 144.58 174.766 144.96 175.873 144.96C176.979 144.96 177.913 144.58 178.673 143.82C179.433 143.033 179.812 142.093 179.812 141C179.812 139.893 179.433 138.96 178.673 138.2C177.913 137.427 176.979 137.04 175.873 137.04C174.766 137.04 173.833 137.427 173.073 138.2C172.313 138.96 171.933 139.893 171.933 141C171.933 142.093 172.313 143.033 173.073 143.82ZM188.547 135.76C190.041 135.76 191.234 136.287 192.127 137.34C193.047 138.38 193.507 139.613 193.507 141.04C193.507 141.107 193.494 141.313 193.467 141.66H184.687C184.821 142.66 185.247 143.46 185.967 144.06C186.687 144.66 187.587 144.96 188.667 144.96C190.187 144.96 191.261 144.393 191.887 143.26L193.047 143.94C192.607 144.66 192.001 145.227 191.227 145.64C190.467 146.04 189.607 146.24 188.647 146.24C187.074 146.24 185.794 145.747 184.807 144.76C183.821 143.773 183.327 142.52 183.327 141C183.327 139.493 183.814 138.247 184.787 137.26C185.761 136.26 187.014 135.76 188.547 135.76ZM188.547 137.04C187.507 137.04 186.634 137.347 185.927 137.96C185.234 138.573 184.821 139.38 184.687 140.38H192.147C192.001 139.313 191.594 138.493 190.927 137.92C190.234 137.333 189.441 137.04 188.547 137.04ZM200.287 135.76C201.487 135.76 202.44 136.133 203.147 136.88C203.854 137.613 204.207 138.607 204.207 139.86V146H202.887V139.86C202.887 138.967 202.647 138.273 202.167 137.78C201.7 137.287 201.034 137.04 200.167 137.04C199.167 137.04 198.374 137.353 197.787 137.98C197.214 138.607 196.927 139.533 196.927 140.76V146H195.607V136H196.927V137.56C197.674 136.36 198.794 135.76 200.287 135.76ZM211.419 146.24C209.913 146.24 208.659 145.74 207.659 144.74C206.659 143.713 206.159 142.467 206.159 141C206.159 139.52 206.659 138.28 207.659 137.28C208.659 136.267 209.913 135.76 211.419 135.76C212.406 135.76 213.293 136 214.079 136.48C214.866 136.947 215.439 137.58 215.799 138.38L214.719 139C214.453 138.4 214.019 137.927 213.419 137.58C212.833 137.22 212.166 137.04 211.419 137.04C210.313 137.04 209.379 137.427 208.619 138.2C207.859 138.96 207.479 139.893 207.479 141C207.479 142.093 207.859 143.033 208.619 143.82C209.379 144.58 210.313 144.96 211.419 144.96C212.153 144.96 212.813 144.787 213.399 144.44C213.999 144.093 214.466 143.613 214.799 143L215.899 143.64C215.486 144.44 214.879 145.073 214.079 145.54C213.279 146.007 212.393 146.24 211.419 146.24ZM221.755 144.38L224.995 136H226.395L222.115 146.92C221.715 147.933 221.155 148.713 220.435 149.26C219.728 149.82 218.941 150.067 218.075 150V148.76C219.275 148.907 220.188 148.213 220.815 146.68L221.075 146.06L216.595 136H217.995L221.755 144.38Z" fill="#6A779B"/>
</svg>
