<svg width="32" height="33" viewBox="0 0 32 33" fill="none" xmlns="http://www.w3.org/2000/svg">
<path fill-rule="evenodd" clip-rule="evenodd" d="M15.1658 3.24402C15.0284 3.32778 14.3393 3.81765 13.6346 4.33266L12.3532 5.26901L10.3744 5.30471L8.39571 5.34041L8.12146 5.55804C7.86014 5.76546 7.82044 5.85678 7.27573 7.50313C6.96142 8.45325 6.66861 9.28714 6.62513 9.35611C6.58157 9.42515 5.90191 9.94752 5.11465 10.5169C3.59361 11.6171 3.38477 11.8368 3.38477 12.3363C3.38477 12.4819 3.53164 13.0483 3.71114 13.5949L4.03744 14.5888L6.26134 14.5699L8.48518 14.5511L8.58178 14.1941C8.86874 13.1338 9.41438 12.081 10.1145 11.2364C11.1579 9.97765 12.893 8.99604 14.5458 8.72943C15.2401 8.61747 16.8925 8.67874 17.4863 8.83853C20.2 9.56881 22.1681 11.5184 22.8923 14.1941L22.9889 14.5511L25.2149 14.5699L27.4409 14.5888L27.7651 13.5644C27.9434 13.0009 28.0891 12.4302 28.089 12.2959C28.0885 11.8017 27.8696 11.5995 25.4683 9.87533L24.8232 9.41223L24.225 7.59409C23.6523 5.85349 23.6151 5.76674 23.3526 5.55825L23.0783 5.34041L21.0996 5.30471L19.1208 5.26901L17.8395 4.33266C16.1954 3.13121 16.1287 3.0918 15.737 3.0918C15.5348 3.0918 15.323 3.14827 15.1658 3.24402ZM16.6477 14.2827L14.1671 16.7633L13.2382 15.8364L12.3092 14.9095L11.5423 15.6765L10.7753 16.4434L12.4708 18.1389L14.1663 19.8344L17.4321 16.5685L20.698 13.3028L19.9502 12.5524C19.539 12.1398 19.1858 11.8021 19.1654 11.8021C19.145 11.8021 18.0121 12.9184 16.6477 14.2827ZM3.71114 18.4346C3.34085 19.5621 3.31151 19.8833 3.54656 20.2321C3.63552 20.3641 4.36645 20.9552 5.17092 21.5457L6.63348 22.6193L7.21918 24.4043C7.85814 26.3514 7.93839 26.4916 8.50396 26.6486C8.66082 26.6922 9.52327 26.7242 10.5461 26.7244L12.3167 26.7248L13.5449 27.6296C15.2308 28.8714 15.3425 28.9383 15.7332 28.9379C16.126 28.9377 16.1359 28.9318 17.8368 27.6982L19.1789 26.7248L20.9388 26.7244C21.9289 26.7242 22.8147 26.6918 22.9641 26.6503C23.5438 26.4893 23.6083 26.3765 24.2415 24.4165L24.822 22.6193L26.2926 21.5483C27.1201 20.9456 27.8344 20.3712 27.9261 20.2347C28.1601 19.8867 28.1337 19.5936 27.7652 18.4492L27.4411 17.4428H25.2061H22.9712L22.8807 17.847C22.681 18.7393 22.126 19.8388 21.4536 20.674C20.5217 21.8316 19.2583 22.6581 17.7005 23.1293C17.1063 23.309 16.9611 23.324 15.7727 23.3271C14.7528 23.3299 14.3917 23.3043 14.0234 23.2033C11.2572 22.4447 9.30928 20.5232 8.58178 17.8355L8.48518 17.4785L6.26134 17.4596L4.03744 17.4408L3.71114 18.4346Z" fill="#062037"/>
</svg>
