<svg width="32" height="33" viewBox="0 0 32 33" fill="none" xmlns="http://www.w3.org/2000/svg">
<path fill-rule="evenodd" clip-rule="evenodd" d="M16.0647 6.20035C14.9192 6.3617 13.7806 6.83962 12.8721 7.54057C12.4135 7.89443 11.7242 8.65444 11.4102 9.15247C11.1483 9.56801 11.1067 9.61016 10.9864 9.58242C10.3486 9.43531 10.0752 9.39508 9.5191 9.36664C6.33318 9.20369 3.566 11.3626 2.89295 14.5363C2.76581 15.136 2.76463 16.414 2.89077 17.0081C3.16438 18.2969 3.74026 19.3888 4.60864 20.2653C4.98939 20.6495 5.65795 21.1932 5.74999 21.1934C5.76877 21.1935 5.7764 20.7566 5.76696 20.2225C5.75751 19.6885 5.77555 19.0604 5.80703 18.8266C5.9353 17.8735 6.48967 17.191 7.35426 16.9219C7.67915 16.8208 7.92139 16.8181 16.6947 16.8181C25.5668 16.8181 25.7068 16.8197 26.0489 16.9254C26.7063 17.1284 27.211 17.6147 27.4823 18.3065C27.5888 18.5781 27.6016 18.7243 27.6221 19.8996L27.6446 21.1937L27.8617 21.0217C28.1885 20.7629 28.7114 20.0707 28.9618 19.5653C29.3281 18.8261 29.4145 18.4231 29.4135 17.4584C29.4126 16.7154 29.398 16.5837 29.2696 16.162C28.6989 14.2877 27.1516 12.9871 25.222 12.7595C24.7413 12.7028 24.2005 12.7325 23.6534 12.8456L23.4882 12.8798L23.4568 12.2745C23.306 9.37459 21.13 6.88924 18.2074 6.27911C17.7138 6.17608 16.5428 6.13307 16.0647 6.20035ZM7.9184 18.0733C7.88906 18.0821 7.7984 18.1041 7.71698 18.122C7.49811 18.1704 7.15562 18.5044 7.09271 18.7308C7.05877 18.8531 7.0385 20.1842 7.03834 22.3022C7.03807 25.2206 7.04917 25.7054 7.12008 25.8752C7.22599 26.1286 7.33826 26.2498 7.58279 26.3746C7.77471 26.4726 8.05302 26.4757 16.6956 26.4757C25.3381 26.4757 25.6164 26.4726 25.8084 26.3746C26.0529 26.2498 26.1651 26.1286 26.2711 25.8752C26.342 25.7054 26.3531 25.2164 26.3531 22.2657C26.3531 19.9839 26.3343 18.8028 26.2964 18.7024C26.226 18.5161 26.0044 18.2777 25.7929 18.1606C25.6457 18.0791 24.9232 18.0714 16.8023 18.0646C11.9455 18.0606 7.94775 18.0645 7.9184 18.0733ZM10.8869 19.4171C11.3094 19.5518 11.7517 20.0037 11.8332 20.384C11.903 20.7093 11.829 20.9602 11.6204 21.1063C11.3057 21.3268 10.8263 21.1026 10.8263 20.7349C10.8263 20.572 10.5762 20.393 10.3485 20.393C10.0631 20.393 9.91928 20.5346 9.91928 20.8158C9.91928 21.0983 10.1076 21.3126 10.5535 21.5371C11.5466 22.0372 12.1069 22.7493 12.1069 23.5114C12.1069 24.3631 11.5604 25.0195 10.7061 25.1936C9.75201 25.388 8.67964 24.7412 8.5137 23.8712C8.43506 23.459 8.78721 23.1105 9.17116 23.2206C9.41212 23.2897 9.4833 23.3624 9.54909 23.6067C9.70281 24.1775 10.4392 24.3657 10.8626 23.9423C10.9982 23.8067 11.0398 23.7197 11.0398 23.5714C11.0398 23.1467 10.8598 22.9311 10.2127 22.5806C9.72741 22.3177 9.36197 22.0178 9.14753 21.7065C8.66209 21.0016 8.69773 20.3271 9.24954 19.7752C9.67987 19.3449 10.2614 19.2177 10.8869 19.4171ZM23.7009 19.433C24.2443 19.6363 24.6457 20.1209 24.6457 20.5734C24.6457 21.2957 23.734 21.4447 23.6025 20.7439C23.5381 20.4005 23.0579 20.2685 22.8025 20.524C22.6501 20.6764 22.6383 20.8139 22.7565 21.0628C22.8418 21.2425 23.0704 21.4112 23.6292 21.7066C24.0766 21.9432 24.5094 22.374 24.711 22.7836C24.8631 23.0926 24.8845 23.1881 24.8815 23.5458C24.8788 23.8783 24.8509 24.0103 24.7326 24.2522C24.3876 24.9573 23.551 25.3658 22.7874 25.202C22.1792 25.0716 21.6589 24.6987 21.4221 24.2236C21.2378 23.8538 21.241 23.5911 21.4324 23.3769C21.7203 23.0546 22.1895 23.1889 22.3387 23.6363C22.4335 23.9208 22.6622 24.112 22.9612 24.1569C23.4048 24.2234 23.7215 24.0343 23.7891 23.6626C23.8705 23.2156 23.6407 22.9171 22.9323 22.5498C22.1407 22.1394 21.6044 21.4222 21.6044 20.774C21.6044 19.739 22.6799 19.051 23.7009 19.433ZM14.7795 21.2476C14.9369 21.2774 15.1611 21.3651 15.2778 21.4422C15.42 21.5363 15.4969 21.5614 15.5112 21.5184C15.5583 21.3771 15.7623 21.2467 15.936 21.2467C16.0647 21.2467 16.1618 21.2917 16.2728 21.4027L16.4288 21.5586V23.2159V24.8733L16.2755 25.0449C16.0608 25.2851 15.7731 25.2877 15.5827 25.0511L15.4496 24.8859L15.2361 25.0271C15.0407 25.1565 14.9772 25.1684 14.4852 25.1684C14.0004 25.1684 13.9201 25.1538 13.6657 25.0198C13.2697 24.8112 13.0032 24.5537 12.8129 24.1956C12.1076 22.8689 12.9422 21.2738 14.3806 21.1992C14.4426 21.196 14.6221 21.2178 14.7795 21.2476ZM19.1548 21.2476C19.3122 21.2774 19.5324 21.3624 19.6441 21.4363L19.8472 21.5707L19.9836 21.4088C20.1773 21.1785 20.4712 21.1795 20.6659 21.4109L20.804 21.575V23.2242V24.8733L20.6507 25.0449C20.5322 25.1775 20.4541 25.2164 20.3065 25.2164C20.1092 25.2164 19.897 25.0767 19.897 24.9467C19.897 24.8499 19.8786 24.8544 19.6559 25.0056C19.2948 25.2506 18.5864 25.2593 18.0764 25.025C17.6567 24.8321 17.3662 24.5496 17.163 24.1364C16.9985 23.8022 16.989 23.7507 16.989 23.1951C16.989 22.6696 17.0041 22.5751 17.1315 22.3034C17.3787 21.776 17.8964 21.3528 18.4213 21.2489C18.7364 21.1866 18.8321 21.1864 19.1548 21.2476ZM14.0907 22.2969C13.7873 22.4464 13.5475 22.8649 13.5475 23.2451C13.5475 23.4867 13.7832 23.9219 13.9868 24.0562C14.6243 24.4764 15.4127 24.0146 15.4127 23.2209C15.4127 22.481 14.7116 21.9909 14.0907 22.2969ZM18.4307 22.3292C17.877 22.6428 17.7772 23.4613 18.2366 23.9208C18.8472 24.5315 19.7903 24.1068 19.7903 23.2213C19.7903 22.8949 19.6957 22.6562 19.49 22.464C19.187 22.1806 18.7836 22.1293 18.4307 22.3292Z" fill="#062037"/>
</svg>
