<svg width="384" height="120" viewBox="0 0 384 120" fill="none" xmlns="http://www.w3.org/2000/svg">
<path fill-rule="evenodd" clip-rule="evenodd" d="M189.706 0.035164C186.761 0.352525 184.057 1.12908 181.441 2.40866C178.964 3.62018 176.966 5.04816 175.003 7.00977C173.04 8.97148 171.611 10.9683 170.399 13.4439C169.288 15.7117 168.583 17.9402 168.181 20.456C167.94 21.9681 167.94 26.0395 168.181 27.5517C168.586 30.0804 169.293 32.3126 170.406 34.5731C171.638 37.0752 173.043 39.0393 175.003 40.9979C176.972 42.9658 178.979 44.3992 181.441 45.5947C183.739 46.7113 185.657 47.3273 188.213 47.7702C189.859 48.0554 193.903 48.0804 195.557 47.8155C198.093 47.4095 200.286 46.7145 202.583 45.589C205.127 44.3433 207.07 42.9472 209.102 40.9059C212.643 37.3487 214.896 32.9313 215.789 27.7963C215.973 26.7395 216 26.2559 216 24.0038C216 21.2226 215.89 20.2285 215.346 18.0813C214.143 13.3412 211.274 8.75953 207.552 5.63567C204.196 2.81904 200.01 0.912434 195.624 0.202902C194.712 0.0554391 190.6 -0.0611423 189.706 0.035164ZM187.828 13.1458C189.443 13.6209 190.657 14.5727 191.276 15.8491C191.752 16.8288 191.868 17.3968 191.858 18.7004C191.851 19.606 191.81 19.9354 191.647 20.3811C191.219 21.5489 190.337 22.3484 189.094 22.6938C188.673 22.8109 188.673 22.8109 189.346 22.9276C190.905 23.1985 191.809 24.1014 192.397 25.9773C192.587 26.5822 192.617 26.8731 192.617 28.087C192.617 29.6027 192.504 30.2297 192.046 31.2278C191.307 32.8439 189.698 33.9899 187.548 34.4334C186.773 34.5933 186.179 34.6083 180.572 34.6094L174.443 34.6107V23.7655V12.9203L180.854 12.9501C186.652 12.9771 187.318 12.9958 187.828 13.1458ZM206.19 15.462V16.7761H201.729H197.267V15.462V14.1479H201.729H206.19V15.462ZM179.421 19.1697V21.6572L182.591 21.6566C184.444 21.6563 185.904 21.6165 186.104 21.561C186.902 21.3394 187.311 20.5132 187.311 19.1225C187.311 18.1478 187.135 17.5696 186.72 17.1789C186.216 16.7038 186.037 16.6823 182.601 16.6823H179.421V19.1697ZM204.353 18.7392C205.61 19.0719 206.412 19.5285 207.329 20.4345C208.017 21.1138 208.204 21.3697 208.569 22.1265C209.214 23.466 209.573 25.131 209.57 26.7704C209.568 27.9882 210.291 27.8523 203.817 27.8523H198.179L198.235 28.4452C198.389 30.0965 199.385 31.229 201.015 31.6084C201.653 31.7569 203.146 31.6804 203.797 31.4661C204.733 31.1577 205.405 30.4578 205.578 29.6123C205.63 29.3542 205.63 29.3542 207.518 29.3542H209.405L209.339 29.977C209.197 31.2989 208.735 32.3123 207.9 33.1342C206.482 34.5291 204.36 35.1678 201.518 35.055C199.502 34.9749 198.12 34.593 196.857 33.7672C193.875 31.8166 192.794 27.539 194.264 23.5115C194.685 22.3603 195.228 21.5196 196.132 20.6192C197.264 19.4921 198.618 18.8272 200.32 18.5638C201.273 18.4163 203.499 18.513 204.353 18.7392ZM201.148 21.6554C200.497 21.7941 199.729 22.2265 199.278 22.7087C198.823 23.1946 198.327 24.1426 198.237 24.6981L198.182 25.0363H201.776H205.371L205.32 24.4787C205.171 22.835 203.978 21.7064 202.292 21.6132C201.879 21.5903 201.364 21.6094 201.148 21.6554ZM179.421 27.9055V30.8686L182.826 30.8386C186.595 30.8053 186.641 30.7984 187.296 30.1707C187.848 29.642 188.001 29.2316 188.044 28.1628C188.097 26.867 187.921 26.2936 187.268 25.6433C186.97 25.3462 186.651 25.1284 186.408 25.0566C186.137 24.9765 185.038 24.9425 182.721 24.9425H179.421V27.9055Z" fill="#6A779B"/>
<path fill-rule="evenodd" clip-rule="evenodd" d="M155.352 1.29597C152.7 2.4776 151.05 3.77015 150.162 5.36317C149.709 6.17678 149.412 7.64713 149.507 8.61206L149.561 9.16607L150.176 9.11634C152.266 8.94718 154.104 7.57482 155.11 5.43107C155.55 4.4931 156.4 1.35204 156.312 0.985452C156.294 0.90984 156.018 0.999298 155.352 1.29597ZM146.08 3.85229C144.992 6.03351 144.581 7.40878 144.581 8.86246C144.582 10.5134 145.043 11.6827 146.216 13.0053L146.537 13.3673L146.912 13.0053C148.227 11.7373 148.9 10.0706 148.78 8.3831C148.718 7.50836 148.518 6.64538 148.126 5.56428C147.798 4.65825 146.877 2.7729 146.742 2.73083C146.693 2.71571 146.395 3.22033 146.08 3.85229ZM153.781 8.86246C153.203 9.05554 152.429 9.36073 152.061 9.54077C151.693 9.72073 151.372 9.868 151.348 9.868C151.324 9.868 150.95 10.1009 150.516 10.3856C149.394 11.1221 148.513 12.067 148.049 13.0325C147.619 13.9269 147.493 14.4414 147.484 15.3382L147.477 16.0219L148.245 15.9973C149.815 15.9469 150.969 15.485 152.048 14.4748C153.163 13.4308 153.975 11.9998 154.713 9.78025C154.934 9.11563 155.115 8.55581 155.115 8.53619C155.115 8.44875 154.76 8.53562 153.781 8.86246ZM142.11 11.6959C141.647 13.3732 141.522 14.1014 141.48 15.3784C141.45 16.2819 141.471 16.7301 141.563 17.1624C141.887 18.6751 142.668 19.9139 143.871 20.82C144.204 21.0709 144.325 21.1626 144.417 21.1389C144.47 21.1253 144.512 21.0734 144.58 20.9917C144.937 20.5579 145.581 19.1711 145.709 18.5559C146.066 16.8516 145.576 15.0777 144.153 12.9248C143.61 12.1043 142.6 10.8244 142.458 10.7773C142.409 10.7609 142.26 11.154 142.11 11.6959ZM150.265 16.2367C147.868 17.8535 146.757 18.9312 146.004 20.3731C145.525 21.2894 145.314 22.1171 145.314 23.0775C145.315 23.931 145.535 25.0718 145.7 25.0718C145.914 25.0718 147.073 24.6525 147.522 24.4124C149.493 23.3595 150.534 21.4526 150.871 18.2743C151 17.0648 151.031 15.8186 150.932 15.8244C150.899 15.8263 150.599 16.0119 150.265 16.2367ZM139.192 19.8234C139.192 20.2117 139.409 22.0831 139.521 22.6585C139.687 23.5141 140.099 24.7173 140.472 25.4338C140.768 26.0014 141.006 26.3159 141.576 26.8901C142.391 27.7103 142.978 28.0765 144.028 28.4204L144.068 28.4336C144.438 28.555 144.618 28.6138 144.725 28.551C144.827 28.4921 144.865 28.3261 144.94 28.0044L144.948 27.9678C145.088 27.3652 145.082 25.6214 144.938 25.112C144.506 23.5814 143.402 22.2051 141.566 20.9101C140.675 20.2815 139.426 19.5212 139.285 19.5212C139.231 19.5212 139.192 19.6502 139.192 19.8234ZM150.052 23.2417C148.323 25.009 147.198 26.6931 146.789 28.1286C146.546 28.9799 146.489 30.2653 146.664 30.9442C146.827 31.5731 147.055 32.2053 147.277 32.6378C147.357 32.7938 147.398 32.8734 147.459 32.8939C147.522 32.9151 147.607 32.8719 147.782 32.7837C148.615 32.3619 149.492 31.6267 150.071 30.8637C150.408 30.4197 150.882 29.3512 151.034 28.6917C151.233 27.8328 151.221 26.0698 151.007 24.6696C150.808 23.3669 150.676 22.7389 150.6 22.7389C150.569 22.7389 150.322 22.9652 150.052 23.2417ZM138.266 28.0616C138.452 28.6579 139.455 30.3936 140.145 31.3127C141.521 33.1443 142.94 34.0737 144.735 34.3182C145.403 34.4092 146.658 34.3308 146.789 34.1901C146.872 34.1011 146.615 32.886 146.387 32.2872C146.152 31.6707 145.522 30.7434 145.021 30.2772C143.692 29.0399 141.572 28.2542 138.679 27.9272C138.212 27.8744 138.208 27.8759 138.266 28.0616ZM151.613 30.4436C150.469 31.871 149.368 33.8633 149.047 35.087C148.593 36.8149 148.842 38.4248 149.793 39.9236L150.117 40.435L150.465 40.1968C151.652 39.3837 152.495 38.2756 152.947 36.9315C153.115 36.4334 153.134 36.2286 153.131 35.0065C153.128 33.4856 152.999 32.7633 152.385 30.8256L152.079 29.8623L151.613 30.4436ZM139.435 34.5144C139.435 34.5451 139.655 34.8961 139.924 35.2943C141.388 37.4614 143.02 39.0317 144.469 39.6674C145.098 39.9434 145.969 40.1147 146.743 40.1147C147.518 40.1147 148.644 39.8996 148.705 39.7397C148.728 39.6817 148.666 39.3722 148.568 39.052C148.248 38.0035 147.764 37.1951 147.041 36.5026C145.991 35.4959 144.821 35.0144 142.627 34.685C141.727 34.5498 139.435 34.4274 139.435 34.5144ZM146.062 40.7571C145.001 40.843 143.452 41.0834 143.355 41.1775C143.244 41.284 145.043 43.0026 146.073 43.7746C146.936 44.4217 147.848 44.8948 148.81 45.1949C149.619 45.4468 151.161 45.4619 151.961 45.2256C152.491 45.0687 153.418 44.6567 153.418 44.5776C153.418 44.5539 153.311 44.3246 153.181 44.0679C152.312 42.3556 150.753 41.1958 148.851 40.8469C148.22 40.7312 146.906 40.6888 146.062 40.7571ZM153.92 45.876C153.924 45.3621 154.391 44.8097 154.895 44.7244C155.551 44.6132 156.212 45.0515 156.331 45.6766C156.43 46.1974 156.003 46.8329 155.444 46.9981C154.735 47.207 153.916 46.6032 153.92 45.876ZM154.336 35.6267C152.646 38.5106 152.322 40.6628 153.295 42.5593C153.459 42.8807 153.751 43.3216 153.943 43.5393L154.292 43.935L154.565 43.7133C155.276 43.1371 156.018 42.079 156.292 41.2508C156.605 40.3056 156.522 38.7875 156.083 37.3895C155.848 36.6434 155.055 34.7471 154.962 34.7083C154.923 34.6923 154.642 35.1056 154.336 35.6267Z" fill="#6A779B"/>
<path fill-rule="evenodd" clip-rule="evenodd" d="M228.648 1.29597C231.3 2.4776 232.95 3.77015 233.838 5.36317C234.291 6.17678 234.588 7.64713 234.493 8.61206L234.439 9.16607L233.824 9.11634C231.734 8.94718 229.896 7.57482 228.89 5.43107C228.45 4.4931 227.6 1.35204 227.688 0.985452C227.706 0.90984 227.982 0.999298 228.648 1.29597ZM237.92 3.85229C239.008 6.03351 239.419 7.40878 239.419 8.86246C239.418 10.5134 238.957 11.6827 237.784 13.0053L237.463 13.3673L237.088 13.0053C235.773 11.7373 235.1 10.0706 235.22 8.3831C235.282 7.50836 235.482 6.64538 235.874 5.56428C236.202 4.65825 237.123 2.7729 237.258 2.73083C237.307 2.71571 237.605 3.22033 237.92 3.85229ZM230.219 8.86246C230.797 9.05554 231.571 9.36073 231.939 9.54077C232.307 9.72073 232.628 9.868 232.652 9.868C232.676 9.868 233.05 10.1009 233.484 10.3856C234.606 11.1221 235.487 12.067 235.951 13.0325C236.381 13.9269 236.507 14.4414 236.516 15.3382L236.523 16.0219L235.755 15.9973C234.185 15.9469 233.031 15.485 231.952 14.4748C230.837 13.4308 230.025 11.9998 229.287 9.78025C229.066 9.11563 228.885 8.55581 228.885 8.53619C228.885 8.44875 229.24 8.53562 230.219 8.86246ZM241.89 11.6959C242.353 13.3732 242.478 14.1014 242.52 15.3784C242.55 16.2819 242.529 16.7301 242.437 17.1624C242.113 18.6751 241.332 19.9139 240.129 20.82C239.796 21.0709 239.675 21.1626 239.583 21.1389C239.53 21.1253 239.488 21.0734 239.42 20.9917C239.063 20.5579 238.419 19.1711 238.291 18.5559C237.934 16.8516 238.424 15.0777 239.847 12.9248C240.39 12.1043 241.4 10.8244 241.542 10.7773C241.591 10.7609 241.74 11.154 241.89 11.6959ZM233.735 16.2367C236.132 17.8535 237.243 18.9312 237.996 20.3731C238.475 21.2894 238.686 22.1171 238.686 23.0775C238.685 23.931 238.465 25.0718 238.3 25.0718C238.086 25.0718 236.927 24.6525 236.478 24.4124C234.507 23.3595 233.466 21.4526 233.129 18.2743C233 17.0648 232.969 15.8186 233.068 15.8244C233.101 15.8263 233.401 16.0119 233.735 16.2367ZM244.808 19.8234C244.808 20.2117 244.591 22.0831 244.479 22.6585C244.313 23.5141 243.901 24.7173 243.528 25.4338C243.232 26.0014 242.994 26.3159 242.424 26.8901C241.609 27.7103 241.022 28.0765 239.972 28.4204L239.932 28.4336C239.562 28.555 239.382 28.6138 239.275 28.551C239.173 28.4921 239.135 28.3261 239.06 28.0044L239.052 27.9678C238.912 27.3652 238.918 25.6214 239.062 25.112C239.494 23.5814 240.598 22.2051 242.434 20.9101C243.325 20.2815 244.574 19.5212 244.715 19.5212C244.769 19.5212 244.808 19.6502 244.808 19.8234ZM233.948 23.2417C235.677 25.009 236.802 26.6931 237.211 28.1286C237.454 28.9799 237.511 30.2653 237.336 30.9442C237.173 31.5731 236.945 32.2053 236.723 32.6378C236.643 32.7938 236.602 32.8734 236.541 32.8939C236.478 32.9151 236.393 32.8719 236.218 32.7837C235.385 32.3619 234.508 31.6267 233.929 30.8637C233.592 30.4197 233.118 29.3512 232.966 28.6917C232.767 27.8328 232.779 26.0698 232.993 24.6696C233.192 23.3669 233.324 22.7389 233.4 22.7389C233.431 22.7389 233.678 22.9652 233.948 23.2417ZM245.734 28.0616C245.548 28.6579 244.545 30.3936 243.855 31.3127C242.479 33.1443 241.06 34.0737 239.265 34.3182C238.597 34.4092 237.342 34.3308 237.211 34.1901C237.128 34.1011 237.385 32.886 237.613 32.2872C237.848 31.6707 238.478 30.7434 238.979 30.2772C240.308 29.0399 242.428 28.2542 245.321 27.9272C245.788 27.8744 245.792 27.8759 245.734 28.0616ZM232.387 30.4436C233.531 31.871 234.632 33.8633 234.953 35.087C235.407 36.8149 235.158 38.4248 234.207 39.9236L233.883 40.435L233.535 40.1968C232.348 39.3837 231.505 38.2756 231.053 36.9315C230.885 36.4334 230.866 36.2286 230.869 35.0065C230.872 33.4856 231.001 32.7633 231.615 30.8256L231.921 29.8623L232.387 30.4436ZM244.565 34.5144C244.565 34.5451 244.345 34.8961 244.076 35.2943C242.612 37.4614 240.98 39.0317 239.531 39.6674C238.902 39.9434 238.031 40.1147 237.257 40.1147C236.482 40.1147 235.356 39.8996 235.295 39.7397C235.272 39.6817 235.334 39.3722 235.432 39.052C235.752 38.0035 236.236 37.1951 236.959 36.5026C238.009 35.4959 239.179 35.0144 241.373 34.685C242.273 34.5498 244.565 34.4274 244.565 34.5144ZM237.938 40.7571C238.999 40.843 240.548 41.0834 240.645 41.1775C240.756 41.284 238.957 43.0026 237.927 43.7746C237.064 44.4217 236.152 44.8948 235.19 45.1949C234.381 45.4468 232.839 45.4619 232.039 45.2256C231.509 45.0687 230.582 44.6567 230.582 44.5776C230.582 44.5539 230.689 44.3246 230.819 44.0679C231.688 42.3556 233.247 41.1958 235.149 40.8469C235.78 40.7312 237.094 40.6888 237.938 40.7571ZM230.08 45.876C230.076 45.3621 229.609 44.8097 229.105 44.7244C228.449 44.6132 227.788 45.0515 227.669 45.6766C227.57 46.1974 227.997 46.8329 228.556 46.9981C229.265 47.207 230.084 46.6032 230.08 45.876ZM229.664 35.6267C231.354 38.5106 231.678 40.6628 230.705 42.5593C230.541 42.8807 230.249 43.3216 230.057 43.5393L229.708 43.935L229.435 43.7133C228.724 43.1371 227.982 42.079 227.708 41.2508C227.395 40.3056 227.478 38.7875 227.917 37.3895C228.152 36.6434 228.945 34.7471 229.038 34.7083C229.077 34.6923 229.358 35.1056 229.664 35.6267Z" fill="#6A779B"/>
<path d="M107.4 77V78.32H103.1V91H101.7V78.32H97.4V77H107.4ZM115.784 89.74C114.771 90.74 113.531 91.24 112.064 91.24C110.597 91.24 109.351 90.74 108.324 89.74C107.311 88.7267 106.804 87.48 106.804 86C106.804 84.52 107.311 83.28 108.324 82.28C109.351 81.2667 110.597 80.76 112.064 80.76C113.531 80.76 114.771 81.2667 115.784 82.28C116.811 83.28 117.324 84.52 117.324 86C117.324 87.48 116.811 88.7267 115.784 89.74ZM109.264 88.82C110.024 89.58 110.957 89.96 112.064 89.96C113.171 89.96 114.104 89.58 114.864 88.82C115.624 88.0467 116.004 87.1067 116.004 86C116.004 84.8933 115.624 83.96 114.864 83.2C114.104 82.4267 113.171 82.04 112.064 82.04C110.957 82.04 110.024 82.4267 109.264 83.2C108.504 83.96 108.124 84.8933 108.124 86C108.124 87.1067 108.504 88.0467 109.264 88.82ZM124.893 80.76C126.319 80.76 127.533 81.2667 128.533 82.28C129.546 83.2933 130.053 84.5333 130.053 86C130.053 87.4667 129.546 88.7067 128.533 89.72C127.533 90.7333 126.319 91.24 124.893 91.24C123.119 91.24 121.773 90.5067 120.853 89.04V95H119.533V81H120.853V82.96C121.773 81.4933 123.119 80.76 124.893 80.76ZM121.993 88.82C122.753 89.58 123.686 89.96 124.793 89.96C125.899 89.96 126.833 89.58 127.593 88.82C128.353 88.0467 128.733 87.1067 128.733 86C128.733 84.8933 128.353 83.96 127.593 83.2C126.833 82.4267 125.899 82.04 124.793 82.04C123.686 82.04 122.753 82.4267 121.993 83.2C121.233 83.96 120.853 84.8933 120.853 86C120.853 87.1067 121.233 88.0467 121.993 88.82ZM132.448 85.46V84.18H139.648V85.46H132.448ZM145.238 77H146.438V91H145.038V78.54L141.898 79.48L141.538 78.28L145.238 77ZM163.435 77V78.32H159.135V91H157.735V78.32H153.435V77H163.435ZM165.15 82.66C165.763 81.4467 166.816 80.84 168.31 80.84V82.12C167.403 82.12 166.65 82.3867 166.05 82.92C165.45 83.4533 165.15 84.2933 165.15 85.44V91H163.83V81H165.15V82.66ZM174.133 80.76C175.613 80.76 176.807 81.2867 177.713 82.34C178.633 83.38 179.093 84.6133 179.093 86.04C179.093 86.1867 179.08 86.3933 179.053 86.66H170.273C170.407 87.6733 170.833 88.48 171.553 89.08C172.287 89.6667 173.187 89.96 174.253 89.96C175.013 89.96 175.667 89.8067 176.213 89.5C176.773 89.18 177.193 88.7667 177.473 88.26L178.633 88.94C178.193 89.6467 177.593 90.2067 176.833 90.62C176.073 91.0333 175.207 91.24 174.233 91.24C172.66 91.24 171.38 90.7467 170.393 89.76C169.407 88.7733 168.913 87.52 168.913 86C168.913 84.5067 169.4 83.26 170.373 82.26C171.347 81.26 172.6 80.76 174.133 80.76ZM174.133 82.04C173.093 82.04 172.22 82.3533 171.513 82.98C170.82 83.5933 170.407 84.3933 170.273 85.38H177.733C177.6 84.3267 177.193 83.5067 176.513 82.92C175.833 82.3333 175.04 82.04 174.133 82.04ZM185.873 80.76C187.086 80.76 188.04 81.1333 188.733 81.88C189.44 82.6133 189.793 83.6067 189.793 84.86V91H188.473V84.86C188.473 83.9667 188.233 83.2733 187.753 82.78C187.286 82.2867 186.62 82.04 185.753 82.04C184.793 82.04 184.013 82.3467 183.413 82.96C182.813 83.56 182.513 84.4933 182.513 85.76V91H181.193V81H182.513V82.56C183.26 81.36 184.38 80.76 185.873 80.76ZM200.945 77H202.265V91H200.945V89.04C200.025 90.5067 198.679 91.24 196.905 91.24C195.479 91.24 194.259 90.7333 193.245 89.72C192.245 88.7067 191.745 87.4667 191.745 86C191.745 84.5333 192.245 83.2933 193.245 82.28C194.259 81.2667 195.479 80.76 196.905 80.76C198.679 80.76 200.025 81.4933 200.945 82.96V77ZM194.205 88.82C194.965 89.58 195.899 89.96 197.005 89.96C198.112 89.96 199.045 89.58 199.805 88.82C200.565 88.0467 200.945 87.1067 200.945 86C200.945 84.8933 200.565 83.96 199.805 83.2C199.045 82.4267 198.112 82.04 197.005 82.04C195.899 82.04 194.965 82.4267 194.205 83.2C193.445 83.96 193.065 84.8933 193.065 86C193.065 87.1067 193.445 88.0467 194.205 88.82ZM206.4 78.6C206.213 78.7867 205.987 78.88 205.72 78.88C205.453 78.88 205.227 78.7867 205.04 78.6C204.853 78.4133 204.76 78.1867 204.76 77.92C204.76 77.6533 204.853 77.4267 205.04 77.24C205.227 77.0533 205.453 76.96 205.72 76.96C205.987 76.96 206.213 77.0533 206.4 77.24C206.587 77.4267 206.68 77.6533 206.68 77.92C206.68 78.1867 206.587 78.4133 206.4 78.6ZM205.06 91V81H206.38V91H205.06ZM213.861 80.76C215.075 80.76 216.028 81.1333 216.721 81.88C217.428 82.6133 217.781 83.6067 217.781 84.86V91H216.461V84.86C216.461 83.9667 216.221 83.2733 215.741 82.78C215.275 82.2867 214.608 82.04 213.741 82.04C212.781 82.04 212.001 82.3467 211.401 82.96C210.801 83.56 210.501 84.4933 210.501 85.76V91H209.181V81H210.501V82.56C211.248 81.36 212.368 80.76 213.861 80.76ZM228.934 81H230.254V90.6C230.254 92.04 229.76 93.1733 228.774 94C227.787 94.8267 226.607 95.24 225.234 95.24C222.887 95.24 221.307 94.4267 220.494 92.8L221.654 92.14C222.254 93.3533 223.447 93.96 225.234 93.96C226.38 93.96 227.28 93.6533 227.934 93.04C228.6 92.44 228.934 91.6267 228.934 90.6V89.04C228.014 90.5067 226.667 91.24 224.894 91.24C223.467 91.24 222.247 90.7333 221.234 89.72C220.234 88.7067 219.734 87.4667 219.734 86C219.734 84.5333 220.234 83.2933 221.234 82.28C222.247 81.2667 223.467 80.76 224.894 80.76C226.667 80.76 228.014 81.4933 228.934 82.96V81ZM222.194 88.82C222.954 89.58 223.887 89.96 224.994 89.96C226.1 89.96 227.034 89.58 227.794 88.82C228.554 88.0467 228.934 87.1067 228.934 86C228.934 84.8933 228.554 83.96 227.794 83.2C227.034 82.4267 226.1 82.04 224.994 82.04C223.887 82.04 222.954 82.4267 222.194 83.2C221.434 83.96 221.054 84.8933 221.054 86C221.054 87.1067 221.434 88.0467 222.194 88.82ZM247.048 77V78.32H242.748V91H241.348V78.32H237.048V77H247.048ZM251.672 80.76C253.152 80.76 254.346 81.2867 255.252 82.34C256.172 83.38 256.632 84.6133 256.632 86.04C256.632 86.1867 256.619 86.3933 256.592 86.66H247.812C247.946 87.6733 248.372 88.48 249.092 89.08C249.826 89.6667 250.726 89.96 251.792 89.96C252.552 89.96 253.206 89.8067 253.752 89.5C254.312 89.18 254.732 88.7667 255.012 88.26L256.172 88.94C255.732 89.6467 255.132 90.2067 254.372 90.62C253.612 91.0333 252.746 91.24 251.772 91.24C250.199 91.24 248.919 90.7467 247.932 89.76C246.946 88.7733 246.452 87.52 246.452 86C246.452 84.5067 246.939 83.26 247.912 82.26C248.886 81.26 250.139 80.76 251.672 80.76ZM251.672 82.04C250.632 82.04 249.759 82.3533 249.052 82.98C248.359 83.5933 247.946 84.3933 247.812 85.38H255.272C255.139 84.3267 254.732 83.5067 254.052 82.92C253.372 82.3333 252.579 82.04 251.672 82.04ZM267.332 81H268.652V91H267.332V89.04C266.412 90.5067 265.065 91.24 263.292 91.24C261.865 91.24 260.645 90.7333 259.632 89.72C258.632 88.7067 258.132 87.4667 258.132 86C258.132 84.5333 258.632 83.2933 259.632 82.28C260.645 81.2667 261.865 80.76 263.292 80.76C265.065 80.76 266.412 81.4933 267.332 82.96V81ZM260.592 88.82C261.352 89.58 262.285 89.96 263.392 89.96C264.499 89.96 265.432 89.58 266.192 88.82C266.952 88.0467 267.332 87.1067 267.332 86C267.332 84.8933 266.952 83.96 266.192 83.2C265.432 82.4267 264.499 82.04 263.392 82.04C262.285 82.04 261.352 82.4267 260.592 83.2C259.832 83.96 259.452 84.8933 259.452 86C259.452 87.1067 259.832 88.0467 260.592 88.82ZM282.107 80.76C283.227 80.76 284.127 81.12 284.807 81.84C285.5 82.56 285.847 83.5333 285.847 84.76V91H284.527V84.76C284.527 83.8933 284.3 83.2267 283.847 82.76C283.407 82.28 282.82 82.04 282.087 82.04C281.26 82.04 280.587 82.32 280.067 82.88C279.56 83.4267 279.307 84.2867 279.307 85.46V91H277.987V84.76C277.987 83.88 277.774 83.2067 277.347 82.74C276.934 82.2733 276.367 82.04 275.647 82.04C274.847 82.04 274.167 82.32 273.607 82.88C273.047 83.44 272.767 84.3 272.767 85.46V91H271.447V81H272.767V82.46C273.487 81.3267 274.507 80.76 275.827 80.76C277.267 80.76 278.28 81.3667 278.867 82.58C279.587 81.3667 280.667 80.76 282.107 80.76ZM146.78 113.74C145.767 114.74 144.527 115.24 143.06 115.24C141.593 115.24 140.347 114.74 139.32 113.74C138.307 112.727 137.8 111.48 137.8 110C137.8 108.52 138.307 107.28 139.32 106.28C140.347 105.267 141.593 104.76 143.06 104.76C144.527 104.76 145.767 105.267 146.78 106.28C147.807 107.28 148.32 108.52 148.32 110C148.32 111.48 147.807 112.727 146.78 113.74ZM140.26 112.82C141.02 113.58 141.953 113.96 143.06 113.96C144.167 113.96 145.1 113.58 145.86 112.82C146.62 112.047 147 111.107 147 110C147 108.893 146.62 107.96 145.86 107.2C145.1 106.427 144.167 106.04 143.06 106.04C141.953 106.04 141.02 106.427 140.26 107.2C139.5 107.96 139.12 108.893 139.12 110C139.12 111.107 139.5 112.047 140.26 112.82ZM155.209 104.76C156.422 104.76 157.376 105.133 158.069 105.88C158.776 106.613 159.129 107.607 159.129 108.86V115H157.809V108.86C157.809 107.967 157.569 107.273 157.089 106.78C156.622 106.287 155.956 106.04 155.089 106.04C154.129 106.04 153.349 106.347 152.749 106.96C152.149 107.56 151.849 108.493 151.849 109.76V115H150.529V105H151.849V106.56C152.596 105.36 153.716 104.76 155.209 104.76ZM174.641 107.74C175.321 108.033 175.861 108.48 176.261 109.08C176.675 109.667 176.881 110.34 176.881 111.1C176.881 112.18 176.501 113.1 175.741 113.86C174.981 114.62 174.061 115 172.981 115H166.881V101H172.521C173.561 101 174.448 101.373 175.181 102.12C175.915 102.853 176.281 103.733 176.281 104.76C176.281 106.067 175.735 107.06 174.641 107.74ZM172.521 102.32H168.281V107.2H172.521C173.175 107.2 173.728 106.967 174.181 106.5C174.648 106.02 174.881 105.44 174.881 104.76C174.881 104.093 174.648 103.52 174.181 103.04C173.728 102.56 173.175 102.32 172.521 102.32ZM172.981 113.68C173.675 113.68 174.261 113.433 174.741 112.94C175.235 112.433 175.481 111.82 175.481 111.1C175.481 110.393 175.235 109.787 174.741 109.28C174.261 108.773 173.675 108.52 172.981 108.52H168.281V113.68H172.981ZM183.704 104.76C185.184 104.76 186.377 105.287 187.284 106.34C188.204 107.38 188.664 108.613 188.664 110.04C188.664 110.187 188.65 110.393 188.624 110.66H179.844C179.977 111.673 180.404 112.48 181.124 113.08C181.857 113.667 182.757 113.96 183.824 113.96C184.584 113.96 185.237 113.807 185.784 113.5C186.344 113.18 186.764 112.767 187.044 112.26L188.204 112.94C187.764 113.647 187.164 114.207 186.404 114.62C185.644 115.033 184.777 115.24 183.804 115.24C182.23 115.24 180.95 114.747 179.964 113.76C178.977 112.773 178.484 111.52 178.484 110C178.484 108.507 178.97 107.26 179.944 106.26C180.917 105.26 182.17 104.76 183.704 104.76ZM183.704 106.04C182.664 106.04 181.79 106.353 181.084 106.98C180.39 107.593 179.977 108.393 179.844 109.38H187.304C187.17 108.327 186.764 107.507 186.084 106.92C185.404 106.333 184.61 106.04 183.704 106.04ZM195.443 104.76C196.657 104.76 197.61 105.133 198.303 105.88C199.01 106.613 199.363 107.607 199.363 108.86V115H198.043V108.86C198.043 107.967 197.803 107.273 197.323 106.78C196.857 106.287 196.19 106.04 195.323 106.04C194.363 106.04 193.583 106.347 192.983 106.96C192.383 107.56 192.083 108.493 192.083 109.76V115H190.763V101H192.083V106.56C192.83 105.36 193.95 104.76 195.443 104.76ZM210.516 105H211.836V115H210.516V113.04C209.596 114.507 208.249 115.24 206.476 115.24C205.049 115.24 203.829 114.733 202.816 113.72C201.816 112.707 201.316 111.467 201.316 110C201.316 108.533 201.816 107.293 202.816 106.28C203.829 105.267 205.049 104.76 206.476 104.76C208.249 104.76 209.596 105.493 210.516 106.96V105ZM203.776 112.82C204.536 113.58 205.469 113.96 206.576 113.96C207.682 113.96 208.616 113.58 209.376 112.82C210.136 112.047 210.516 111.107 210.516 110C210.516 108.893 210.136 107.96 209.376 107.2C208.616 106.427 207.682 106.04 206.576 106.04C205.469 106.04 204.536 106.427 203.776 107.2C203.016 107.96 202.636 108.893 202.636 110C202.636 111.107 203.016 112.047 203.776 112.82ZM219.31 104.76C220.524 104.76 221.477 105.133 222.17 105.88C222.877 106.613 223.23 107.607 223.23 108.86V115H221.91V108.86C221.91 107.967 221.67 107.273 221.19 106.78C220.724 106.287 220.057 106.04 219.19 106.04C218.23 106.04 217.45 106.347 216.85 106.96C216.25 107.56 215.95 108.493 215.95 109.76V115H214.63V105H215.95V106.56C216.697 105.36 217.817 104.76 219.31 104.76ZM230.443 115.24C228.936 115.24 227.683 114.74 226.683 113.74C225.683 112.727 225.183 111.48 225.183 110C225.183 108.52 225.683 107.28 226.683 106.28C227.683 105.267 228.936 104.76 230.443 104.76C231.429 104.76 232.316 105 233.103 105.48C233.889 105.947 234.463 106.58 234.823 107.38L233.743 108C233.476 107.4 233.043 106.927 232.443 106.58C231.856 106.22 231.189 106.04 230.443 106.04C229.336 106.04 228.403 106.427 227.643 107.2C226.883 107.96 226.503 108.893 226.503 110C226.503 111.107 226.883 112.047 227.643 112.82C228.403 113.58 229.336 113.96 230.443 113.96C231.189 113.96 231.856 113.787 232.443 113.44C233.029 113.08 233.489 112.6 233.823 112L234.923 112.64C234.509 113.44 233.903 114.073 233.103 114.54C232.303 115.007 231.416 115.24 230.443 115.24ZM241.34 104.76C242.82 104.76 244.014 105.287 244.92 106.34C245.84 107.38 246.3 108.613 246.3 110.04C246.3 110.187 246.287 110.393 246.26 110.66H237.48C237.614 111.673 238.04 112.48 238.76 113.08C239.494 113.667 240.394 113.96 241.46 113.96C242.22 113.96 242.874 113.807 243.42 113.5C243.98 113.18 244.4 112.767 244.68 112.26L245.84 112.94C245.4 113.647 244.8 114.207 244.04 114.62C243.28 115.033 242.414 115.24 241.44 115.24C239.867 115.24 238.587 114.747 237.6 113.76C236.614 112.773 236.12 111.52 236.12 110C236.12 108.507 236.607 107.26 237.58 106.26C238.554 105.26 239.807 104.76 241.34 104.76ZM241.34 106.04C240.3 106.04 239.427 106.353 238.72 106.98C238.027 107.593 237.614 108.393 237.48 109.38H244.94C244.807 108.327 244.4 107.507 243.72 106.92C243.04 106.333 242.247 106.04 241.34 106.04Z" fill="#6A779B"/>
</svg>
