<svg width="32" height="33" viewBox="0 0 32 33" fill="none" xmlns="http://www.w3.org/2000/svg">
<path fill-rule="evenodd" clip-rule="evenodd" d="M15.4342 3.75357C14.5967 3.86192 13.7784 4.24953 13.1542 4.83354C12.9247 5.04828 12.6593 5.34085 12.5644 5.48372C12.3954 5.73848 12.3857 5.74453 12.0607 5.80023C11.4429 5.90603 10.9054 6.2455 10.5673 6.74343C10.2123 7.26618 10.0292 7.83643 9.98898 8.54453C9.95835 9.08444 10.0224 9.40739 10.2488 9.85409C10.3321 10.0185 10.3673 10.1699 10.3673 10.3633C10.3673 10.6271 10.3576 10.6481 10.132 10.8689C9.77517 11.2182 9.66519 11.4906 9.64012 12.0876C9.62365 12.4806 9.64085 12.6706 9.72266 12.9971C9.94399 13.8807 10.3627 14.4823 10.9666 14.7844C11.158 14.8801 11.3615 14.9588 11.4186 14.9591C11.4994 14.9595 11.5723 15.0553 11.7439 15.386C12.0911 16.0552 12.6854 16.9309 13.0284 17.2788C13.7478 18.0084 14.8799 18.4011 16.0708 18.3343C17.0709 18.2781 17.9962 17.901 18.5918 17.3068C18.9501 16.9493 19.5465 16.0771 19.905 15.386C20.0766 15.0553 20.1496 14.9595 20.2303 14.9591C20.2875 14.9588 20.4909 14.8801 20.6823 14.7844C21.2863 14.4823 21.7049 13.8807 21.9263 12.9971C22.0081 12.6706 22.0253 12.4806 22.0088 12.0876C21.9837 11.4897 21.8738 11.2182 21.5147 10.8667L21.2771 10.6342L21.2529 9.61299C21.2252 8.44369 21.1682 7.83126 21.0325 7.24775C20.7612 6.08091 20.23 5.28628 19.3269 4.69608C18.1054 3.89796 16.7863 3.57859 15.4342 3.75357ZM14.093 8.5343C15.0261 9.17858 15.7709 9.47784 17.1027 9.74352C17.6236 9.84745 19.0869 10.054 19.7452 10.1166L20.1017 10.1505L20.1082 10.3544C20.139 11.3236 20.1679 11.4138 20.4993 11.5732C20.5916 11.6176 20.709 11.7004 20.7603 11.7571C21.045 12.0722 20.7531 13.3309 20.3184 13.6625C20.197 13.7551 20.0629 13.8008 19.8428 13.8244C19.6742 13.8425 19.487 13.8889 19.4269 13.9274C19.3667 13.9659 19.16 14.2966 18.9676 14.6623C18.5328 15.4888 18.0751 16.1918 17.7797 16.4865C17.3468 16.9186 16.6287 17.1694 15.8245 17.1694C15.0202 17.1694 14.3022 16.9186 13.8692 16.4865C13.5737 16.1916 13.1161 15.4887 12.6804 14.6606C12.2958 13.9295 12.1933 13.8278 11.8421 13.8278C11.3982 13.8278 11.0876 13.5359 10.905 12.947C10.669 12.186 10.7346 11.7613 11.1155 11.5861C11.4327 11.44 11.4945 11.3177 11.5186 10.7875C11.5302 10.535 11.5469 10.3231 11.5557 10.3165C11.5646 10.31 11.7267 10.2199 11.916 10.1162C12.6328 9.72366 13.2265 9.16108 13.5172 8.59885C13.61 8.41945 13.6921 8.2726 13.6997 8.2725C13.7073 8.27241 13.8843 8.3902 14.093 8.5343ZM12.2601 18.4472C12.0305 18.5052 7.19695 20.4507 6.85851 20.6213C5.94599 21.0814 5.32432 21.748 4.92447 22.695C4.64075 23.3672 4.61523 23.6545 4.61523 26.1789C4.61523 28.2206 4.62335 28.4523 4.69911 28.5807C4.88406 28.8938 4.04125 28.8717 15.8245 28.8717C27.6077 28.8717 26.7649 28.8938 26.9498 28.5807C27.0256 28.4523 27.0337 28.2206 27.0337 26.1789C27.0337 23.6545 27.0082 23.3672 26.7245 22.695C26.3246 21.748 25.7029 21.0814 24.7904 20.6213C24.4157 20.4324 19.5988 18.5 19.3674 18.4458C19.1758 18.4009 18.9484 18.4763 18.8115 18.6302C18.7643 18.6832 18.4597 19.4661 18.1346 20.37C17.8095 21.2739 17.5194 22.0687 17.49 22.1363C17.4394 22.2527 17.4301 22.2415 17.3155 21.9243L17.1944 21.5892L17.4271 21.0036C17.6479 20.448 17.6567 20.4078 17.5998 20.2178C17.559 20.0819 17.4894 19.9869 17.3827 19.9218C17.2367 19.8328 17.1268 19.826 15.8245 19.826C14.5222 19.826 14.4122 19.8328 14.2662 19.9218C14.1595 19.9869 14.0899 20.0819 14.0491 20.2178C13.9922 20.4078 14.001 20.448 14.2218 21.0036L14.4545 21.5892L14.3334 21.9243C14.2188 22.2415 14.2095 22.2527 14.1589 22.1363C14.1295 22.0687 13.8394 21.2739 13.5143 20.37C13.1892 19.4661 12.8846 18.6832 12.8375 18.6302C12.7657 18.5495 12.4677 18.3882 12.4215 18.405C12.4139 18.4078 12.3412 18.4268 12.2601 18.4472ZM23.9318 23.5771C24.0239 23.6094 24.1456 23.6983 24.2022 23.7746C24.2993 23.9055 24.3051 23.9744 24.3051 24.9878C24.3051 26.0018 24.2993 26.07 24.2021 26.201C24.0083 26.462 24.0151 26.4612 21.8331 26.462C19.6023 26.4628 19.5374 26.4551 19.392 26.174C19.2739 25.9454 19.2789 23.981 19.3981 23.8066C19.4889 23.6736 19.5817 23.6039 19.7329 23.5547C19.9212 23.4935 23.7515 23.5139 23.9318 23.5771Z" fill="#062037"/>
</svg>
