<svg width="32" height="33" viewBox="0 0 32 33" fill="none" xmlns="http://www.w3.org/2000/svg">
<path fill-rule="evenodd" clip-rule="evenodd" d="M15.0344 3.13848C14.0904 3.31107 13.0535 3.8814 12.5073 4.52875C12.1493 4.95294 11.7583 5.75254 11.7026 6.17441L11.6597 6.49836L9.70792 6.52553L7.75616 6.5527L7.32032 6.80342C6.98472 6.99643 6.83892 7.14386 6.68637 7.44426L6.48826 7.83445L6.46608 16.6389C6.45229 22.0923 6.47329 25.6372 6.52131 25.9527C6.61315 26.5567 6.86134 26.9304 7.34473 27.1925L7.67691 27.3726L12.7881 27.392L17.8993 27.4114L15.6345 25.1327C13.6383 23.1242 13.358 22.8114 13.2705 22.4941C13.1484 22.0518 13.2476 21.5975 13.5831 21.0618C13.8766 20.5933 15.4638 19.0061 15.7489 18.8961C15.8695 18.8495 16.1919 18.8115 16.4654 18.8115C16.8648 18.8115 17.0612 18.8614 17.463 19.0651C17.9793 19.3269 18.3687 19.6954 19.5634 21.0532C19.9121 21.4495 20.2217 21.7765 20.2515 21.7798C20.2812 21.7831 21.4491 20.5399 22.8467 19.0171L25.3878 16.2483L25.3861 12.0436C25.3845 8.12762 25.3743 7.81677 25.238 7.51733C25.0604 7.12698 24.8151 6.88839 24.3962 6.6986C24.1281 6.57714 23.7906 6.55125 22.1646 6.52778L20.2489 6.50005L20.1955 6.17971C20.1661 6.00351 20.02 5.61179 19.8708 5.30921C19.3979 4.35021 18.4025 3.55512 17.2946 3.25126C16.7491 3.10174 15.5603 3.04242 15.0344 3.13848ZM16.7782 5.08622C17.1982 5.21018 17.8113 5.79249 18.0514 6.29523C18.2923 6.79981 18.4936 7.56235 18.4936 7.97022V8.26878L20.4945 8.29498C22.713 8.324 22.7621 8.33445 23.2321 8.87762C23.4634 9.14474 23.643 9.59458 23.644 9.90881C23.6444 10.0418 23.226 10.0495 15.9625 10.0495C11.7374 10.0495 8.26498 10.0223 8.2458 9.98919C8.1752 9.86676 8.40881 9.16797 8.60969 8.90085C9.01478 8.3621 9.18856 8.32416 11.3813 8.29603C13.3262 8.27103 13.3426 8.26934 13.375 8.09506C13.393 7.99836 13.4452 7.68887 13.4911 7.40728C13.6484 6.44105 14.2139 5.51902 14.8557 5.18228C15.3771 4.90881 16.0615 4.87465 16.7782 5.08622ZM15.7509 6.59201C15.3916 6.73767 15.0862 7.42312 15.0862 8.08397V8.28099H15.9648H16.8435L16.7905 7.93935C16.6222 6.85399 16.2606 6.38542 15.7509 6.59201ZM10.9589 11.816C11.4036 11.9454 11.5995 12.1906 11.5995 12.618C11.5995 13.3211 11.2581 13.5384 10.2223 13.4943C9.64468 13.4698 9.52368 13.439 9.34855 13.2721C9.09997 13.0352 9.01201 12.6209 9.14236 12.3016C9.28571 11.9506 9.43231 11.8633 9.96713 11.8101C10.233 11.7837 10.5042 11.7566 10.5699 11.7498C10.6355 11.7431 10.8106 11.7729 10.9589 11.816ZM21.8874 11.8049C22.2389 11.8158 22.3482 11.8573 22.5411 12.0529C22.7226 12.237 22.7728 12.36 22.7728 12.6209C22.7728 12.8041 22.7343 13.027 22.6872 13.1162C22.4886 13.4926 22.3274 13.5061 18.0405 13.5057C14.2128 13.5055 14.0042 13.4979 13.767 13.3512C13.4381 13.1478 13.2955 12.7295 13.4223 12.3398C13.5129 12.0612 13.677 11.9228 14.0301 11.827C14.1849 11.785 20.6506 11.7668 21.8874 11.8049ZM11.3678 15.5095C11.6763 15.8225 11.6946 16.359 11.4083 16.6969C11.2265 16.9114 11.179 16.9237 10.4321 16.9496C9.68233 16.9756 9.63605 16.9674 9.40085 16.7666C9.10662 16.5155 9.01787 16.1814 9.14307 15.7965C9.27692 15.3852 9.5274 15.2815 10.3971 15.2778C11.1102 15.2746 11.1444 15.2828 11.3678 15.5095ZM22.5411 15.5095C22.7226 15.6936 22.7728 15.8166 22.7728 16.0775C22.7728 16.494 22.6733 16.6864 22.3781 16.8413C22.1804 16.945 21.5461 16.9627 18.0233 16.9627H13.9001L13.6478 16.734C13.4305 16.5372 13.3957 16.452 13.3957 16.1186C13.3957 15.7852 13.4305 15.7 13.6478 15.5032L13.9001 15.2746H18.1048H22.3095L22.5411 15.5095ZM26.5636 17.1435C26.4963 17.1988 25.0966 18.7362 23.4532 20.5599C21.8098 22.3837 20.405 23.8801 20.3313 23.8853C20.2577 23.8906 20.1439 23.8894 20.0785 23.8827C20.0131 23.876 19.193 23.0753 18.2559 22.1032C16.7982 20.5912 16.5186 20.3362 16.3202 20.3374C15.9775 20.3395 14.9277 21.4122 14.9277 21.7604C14.9277 21.9677 15.3057 22.4308 17.4299 24.8258C18.8062 26.3775 19.9957 27.6675 20.0731 27.6925C20.1506 27.7174 20.2865 27.7099 20.3751 27.6757C20.5911 27.5926 28.3754 19.162 28.5342 18.8393C28.6523 18.5991 28.6493 18.5696 28.4778 18.2883C28.3782 18.1248 28.0322 17.7777 27.7088 17.517C27.1056 17.0308 26.8159 16.9364 26.5636 17.1435Z" fill="#33C24F"/>
</svg>
