<svg width="218" height="64" viewBox="0 0 218 64" fill="none" xmlns="http://www.w3.org/2000/svg">
<path d="M71.8025 22.2372H73.8107C75.0337 22.057 76.2826 22.2155 77.4219 22.6952C78.8512 23.5552 79.888 24.9396 80.3109 26.5531C80.6104 27.3987 80.6104 27.3987 81.3326 27.0992H81.8963V20.4052H62.9945V21.5854H63.7696C64.1064 21.5831 64.4395 21.6563 64.7444 21.7995C65.0492 21.9428 65.3181 22.1526 65.5312 22.4134C66.2535 23.576 66.3768 24.8796 66.3768 31.6617C66.3768 38.8666 66.2182 40.6282 65.5312 41.5266C65.3616 41.7576 65.142 41.9472 64.8888 42.0814C64.6357 42.2157 64.3554 42.291 64.0691 42.3017C62.9945 42.4955 62.9945 42.4779 62.9945 42.9535C62.9351 43.1125 62.9351 43.2877 62.9945 43.4467H74.9205C74.9994 43.2911 75.0405 43.1191 75.0405 42.9447C75.0405 42.7702 74.9994 42.5982 74.9205 42.4426C74.6316 42.3623 74.3372 42.3034 74.0397 42.2665C73.7178 42.2282 73.3996 42.1634 73.0884 42.0727C72.6428 41.7473 72.2897 41.3113 72.0642 40.8077C71.8387 40.3042 71.7484 39.7504 71.8025 39.2013C71.6263 38.0387 71.5382 35.9071 71.5382 34.1455V32.7539H72.2429C73.1207 32.727 73.9981 32.8219 74.85 33.0357C75.2581 33.2879 75.6055 33.6271 75.8674 34.0291C76.1293 34.431 76.2992 34.8858 76.365 35.361L76.5235 35.9071H77.5981V28.1033H76.6116L76.453 28.8608C76.3863 29.3468 76.2066 29.8103 75.9281 30.2141C75.6497 30.618 75.2805 30.9509 74.85 31.1861C74.4331 31.3101 73.9939 31.3402 73.564 31.2742H71.5382V29.3716C71.5382 27.3987 71.6439 23.2413 71.7144 22.5895L71.8025 22.2372ZM154.245 36.2066C153.412 34.8664 152.113 33.8814 150.598 33.4409C149.437 33.0779 148.363 32.478 147.445 31.6793C147.238 31.4795 147.084 31.2322 146.995 30.9589C146.906 30.6856 146.885 30.3947 146.934 30.1115C146.936 29.5561 147.157 29.0239 147.551 28.6318C147.817 28.3525 148.155 28.1509 148.527 28.0485C148.9 27.9461 149.293 27.9468 149.665 28.0505C150.435 28.2699 151.131 28.6936 151.68 29.2767C152.229 29.8597 152.61 30.5803 152.783 31.3622C153.064 32.155 153.1 32.155 153.611 31.9436L153.928 31.8203V27.4339L153.699 27.3282C151.964 26.7191 150.125 26.4674 148.291 26.5883C146.711 26.6284 145.203 27.2566 144.063 28.3499C143.545 28.8342 143.14 29.4256 142.876 30.0829C142.611 30.7402 142.493 31.4474 142.53 32.155C142.54 33.2368 142.97 34.2725 143.728 35.044C144.566 35.8684 145.595 36.4734 146.723 36.8055C149.453 37.8801 150.246 38.5671 150.246 39.8179C150.258 40.3453 150.09 40.861 149.77 41.2804C149.449 41.6997 148.996 41.9978 148.484 42.1255C147.869 42.2607 147.232 42.2607 146.617 42.1255C145.812 41.813 145.093 41.3126 144.52 40.6661C143.947 40.0196 143.536 39.2456 143.323 38.4086L143.094 37.8449H142.777C142.625 37.8561 142.477 37.8918 142.336 37.9506H142.16V42.9535H142.46C143.65 43.3494 144.878 43.621 146.124 43.7638H147.885C148.649 43.8199 149.417 43.7484 150.158 43.5524C151.098 43.3789 151.976 42.9625 152.706 42.3444C153.435 41.7263 153.99 40.9282 154.315 40.0293C154.525 39.5272 154.633 38.9881 154.632 38.4438C154.702 37.677 154.568 36.9054 154.245 36.2066ZM137.651 27.0992C136.595 26.656 135.458 26.441 134.313 26.4683C133.168 26.4957 132.043 26.7647 131.009 27.2577C130.038 27.7328 129.177 28.4063 128.483 29.2346C127.788 30.063 127.274 31.0278 126.975 32.0669C126.594 33.2004 126.433 34.3961 126.5 35.5901C126.487 36.2397 126.54 36.8889 126.658 37.5278C126.943 39.0988 127.701 40.5451 128.832 41.6724C129.962 42.7998 131.411 43.5542 132.982 43.8343C134.006 43.9632 135.042 43.9632 136.065 43.8343C137.127 43.6471 138.144 43.2584 139.06 42.6893C139.818 42.2645 140.459 41.6594 140.927 40.9277C140.897 40.8128 140.844 40.7053 140.771 40.6115C140.699 40.5176 140.608 40.4394 140.504 40.3816C140.303 40.4544 140.114 40.5552 139.941 40.681C139.064 41.2585 138.03 41.5479 136.981 41.509C136.285 41.556 135.587 41.4477 134.938 41.1917C134.289 40.9358 133.706 40.5387 133.229 40.0293C132.86 39.6868 132.556 39.2811 132.331 38.8314C131.783 37.7362 131.488 36.5323 131.467 35.3082V34.6212H141.227V34.2689C141.248 33.9169 141.248 33.5639 141.227 33.2119C141.223 31.9681 140.89 30.7473 140.262 29.6737C139.634 28.6 138.733 27.7118 137.651 27.0992ZM132.736 33.1943H131.503V32.155C131.908 29.495 132.912 27.9095 134.145 27.9095C135.378 27.9095 135.907 29.4773 136.136 32.3487V33.1591H135.079L132.736 33.1943ZM107.404 26.5179C106.795 26.4943 106.19 26.6213 105.643 26.8878C104.452 27.466 103.49 28.4277 102.912 29.6183L102.683 30.0411V26.5179H102.595C102.384 26.5179 95.8657 27.8215 95.6544 27.9095C95.443 27.9976 95.5134 28.0152 95.5134 28.3323C95.5134 28.6494 95.5134 28.7022 95.6544 28.7199L96.3414 28.8608C96.5338 28.8655 96.7226 28.914 96.8935 29.0025C97.0644 29.091 97.213 29.2172 97.3279 29.3716C97.7683 29.953 97.8563 30.9747 97.8563 35.3258C97.9433 37.2846 97.8608 39.2473 97.6097 41.1919C97.5506 41.4851 97.4019 41.7528 97.1842 41.9579C96.9665 42.163 96.6904 42.2954 96.3942 42.3369L95.7953 42.4602H95.5663V42.9535C95.5024 43.1178 95.5024 43.3001 95.5663 43.4643H105.414V42.9535C105.448 42.7849 105.448 42.6112 105.414 42.4426C104.821 42.4195 104.231 42.3429 103.652 42.2136C103.337 42.0487 103.079 41.7921 102.912 41.4776C102.745 41.1632 102.678 40.8056 102.718 40.452C102.577 39.4303 102.507 36.4356 102.542 34.1455C102.577 31.8555 102.542 31.7146 102.736 31.556C103.325 31.1041 104.055 30.8734 104.797 30.9042C105.497 30.9195 106.183 31.0942 106.805 31.4151C107.021 31.5348 107.252 31.6237 107.492 31.6793C107.492 31.6793 109.254 27.4163 109.254 27.2225C109.028 26.9606 108.741 26.7589 108.418 26.6359C108.095 26.5129 107.747 26.4723 107.404 26.5179ZM95.531 33.9165C95.4696 32.6577 95.1081 31.4318 94.4769 30.341C93.8457 29.2501 92.9629 28.3259 91.9022 27.6453C90.6416 26.9652 89.2391 26.5903 87.8073 26.5505C86.3755 26.5107 84.9543 26.8072 83.6579 27.4163C81.825 28.3828 80.441 30.0259 79.8001 31.9964C79.138 34.2026 79.138 36.5547 79.8001 38.7609C80.1471 39.9667 80.7959 41.064 81.685 41.9494C82.7923 43.0299 84.2201 43.7221 85.7542 43.9224C86.739 44.0047 87.7289 44.0047 88.7137 43.9224C89.0761 43.8672 89.4349 43.7908 89.7883 43.6934C91.2221 43.2923 92.5121 42.4911 93.5073 41.3836C94.5025 40.2761 95.1616 38.9082 95.4077 37.4397C95.5836 36.2739 95.625 35.0918 95.531 33.9165ZM88.2028 42.7245C86.4412 43.253 85.1201 41.5442 84.6797 37.9506C84.5179 36.0691 84.5179 34.1773 84.6797 32.2959C85.032 29.4069 85.9304 27.9448 87.322 27.9448C87.6028 27.9274 87.8837 27.9775 88.1411 28.0909C88.3985 28.2042 88.6251 28.3776 88.8018 28.5965C89.982 29.7768 90.5634 32.1197 90.5634 35.6429C90.7099 37.6368 90.3965 39.6378 89.6473 41.4914C89.3165 42.032 88.8047 42.4377 88.2028 42.6364V42.7245ZM119.911 26.8702C119.414 26.8062 118.911 26.8062 118.414 26.8702C117.46 26.8694 116.517 27.0736 115.648 27.4691L115.102 27.6981V23.8755C115.198 22.5854 115.198 21.2901 115.102 20C114.891 20 108.162 21.286 108.056 21.3388C108.004 21.4689 108.004 21.6139 108.056 21.744C108.056 22.1139 108.056 22.0963 108.849 22.2724C109.071 22.3224 109.285 22.4055 109.483 22.5191C109.827 22.8424 110.056 23.2692 110.135 23.7346C110.335 25.0752 110.4 26.4326 110.328 27.7862V43.253L110.804 43.3587C111.509 43.5172 113.499 43.8519 114.151 43.9224C115.453 44.0259 116.76 44.0259 118.062 43.9224C119.506 43.7748 120.883 43.2358 122.044 42.3636C123.205 41.4913 124.106 40.3188 124.65 38.9723C124.974 38.1081 125.199 37.2098 125.319 36.2947C125.424 35.0552 125.383 33.8076 125.196 32.5777C125.007 31.1991 124.399 29.9121 123.453 28.891C122.508 27.87 121.271 27.1645 119.911 26.8702ZM115.296 42.425C115.296 42.196 115.12 34.4803 115.155 31.3975V28.9841L115.666 28.8608C116.011 28.8114 116.361 28.8114 116.705 28.8608C117.087 28.822 117.47 28.9086 117.798 29.1074C118.455 29.5614 119.002 30.1588 119.395 30.8545C119.789 31.5502 120.02 32.3261 120.07 33.1238C120.198 34.4066 120.198 35.6989 120.07 36.9817C119.965 38.8461 119.246 40.6234 118.027 42.0375C117.68 42.3663 117.246 42.5867 116.776 42.6716C116.42 42.7335 116.057 42.7335 115.701 42.6716C115.367 42.6716 115.367 42.5659 115.367 42.425H115.296Z" fill="#6A779B"/>
</svg>
