<svg width="34" height="35" viewBox="0 0 34 35" fill="none" xmlns="http://www.w3.org/2000/svg">
<rect y="0.69043" width="34" height="34" rx="17" fill="#EBEEF0"/>
<path fill-rule="evenodd" clip-rule="evenodd" d="M23.5659 12.2561C23.8783 11.9436 23.8783 11.4371 23.5659 11.1247C23.2535 10.8123 22.7469 10.8123 22.4345 11.1247L17.0002 16.559L11.5659 11.1247C11.2535 10.8123 10.7469 10.8123 10.4345 11.1247C10.1221 11.4371 10.1221 11.9436 10.4345 12.2561L15.8688 17.6904L10.4345 23.1247C10.1221 23.4371 10.1221 23.9436 10.4345 24.2561C10.7469 24.5685 11.2535 24.5685 11.5659 24.2561L17.0002 18.8218L22.4345 24.2561C22.7469 24.5685 23.2535 24.5685 23.5659 24.2561C23.8783 23.9436 23.8783 23.4371 23.5659 23.1247L18.1316 17.6904L23.5659 12.2561Z" fill="#052644" fill-opacity="0.4"/>
</svg>
