<svg width="384" height="152" viewBox="0 0 384 152" fill="none" xmlns="http://www.w3.org/2000/svg">
<path fill-rule="evenodd" clip-rule="evenodd" d="M187.801 32.2786C179.05 33.8589 171.73 40.3227 169.064 48.8219C168.004 52.2033 167.706 56.5939 168.305 60.0345C169.846 68.8899 176.286 76.2456 184.853 78.9352C188.233 79.9962 192.621 80.2937 196.06 79.6947C204.911 78.1535 212.263 71.7102 214.951 63.1386C215.683 60.8044 216 58.6419 216 55.9802C216 50.5898 214.404 45.8026 211.174 41.5062C207.524 36.6506 202.045 33.3106 195.998 32.2555C193.991 31.9054 189.802 31.917 187.801 32.2786ZM204.203 48.296C207.223 49.4869 209.093 52.3083 209.111 55.6991C209.121 57.6185 208.713 59.0097 207.705 60.5009C206.287 62.5987 204.031 63.759 201.38 63.7541C199.663 63.7509 198.241 63.3365 196.899 62.4477C196.342 62.0789 195.828 61.8441 195.756 61.926C195.685 62.008 195.399 63.5519 195.119 65.3569C194.84 67.162 194.568 68.7864 194.515 68.967C194.433 69.2479 194.178 69.2952 192.745 69.2952C191.824 69.2952 191.071 69.2318 191.071 69.1545C191.072 69.0773 191.483 66.6633 191.985 63.7903L192.898 58.5669L192.153 57.3391C191.35 56.0174 190.394 53.8879 189.858 52.2296C189.675 51.6623 189.451 51.1179 189.36 51.02C189.266 50.9172 189.194 52.2277 189.192 54.1143C189.189 55.914 189.102 57.7568 188.997 58.2091C187.987 62.5946 183.644 64.8832 179.368 63.2828C177.139 62.4481 175.346 59.9764 174.955 57.1992C174.854 56.4772 174.769 54.1777 174.767 52.0889L174.763 48.2914H176.573H178.382L178.253 51.9282C178.102 56.1687 178.276 57.7283 179.041 58.9785C179.749 60.136 180.729 60.6617 182.186 60.6656C183.495 60.669 184.305 60.2457 185.019 59.186C185.726 58.1367 185.82 57.3798 185.821 52.7453L185.822 48.2914H188.874H191.925L192.271 49.651C192.647 51.1274 193.462 53.3045 193.691 53.4465C193.77 53.4952 194.017 53.0333 194.241 52.4203C194.995 50.3499 197.029 48.604 199.412 47.981C200.678 47.6498 202.942 47.7987 204.203 48.296ZM199.599 51.2111C197.977 52.0537 196.867 54.0854 196.411 57.0469C196.298 57.7802 196.342 57.8892 197.073 58.683C199.224 61.0172 202.583 61.3544 204.415 59.42C205.281 58.5041 205.682 57.3594 205.685 55.7927C205.688 53.5785 204.726 51.9184 203.026 51.2081C202.128 50.8326 200.325 50.8343 199.599 51.2111Z" fill="#6A779B"/>
<path fill-rule="evenodd" clip-rule="evenodd" d="M155.352 33.296C152.7 34.4776 151.05 35.7702 150.162 37.3632C149.709 38.1768 149.412 39.6471 149.507 40.6121L149.561 41.1661L150.176 41.1163C152.266 40.9472 154.104 39.5748 155.11 37.4311C155.55 36.4931 156.4 33.352 156.312 32.9855C156.294 32.9098 156.018 32.9993 155.352 33.296ZM146.08 35.8523C144.992 38.0335 144.581 39.4088 144.581 40.8625C144.582 42.5134 145.043 43.6827 146.216 45.0053L146.537 45.3673L146.912 45.0053C148.227 43.7373 148.9 42.0706 148.78 40.3831C148.718 39.5084 148.518 38.6454 148.126 37.5643C147.798 36.6583 146.877 34.7729 146.742 34.7308C146.693 34.7157 146.395 35.2203 146.08 35.8523ZM153.781 40.8625C153.203 41.0555 152.429 41.3607 152.061 41.5408C151.693 41.7207 151.372 41.868 151.348 41.868C151.324 41.868 150.95 42.1009 150.516 42.3856C149.394 43.1221 148.513 44.067 148.049 45.0325C147.619 45.9269 147.493 46.4414 147.484 47.3382L147.477 48.0219L148.245 47.9973C149.815 47.9469 150.969 47.485 152.048 46.4748C153.163 45.4308 153.975 43.9998 154.713 41.7803C154.934 41.1156 155.115 40.5558 155.115 40.5362C155.115 40.4488 154.76 40.5356 153.781 40.8625ZM142.11 43.6959C141.647 45.3732 141.522 46.1014 141.48 47.3784C141.45 48.2819 141.471 48.7301 141.563 49.1624C141.887 50.6751 142.668 51.9139 143.871 52.82C144.204 53.0709 144.325 53.1626 144.417 53.1389C144.47 53.1253 144.512 53.0734 144.58 52.9917C144.937 52.5579 145.581 51.1711 145.709 50.5559C146.066 48.8516 145.576 47.0777 144.153 44.9248C143.61 44.1043 142.6 42.8244 142.458 42.7773C142.409 42.7609 142.26 43.154 142.11 43.6959ZM150.265 48.2367C147.868 49.8535 146.757 50.9312 146.004 52.3731C145.525 53.2894 145.314 54.1171 145.314 55.0775C145.315 55.931 145.535 57.0718 145.7 57.0718C145.914 57.0718 147.073 56.6525 147.522 56.4124C149.493 55.3595 150.534 53.4526 150.871 50.2743C151 49.0648 151.031 47.8186 150.932 47.8244C150.899 47.8263 150.599 48.0119 150.265 48.2367ZM139.192 51.8234C139.192 52.2117 139.409 54.0831 139.521 54.6585C139.687 55.5141 140.099 56.7173 140.472 57.4338C140.768 58.0014 141.006 58.3159 141.576 58.8901C142.391 59.7103 142.978 60.0765 144.028 60.4204L144.068 60.4336C144.438 60.555 144.618 60.6138 144.725 60.551C144.827 60.4921 144.865 60.3261 144.94 60.0044L144.948 59.9678C145.088 59.3652 145.082 57.6214 144.938 57.112C144.506 55.5814 143.402 54.2051 141.566 52.9101C140.675 52.2815 139.426 51.5212 139.285 51.5212C139.231 51.5212 139.192 51.6502 139.192 51.8234ZM150.052 55.2417C148.323 57.009 147.198 58.6931 146.789 60.1286C146.546 60.9799 146.489 62.2653 146.664 62.9442C146.827 63.5731 147.055 64.2053 147.277 64.6378C147.357 64.7938 147.398 64.8734 147.459 64.8939C147.522 64.9151 147.607 64.8719 147.782 64.7837C148.615 64.3619 149.492 63.6267 150.071 62.8637C150.408 62.4197 150.882 61.3512 151.034 60.6917C151.233 59.8328 151.221 58.0698 151.007 56.6696C150.808 55.3669 150.676 54.7389 150.6 54.7389C150.569 54.7389 150.322 54.9652 150.052 55.2417ZM138.266 60.0616C138.452 60.6579 139.455 62.3936 140.145 63.3127C141.521 65.1443 142.94 66.0737 144.735 66.3182C145.403 66.4092 146.658 66.3308 146.789 66.1901C146.872 66.1011 146.615 64.886 146.387 64.2872C146.152 63.6707 145.522 62.7434 145.021 62.2772C143.692 61.0399 141.572 60.2542 138.679 59.9272C138.212 59.8744 138.208 59.8759 138.266 60.0616ZM151.613 62.4436C150.469 63.871 149.368 65.8633 149.047 67.087C148.593 68.8149 148.842 70.4248 149.793 71.9236L150.117 72.435L150.465 72.1968C151.652 71.3837 152.495 70.2756 152.947 68.9315C153.115 68.4334 153.134 68.2286 153.131 67.0065C153.128 65.4856 152.999 64.7633 152.385 62.8256L152.079 61.8623L151.613 62.4436ZM139.435 66.5144C139.435 66.5451 139.655 66.8961 139.924 67.2943C141.388 69.4614 143.02 71.0317 144.469 71.6674C145.098 71.9434 145.969 72.1147 146.743 72.1147C147.518 72.1147 148.644 71.8996 148.705 71.7397C148.728 71.6817 148.666 71.3722 148.568 71.052C148.248 70.0035 147.764 69.1951 147.041 68.5026C145.991 67.4959 144.821 67.0144 142.627 66.685C141.727 66.5498 139.435 66.4274 139.435 66.5144ZM146.062 72.7571C145.001 72.843 143.452 73.0834 143.355 73.1775C143.244 73.284 145.043 75.0026 146.073 75.7746C146.936 76.4217 147.848 76.8948 148.81 77.1949C149.619 77.4468 151.161 77.4619 151.961 77.2256C152.491 77.0687 153.418 76.6567 153.418 76.5776C153.418 76.5539 153.311 76.3246 153.181 76.0679C152.312 74.3556 150.753 73.1958 148.851 72.8469C148.22 72.7312 146.906 72.6888 146.062 72.7571ZM153.92 77.876C153.924 77.3621 154.391 76.8097 154.895 76.7244C155.551 76.6132 156.212 77.0515 156.331 77.6766C156.43 78.1974 156.003 78.8329 155.444 78.9981C154.735 79.207 153.916 78.6032 153.92 77.876ZM154.336 67.6267C152.646 70.5106 152.322 72.6628 153.295 74.5593C153.459 74.8807 153.751 75.3216 153.943 75.5393L154.292 75.935L154.565 75.7133C155.276 75.1371 156.018 74.079 156.292 73.2508C156.605 72.3056 156.522 70.7875 156.083 69.3895C155.848 68.6434 155.055 66.7471 154.962 66.7083C154.923 66.6923 154.642 67.1056 154.336 67.6267Z" fill="#6A779B"/>
<path fill-rule="evenodd" clip-rule="evenodd" d="M228.648 33.296C231.3 34.4776 232.95 35.7702 233.838 37.3632C234.291 38.1768 234.588 39.6471 234.493 40.6121L234.439 41.1661L233.824 41.1163C231.734 40.9472 229.896 39.5748 228.89 37.4311C228.45 36.4931 227.6 33.352 227.688 32.9855C227.706 32.9098 227.982 32.9993 228.648 33.296ZM237.92 35.8523C239.008 38.0335 239.419 39.4088 239.419 40.8625C239.418 42.5134 238.957 43.6827 237.784 45.0053L237.463 45.3673L237.088 45.0053C235.773 43.7373 235.1 42.0706 235.22 40.3831C235.282 39.5084 235.482 38.6454 235.874 37.5643C236.202 36.6583 237.123 34.7729 237.258 34.7308C237.307 34.7157 237.605 35.2203 237.92 35.8523ZM230.219 40.8625C230.797 41.0555 231.571 41.3607 231.939 41.5408C232.307 41.7207 232.628 41.868 232.652 41.868C232.676 41.868 233.05 42.1009 233.484 42.3856C234.606 43.1221 235.487 44.067 235.951 45.0325C236.381 45.9269 236.507 46.4414 236.516 47.3382L236.523 48.0219L235.755 47.9973C234.185 47.9469 233.031 47.485 231.952 46.4748C230.837 45.4308 230.025 43.9998 229.287 41.7803C229.066 41.1156 228.885 40.5558 228.885 40.5362C228.885 40.4488 229.24 40.5356 230.219 40.8625ZM241.89 43.6959C242.353 45.3732 242.478 46.1014 242.52 47.3784C242.55 48.2819 242.529 48.7301 242.437 49.1624C242.113 50.6751 241.332 51.9139 240.129 52.82C239.796 53.0709 239.675 53.1626 239.583 53.1389C239.53 53.1253 239.488 53.0734 239.42 52.9917C239.063 52.5579 238.419 51.1711 238.291 50.5559C237.934 48.8516 238.424 47.0777 239.847 44.9248C240.39 44.1043 241.4 42.8244 241.542 42.7773C241.591 42.7609 241.74 43.154 241.89 43.6959ZM233.735 48.2367C236.132 49.8535 237.243 50.9312 237.996 52.3731C238.475 53.2894 238.686 54.1171 238.686 55.0775C238.685 55.931 238.465 57.0718 238.3 57.0718C238.086 57.0718 236.927 56.6525 236.478 56.4124C234.507 55.3595 233.466 53.4526 233.129 50.2743C233 49.0648 232.969 47.8186 233.068 47.8244C233.101 47.8263 233.401 48.0119 233.735 48.2367ZM244.808 51.8234C244.808 52.2117 244.591 54.0831 244.479 54.6585C244.313 55.5141 243.901 56.7173 243.528 57.4338C243.232 58.0014 242.994 58.3159 242.424 58.8901C241.609 59.7103 241.022 60.0765 239.972 60.4204L239.932 60.4336C239.562 60.555 239.382 60.6138 239.275 60.551C239.173 60.4921 239.135 60.3261 239.06 60.0044L239.052 59.9678C238.912 59.3652 238.918 57.6214 239.062 57.112C239.494 55.5814 240.598 54.2051 242.434 52.9101C243.325 52.2815 244.574 51.5212 244.715 51.5212C244.769 51.5212 244.808 51.6502 244.808 51.8234ZM233.948 55.2417C235.677 57.009 236.802 58.6931 237.211 60.1286C237.454 60.9799 237.511 62.2653 237.336 62.9442C237.173 63.5731 236.945 64.2053 236.723 64.6378C236.643 64.7938 236.602 64.8734 236.541 64.8939C236.478 64.9151 236.393 64.8719 236.218 64.7837C235.385 64.3619 234.508 63.6267 233.929 62.8637C233.592 62.4197 233.118 61.3512 232.966 60.6917C232.767 59.8328 232.779 58.0698 232.993 56.6696C233.192 55.3669 233.324 54.7389 233.4 54.7389C233.431 54.7389 233.678 54.9652 233.948 55.2417ZM245.734 60.0616C245.548 60.6579 244.545 62.3936 243.855 63.3127C242.479 65.1443 241.06 66.0737 239.265 66.3182C238.597 66.4092 237.342 66.3308 237.211 66.1901C237.128 66.1011 237.385 64.886 237.613 64.2872C237.848 63.6707 238.478 62.7434 238.979 62.2772C240.308 61.0399 242.428 60.2542 245.321 59.9272C245.788 59.8744 245.792 59.8759 245.734 60.0616ZM232.387 62.4436C233.531 63.871 234.632 65.8633 234.953 67.087C235.407 68.8149 235.158 70.4248 234.207 71.9236L233.883 72.435L233.535 72.1968C232.348 71.3837 231.505 70.2756 231.053 68.9315C230.885 68.4334 230.866 68.2286 230.869 67.0065C230.872 65.4856 231.001 64.7633 231.615 62.8256L231.921 61.8623L232.387 62.4436ZM244.565 66.5144C244.565 66.5451 244.345 66.8961 244.076 67.2943C242.612 69.4614 240.98 71.0317 239.531 71.6674C238.902 71.9434 238.031 72.1147 237.257 72.1147C236.482 72.1147 235.356 71.8996 235.295 71.7397C235.272 71.6817 235.334 71.3722 235.432 71.052C235.752 70.0035 236.236 69.1951 236.959 68.5026C238.009 67.4959 239.179 67.0144 241.373 66.685C242.273 66.5498 244.565 66.4274 244.565 66.5144ZM237.938 72.7571C238.999 72.843 240.548 73.0834 240.645 73.1775C240.756 73.284 238.957 75.0026 237.927 75.7746C237.064 76.4217 236.152 76.8948 235.19 77.1949C234.381 77.4468 232.839 77.4619 232.039 77.2256C231.509 77.0687 230.582 76.6567 230.582 76.5776C230.582 76.5539 230.689 76.3246 230.819 76.0679C231.688 74.3556 233.247 73.1958 235.149 72.8469C235.78 72.7312 237.094 72.6888 237.938 72.7571ZM230.08 77.876C230.076 77.3621 229.609 76.8097 229.105 76.7244C228.449 76.6132 227.788 77.0515 227.669 77.6766C227.57 78.1974 227.997 78.8329 228.556 78.9981C229.265 79.207 230.084 78.6032 230.08 77.876ZM229.664 67.6267C231.354 70.5106 231.678 72.6628 230.705 74.5593C230.541 74.8807 230.249 75.3216 230.057 75.5393L229.708 75.935L229.435 75.7133C228.724 75.1371 227.982 74.079 227.708 73.2508C227.395 72.3056 227.478 70.7875 227.917 69.3895C228.152 68.6434 228.945 66.7471 229.038 66.7083C229.077 66.6923 229.358 67.1056 229.664 67.6267Z" fill="#6A779B"/>
<path d="M140.162 120H138.978L137.938 117.248H132.626L131.586 120H130.402L134.706 108.8H135.858L140.162 120ZM135.282 110.192L133.026 116.192H137.538L135.282 110.192ZM148.792 118.64L150.76 112H151.848L149.384 120H148.232L146.168 113.552L144.104 120H142.952L140.488 112H141.576L143.544 118.64L145.64 112H146.696L148.792 118.64ZM160.008 113.568V112H161.064V120H160.008V118.432C159.272 119.605 158.194 120.192 156.776 120.192C155.634 120.192 154.658 119.787 153.848 118.976C153.048 118.165 152.648 117.173 152.648 116C152.648 114.827 153.048 113.835 153.848 113.024C154.658 112.213 155.634 111.808 156.776 111.808C158.194 111.808 159.272 112.395 160.008 113.568ZM154.616 118.256C155.224 118.864 155.97 119.168 156.856 119.168C157.741 119.168 158.488 118.864 159.096 118.256C159.704 117.627 160.008 116.875 160.008 116C160.008 115.115 159.704 114.368 159.096 113.76C158.488 113.141 157.741 112.832 156.856 112.832C155.97 112.832 155.224 113.141 154.616 113.76C154.008 114.368 153.704 115.115 153.704 116C153.704 116.875 154.008 117.627 154.616 118.256ZM164.356 112V113.328C164.846 112.357 165.689 111.872 166.884 111.872V112.896C166.116 112.896 165.502 113.12 165.044 113.568C164.585 114.005 164.356 114.667 164.356 115.552V120H163.3V112H164.356ZM174.727 113.568V108.8H175.783V120H174.727V118.432C173.991 119.605 172.913 120.192 171.495 120.192C170.353 120.192 169.377 119.787 168.567 118.976C167.767 118.165 167.367 117.173 167.367 116C167.367 114.827 167.767 113.835 168.567 113.024C169.377 112.213 170.353 111.808 171.495 111.808C172.913 111.808 173.991 112.395 174.727 113.568ZM169.335 118.256C169.943 118.864 170.689 119.168 171.575 119.168C172.46 119.168 173.207 118.864 173.815 118.256C174.423 117.627 174.727 116.875 174.727 116C174.727 115.115 174.423 114.368 173.815 113.76C173.207 113.141 172.46 112.832 171.575 112.832C170.689 112.832 169.943 113.141 169.335 113.76C168.727 114.368 168.423 115.115 168.423 116C168.423 116.875 168.727 117.627 169.335 118.256ZM181.714 111.808C182.909 111.808 183.864 112.229 184.578 113.072C185.314 113.904 185.682 114.891 185.682 116.032C185.682 116.085 185.672 116.251 185.65 116.528H178.626C178.733 117.328 179.074 117.968 179.65 118.448C180.226 118.928 180.946 119.168 181.81 119.168C183.026 119.168 183.885 118.715 184.386 117.808L185.314 118.352C184.962 118.928 184.477 119.381 183.858 119.712C183.25 120.032 182.562 120.192 181.794 120.192C180.536 120.192 179.512 119.797 178.722 119.008C177.933 118.219 177.538 117.216 177.538 116C177.538 114.795 177.928 113.797 178.706 113.008C179.485 112.208 180.488 111.808 181.714 111.808ZM181.714 112.832C180.882 112.832 180.184 113.077 179.618 113.568C179.064 114.059 178.733 114.704 178.626 115.504H184.594C184.477 114.651 184.152 113.995 183.618 113.536C183.064 113.067 182.429 112.832 181.714 112.832ZM194.242 113.568V108.8H195.298V120H194.242V118.432C193.506 119.605 192.429 120.192 191.01 120.192C189.869 120.192 188.893 119.787 188.082 118.976C187.282 118.165 186.882 117.173 186.882 116C186.882 114.827 187.282 113.835 188.082 113.024C188.893 112.213 189.869 111.808 191.01 111.808C192.429 111.808 193.506 112.395 194.242 113.568ZM188.85 118.256C189.458 118.864 190.205 119.168 191.09 119.168C191.976 119.168 192.722 118.864 193.33 118.256C193.938 117.627 194.242 116.875 194.242 116C194.242 115.115 193.938 114.368 193.33 113.76C192.722 113.141 191.976 112.832 191.09 112.832C190.205 112.832 189.458 113.141 188.85 113.76C188.242 114.368 187.938 115.115 187.938 116C187.938 116.875 188.242 117.627 188.85 118.256ZM208.414 113.568V112H209.47V120H208.414V118.432C207.678 119.605 206.601 120.192 205.182 120.192C204.041 120.192 203.065 119.787 202.254 118.976C201.454 118.165 201.054 117.173 201.054 116C201.054 114.827 201.454 113.835 202.254 113.024C203.065 112.213 204.041 111.808 205.182 111.808C206.601 111.808 207.678 112.395 208.414 113.568ZM203.022 118.256C203.63 118.864 204.377 119.168 205.262 119.168C206.147 119.168 206.894 118.864 207.502 118.256C208.11 117.627 208.414 116.875 208.414 116C208.414 115.115 208.11 114.368 207.502 113.76C206.894 113.141 206.147 112.832 205.262 112.832C204.377 112.832 203.63 113.141 203.022 113.76C202.414 114.368 202.11 115.115 202.11 116C202.11 116.875 202.414 117.627 203.022 118.256ZM212.538 114.096C212.538 114.715 213.087 115.168 214.186 115.456C214.495 115.531 214.698 115.584 214.794 115.616C214.89 115.637 215.077 115.696 215.354 115.792C215.642 115.877 215.839 115.952 215.946 116.016C216.063 116.08 216.223 116.181 216.426 116.32C216.629 116.448 216.773 116.581 216.858 116.72C216.943 116.848 217.023 117.019 217.098 117.232C217.173 117.435 217.21 117.653 217.21 117.888C217.21 118.571 216.938 119.125 216.394 119.552C215.871 119.979 215.178 120.192 214.314 120.192C213.567 120.192 212.922 120.027 212.378 119.696C211.834 119.355 211.45 118.907 211.226 118.352L212.122 117.824C212.271 118.24 212.538 118.571 212.922 118.816C213.317 119.051 213.781 119.168 214.314 119.168C214.858 119.168 215.301 119.061 215.642 118.848C215.983 118.635 216.154 118.315 216.154 117.888C216.154 117.269 215.605 116.816 214.506 116.528C214.197 116.453 213.994 116.405 213.898 116.384C213.802 116.352 213.61 116.293 213.322 116.208C213.045 116.112 212.847 116.032 212.73 115.968C212.623 115.904 212.469 115.808 212.266 115.68C212.063 115.541 211.919 115.408 211.834 115.28C211.749 115.141 211.669 114.971 211.594 114.768C211.519 114.555 211.482 114.331 211.482 114.096C211.482 113.445 211.738 112.901 212.25 112.464C212.783 112.027 213.439 111.808 214.218 111.808C214.858 111.808 215.423 111.952 215.914 112.24C216.415 112.528 216.783 112.928 217.018 113.44L216.138 113.952C215.839 113.205 215.199 112.832 214.218 112.832C213.738 112.832 213.338 112.944 213.018 113.168C212.698 113.392 212.538 113.701 212.538 114.096ZM229.34 114.192C229.894 114.427 230.332 114.784 230.652 115.264C230.972 115.744 231.132 116.283 231.132 116.88C231.132 117.744 230.828 118.48 230.22 119.088C229.612 119.696 228.876 120 228.012 120H223.132V108.8H227.644C228.465 108.8 229.174 109.099 229.772 109.696C230.358 110.283 230.652 110.987 230.652 111.808C230.652 112.853 230.214 113.648 229.34 114.192ZM227.644 109.856H224.252V113.76H227.644C228.156 113.76 228.598 113.573 228.972 113.2C229.345 112.805 229.532 112.341 229.532 111.808C229.532 111.285 229.345 110.827 228.972 110.432C228.598 110.048 228.156 109.856 227.644 109.856ZM224.252 118.944H228.012C228.566 118.944 229.036 118.747 229.42 118.352C229.814 117.957 230.012 117.467 230.012 116.88C230.012 116.304 229.814 115.819 229.42 115.424C229.036 115.019 228.566 114.816 228.012 114.816H224.252V118.944ZM236.589 111.808C237.784 111.808 238.739 112.229 239.453 113.072C240.189 113.904 240.557 114.891 240.557 116.032C240.557 116.085 240.547 116.251 240.525 116.528H233.501C233.608 117.328 233.949 117.968 234.525 118.448C235.101 118.928 235.821 119.168 236.685 119.168C237.901 119.168 238.76 118.715 239.261 117.808L240.189 118.352C239.837 118.928 239.352 119.381 238.733 119.712C238.125 120.032 237.437 120.192 236.669 120.192C235.411 120.192 234.387 119.797 233.597 119.008C232.808 118.219 232.413 117.216 232.413 116C232.413 114.795 232.803 113.797 233.581 113.008C234.36 112.208 235.363 111.808 236.589 111.808ZM236.589 112.832C235.757 112.832 235.059 113.077 234.493 113.568C233.939 114.059 233.608 114.704 233.501 115.504H239.469C239.352 114.651 239.027 113.995 238.493 113.536C237.939 113.067 237.304 112.832 236.589 112.832ZM242.757 114.096C242.757 114.715 243.306 115.168 244.405 115.456C244.714 115.531 244.917 115.584 245.013 115.616C245.109 115.637 245.295 115.696 245.573 115.792C245.861 115.877 246.058 115.952 246.165 116.016C246.282 116.08 246.442 116.181 246.645 116.32C246.847 116.448 246.991 116.581 247.077 116.72C247.162 116.848 247.242 117.019 247.317 117.232C247.391 117.435 247.429 117.653 247.429 117.888C247.429 118.571 247.157 119.125 246.613 119.552C246.09 119.979 245.397 120.192 244.533 120.192C243.786 120.192 243.141 120.027 242.597 119.696C242.053 119.355 241.669 118.907 241.445 118.352L242.341 117.824C242.49 118.24 242.757 118.571 243.141 118.816C243.535 119.051 243.999 119.168 244.533 119.168C245.077 119.168 245.519 119.061 245.861 118.848C246.202 118.635 246.373 118.315 246.373 117.888C246.373 117.269 245.823 116.816 244.725 116.528C244.415 116.453 244.213 116.405 244.117 116.384C244.021 116.352 243.829 116.293 243.541 116.208C243.263 116.112 243.066 116.032 242.949 115.968C242.842 115.904 242.687 115.808 242.485 115.68C242.282 115.541 242.138 115.408 242.053 115.28C241.967 115.141 241.887 114.971 241.813 114.768C241.738 114.555 241.701 114.331 241.701 114.096C241.701 113.445 241.957 112.901 242.469 112.464C243.002 112.027 243.658 111.808 244.437 111.808C245.077 111.808 245.642 111.952 246.133 112.24C246.634 112.528 247.002 112.928 247.237 113.44L246.357 113.952C246.058 113.205 245.418 112.832 244.437 112.832C243.957 112.832 243.557 112.944 243.237 113.168C242.917 113.392 242.757 113.701 242.757 114.096ZM253.118 112V113.024H250.814V117.872C250.814 118.309 250.899 118.624 251.07 118.816C251.24 118.997 251.496 119.093 251.838 119.104C252.179 119.104 252.606 119.093 253.118 119.072V120C251.976 120.171 251.128 120.091 250.574 119.76C250.03 119.419 249.758 118.789 249.758 117.872V113.024H248.078V112H249.758V110.08L250.814 109.76V112H253.118ZM127.725 132.8H132.045C133.571 132.8 134.829 133.344 135.821 134.432C136.824 135.499 137.325 136.821 137.325 138.4C137.325 139.979 136.824 141.307 135.821 142.384C134.829 143.461 133.571 144 132.045 144H127.725V132.8ZM128.845 142.944H132.045C133.272 142.944 134.275 142.507 135.053 141.632C135.843 140.747 136.237 139.669 136.237 138.4C136.237 137.131 135.843 136.053 135.053 135.168C134.275 134.293 133.272 133.856 132.045 133.856H128.845V142.944ZM142.777 135.808C143.972 135.808 144.926 136.229 145.641 137.072C146.377 137.904 146.745 138.891 146.745 140.032C146.745 140.085 146.734 140.251 146.713 140.528H139.689C139.796 141.328 140.137 141.968 140.713 142.448C141.289 142.928 142.009 143.168 142.873 143.168C144.089 143.168 144.948 142.715 145.449 141.808L146.377 142.352C146.025 142.928 145.54 143.381 144.921 143.712C144.313 144.032 143.625 144.192 142.857 144.192C141.598 144.192 140.574 143.797 139.785 143.008C138.996 142.219 138.601 141.216 138.601 140C138.601 138.795 138.99 137.797 139.769 137.008C140.548 136.208 141.55 135.808 142.777 135.808ZM142.777 136.832C141.945 136.832 141.246 137.077 140.681 137.568C140.126 138.059 139.796 138.704 139.689 139.504H145.657C145.54 138.651 145.214 137.995 144.681 137.536C144.126 137.067 143.492 136.832 142.777 136.832ZM148.944 138.096C148.944 138.715 149.494 139.168 150.592 139.456C150.902 139.531 151.104 139.584 151.2 139.616C151.296 139.637 151.483 139.696 151.76 139.792C152.048 139.877 152.246 139.952 152.352 140.016C152.47 140.08 152.63 140.181 152.832 140.32C153.035 140.448 153.179 140.581 153.264 140.72C153.35 140.848 153.43 141.019 153.504 141.232C153.579 141.435 153.616 141.653 153.616 141.888C153.616 142.571 153.344 143.125 152.8 143.552C152.278 143.979 151.584 144.192 150.72 144.192C149.974 144.192 149.328 144.027 148.784 143.696C148.24 143.355 147.856 142.907 147.632 142.352L148.528 141.824C148.678 142.24 148.944 142.571 149.328 142.816C149.723 143.051 150.187 143.168 150.72 143.168C151.264 143.168 151.707 143.061 152.048 142.848C152.39 142.635 152.56 142.315 152.56 141.888C152.56 141.269 152.011 140.816 150.912 140.528C150.603 140.453 150.4 140.405 150.304 140.384C150.208 140.352 150.016 140.293 149.728 140.208C149.451 140.112 149.254 140.032 149.136 139.968C149.03 139.904 148.875 139.808 148.672 139.68C148.47 139.541 148.326 139.408 148.24 139.28C148.155 139.141 148.075 138.971 148 138.768C147.926 138.555 147.888 138.331 147.888 138.096C147.888 137.445 148.144 136.901 148.656 136.464C149.19 136.027 149.846 135.808 150.624 135.808C151.264 135.808 151.83 135.952 152.32 136.24C152.822 136.528 153.19 136.928 153.424 137.44L152.544 137.952C152.246 137.205 151.606 136.832 150.624 136.832C150.144 136.832 149.744 136.944 149.424 137.168C149.104 137.392 148.944 137.701 148.944 138.096ZM156.596 133.536C156.596 133.749 156.521 133.931 156.372 134.08C156.222 134.229 156.041 134.304 155.828 134.304C155.614 134.304 155.433 134.229 155.284 134.08C155.134 133.931 155.06 133.749 155.06 133.536C155.06 133.323 155.134 133.141 155.284 132.992C155.433 132.843 155.614 132.768 155.828 132.768C156.041 132.768 156.222 132.843 156.372 132.992C156.521 133.141 156.596 133.323 156.596 133.536ZM156.356 144H155.3V136H156.356V144ZM165.477 137.568V136H166.533V143.68C166.533 144.832 166.138 145.739 165.349 146.4C164.559 147.061 163.615 147.392 162.517 147.392C160.65 147.392 159.386 146.741 158.725 145.44L159.653 144.912C160.133 145.883 161.087 146.368 162.517 146.368C163.434 146.368 164.154 146.128 164.677 145.648C165.21 145.168 165.477 144.512 165.477 143.68V142.432C164.741 143.605 163.663 144.192 162.245 144.192C161.103 144.192 160.127 143.787 159.317 142.976C158.517 142.165 158.117 141.173 158.117 140C158.117 138.827 158.517 137.835 159.317 137.024C160.127 136.213 161.103 135.808 162.245 135.808C163.663 135.808 164.741 136.395 165.477 137.568ZM160.085 142.256C160.693 142.864 161.439 143.168 162.325 143.168C163.21 143.168 163.957 142.864 164.565 142.256C165.173 141.627 165.477 140.875 165.477 140C165.477 139.115 165.173 138.368 164.565 137.76C163.957 137.141 163.21 136.832 162.325 136.832C161.439 136.832 160.693 137.141 160.085 137.76C159.477 138.368 159.173 139.115 159.173 140C159.173 140.875 159.477 141.627 160.085 142.256ZM172.512 135.808C173.472 135.808 174.235 136.107 174.8 136.704C175.366 137.291 175.648 138.085 175.648 139.088V144H174.592V139.088C174.592 138.373 174.4 137.819 174.016 137.424C173.643 137.029 173.11 136.832 172.416 136.832C171.616 136.832 170.982 137.083 170.512 137.584C170.054 138.085 169.824 138.827 169.824 139.808V144H168.768V136H169.824V137.248C170.422 136.288 171.318 135.808 172.512 135.808ZM189.178 142.032L190.682 143.632L189.69 144.192L188.506 142.928C187.664 143.771 186.565 144.192 185.21 144.192C184.122 144.192 183.232 143.909 182.538 143.344C181.866 142.768 181.53 141.995 181.53 141.024C181.53 140.309 181.712 139.669 182.074 139.104C182.448 138.539 182.986 138.096 183.69 137.776C183.136 137.157 182.858 136.453 182.858 135.664C182.858 134.736 183.178 133.995 183.818 133.44C184.448 132.885 185.194 132.608 186.058 132.608C186.773 132.608 187.424 132.811 188.01 133.216C188.608 133.621 189.034 134.16 189.29 134.832L188.346 135.376C188.186 134.853 187.898 134.443 187.482 134.144C187.077 133.845 186.608 133.696 186.074 133.696C185.498 133.696 185.002 133.872 184.586 134.224C184.181 134.576 183.978 135.035 183.978 135.6C183.978 135.963 184.058 136.293 184.218 136.592C184.378 136.88 184.645 137.216 185.018 137.6L188.394 141.2C188.704 140.581 188.906 139.872 189.002 139.072L189.994 139.648C189.845 140.587 189.573 141.381 189.178 142.032ZM185.178 143.104C186.245 143.104 187.098 142.773 187.738 142.112L184.442 138.608C183.834 138.832 183.381 139.157 183.082 139.584C182.794 140 182.65 140.469 182.65 140.992C182.65 141.643 182.874 142.16 183.322 142.544C183.781 142.917 184.4 143.104 185.178 143.104ZM201.598 144.192C199.891 144.192 198.489 143.632 197.39 142.512C196.281 141.381 195.726 140.011 195.726 138.4C195.726 136.789 196.281 135.419 197.39 134.288C198.489 133.168 199.891 132.608 201.598 132.608C202.622 132.608 203.566 132.859 204.43 133.36C205.294 133.851 205.966 134.517 206.446 135.36L205.454 135.936C205.102 135.253 204.579 134.709 203.886 134.304C203.193 133.899 202.43 133.696 201.598 133.696C200.19 133.696 199.049 134.149 198.174 135.056C197.289 135.973 196.846 137.088 196.846 138.4C196.846 139.712 197.289 140.827 198.174 141.744C199.049 142.651 200.19 143.104 201.598 143.104C202.43 143.104 203.193 142.901 203.886 142.496C204.579 142.091 205.102 141.547 205.454 140.864L206.446 141.424C205.987 142.267 205.321 142.939 204.446 143.44C203.571 143.941 202.622 144.192 201.598 144.192ZM209.184 136V137.328C209.674 136.357 210.517 135.872 211.712 135.872V136.896C210.944 136.896 210.33 137.12 209.872 137.568C209.413 138.005 209.184 138.667 209.184 139.552V144H208.128V136H209.184ZM216.371 135.808C217.565 135.808 218.52 136.229 219.235 137.072C219.971 137.904 220.339 138.891 220.339 140.032C220.339 140.085 220.328 140.251 220.307 140.528H213.283C213.389 141.328 213.731 141.968 214.307 142.448C214.883 142.928 215.603 143.168 216.467 143.168C217.683 143.168 218.541 142.715 219.043 141.808L219.971 142.352C219.619 142.928 219.133 143.381 218.515 143.712C217.907 144.032 217.219 144.192 216.451 144.192C215.192 144.192 214.168 143.797 213.379 143.008C212.589 142.219 212.195 141.216 212.195 140C212.195 138.795 212.584 137.797 213.363 137.008C214.141 136.208 215.144 135.808 216.371 135.808ZM216.371 136.832C215.539 136.832 214.84 137.077 214.275 137.568C213.72 138.059 213.389 138.704 213.283 139.504H219.251C219.133 138.651 218.808 137.995 218.275 137.536C217.72 137.067 217.085 136.832 216.371 136.832ZM228.898 137.568V136H229.954V144H228.898V142.432C228.162 143.605 227.085 144.192 225.666 144.192C224.525 144.192 223.549 143.787 222.738 142.976C221.938 142.165 221.538 141.173 221.538 140C221.538 138.827 221.938 137.835 222.738 137.024C223.549 136.213 224.525 135.808 225.666 135.808C227.085 135.808 228.162 136.395 228.898 137.568ZM223.506 142.256C224.114 142.864 224.861 143.168 225.746 143.168C226.632 143.168 227.378 142.864 227.986 142.256C228.594 141.627 228.898 140.875 228.898 140C228.898 139.115 228.594 138.368 227.986 137.76C227.378 137.141 226.632 136.832 225.746 136.832C224.861 136.832 224.114 137.141 223.506 137.76C222.898 138.368 222.594 139.115 222.594 140C222.594 140.875 222.898 141.627 223.506 142.256ZM236.43 136V137.024H234.126V141.872C234.126 142.309 234.212 142.624 234.382 142.816C234.553 142.997 234.809 143.093 235.15 143.104C235.492 143.104 235.918 143.093 236.43 143.072V144C235.289 144.171 234.441 144.091 233.886 143.76C233.342 143.419 233.07 142.789 233.07 141.872V137.024H231.39V136H233.07V134.08L234.126 133.76V136H236.43ZM239.486 133.536C239.486 133.749 239.412 133.931 239.262 134.08C239.113 134.229 238.932 134.304 238.718 134.304C238.505 134.304 238.324 134.229 238.174 134.08C238.025 133.931 237.95 133.749 237.95 133.536C237.95 133.323 238.025 133.141 238.174 132.992C238.324 132.843 238.505 132.768 238.718 132.768C238.932 132.768 239.113 132.843 239.262 132.992C239.412 133.141 239.486 133.323 239.486 133.536ZM239.246 144H238.19V136H239.246V144ZM244.447 142.896L247.247 136H248.367L245.087 144H243.807L240.527 136H241.647L244.447 142.896ZM253.027 135.808C254.222 135.808 255.176 136.229 255.891 137.072C256.627 137.904 256.995 138.891 256.995 140.032C256.995 140.085 256.984 140.251 256.963 140.528H249.939C250.046 141.328 250.387 141.968 250.963 142.448C251.539 142.928 252.259 143.168 253.123 143.168C254.339 143.168 255.198 142.715 255.699 141.808L256.627 142.352C256.275 142.928 255.79 143.381 255.171 143.712C254.563 144.032 253.875 144.192 253.107 144.192C251.848 144.192 250.824 143.797 250.035 143.008C249.246 142.219 248.851 141.216 248.851 140C248.851 138.795 249.24 137.797 250.019 137.008C250.798 136.208 251.8 135.808 253.027 135.808ZM253.027 136.832C252.195 136.832 251.496 137.077 250.931 137.568C250.376 138.059 250.046 138.704 249.939 139.504H255.907C255.79 138.651 255.464 137.995 254.931 137.536C254.376 137.067 253.742 136.832 253.027 136.832Z" fill="#6A779B"/>
</svg>
