<svg width="24" height="24" viewBox="0 0 24 24" fill="none" xmlns="http://www.w3.org/2000/svg">
<rect width="24" height="24" rx="12" fill="url(#paint0_linear_547_1235)"/>
<path fill-rule="evenodd" clip-rule="evenodd" d="M15.4126 7.60753C15.308 7.66864 15.0783 7.93262 14.8786 8.22097C14.4079 8.90064 12.9705 10.9437 12.4455 11.6793C12.2126 12.0055 11.9799 12.3331 11.9283 12.4073C11.8768 12.4815 11.6628 12.7772 11.4528 13.0645C11.2427 13.3518 11.0709 13.6072 11.0709 13.632C11.0709 13.7086 10.7293 14.0791 10.6586 14.0791C10.6219 14.0791 10.1747 13.6765 9.66496 13.1844C9.15516 12.6923 8.64368 12.2312 8.52838 12.1598C8.16626 11.9353 8.05608 11.9716 7.46354 12.5095C7.17291 12.7734 6.88707 13.0749 6.82833 13.1795C6.72512 13.3634 6.72489 13.3769 6.82181 13.5831C6.95604 13.8687 10.1752 16.9616 10.5165 17.1329C10.8504 17.3005 11.0116 17.2911 11.3279 17.0856C11.6143 16.8995 11.7744 16.6892 13.5134 14.2139C13.9927 13.5317 14.4355 12.9129 14.4973 12.8387C14.5592 12.7646 14.6104 12.685 14.6111 12.662C14.6118 12.6389 14.7968 12.372 15.0224 12.0688C15.4915 11.438 16.7994 9.58294 17.0717 9.16214C17.2854 8.83177 17.3061 8.58381 17.1388 8.35838C16.9676 8.12778 15.9584 7.49973 15.7594 7.5C15.6695 7.50011 15.5135 7.54848 15.4126 7.60753Z" fill="#060F27"/>
<defs>
<linearGradient id="paint0_linear_547_1235" x1="0" y1="24" x2="24" y2="24" gradientUnits="userSpaceOnUse">
<stop stop-color="#5BD473"/>
<stop offset="1" stop-color="#98D45B"/>
</linearGradient>
</defs>
</svg>
