<svg width="218" height="64" viewBox="0 0 218 64" fill="none" xmlns="http://www.w3.org/2000/svg">
<path fill-rule="evenodd" clip-rule="evenodd" d="M145.935 23.213V26.7332C147.099 26.9098 148.207 27.3505 149.174 28.0216C150.141 28.6926 150.942 29.5761 151.515 30.6044C152.088 31.6327 152.418 32.7785 152.48 33.9541C152.542 35.1296 152.334 36.3037 151.872 37.3864C151.409 38.4692 150.706 39.4317 149.814 40.2004C148.923 40.9692 147.867 41.5236 146.728 41.8213C145.589 42.119 144.397 42.1521 143.244 41.9179C142.09 41.6838 141.005 41.1887 140.072 40.4706L137.212 43.3321C137.287 43.5658 137.326 43.8093 137.33 44.0547C137.329 44.5506 137.182 45.0352 136.906 45.4474C136.63 45.8596 136.239 46.1807 135.78 46.3703C135.322 46.5599 134.818 46.6094 134.332 46.5126C133.845 46.4157 133.399 46.1769 133.048 45.8262C132.697 45.4756 132.458 45.0289 132.362 44.5425C132.265 44.0562 132.314 43.552 132.504 43.0938C132.693 42.6356 133.015 42.2438 133.427 41.9681C133.839 41.6923 134.324 41.5449 134.819 41.5446C135.065 41.5479 135.308 41.5876 135.542 41.6623L138.433 38.7699C137.545 37.5034 137.058 35.9985 137.037 34.4515C137.016 32.9044 137.462 31.3869 138.316 30.0967L128.809 22.699C128.352 22.9646 127.833 23.1057 127.305 23.1082C126.701 23.1074 126.111 22.9275 125.609 22.5911C125.107 22.2548 124.716 21.7772 124.486 21.2187C124.255 20.6602 124.196 20.046 124.314 19.4536C124.433 18.8613 124.725 18.3175 125.153 17.891C125.581 17.4645 126.126 17.1745 126.718 17.0577C127.311 16.9408 127.925 17.0024 128.483 17.2346C129.041 17.4668 129.517 17.8592 129.852 18.3621C130.186 18.865 130.364 19.456 130.363 20.0601C130.359 20.3166 130.323 20.5721 130.254 20.8206L139.909 28.3401C140.962 27.4922 142.222 26.9379 143.559 26.7332V23.213C143.093 22.9956 142.699 22.6505 142.423 22.218C142.146 21.7854 141.998 21.2832 141.996 20.7697V20.6889C141.996 19.9699 142.281 19.2804 142.79 18.7721C143.298 18.2637 143.987 17.9781 144.706 17.9781H144.787C146.284 17.9781 147.498 19.1918 147.498 20.6889V20.7697C147.496 21.2832 147.347 21.7854 147.071 22.218C146.794 22.6505 146.4 22.9956 145.935 23.213ZM143.202 38.0415C143.694 38.2338 144.221 38.3253 144.749 38.3108L144.753 38.3088C145.778 38.2719 146.748 37.8388 147.46 37.1007C148.171 36.3627 148.569 35.3773 148.568 34.352C148.568 33.3268 148.169 32.3418 147.457 31.6044C146.745 30.8671 145.774 30.435 144.749 30.3991C144.221 30.3846 143.694 30.4761 143.202 30.6684C142.709 30.8606 142.26 31.1497 141.881 31.5185C141.502 31.8872 141.201 32.3282 140.995 32.8154C140.789 33.3026 140.683 33.8261 140.683 34.3549C140.683 34.8838 140.789 35.4073 140.995 35.8945C141.201 36.3817 141.502 36.8227 141.881 37.1914C142.26 37.5602 142.709 37.8493 143.202 38.0415ZM67.7601 30.425V21.9664H71.448V42.1584H67.7591V33.9742H59.9901V42.1584H56.3022V21.9664H59.9891V30.425H67.7601ZM82.3583 37.7898C82.9306 37.2175 83.2521 36.4413 83.2521 35.632V26.9827H86.7374V35.632C86.7374 37.3674 86.048 39.0317 84.8209 40.2588C83.5938 41.4859 81.9295 42.1753 80.194 42.1753C78.4586 42.1753 76.7943 41.4859 75.5672 40.2588C74.3401 39.0317 73.6507 37.3674 73.6507 35.632V26.9827H77.1489V35.632C77.1489 36.4413 77.4704 37.2175 78.0427 37.7898C78.615 38.3621 79.3912 38.6836 80.2005 38.6836C81.0099 38.6836 81.7861 38.3621 82.3583 37.7898ZM111.63 25.5385C110.346 25.5385 109.173 26.1004 109.173 27.874H109.167C109.167 29.1805 110.484 29.5965 112.073 30.0981C114.486 30.86 117.524 31.8194 117.524 36.3955C117.524 39.9127 114.623 42.1624 111.017 42.1624C108.615 42.1624 106.609 41.1483 104.982 39.1522L107.525 36.5083C107.612 36.6058 107.696 36.7028 107.779 36.7987C108.609 37.7541 109.335 38.5893 111.215 38.5893C112.527 38.5893 113.672 37.5473 113.672 36.3676C113.672 34.7299 112.142 34.1905 110.391 33.5734C108.051 32.7486 105.316 31.7849 105.316 27.874C105.316 24.1891 108.061 21.9664 111.857 21.9664C113.756 21.9664 116.076 23.0353 117.219 24.5823L114.929 27.2831C114.034 26.327 112.666 25.5385 111.63 25.5385ZM158.212 36.669C158.212 38.0383 158.8 38.9326 160.867 38.9326V38.9296C161.259 38.9296 161.707 38.9027 162.098 38.8757L161.232 42.0615C160.771 42.1434 160.302 42.1813 159.833 42.1733C156.845 42.1733 154.665 40.5814 154.665 37.4225V25.0724L158.212 23.4805V27.5336H161.426V30.6057H158.212V36.669ZM92.4563 28.7333C93.6261 27.5865 94.8357 27.0835 96.5684 27.0835V27.0865C100.481 27.0865 103.845 30.3562 103.845 34.6319C103.845 38.9615 100.189 42.1773 96.0334 42.1773C92.2867 42.1773 88.9531 39.0174 88.9531 34.4063V22.0872H92.4563V28.7333ZM95.025 38.3485C95.5073 38.5483 96.0243 38.6511 96.5464 38.6511C97.6009 38.6511 98.6121 38.2323 99.3578 37.4867C100.103 36.741 100.522 35.7298 100.522 34.6753C100.522 33.6209 100.103 32.6096 99.3578 31.864C98.6121 31.1184 97.6009 30.6995 96.5464 30.6995C96.0243 30.6995 95.5073 30.8024 95.025 31.0022C94.5426 31.202 94.1043 31.4948 93.7351 31.864C93.3659 32.2332 93.0731 32.6715 92.8733 33.1538C92.6735 33.6362 92.5706 34.1532 92.5706 34.6753C92.5706 35.1974 92.6735 35.7144 92.8733 36.1968C93.0731 36.6792 93.3659 37.1175 93.7351 37.4867C94.1043 37.8558 94.5426 38.1487 95.025 38.3485ZM126.803 26.9029C130.967 26.9029 134.615 30.1107 134.615 34.4483H134.614C134.614 38.725 131.248 41.9947 127.336 41.9947C125.605 41.9947 124.394 41.4897 123.226 40.3449V47H119.723V34.6738C119.723 30.0617 123.057 26.9029 126.803 26.9029ZM130.133 37.2157C130.878 36.4701 131.297 35.4588 131.297 34.4044C131.297 33.3499 130.878 32.3386 130.133 31.593C129.387 30.8474 128.376 30.4285 127.321 30.4285C126.267 30.4285 125.256 30.8474 124.51 31.593C123.764 32.3386 123.346 33.3499 123.346 34.4044C123.346 35.4588 123.764 36.4701 124.51 37.2157C125.256 37.9613 126.267 38.3802 127.321 38.3802C128.376 38.3802 129.387 37.9613 130.133 37.2157Z" fill="#6A779B"/>
</svg>
