<svg width="588" height="504" viewBox="0 0 588 504" fill="none" xmlns="http://www.w3.org/2000/svg">
<path d="M59.2278 299.179C59.2278 388.707 131.998 461.298 221.784 461.298C311.569 461.298 384.339 388.707 384.339 299.179C384.339 209.652 311.569 137.06 221.784 137.06C131.998 137.06 59.2278 209.652 59.2278 299.179Z" fill="url(#paint0_radial_1745_9064)" fill-opacity="0.54" style="mix-blend-mode:overlay"/>
<path d="M59.2278 299.179C59.2278 388.707 131.998 461.298 221.784 461.298C311.569 461.298 384.339 388.707 384.339 299.179C384.339 209.652 311.569 137.06 221.784 137.06C131.998 137.06 59.2278 209.652 59.2278 299.179Z" stroke="url(#paint1_radial_1745_9064)" stroke-width="6.87764"/>
<g filter="url(#filter0_b_1745_9064)">
<path fill-rule="evenodd" clip-rule="evenodd" d="M221.785 133.622C313.461 133.622 387.779 207.744 387.779 299.179C387.779 347.818 372.557 386.439 335.229 423.813C297.731 461.357 258.91 476.526 209.995 476.526C118.318 476.526 43.9999 402.403 43.9999 310.968C43.9999 262.329 59.2227 223.708 96.5505 186.334C134.048 148.79 172.869 133.622 221.785 133.622Z" fill="url(#paint2_linear_1745_9064)" fill-opacity="0.28"/>
</g>
<g filter="url(#filter1_i_1745_9064)">
<ellipse cx="165.995" cy="165.558" rx="165.995" ry="165.558" transform="matrix(1 0 0 -1 43.9999 476.526)" fill="url(#paint3_linear_1745_9064)" fill-opacity="0.45"/>
<ellipse cx="165.995" cy="165.558" rx="165.995" ry="165.558" transform="matrix(1 0 0 -1 43.9999 476.526)" fill="url(#paint4_radial_1745_9064)" fill-opacity="0.54" style="mix-blend-mode:overlay"/>
</g>
<path d="M375.498 310.968C375.498 219.806 301.401 145.901 209.995 145.901C118.588 145.901 44.4911 219.806 44.4911 310.968C44.4911 402.131 118.588 476.035 209.995 476.035C301.401 476.035 375.498 402.131 375.498 310.968Z" stroke="url(#paint5_linear_1745_9064)" stroke-width="0.98252"/>
<path fill-rule="evenodd" clip-rule="evenodd" d="M387.779 299.179C387.779 207.744 313.461 133.622 221.785 133.622C172.869 133.622 134.048 148.79 96.5505 186.334C59.2227 223.708 43.9999 262.329 43.9999 310.968C43.9999 345.256 54.4509 377.11 72.3492 403.533C54.451 377.11 43.9999 345.256 43.9999 310.968C43.9999 219.533 118.318 145.41 209.995 145.41C301.671 145.41 375.989 219.533 375.989 310.968C375.989 402.202 301.997 476.2 210.598 476.525C210.397 476.525 210.196 476.526 209.995 476.526C170.491 476.526 134.21 462.762 105.709 439.781C134.21 462.762 170.49 476.526 209.995 476.526C210.196 476.526 210.397 476.526 210.598 476.525C259.23 476.4 297.885 461.203 335.229 423.813C372.557 386.439 387.779 347.818 387.779 299.179Z" fill="url(#paint6_radial_1745_9064)"/>
<path d="M137.209 165.558C137.209 255.085 209.979 327.677 299.765 327.677C389.55 327.677 462.32 255.085 462.32 165.558C462.32 76.0305 389.55 3.43881 299.765 3.43881C209.979 3.4388 137.209 76.0305 137.209 165.558Z" fill="url(#paint7_radial_1745_9064)" fill-opacity="0.54" style="mix-blend-mode:overlay"/>
<path d="M137.209 165.558C137.209 255.085 209.979 327.677 299.765 327.677C389.55 327.677 462.32 255.085 462.32 165.558C462.32 76.0305 389.55 3.43881 299.765 3.43881C209.979 3.4388 137.209 76.0305 137.209 165.558Z" stroke="url(#paint8_radial_1745_9064)" stroke-width="6.87764"/>
<g filter="url(#filter2_b_1745_9064)">
<path fill-rule="evenodd" clip-rule="evenodd" d="M299.766 0C391.442 0 465.761 74.1228 465.761 165.558C465.761 214.197 450.538 252.818 413.21 290.191C375.712 327.736 336.891 342.904 287.976 342.904C196.299 342.904 121.981 268.781 121.981 177.346C121.981 128.707 137.204 90.0864 174.532 52.7126C212.03 15.1684 250.85 0 299.766 0Z" fill="url(#paint9_linear_1745_9064)" fill-opacity="0.28"/>
</g>
<g filter="url(#filter3_i_1745_9064)">
<ellipse cx="165.995" cy="165.558" rx="165.995" ry="165.558" transform="matrix(1 0 0 -1 121.981 342.904)" fill="url(#paint10_linear_1745_9064)" fill-opacity="0.27"/>
<ellipse cx="165.995" cy="165.558" rx="165.995" ry="165.558" transform="matrix(1 0 0 -1 121.981 342.904)" fill="url(#paint11_radial_1745_9064)" fill-opacity="0.54" style="mix-blend-mode:overlay"/>
</g>
<path d="M453.479 177.346C453.479 86.1839 379.382 12.2799 287.976 12.2799C196.569 12.2799 122.472 86.1839 122.472 177.346C122.472 268.509 196.569 342.413 287.976 342.413C379.382 342.413 453.479 268.509 453.479 177.346Z" stroke="url(#paint12_linear_1745_9064)" stroke-opacity="0.54" stroke-width="0.98252"/>
<path fill-rule="evenodd" clip-rule="evenodd" d="M465.761 165.558C465.761 74.1228 391.442 0 299.766 0C250.85 0 212.03 15.1684 174.532 52.7126C137.204 90.0864 121.981 128.707 121.981 177.346C121.981 211.634 132.432 243.488 150.33 269.911C132.432 243.488 121.981 211.635 121.981 177.346C121.981 85.9114 196.299 11.7886 287.976 11.7886C379.652 11.7886 453.97 85.9114 453.97 177.346C453.97 268.581 379.978 342.579 288.579 342.903C288.378 342.904 288.177 342.904 287.976 342.904C248.472 342.904 212.191 329.141 183.69 306.16C212.191 329.141 248.472 342.904 287.976 342.904C288.177 342.904 288.378 342.904 288.579 342.903C337.211 342.779 375.866 327.581 413.21 290.191C450.538 252.818 465.761 214.197 465.761 165.558Z" fill="url(#paint13_radial_1745_9064)"/>
<path d="M215.449 299.179C215.448 388.707 288.219 461.298 378.004 461.298C467.79 461.298 540.56 388.707 540.56 299.179C540.56 209.652 467.79 137.06 378.004 137.06C288.219 137.06 215.449 209.652 215.449 299.179Z" fill="url(#paint14_radial_1745_9064)" fill-opacity="0.54" style="mix-blend-mode:overlay"/>
<path d="M215.449 299.179C215.448 388.707 288.219 461.298 378.004 461.298C467.79 461.298 540.56 388.707 540.56 299.179C540.56 209.652 467.79 137.06 378.004 137.06C288.219 137.06 215.449 209.652 215.449 299.179Z" stroke="url(#paint15_radial_1745_9064)" stroke-width="6.87764"/>
<g filter="url(#filter4_b_1745_9064)">
<path fill-rule="evenodd" clip-rule="evenodd" d="M378.006 133.621C469.682 133.621 544 207.744 544 299.179C544 347.818 528.777 386.439 491.45 423.813C453.952 461.357 415.131 476.525 366.215 476.525C274.539 476.525 200.221 402.403 200.221 310.968C200.221 262.329 215.444 223.708 252.771 186.334C290.269 148.79 329.09 133.621 378.006 133.621Z" fill="url(#paint16_linear_1745_9064)" fill-opacity="0.28"/>
</g>
<g filter="url(#filter5_i_1745_9064)">
<ellipse cx="165.995" cy="165.558" rx="165.995" ry="165.558" transform="matrix(1 0 0 -1 200.221 476.526)" fill="url(#paint17_linear_1745_9064)" fill-opacity="0.27"/>
<ellipse cx="165.995" cy="165.558" rx="165.995" ry="165.558" transform="matrix(1 0 0 -1 200.221 476.526)" fill="url(#paint18_radial_1745_9064)" fill-opacity="0.54" style="mix-blend-mode:overlay"/>
</g>
<path d="M531.719 310.968C531.719 219.805 457.622 145.901 366.215 145.901C274.809 145.901 200.712 219.805 200.712 310.968C200.712 402.13 274.809 476.034 366.215 476.034C457.622 476.034 531.719 402.13 531.719 310.968Z" stroke="url(#paint19_linear_1745_9064)" stroke-opacity="0.36" stroke-width="0.98252"/>
<path fill-rule="evenodd" clip-rule="evenodd" d="M544 299.179C544 207.744 469.682 133.621 378.006 133.621C329.09 133.621 290.269 148.79 252.771 186.334C215.444 223.708 200.221 262.329 200.221 310.968C200.221 345.256 210.672 377.109 228.57 403.533C210.672 377.109 200.221 345.256 200.221 310.968C200.221 219.533 274.539 145.41 366.215 145.41C457.892 145.41 532.21 219.533 532.21 310.968C532.21 402.202 458.218 476.2 366.819 476.525C366.618 476.525 366.417 476.525 366.215 476.525C326.711 476.525 290.43 462.762 261.93 439.781C290.43 462.762 326.711 476.526 366.215 476.526C366.417 476.526 366.618 476.525 366.819 476.525C415.451 476.4 454.106 461.202 491.45 423.813C528.777 386.439 544 347.818 544 299.179Z" fill="url(#paint20_radial_1745_9064)"/>
<g style="mix-blend-mode:darken" filter="url(#filter6_f_1745_9064)">
<path fill-rule="evenodd" clip-rule="evenodd" d="M383.202 324.093C386.29 254.015 348.58 187.936 286.836 154.892C269.723 164.051 255.829 172.071 239.427 187.399C194.014 229.837 176.504 278.611 178.751 334.54C206.862 352.132 240.093 362.301 275.7 362.301C310.827 362.301 343.643 352.404 371.512 335.246C383.202 324.093 383.202 324.093 383.202 324.093Z" fill="url(#paint21_linear_1745_9064)"/>
</g>
<path fill-rule="evenodd" clip-rule="evenodd" d="M383.202 324.093C386.29 254.015 348.58 187.936 286.836 154.892C269.723 164.051 255.829 172.071 239.427 187.399C194.014 229.837 176.504 278.611 178.751 334.54C206.862 352.132 240.093 362.301 275.7 362.301C310.827 362.301 343.643 352.404 371.512 335.246C383.202 324.093 383.202 324.093 383.202 324.093Z" fill="url(#paint22_linear_1745_9064)"/>
<path d="M179.26 334.243C176.578 264.824 214.011 199.477 275.144 166.639C336.482 199.588 373.962 265.265 370.998 334.946C343.261 351.964 310.626 361.777 275.697 361.777C240.291 361.777 207.241 351.694 179.26 334.243Z" fill="url(#paint23_radial_1745_9064)" stroke="url(#paint24_linear_1745_9064)" stroke-width="1.04668"/>
<path fill-rule="evenodd" clip-rule="evenodd" d="M383.202 324.093C386.29 254.015 348.58 187.936 286.836 154.892C269.723 164.051 255.829 172.071 239.427 187.399C194.014 229.837 176.504 278.611 178.751 334.54C206.862 352.132 240.093 362.301 275.7 362.301C310.827 362.301 343.643 352.404 371.512 335.246C383.202 324.093 383.202 324.093 383.202 324.093ZM275.146 166.045C336.89 199.089 374.599 265.168 371.512 335.246C343.643 352.404 310.827 362.301 275.7 362.301C240.093 362.301 206.862 352.132 178.751 334.54C175.946 264.724 213.61 198.978 275.146 166.045Z" fill="url(#paint25_linear_1745_9064)" fill-opacity="0.42"/>
<path d="M383.205 324.093C386.293 254.015 348.583 187.936 286.839 154.892L275.149 166.045C336.892 199.089 374.602 265.168 371.515 335.246L383.205 324.093Z" fill="url(#paint26_linear_1745_9064)" fill-opacity="0.59"/>
<path d="M286.836 154.892C269.723 164.051 255.829 172.071 239.427 187.399C194.014 229.837 176.504 278.611 178.751 334.54C175.946 264.724 213.61 198.978 275.146 166.045L286.836 154.892Z" fill="url(#paint27_linear_1745_9064)"/>
<path d="M230.666 284.951C230.247 284.951 229.904 284.867 229.639 284.699C229.373 284.517 229.191 284.28 229.093 283.986C229.01 283.679 229.01 283.343 229.093 282.98C229.191 282.616 229.387 282.253 229.681 281.889L237.313 271.888V272.873H230.414C229.953 272.873 229.597 272.754 229.345 272.517C229.107 272.279 228.989 271.944 228.989 271.51C228.989 271.077 229.107 270.749 229.345 270.525C229.597 270.287 229.953 270.168 230.414 270.168H238.843C239.277 270.168 239.619 270.259 239.871 270.441C240.136 270.609 240.318 270.839 240.416 271.133C240.514 271.426 240.514 271.762 240.416 272.139C240.318 272.503 240.123 272.866 239.829 273.23L232.197 283.21V282.246H239.431C239.892 282.246 240.241 282.365 240.479 282.602C240.731 282.826 240.856 283.154 240.856 283.588C240.856 284.035 240.731 284.378 240.479 284.615C240.241 284.839 239.892 284.951 239.431 284.951H230.666ZM247.159 285.181C245.943 285.181 244.894 284.965 244.014 284.531C243.147 284.084 242.476 283.462 242.001 282.665C241.54 281.854 241.309 280.904 241.309 279.814C241.309 278.751 241.533 277.822 241.98 277.025C242.427 276.214 243.049 275.585 243.846 275.138C244.657 274.676 245.572 274.446 246.593 274.446C247.334 274.446 248.005 274.572 248.606 274.823C249.207 275.061 249.724 275.41 250.157 275.872C250.591 276.319 250.919 276.871 251.143 277.528C251.367 278.171 251.478 278.891 251.478 279.688C251.478 279.953 251.394 280.156 251.227 280.296C251.059 280.422 250.814 280.485 250.493 280.485H243.909V278.849H249.193L248.857 279.143C248.857 278.57 248.774 278.094 248.606 277.717C248.438 277.325 248.193 277.032 247.872 276.836C247.564 276.64 247.18 276.543 246.719 276.543C246.201 276.543 245.761 276.661 245.398 276.899C245.034 277.137 244.755 277.479 244.559 277.926C244.363 278.374 244.265 278.912 244.265 279.541V279.709C244.265 280.771 244.51 281.554 244.999 282.057C245.503 282.56 246.243 282.812 247.222 282.812C247.557 282.812 247.942 282.77 248.375 282.686C248.808 282.602 249.214 282.47 249.591 282.288C249.913 282.134 250.199 282.085 250.451 282.141C250.703 282.183 250.898 282.295 251.038 282.476C251.178 282.658 251.255 282.868 251.269 283.106C251.297 283.343 251.248 283.581 251.122 283.818C250.996 284.042 250.786 284.231 250.493 284.385C250.018 284.65 249.479 284.846 248.878 284.972C248.291 285.111 247.718 285.181 247.159 285.181ZM254.746 285.139C254.215 285.139 253.809 285 253.53 284.72C253.25 284.44 253.11 284.042 253.11 283.525V276.081C253.11 275.564 253.243 275.173 253.509 274.907C253.788 274.628 254.173 274.488 254.662 274.488C255.165 274.488 255.549 274.628 255.815 274.907C256.081 275.173 256.213 275.564 256.213 276.081V277.172H256.004C256.172 276.333 256.542 275.683 257.115 275.222C257.688 274.76 258.429 274.502 259.338 274.446C259.687 274.418 259.953 274.509 260.134 274.718C260.33 274.914 260.435 275.243 260.449 275.704C260.477 276.137 260.386 276.48 260.176 276.731C259.981 276.983 259.645 277.137 259.17 277.193L258.688 277.235C257.891 277.304 257.297 277.535 256.905 277.926C256.528 278.318 256.339 278.884 256.339 279.625V283.525C256.339 284.042 256.199 284.44 255.92 284.72C255.654 285 255.263 285.139 254.746 285.139ZM266.306 285.181C265.201 285.181 264.237 284.965 263.412 284.531C262.601 284.098 261.972 283.476 261.525 282.665C261.078 281.854 260.854 280.897 260.854 279.793C260.854 278.968 260.98 278.227 261.231 277.57C261.483 276.913 261.847 276.354 262.322 275.893C262.811 275.417 263.391 275.061 264.062 274.823C264.733 274.572 265.481 274.446 266.306 274.446C267.41 274.446 268.367 274.663 269.178 275.096C270.003 275.529 270.639 276.144 271.086 276.941C271.548 277.738 271.778 278.688 271.778 279.793C271.778 280.631 271.645 281.379 271.38 282.036C271.128 282.693 270.765 283.259 270.29 283.735C269.814 284.21 269.234 284.573 268.549 284.825C267.878 285.063 267.13 285.181 266.306 285.181ZM266.306 282.812C266.767 282.812 267.165 282.7 267.501 282.476C267.836 282.253 268.102 281.924 268.298 281.491C268.493 281.044 268.591 280.478 268.591 279.793C268.591 278.772 268.381 278.024 267.962 277.549C267.543 277.06 266.991 276.815 266.306 276.815C265.858 276.815 265.46 276.92 265.11 277.13C264.775 277.339 264.509 277.668 264.314 278.115C264.132 278.549 264.041 279.108 264.041 279.793C264.041 280.813 264.251 281.575 264.67 282.078C265.09 282.567 265.635 282.812 266.306 282.812ZM280.938 285.181C279.345 285.181 277.982 284.867 276.85 284.238C275.717 283.609 274.844 282.728 274.229 281.596C273.628 280.45 273.327 279.101 273.327 277.549C273.327 276.389 273.495 275.347 273.83 274.425C274.18 273.488 274.683 272.692 275.34 272.035C275.997 271.364 276.794 270.846 277.73 270.483C278.681 270.119 279.75 269.938 280.938 269.938C281.637 269.938 282.343 270.029 283.056 270.21C283.783 270.378 284.412 270.623 284.943 270.944C285.293 271.14 285.53 271.385 285.656 271.678C285.782 271.972 285.817 272.265 285.761 272.559C285.719 272.852 285.6 273.104 285.404 273.314C285.223 273.523 284.992 273.656 284.713 273.712C284.433 273.768 284.118 273.705 283.769 273.523C283.35 273.272 282.909 273.09 282.448 272.978C281.987 272.866 281.518 272.81 281.043 272.81C280.107 272.81 279.317 272.999 278.674 273.376C278.045 273.74 277.57 274.271 277.248 274.97C276.927 275.669 276.766 276.529 276.766 277.549C276.766 278.556 276.927 279.415 277.248 280.128C277.57 280.841 278.045 281.386 278.674 281.764C279.317 282.127 280.107 282.309 281.043 282.309C281.49 282.309 281.945 282.253 282.406 282.141C282.881 282.029 283.336 281.854 283.769 281.617C284.132 281.435 284.454 281.372 284.734 281.428C285.027 281.47 285.265 281.596 285.446 281.806C285.642 282.001 285.761 282.239 285.803 282.518C285.859 282.798 285.831 283.078 285.719 283.357C285.607 283.637 285.397 283.874 285.09 284.07C284.573 284.42 283.937 284.692 283.182 284.888C282.427 285.083 281.679 285.181 280.938 285.181ZM291.83 285.181C290.725 285.181 289.761 284.965 288.936 284.531C288.125 284.098 287.496 283.476 287.049 282.665C286.602 281.854 286.378 280.897 286.378 279.793C286.378 278.968 286.504 278.227 286.756 277.57C287.007 276.913 287.371 276.354 287.846 275.893C288.335 275.417 288.915 275.061 289.586 274.823C290.257 274.572 291.005 274.446 291.83 274.446C292.934 274.446 293.892 274.663 294.702 275.096C295.527 275.529 296.163 276.144 296.61 276.941C297.072 277.738 297.302 278.688 297.302 279.793C297.302 280.631 297.17 281.379 296.904 282.036C296.652 282.693 296.289 283.259 295.814 283.735C295.338 284.21 294.758 284.573 294.073 284.825C293.402 285.063 292.655 285.181 291.83 285.181ZM291.83 282.812C292.291 282.812 292.689 282.7 293.025 282.476C293.36 282.253 293.626 281.924 293.822 281.491C294.017 281.044 294.115 280.478 294.115 279.793C294.115 278.772 293.906 278.024 293.486 277.549C293.067 277.06 292.515 276.815 291.83 276.815C291.382 276.815 290.984 276.92 290.635 277.13C290.299 277.339 290.034 277.668 289.838 278.115C289.656 278.549 289.565 279.108 289.565 279.793C289.565 280.813 289.775 281.575 290.194 282.078C290.614 282.567 291.159 282.812 291.83 282.812ZM303.024 285.181C302.129 285.181 301.339 284.965 300.654 284.531C299.983 284.098 299.459 283.476 299.082 282.665C298.704 281.854 298.516 280.897 298.516 279.793C298.516 278.688 298.704 277.738 299.082 276.941C299.459 276.144 299.983 275.529 300.654 275.096C301.339 274.663 302.129 274.446 303.024 274.446C303.835 274.446 304.547 274.642 305.162 275.033C305.792 275.424 306.218 275.935 306.442 276.564H306.211V271.594C306.211 271.063 306.344 270.665 306.609 270.399C306.875 270.119 307.266 269.98 307.783 269.98C308.287 269.98 308.678 270.119 308.958 270.399C309.237 270.665 309.377 271.063 309.377 271.594V283.525C309.377 284.042 309.237 284.44 308.958 284.72C308.692 285 308.308 285.139 307.804 285.139C307.301 285.139 306.91 285 306.63 284.72C306.365 284.44 306.232 284.042 306.232 283.525V282.099L306.462 282.917C306.267 283.602 305.847 284.154 305.204 284.573C304.575 284.979 303.848 285.181 303.024 285.181ZM303.967 282.812C304.429 282.812 304.827 282.7 305.162 282.476C305.498 282.253 305.764 281.924 305.959 281.491C306.155 281.044 306.253 280.478 306.253 279.793C306.253 278.772 306.043 278.024 305.624 277.549C305.204 277.06 304.652 276.815 303.967 276.815C303.52 276.815 303.122 276.92 302.772 277.13C302.437 277.339 302.171 277.668 301.975 278.115C301.794 278.549 301.703 279.108 301.703 279.793C301.703 280.813 301.912 281.575 302.332 282.078C302.751 282.567 303.296 282.812 303.967 282.812ZM316.954 285.181C315.738 285.181 314.689 284.965 313.809 284.531C312.942 284.084 312.271 283.462 311.796 282.665C311.334 281.854 311.104 280.904 311.104 279.814C311.104 278.751 311.327 277.822 311.775 277.025C312.222 276.214 312.844 275.585 313.641 275.138C314.452 274.676 315.367 274.446 316.388 274.446C317.128 274.446 317.799 274.572 318.4 274.823C319.002 275.061 319.519 275.41 319.952 275.872C320.385 276.319 320.714 276.871 320.938 277.528C321.161 278.171 321.273 278.891 321.273 279.688C321.273 279.953 321.189 280.156 321.021 280.296C320.854 280.422 320.609 280.485 320.288 280.485H313.704V278.849H318.988L318.652 279.143C318.652 278.57 318.568 278.094 318.4 277.717C318.233 277.325 317.988 277.032 317.667 276.836C317.359 276.64 316.975 276.543 316.513 276.543C315.996 276.543 315.556 276.661 315.192 276.899C314.829 277.137 314.549 277.479 314.354 277.926C314.158 278.374 314.06 278.912 314.06 279.541V279.709C314.06 280.771 314.305 281.554 314.794 282.057C315.297 282.56 316.038 282.812 317.017 282.812C317.352 282.812 317.737 282.77 318.17 282.686C318.603 282.602 319.009 282.47 319.386 282.288C319.707 282.134 319.994 282.085 320.246 282.141C320.497 282.183 320.693 282.295 320.833 282.476C320.973 282.658 321.049 282.868 321.063 283.106C321.091 283.343 321.042 283.581 320.917 283.818C320.791 284.042 320.581 284.231 320.288 284.385C319.812 284.65 319.274 284.846 318.673 284.972C318.086 285.111 317.513 285.181 316.954 285.181Z" fill="#F3F8FC"/>
<g filter="url(#filter7_bd_1745_9064)">
<circle cx="287.979" cy="113.275" r="13.9785" fill="white" fill-opacity="0.56" shape-rendering="crispEdges"/>
</g>
<circle cx="287.98" cy="113.275" r="7.86291" fill="white"/>
<g filter="url(#filter8_bd_1745_9064)">
<circle cx="142.788" cy="339.192" r="13.9785" fill="white" fill-opacity="0.56" shape-rendering="crispEdges"/>
</g>
<circle cx="142.788" cy="339.191" r="7.86291" fill="white"/>
<g filter="url(#filter9_bd_1745_9064)">
<circle cx="414.813" cy="348.033" r="13.9785" fill="white" fill-opacity="0.56" shape-rendering="crispEdges"/>
</g>
<circle cx="414.813" cy="348.033" r="7.86291" fill="white"/>
<mask id="path-29-inside-1_1745_9064" fill="white">
<path fill-rule="evenodd" clip-rule="evenodd" d="M218.264 52.9749C215.941 55.5102 215.941 59.4402 215.941 67.3003C215.941 75.1604 215.941 79.0905 218.264 81.6258C218.438 81.8154 218.62 81.9974 218.81 82.1712C221.345 84.4944 225.275 84.4944 233.135 84.4944H305.842C313.702 84.4944 317.632 84.4944 320.167 82.1712C320.357 81.9974 320.539 81.8154 320.712 81.6258C323.036 79.0905 323.036 75.1604 323.036 67.3003C323.036 59.4402 323.036 55.5102 320.712 52.9749C320.539 52.7852 320.357 52.6032 320.167 52.4294C317.632 50.1062 313.702 50.1062 305.842 50.1062H233.135C225.275 50.1062 221.345 50.1062 218.81 52.4294C218.62 52.6032 218.438 52.7852 218.264 52.9749ZM290.89 89.8986C292.32 87.7082 291.011 84.4948 288.395 84.4948H287.917C285.301 84.4948 283.992 87.7082 285.422 89.8986C286.658 91.7898 289.654 91.7898 290.89 89.8986Z"/>
</mask>
<path fill-rule="evenodd" clip-rule="evenodd" d="M218.264 52.9749C215.941 55.5102 215.941 59.4402 215.941 67.3003C215.941 75.1604 215.941 79.0905 218.264 81.6258C218.438 81.8154 218.62 81.9974 218.81 82.1712C221.345 84.4944 225.275 84.4944 233.135 84.4944H305.842C313.702 84.4944 317.632 84.4944 320.167 82.1712C320.357 81.9974 320.539 81.8154 320.712 81.6258C323.036 79.0905 323.036 75.1604 323.036 67.3003C323.036 59.4402 323.036 55.5102 320.712 52.9749C320.539 52.7852 320.357 52.6032 320.167 52.4294C317.632 50.1062 313.702 50.1062 305.842 50.1062H233.135C225.275 50.1062 221.345 50.1062 218.81 52.4294C218.62 52.6032 218.438 52.7852 218.264 52.9749ZM290.89 89.8986C292.32 87.7082 291.011 84.4948 288.395 84.4948H287.917C285.301 84.4948 283.992 87.7082 285.422 89.8986C286.658 91.7898 289.654 91.7898 290.89 89.8986Z" fill="url(#paint28_radial_1745_9064)"/>
<path d="M218.264 52.9749L219.713 54.3024L219.713 54.3024L218.264 52.9749ZM218.264 81.6258L219.713 80.2982L219.713 80.2982L218.264 81.6258ZM218.81 82.1712L220.137 80.7225L220.137 80.7224L218.81 82.1712ZM320.167 82.1712L318.839 80.7224V80.7225L320.167 82.1712ZM320.712 81.6258L319.264 80.2982L319.264 80.2982L320.712 81.6258ZM320.712 52.9749L319.264 54.3024V54.3024L320.712 52.9749ZM320.167 52.4294L321.495 50.9806V50.9806L320.167 52.4294ZM218.81 52.4294L220.137 53.8782L220.137 53.8782L218.81 52.4294ZM217.906 67.3003C217.906 63.318 217.91 60.5179 218.181 58.3888C218.445 56.3101 218.936 55.1503 219.713 54.3024L216.815 51.6473C215.269 53.3347 214.598 55.4076 214.282 57.8927C213.972 60.3275 213.976 63.4225 213.976 67.3003H217.906ZM219.713 80.2982C218.936 79.4503 218.445 78.2905 218.181 76.2118C217.91 74.0827 217.906 71.2826 217.906 67.3003H213.976C213.976 71.1781 213.972 74.2731 214.282 76.7079C214.598 79.193 215.269 81.2659 216.815 82.9533L219.713 80.2982ZM220.137 80.7224C219.99 80.5873 219.848 80.4457 219.713 80.2982L216.815 82.9533C217.028 83.1851 217.25 83.4076 217.482 83.62L220.137 80.7224ZM233.135 82.5294C229.153 82.5294 226.353 82.5256 224.224 82.2547C222.145 81.9902 220.985 81.4994 220.137 80.7225L217.482 83.62C219.169 85.1663 221.242 85.8371 223.727 86.1533C226.162 86.4632 229.257 86.4594 233.135 86.4594V82.5294ZM305.842 82.5294H233.135V86.4594H305.842V82.5294ZM318.839 80.7225C317.992 81.4994 316.832 81.9902 314.753 82.2547C312.624 82.5256 309.824 82.5294 305.842 82.5294V86.4594C309.719 86.4594 312.814 86.4632 315.249 86.1533C317.734 85.8371 319.807 85.1663 321.495 83.62L318.839 80.7225ZM319.264 80.2982C319.128 80.4457 318.987 80.5873 318.839 80.7224L321.495 83.62C321.726 83.4076 321.949 83.1851 322.161 82.9533L319.264 80.2982ZM321.071 67.3003C321.071 71.2826 321.067 74.0827 320.796 76.2118C320.531 78.2905 320.041 79.4503 319.264 80.2982L322.161 82.9533C323.707 81.2659 324.378 79.193 324.695 76.7079C325.004 74.2731 325.001 71.1781 325.001 67.3003H321.071ZM319.264 54.3024C320.041 55.1503 320.531 56.3101 320.796 58.3888C321.067 60.5179 321.071 63.318 321.071 67.3003H325.001C325.001 63.4225 325.004 60.3275 324.695 57.8927C324.378 55.4076 323.707 53.3347 322.161 51.6473L319.264 54.3024ZM318.839 53.8782C318.987 54.0133 319.128 54.1549 319.264 54.3024L322.161 51.6473C321.949 51.4155 321.726 51.193 321.495 50.9806L318.839 53.8782ZM305.842 52.0712C309.824 52.0712 312.624 52.075 314.753 52.3459C316.832 52.6105 317.992 53.1012 318.839 53.8782L321.495 50.9806C319.807 49.4343 317.734 48.7635 315.249 48.4473C312.814 48.1374 309.719 48.1412 305.842 48.1412V52.0712ZM233.135 52.0712H305.842V48.1412H233.135V52.0712ZM220.137 53.8782C220.985 53.1012 222.145 52.6105 224.224 52.3459C226.353 52.075 229.153 52.0712 233.135 52.0712V48.1412C229.257 48.1412 226.162 48.1374 223.727 48.4473C221.242 48.7635 219.169 49.4343 217.482 50.9806L220.137 53.8782ZM219.713 54.3024C219.848 54.1549 219.99 54.0133 220.137 53.8782L217.482 50.9806C217.25 51.193 217.028 51.4155 216.815 51.6473L219.713 54.3024ZM287.917 86.4598H288.395V82.5297H287.917V86.4598ZM283.777 90.9732C285.788 94.0516 290.524 94.0516 292.535 90.9732L289.244 88.824C289.042 89.1333 288.653 89.352 288.156 89.352C287.659 89.352 287.27 89.1333 287.068 88.824L283.777 90.9732ZM288.395 86.4598C288.792 86.4598 289.144 86.6733 289.362 87.1688C289.594 87.6926 289.564 88.3342 289.244 88.824L292.535 90.9732C293.646 89.2726 293.677 87.2122 292.958 85.5818C292.225 83.9229 290.615 82.5297 288.395 82.5297V86.4598ZM287.917 82.5297C285.697 82.5297 284.087 83.9229 283.354 85.5818C282.635 87.2122 282.666 89.2726 283.777 90.9732L287.068 88.824C286.748 88.3342 286.718 87.6926 286.95 87.1688C287.168 86.6733 287.52 86.4598 287.917 86.4598V82.5297Z" fill="white" mask="url(#path-29-inside-1_1745_9064)"/>
<path d="M254.089 73.0847C252.98 73.0847 252.039 72.875 251.266 72.4556C250.502 72.0363 249.919 71.4492 249.518 70.6943C249.118 69.9395 248.917 69.0542 248.917 68.0384C248.917 67.2556 249.034 66.5521 249.267 65.9277C249.509 65.294 249.854 64.7581 250.301 64.3202C250.758 63.8728 251.308 63.528 251.951 63.2857C252.603 63.0435 253.339 62.9223 254.159 62.9223C254.663 62.9223 255.166 62.9782 255.669 63.09C256.172 63.2019 256.657 63.3883 257.123 63.6492C257.318 63.761 257.449 63.9055 257.514 64.0825C257.589 64.2503 257.607 64.432 257.57 64.6277C257.542 64.8141 257.468 64.9818 257.346 65.1309C257.235 65.2707 257.085 65.3639 256.899 65.4105C256.722 65.4478 256.517 65.4105 256.284 65.2986C255.977 65.1309 255.65 65.0098 255.306 64.9352C254.961 64.8513 254.583 64.8094 254.173 64.8094C253.512 64.8094 252.957 64.9352 252.51 65.1868C252.063 65.4291 251.727 65.7926 251.503 66.2771C251.289 66.7524 251.182 67.3395 251.182 68.0384C251.182 69.0915 251.434 69.8883 251.937 70.4288C252.449 70.9693 253.204 71.2395 254.201 71.2395C254.537 71.2395 254.882 71.2069 255.236 71.1417C255.59 71.0764 255.939 70.9832 256.284 70.8621L255.879 71.7427V69.0589H254.621C254.341 69.0589 254.127 68.989 253.978 68.8492C253.828 68.7094 253.754 68.5184 253.754 68.2761C253.754 68.0245 253.828 67.8334 253.978 67.703C254.127 67.5632 254.341 67.4933 254.621 67.4933H256.815C257.095 67.4933 257.304 67.5678 257.444 67.7169C257.593 67.866 257.668 68.0804 257.668 68.3599V71.603C257.668 71.8452 257.621 72.0503 257.528 72.218C257.435 72.3857 257.277 72.5069 257.053 72.5814C256.634 72.7305 256.163 72.8517 255.641 72.9449C255.119 73.0381 254.602 73.0847 254.089 73.0847ZM260.536 73.0567C260.182 73.0567 259.912 72.9589 259.725 72.7632C259.539 72.5675 259.446 72.2926 259.446 71.9384V64.1804C259.446 63.8169 259.539 63.542 259.725 63.3556C259.921 63.1693 260.196 63.0761 260.55 63.0761H263.947C265.047 63.0761 265.895 63.3556 266.491 63.9148C267.087 64.4646 267.386 65.2334 267.386 66.2212C267.386 67.209 267.087 67.9825 266.491 68.5417C265.895 69.1008 265.047 69.3804 263.947 69.3804H261.612V71.9384C261.612 72.2926 261.519 72.5675 261.333 72.7632C261.156 72.9589 260.89 73.0567 260.536 73.0567ZM261.612 67.703H263.583C264.143 67.703 264.567 67.5771 264.855 67.3255C265.154 67.0739 265.303 66.7058 265.303 66.2212C265.303 65.7366 265.154 65.3732 264.855 65.1309C264.567 64.8886 264.143 64.7675 263.583 64.7675H261.612V67.703ZM271.795 73.0567C271.441 73.0567 271.171 72.9589 270.985 72.7632C270.798 72.5675 270.705 72.2926 270.705 71.9384V64.8653H268.231C267.942 64.8653 267.718 64.7861 267.56 64.6277C267.401 64.4693 267.322 64.2503 267.322 63.9707C267.322 63.6818 267.401 63.4628 267.56 63.3137C267.718 63.1553 267.942 63.0761 268.231 63.0761H275.346C275.635 63.0761 275.858 63.1553 276.017 63.3137C276.175 63.4628 276.254 63.6818 276.254 63.9707C276.254 64.2503 276.175 64.4693 276.017 64.6277C275.858 64.7861 275.635 64.8653 275.346 64.8653H272.872V71.9384C272.872 72.2926 272.778 72.5675 272.592 72.7632C272.415 72.9589 272.149 73.0567 271.795 73.0567ZM277.009 70.0094C276.776 70.0094 276.576 69.9302 276.408 69.7718C276.25 69.6133 276.171 69.4176 276.171 69.1847C276.171 68.9424 276.25 68.742 276.408 68.5836C276.576 68.4252 276.776 68.346 277.009 68.346H279.889C280.122 68.346 280.318 68.4252 280.476 68.5836C280.644 68.742 280.728 68.9424 280.728 69.1847C280.728 69.4176 280.644 69.6133 280.476 69.7718C280.318 69.9302 280.122 70.0094 279.889 70.0094H277.009ZM285.347 73.0847C284.853 73.0847 284.349 73.0288 283.837 72.9169C283.334 72.7958 282.896 72.628 282.523 72.4137C282.281 72.2832 282.113 72.1295 282.02 71.9524C281.936 71.766 281.903 71.5843 281.922 71.4073C281.95 71.2302 282.024 71.0764 282.145 70.946C282.267 70.8062 282.42 70.7176 282.607 70.6804C282.802 70.6431 283.017 70.6804 283.25 70.7922C283.613 70.9693 283.958 71.0951 284.284 71.1696C284.61 71.2442 284.937 71.2814 285.263 71.2814C285.635 71.2814 285.948 71.2349 286.199 71.1417C286.451 71.0392 286.642 70.8947 286.772 70.7083C286.903 70.5219 286.968 70.289 286.968 70.0094C286.968 69.618 286.833 69.3245 286.563 69.1288C286.292 68.9331 285.896 68.8352 285.375 68.8352H284.55C284.242 68.8352 284.005 68.7607 283.837 68.6116C283.678 68.4531 283.599 68.2388 283.599 67.9685C283.599 67.689 283.678 67.4746 283.837 67.3255C284.005 67.1671 284.242 67.0879 284.55 67.0879H285.165C285.482 67.0879 285.747 67.0413 285.962 66.9481C286.185 66.8456 286.358 66.7058 286.479 66.5288C286.609 66.3517 286.675 66.1327 286.675 65.8718C286.675 65.499 286.544 65.2148 286.283 65.0191C286.031 64.8234 285.663 64.7255 285.179 64.7255C284.881 64.7255 284.587 64.7628 284.298 64.8374C284.009 64.9026 283.697 65.0237 283.362 65.2008C283.157 65.3033 282.966 65.3359 282.788 65.2986C282.611 65.2614 282.462 65.1775 282.341 65.047C282.229 64.9166 282.155 64.7675 282.118 64.5997C282.09 64.4227 282.113 64.2456 282.187 64.0685C282.271 63.8915 282.42 63.747 282.635 63.6352C283.035 63.4022 283.469 63.2252 283.935 63.104C284.41 62.9829 284.89 62.9223 285.375 62.9223C286.083 62.9223 286.688 63.0295 287.192 63.2438C287.695 63.4581 288.082 63.7657 288.352 64.1664C288.622 64.5578 288.757 65.0331 288.757 65.5922C288.757 65.9743 288.683 66.3237 288.534 66.6406C288.385 66.9574 288.175 67.2277 287.905 67.4513C287.644 67.6657 287.322 67.8194 286.94 67.9126V67.7309C287.602 67.8427 288.119 68.1176 288.492 68.5556C288.864 68.9936 289.051 69.5435 289.051 70.2051C289.051 70.7922 288.902 71.3047 288.604 71.7427C288.305 72.1714 287.877 72.5022 287.318 72.7352C286.768 72.9682 286.111 73.0847 285.347 73.0847Z" fill="#132239"/>
<mask id="path-32-inside-2_1745_9064" fill="white">
<path fill-rule="evenodd" clip-rule="evenodd" d="M417.166 375.512C418.929 377.905 421.875 379.05 424.848 379.05H474.739C482.634 379.05 486.581 379.05 489.12 381.392C489.296 381.554 489.465 381.723 489.627 381.898C491.969 384.438 491.969 388.385 491.969 396.28C491.969 404.174 491.969 408.121 489.627 410.661C489.465 410.836 489.296 411.005 489.12 411.167C486.581 413.509 482.634 413.509 474.739 413.509H388.591C380.697 413.509 376.75 413.509 374.21 411.167C374.034 411.005 373.866 410.836 373.704 410.661C371.362 408.121 371.362 404.174 371.362 396.28C371.362 388.385 371.362 384.438 373.704 381.898C373.866 381.723 374.034 381.554 374.21 381.392C376.75 379.05 380.697 379.05 388.591 379.05H402.986C405.959 379.05 408.905 377.905 410.668 375.512C410.854 375.261 411.027 375.013 411.183 374.774C412.419 372.882 415.415 372.882 416.651 374.774C416.807 375.013 416.98 375.261 417.166 375.512Z"/>
</mask>
<path fill-rule="evenodd" clip-rule="evenodd" d="M417.166 375.512C418.929 377.905 421.875 379.05 424.848 379.05H474.739C482.634 379.05 486.581 379.05 489.12 381.392C489.296 381.554 489.465 381.723 489.627 381.898C491.969 384.438 491.969 388.385 491.969 396.28C491.969 404.174 491.969 408.121 489.627 410.661C489.465 410.836 489.296 411.005 489.12 411.167C486.581 413.509 482.634 413.509 474.739 413.509H388.591C380.697 413.509 376.75 413.509 374.21 411.167C374.034 411.005 373.866 410.836 373.704 410.661C371.362 408.121 371.362 404.174 371.362 396.28C371.362 388.385 371.362 384.438 373.704 381.898C373.866 381.723 374.034 381.554 374.21 381.392C376.75 379.05 380.697 379.05 388.591 379.05H402.986C405.959 379.05 408.905 377.905 410.668 375.512C410.854 375.261 411.027 375.013 411.183 374.774C412.419 372.882 415.415 372.882 416.651 374.774C416.807 375.013 416.98 375.261 417.166 375.512Z" fill="url(#paint29_radial_1745_9064)"/>
<path d="M489.12 381.392L487.788 382.837L487.788 382.837L489.12 381.392ZM489.627 381.898L488.182 383.23L488.182 383.23L489.627 381.898ZM489.627 410.661L491.071 411.993L491.071 411.993L489.627 410.661ZM489.12 411.167L487.788 409.722L487.788 409.723L489.12 411.167ZM374.21 411.167L375.542 409.723L375.542 409.722L374.21 411.167ZM373.704 410.661L372.259 411.993L372.259 411.993L373.704 410.661ZM373.704 381.898L375.148 383.23L375.148 383.23L373.704 381.898ZM374.21 381.392L372.878 379.947L372.878 379.947L374.21 381.392ZM411.183 374.774L409.538 373.699L409.538 373.699L411.183 374.774ZM416.651 374.774L418.296 373.699L418.296 373.699L416.651 374.774ZM410.668 375.512L409.086 374.346L410.668 375.512ZM424.848 381.015H474.739V377.085H424.848V381.015ZM474.739 381.015C478.739 381.015 481.551 381.019 483.689 381.292C485.776 381.559 486.939 382.053 487.788 382.837L490.453 379.947C488.762 378.389 486.682 377.712 484.187 377.394C481.742 377.081 478.634 377.085 474.739 377.085V381.015ZM487.788 382.837C487.925 382.962 488.056 383.094 488.182 383.23L491.071 380.566C490.873 380.352 490.667 380.145 490.453 379.947L487.788 382.837ZM488.182 383.23C488.965 384.08 489.46 385.243 489.727 387.33C490 389.468 490.004 392.28 490.004 396.28H493.934C493.934 392.385 493.937 389.276 493.625 386.832C493.306 384.336 492.63 382.256 491.071 380.566L488.182 383.23ZM490.004 396.28C490.004 400.279 490 403.092 489.727 405.229C489.46 407.316 488.965 408.479 488.182 409.329L491.071 411.993C492.63 410.303 493.306 408.223 493.625 405.727C493.937 403.283 493.934 400.174 493.934 396.28H490.004ZM488.182 409.329C488.056 409.465 487.925 409.597 487.788 409.722L490.453 412.612C490.667 412.414 490.873 412.208 491.071 411.993L488.182 409.329ZM487.788 409.723C486.939 410.506 485.776 411.001 483.689 411.267C481.551 411.54 478.739 411.544 474.739 411.544V415.474C478.634 415.474 481.742 415.478 484.187 415.166C486.682 414.847 488.762 414.17 490.453 412.612L487.788 409.723ZM474.739 411.544H388.591V415.474H474.739V411.544ZM388.591 411.544C384.592 411.544 381.779 411.54 379.642 411.267C377.555 411.001 376.392 410.506 375.542 409.723L372.878 412.612C374.568 414.17 376.648 414.847 379.144 415.166C381.588 415.478 384.697 415.474 388.591 415.474V411.544ZM375.542 409.722C375.406 409.597 375.274 409.465 375.148 409.329L372.259 411.993C372.457 412.208 372.663 412.414 372.878 412.612L375.542 409.722ZM375.148 409.329C374.365 408.479 373.87 407.316 373.604 405.229C373.331 403.092 373.327 400.279 373.327 396.28H369.397C369.397 400.174 369.393 403.283 369.705 405.727C370.024 408.223 370.701 410.303 372.259 411.993L375.148 409.329ZM373.327 396.28C373.327 392.28 373.331 389.468 373.604 387.33C373.87 385.243 374.365 384.08 375.148 383.23L372.259 380.566C370.701 382.256 370.024 384.336 369.705 386.832C369.393 389.276 369.397 392.385 369.397 396.28H373.327ZM375.148 383.23C375.274 383.094 375.406 382.962 375.542 382.837L372.878 379.947C372.663 380.145 372.457 380.352 372.259 380.566L375.148 383.23ZM375.542 382.837C376.392 382.053 377.555 381.559 379.642 381.292C381.779 381.019 384.592 381.015 388.591 381.015V377.085C384.697 377.085 381.588 377.081 379.144 377.394C376.648 377.712 374.568 378.389 372.878 379.947L375.542 382.837ZM388.591 381.015H402.986V377.085H388.591V381.015ZM412.251 376.677C412.453 376.403 412.648 376.124 412.829 375.848L409.538 373.699C409.406 373.902 409.254 374.119 409.086 374.346L412.251 376.677ZM415.005 375.848C415.186 376.124 415.381 376.403 415.583 376.677L418.748 374.346C418.58 374.119 418.428 373.902 418.296 373.699L415.005 375.848ZM412.829 375.848C413.031 375.539 413.42 375.32 413.917 375.32C414.414 375.32 414.803 375.539 415.005 375.848L418.296 373.699C416.285 370.621 411.549 370.621 409.538 373.699L412.829 375.848ZM402.986 381.015C406.42 381.015 410.03 379.692 412.251 376.677L409.086 374.346C407.781 376.119 405.498 377.085 402.986 377.085V381.015ZM424.848 377.085C422.336 377.085 420.053 376.119 418.748 374.346L415.583 376.677C417.804 379.692 421.414 381.015 424.848 381.015V377.085Z" fill="white" mask="url(#path-32-inside-2_1745_9064)"/>
<path d="M392.318 402.175C391.255 402.175 390.347 401.966 389.592 401.546C388.837 401.127 388.255 400.54 387.845 399.785C387.444 399.021 387.244 398.121 387.244 397.087C387.244 396.314 387.355 395.619 387.579 395.004C387.812 394.38 388.148 393.849 388.586 393.411C389.024 392.963 389.555 392.619 390.179 392.376C390.813 392.134 391.526 392.013 392.318 392.013C392.784 392.013 393.254 392.073 393.73 392.195C394.214 392.306 394.634 392.47 394.988 392.684C395.221 392.814 395.379 392.977 395.463 393.173C395.547 393.369 395.57 393.564 395.533 393.76C395.505 393.956 395.426 394.124 395.295 394.263C395.174 394.403 395.02 394.492 394.834 394.529C394.648 394.566 394.438 394.524 394.205 394.403C393.925 394.235 393.632 394.114 393.324 394.04C393.017 393.965 392.705 393.928 392.388 393.928C391.763 393.928 391.237 394.054 390.808 394.305C390.389 394.548 390.072 394.902 389.858 395.368C389.643 395.834 389.536 396.407 389.536 397.087C389.536 397.758 389.643 398.331 389.858 398.806C390.072 399.282 390.389 399.645 390.808 399.897C391.237 400.139 391.763 400.26 392.388 400.26C392.686 400.26 392.989 400.223 393.296 400.148C393.613 400.074 393.916 399.957 394.205 399.799C394.447 399.678 394.662 399.636 394.848 399.673C395.044 399.701 395.202 399.785 395.323 399.925C395.454 400.055 395.533 400.214 395.561 400.4C395.598 400.586 395.58 400.773 395.505 400.959C395.43 401.145 395.291 401.304 395.086 401.434C394.741 401.667 394.317 401.849 393.814 401.98C393.31 402.11 392.812 402.175 392.318 402.175ZM399.11 402.175C398.533 402.175 398.053 402.068 397.671 401.854C397.288 401.639 397.004 401.318 396.818 400.889C396.641 400.451 396.552 399.911 396.552 399.268V396.109C396.552 395.754 396.641 395.489 396.818 395.312C397.004 395.135 397.265 395.046 397.601 395.046C397.936 395.046 398.197 395.135 398.383 395.312C398.57 395.489 398.663 395.754 398.663 396.109V399.324C398.663 399.734 398.747 400.041 398.915 400.246C399.082 400.442 399.348 400.54 399.711 400.54C400.112 400.54 400.438 400.4 400.69 400.12C400.951 399.832 401.081 399.454 401.081 398.988V396.109C401.081 395.754 401.17 395.489 401.347 395.312C401.533 395.135 401.794 395.046 402.13 395.046C402.474 395.046 402.735 395.135 402.912 395.312C403.099 395.489 403.192 395.754 403.192 396.109V401.071C403.192 401.789 402.852 402.147 402.172 402.147C401.836 402.147 401.58 402.054 401.403 401.868C401.226 401.681 401.137 401.416 401.137 401.071V400.134L401.347 400.68C401.142 401.155 400.848 401.523 400.466 401.784C400.084 402.045 399.632 402.175 399.11 402.175ZM407.314 402.175C406.903 402.175 406.479 402.138 406.041 402.063C405.613 401.989 405.221 401.863 404.867 401.686C404.681 401.593 404.546 401.476 404.462 401.337C404.387 401.187 404.355 401.038 404.364 400.889C404.373 400.74 404.42 400.605 404.504 400.484C404.597 400.363 404.714 400.283 404.853 400.246C405.002 400.2 405.165 400.214 405.343 400.288C405.725 400.447 406.074 400.558 406.391 400.624C406.708 400.689 407.02 400.721 407.327 400.721C407.728 400.721 408.017 400.661 408.194 400.54C408.381 400.409 408.474 400.242 408.474 400.037C408.474 399.85 408.413 399.71 408.292 399.617C408.171 399.524 407.994 399.459 407.761 399.421L406.293 399.156C405.715 399.053 405.268 398.844 404.951 398.527C404.644 398.201 404.49 397.786 404.49 397.283C404.49 396.817 404.62 396.416 404.881 396.081C405.142 395.736 405.501 395.475 405.958 395.298C406.424 395.111 406.95 395.018 407.537 395.018C407.957 395.018 408.343 395.056 408.697 395.13C409.052 395.205 409.392 395.326 409.718 395.494C409.886 395.577 410.002 395.689 410.067 395.829C410.142 395.969 410.165 396.113 410.137 396.262C410.119 396.411 410.063 396.547 409.969 396.668C409.876 396.789 409.755 396.868 409.606 396.905C409.466 396.943 409.303 396.924 409.117 396.849C408.819 396.71 408.544 396.612 408.292 396.556C408.04 396.491 407.798 396.458 407.565 396.458C407.146 396.458 406.843 396.528 406.657 396.668C406.47 396.798 406.377 396.966 406.377 397.171C406.377 397.329 406.428 397.464 406.531 397.576C406.643 397.679 406.81 397.749 407.034 397.786L408.502 398.052C409.107 398.154 409.569 398.359 409.886 398.667C410.202 398.965 410.361 399.375 410.361 399.897C410.361 400.605 410.081 401.164 409.522 401.574C408.972 401.975 408.236 402.175 407.314 402.175ZM414.726 402.175C414.083 402.175 413.543 402.068 413.105 401.854C412.676 401.639 412.355 401.327 412.14 400.917C411.935 400.507 411.833 399.99 411.833 399.366V396.738H411.246C410.985 396.738 410.78 396.668 410.631 396.528C410.491 396.388 410.421 396.197 410.421 395.955C410.421 395.694 410.491 395.498 410.631 395.368C410.78 395.228 410.985 395.158 411.246 395.158H411.833V394.096C411.833 393.742 411.926 393.476 412.112 393.299C412.299 393.113 412.56 393.019 412.895 393.019C413.24 393.019 413.501 393.113 413.678 393.299C413.855 393.476 413.944 393.742 413.944 394.096V395.158H415.272C415.532 395.158 415.733 395.228 415.873 395.368C416.012 395.498 416.082 395.694 416.082 395.955C416.082 396.197 416.012 396.388 415.873 396.528C415.733 396.668 415.532 396.738 415.272 396.738H413.944V399.282C413.944 399.673 414.032 399.967 414.209 400.162C414.396 400.358 414.689 400.456 415.09 400.456C415.23 400.456 415.36 400.442 415.481 400.414C415.602 400.386 415.714 400.367 415.817 400.358C415.947 400.349 416.054 400.391 416.138 400.484C416.222 400.568 416.264 400.759 416.264 401.057C416.264 401.281 416.227 401.476 416.152 401.644C416.078 401.812 415.947 401.933 415.761 402.008C415.64 402.054 415.472 402.091 415.258 402.119C415.053 402.157 414.875 402.175 414.726 402.175ZM420.1 402.175C419.364 402.175 418.721 402.031 418.171 401.742C417.63 401.453 417.211 401.038 416.913 400.498C416.615 399.957 416.465 399.319 416.465 398.583C416.465 398.033 416.549 397.539 416.717 397.101C416.885 396.663 417.127 396.29 417.444 395.983C417.77 395.666 418.157 395.428 418.604 395.27C419.052 395.102 419.55 395.018 420.1 395.018C420.836 395.018 421.474 395.163 422.015 395.452C422.565 395.74 422.989 396.151 423.287 396.682C423.595 397.213 423.748 397.847 423.748 398.583C423.748 399.142 423.66 399.64 423.483 400.078C423.315 400.516 423.073 400.894 422.756 401.211C422.439 401.528 422.052 401.77 421.596 401.938C421.148 402.096 420.65 402.175 420.1 402.175ZM420.1 400.596C420.407 400.596 420.673 400.521 420.897 400.372C421.12 400.223 421.297 400.004 421.428 399.715C421.558 399.417 421.624 399.039 421.624 398.583C421.624 397.902 421.484 397.404 421.204 397.087C420.925 396.761 420.557 396.598 420.1 396.598C419.802 396.598 419.536 396.668 419.303 396.808C419.079 396.947 418.902 397.166 418.772 397.464C418.651 397.753 418.59 398.126 418.59 398.583C418.59 399.263 418.73 399.771 419.01 400.106C419.289 400.433 419.653 400.596 420.1 400.596ZM425.983 402.147C425.638 402.147 425.373 402.054 425.186 401.868C425.009 401.681 424.921 401.416 424.921 401.071V396.109C424.921 395.764 425.009 395.503 425.186 395.326C425.373 395.139 425.629 395.046 425.955 395.046C426.291 395.046 426.547 395.139 426.724 395.326C426.901 395.503 426.989 395.764 426.989 396.109V397.003L426.836 396.444C427.022 396.015 427.311 395.671 427.702 395.41C428.094 395.149 428.555 395.018 429.086 395.018C429.617 395.018 430.06 395.144 430.414 395.396C430.768 395.647 431.02 396.034 431.169 396.556H430.973C431.178 396.081 431.491 395.708 431.91 395.438C432.339 395.158 432.828 395.018 433.378 395.018C433.909 395.018 434.342 395.125 434.678 395.34C435.022 395.545 435.279 395.862 435.446 396.29C435.614 396.71 435.698 397.245 435.698 397.898V401.071C435.698 401.416 435.605 401.681 435.418 401.868C435.241 402.054 434.985 402.147 434.65 402.147C434.305 402.147 434.039 402.054 433.853 401.868C433.676 401.681 433.587 401.416 433.587 401.071V397.968C433.587 397.511 433.513 397.18 433.364 396.975C433.224 396.761 432.982 396.654 432.637 396.654C432.236 396.654 431.924 396.794 431.7 397.073C431.477 397.353 431.365 397.749 431.365 398.261V401.071C431.365 401.416 431.272 401.681 431.085 401.868C430.908 402.054 430.652 402.147 430.316 402.147C429.981 402.147 429.72 402.054 429.534 401.868C429.347 401.681 429.254 401.416 429.254 401.071V397.968C429.254 397.511 429.179 397.18 429.03 396.975C428.891 396.761 428.648 396.654 428.303 396.654C427.903 396.654 427.591 396.794 427.367 397.073C427.143 397.353 427.031 397.749 427.031 398.261V401.071C427.031 401.789 426.682 402.147 425.983 402.147ZM445.902 402.175C444.84 402.175 443.931 401.966 443.176 401.546C442.421 401.127 441.839 400.54 441.429 399.785C441.028 399.021 440.828 398.121 440.828 397.087C440.828 396.314 440.94 395.619 441.163 395.004C441.396 394.38 441.732 393.849 442.17 393.411C442.608 392.963 443.139 392.619 443.763 392.376C444.397 392.134 445.11 392.013 445.902 392.013C446.368 392.013 446.838 392.073 447.314 392.195C447.798 392.306 448.218 392.47 448.572 392.684C448.805 392.814 448.963 392.977 449.047 393.173C449.131 393.369 449.154 393.564 449.117 393.76C449.089 393.956 449.01 394.124 448.879 394.263C448.758 394.403 448.604 394.492 448.418 394.529C448.232 394.566 448.022 394.524 447.789 394.403C447.509 394.235 447.216 394.114 446.908 394.04C446.601 393.965 446.289 393.928 445.972 393.928C445.347 393.928 444.821 394.054 444.392 394.305C443.973 394.548 443.656 394.902 443.442 395.368C443.227 395.834 443.12 396.407 443.12 397.087C443.12 397.758 443.227 398.331 443.442 398.806C443.656 399.282 443.973 399.645 444.392 399.897C444.821 400.139 445.347 400.26 445.972 400.26C446.27 400.26 446.573 400.223 446.88 400.148C447.197 400.074 447.5 399.957 447.789 399.799C448.031 399.678 448.246 399.636 448.432 399.673C448.628 399.701 448.786 399.785 448.907 399.925C449.038 400.055 449.117 400.214 449.145 400.4C449.182 400.586 449.164 400.773 449.089 400.959C449.014 401.145 448.875 401.304 448.67 401.434C448.325 401.667 447.901 401.849 447.398 401.98C446.894 402.11 446.396 402.175 445.902 402.175ZM453.163 402.175C452.427 402.175 451.784 402.031 451.234 401.742C450.693 401.453 450.274 401.038 449.976 400.498C449.678 399.957 449.528 399.319 449.528 398.583C449.528 398.033 449.612 397.539 449.78 397.101C449.948 396.663 450.19 396.29 450.507 395.983C450.833 395.666 451.22 395.428 451.667 395.27C452.114 395.102 452.613 395.018 453.163 395.018C453.899 395.018 454.537 395.163 455.078 395.452C455.628 395.74 456.052 396.151 456.35 396.682C456.657 397.213 456.811 397.847 456.811 398.583C456.811 399.142 456.723 399.64 456.546 400.078C456.378 400.516 456.136 400.894 455.819 401.211C455.502 401.528 455.115 401.77 454.659 401.938C454.211 402.096 453.713 402.175 453.163 402.175ZM453.163 400.596C453.47 400.596 453.736 400.521 453.96 400.372C454.183 400.223 454.36 400.004 454.491 399.715C454.621 399.417 454.687 399.039 454.687 398.583C454.687 397.902 454.547 397.404 454.267 397.087C453.988 396.761 453.619 396.598 453.163 396.598C452.865 396.598 452.599 396.668 452.366 396.808C452.142 396.947 451.965 397.166 451.835 397.464C451.714 397.753 451.653 398.126 451.653 398.583C451.653 399.263 451.793 399.771 452.073 400.106C452.352 400.433 452.716 400.596 453.163 400.596ZM460.626 402.175C460.029 402.175 459.503 402.031 459.046 401.742C458.599 401.453 458.249 401.038 457.998 400.498C457.746 399.957 457.62 399.319 457.62 398.583C457.62 397.847 457.746 397.213 457.998 396.682C458.249 396.151 458.599 395.74 459.046 395.452C459.503 395.163 460.029 395.018 460.626 395.018C461.166 395.018 461.641 395.149 462.051 395.41C462.471 395.671 462.755 396.011 462.904 396.43H462.75V393.117C462.75 392.763 462.839 392.497 463.016 392.32C463.193 392.134 463.454 392.041 463.799 392.041C464.134 392.041 464.395 392.134 464.581 392.32C464.768 392.497 464.861 392.763 464.861 393.117V401.071C464.861 401.416 464.768 401.681 464.581 401.868C464.404 402.054 464.148 402.147 463.813 402.147C463.477 402.147 463.216 402.054 463.03 401.868C462.853 401.681 462.764 401.416 462.764 401.071V400.12L462.918 400.666C462.788 401.122 462.508 401.49 462.079 401.77C461.66 402.04 461.175 402.175 460.626 402.175ZM461.255 400.596C461.562 400.596 461.828 400.521 462.051 400.372C462.275 400.223 462.452 400.004 462.583 399.715C462.713 399.417 462.778 399.039 462.778 398.583C462.778 397.902 462.638 397.404 462.359 397.087C462.079 396.761 461.711 396.598 461.255 396.598C460.956 396.598 460.691 396.668 460.458 396.808C460.234 396.947 460.057 397.166 459.927 397.464C459.805 397.753 459.745 398.126 459.745 398.583C459.745 399.263 459.885 399.771 460.164 400.106C460.444 400.433 460.807 400.596 461.255 400.596ZM469.912 402.175C469.101 402.175 468.402 402.031 467.815 401.742C467.238 401.444 466.79 401.029 466.473 400.498C466.166 399.957 466.012 399.324 466.012 398.597C466.012 397.889 466.161 397.269 466.459 396.738C466.758 396.197 467.172 395.778 467.704 395.48C468.244 395.172 468.854 395.018 469.535 395.018C470.029 395.018 470.476 395.102 470.877 395.27C471.277 395.428 471.622 395.661 471.911 395.969C472.2 396.267 472.419 396.635 472.568 397.073C472.717 397.502 472.792 397.982 472.792 398.513C472.792 398.69 472.736 398.825 472.624 398.918C472.512 399.002 472.349 399.044 472.135 399.044H467.745V397.954H471.268L471.044 398.149C471.044 397.767 470.989 397.451 470.877 397.199C470.765 396.938 470.602 396.742 470.387 396.612C470.182 396.481 469.926 396.416 469.619 396.416C469.274 396.416 468.98 396.495 468.738 396.654C468.496 396.812 468.309 397.04 468.179 397.339C468.048 397.637 467.983 397.996 467.983 398.415V398.527C467.983 399.235 468.146 399.757 468.472 400.092C468.808 400.428 469.302 400.596 469.954 400.596C470.178 400.596 470.434 400.568 470.723 400.512C471.012 400.456 471.282 400.367 471.534 400.246C471.748 400.144 471.939 400.111 472.107 400.148C472.275 400.176 472.405 400.251 472.498 400.372C472.591 400.493 472.643 400.633 472.652 400.791C472.671 400.95 472.638 401.108 472.554 401.267C472.47 401.416 472.33 401.542 472.135 401.644C471.818 401.821 471.459 401.952 471.058 402.035C470.667 402.129 470.285 402.175 469.912 402.175Z" fill="#132239"/>
<mask id="path-35-inside-3_1745_9064" fill="white">
<path fill-rule="evenodd" clip-rule="evenodd" d="M147.164 363.967C148.951 366.321 151.868 367.46 154.824 367.46H192.858C200.718 367.46 204.648 367.46 207.184 369.784C207.373 369.957 207.555 370.139 207.729 370.329C210.052 372.864 210.052 376.794 210.052 384.655C210.052 392.515 210.052 396.445 207.729 398.98C207.555 399.17 207.373 399.352 207.184 399.525C204.648 401.849 200.718 401.849 192.858 401.849H94.6062C86.7461 401.849 82.8161 401.849 80.2808 399.525C80.0911 399.352 79.9091 399.17 79.7353 398.98C77.4121 396.445 77.4121 392.515 77.4121 384.655C77.4121 376.794 77.4121 372.864 79.7353 370.329C79.9091 370.139 80.0911 369.957 80.2808 369.784C82.8161 367.46 86.7461 367.46 94.6062 367.46H132.639C135.594 367.46 138.512 366.321 140.299 363.967C140.553 363.632 140.79 363.3 140.998 362.982C142.233 361.091 145.23 361.091 146.465 362.982C146.673 363.3 146.91 363.632 147.164 363.967Z"/>
</mask>
<path fill-rule="evenodd" clip-rule="evenodd" d="M147.164 363.967C148.951 366.321 151.868 367.46 154.824 367.46H192.858C200.718 367.46 204.648 367.46 207.184 369.784C207.373 369.957 207.555 370.139 207.729 370.329C210.052 372.864 210.052 376.794 210.052 384.655C210.052 392.515 210.052 396.445 207.729 398.98C207.555 399.17 207.373 399.352 207.184 399.525C204.648 401.849 200.718 401.849 192.858 401.849H94.6062C86.7461 401.849 82.8161 401.849 80.2808 399.525C80.0911 399.352 79.9091 399.17 79.7353 398.98C77.4121 396.445 77.4121 392.515 77.4121 384.655C77.4121 376.794 77.4121 372.864 79.7353 370.329C79.9091 370.139 80.0911 369.957 80.2808 369.784C82.8161 367.46 86.7461 367.46 94.6062 367.46H132.639C135.594 367.46 138.512 366.321 140.299 363.967C140.553 363.632 140.79 363.3 140.998 362.982C142.233 361.091 145.23 361.091 146.465 362.982C146.673 363.3 146.91 363.632 147.164 363.967Z" fill="url(#paint30_radial_1745_9064)"/>
<path d="M207.184 369.784L205.856 371.232L205.856 371.232L207.184 369.784ZM207.729 370.329L209.178 369.002L209.178 369.001L207.729 370.329ZM207.729 398.98L209.178 400.308L209.178 400.308L207.729 398.98ZM207.184 399.525L205.856 398.077L205.856 398.077L207.184 399.525ZM80.2808 399.525L81.6083 398.077H81.6083L80.2808 399.525ZM79.7353 398.98L78.2865 400.308L78.2865 400.308L79.7353 398.98ZM79.7353 370.329L78.2865 369.002L78.2865 369.002L79.7353 370.329ZM80.2808 369.784L78.9532 368.335L78.9532 368.335L80.2808 369.784ZM146.465 362.982L144.82 364.057V364.057L146.465 362.982ZM140.299 363.967L141.864 365.155L140.299 363.967ZM147.164 363.967L145.599 365.155L147.164 363.967ZM154.824 369.425H192.858V365.495H154.824V369.425ZM192.858 369.425C196.84 369.425 199.641 369.429 201.77 369.7C203.848 369.965 205.008 370.455 205.856 371.232L208.511 368.335C206.824 366.789 204.751 366.118 202.266 365.802C199.831 365.492 196.736 365.495 192.858 365.495V369.425ZM205.856 371.232C206.004 371.368 206.145 371.509 206.28 371.657L209.178 369.001C208.966 368.77 208.743 368.547 208.511 368.335L205.856 371.232ZM206.28 371.657C207.057 372.504 207.548 373.664 207.813 375.743C208.084 377.872 208.087 380.672 208.087 384.655H212.017C212.017 380.777 212.021 377.682 211.711 375.247C211.395 372.762 210.724 370.689 209.178 369.002L206.28 371.657ZM208.087 384.655C208.087 388.637 208.084 391.437 207.813 393.566C207.548 395.645 207.057 396.805 206.28 397.652L209.178 400.308C210.724 398.62 211.395 396.547 211.711 394.062C212.021 391.627 212.017 388.532 212.017 384.655H208.087ZM206.28 397.652C206.145 397.8 206.004 397.942 205.856 398.077L208.511 400.974C208.743 400.762 208.965 400.539 209.178 400.308L206.28 397.652ZM205.856 398.077C205.008 398.854 203.848 399.344 201.77 399.609C199.641 399.88 196.841 399.884 192.858 399.884V403.814C196.736 403.814 199.831 403.817 202.266 403.508C204.751 403.191 206.824 402.521 208.511 400.974L205.856 398.077ZM192.858 399.884H94.6062V403.814H192.858V399.884ZM94.6062 399.884C90.6239 399.884 87.8238 399.88 85.6948 399.609C83.616 399.344 82.4562 398.854 81.6083 398.077L78.9532 400.974C80.6407 402.521 82.7135 403.191 85.1986 403.508C87.6334 403.817 90.7284 403.814 94.6062 403.814V399.884ZM81.6083 398.077C81.4608 397.941 81.3192 397.8 81.1841 397.652L78.2865 400.308C78.4989 400.539 78.7214 400.762 78.9532 400.974L81.6083 398.077ZM81.1841 397.652C80.4072 396.805 79.9164 395.645 79.6518 393.566C79.3809 391.437 79.3771 388.637 79.3771 384.655H75.4471C75.4471 388.532 75.4433 391.627 75.7532 394.062C76.0694 396.547 76.7402 398.62 78.2865 400.308L81.1841 397.652ZM79.3771 384.655C79.3771 380.672 79.3809 377.872 79.6518 375.743C79.9164 373.664 80.4072 372.504 81.1841 371.657L78.2865 369.002C76.7402 370.689 76.0694 372.762 75.7532 375.247C75.4433 377.682 75.4471 380.777 75.4471 384.655H79.3771ZM81.1841 371.657C81.3192 371.509 81.4608 371.368 81.6083 371.232L78.9532 368.335C78.7214 368.547 78.4989 368.77 78.2865 369.002L81.1841 371.657ZM81.6083 371.232C82.4562 370.455 83.616 369.965 85.6948 369.7C87.8238 369.429 90.6239 369.425 94.6062 369.425V365.495C90.7284 365.495 87.6334 365.492 85.1986 365.802C82.7135 366.118 80.6407 366.789 78.9532 368.335L81.6083 371.232ZM94.6062 369.425H132.639V365.495H94.6062V369.425ZM141.864 365.155C142.139 364.792 142.404 364.422 142.643 364.057L139.353 361.908C139.176 362.178 138.967 362.471 138.733 362.779L141.864 365.155ZM144.82 364.057C145.059 364.422 145.324 364.792 145.599 365.155L148.73 362.779C148.495 362.471 148.287 362.178 148.11 361.908L144.82 364.057ZM142.643 364.057C142.845 363.748 143.234 363.529 143.731 363.529C144.228 363.529 144.618 363.748 144.82 364.057L148.11 361.908C146.099 358.829 141.363 358.829 139.353 361.908L142.643 364.057ZM132.639 369.425C136.062 369.425 139.625 368.105 141.864 365.155L138.733 362.779C137.399 364.537 135.127 365.495 132.639 365.495V369.425ZM154.824 365.495C152.336 365.495 150.064 364.537 148.73 362.779L145.599 365.155C147.838 368.105 151.401 369.425 154.824 369.425V365.495Z" fill="white" mask="url(#path-35-inside-3_1745_9064)"/>
<path d="M116.114 390.356C115.787 390.356 115.536 390.268 115.359 390.091C115.191 389.904 115.107 389.643 115.107 389.308V381.34C115.107 380.986 115.191 380.716 115.359 380.529C115.536 380.343 115.769 380.25 116.058 380.25C116.309 380.25 116.5 380.301 116.631 380.404C116.771 380.497 116.929 380.655 117.106 380.879L122.012 387.127H121.635V381.284C121.635 380.958 121.719 380.706 121.887 380.529C122.064 380.343 122.315 380.25 122.641 380.25C122.968 380.25 123.215 380.343 123.382 380.529C123.559 380.706 123.648 380.958 123.648 381.284V389.35C123.648 389.657 123.569 389.904 123.41 390.091C123.252 390.268 123.038 390.356 122.767 390.356C122.506 390.356 122.297 390.305 122.138 390.203C121.989 390.1 121.826 389.937 121.649 389.713L116.757 383.465H117.12V389.308C117.12 389.643 117.036 389.904 116.868 390.091C116.701 390.268 116.449 390.356 116.114 390.356ZM128.609 390.384C127.873 390.384 127.23 390.24 126.68 389.951C126.14 389.662 125.72 389.247 125.422 388.707C125.124 388.166 124.975 387.528 124.975 386.792C124.975 386.242 125.059 385.748 125.227 385.31C125.394 384.872 125.637 384.499 125.953 384.192C126.28 383.875 126.666 383.637 127.114 383.479C127.561 383.311 128.059 383.227 128.609 383.227C129.346 383.227 129.984 383.372 130.524 383.661C131.074 383.949 131.498 384.36 131.796 384.891C132.104 385.422 132.258 386.056 132.258 386.792C132.258 387.351 132.169 387.849 131.992 388.287C131.824 388.725 131.582 389.103 131.265 389.42C130.948 389.737 130.562 389.979 130.105 390.147C129.658 390.305 129.159 390.384 128.609 390.384ZM128.609 388.805C128.917 388.805 129.182 388.73 129.406 388.581C129.63 388.432 129.807 388.213 129.937 387.924C130.068 387.626 130.133 387.248 130.133 386.792C130.133 386.111 129.993 385.613 129.714 385.296C129.434 384.97 129.066 384.807 128.609 384.807C128.311 384.807 128.046 384.877 127.813 385.016C127.589 385.156 127.412 385.375 127.281 385.673C127.16 385.962 127.1 386.335 127.1 386.792C127.1 387.472 127.239 387.98 127.519 388.315C127.799 388.642 128.162 388.805 128.609 388.805ZM134.432 387.309C134.199 387.309 133.998 387.23 133.83 387.071C133.672 386.913 133.593 386.717 133.593 386.484C133.593 386.242 133.672 386.042 133.83 385.883C133.998 385.725 134.199 385.646 134.432 385.646H137.311C137.544 385.646 137.74 385.725 137.898 385.883C138.066 386.042 138.15 386.242 138.15 386.484C138.15 386.717 138.066 386.913 137.898 387.071C137.74 387.23 137.544 387.309 137.311 387.309H134.432ZM144.586 390.384C143.524 390.384 142.615 390.175 141.86 389.755C141.105 389.336 140.523 388.749 140.113 387.994C139.712 387.23 139.512 386.33 139.512 385.296C139.512 384.523 139.624 383.828 139.847 383.213C140.08 382.589 140.416 382.058 140.854 381.62C141.292 381.172 141.823 380.828 142.447 380.585C143.081 380.343 143.794 380.222 144.586 380.222C145.052 380.222 145.523 380.282 145.998 380.404C146.482 380.515 146.902 380.678 147.256 380.893C147.489 381.023 147.647 381.186 147.731 381.382C147.815 381.578 147.838 381.773 147.801 381.969C147.773 382.165 147.694 382.333 147.563 382.472C147.442 382.612 147.288 382.701 147.102 382.738C146.916 382.775 146.706 382.733 146.473 382.612C146.193 382.444 145.9 382.323 145.592 382.249C145.285 382.174 144.973 382.137 144.656 382.137C144.031 382.137 143.505 382.263 143.076 382.514C142.657 382.757 142.34 383.111 142.126 383.577C141.911 384.043 141.804 384.616 141.804 385.296C141.804 385.967 141.911 386.54 142.126 387.015C142.34 387.491 142.657 387.854 143.076 388.106C143.505 388.348 144.031 388.469 144.656 388.469C144.954 388.469 145.257 388.432 145.564 388.357C145.881 388.283 146.184 388.166 146.473 388.008C146.715 387.887 146.93 387.845 147.116 387.882C147.312 387.91 147.47 387.994 147.591 388.134C147.722 388.264 147.801 388.423 147.829 388.609C147.866 388.795 147.848 388.982 147.773 389.168C147.699 389.354 147.559 389.513 147.354 389.643C147.009 389.876 146.585 390.058 146.082 390.189C145.578 390.319 145.08 390.384 144.586 390.384ZM151.847 390.384C151.111 390.384 150.468 390.24 149.918 389.951C149.377 389.662 148.958 389.247 148.66 388.707C148.362 388.166 148.213 387.528 148.213 386.792C148.213 386.242 148.296 385.748 148.464 385.31C148.632 384.872 148.874 384.499 149.191 384.192C149.517 383.875 149.904 383.637 150.351 383.479C150.799 383.311 151.297 383.227 151.847 383.227C152.583 383.227 153.221 383.372 153.762 383.661C154.312 383.949 154.736 384.36 155.034 384.891C155.342 385.422 155.495 386.056 155.495 386.792C155.495 387.351 155.407 387.849 155.23 388.287C155.062 388.725 154.82 389.103 154.503 389.42C154.186 389.737 153.799 389.979 153.343 390.147C152.895 390.305 152.397 390.384 151.847 390.384ZM151.847 388.805C152.154 388.805 152.42 388.73 152.644 388.581C152.867 388.432 153.044 388.213 153.175 387.924C153.305 387.626 153.371 387.248 153.371 386.792C153.371 386.111 153.231 385.613 152.951 385.296C152.672 384.97 152.304 384.807 151.847 384.807C151.549 384.807 151.283 384.877 151.05 385.016C150.826 385.156 150.649 385.375 150.519 385.673C150.398 385.962 150.337 386.335 150.337 386.792C150.337 387.472 150.477 387.98 150.757 388.315C151.036 388.642 151.4 388.805 151.847 388.805ZM159.31 390.384C158.713 390.384 158.187 390.24 157.73 389.951C157.283 389.662 156.933 389.247 156.682 388.707C156.43 388.166 156.304 387.528 156.304 386.792C156.304 386.056 156.43 385.422 156.682 384.891C156.933 384.36 157.283 383.949 157.73 383.661C158.187 383.372 158.713 383.227 159.31 383.227C159.85 383.227 160.325 383.358 160.735 383.619C161.155 383.88 161.439 384.22 161.588 384.639H161.434V381.326C161.434 380.972 161.523 380.706 161.7 380.529C161.877 380.343 162.138 380.25 162.483 380.25C162.818 380.25 163.079 380.343 163.265 380.529C163.452 380.706 163.545 380.972 163.545 381.326V389.28C163.545 389.625 163.452 389.89 163.265 390.077C163.088 390.263 162.832 390.356 162.497 390.356C162.161 390.356 161.9 390.263 161.714 390.077C161.537 389.89 161.448 389.625 161.448 389.28V388.329L161.602 388.875C161.472 389.331 161.192 389.699 160.763 389.979C160.344 390.249 159.859 390.384 159.31 390.384ZM159.939 388.805C160.246 388.805 160.512 388.73 160.735 388.581C160.959 388.432 161.136 388.213 161.267 387.924C161.397 387.626 161.462 387.248 161.462 386.792C161.462 386.111 161.322 385.613 161.043 385.296C160.763 384.97 160.395 384.807 159.939 384.807C159.64 384.807 159.375 384.877 159.142 385.016C158.918 385.156 158.741 385.375 158.611 385.673C158.49 385.962 158.429 386.335 158.429 386.792C158.429 387.472 158.569 387.98 158.848 388.315C159.128 388.642 159.491 388.805 159.939 388.805ZM168.596 390.384C167.785 390.384 167.087 390.24 166.499 389.951C165.922 389.653 165.474 389.238 165.158 388.707C164.85 388.166 164.696 387.533 164.696 386.806C164.696 386.097 164.845 385.478 165.144 384.947C165.442 384.406 165.856 383.987 166.388 383.689C166.928 383.381 167.539 383.227 168.219 383.227C168.713 383.227 169.16 383.311 169.561 383.479C169.961 383.637 170.306 383.87 170.595 384.178C170.884 384.476 171.103 384.844 171.252 385.282C171.401 385.711 171.476 386.191 171.476 386.722C171.476 386.899 171.42 387.034 171.308 387.127C171.196 387.211 171.033 387.253 170.819 387.253H166.43V386.163H169.952L169.728 386.358C169.728 385.976 169.673 385.66 169.561 385.408C169.449 385.147 169.286 384.951 169.071 384.821C168.866 384.69 168.61 384.625 168.303 384.625C167.958 384.625 167.664 384.704 167.422 384.863C167.18 385.021 166.993 385.249 166.863 385.548C166.732 385.846 166.667 386.205 166.667 386.624V386.736C166.667 387.444 166.83 387.966 167.156 388.301C167.492 388.637 167.986 388.805 168.638 388.805C168.862 388.805 169.118 388.777 169.407 388.721C169.696 388.665 169.966 388.576 170.218 388.455C170.432 388.353 170.623 388.32 170.791 388.357C170.959 388.385 171.089 388.46 171.182 388.581C171.275 388.702 171.327 388.842 171.336 389C171.355 389.159 171.322 389.317 171.238 389.476C171.154 389.625 171.014 389.751 170.819 389.853C170.502 390.03 170.143 390.161 169.742 390.244C169.351 390.338 168.969 390.384 168.596 390.384Z" fill="#132239"/>
<defs>
<filter id="filter0_b_1745_9064" x="8.62916" y="98.2509" width="414.521" height="413.645" filterUnits="userSpaceOnUse" color-interpolation-filters="sRGB">
<feFlood flood-opacity="0" result="BackgroundImageFix"/>
<feGaussianBlur in="BackgroundImageFix" stdDeviation="17.6854"/>
<feComposite in2="SourceAlpha" operator="in" result="effect1_backgroundBlur_1745_9064"/>
<feBlend mode="normal" in="SourceGraphic" in2="effect1_backgroundBlur_1745_9064" result="shape"/>
</filter>
<filter id="filter1_i_1745_9064" x="43.9999" y="145.41" width="331.989" height="335.046" filterUnits="userSpaceOnUse" color-interpolation-filters="sRGB">
<feFlood flood-opacity="0" result="BackgroundImageFix"/>
<feBlend mode="normal" in="SourceGraphic" in2="BackgroundImageFix" result="shape"/>
<feColorMatrix in="SourceAlpha" type="matrix" values="0 0 0 0 0 0 0 0 0 0 0 0 0 0 0 0 0 0 127 0" result="hardAlpha"/>
<feOffset dy="3.93008"/>
<feGaussianBlur stdDeviation="15.2291"/>
<feComposite in2="hardAlpha" operator="arithmetic" k2="-1" k3="1"/>
<feColorMatrix type="matrix" values="0 0 0 0 1 0 0 0 0 1 0 0 0 0 1 0 0 0 0.25 0"/>
<feBlend mode="normal" in2="shape" result="effect1_innerShadow_1745_9064"/>
</filter>
<filter id="filter2_b_1745_9064" x="48.292" y="-73.689" width="491.158" height="490.282" filterUnits="userSpaceOnUse" color-interpolation-filters="sRGB">
<feFlood flood-opacity="0" result="BackgroundImageFix"/>
<feGaussianBlur in="BackgroundImageFix" stdDeviation="36.8445"/>
<feComposite in2="SourceAlpha" operator="in" result="effect1_backgroundBlur_1745_9064"/>
<feBlend mode="normal" in="SourceGraphic" in2="effect1_backgroundBlur_1745_9064" result="shape"/>
</filter>
<filter id="filter3_i_1745_9064" x="121.981" y="11.7886" width="331.989" height="335.046" filterUnits="userSpaceOnUse" color-interpolation-filters="sRGB">
<feFlood flood-opacity="0" result="BackgroundImageFix"/>
<feBlend mode="normal" in="SourceGraphic" in2="BackgroundImageFix" result="shape"/>
<feColorMatrix in="SourceAlpha" type="matrix" values="0 0 0 0 0 0 0 0 0 0 0 0 0 0 0 0 0 0 127 0" result="hardAlpha"/>
<feOffset dy="3.93008"/>
<feGaussianBlur stdDeviation="15.2291"/>
<feComposite in2="hardAlpha" operator="arithmetic" k2="-1" k3="1"/>
<feColorMatrix type="matrix" values="0 0 0 0 1 0 0 0 0 1 0 0 0 0 1 0 0 0 0.25 0"/>
<feBlend mode="normal" in2="shape" result="effect1_innerShadow_1745_9064"/>
</filter>
<filter id="filter4_b_1745_9064" x="136.357" y="69.7577" width="471.507" height="470.632" filterUnits="userSpaceOnUse" color-interpolation-filters="sRGB">
<feFlood flood-opacity="0" result="BackgroundImageFix"/>
<feGaussianBlur in="BackgroundImageFix" stdDeviation="31.9319"/>
<feComposite in2="SourceAlpha" operator="in" result="effect1_backgroundBlur_1745_9064"/>
<feBlend mode="normal" in="SourceGraphic" in2="effect1_backgroundBlur_1745_9064" result="shape"/>
</filter>
<filter id="filter5_i_1745_9064" x="200.221" y="145.41" width="331.989" height="335.046" filterUnits="userSpaceOnUse" color-interpolation-filters="sRGB">
<feFlood flood-opacity="0" result="BackgroundImageFix"/>
<feBlend mode="normal" in="SourceGraphic" in2="BackgroundImageFix" result="shape"/>
<feColorMatrix in="SourceAlpha" type="matrix" values="0 0 0 0 0 0 0 0 0 0 0 0 0 0 0 0 0 0 127 0" result="hardAlpha"/>
<feOffset dy="3.93008"/>
<feGaussianBlur stdDeviation="15.2291"/>
<feComposite in2="hardAlpha" operator="arithmetic" k2="-1" k3="1"/>
<feColorMatrix type="matrix" values="0 0 0 0 1 0 0 0 0 1 0 0 0 0 1 0 0 0 0.25 0"/>
<feBlend mode="normal" in2="shape" result="effect1_innerShadow_1745_9064"/>
</filter>
<filter id="filter6_f_1745_9064" x="37.0777" y="13.409" width="487.784" height="490.374" filterUnits="userSpaceOnUse" color-interpolation-filters="sRGB">
<feFlood flood-opacity="0" result="BackgroundImageFix"/>
<feBlend mode="normal" in="SourceGraphic" in2="BackgroundImageFix" result="shape"/>
<feGaussianBlur stdDeviation="70.7414" result="effect1_foregroundBlur_1745_9064"/>
</filter>
<filter id="filter7_bd_1745_9064" x="257.402" y="82.6975" width="61.156" height="73.0468" filterUnits="userSpaceOnUse" color-interpolation-filters="sRGB">
<feFlood flood-opacity="0" result="BackgroundImageFix"/>
<feGaussianBlur in="BackgroundImageFix" stdDeviation="8.29973"/>
<feComposite in2="SourceAlpha" operator="in" result="effect1_backgroundBlur_1745_9064"/>
<feColorMatrix in="SourceAlpha" type="matrix" values="0 0 0 0 0 0 0 0 0 0 0 0 0 0 0 0 0 0 127 0" result="hardAlpha"/>
<feMorphology radius="7.8629" operator="erode" in="SourceAlpha" result="effect2_dropShadow_1745_9064"/>
<feOffset dy="14.7378"/>
<feGaussianBlur stdDeviation="10.8077"/>
<feComposite in2="hardAlpha" operator="out"/>
<feColorMatrix type="matrix" values="0 0 0 0 0 0 0 0 0 0.276727 0 0 0 0 0.633333 0 0 0 1 0"/>
<feBlend mode="normal" in2="effect1_backgroundBlur_1745_9064" result="effect2_dropShadow_1745_9064"/>
<feBlend mode="normal" in="SourceGraphic" in2="effect2_dropShadow_1745_9064" result="shape"/>
</filter>
<filter id="filter8_bd_1745_9064" x="112.21" y="308.614" width="61.156" height="76.9769" filterUnits="userSpaceOnUse" color-interpolation-filters="sRGB">
<feFlood flood-opacity="0" result="BackgroundImageFix"/>
<feGaussianBlur in="BackgroundImageFix" stdDeviation="8.29973"/>
<feComposite in2="SourceAlpha" operator="in" result="effect1_backgroundBlur_1745_9064"/>
<feColorMatrix in="SourceAlpha" type="matrix" values="0 0 0 0 0 0 0 0 0 0 0 0 0 0 0 0 0 0 127 0" result="hardAlpha"/>
<feMorphology radius="7.8629" operator="erode" in="SourceAlpha" result="effect2_dropShadow_1745_9064"/>
<feOffset dy="18.6679"/>
<feGaussianBlur stdDeviation="10.8077"/>
<feComposite in2="hardAlpha" operator="out"/>
<feColorMatrix type="matrix" values="0 0 0 0 0 0 0 0 0 0.276727 0 0 0 0 0.633333 0 0 0 1 0"/>
<feBlend mode="normal" in2="effect1_backgroundBlur_1745_9064" result="effect2_dropShadow_1745_9064"/>
<feBlend mode="normal" in="SourceGraphic" in2="effect2_dropShadow_1745_9064" result="shape"/>
</filter>
<filter id="filter9_bd_1745_9064" x="384.235" y="317.455" width="61.156" height="72.0643" filterUnits="userSpaceOnUse" color-interpolation-filters="sRGB">
<feFlood flood-opacity="0" result="BackgroundImageFix"/>
<feGaussianBlur in="BackgroundImageFix" stdDeviation="8.29973"/>
<feComposite in2="SourceAlpha" operator="in" result="effect1_backgroundBlur_1745_9064"/>
<feColorMatrix in="SourceAlpha" type="matrix" values="0 0 0 0 0 0 0 0 0 0 0 0 0 0 0 0 0 0 127 0" result="hardAlpha"/>
<feMorphology radius="7.8629" operator="erode" in="SourceAlpha" result="effect2_dropShadow_1745_9064"/>
<feOffset dy="13.7553"/>
<feGaussianBlur stdDeviation="10.8077"/>
<feComposite in2="hardAlpha" operator="out"/>
<feColorMatrix type="matrix" values="0 0 0 0 0 0 0 0 0 0.276727 0 0 0 0 0.633333 0 0 0 1 0"/>
<feBlend mode="normal" in2="effect1_backgroundBlur_1745_9064" result="effect2_dropShadow_1745_9064"/>
<feBlend mode="normal" in="SourceGraphic" in2="effect2_dropShadow_1745_9064" result="shape"/>
</filter>
<radialGradient id="paint0_radial_1745_9064" cx="0" cy="0" r="1" gradientUnits="userSpaceOnUse" gradientTransform="translate(352.772 72.2208) rotate(124.173) scale(453.051 454.246)">
<stop offset="0.659247" stop-color="#001A3C" stop-opacity="0"/>
<stop offset="1"/>
</radialGradient>
<radialGradient id="paint1_radial_1745_9064" cx="0" cy="0" r="1" gradientUnits="userSpaceOnUse" gradientTransform="translate(188.691 360.59) rotate(-62.5658) scale(173.801 174.26)">
<stop stop-color="#12FF41"/>
<stop offset="1" stop-color="#14FF43" stop-opacity="0"/>
</radialGradient>
<linearGradient id="paint2_linear_1745_9064" x1="43.9999" y1="145.409" x2="411.61" y2="191.322" gradientUnits="userSpaceOnUse">
<stop stop-color="#02FF35"/>
<stop offset="1" stop-color="#68FF86"/>
</linearGradient>
<linearGradient id="paint3_linear_1745_9064" x1="259.512" y1="316.869" x2="41.3925" y2="29.4813" gradientUnits="userSpaceOnUse">
<stop stop-color="#3248E4"/>
<stop offset="1" stop-color="#3248E4" stop-opacity="0.04"/>
</linearGradient>
<radialGradient id="paint4_radial_1745_9064" cx="0" cy="0" r="1" gradientUnits="userSpaceOnUse" gradientTransform="translate(309.663 200.725) rotate(156.352) scale(280.516 281.256)">
<stop offset="0.659247" stop-color="white" stop-opacity="0"/>
<stop offset="1" stop-color="#BDDAFF"/>
</radialGradient>
<linearGradient id="paint5_linear_1745_9064" x1="-20.5266" y1="293.071" x2="263.648" y2="299.352" gradientUnits="userSpaceOnUse">
<stop stop-color="white"/>
<stop offset="1" stop-color="white" stop-opacity="0"/>
</linearGradient>
<radialGradient id="paint6_radial_1745_9064" cx="0" cy="0" r="1" gradientUnits="userSpaceOnUse" gradientTransform="translate(355.585 50.1064) rotate(114.752) scale(256.956 257.612)">
<stop stop-color="white"/>
<stop offset="1" stop-color="white" stop-opacity="0"/>
</radialGradient>
<radialGradient id="paint7_radial_1745_9064" cx="0" cy="0" r="1" gradientUnits="userSpaceOnUse" gradientTransform="translate(430.753 -61.4008) rotate(124.173) scale(453.051 454.246)">
<stop offset="0.659247" stop-color="#001A3C" stop-opacity="0"/>
<stop offset="1"/>
</radialGradient>
<radialGradient id="paint8_radial_1745_9064" cx="0" cy="0" r="1" gradientUnits="userSpaceOnUse" gradientTransform="translate(266.672 226.969) rotate(-62.5658) scale(173.801 174.26)">
<stop stop-color="#12FF41"/>
<stop offset="1" stop-color="#14FF43" stop-opacity="0"/>
</radialGradient>
<linearGradient id="paint9_linear_1745_9064" x1="121.981" y1="11.7875" x2="489.591" y2="57.7006" gradientUnits="userSpaceOnUse">
<stop stop-color="#02FF35"/>
<stop offset="1" stop-color="#68FF86"/>
</linearGradient>
<linearGradient id="paint10_linear_1745_9064" x1="259.512" y1="316.869" x2="41.3925" y2="29.4813" gradientUnits="userSpaceOnUse">
<stop stop-color="#32A4E4"/>
<stop offset="0.535658" stop-color="#3248E4" stop-opacity="0.04"/>
</linearGradient>
<radialGradient id="paint11_radial_1745_9064" cx="0" cy="0" r="1" gradientUnits="userSpaceOnUse" gradientTransform="translate(192.954 103.214) rotate(104.467) scale(286.995 286.995)">
<stop offset="0.365437" stop-color="white" stop-opacity="0"/>
<stop offset="1" stop-color="#BDDAFF"/>
</radialGradient>
<linearGradient id="paint12_linear_1745_9064" x1="121.822" y1="87.9215" x2="317.028" y2="306.679" gradientUnits="userSpaceOnUse">
<stop stop-color="white"/>
<stop offset="1" stop-color="white" stop-opacity="0"/>
</linearGradient>
<radialGradient id="paint13_radial_1745_9064" cx="0" cy="0" r="1" gradientUnits="userSpaceOnUse" gradientTransform="translate(433.566 -83.5152) rotate(114.752) scale(256.956 257.612)">
<stop stop-color="white"/>
<stop offset="1" stop-color="white" stop-opacity="0"/>
</radialGradient>
<radialGradient id="paint14_radial_1745_9064" cx="0" cy="0" r="1" gradientUnits="userSpaceOnUse" gradientTransform="translate(508.993 72.2206) rotate(124.173) scale(453.051 454.246)">
<stop offset="0.659247" stop-color="#001A3C" stop-opacity="0"/>
<stop offset="1"/>
</radialGradient>
<radialGradient id="paint15_radial_1745_9064" cx="0" cy="0" r="1" gradientUnits="userSpaceOnUse" gradientTransform="translate(344.912 360.59) rotate(-62.5658) scale(173.801 174.26)">
<stop stop-color="#12FF41"/>
<stop offset="1" stop-color="#14FF43" stop-opacity="0"/>
</radialGradient>
<linearGradient id="paint16_linear_1745_9064" x1="200.221" y1="145.409" x2="567.831" y2="191.322" gradientUnits="userSpaceOnUse">
<stop stop-color="#02FF35"/>
<stop offset="1" stop-color="#68FF86"/>
</linearGradient>
<linearGradient id="paint17_linear_1745_9064" x1="210.751" y1="-37.3309" x2="72.7065" y2="331.114" gradientUnits="userSpaceOnUse">
<stop stop-color="#32E48F"/>
<stop offset="1" stop-color="#3248E4" stop-opacity="0.04"/>
</linearGradient>
<radialGradient id="paint18_radial_1745_9064" cx="0" cy="0" r="1" gradientUnits="userSpaceOnUse" gradientTransform="translate(109.481 185.025) rotate(19.6443) scale(211.716 211.716)">
<stop offset="0.375261" stop-color="white" stop-opacity="0"/>
<stop offset="1" stop-color="#BDDAFF"/>
</radialGradient>
<linearGradient id="paint19_linear_1745_9064" x1="485.021" y1="476.241" x2="366.215" y2="145.41" gradientUnits="userSpaceOnUse">
<stop stop-color="white"/>
<stop offset="1" stop-color="white" stop-opacity="0"/>
</linearGradient>
<radialGradient id="paint20_radial_1745_9064" cx="0" cy="0" r="1" gradientUnits="userSpaceOnUse" gradientTransform="translate(511.806 50.1063) rotate(114.752) scale(256.956 257.612)">
<stop stop-color="white"/>
<stop offset="1" stop-color="white" stop-opacity="0"/>
</radialGradient>
<linearGradient id="paint21_linear_1745_9064" x1="339.245" y1="377.287" x2="448.132" y2="205.538" gradientUnits="userSpaceOnUse">
<stop stop-color="#02FF35"/>
<stop offset="1" stop-color="#68FF86"/>
</linearGradient>
<linearGradient id="paint22_linear_1745_9064" x1="339.245" y1="377.287" x2="448.132" y2="205.538" gradientUnits="userSpaceOnUse">
<stop stop-color="#02FF35"/>
<stop offset="1" stop-color="#68FF86"/>
</linearGradient>
<radialGradient id="paint23_radial_1745_9064" cx="0" cy="0" r="1" gradientUnits="userSpaceOnUse" gradientTransform="translate(195.305 337.986) rotate(-44.2697) scale(246.321 246.321)">
<stop stop-color="#27AB6C"/>
<stop offset="1" stop-color="#2CEC52"/>
</radialGradient>
<linearGradient id="paint24_linear_1745_9064" x1="291.909" y1="110.948" x2="275.144" y2="362.3" gradientUnits="userSpaceOnUse">
<stop stop-color="white"/>
<stop offset="1" stop-color="white" stop-opacity="0"/>
</linearGradient>
<linearGradient id="paint25_linear_1745_9064" x1="391.318" y1="336.021" x2="426.517" y2="165.039" gradientUnits="userSpaceOnUse">
<stop stop-color="#00C628"/>
<stop offset="1" stop-color="#06FF38"/>
</linearGradient>
<linearGradient id="paint26_linear_1745_9064" x1="310.754" y1="165.062" x2="349.072" y2="265.771" gradientUnits="userSpaceOnUse">
<stop stop-color="white"/>
<stop offset="1" stop-color="white" stop-opacity="0"/>
</linearGradient>
<linearGradient id="paint27_linear_1745_9064" x1="289.628" y1="139.517" x2="178.603" y2="259.876" gradientUnits="userSpaceOnUse">
<stop stop-color="white"/>
<stop offset="1" stop-color="white" stop-opacity="0"/>
</linearGradient>
<radialGradient id="paint28_radial_1745_9064" cx="0" cy="0" r="1" gradientUnits="userSpaceOnUse" gradientTransform="translate(269.488 70.7116) rotate(90) scale(20.6054 53.5473)">
<stop stop-color="white" stop-opacity="0.5"/>
<stop offset="1" stop-color="#F6F5FA"/>
</radialGradient>
<radialGradient id="paint29_radial_1745_9064" cx="0" cy="0" r="1" gradientUnits="userSpaceOnUse" gradientTransform="translate(431.603 393.469) rotate(90) scale(20.1142 53.5474)">
<stop stop-color="white" stop-opacity="0.5"/>
<stop offset="1" stop-color="#F6F5FA"/>
</radialGradient>
<radialGradient id="paint30_radial_1745_9064" cx="0" cy="0" r="1" gradientUnits="userSpaceOnUse" gradientTransform="translate(143.732 381.706) rotate(90) scale(20.1423 66.3201)">
<stop stop-color="white" stop-opacity="0.5"/>
<stop offset="1" stop-color="#F6F5FA"/>
</radialGradient>
</defs>
</svg>
