<svg width="588" height="504" viewBox="0 0 588 504" fill="none" xmlns="http://www.w3.org/2000/svg">
<path d="M59.2229 299.183C59.2229 388.71 131.993 461.302 221.779 461.302C311.564 461.302 384.335 388.71 384.335 299.183C384.335 209.656 311.564 137.064 221.779 137.064C131.993 137.064 59.2229 209.655 59.2229 299.183Z" fill="url(#paint0_radial_1786_331)" fill-opacity="0.54" style="mix-blend-mode:overlay"/>
<path d="M59.2229 299.183C59.2229 388.71 131.993 461.302 221.779 461.302C311.564 461.302 384.335 388.71 384.335 299.183C384.335 209.656 311.564 137.064 221.779 137.064C131.993 137.064 59.2229 209.655 59.2229 299.183Z" stroke="url(#paint1_radial_1786_331)" stroke-width="6.87764"/>
<g filter="url(#filter0_b_1786_331)">
<path fill-rule="evenodd" clip-rule="evenodd" d="M221.785 133.625C313.461 133.625 387.78 207.748 387.78 299.183C387.78 347.822 372.557 386.443 335.229 423.816C297.731 461.361 258.91 476.529 209.995 476.529C118.318 476.529 44 402.406 44 310.971C44 262.332 59.2228 223.711 96.5507 186.338C134.049 148.793 172.869 133.625 221.785 133.625Z" fill="url(#paint2_linear_1786_331)" fill-opacity="0.28"/>
</g>
<g filter="url(#filter1_i_1786_331)">
<ellipse cx="165.995" cy="165.558" rx="165.995" ry="165.558" transform="matrix(1 0 0 -1 44 476.531)" fill="url(#paint3_linear_1786_331)" fill-opacity="0.45"/>
<ellipse cx="165.995" cy="165.558" rx="165.995" ry="165.558" transform="matrix(1 0 0 -1 44 476.531)" fill="url(#paint4_radial_1786_331)" fill-opacity="0.54" style="mix-blend-mode:overlay"/>
</g>
<path d="M375.498 310.973C375.498 219.811 301.401 145.907 209.995 145.907C118.588 145.907 44.4913 219.811 44.4913 310.973C44.4913 402.136 118.588 476.04 209.995 476.04C301.401 476.04 375.498 402.136 375.498 310.973Z" stroke="url(#paint5_linear_1786_331)" stroke-width="0.98252"/>
<path fill-rule="evenodd" clip-rule="evenodd" d="M387.78 299.183C387.78 207.748 313.461 133.625 221.785 133.625C172.869 133.625 134.049 148.793 96.5507 186.338C59.2228 223.711 44 262.332 44 310.971C44 345.259 54.451 377.113 72.3493 403.536C54.4511 377.113 44 345.26 44 310.971C44 219.536 118.318 145.414 209.995 145.414C301.671 145.414 375.989 219.536 375.989 310.971C375.989 402.206 301.997 476.204 210.598 476.528C210.397 476.529 210.196 476.529 209.995 476.529C170.491 476.529 134.21 462.766 105.709 439.785C134.21 462.766 170.491 476.529 209.995 476.529C210.196 476.529 210.397 476.529 210.598 476.528C259.23 476.404 297.885 461.206 335.229 423.816C372.557 386.443 387.78 347.822 387.78 299.183Z" fill="url(#paint6_radial_1786_331)"/>
<path d="M137.207 165.558C137.207 255.085 209.977 327.677 299.763 327.677C389.549 327.677 462.319 255.085 462.319 165.558C462.319 76.0305 389.549 3.43881 299.763 3.43881C209.977 3.4388 137.207 76.0305 137.207 165.558Z" fill="url(#paint7_radial_1786_331)" fill-opacity="0.54" style="mix-blend-mode:overlay"/>
<path d="M137.207 165.558C137.207 255.085 209.977 327.677 299.763 327.677C389.549 327.677 462.319 255.085 462.319 165.558C462.319 76.0305 389.549 3.43881 299.763 3.43881C209.977 3.4388 137.207 76.0305 137.207 165.558Z" stroke="url(#paint8_radial_1786_331)" stroke-width="6.87764"/>
<g filter="url(#filter2_b_1786_331)">
<path fill-rule="evenodd" clip-rule="evenodd" d="M299.769 0C391.446 0 465.764 74.1228 465.764 165.558C465.764 214.197 450.541 252.818 413.213 290.191C375.715 327.736 336.895 342.904 287.979 342.904C196.303 342.904 121.984 268.781 121.984 177.346C121.984 128.707 137.207 90.0864 174.535 52.7126C212.033 15.1684 250.854 0 299.769 0Z" fill="url(#paint9_linear_1786_331)" fill-opacity="0.28"/>
</g>
<g filter="url(#filter3_i_1786_331)">
<ellipse cx="165.995" cy="165.558" rx="165.995" ry="165.558" transform="matrix(1 0 0 -1 121.984 342.906)" fill="url(#paint10_linear_1786_331)" fill-opacity="0.27"/>
<ellipse cx="165.995" cy="165.558" rx="165.995" ry="165.558" transform="matrix(1 0 0 -1 121.984 342.906)" fill="url(#paint11_radial_1786_331)" fill-opacity="0.54" style="mix-blend-mode:overlay"/>
</g>
<path d="M453.482 177.348C453.482 86.1859 379.385 12.2819 287.979 12.2819C196.573 12.2819 122.476 86.1859 122.476 177.348C122.476 268.511 196.573 342.415 287.979 342.415C379.385 342.415 453.482 268.511 453.482 177.348Z" stroke="url(#paint12_linear_1786_331)" stroke-opacity="0.54" stroke-width="0.98252"/>
<path fill-rule="evenodd" clip-rule="evenodd" d="M465.764 165.558C465.764 74.1228 391.446 0 299.769 0C250.854 0 212.033 15.1684 174.535 52.7126C137.207 90.0864 121.984 128.707 121.984 177.346C121.984 211.634 132.435 243.488 150.334 269.911C132.435 243.488 121.984 211.635 121.984 177.346C121.984 85.9114 196.303 11.7886 287.979 11.7886C379.655 11.7886 453.974 85.9114 453.974 177.346C453.974 268.581 379.981 342.579 288.583 342.903C288.382 342.904 288.18 342.904 287.979 342.904C248.475 342.904 212.194 329.141 183.694 306.16C212.194 329.141 248.475 342.904 287.979 342.904C288.18 342.904 288.382 342.904 288.583 342.903C337.214 342.779 375.87 327.581 413.213 290.191C450.541 252.818 465.764 214.197 465.764 165.558Z" fill="url(#paint13_radial_1786_331)"/>
<path d="M215.442 299.183C215.442 388.71 288.212 461.302 377.997 461.302C467.783 461.302 540.553 388.71 540.553 299.183C540.553 209.656 467.783 137.064 377.998 137.064C288.212 137.064 215.442 209.655 215.442 299.183Z" fill="url(#paint14_radial_1786_331)" fill-opacity="0.54" style="mix-blend-mode:overlay"/>
<path d="M215.442 299.183C215.442 388.71 288.212 461.302 377.997 461.302C467.783 461.302 540.553 388.71 540.553 299.183C540.553 209.656 467.783 137.064 377.998 137.064C288.212 137.064 215.442 209.655 215.442 299.183Z" stroke="url(#paint15_radial_1786_331)" stroke-width="6.87764"/>
<g filter="url(#filter4_b_1786_331)">
<path fill-rule="evenodd" clip-rule="evenodd" d="M378.004 133.625C469.68 133.625 543.998 207.748 543.998 299.183C543.998 347.822 528.776 386.443 491.448 423.816C453.95 461.361 415.129 476.529 366.213 476.529C274.537 476.529 200.219 402.406 200.219 310.971C200.219 262.332 215.442 223.711 252.769 186.338C290.267 148.793 329.088 133.625 378.004 133.625Z" fill="url(#paint16_linear_1786_331)" fill-opacity="0.28"/>
</g>
<g filter="url(#filter5_i_1786_331)">
<ellipse cx="165.995" cy="165.558" rx="165.995" ry="165.558" transform="matrix(1 0 0 -1 200.219 476.531)" fill="url(#paint17_linear_1786_331)" fill-opacity="0.27"/>
<ellipse cx="165.995" cy="165.558" rx="165.995" ry="165.558" transform="matrix(1 0 0 -1 200.219 476.531)" fill="url(#paint18_radial_1786_331)" fill-opacity="0.54" style="mix-blend-mode:overlay"/>
</g>
<path d="M531.717 310.973C531.717 219.811 457.62 145.907 366.213 145.907C274.807 145.907 200.71 219.811 200.71 310.973C200.71 402.136 274.807 476.04 366.213 476.04C457.62 476.04 531.717 402.136 531.717 310.973Z" stroke="url(#paint19_linear_1786_331)" stroke-opacity="0.36" stroke-width="0.98252"/>
<path fill-rule="evenodd" clip-rule="evenodd" d="M543.998 299.183C543.998 207.748 469.68 133.625 378.004 133.625C329.088 133.625 290.267 148.793 252.769 186.338C215.442 223.711 200.219 262.332 200.219 310.971C200.219 345.259 210.67 377.113 228.568 403.536C210.67 377.113 200.219 345.26 200.219 310.971C200.219 219.536 274.537 145.414 366.213 145.414C457.89 145.414 532.208 219.536 532.208 310.971C532.208 402.206 458.216 476.204 366.817 476.528C366.616 476.529 366.415 476.529 366.213 476.529C326.709 476.529 290.428 462.766 261.928 439.785C290.429 462.766 326.709 476.529 366.213 476.529C366.415 476.529 366.616 476.529 366.817 476.528C415.449 476.404 454.104 461.206 491.448 423.816C528.776 386.443 543.998 347.822 543.998 299.183Z" fill="url(#paint20_radial_1786_331)"/>
<g style="mix-blend-mode:darken" filter="url(#filter6_f_1786_331)">
<path fill-rule="evenodd" clip-rule="evenodd" d="M383.204 324.092C386.292 254.014 348.582 187.935 286.838 154.891C269.725 164.05 255.831 172.07 239.429 187.398C194.016 229.836 176.506 278.609 178.753 334.539C206.864 352.131 240.095 362.299 275.702 362.299C310.829 362.299 343.645 352.403 371.514 335.245C383.204 324.092 383.204 324.092 383.204 324.092Z" fill="url(#paint21_linear_1786_331)"/>
</g>
<path fill-rule="evenodd" clip-rule="evenodd" d="M383.204 324.092C386.292 254.014 348.582 187.935 286.838 154.891C269.725 164.05 255.831 172.07 239.429 187.398C194.016 229.836 176.506 278.609 178.753 334.539C206.864 352.131 240.095 362.299 275.702 362.299C310.829 362.299 343.645 352.403 371.514 335.245C383.204 324.092 383.204 324.092 383.204 324.092Z" fill="url(#paint22_linear_1786_331)"/>
<path d="M179.26 334.245C176.578 264.826 214.011 199.479 275.143 166.641C336.482 199.59 373.961 265.267 370.998 334.948C343.261 351.967 310.626 361.779 275.697 361.779C240.291 361.779 207.241 351.696 179.26 334.245Z" fill="url(#paint23_radial_1786_331)" stroke="url(#paint24_linear_1786_331)" stroke-width="1.04668"/>
<path fill-rule="evenodd" clip-rule="evenodd" d="M383.204 324.092C386.292 254.014 348.582 187.935 286.838 154.891C269.725 164.05 255.831 172.07 239.429 187.398C194.016 229.836 176.506 278.609 178.753 334.539C206.864 352.131 240.095 362.299 275.702 362.299C310.829 362.299 343.645 352.403 371.514 335.245C383.204 324.092 383.204 324.092 383.204 324.092ZM275.148 166.044C336.891 199.088 374.601 265.167 371.514 335.245C343.645 352.403 310.829 362.299 275.702 362.299C240.095 362.299 206.864 352.131 178.753 334.539C175.948 264.723 213.612 198.977 275.148 166.044Z" fill="url(#paint25_linear_1786_331)" fill-opacity="0.42"/>
<path d="M383.205 324.092C386.292 254.014 348.582 187.935 286.839 154.891L275.148 166.044C336.892 199.088 374.602 265.167 371.514 335.245L383.205 324.092Z" fill="url(#paint26_linear_1786_331)" fill-opacity="0.59"/>
<path d="M286.838 154.891C269.725 164.05 255.831 172.07 239.429 187.398C194.016 229.836 176.506 278.609 178.753 334.539C175.948 264.723 213.612 198.977 275.148 166.044L286.838 154.891Z" fill="url(#paint27_linear_1786_331)"/>
<path d="M230.665 284.953C230.246 284.953 229.903 284.869 229.638 284.702C229.372 284.52 229.19 284.282 229.092 283.989C229.009 283.681 229.009 283.346 229.092 282.982C229.19 282.619 229.386 282.255 229.68 281.892L237.312 271.89V272.876H230.413C229.952 272.876 229.596 272.757 229.344 272.519C229.106 272.282 228.988 271.946 228.988 271.513C228.988 271.079 229.106 270.751 229.344 270.527C229.596 270.29 229.952 270.171 230.413 270.171H238.842C239.276 270.171 239.618 270.262 239.87 270.443C240.136 270.611 240.317 270.842 240.415 271.135C240.513 271.429 240.513 271.764 240.415 272.142C240.317 272.505 240.122 272.869 239.828 273.232L232.196 283.213V282.248H239.43C239.891 282.248 240.24 282.367 240.478 282.605C240.73 282.828 240.855 283.157 240.855 283.59C240.855 284.038 240.73 284.38 240.478 284.618C240.24 284.841 239.891 284.953 239.43 284.953H230.665ZM247.158 285.184C245.942 285.184 244.893 284.967 244.013 284.534C243.146 284.086 242.475 283.464 242 282.668C241.539 281.857 241.308 280.906 241.308 279.816C241.308 278.754 241.532 277.824 241.979 277.027C242.426 276.217 243.048 275.588 243.845 275.14C244.656 274.679 245.571 274.448 246.592 274.448C247.333 274.448 248.004 274.574 248.605 274.826C249.206 275.063 249.723 275.413 250.156 275.874C250.59 276.321 250.918 276.874 251.142 277.531C251.366 278.174 251.477 278.893 251.477 279.69C251.477 279.956 251.393 280.159 251.226 280.298C251.058 280.424 250.813 280.487 250.492 280.487H243.908V278.852H249.192L248.856 279.145C248.856 278.572 248.773 278.097 248.605 277.719C248.437 277.328 248.192 277.034 247.871 276.839C247.563 276.643 247.179 276.545 246.718 276.545C246.2 276.545 245.76 276.664 245.397 276.902C245.033 277.139 244.754 277.482 244.558 277.929C244.362 278.376 244.264 278.914 244.264 279.543V279.711C244.264 280.774 244.509 281.556 244.998 282.06C245.502 282.563 246.242 282.814 247.221 282.814C247.556 282.814 247.941 282.772 248.374 282.689C248.807 282.605 249.213 282.472 249.59 282.29C249.912 282.136 250.198 282.088 250.45 282.143C250.702 282.185 250.897 282.297 251.037 282.479C251.177 282.661 251.254 282.87 251.268 283.108C251.296 283.346 251.247 283.583 251.121 283.821C250.995 284.045 250.785 284.233 250.492 284.387C250.017 284.653 249.478 284.848 248.877 284.974C248.29 285.114 247.717 285.184 247.158 285.184ZM254.745 285.142C254.214 285.142 253.808 285.002 253.529 284.722C253.249 284.443 253.109 284.045 253.109 283.527V276.084C253.109 275.567 253.242 275.175 253.508 274.91C253.787 274.63 254.172 274.49 254.661 274.49C255.164 274.49 255.548 274.63 255.814 274.91C256.08 275.175 256.212 275.567 256.212 276.084V277.174H256.003C256.171 276.335 256.541 275.685 257.114 275.224C257.687 274.763 258.428 274.504 259.337 274.448C259.686 274.42 259.952 274.511 260.133 274.721C260.329 274.917 260.434 275.245 260.448 275.706C260.476 276.14 260.385 276.482 260.175 276.734C259.98 276.985 259.644 277.139 259.169 277.195L258.687 277.237C257.89 277.307 257.296 277.538 256.904 277.929C256.527 278.32 256.338 278.886 256.338 279.627V283.527C256.338 284.045 256.198 284.443 255.919 284.722C255.653 285.002 255.262 285.142 254.745 285.142ZM266.305 285.184C265.2 285.184 264.236 284.967 263.411 284.534C262.6 284.1 261.971 283.478 261.524 282.668C261.077 281.857 260.853 280.899 260.853 279.795C260.853 278.97 260.979 278.229 261.23 277.572C261.482 276.915 261.846 276.356 262.321 275.895C262.81 275.42 263.39 275.063 264.061 274.826C264.732 274.574 265.48 274.448 266.305 274.448C267.409 274.448 268.366 274.665 269.177 275.098C270.002 275.532 270.638 276.147 271.085 276.943C271.547 277.74 271.777 278.691 271.777 279.795C271.777 280.634 271.644 281.382 271.379 282.039C271.127 282.696 270.764 283.262 270.289 283.737C269.813 284.212 269.233 284.576 268.548 284.827C267.877 285.065 267.129 285.184 266.305 285.184ZM266.305 282.814C266.766 282.814 267.164 282.703 267.5 282.479C267.835 282.255 268.101 281.927 268.297 281.493C268.492 281.046 268.59 280.48 268.59 279.795C268.59 278.775 268.38 278.027 267.961 277.552C267.542 277.062 266.99 276.818 266.305 276.818C265.857 276.818 265.459 276.922 265.11 277.132C264.774 277.342 264.508 277.67 264.313 278.118C264.131 278.551 264.04 279.11 264.04 279.795C264.04 280.815 264.25 281.577 264.669 282.081C265.089 282.57 265.634 282.814 266.305 282.814ZM280.937 285.184C279.344 285.184 277.981 284.869 276.849 284.24C275.716 283.611 274.843 282.731 274.228 281.598C273.627 280.452 273.326 279.103 273.326 277.552C273.326 276.391 273.494 275.35 273.829 274.427C274.179 273.491 274.682 272.694 275.339 272.037C275.996 271.366 276.793 270.849 277.729 270.485C278.68 270.122 279.749 269.94 280.937 269.94C281.636 269.94 282.342 270.031 283.055 270.213C283.782 270.381 284.411 270.625 284.942 270.947C285.292 271.142 285.529 271.387 285.655 271.681C285.781 271.974 285.816 272.268 285.76 272.561C285.718 272.855 285.599 273.106 285.403 273.316C285.222 273.526 284.991 273.659 284.712 273.714C284.432 273.77 284.117 273.707 283.768 273.526C283.349 273.274 282.908 273.092 282.447 272.981C281.986 272.869 281.517 272.813 281.042 272.813C280.106 272.813 279.316 273.002 278.673 273.379C278.044 273.742 277.569 274.274 277.247 274.972C276.926 275.671 276.765 276.531 276.765 277.552C276.765 278.558 276.926 279.418 277.247 280.131C277.569 280.843 278.044 281.389 278.673 281.766C279.316 282.129 280.106 282.311 281.042 282.311C281.49 282.311 281.944 282.255 282.405 282.143C282.88 282.032 283.335 281.857 283.768 281.619C284.131 281.438 284.453 281.375 284.733 281.431C285.026 281.472 285.264 281.598 285.445 281.808C285.641 282.004 285.76 282.241 285.802 282.521C285.858 282.8 285.83 283.08 285.718 283.36C285.606 283.639 285.397 283.877 285.089 284.072C284.572 284.422 283.936 284.695 283.181 284.89C282.426 285.086 281.678 285.184 280.937 285.184ZM291.829 285.184C290.724 285.184 289.76 284.967 288.935 284.534C288.124 284.1 287.495 283.478 287.048 282.668C286.601 281.857 286.377 280.899 286.377 279.795C286.377 278.97 286.503 278.229 286.755 277.572C287.006 276.915 287.37 276.356 287.845 275.895C288.334 275.42 288.914 275.063 289.585 274.826C290.256 274.574 291.004 274.448 291.829 274.448C292.933 274.448 293.891 274.665 294.701 275.098C295.526 275.532 296.162 276.147 296.609 276.943C297.071 277.74 297.301 278.691 297.301 279.795C297.301 280.634 297.169 281.382 296.903 282.039C296.651 282.696 296.288 283.262 295.813 283.737C295.337 284.212 294.757 284.576 294.072 284.827C293.401 285.065 292.654 285.184 291.829 285.184ZM291.829 282.814C292.29 282.814 292.688 282.703 293.024 282.479C293.359 282.255 293.625 281.927 293.821 281.493C294.016 281.046 294.114 280.48 294.114 279.795C294.114 278.775 293.905 278.027 293.485 277.552C293.066 277.062 292.514 276.818 291.829 276.818C291.381 276.818 290.983 276.922 290.634 277.132C290.298 277.342 290.033 277.67 289.837 278.118C289.655 278.551 289.564 279.11 289.564 279.795C289.564 280.815 289.774 281.577 290.193 282.081C290.613 282.57 291.158 282.814 291.829 282.814ZM303.023 285.184C302.128 285.184 301.338 284.967 300.653 284.534C299.982 284.1 299.458 283.478 299.081 282.668C298.703 281.857 298.515 280.899 298.515 279.795C298.515 278.691 298.703 277.74 299.081 276.943C299.458 276.147 299.982 275.532 300.653 275.098C301.338 274.665 302.128 274.448 303.023 274.448C303.834 274.448 304.546 274.644 305.161 275.035C305.791 275.427 306.217 275.937 306.441 276.566H306.21V271.597C306.21 271.065 306.343 270.667 306.608 270.402C306.874 270.122 307.265 269.982 307.782 269.982C308.286 269.982 308.677 270.122 308.957 270.402C309.236 270.667 309.376 271.065 309.376 271.597V283.527C309.376 284.045 309.236 284.443 308.957 284.722C308.691 285.002 308.307 285.142 307.803 285.142C307.3 285.142 306.909 285.002 306.629 284.722C306.364 284.443 306.231 284.045 306.231 283.527V282.102L306.461 282.919C306.266 283.604 305.846 284.156 305.203 284.576C304.574 284.981 303.848 285.184 303.023 285.184ZM303.966 282.814C304.428 282.814 304.826 282.703 305.161 282.479C305.497 282.255 305.763 281.927 305.958 281.493C306.154 281.046 306.252 280.48 306.252 279.795C306.252 278.775 306.042 278.027 305.623 277.552C305.203 277.062 304.651 276.818 303.966 276.818C303.519 276.818 303.121 276.922 302.771 277.132C302.436 277.342 302.17 277.67 301.974 278.118C301.793 278.551 301.702 279.11 301.702 279.795C301.702 280.815 301.911 281.577 302.331 282.081C302.75 282.57 303.295 282.814 303.966 282.814ZM316.953 285.184C315.737 285.184 314.688 284.967 313.808 284.534C312.941 284.086 312.27 283.464 311.795 282.668C311.333 281.857 311.103 280.906 311.103 279.816C311.103 278.754 311.326 277.824 311.774 277.027C312.221 276.217 312.843 275.588 313.64 275.14C314.451 274.679 315.366 274.448 316.387 274.448C317.127 274.448 317.798 274.574 318.4 274.826C319.001 275.063 319.518 275.413 319.951 275.874C320.384 276.321 320.713 276.874 320.937 277.531C321.16 278.174 321.272 278.893 321.272 279.69C321.272 279.956 321.188 280.159 321.02 280.298C320.853 280.424 320.608 280.487 320.287 280.487H313.703V278.852H318.987L318.651 279.145C318.651 278.572 318.567 278.097 318.4 277.719C318.232 277.328 317.987 277.034 317.666 276.839C317.358 276.643 316.974 276.545 316.512 276.545C315.995 276.545 315.555 276.664 315.191 276.902C314.828 277.139 314.548 277.482 314.353 277.929C314.157 278.376 314.059 278.914 314.059 279.543V279.711C314.059 280.774 314.304 281.556 314.793 282.06C315.296 282.563 316.037 282.814 317.016 282.814C317.351 282.814 317.736 282.772 318.169 282.689C318.602 282.605 319.008 282.472 319.385 282.29C319.706 282.136 319.993 282.088 320.245 282.143C320.496 282.185 320.692 282.297 320.832 282.479C320.972 282.661 321.048 282.87 321.062 283.108C321.09 283.346 321.041 283.583 320.916 283.821C320.79 284.045 320.58 284.233 320.287 284.387C319.811 284.653 319.273 284.848 318.672 284.974C318.085 285.114 317.512 285.184 316.953 285.184Z" fill="#F3F8FC"/>
<g filter="url(#filter7_bd_1786_331)">
<circle cx="287.978" cy="113.275" r="13.9785" fill="white" fill-opacity="0.56" shape-rendering="crispEdges"/>
</g>
<circle cx="287.98" cy="113.277" r="7.86291" fill="white"/>
<g filter="url(#filter8_bd_1786_331)">
<circle cx="142.791" cy="339.189" r="13.9785" fill="white" fill-opacity="0.56" shape-rendering="crispEdges"/>
</g>
<circle cx="142.793" cy="339.191" r="7.86291" fill="white"/>
<g filter="url(#filter9_bd_1786_331)">
<circle cx="414.814" cy="348.033" r="13.9785" fill="white" fill-opacity="0.56" shape-rendering="crispEdges"/>
</g>
<circle cx="414.816" cy="348.035" r="7.86291" fill="white"/>
<mask id="path-29-inside-1_1786_331" fill="white">
<path fill-rule="evenodd" clip-rule="evenodd" d="M218.261 52.978C215.938 55.5133 215.938 59.4434 215.938 67.3035C215.938 75.1636 215.938 79.0936 218.261 81.6289C218.434 81.8186 218.616 82.0006 218.806 82.1744C221.341 84.4976 225.271 84.4976 233.132 84.4976H305.838C313.698 84.4976 317.628 84.4976 320.164 82.1744C320.353 82.0006 320.535 81.8186 320.709 81.6289C323.032 79.0936 323.032 75.1636 323.032 67.3035C323.032 59.4434 323.032 55.5133 320.709 52.978C320.535 52.7884 320.353 52.6064 320.164 52.4325C317.628 50.1094 313.698 50.1094 305.838 50.1094H233.132C225.271 50.1094 221.341 50.1094 218.806 52.4325C218.616 52.6064 218.434 52.7884 218.261 52.978ZM290.886 89.9018C292.317 87.7114 291.008 84.4979 288.392 84.4979H287.914C285.297 84.4979 283.988 87.7114 285.419 89.9018V89.9018V89.9018C286.654 91.793 289.651 91.793 290.886 89.9018V89.9018V89.9018Z"/>
</mask>
<path fill-rule="evenodd" clip-rule="evenodd" d="M218.261 52.978C215.938 55.5133 215.938 59.4434 215.938 67.3035C215.938 75.1636 215.938 79.0936 218.261 81.6289C218.434 81.8186 218.616 82.0006 218.806 82.1744C221.341 84.4976 225.271 84.4976 233.132 84.4976H305.838C313.698 84.4976 317.628 84.4976 320.164 82.1744C320.353 82.0006 320.535 81.8186 320.709 81.6289C323.032 79.0936 323.032 75.1636 323.032 67.3035C323.032 59.4434 323.032 55.5133 320.709 52.978C320.535 52.7884 320.353 52.6064 320.164 52.4325C317.628 50.1094 313.698 50.1094 305.838 50.1094H233.132C225.271 50.1094 221.341 50.1094 218.806 52.4325C218.616 52.6064 218.434 52.7884 218.261 52.978ZM290.886 89.9018C292.317 87.7114 291.008 84.4979 288.392 84.4979H287.914C285.297 84.4979 283.988 87.7114 285.419 89.9018V89.9018V89.9018C286.654 91.793 289.651 91.793 290.886 89.9018V89.9018V89.9018Z" fill="url(#paint28_radial_1786_331)"/>
<path d="M218.261 52.978L219.709 54.3056L219.709 54.3056L218.261 52.978ZM218.261 81.6289L219.709 80.3014L219.709 80.3014L218.261 81.6289ZM218.806 82.1744L220.134 80.7256L220.134 80.7256L218.806 82.1744ZM320.164 82.1744L318.836 80.7256L318.836 80.7256L320.164 82.1744ZM320.709 81.6289L319.26 80.3014L319.26 80.3014L320.709 81.6289ZM320.709 52.978L319.26 54.3056L319.26 54.3056L320.709 52.978ZM320.164 52.4325L321.491 50.9838L321.491 50.9838L320.164 52.4325ZM218.806 52.4325L220.134 53.8813L220.134 53.8813L218.806 52.4325ZM217.903 67.3035C217.903 63.3212 217.906 60.5211 218.177 58.392C218.442 56.3133 218.933 55.1534 219.709 54.3056L216.812 51.6505C215.266 53.3379 214.595 55.4107 214.279 57.8959C213.969 60.3307 213.972 63.4257 213.972 67.3035H217.903ZM219.709 80.3014C218.933 79.4535 218.442 78.2937 218.177 76.2149C217.906 74.0859 217.903 71.2858 217.903 67.3035H213.972C213.972 71.1813 213.969 74.2763 214.279 76.7111C214.595 79.1962 215.266 81.269 216.812 82.9565L219.709 80.3014ZM220.134 80.7256C219.986 80.5904 219.845 80.4489 219.709 80.3014L216.812 82.9565C217.024 83.1883 217.247 83.4108 217.479 83.6232L220.134 80.7256ZM233.132 82.5325C229.149 82.5325 226.349 82.5288 224.22 82.2579C222.141 81.9933 220.982 81.5025 220.134 80.7256L217.479 83.6232C219.166 85.1695 221.239 85.8402 223.724 86.1565C226.159 86.4664 229.254 86.4626 233.132 86.4626V82.5325ZM305.838 82.5325H233.132V86.4626H305.838V82.5325ZM318.836 80.7256C317.988 81.5025 316.828 81.9933 314.75 82.2579C312.62 82.5288 309.82 82.5325 305.838 82.5325V86.4626C309.716 86.4626 312.811 86.4664 315.246 86.1565C317.731 85.8402 319.804 85.1695 321.491 83.6232L318.836 80.7256ZM319.26 80.3014C319.125 80.4489 318.984 80.5904 318.836 80.7256L321.491 83.6232C321.723 83.4108 321.945 83.1883 322.158 82.9565L319.26 80.3014ZM321.067 67.3035C321.067 71.2858 321.063 74.0859 320.792 76.2149C320.528 78.2937 320.037 79.4535 319.26 80.3014L322.158 82.9565C323.704 81.269 324.375 79.1962 324.691 76.7111C325.001 74.2763 324.997 71.1813 324.997 67.3035H321.067ZM319.26 54.3056C320.037 55.1534 320.528 56.3133 320.792 58.392C321.063 60.5211 321.067 63.3212 321.067 67.3035H324.997C324.997 63.4257 325.001 60.3307 324.691 57.8959C324.375 55.4107 323.704 53.3379 322.158 51.6505L319.26 54.3056ZM318.836 53.8813C318.984 54.0165 319.125 54.1581 319.26 54.3056L322.158 51.6505C321.945 51.4186 321.723 51.1962 321.491 50.9838L318.836 53.8813ZM305.838 52.0744C309.82 52.0744 312.62 52.0781 314.75 52.3491C316.828 52.6136 317.988 53.1044 318.836 53.8813L321.491 50.9838C319.804 49.4375 317.731 48.7667 315.246 48.4505C312.811 48.1406 309.716 48.1443 305.838 48.1443V52.0744ZM233.132 52.0744H305.838V48.1443H233.132V52.0744ZM220.134 53.8813C220.982 53.1044 222.141 52.6136 224.22 52.3491C226.349 52.0781 229.149 52.0744 233.132 52.0744V48.1443C229.254 48.1443 226.159 48.1406 223.724 48.4505C221.239 48.7667 219.166 49.4375 217.479 50.9838L220.134 53.8813ZM219.709 54.3056C219.845 54.1581 219.986 54.0165 220.134 53.8813L217.479 50.9838C217.247 51.1962 217.024 51.4186 216.812 51.6505L219.709 54.3056ZM287.914 86.463H288.392V82.5329H287.914V86.463ZM283.774 90.9764C285.785 94.0548 290.521 94.0548 292.531 90.9764L289.241 88.8272C289.039 89.1365 288.65 89.3551 288.153 89.3551C287.656 89.3551 287.266 89.1365 287.064 88.8272L283.774 90.9764ZM288.392 86.463C288.788 86.463 289.14 86.6765 289.359 87.172C289.59 87.6958 289.561 88.3373 289.241 88.8272L292.531 90.9764C293.642 89.2758 293.674 87.2154 292.954 85.5849C292.222 83.9261 290.611 82.5329 288.392 82.5329V86.463ZM287.914 82.5329C285.694 82.5329 284.083 83.9261 283.351 85.5849C282.631 87.2154 282.663 89.2758 283.774 90.9764L287.064 88.8272C286.744 88.3373 286.715 87.6958 286.946 87.172C287.165 86.6765 287.517 86.463 287.914 86.463V82.5329Z" fill="white" mask="url(#path-29-inside-1_1786_331)"/>
<path d="M254.086 73.0913C252.977 73.0913 252.036 72.8816 251.263 72.4622C250.498 72.0429 249.916 71.4558 249.515 70.7009C249.115 69.9461 248.914 69.0608 248.914 68.045C248.914 67.2622 249.031 66.5586 249.264 65.9343C249.506 65.3006 249.851 64.7647 250.298 64.3267C250.755 63.8794 251.305 63.5346 251.948 63.2923C252.6 63.05 253.336 62.9289 254.156 62.9289C254.659 62.9289 255.163 62.9848 255.666 63.0966C256.169 63.2085 256.654 63.3948 257.12 63.6558C257.315 63.7676 257.446 63.9121 257.511 64.0891C257.586 64.2569 257.604 64.4386 257.567 64.6343C257.539 64.8207 257.464 64.9884 257.343 65.1375C257.231 65.2773 257.082 65.3705 256.896 65.4171C256.719 65.4543 256.514 65.4171 256.281 65.3052C255.973 65.1375 255.647 65.0164 255.302 64.9418C254.958 64.8579 254.58 64.816 254.17 64.816C253.508 64.816 252.954 64.9418 252.507 65.1934C252.059 65.4357 251.724 65.7991 251.5 66.2837C251.286 66.759 251.179 67.3461 251.179 68.045C251.179 69.0981 251.43 69.8948 251.934 70.4353C252.446 70.9759 253.201 71.2461 254.198 71.2461C254.534 71.2461 254.878 71.2135 255.232 71.1483C255.587 71.083 255.936 70.9898 256.281 70.8687L255.876 71.7493V69.0655H254.617C254.338 69.0655 254.124 68.9956 253.974 68.8558C253.825 68.716 253.751 68.525 253.751 68.2827C253.751 68.031 253.825 67.84 253.974 67.7095C254.124 67.5698 254.338 67.4999 254.617 67.4999H256.812C257.092 67.4999 257.301 67.5744 257.441 67.7235C257.59 67.8726 257.665 68.087 257.665 68.3665V71.6095C257.665 71.8518 257.618 72.0569 257.525 72.2246C257.432 72.3923 257.273 72.5135 257.05 72.588C256.63 72.7371 256.16 72.8583 255.638 72.9515C255.116 73.0447 254.599 73.0913 254.086 73.0913ZM260.533 73.0633C260.179 73.0633 259.909 72.9655 259.722 72.7698C259.536 72.5741 259.443 72.2991 259.443 71.945V64.187C259.443 63.8235 259.536 63.5486 259.722 63.3622C259.918 63.1758 260.193 63.0827 260.547 63.0827H263.944C265.043 63.0827 265.891 63.3622 266.488 63.9214C267.084 64.4712 267.382 65.24 267.382 66.2278C267.382 67.2156 267.084 67.9891 266.488 68.5483C265.891 69.1074 265.043 69.387 263.944 69.387H261.609V71.945C261.609 72.2991 261.516 72.5741 261.33 72.7698C261.153 72.9655 260.887 73.0633 260.533 73.0633ZM261.609 67.7095H263.58C264.139 67.7095 264.563 67.5837 264.852 67.3321C265.151 67.0805 265.3 66.7124 265.3 66.2278C265.3 65.7432 265.151 65.3798 264.852 65.1375C264.563 64.8952 264.139 64.7741 263.58 64.7741H261.609V67.7095ZM271.792 73.0633C271.438 73.0633 271.168 72.9655 270.981 72.7698C270.795 72.5741 270.702 72.2991 270.702 71.945V64.8719H268.228C267.939 64.8719 267.715 64.7927 267.557 64.6343C267.398 64.4759 267.319 64.2569 267.319 63.9773C267.319 63.6884 267.398 63.4694 267.557 63.3203C267.715 63.1619 267.939 63.0827 268.228 63.0827H275.343C275.632 63.0827 275.855 63.1619 276.014 63.3203C276.172 63.4694 276.251 63.6884 276.251 63.9773C276.251 64.2569 276.172 64.4759 276.014 64.6343C275.855 64.7927 275.632 64.8719 275.343 64.8719H272.868V71.945C272.868 72.2991 272.775 72.5741 272.589 72.7698C272.412 72.9655 272.146 73.0633 271.792 73.0633ZM277.006 70.016C276.773 70.016 276.573 69.9368 276.405 69.7784C276.247 69.6199 276.167 69.4242 276.167 69.1913C276.167 68.949 276.247 68.7486 276.405 68.5902C276.573 68.4318 276.773 68.3526 277.006 68.3526H279.886C280.119 68.3526 280.314 68.4318 280.473 68.5902C280.641 68.7486 280.724 68.949 280.724 69.1913C280.724 69.4242 280.641 69.6199 280.473 69.7784C280.314 69.9368 280.119 70.016 279.886 70.016H277.006ZM287.119 73.0633C286.783 73.0633 286.518 72.9701 286.322 72.7837C286.135 72.5974 286.042 72.3271 286.042 71.973V71.1762H282.911C282.566 71.1762 282.291 71.1017 282.086 70.9526C281.881 70.7941 281.779 70.5565 281.779 70.2397C281.779 70.0533 281.821 69.8622 281.905 69.6665C281.989 69.4708 282.138 69.2285 282.352 68.9397L285.972 63.6698C286.131 63.4368 286.308 63.2597 286.504 63.1386C286.699 63.0174 286.923 62.9569 287.175 62.9569C287.473 62.9569 287.71 63.05 287.887 63.2364C288.074 63.4135 288.167 63.6837 288.167 64.0472V69.4708H288.684C288.992 69.4708 289.225 69.5454 289.383 69.6945C289.542 69.8343 289.621 70.044 289.621 70.3235C289.621 70.5938 289.542 70.8034 289.383 70.9526C289.234 71.1017 289.001 71.1762 288.684 71.1762H288.167V71.973C288.167 72.3271 288.074 72.5974 287.887 72.7837C287.71 72.9701 287.454 73.0633 287.119 73.0633ZM286.042 69.4708V65.6267H286.448L283.47 70.002V69.4708H286.042Z" fill="#132239"/>
<mask id="path-32-inside-2_1786_331" fill="white">
<path fill-rule="evenodd" clip-rule="evenodd" d="M417.163 375.508C418.926 377.902 421.872 379.046 424.845 379.046H474.737C482.631 379.046 486.578 379.046 489.118 381.388C489.294 381.55 489.462 381.719 489.624 381.895C491.966 384.434 491.966 388.382 491.966 396.276C491.966 404.17 491.966 408.118 489.624 410.657C489.462 410.833 489.294 411.002 489.118 411.163C486.578 413.505 482.631 413.505 474.737 413.505H388.589C380.694 413.505 376.747 413.505 374.208 411.163C374.032 411.002 373.863 410.833 373.701 410.657C371.359 408.118 371.359 404.17 371.359 396.276C371.359 388.382 371.359 384.434 373.701 381.895C373.863 381.719 374.032 381.55 374.208 381.388C376.747 379.046 380.694 379.046 388.589 379.046H402.984C405.957 379.046 408.903 377.902 410.666 375.508C410.851 375.257 411.024 375.01 411.181 374.77V374.77C412.416 372.879 415.413 372.879 416.648 374.77V374.77C416.805 375.01 416.978 375.257 417.163 375.508Z"/>
</mask>
<path fill-rule="evenodd" clip-rule="evenodd" d="M417.163 375.508C418.926 377.902 421.872 379.046 424.845 379.046H474.737C482.631 379.046 486.578 379.046 489.118 381.388C489.294 381.55 489.462 381.719 489.624 381.895C491.966 384.434 491.966 388.382 491.966 396.276C491.966 404.17 491.966 408.118 489.624 410.657C489.462 410.833 489.294 411.002 489.118 411.163C486.578 413.505 482.631 413.505 474.737 413.505H388.589C380.694 413.505 376.747 413.505 374.208 411.163C374.032 411.002 373.863 410.833 373.701 410.657C371.359 408.118 371.359 404.17 371.359 396.276C371.359 388.382 371.359 384.434 373.701 381.895C373.863 381.719 374.032 381.55 374.208 381.388C376.747 379.046 380.694 379.046 388.589 379.046H402.984C405.957 379.046 408.903 377.902 410.666 375.508C410.851 375.257 411.024 375.01 411.181 374.77V374.77C412.416 372.879 415.413 372.879 416.648 374.77V374.77C416.805 375.01 416.978 375.257 417.163 375.508Z" fill="url(#paint29_radial_1786_331)"/>
<path d="M489.118 381.388L487.786 382.833L487.786 382.833L489.118 381.388ZM489.624 381.895L488.18 383.227L488.18 383.227L489.624 381.895ZM489.624 410.657L491.069 411.989L491.069 411.989L489.624 410.657ZM489.118 411.163L487.786 409.719L487.786 409.719L489.118 411.163ZM374.208 411.163L375.54 409.719L375.54 409.719L374.208 411.163ZM373.701 410.657L372.257 411.989L372.257 411.989L373.701 410.657ZM373.701 381.895L375.146 383.227L375.146 383.227L373.701 381.895ZM374.208 381.388L372.875 379.944L372.875 379.944L374.208 381.388ZM411.181 374.77L409.536 373.695L409.536 373.695L411.181 374.77ZM416.648 374.77L418.293 373.695L418.293 373.695L416.648 374.77ZM410.666 375.508L409.084 374.343L410.666 375.508ZM424.845 381.011H474.737V377.081H424.845V381.011ZM474.737 381.011C478.736 381.011 481.549 381.015 483.686 381.288C485.773 381.555 486.936 382.05 487.786 382.833L490.45 379.944C488.76 378.385 486.68 377.709 484.184 377.39C481.74 377.078 478.631 377.081 474.737 377.081V381.011ZM487.786 382.833C487.922 382.959 488.054 383.09 488.18 383.227L491.069 380.562C490.871 380.348 490.665 380.142 490.45 379.944L487.786 382.833ZM488.18 383.227C488.963 384.076 489.458 385.239 489.724 387.326C489.997 389.464 490.001 392.276 490.001 396.276H493.931C493.931 392.381 493.935 389.273 493.623 386.828C493.304 384.333 492.627 382.253 491.069 380.562L488.18 383.227ZM490.001 396.276C490.001 400.276 489.997 403.088 489.724 405.226C489.458 407.312 488.963 408.476 488.18 409.325L491.069 411.989C492.627 410.299 493.304 408.219 493.623 405.724C493.935 403.279 493.931 400.171 493.931 396.276H490.001ZM488.18 409.325C488.054 409.462 487.922 409.593 487.786 409.719L490.45 412.608C490.665 412.41 490.871 412.204 491.069 411.989L488.18 409.325ZM487.786 409.719C486.936 410.502 485.773 410.997 483.686 411.264C481.549 411.537 478.736 411.54 474.737 411.54V415.47C478.631 415.47 481.74 415.474 484.184 415.162C486.68 414.843 488.76 414.167 490.45 412.608L487.786 409.719ZM474.737 411.54H388.589V415.47H474.737V411.54ZM388.589 411.54C384.589 411.54 381.777 411.537 379.639 411.264C377.552 410.997 376.389 410.502 375.54 409.719L372.875 412.608C374.566 414.167 376.646 414.843 379.141 415.162C381.586 415.474 384.694 415.47 388.589 415.47V411.54ZM375.54 409.719C375.403 409.593 375.272 409.462 375.146 409.325L372.257 411.989C372.455 412.204 372.661 412.41 372.875 412.608L375.54 409.719ZM375.146 409.325C374.363 408.476 373.868 407.312 373.601 405.226C373.328 403.088 373.324 400.276 373.324 396.276H369.394C369.394 400.171 369.391 403.279 369.703 405.724C370.022 408.219 370.698 410.299 372.257 411.989L375.146 409.325ZM373.324 396.276C373.324 392.276 373.328 389.464 373.601 387.326C373.868 385.239 374.363 384.076 375.146 383.227L372.257 380.562C370.698 382.253 370.022 384.333 369.703 386.828C369.391 389.273 369.394 392.381 369.394 396.276H373.324ZM375.146 383.227C375.272 383.09 375.403 382.959 375.54 382.833L372.875 379.944C372.661 380.142 372.455 380.348 372.257 380.562L375.146 383.227ZM375.54 382.833C376.389 382.05 377.552 381.555 379.639 381.288C381.777 381.015 384.589 381.011 388.589 381.011V377.081C384.694 377.081 381.586 377.078 379.141 377.39C376.646 377.709 374.566 378.385 372.875 379.944L375.54 382.833ZM388.589 381.011H402.984V377.081H388.589V381.011ZM412.248 376.674C412.451 376.399 412.646 376.121 412.826 375.845L409.536 373.695C409.403 373.898 409.252 374.115 409.084 374.343L412.248 376.674ZM415.003 375.845C415.183 376.121 415.379 376.399 415.581 376.674L418.745 374.343C418.578 374.115 418.426 373.898 418.293 373.695L415.003 375.845ZM412.826 375.845C413.028 375.535 413.418 375.317 413.915 375.317C414.412 375.317 414.801 375.535 415.003 375.845L418.293 373.695C416.283 370.617 411.547 370.617 409.536 373.695L412.826 375.845ZM402.984 381.011C406.418 381.011 410.027 379.688 412.248 376.674L409.084 374.343C407.778 376.115 405.496 377.081 402.984 377.081V381.011ZM424.845 377.081C422.333 377.081 420.051 376.115 418.745 374.343L415.581 376.674C417.802 379.688 421.411 381.011 424.845 381.011V377.081Z" fill="white" mask="url(#path-32-inside-2_1786_331)"/>
<path d="M392.316 402.169C391.254 402.169 390.345 401.96 389.59 401.54C388.836 401.121 388.253 400.534 387.843 399.779C387.442 399.015 387.242 398.116 387.242 397.081C387.242 396.308 387.354 395.613 387.577 394.998C387.81 394.374 388.146 393.843 388.584 393.405C389.022 392.958 389.553 392.613 390.177 392.37C390.811 392.128 391.524 392.007 392.316 392.007C392.782 392.007 393.253 392.068 393.728 392.189C394.213 392.301 394.632 392.464 394.986 392.678C395.219 392.808 395.377 392.972 395.461 393.167C395.545 393.363 395.568 393.559 395.531 393.754C395.503 393.95 395.424 394.118 395.294 394.258C395.172 394.397 395.019 394.486 394.832 394.523C394.646 394.56 394.436 394.518 394.203 394.397C393.924 394.23 393.63 394.108 393.323 394.034C393.015 393.959 392.703 393.922 392.386 393.922C391.762 393.922 391.235 394.048 390.806 394.299C390.387 394.542 390.07 394.896 389.856 395.362C389.642 395.828 389.534 396.401 389.534 397.081C389.534 397.752 389.642 398.325 389.856 398.801C390.07 399.276 390.387 399.639 390.806 399.891C391.235 400.133 391.762 400.254 392.386 400.254C392.684 400.254 392.987 400.217 393.295 400.143C393.611 400.068 393.914 399.951 394.203 399.793C394.446 399.672 394.66 399.63 394.846 399.667C395.042 399.695 395.2 399.779 395.322 399.919C395.452 400.049 395.531 400.208 395.559 400.394C395.596 400.58 395.578 400.767 395.503 400.953C395.429 401.14 395.289 401.298 395.084 401.429C394.739 401.662 394.315 401.843 393.812 401.974C393.309 402.104 392.81 402.169 392.316 402.169ZM399.109 402.169C398.531 402.169 398.051 402.062 397.669 401.848C397.287 401.634 397.003 401.312 396.816 400.883C396.639 400.445 396.551 399.905 396.551 399.262V396.103C396.551 395.749 396.639 395.483 396.816 395.306C397.003 395.129 397.263 395.04 397.599 395.04C397.934 395.04 398.195 395.129 398.382 395.306C398.568 395.483 398.661 395.749 398.661 396.103V399.318C398.661 399.728 398.745 400.035 398.913 400.24C399.081 400.436 399.346 400.534 399.71 400.534C400.11 400.534 400.437 400.394 400.688 400.115C400.949 399.826 401.08 399.448 401.08 398.982V396.103C401.08 395.749 401.168 395.483 401.345 395.306C401.532 395.129 401.792 395.04 402.128 395.04C402.473 395.04 402.734 395.129 402.911 395.306C403.097 395.483 403.19 395.749 403.19 396.103V401.065C403.19 401.783 402.85 402.141 402.17 402.141C401.834 402.141 401.578 402.048 401.401 401.862C401.224 401.675 401.135 401.41 401.135 401.065V400.129L401.345 400.674C401.14 401.149 400.847 401.517 400.465 401.778C400.082 402.039 399.63 402.169 399.109 402.169ZM407.312 402.169C406.902 402.169 406.478 402.132 406.04 402.058C405.611 401.983 405.22 401.857 404.866 401.68C404.679 401.587 404.544 401.47 404.46 401.331C404.386 401.182 404.353 401.032 404.362 400.883C404.372 400.734 404.418 400.599 404.502 400.478C404.595 400.357 404.712 400.278 404.852 400.24C405.001 400.194 405.164 400.208 405.341 400.282C405.723 400.441 406.072 400.553 406.389 400.618C406.706 400.683 407.018 400.716 407.326 400.716C407.726 400.716 408.015 400.655 408.192 400.534C408.379 400.403 408.472 400.236 408.472 400.031C408.472 399.844 408.411 399.705 408.29 399.611C408.169 399.518 407.992 399.453 407.759 399.416L406.291 399.15C405.714 399.048 405.266 398.838 404.949 398.521C404.642 398.195 404.488 397.78 404.488 397.277C404.488 396.811 404.619 396.41 404.88 396.075C405.14 395.73 405.499 395.469 405.956 395.292C406.422 395.106 406.948 395.012 407.535 395.012C407.955 395.012 408.342 395.05 408.696 395.124C409.05 395.199 409.39 395.32 409.716 395.488C409.884 395.572 410 395.683 410.066 395.823C410.14 395.963 410.163 396.107 410.135 396.256C410.117 396.406 410.061 396.541 409.968 396.662C409.875 396.783 409.753 396.862 409.604 396.899C409.464 396.937 409.301 396.918 409.115 396.844C408.817 396.704 408.542 396.606 408.29 396.55C408.039 396.485 407.796 396.452 407.563 396.452C407.144 396.452 406.841 396.522 406.655 396.662C406.468 396.792 406.375 396.96 406.375 397.165C406.375 397.324 406.426 397.459 406.529 397.57C406.641 397.673 406.809 397.743 407.032 397.78L408.5 398.046C409.106 398.148 409.567 398.353 409.884 398.661C410.201 398.959 410.359 399.369 410.359 399.891C410.359 400.599 410.08 401.158 409.52 401.568C408.971 401.969 408.234 402.169 407.312 402.169ZM414.725 402.169C414.082 402.169 413.541 402.062 413.103 401.848C412.674 401.634 412.353 401.321 412.139 400.911C411.934 400.501 411.831 399.984 411.831 399.36V396.732H411.244C410.983 396.732 410.778 396.662 410.629 396.522C410.489 396.382 410.419 396.191 410.419 395.949C410.419 395.688 410.489 395.492 410.629 395.362C410.778 395.222 410.983 395.152 411.244 395.152H411.831V394.09C411.831 393.736 411.924 393.47 412.111 393.293C412.297 393.107 412.558 393.013 412.893 393.013C413.238 393.013 413.499 393.107 413.676 393.293C413.853 393.47 413.942 393.736 413.942 394.09V395.152H415.27C415.531 395.152 415.731 395.222 415.871 395.362C416.011 395.492 416.081 395.688 416.081 395.949C416.081 396.191 416.011 396.382 415.871 396.522C415.731 396.662 415.531 396.732 415.27 396.732H413.942V399.276C413.942 399.667 414.03 399.961 414.207 400.156C414.394 400.352 414.687 400.45 415.088 400.45C415.228 400.45 415.358 400.436 415.479 400.408C415.601 400.38 415.712 400.362 415.815 400.352C415.945 400.343 416.053 400.385 416.136 400.478C416.22 400.562 416.262 400.753 416.262 401.051C416.262 401.275 416.225 401.47 416.15 401.638C416.076 401.806 415.945 401.927 415.759 402.002C415.638 402.048 415.47 402.086 415.256 402.113C415.051 402.151 414.874 402.169 414.725 402.169ZM420.098 402.169C419.362 402.169 418.719 402.025 418.169 401.736C417.629 401.447 417.209 401.032 416.911 400.492C416.613 399.951 416.464 399.313 416.464 398.577C416.464 398.027 416.548 397.533 416.715 397.095C416.883 396.657 417.125 396.284 417.442 395.977C417.768 395.66 418.155 395.422 418.602 395.264C419.05 395.096 419.548 395.012 420.098 395.012C420.834 395.012 421.473 395.157 422.013 395.446C422.563 395.735 422.987 396.145 423.285 396.676C423.593 397.207 423.747 397.841 423.747 398.577C423.747 399.136 423.658 399.635 423.481 400.073C423.313 400.511 423.071 400.888 422.754 401.205C422.437 401.522 422.051 401.764 421.594 401.932C421.147 402.09 420.648 402.169 420.098 402.169ZM420.098 400.59C420.406 400.59 420.671 400.515 420.895 400.366C421.119 400.217 421.296 399.998 421.426 399.709C421.557 399.411 421.622 399.034 421.622 398.577C421.622 397.897 421.482 397.398 421.202 397.081C420.923 396.755 420.555 396.592 420.098 396.592C419.8 396.592 419.534 396.662 419.301 396.802C419.078 396.941 418.901 397.16 418.77 397.459C418.649 397.748 418.589 398.12 418.589 398.577C418.589 399.257 418.728 399.765 419.008 400.101C419.287 400.427 419.651 400.59 420.098 400.59ZM425.981 402.141C425.636 402.141 425.371 402.048 425.185 401.862C425.007 401.675 424.919 401.41 424.919 401.065V396.103C424.919 395.758 425.007 395.497 425.185 395.32C425.371 395.134 425.627 395.04 425.953 395.04C426.289 395.04 426.545 395.134 426.722 395.32C426.899 395.497 426.988 395.758 426.988 396.103V396.997L426.834 396.438C427.02 396.01 427.309 395.665 427.701 395.404C428.092 395.143 428.553 395.012 429.085 395.012C429.616 395.012 430.058 395.138 430.412 395.39C430.767 395.641 431.018 396.028 431.167 396.55H430.972C431.177 396.075 431.489 395.702 431.908 395.432C432.337 395.152 432.826 395.012 433.376 395.012C433.907 395.012 434.34 395.12 434.676 395.334C435.021 395.539 435.277 395.856 435.445 396.284C435.612 396.704 435.696 397.24 435.696 397.892V401.065C435.696 401.41 435.603 401.675 435.417 401.862C435.24 402.048 434.983 402.141 434.648 402.141C434.303 402.141 434.038 402.048 433.851 401.862C433.674 401.675 433.586 401.41 433.586 401.065V397.962C433.586 397.505 433.511 397.174 433.362 396.969C433.222 396.755 432.98 396.648 432.635 396.648C432.234 396.648 431.922 396.788 431.698 397.067C431.475 397.347 431.363 397.743 431.363 398.255V401.065C431.363 401.41 431.27 401.675 431.083 401.862C430.906 402.048 430.65 402.141 430.315 402.141C429.979 402.141 429.718 402.048 429.532 401.862C429.345 401.675 429.252 401.41 429.252 401.065V397.962C429.252 397.505 429.178 397.174 429.029 396.969C428.889 396.755 428.647 396.648 428.302 396.648C427.901 396.648 427.589 396.788 427.365 397.067C427.141 397.347 427.03 397.743 427.03 398.255V401.065C427.03 401.783 426.68 402.141 425.981 402.141ZM445.9 402.169C444.838 402.169 443.929 401.96 443.174 401.54C442.42 401.121 441.837 400.534 441.427 399.779C441.026 399.015 440.826 398.116 440.826 397.081C440.826 396.308 440.938 395.613 441.161 394.998C441.394 394.374 441.73 393.843 442.168 393.405C442.606 392.958 443.137 392.613 443.761 392.37C444.395 392.128 445.108 392.007 445.9 392.007C446.366 392.007 446.837 392.068 447.312 392.189C447.797 392.301 448.216 392.464 448.57 392.678C448.803 392.808 448.961 392.972 449.045 393.167C449.129 393.363 449.153 393.559 449.115 393.754C449.087 393.95 449.008 394.118 448.878 394.258C448.756 394.397 448.603 394.486 448.416 394.523C448.23 394.56 448.02 394.518 447.787 394.397C447.508 394.23 447.214 394.108 446.907 394.034C446.599 393.959 446.287 393.922 445.97 393.922C445.346 393.922 444.819 394.048 444.391 394.299C443.971 394.542 443.654 394.896 443.44 395.362C443.226 395.828 443.118 396.401 443.118 397.081C443.118 397.752 443.226 398.325 443.44 398.801C443.654 399.276 443.971 399.639 444.391 399.891C444.819 400.133 445.346 400.254 445.97 400.254C446.268 400.254 446.571 400.217 446.879 400.143C447.196 400.068 447.498 399.951 447.787 399.793C448.03 399.672 448.244 399.63 448.43 399.667C448.626 399.695 448.784 399.779 448.906 399.919C449.036 400.049 449.115 400.208 449.143 400.394C449.18 400.58 449.162 400.767 449.087 400.953C449.013 401.14 448.873 401.298 448.668 401.429C448.323 401.662 447.899 401.843 447.396 401.974C446.893 402.104 446.394 402.169 445.9 402.169ZM453.161 402.169C452.425 402.169 451.782 402.025 451.232 401.736C450.692 401.447 450.272 401.032 449.974 400.492C449.676 399.951 449.527 399.313 449.527 398.577C449.527 398.027 449.611 397.533 449.778 397.095C449.946 396.657 450.188 396.284 450.505 395.977C450.831 395.66 451.218 395.422 451.665 395.264C452.113 395.096 452.611 395.012 453.161 395.012C453.897 395.012 454.536 395.157 455.076 395.446C455.626 395.735 456.05 396.145 456.348 396.676C456.656 397.207 456.81 397.841 456.81 398.577C456.81 399.136 456.721 399.635 456.544 400.073C456.376 400.511 456.134 400.888 455.817 401.205C455.5 401.522 455.113 401.764 454.657 401.932C454.21 402.09 453.711 402.169 453.161 402.169ZM453.161 400.59C453.469 400.59 453.734 400.515 453.958 400.366C454.182 400.217 454.359 399.998 454.489 399.709C454.62 399.411 454.685 399.034 454.685 398.577C454.685 397.897 454.545 397.398 454.265 397.081C453.986 396.755 453.618 396.592 453.161 396.592C452.863 396.592 452.597 396.662 452.364 396.802C452.141 396.941 451.964 397.16 451.833 397.459C451.712 397.748 451.651 398.12 451.651 398.577C451.651 399.257 451.791 399.765 452.071 400.101C452.35 400.427 452.714 400.59 453.161 400.59ZM460.624 402.169C460.027 402.169 459.501 402.025 459.044 401.736C458.597 401.447 458.247 401.032 457.996 400.492C457.744 399.951 457.618 399.313 457.618 398.577C457.618 397.841 457.744 397.207 457.996 396.676C458.247 396.145 458.597 395.735 459.044 395.446C459.501 395.157 460.027 395.012 460.624 395.012C461.164 395.012 461.64 395.143 462.05 395.404C462.469 395.665 462.753 396.005 462.902 396.424H462.749V393.111C462.749 392.757 462.837 392.492 463.014 392.315C463.191 392.128 463.452 392.035 463.797 392.035C464.132 392.035 464.393 392.128 464.58 392.315C464.766 392.492 464.859 392.757 464.859 393.111V401.065C464.859 401.41 464.766 401.675 464.58 401.862C464.403 402.048 464.146 402.141 463.811 402.141C463.475 402.141 463.215 402.048 463.028 401.862C462.851 401.675 462.763 401.41 462.763 401.065V400.115L462.916 400.66C462.786 401.116 462.506 401.484 462.078 401.764C461.658 402.034 461.174 402.169 460.624 402.169ZM461.253 400.59C461.56 400.59 461.826 400.515 462.05 400.366C462.273 400.217 462.45 399.998 462.581 399.709C462.711 399.411 462.777 399.034 462.777 398.577C462.777 397.897 462.637 397.398 462.357 397.081C462.078 396.755 461.709 396.592 461.253 396.592C460.955 396.592 460.689 396.662 460.456 396.802C460.232 396.941 460.055 397.16 459.925 397.459C459.804 397.748 459.743 398.12 459.743 398.577C459.743 399.257 459.883 399.765 460.163 400.101C460.442 400.427 460.806 400.59 461.253 400.59ZM469.91 402.169C469.1 402.169 468.401 402.025 467.814 401.736C467.236 401.438 466.789 401.023 466.472 400.492C466.164 399.951 466.01 399.318 466.01 398.591C466.01 397.883 466.16 397.263 466.458 396.732C466.756 396.191 467.171 395.772 467.702 395.474C468.242 395.166 468.853 395.012 469.533 395.012C470.027 395.012 470.474 395.096 470.875 395.264C471.276 395.422 471.62 395.655 471.909 395.963C472.198 396.261 472.417 396.629 472.566 397.067C472.715 397.496 472.79 397.976 472.79 398.507C472.79 398.684 472.734 398.819 472.622 398.912C472.51 398.996 472.347 399.038 472.133 399.038H467.744V397.948H471.266L471.043 398.144C471.043 397.762 470.987 397.445 470.875 397.193C470.763 396.932 470.6 396.736 470.386 396.606C470.181 396.475 469.924 396.41 469.617 396.41C469.272 396.41 468.979 396.489 468.736 396.648C468.494 396.806 468.308 397.035 468.177 397.333C468.047 397.631 467.981 397.99 467.981 398.409V398.521C467.981 399.229 468.144 399.751 468.471 400.087C468.806 400.422 469.3 400.59 469.952 400.59C470.176 400.59 470.432 400.562 470.721 400.506C471.01 400.45 471.28 400.362 471.532 400.24C471.746 400.138 471.937 400.105 472.105 400.143C472.273 400.17 472.403 400.245 472.496 400.366C472.59 400.487 472.641 400.627 472.65 400.786C472.669 400.944 472.636 401.102 472.552 401.261C472.469 401.41 472.329 401.536 472.133 401.638C471.816 401.815 471.457 401.946 471.057 402.03C470.665 402.123 470.283 402.169 469.91 402.169Z" fill="#132239"/>
<mask id="path-35-inside-3_1786_331" fill="white">
<path fill-rule="evenodd" clip-rule="evenodd" d="M147.166 363.966C148.953 366.32 151.87 367.459 154.826 367.459H192.86C200.72 367.459 204.65 367.459 207.186 369.782C207.375 369.956 207.557 370.138 207.731 370.328C210.054 372.863 210.054 376.793 210.054 384.653C210.054 392.513 210.054 396.443 207.731 398.979C207.557 399.168 207.375 399.35 207.186 399.524C204.65 401.847 200.72 401.847 192.86 401.847H94.6082C86.7481 401.847 82.818 401.847 80.2827 399.524C80.093 399.35 79.911 399.168 79.7372 398.979C77.4141 396.443 77.4141 392.513 77.4141 384.653C77.4141 376.793 77.4141 372.863 79.7372 370.328C79.911 370.138 80.093 369.956 80.2827 369.782C82.818 367.459 86.7481 367.459 94.6082 367.459H132.641C135.596 367.459 138.514 366.32 140.3 363.966C140.555 363.63 140.792 363.299 141 362.981V362.981C142.235 361.09 145.232 361.09 146.467 362.981V362.981C146.675 363.299 146.912 363.63 147.166 363.966Z"/>
</mask>
<path fill-rule="evenodd" clip-rule="evenodd" d="M147.166 363.966C148.953 366.32 151.87 367.459 154.826 367.459H192.86C200.72 367.459 204.65 367.459 207.186 369.782C207.375 369.956 207.557 370.138 207.731 370.328C210.054 372.863 210.054 376.793 210.054 384.653C210.054 392.513 210.054 396.443 207.731 398.979C207.557 399.168 207.375 399.35 207.186 399.524C204.65 401.847 200.72 401.847 192.86 401.847H94.6082C86.7481 401.847 82.818 401.847 80.2827 399.524C80.093 399.35 79.911 399.168 79.7372 398.979C77.4141 396.443 77.4141 392.513 77.4141 384.653C77.4141 376.793 77.4141 372.863 79.7372 370.328C79.911 370.138 80.093 369.956 80.2827 369.782C82.818 367.459 86.7481 367.459 94.6082 367.459H132.641C135.596 367.459 138.514 366.32 140.3 363.966C140.555 363.63 140.792 363.299 141 362.981V362.981C142.235 361.09 145.232 361.09 146.467 362.981V362.981C146.675 363.299 146.912 363.63 147.166 363.966Z" fill="url(#paint30_radial_1786_331)"/>
<path d="M207.186 369.782L205.858 371.231L205.858 371.231L207.186 369.782ZM207.731 370.328L209.18 369L209.18 369L207.731 370.328ZM207.731 398.979L209.18 400.306L209.18 400.306L207.731 398.979ZM207.186 399.524L205.858 398.075L205.858 398.075L207.186 399.524ZM80.2827 399.524L81.6103 398.075L81.6103 398.075L80.2827 399.524ZM79.7372 398.979L78.2885 400.306L78.2885 400.306L79.7372 398.979ZM79.7372 370.328L78.2885 369L78.2885 369L79.7372 370.328ZM80.2827 369.782L78.9552 368.333L78.9552 368.333L80.2827 369.782ZM146.467 362.981L144.822 364.056L144.822 364.056L146.467 362.981ZM140.3 363.966L141.866 365.154L140.3 363.966ZM147.166 363.966L145.601 365.154L147.166 363.966ZM154.826 369.424H192.86V365.494H154.826V369.424ZM192.86 369.424C196.842 369.424 199.643 369.428 201.772 369.699C203.85 369.963 205.01 370.454 205.858 371.231L208.513 368.333C206.826 366.787 204.753 366.116 202.268 365.8C199.833 365.49 196.738 365.494 192.86 365.494V369.424ZM205.858 371.231C206.006 371.366 206.147 371.508 206.282 371.655L209.18 369C208.967 368.768 208.745 368.546 208.513 368.333L205.858 371.231ZM206.282 371.655C207.059 372.503 207.55 373.663 207.815 375.742C208.086 377.871 208.089 380.671 208.089 384.653H212.019C212.019 380.775 212.023 377.68 211.713 375.245C211.397 372.76 210.726 370.688 209.18 369L206.282 371.655ZM208.089 384.653C208.089 388.635 208.086 391.435 207.815 393.565C207.55 395.643 207.059 396.803 206.282 397.651L209.18 400.306C210.726 398.619 211.397 396.546 211.713 394.061C212.023 391.626 212.019 388.531 212.019 384.653H208.089ZM206.282 397.651C206.147 397.798 206.006 397.94 205.858 398.075L208.513 400.973C208.745 400.76 208.967 400.538 209.18 400.306L206.282 397.651ZM205.858 398.075C205.01 398.852 203.85 399.343 201.772 399.607C199.643 399.878 196.842 399.882 192.86 399.882V403.812C196.738 403.812 199.833 403.816 202.268 403.506C204.753 403.19 206.826 402.519 208.513 400.973L205.858 398.075ZM192.86 399.882H94.6082V403.812H192.86V399.882ZM94.6082 399.882C90.6259 399.882 87.8258 399.878 85.6967 399.607C83.618 399.343 82.4581 398.852 81.6103 398.075L78.9552 400.973C80.6426 402.519 82.7154 403.19 85.2006 403.506C87.6354 403.816 90.7303 403.812 94.6082 403.812V399.882ZM81.6103 398.075C81.4627 397.94 81.3212 397.798 81.186 397.651L78.2885 400.306C78.5009 400.538 78.7233 400.76 78.9552 400.973L81.6103 398.075ZM81.186 397.651C80.4091 396.803 79.9183 395.643 79.6538 393.565C79.3828 391.435 79.3791 388.635 79.3791 384.653H75.449C75.449 388.531 75.4453 391.626 75.7551 394.061C76.0714 396.546 76.7422 398.619 78.2885 400.306L81.186 397.651ZM79.3791 384.653C79.3791 380.671 79.3828 377.871 79.6538 375.742C79.9183 373.663 80.4091 372.503 81.186 371.655L78.2885 369C76.7422 370.688 76.0714 372.76 75.7551 375.245C75.4453 377.68 75.449 380.775 75.449 384.653H79.3791ZM81.186 371.655C81.3212 371.508 81.4628 371.366 81.6103 371.231L78.9552 368.333C78.7233 368.546 78.5009 368.768 78.2885 369L81.186 371.655ZM81.6103 371.231C82.4581 370.454 83.618 369.963 85.6967 369.699C87.8258 369.428 90.6259 369.424 94.6082 369.424V365.494C90.7303 365.494 87.6354 365.49 85.2006 365.8C82.7154 366.116 80.6426 366.787 78.9552 368.333L81.6103 371.231ZM94.6082 369.424H132.641V365.494H94.6082V369.424ZM141.866 365.154C142.141 364.791 142.406 364.421 142.645 364.056L139.355 361.906C139.178 362.176 138.969 362.469 138.735 362.778L141.866 365.154ZM144.822 364.056C145.061 364.421 145.326 364.791 145.601 365.154L148.732 362.778C148.497 362.469 148.288 362.176 148.112 361.906L144.822 364.056ZM142.645 364.056C142.847 363.746 143.236 363.528 143.733 363.528C144.23 363.528 144.62 363.746 144.822 364.056L148.112 361.906C146.101 358.828 141.365 358.828 139.355 361.906L142.645 364.056ZM132.641 369.424C136.064 369.424 139.627 368.104 141.866 365.154L138.735 362.778C137.401 364.536 135.129 365.494 132.641 365.494V369.424ZM154.826 365.494C152.338 365.494 150.066 364.536 148.732 362.778L145.601 365.154C147.84 368.104 151.403 369.424 154.826 369.424V365.494Z" fill="white" mask="url(#path-35-inside-3_1786_331)"/>
<path d="M116.118 390.352C115.792 390.352 115.54 390.264 115.363 390.087C115.195 389.9 115.111 389.639 115.111 389.304V381.336C115.111 380.982 115.195 380.712 115.363 380.525C115.54 380.339 115.773 380.246 116.062 380.246C116.313 380.246 116.504 380.297 116.635 380.4C116.775 380.493 116.933 380.651 117.11 380.875L122.017 387.123H121.639V381.28C121.639 380.954 121.723 380.703 121.891 380.525C122.068 380.339 122.319 380.246 122.646 380.246C122.972 380.246 123.219 380.339 123.386 380.525C123.564 380.703 123.652 380.954 123.652 381.28V389.346C123.652 389.653 123.573 389.9 123.414 390.087C123.256 390.264 123.042 390.352 122.771 390.352C122.51 390.352 122.301 390.301 122.142 390.199C121.993 390.096 121.83 389.933 121.653 389.709L116.761 383.461H117.124V389.304C117.124 389.639 117.04 389.9 116.873 390.087C116.705 390.264 116.453 390.352 116.118 390.352ZM128.613 390.38C127.877 390.38 127.234 390.236 126.684 389.947C126.144 389.658 125.725 389.243 125.426 388.703C125.128 388.162 124.979 387.524 124.979 386.788C124.979 386.238 125.063 385.744 125.231 385.306C125.398 384.868 125.641 384.495 125.958 384.188C126.284 383.871 126.67 383.633 127.118 383.475C127.565 383.307 128.064 383.223 128.613 383.223C129.35 383.223 129.988 383.368 130.529 383.657C131.078 383.946 131.502 384.356 131.801 384.887C132.108 385.418 132.262 386.052 132.262 386.788C132.262 387.347 132.173 387.846 131.996 388.284C131.829 388.722 131.586 389.099 131.269 389.416C130.953 389.733 130.566 389.975 130.109 390.143C129.662 390.301 129.163 390.38 128.613 390.38ZM128.613 388.801C128.921 388.801 129.187 388.726 129.41 388.577C129.634 388.428 129.811 388.209 129.941 387.92C130.072 387.622 130.137 387.244 130.137 386.788C130.137 386.108 129.997 385.609 129.718 385.292C129.438 384.966 129.07 384.803 128.613 384.803C128.315 384.803 128.05 384.873 127.817 385.013C127.593 385.152 127.416 385.371 127.286 385.67C127.164 385.958 127.104 386.331 127.104 386.788C127.104 387.468 127.244 387.976 127.523 388.312C127.803 388.638 128.166 388.801 128.613 388.801ZM134.436 387.305C134.203 387.305 134.002 387.226 133.835 387.067C133.676 386.909 133.597 386.713 133.597 386.48C133.597 386.238 133.676 386.038 133.835 385.879C134.002 385.721 134.203 385.642 134.436 385.642H137.315C137.548 385.642 137.744 385.721 137.902 385.879C138.07 386.038 138.154 386.238 138.154 386.48C138.154 386.713 138.07 386.909 137.902 387.067C137.744 387.226 137.548 387.305 137.315 387.305H134.436ZM144.59 390.38C143.528 390.38 142.619 390.171 141.864 389.751C141.109 389.332 140.527 388.745 140.117 387.99C139.716 387.226 139.516 386.327 139.516 385.292C139.516 384.519 139.628 383.824 139.851 383.209C140.084 382.585 140.42 382.054 140.858 381.616C141.296 381.168 141.827 380.824 142.451 380.581C143.085 380.339 143.798 380.218 144.59 380.218C145.056 380.218 145.527 380.279 146.002 380.4C146.487 380.512 146.906 380.675 147.26 380.889C147.493 381.019 147.651 381.182 147.735 381.378C147.819 381.574 147.842 381.77 147.805 381.965C147.777 382.161 147.698 382.329 147.568 382.468C147.446 382.608 147.293 382.697 147.106 382.734C146.92 382.771 146.71 382.729 146.477 382.608C146.198 382.441 145.904 382.319 145.597 382.245C145.289 382.17 144.977 382.133 144.66 382.133C144.036 382.133 143.509 382.259 143.08 382.51C142.661 382.753 142.344 383.107 142.13 383.573C141.916 384.039 141.808 384.612 141.808 385.292C141.808 385.963 141.916 386.536 142.13 387.012C142.344 387.487 142.661 387.85 143.08 388.102C143.509 388.344 144.036 388.465 144.66 388.465C144.958 388.465 145.261 388.428 145.569 388.353C145.885 388.279 146.188 388.162 146.477 388.004C146.72 387.883 146.934 387.841 147.12 387.878C147.316 387.906 147.474 387.99 147.595 388.13C147.726 388.26 147.805 388.419 147.833 388.605C147.87 388.791 147.852 388.978 147.777 389.164C147.703 389.351 147.563 389.509 147.358 389.639C147.013 389.872 146.589 390.054 146.086 390.185C145.583 390.315 145.084 390.38 144.59 390.38ZM151.851 390.38C151.115 390.38 150.472 390.236 149.922 389.947C149.382 389.658 148.962 389.243 148.664 388.703C148.366 388.162 148.217 387.524 148.217 386.788C148.217 386.238 148.301 385.744 148.468 385.306C148.636 384.868 148.878 384.495 149.195 384.188C149.521 383.871 149.908 383.633 150.355 383.475C150.803 383.307 151.301 383.223 151.851 383.223C152.587 383.223 153.226 383.368 153.766 383.657C154.316 383.946 154.74 384.356 155.038 384.887C155.346 385.418 155.499 386.052 155.499 386.788C155.499 387.347 155.411 387.846 155.234 388.284C155.066 388.722 154.824 389.099 154.507 389.416C154.19 389.733 153.803 389.975 153.347 390.143C152.899 390.301 152.401 390.38 151.851 390.38ZM151.851 388.801C152.159 388.801 152.424 388.726 152.648 388.577C152.871 388.428 153.049 388.209 153.179 387.92C153.309 387.622 153.375 387.244 153.375 386.788C153.375 386.108 153.235 385.609 152.955 385.292C152.676 384.966 152.308 384.803 151.851 384.803C151.553 384.803 151.287 384.873 151.054 385.013C150.831 385.152 150.654 385.371 150.523 385.67C150.402 385.958 150.341 386.331 150.341 386.788C150.341 387.468 150.481 387.976 150.761 388.312C151.04 388.638 151.404 388.801 151.851 388.801ZM159.314 390.38C158.717 390.38 158.191 390.236 157.734 389.947C157.287 389.658 156.937 389.243 156.686 388.703C156.434 388.162 156.308 387.524 156.308 386.788C156.308 386.052 156.434 385.418 156.686 384.887C156.937 384.356 157.287 383.946 157.734 383.657C158.191 383.368 158.717 383.223 159.314 383.223C159.854 383.223 160.33 383.354 160.74 383.615C161.159 383.876 161.443 384.216 161.592 384.635H161.438V381.322C161.438 380.968 161.527 380.703 161.704 380.525C161.881 380.339 162.142 380.246 162.487 380.246C162.822 380.246 163.083 380.339 163.27 380.525C163.456 380.703 163.549 380.968 163.549 381.322V389.276C163.549 389.621 163.456 389.886 163.27 390.073C163.093 390.259 162.836 390.352 162.501 390.352C162.165 390.352 161.904 390.259 161.718 390.073C161.541 389.886 161.452 389.621 161.452 389.276V388.325L161.606 388.871C161.476 389.327 161.196 389.695 160.767 389.975C160.348 390.245 159.864 390.38 159.314 390.38ZM159.943 388.801C160.25 388.801 160.516 388.726 160.74 388.577C160.963 388.428 161.14 388.209 161.271 387.92C161.401 387.622 161.466 387.244 161.466 386.788C161.466 386.108 161.327 385.609 161.047 385.292C160.767 384.966 160.399 384.803 159.943 384.803C159.645 384.803 159.379 384.873 159.146 385.013C158.922 385.152 158.745 385.371 158.615 385.67C158.494 385.958 158.433 386.331 158.433 386.788C158.433 387.468 158.573 387.976 158.852 388.312C159.132 388.638 159.495 388.801 159.943 388.801ZM168.6 390.38C167.79 390.38 167.091 390.236 166.504 389.947C165.926 389.649 165.478 389.234 165.162 388.703C164.854 388.162 164.7 387.529 164.7 386.802C164.7 386.094 164.849 385.474 165.148 384.943C165.446 384.402 165.861 383.983 166.392 383.685C166.932 383.377 167.543 383.223 168.223 383.223C168.717 383.223 169.164 383.307 169.565 383.475C169.966 383.633 170.31 383.866 170.599 384.174C170.888 384.472 171.107 384.84 171.256 385.278C171.405 385.707 171.48 386.187 171.48 386.718C171.48 386.895 171.424 387.03 171.312 387.123C171.2 387.207 171.037 387.249 170.823 387.249H166.434V386.159H169.956L169.733 386.355C169.733 385.972 169.677 385.656 169.565 385.404C169.453 385.143 169.29 384.947 169.076 384.817C168.871 384.686 168.614 384.621 168.307 384.621C167.962 384.621 167.668 384.7 167.426 384.859C167.184 385.017 166.997 385.246 166.867 385.544C166.737 385.842 166.671 386.201 166.671 386.62V386.732C166.671 387.44 166.834 387.962 167.161 388.298C167.496 388.633 167.99 388.801 168.642 388.801C168.866 388.801 169.122 388.773 169.411 388.717C169.7 388.661 169.97 388.572 170.222 388.451C170.436 388.349 170.627 388.316 170.795 388.353C170.963 388.381 171.093 388.456 171.186 388.577C171.28 388.698 171.331 388.838 171.34 388.996C171.359 389.155 171.326 389.313 171.242 389.472C171.158 389.621 171.019 389.747 170.823 389.849C170.506 390.026 170.147 390.157 169.747 390.241C169.355 390.334 168.973 390.38 168.6 390.38Z" fill="#132239"/>
<defs>
<filter id="filter0_b_1786_331" x="8.62928" y="98.2543" width="414.523" height="413.648" filterUnits="userSpaceOnUse" color-interpolation-filters="sRGB">
<feFlood flood-opacity="0" result="BackgroundImageFix"/>
<feGaussianBlur in="BackgroundImageFix" stdDeviation="17.6854"/>
<feComposite in2="SourceAlpha" operator="in" result="effect1_backgroundBlur_1786_331"/>
<feBlend mode="normal" in="SourceGraphic" in2="effect1_backgroundBlur_1786_331" result="shape"/>
</filter>
<filter id="filter1_i_1786_331" x="44" y="145.414" width="331.992" height="335.047" filterUnits="userSpaceOnUse" color-interpolation-filters="sRGB">
<feFlood flood-opacity="0" result="BackgroundImageFix"/>
<feBlend mode="normal" in="SourceGraphic" in2="BackgroundImageFix" result="shape"/>
<feColorMatrix in="SourceAlpha" type="matrix" values="0 0 0 0 0 0 0 0 0 0 0 0 0 0 0 0 0 0 127 0" result="hardAlpha"/>
<feOffset dy="3.93008"/>
<feGaussianBlur stdDeviation="15.2291"/>
<feComposite in2="hardAlpha" operator="arithmetic" k2="-1" k3="1"/>
<feColorMatrix type="matrix" values="0 0 0 0 1 0 0 0 0 1 0 0 0 0 1 0 0 0 0.25 0"/>
<feBlend mode="normal" in2="shape" result="effect1_innerShadow_1786_331"/>
</filter>
<filter id="filter2_b_1786_331" x="48.2954" y="-73.689" width="491.159" height="490.284" filterUnits="userSpaceOnUse" color-interpolation-filters="sRGB">
<feFlood flood-opacity="0" result="BackgroundImageFix"/>
<feGaussianBlur in="BackgroundImageFix" stdDeviation="36.8445"/>
<feComposite in2="SourceAlpha" operator="in" result="effect1_backgroundBlur_1786_331"/>
<feBlend mode="normal" in="SourceGraphic" in2="effect1_backgroundBlur_1786_331" result="shape"/>
</filter>
<filter id="filter3_i_1786_331" x="121.984" y="11.7891" width="331.992" height="335.047" filterUnits="userSpaceOnUse" color-interpolation-filters="sRGB">
<feFlood flood-opacity="0" result="BackgroundImageFix"/>
<feBlend mode="normal" in="SourceGraphic" in2="BackgroundImageFix" result="shape"/>
<feColorMatrix in="SourceAlpha" type="matrix" values="0 0 0 0 0 0 0 0 0 0 0 0 0 0 0 0 0 0 127 0" result="hardAlpha"/>
<feOffset dy="3.93008"/>
<feGaussianBlur stdDeviation="15.2291"/>
<feComposite in2="hardAlpha" operator="arithmetic" k2="-1" k3="1"/>
<feColorMatrix type="matrix" values="0 0 0 0 1 0 0 0 0 1 0 0 0 0 1 0 0 0 0.25 0"/>
<feBlend mode="normal" in2="shape" result="effect1_innerShadow_1786_331"/>
</filter>
<filter id="filter4_b_1786_331" x="136.355" y="69.7612" width="471.509" height="470.634" filterUnits="userSpaceOnUse" color-interpolation-filters="sRGB">
<feFlood flood-opacity="0" result="BackgroundImageFix"/>
<feGaussianBlur in="BackgroundImageFix" stdDeviation="31.9319"/>
<feComposite in2="SourceAlpha" operator="in" result="effect1_backgroundBlur_1786_331"/>
<feBlend mode="normal" in="SourceGraphic" in2="effect1_backgroundBlur_1786_331" result="shape"/>
</filter>
<filter id="filter5_i_1786_331" x="200.219" y="145.414" width="331.992" height="335.047" filterUnits="userSpaceOnUse" color-interpolation-filters="sRGB">
<feFlood flood-opacity="0" result="BackgroundImageFix"/>
<feBlend mode="normal" in="SourceGraphic" in2="BackgroundImageFix" result="shape"/>
<feColorMatrix in="SourceAlpha" type="matrix" values="0 0 0 0 0 0 0 0 0 0 0 0 0 0 0 0 0 0 127 0" result="hardAlpha"/>
<feOffset dy="3.93008"/>
<feGaussianBlur stdDeviation="15.2291"/>
<feComposite in2="hardAlpha" operator="arithmetic" k2="-1" k3="1"/>
<feColorMatrix type="matrix" values="0 0 0 0 1 0 0 0 0 1 0 0 0 0 1 0 0 0 0.25 0"/>
<feBlend mode="normal" in2="shape" result="effect1_innerShadow_1786_331"/>
</filter>
<filter id="filter6_f_1786_331" x="37.0796" y="13.4078" width="487.786" height="490.372" filterUnits="userSpaceOnUse" color-interpolation-filters="sRGB">
<feFlood flood-opacity="0" result="BackgroundImageFix"/>
<feBlend mode="normal" in="SourceGraphic" in2="BackgroundImageFix" result="shape"/>
<feGaussianBlur stdDeviation="70.7414" result="effect1_foregroundBlur_1786_331"/>
</filter>
<filter id="filter7_bd_1786_331" x="257.401" y="82.6974" width="61.1521" height="73.0429" filterUnits="userSpaceOnUse" color-interpolation-filters="sRGB">
<feFlood flood-opacity="0" result="BackgroundImageFix"/>
<feGaussianBlur in="BackgroundImageFix" stdDeviation="8.29973"/>
<feComposite in2="SourceAlpha" operator="in" result="effect1_backgroundBlur_1786_331"/>
<feColorMatrix in="SourceAlpha" type="matrix" values="0 0 0 0 0 0 0 0 0 0 0 0 0 0 0 0 0 0 127 0" result="hardAlpha"/>
<feMorphology radius="7.8629" operator="erode" in="SourceAlpha" result="effect2_dropShadow_1786_331"/>
<feOffset dy="14.7378"/>
<feGaussianBlur stdDeviation="10.8077"/>
<feComposite in2="hardAlpha" operator="out"/>
<feColorMatrix type="matrix" values="0 0 0 0 0 0 0 0 0 0.276727 0 0 0 0 0.633333 0 0 0 1 0"/>
<feBlend mode="normal" in2="effect1_backgroundBlur_1786_331" result="effect2_dropShadow_1786_331"/>
<feBlend mode="normal" in="SourceGraphic" in2="effect2_dropShadow_1786_331" result="shape"/>
</filter>
<filter id="filter8_bd_1786_331" x="112.213" y="308.611" width="61.1521" height="76.973" filterUnits="userSpaceOnUse" color-interpolation-filters="sRGB">
<feFlood flood-opacity="0" result="BackgroundImageFix"/>
<feGaussianBlur in="BackgroundImageFix" stdDeviation="8.29973"/>
<feComposite in2="SourceAlpha" operator="in" result="effect1_backgroundBlur_1786_331"/>
<feColorMatrix in="SourceAlpha" type="matrix" values="0 0 0 0 0 0 0 0 0 0 0 0 0 0 0 0 0 0 127 0" result="hardAlpha"/>
<feMorphology radius="7.8629" operator="erode" in="SourceAlpha" result="effect2_dropShadow_1786_331"/>
<feOffset dy="18.6679"/>
<feGaussianBlur stdDeviation="10.8077"/>
<feComposite in2="hardAlpha" operator="out"/>
<feColorMatrix type="matrix" values="0 0 0 0 0 0 0 0 0 0.276727 0 0 0 0 0.633333 0 0 0 1 0"/>
<feBlend mode="normal" in2="effect1_backgroundBlur_1786_331" result="effect2_dropShadow_1786_331"/>
<feBlend mode="normal" in="SourceGraphic" in2="effect2_dropShadow_1786_331" result="shape"/>
</filter>
<filter id="filter9_bd_1786_331" x="384.236" y="317.455" width="61.1521" height="72.0604" filterUnits="userSpaceOnUse" color-interpolation-filters="sRGB">
<feFlood flood-opacity="0" result="BackgroundImageFix"/>
<feGaussianBlur in="BackgroundImageFix" stdDeviation="8.29973"/>
<feComposite in2="SourceAlpha" operator="in" result="effect1_backgroundBlur_1786_331"/>
<feColorMatrix in="SourceAlpha" type="matrix" values="0 0 0 0 0 0 0 0 0 0 0 0 0 0 0 0 0 0 127 0" result="hardAlpha"/>
<feMorphology radius="7.8629" operator="erode" in="SourceAlpha" result="effect2_dropShadow_1786_331"/>
<feOffset dy="13.7553"/>
<feGaussianBlur stdDeviation="10.8077"/>
<feComposite in2="hardAlpha" operator="out"/>
<feColorMatrix type="matrix" values="0 0 0 0 0 0 0 0 0 0.276727 0 0 0 0 0.633333 0 0 0 1 0"/>
<feBlend mode="normal" in2="effect1_backgroundBlur_1786_331" result="effect2_dropShadow_1786_331"/>
<feBlend mode="normal" in="SourceGraphic" in2="effect2_dropShadow_1786_331" result="shape"/>
</filter>
<radialGradient id="paint0_radial_1786_331" cx="0" cy="0" r="1" gradientUnits="userSpaceOnUse" gradientTransform="translate(352.767 72.2242) rotate(124.173) scale(453.051 454.246)">
<stop offset="0.659247" stop-color="#001A3C" stop-opacity="0"/>
<stop offset="1"/>
</radialGradient>
<radialGradient id="paint1_radial_1786_331" cx="0" cy="0" r="1" gradientUnits="userSpaceOnUse" gradientTransform="translate(188.686 360.594) rotate(-62.5658) scale(173.801 174.26)">
<stop stop-color="#12FF41"/>
<stop offset="1" stop-color="#14FF43" stop-opacity="0"/>
</radialGradient>
<linearGradient id="paint2_linear_1786_331" x1="44" y1="145.413" x2="411.61" y2="191.326" gradientUnits="userSpaceOnUse">
<stop stop-color="#02FF35"/>
<stop offset="1" stop-color="#68FF86"/>
</linearGradient>
<linearGradient id="paint3_linear_1786_331" x1="259.512" y1="316.869" x2="41.3925" y2="29.4813" gradientUnits="userSpaceOnUse">
<stop stop-color="#3248E4"/>
<stop offset="1" stop-color="#3248E4" stop-opacity="0.04"/>
</linearGradient>
<radialGradient id="paint4_radial_1786_331" cx="0" cy="0" r="1" gradientUnits="userSpaceOnUse" gradientTransform="translate(309.663 200.725) rotate(156.352) scale(280.516 281.256)">
<stop offset="0.659247" stop-color="white" stop-opacity="0"/>
<stop offset="1" stop-color="#BDDAFF"/>
</radialGradient>
<linearGradient id="paint5_linear_1786_331" x1="-20.5264" y1="293.077" x2="263.648" y2="299.357" gradientUnits="userSpaceOnUse">
<stop stop-color="white"/>
<stop offset="1" stop-color="white" stop-opacity="0"/>
</linearGradient>
<radialGradient id="paint6_radial_1786_331" cx="0" cy="0" r="1" gradientUnits="userSpaceOnUse" gradientTransform="translate(355.586 50.1098) rotate(114.752) scale(256.956 257.612)">
<stop stop-color="white"/>
<stop offset="1" stop-color="white" stop-opacity="0"/>
</radialGradient>
<radialGradient id="paint7_radial_1786_331" cx="0" cy="0" r="1" gradientUnits="userSpaceOnUse" gradientTransform="translate(430.752 -61.4008) rotate(124.173) scale(453.051 454.246)">
<stop offset="0.659247" stop-color="#001A3C" stop-opacity="0"/>
<stop offset="1"/>
</radialGradient>
<radialGradient id="paint8_radial_1786_331" cx="0" cy="0" r="1" gradientUnits="userSpaceOnUse" gradientTransform="translate(266.671 226.969) rotate(-62.5658) scale(173.801 174.26)">
<stop stop-color="#12FF41"/>
<stop offset="1" stop-color="#14FF43" stop-opacity="0"/>
</radialGradient>
<linearGradient id="paint9_linear_1786_331" x1="121.984" y1="11.7875" x2="489.594" y2="57.7006" gradientUnits="userSpaceOnUse">
<stop stop-color="#02FF35"/>
<stop offset="1" stop-color="#68FF86"/>
</linearGradient>
<linearGradient id="paint10_linear_1786_331" x1="259.512" y1="316.869" x2="41.3925" y2="29.4813" gradientUnits="userSpaceOnUse">
<stop stop-color="#32A4E4"/>
<stop offset="0.535658" stop-color="#3248E4" stop-opacity="0.04"/>
</linearGradient>
<radialGradient id="paint11_radial_1786_331" cx="0" cy="0" r="1" gradientUnits="userSpaceOnUse" gradientTransform="translate(192.954 103.214) rotate(104.467) scale(286.995 286.995)">
<stop offset="0.365437" stop-color="white" stop-opacity="0"/>
<stop offset="1" stop-color="#BDDAFF"/>
</radialGradient>
<linearGradient id="paint12_linear_1786_331" x1="121.825" y1="87.9234" x2="317.032" y2="306.68" gradientUnits="userSpaceOnUse">
<stop stop-color="white"/>
<stop offset="1" stop-color="white" stop-opacity="0"/>
</linearGradient>
<radialGradient id="paint13_radial_1786_331" cx="0" cy="0" r="1" gradientUnits="userSpaceOnUse" gradientTransform="translate(433.57 -83.5152) rotate(114.752) scale(256.956 257.612)">
<stop stop-color="white"/>
<stop offset="1" stop-color="white" stop-opacity="0"/>
</radialGradient>
<radialGradient id="paint14_radial_1786_331" cx="0" cy="0" r="1" gradientUnits="userSpaceOnUse" gradientTransform="translate(508.986 72.2242) rotate(124.173) scale(453.051 454.246)">
<stop offset="0.659247" stop-color="#001A3C" stop-opacity="0"/>
<stop offset="1"/>
</radialGradient>
<radialGradient id="paint15_radial_1786_331" cx="0" cy="0" r="1" gradientUnits="userSpaceOnUse" gradientTransform="translate(344.905 360.594) rotate(-62.5658) scale(173.801 174.26)">
<stop stop-color="#12FF41"/>
<stop offset="1" stop-color="#14FF43" stop-opacity="0"/>
</radialGradient>
<linearGradient id="paint16_linear_1786_331" x1="200.219" y1="145.413" x2="567.829" y2="191.326" gradientUnits="userSpaceOnUse">
<stop stop-color="#02FF35"/>
<stop offset="1" stop-color="#68FF86"/>
</linearGradient>
<linearGradient id="paint17_linear_1786_331" x1="210.751" y1="-37.3309" x2="72.7065" y2="331.114" gradientUnits="userSpaceOnUse">
<stop stop-color="#32E48F"/>
<stop offset="1" stop-color="#3248E4" stop-opacity="0.04"/>
</linearGradient>
<radialGradient id="paint18_radial_1786_331" cx="0" cy="0" r="1" gradientUnits="userSpaceOnUse" gradientTransform="translate(109.481 185.025) rotate(19.6443) scale(211.716 211.716)">
<stop offset="0.375261" stop-color="white" stop-opacity="0"/>
<stop offset="1" stop-color="#BDDAFF"/>
</radialGradient>
<linearGradient id="paint19_linear_1786_331" x1="485.019" y1="476.247" x2="366.213" y2="145.416" gradientUnits="userSpaceOnUse">
<stop stop-color="white"/>
<stop offset="1" stop-color="white" stop-opacity="0"/>
</linearGradient>
<radialGradient id="paint20_radial_1786_331" cx="0" cy="0" r="1" gradientUnits="userSpaceOnUse" gradientTransform="translate(511.804 50.1098) rotate(114.752) scale(256.956 257.612)">
<stop stop-color="white"/>
<stop offset="1" stop-color="white" stop-opacity="0"/>
</radialGradient>
<linearGradient id="paint21_linear_1786_331" x1="339.247" y1="377.286" x2="448.134" y2="205.537" gradientUnits="userSpaceOnUse">
<stop stop-color="#02FF35"/>
<stop offset="1" stop-color="#68FF86"/>
</linearGradient>
<linearGradient id="paint22_linear_1786_331" x1="339.247" y1="377.286" x2="448.134" y2="205.537" gradientUnits="userSpaceOnUse">
<stop stop-color="#02FF35"/>
<stop offset="1" stop-color="#68FF86"/>
</linearGradient>
<radialGradient id="paint23_radial_1786_331" cx="0" cy="0" r="1" gradientUnits="userSpaceOnUse" gradientTransform="translate(195.304 337.988) rotate(-44.2697) scale(246.321 246.321)">
<stop stop-color="#27AB6C"/>
<stop offset="1" stop-color="#2CEC52"/>
</radialGradient>
<linearGradient id="paint24_linear_1786_331" x1="291.909" y1="110.951" x2="275.143" y2="362.302" gradientUnits="userSpaceOnUse">
<stop stop-color="white"/>
<stop offset="1" stop-color="white" stop-opacity="0"/>
</linearGradient>
<linearGradient id="paint25_linear_1786_331" x1="391.32" y1="336.02" x2="426.519" y2="165.037" gradientUnits="userSpaceOnUse">
<stop stop-color="#00C628"/>
<stop offset="1" stop-color="#06FF38"/>
</linearGradient>
<linearGradient id="paint26_linear_1786_331" x1="310.753" y1="165.061" x2="349.072" y2="265.77" gradientUnits="userSpaceOnUse">
<stop stop-color="white"/>
<stop offset="1" stop-color="white" stop-opacity="0"/>
</linearGradient>
<linearGradient id="paint27_linear_1786_331" x1="289.629" y1="139.516" x2="178.605" y2="259.874" gradientUnits="userSpaceOnUse">
<stop stop-color="white"/>
<stop offset="1" stop-color="white" stop-opacity="0"/>
</linearGradient>
<radialGradient id="paint28_radial_1786_331" cx="0" cy="0" r="1" gradientUnits="userSpaceOnUse" gradientTransform="translate(269.485 70.7148) rotate(90) scale(20.6054 53.5473)">
<stop stop-color="white" stop-opacity="0.5"/>
<stop offset="1" stop-color="#F6F5FA"/>
</radialGradient>
<radialGradient id="paint29_radial_1786_331" cx="0" cy="0" r="1" gradientUnits="userSpaceOnUse" gradientTransform="translate(431.601 393.466) rotate(90) scale(20.1142 53.5474)">
<stop stop-color="white" stop-opacity="0.5"/>
<stop offset="1" stop-color="#F6F5FA"/>
</radialGradient>
<radialGradient id="paint30_radial_1786_331" cx="0" cy="0" r="1" gradientUnits="userSpaceOnUse" gradientTransform="translate(143.734 381.705) rotate(90) scale(20.1423 66.3201)">
<stop stop-color="white" stop-opacity="0.5"/>
<stop offset="1" stop-color="#F6F5FA"/>
</radialGradient>
</defs>
</svg>
