<svg width="40" height="41" viewBox="0 0 40 41" fill="none" xmlns="http://www.w3.org/2000/svg">
<path fill-rule="evenodd" clip-rule="evenodd" d="M20 2.86719C10.335 2.86719 2.5 10.7022 2.5 20.3672C2.5 30.0322 10.335 37.8672 20 37.8672C29.665 37.8672 37.5 30.0322 37.5 20.3672C37.5 10.7022 29.665 2.86719 20 2.86719ZM15.7732 12.4824C15.7732 13.6506 14.7606 14.5976 13.5116 14.5976C12.2626 14.5976 11.25 13.6506 11.25 12.4824C11.25 11.3142 12.2626 10.3672 13.5116 10.3672C14.7606 10.3672 15.7732 11.3142 15.7732 12.4824ZM11.5593 16.1523H15.4253V27.8672H11.5593V16.1523ZM17.7835 16.1523H21.6495V17.6553C22.2984 16.8298 23.5442 15.9173 25.5541 15.9173C28.9385 15.9173 29.9673 17.7364 30 21.6844V27.8672H26.134C26.134 27.1032 26.1287 26.3351 26.1234 25.5672C26.1159 24.4781 26.1084 23.3893 26.116 22.3136C26.1259 20.9104 26.1388 19.0991 24.0077 19.0991C22.1221 19.0991 21.6495 20.4892 21.6495 21.8733V27.8672H17.7835V16.1523Z" fill="#0077B7"/>
</svg>
