<svg width="218" height="64" viewBox="0 0 218 64" fill="none" xmlns="http://www.w3.org/2000/svg">
<path fill-rule="evenodd" clip-rule="evenodd" d="M62.5705 38.2055H72.5293V42.2287H58.1292V21.5H62.5705V38.2055ZM78.1069 31.0797C78.8531 30.0778 80.0416 29.4896 81.4772 29.4896C83.0561 29.4896 84.2541 30.3913 84.8734 31.7223L77.2181 34.8983C77.0091 33.2684 77.4263 31.9936 78.1069 31.0797ZM86.5248 37.3228C84.6807 38.6875 83.627 39.0131 81.9453 39.0131C80.432 39.0131 79.247 38.5432 78.4118 37.7192L89.6135 33.0724C89.3691 31.3406 88.7118 29.7936 87.7004 28.6172C86.2286 26.9079 84.0502 26.0036 81.3977 26.0036C76.5798 26.0036 72.9469 29.5578 72.9469 34.2522C72.9469 39.0684 76.5884 42.5 81.8805 42.5C84.8457 42.5 87.8774 41.0947 89.2957 39.4528L86.5248 37.3228ZM95.5686 28.561C96.8452 26.856 98.9346 26.0044 100.772 26.0044C104.627 26.0044 107.252 28.6673 107.252 32.3373V42.2287H102.871V33.1492C102.871 31.0391 100.995 29.778 99.1816 29.778C96.8357 29.778 95.5686 31.515 95.5686 33.1492V42.2287H91.1878V26.2721H95.5695L95.5686 28.5584L95.5695 28.5576L95.5686 28.561ZM134.433 37.142L138.394 26.2728H143.399L136.833 42.2242H132.032L125.467 26.2728H130.472L134.433 37.142ZM151.266 29.7583C148.819 29.7583 147.043 31.6127 147.043 34.2506C147.043 36.7692 148.925 38.7429 151.325 38.7429C153.773 38.7429 155.549 36.8375 155.549 34.2506C155.549 31.7319 153.668 29.7583 151.266 29.7583ZM151.266 42.4975C146.474 42.4975 142.72 38.9277 142.72 34.2506C142.72 29.6262 146.5 26.0037 151.325 26.0037C156.117 26.0037 159.871 29.5735 159.871 34.2506C159.871 38.8742 156.091 42.4975 151.266 42.4975ZM113.309 34.2506C113.309 31.6127 115.085 29.7583 117.532 29.7583C119.933 29.7583 121.814 31.7319 121.814 34.2506C121.814 36.8375 120.038 38.7429 117.591 38.7429C115.19 38.7429 113.309 36.7692 113.309 34.2506ZM108.986 34.2506C108.986 38.9277 112.74 42.4975 117.532 42.4975C122.356 42.4975 126.137 38.8742 126.137 34.2506C126.137 29.5735 122.382 26.0037 117.591 26.0037C112.765 26.0037 108.986 29.6262 108.986 34.2506Z" fill="#6A779B"/>
</svg>
