<svg width="24" height="25" viewBox="0 0 24 25" fill="none" xmlns="http://www.w3.org/2000/svg">
<rect y="0.46875" width="24" height="24" rx="12" fill="url(#paint0_linear_533_3869)"/>
<path d="M10 11.8018C10 12.3322 10.2107 12.8409 10.5858 13.216C10.9609 13.591 11.4696 13.8018 12 13.8018C12.5304 13.8018 13.0391 13.591 13.4142 13.216C13.7893 12.8409 14 12.3322 14 11.8018C14 11.2713 13.7893 10.7626 13.4142 10.3875C13.0391 10.0125 12.5304 9.80176 12 9.80176C11.4696 9.80176 10.9609 10.0125 10.5858 10.3875C10.2107 10.7626 10 11.2713 10 11.8018Z" stroke="#060F27" stroke-width="2" stroke-linecap="round" stroke-linejoin="round"/>
<path d="M15.7713 15.5732L12.9426 18.4019C12.6926 18.6516 12.3537 18.7919 12.0003 18.7919C11.6469 18.7919 11.308 18.6516 11.058 18.4019L8.22863 15.5732C7.48278 14.8273 6.97485 13.877 6.76909 12.8425C6.56332 11.8079 6.66896 10.7356 7.07263 9.76104C7.47631 8.78652 8.15989 7.95358 9.03695 7.36756C9.91401 6.78154 10.9451 6.46875 12 6.46875C13.0548 6.46875 14.0859 6.78154 14.963 7.36756C15.84 7.95358 16.5236 8.78652 16.9273 9.76104C17.331 10.7356 17.4366 11.8079 17.2308 12.8425C17.0251 13.877 16.5171 14.8273 15.7713 15.5732Z" stroke="#060F27" stroke-width="2" stroke-linecap="round" stroke-linejoin="round"/>
<defs>
<linearGradient id="paint0_linear_533_3869" x1="0" y1="24.4688" x2="24" y2="24.4688" gradientUnits="userSpaceOnUse">
<stop stop-color="#5BD473"/>
<stop offset="1" stop-color="#98D45B"/>
</linearGradient>
</defs>
</svg>
