<svg width="123" height="22" viewBox="0 0 123 22" fill="none" xmlns="http://www.w3.org/2000/svg">
<path id="brand-4" fill-rule="evenodd" clip-rule="evenodd" d="M18.155 11.092C18.155 5.0182 23.006 0 30.1233 0C37.1741 0 42.0851 5.0182 42.0851 11.092C42.0851 17.5505 36.7286 22 30.1233 22C23.5137 22 18.155 17.4861 18.155 11.092ZM21.0566 11.0979C21.0566 15.8647 25.1138 19.8217 30.0379 19.8217C34.9599 19.8217 39.208 15.8645 39.208 11.0979C39.208 6.33761 35.4039 2.19106 30.2288 2.19106C24.9223 2.19106 21.0566 6.33761 21.0566 11.0979ZM72.6365 2.52133L74.7608 0.134813H79.3053L72.6365 2.52133ZM82.2974 20.5198H66.6068V2.97152H82.2974V4.8811H69.2966V10.5313H79.0617V12.4705H69.2966V18.6032H82.2974V20.5198ZM108.638 18.6032V2.97152H106.186V20.5198H122.048V18.6032H108.638ZM83.5418 20.5198L92.4645 2.97152H95.8992L104.829 20.5198H101.844L99.542 15.9778H88.8405L86.5578 20.5198H83.5418ZM94.1746 5.39634L89.97 13.7782H98.4284L94.1746 5.39634ZM58.0925 13.1819C62.1127 12.1092 62.5033 9.11793 62.483 8.04854C62.243 4.91363 60.1308 2.97152 56.3355 2.97152H45.2753V20.5198H47.7967V13.1585H54.9971L60.2943 20.5198H63.4723C63.4721 20.5198 59.6601 15.5656 58.0925 13.1819ZM55.9913 11.0851H47.7967V5.04859H56.2768C58.2293 5.04859 59.3276 5.96007 59.7232 7.11791C59.9849 7.9116 59.8171 8.95348 59.3841 9.66281C58.6754 10.8355 57.3291 11.0851 55.9913 11.0851ZM11.8049 9.17948H13.6242L16.9265 2.97152H14.2691L11.8049 9.17948ZM2.91088 2.97152V18.6032H16.3184V20.5198H0.457031V2.97152H2.91088Z" fill="#7D90A1"/>
</svg>
