<svg width="219" height="64" viewBox="0 0 219 64" fill="none" xmlns="http://www.w3.org/2000/svg">
<path fill-rule="evenodd" clip-rule="evenodd" d="M66.5027 32.092C66.5027 26.0182 71.3537 21 78.471 21C85.5217 21 90.4328 26.0182 90.4328 32.092C90.4328 38.5505 85.0762 43 78.471 43C71.8613 43 66.5027 38.4861 66.5027 32.092ZM69.4043 32.0979C69.4043 36.8647 73.4614 40.8217 78.3856 40.8217C83.3076 40.8217 87.5556 36.8645 87.5556 32.0979C87.5556 27.3376 83.7515 23.1911 78.5765 23.1911C73.2699 23.1911 69.4043 27.3376 69.4043 32.0979ZM120.984 23.5213L123.108 21.1348H127.653L120.984 23.5213ZM130.645 41.5198H114.954V23.9715H130.645V25.8811H117.644V31.5313H127.409V33.4705H117.644V39.6032H130.645V41.5198ZM156.986 39.6032V23.9715H154.533V41.5198H170.395V39.6032H156.986ZM131.889 41.5198L140.812 23.9715H144.247L153.177 41.5198H150.192L147.89 36.9778H137.188L134.905 41.5198H131.889ZM142.522 26.3963L138.318 34.7782H146.776L142.522 26.3963ZM106.44 34.1819C110.46 33.1092 110.851 30.1179 110.831 29.0485C110.591 25.9136 108.478 23.9715 104.683 23.9715H93.623V41.5198H96.1443V34.1585H103.345L108.642 41.5198H111.82C111.82 41.5198 108.008 36.5656 106.44 34.1819ZM104.339 32.0851H96.1443V26.0486H104.625C106.577 26.0486 107.675 26.9601 108.071 28.1179C108.333 28.9116 108.165 29.9535 107.732 30.6628C107.023 31.8355 105.677 32.0851 104.339 32.0851ZM60.1526 30.1795H61.9719L65.2741 23.9715H62.6168L60.1526 30.1795ZM51.2585 23.9715V39.6032H64.666V41.5198H48.8047V23.9715H51.2585Z" fill="#6A779B"/>
</svg>
