<svg width="219" height="64" viewBox="0 0 219 64" fill="none" xmlns="http://www.w3.org/2000/svg">
<path fill-rule="evenodd" clip-rule="evenodd" d="M62.6638 19.5H50.7888V31.375H62.6638V19.5ZM99.5388 24.5V39.5H96.9347V27.7292H96.8999L92.2472 39.5H90.5111L85.7541 27.7292H85.7194V39.5H83.3235V24.5H87.0735L91.3791 35.6111H91.4485L95.9972 24.5H99.5388ZM101.692 25.6458C101.692 25.2292 101.83 24.8819 102.143 24.6042C102.455 24.3264 102.803 24.1875 103.219 24.1875C103.671 24.1875 104.053 24.3264 104.33 24.6042C104.608 24.8819 104.782 25.2292 104.782 25.6458C104.782 26.0625 104.643 26.4097 104.33 26.6875C104.018 26.9653 103.671 27.1042 103.219 27.1042C102.768 27.1042 102.421 26.9653 102.143 26.6875C101.865 26.375 101.692 26.0278 101.692 25.6458ZM104.504 28.7361V39.5H101.969V28.7361H104.504ZM112.178 37.6597C112.56 37.6597 112.976 37.5903 113.428 37.3819C113.879 37.2083 114.296 36.9653 114.678 36.6875V39.0486C114.261 39.2917 113.81 39.4653 113.289 39.5694C112.768 39.6736 112.212 39.7431 111.587 39.7431C109.99 39.7431 108.705 39.2569 107.733 38.25C106.726 37.2431 106.24 35.9583 106.24 34.4306C106.24 32.6944 106.761 31.2708 107.768 30.1597C108.775 29.0486 110.199 28.4931 112.074 28.4931C112.56 28.4931 113.046 28.5625 113.497 28.6667C113.983 28.7708 114.365 28.9444 114.643 29.0833V31.5139C114.261 31.2361 113.844 30.9931 113.462 30.8542C113.046 30.7153 112.629 30.6111 112.212 30.6111C111.205 30.6111 110.407 30.9236 109.782 31.5833C109.157 32.2431 108.879 33.1111 108.879 34.2222C108.879 35.2986 109.192 36.1667 109.782 36.7569C110.372 37.3472 111.171 37.6597 112.178 37.6597ZM121.865 28.5625C122.074 28.5625 122.247 28.5625 122.421 28.5972C122.594 28.6319 122.733 28.6667 122.837 28.7014V31.2708C122.699 31.1667 122.525 31.0625 122.247 30.9931C121.969 30.9236 121.692 30.8542 121.31 30.8542C120.685 30.8542 120.164 31.1319 119.747 31.6528C119.331 32.1736 119.087 32.9722 119.087 34.0833V39.5H116.553V28.7361H119.087V30.4375H119.122C119.365 29.8472 119.712 29.3958 120.164 29.0486C120.65 28.7361 121.205 28.5625 121.865 28.5625ZM122.976 34.2917C122.976 32.5208 123.497 31.0972 124.469 30.0556C125.476 29.0139 126.865 28.4931 128.636 28.4931C130.303 28.4931 131.622 28.9792 132.56 29.9861C133.497 30.9931 133.983 32.3472 133.983 34.0486C133.983 35.7847 133.462 37.1736 132.49 38.2153C131.483 39.2569 130.129 39.7778 128.393 39.7778C126.726 39.7778 125.407 39.2917 124.435 38.3194C123.462 37.3125 122.976 35.9583 122.976 34.2917ZM125.615 34.1875C125.615 35.2986 125.858 36.1667 126.379 36.7569C126.9 37.3472 127.629 37.6597 128.567 37.6597C129.469 37.6597 130.199 37.3819 130.685 36.7569C131.171 36.1667 131.414 35.2986 131.414 34.1181C131.414 32.9722 131.171 32.1042 130.685 31.4792C130.199 30.8889 129.469 30.5764 128.601 30.5764C127.664 30.5764 126.969 30.8889 126.449 31.5139C125.858 32.1736 125.615 33.0417 125.615 34.1875ZM137.768 31.5833C137.768 31.9306 137.872 32.2431 138.115 32.4514C138.358 32.6597 138.844 32.9028 139.643 33.2153C140.65 33.6319 141.379 34.0833 141.761 34.5694C142.178 35.0903 142.386 35.6806 142.386 36.4097C142.386 37.4167 142.004 38.2153 141.206 38.8403C140.442 39.4653 139.365 39.7431 138.046 39.7431C137.594 39.7431 137.108 39.6736 136.553 39.5694C135.997 39.4653 135.546 39.3264 135.164 39.1528V36.6528C135.615 36.9653 136.136 37.2431 136.657 37.4167C137.178 37.5903 137.664 37.6944 138.115 37.6944C138.671 37.6944 139.122 37.625 139.365 37.4514C139.643 37.2778 139.782 37.0347 139.782 36.6528C139.782 36.3056 139.643 36.0278 139.365 35.75C139.087 35.5069 138.532 35.2292 137.768 34.9167C136.831 34.5347 136.171 34.0833 135.789 33.5972C135.407 33.1111 135.199 32.4861 135.199 31.7222C135.199 30.75 135.581 29.9514 136.344 29.3264C137.108 28.7014 138.115 28.3889 139.331 28.3889C139.712 28.3889 140.129 28.4236 140.581 28.5278C141.032 28.6319 141.449 28.7361 141.761 28.8403V31.3056C141.414 31.0972 141.032 30.8889 140.581 30.7153C140.129 30.5417 139.678 30.4722 139.261 30.4722C138.775 30.4722 138.393 30.5764 138.15 30.75C137.907 30.9931 137.768 31.2361 137.768 31.5833ZM143.462 34.2917C143.462 32.5208 143.983 31.0972 144.956 30.0556C145.962 29.0139 147.351 28.4931 149.122 28.4931C150.789 28.4931 152.108 28.9792 153.046 29.9861C153.983 30.9931 154.469 32.3472 154.469 34.0486C154.469 35.7847 153.949 37.1736 152.976 38.2153C151.969 39.2569 150.615 39.7778 148.879 39.7778C147.212 39.7778 145.893 39.2917 144.921 38.3194C143.983 37.3125 143.462 35.9583 143.462 34.2917ZM146.101 34.1875C146.101 35.2986 146.344 36.1667 146.865 36.7569C147.386 37.3472 148.115 37.6597 149.053 37.6597C149.956 37.6597 150.685 37.3819 151.171 36.7569C151.657 36.1667 151.9 35.2986 151.9 34.1181C151.9 32.9722 151.657 32.1042 151.171 31.4792C150.685 30.8889 149.956 30.5764 149.087 30.5764C148.15 30.5764 147.456 30.8889 146.935 31.5139C146.379 32.1736 146.101 33.0417 146.101 34.1875ZM162.907 30.8194H159.122V39.5H156.553V30.8194H154.747V28.7361H156.553V27.2431C156.553 26.1319 156.935 25.1944 157.664 24.4653C158.393 23.7361 159.331 23.3889 160.476 23.3889C160.642 23.3889 160.799 23.3987 160.945 23.4079C161.074 23.416 161.196 23.4236 161.31 23.4236C161.553 23.4236 161.761 23.4931 161.935 23.5625V25.75C161.865 25.7153 161.692 25.6458 161.483 25.5764C161.275 25.5069 161.032 25.4722 160.754 25.4722C160.233 25.4722 159.817 25.6458 159.539 25.9583C159.261 26.2708 159.122 26.7917 159.122 27.4167V28.7014H162.907V26.2708L165.442 25.5069V28.7014H168.011V30.7847H165.442V35.8194C165.442 36.4792 165.581 36.9306 165.789 37.2083C166.032 37.4861 166.414 37.625 166.935 37.625C167.074 37.625 167.247 37.5903 167.456 37.5208C167.664 37.4514 167.837 37.3819 167.976 37.2778V39.3611C167.803 39.4653 167.56 39.5347 167.178 39.6042C166.796 39.6736 166.449 39.7083 166.067 39.7083C164.99 39.7083 164.192 39.4306 163.671 38.875C163.15 38.3194 162.872 37.4514 162.872 36.3056L162.907 30.8194ZM63.9138 19.5H75.7888V31.375H63.9138V19.5ZM62.6638 32.625H50.7888V44.5H62.6638V32.625ZM63.9138 32.625H75.7888V44.5H63.9138V32.625Z" fill="#6A779B"/>
</svg>
