<svg width="206" height="128" viewBox="0 0 206 128" fill="none" xmlns="http://www.w3.org/2000/svg">
<g filter="url(#filter0_d_3687_6900)">
<rect x="24.2852" y="16" width="157.714" height="80" rx="8" fill="white" shape-rendering="crispEdges"/>
<rect x="24.7852" y="16.5" width="156.714" height="79" rx="7.5" stroke="#132239" stroke-opacity="0.04" shape-rendering="crispEdges"/>
<path fill-rule="evenodd" clip-rule="evenodd" d="M76.7766 46.2046C75.7367 46.4772 75.259 46.7389 74.6541 47.3678C74.009 48.0386 73.7412 48.5815 73.466 49.7764C73.2569 50.6851 73.2471 51.0261 73.2807 56.2286C73.3196 62.2174 73.3263 62.2885 73.9846 63.6015C74.3314 64.2932 75.249 65.1891 75.8936 65.4654C78.6108 66.6302 81.6705 65.8292 82.7589 63.6683C83.1319 62.928 83.3512 61.8394 83.4402 60.2873C83.5162 58.9631 83.5161 58.9619 83.2355 58.6813C82.9801 58.4259 82.8755 58.4006 82.0739 58.4006C81.299 58.4006 81.1627 58.4309 80.9416 58.6519C80.7097 58.8838 80.6861 59.0199 80.6345 60.4212C80.5711 62.1386 80.4568 62.5279 79.8627 63.0495C78.9303 63.8681 77.0915 63.5556 76.5871 62.4928C76.1576 61.5876 76.0855 60.6473 76.0855 55.9508C76.0855 50.5967 76.1733 49.8432 76.8885 49.0539C77.2919 48.6088 77.7212 48.451 78.5377 48.4475C79.1569 48.4449 79.3822 48.4936 79.722 48.7037C80.3784 49.1093 80.5618 49.6531 80.6483 51.4506C80.7397 53.3506 80.73 53.3378 82.0739 53.3378C83.4378 53.3378 83.4408 53.3337 83.4133 51.5502C83.3801 49.3948 83.0585 48.3121 82.1632 47.3408C81.0948 46.1818 78.7501 45.6873 76.7766 46.2046ZM50.9841 46.4735C50.7168 46.7407 50.7168 46.7407 50.7168 55.9508C50.7168 65.161 50.7168 65.161 50.9841 65.4282C51.2175 65.6617 51.3488 65.6955 52.0233 65.6955C52.6978 65.6955 52.8292 65.6617 53.0626 65.4282C53.3299 65.161 53.3299 65.161 53.3314 60.1204C53.3322 57.3481 53.3624 54.9696 53.3985 54.8348C53.5692 54.1977 54.0371 54.7372 54.6968 56.3319C54.9816 57.0206 55.5433 58.368 55.9449 59.3261C56.3466 60.2842 56.9814 61.8031 57.3557 62.7013C58.5404 65.5448 58.6516 65.6955 59.5652 65.6955C59.9775 65.6955 60.1477 65.6381 60.3575 65.4282C60.6248 65.161 60.6248 65.161 60.6248 55.9508C60.6248 46.7407 60.6248 46.7407 60.3575 46.4735C60.1278 46.2438 59.9893 46.2062 59.3727 46.2062C58.756 46.2062 58.6175 46.2438 58.3878 46.4735C58.1206 46.7407 58.1206 46.7407 58.119 51.6725C58.1183 54.3848 58.088 56.7143 58.052 56.8491C57.9726 57.145 57.7812 57.163 57.5406 56.8971C57.3674 56.7058 56.738 55.3141 55.5614 52.5212C53.523 47.6827 53.0921 46.7545 52.7499 46.4659C52.3045 46.09 51.3634 46.0941 50.9841 46.4735ZM101.395 46.4735C101.128 46.7407 101.128 46.7407 101.128 49.0937C101.128 50.5075 101.083 51.5308 101.015 51.6573C100.88 51.9102 100.553 51.9244 99.93 51.7046C99.3357 51.4949 98.4679 51.4962 97.8474 51.7076C96.7245 52.0902 96.0562 53.0925 95.6812 54.9561C95.4993 55.8606 95.466 56.4707 95.466 58.8957C95.466 61.7955 95.5209 62.3718 95.912 63.5724C96.5317 65.4748 98.2075 66.3231 100.102 65.6928C100.75 65.4769 100.907 65.461 101.315 65.5702C101.573 65.6391 102.129 65.6955 102.55 65.6955C103.217 65.6955 103.349 65.6613 103.582 65.4282C103.85 65.161 103.85 65.161 103.85 55.9508C103.85 46.7407 103.85 46.7407 103.582 46.4735C103.346 46.2367 103.221 46.2062 102.489 46.2062C101.756 46.2062 101.632 46.2367 101.395 46.4735ZM116.856 46.4735C116.588 46.7407 116.588 46.7407 116.588 55.9508C116.588 65.161 116.588 65.161 116.856 65.4282C117.098 65.6706 117.21 65.6955 118.058 65.6955C118.906 65.6955 119.019 65.6706 119.261 65.4282C119.528 65.161 119.528 65.161 119.528 61.177C119.528 56.1996 119.29 56.6586 121.869 56.6586C124.448 56.6586 124.21 56.1996 124.21 61.177C124.21 65.161 124.21 65.161 124.477 65.4282C124.72 65.6706 124.832 65.6955 125.68 65.6955C126.528 65.6955 126.64 65.6706 126.882 65.4282C127.15 65.161 127.15 65.161 127.15 55.9508C127.15 46.7407 127.15 46.7407 126.882 46.4735C126.64 46.2311 126.528 46.2062 125.68 46.2062C124.832 46.2062 124.72 46.2311 124.477 46.4735C124.21 46.7407 124.21 46.7407 124.21 50.3436C124.21 54.8796 124.435 54.481 121.869 54.481C119.303 54.481 119.528 54.8796 119.528 50.3436C119.528 46.7407 119.528 46.7407 119.261 46.4735C119.019 46.2311 118.906 46.2062 118.058 46.2062C117.21 46.2062 117.098 46.2311 116.856 46.4735ZM65.9382 51.6463C65.2951 51.7633 64.3914 52.2494 64.0394 52.6678C63.8913 52.8438 63.6571 53.2134 63.519 53.4894C63.0133 54.4988 62.9657 54.9549 62.9657 58.7817C62.9657 62.1837 62.9784 62.4153 63.206 63.1384C63.7821 64.9695 64.8265 65.7712 66.7863 65.8868C68.8674 66.0095 70.2471 65.1037 70.885 63.1959C71.1056 62.5358 71.1259 62.2327 71.1616 59.0639C71.1939 56.2049 71.1712 55.514 71.0233 54.8494C70.5364 52.6606 69.4223 51.6608 67.3883 51.5872C66.8721 51.5685 66.2195 51.5952 65.9382 51.6463ZM88.28 51.6916C87.5588 51.8506 87.3059 51.9825 86.7372 52.4964C86.2182 52.9652 85.7478 53.8557 85.5448 54.7532C85.3552 55.5914 85.3397 61.6173 85.5246 62.6019C85.7022 63.5476 86.0648 64.2506 86.7095 64.8985C87.1744 65.3658 87.4052 65.5034 88.0552 65.7008C89.6553 66.1869 91.5769 65.8007 92.4683 64.8139C93.4751 63.6995 93.615 62.957 93.615 58.7273C93.615 54.536 93.4777 53.7848 92.5107 52.6834C91.6389 51.6905 90.0131 51.3093 88.28 51.6916ZM108.966 51.6816C107.482 52.0192 106.672 52.9942 106.234 54.9709C106.131 55.435 106.09 56.5548 106.092 58.8361C106.094 61.8184 106.111 62.1091 106.335 62.902C106.638 63.9725 106.82 64.3358 107.319 64.8606C108.014 65.5926 108.91 65.9098 110.289 65.9119C112.57 65.9155 113.813 64.8326 114.189 62.5148C114.35 61.5255 114.332 61.3607 114.035 61.0632C113.796 60.8244 113.676 60.796 112.904 60.796C111.702 60.796 111.56 60.9215 111.461 62.0742C111.373 63.1013 111.173 63.4679 110.61 63.6367C110.018 63.8141 109.488 63.5638 109.167 62.9546C108.951 62.5454 108.913 62.2878 108.878 60.9918C108.838 59.5138 108.84 59.4976 109.115 59.2225C109.393 58.945 109.393 58.945 111.563 58.945C114.422 58.945 114.25 59.0716 114.239 56.9669C114.224 53.9797 113.628 52.478 112.215 51.8703C111.519 51.5711 109.871 51.4754 108.966 51.6816ZM132.594 51.6433C130.994 51.937 130.129 52.9147 129.711 54.9043C129.47 56.0518 129.475 61.4439 129.718 62.6242C130.079 64.3712 130.779 65.252 132.16 65.6961C132.806 65.9039 133.09 65.9342 133.984 65.8908C136.038 65.7912 137.079 64.9313 137.547 62.9484C137.791 61.9103 137.763 61.3822 137.444 61.0632C137.207 60.8264 137.082 60.796 136.35 60.796C135.261 60.796 135.054 60.9776 134.957 62.0221C134.919 62.4223 134.81 62.9019 134.714 63.088C134.321 63.8473 133.144 63.8905 132.7 63.1617C132.463 62.7714 132.411 62.4413 132.316 60.7182C132.25 59.5154 132.253 59.4932 132.525 59.2211C132.801 58.945 132.801 58.945 134.924 58.945C136.27 58.945 137.146 58.9 137.317 58.822C137.747 58.6261 137.85 58.2188 137.771 57.0186C137.503 52.9277 136.646 51.672 134.063 51.586C133.525 51.568 132.863 51.5938 132.594 51.6433ZM150.123 51.685C148.688 52.0207 147.899 52.8338 147.459 54.4312C147.324 54.917 147.264 55.763 147.22 57.8018C147.132 61.7781 147.326 63.31 148.057 64.4128C149.052 65.9153 151.641 66.3746 153.566 65.3902C155.008 64.6533 155.567 62.7904 155.567 58.7273C155.567 54.489 154.99 52.7273 153.337 51.9185C152.628 51.5717 151.086 51.4597 150.123 51.685ZM140.2 51.8582C139.943 52.0664 139.943 52.0664 139.913 58.6112C139.883 65.156 139.883 65.156 140.153 65.4258C140.395 65.6675 140.513 65.6955 141.287 65.6955C141.975 65.6955 142.203 65.6531 142.408 65.4874C142.665 65.2795 142.665 65.2795 142.719 60.4432C142.774 55.6069 142.774 55.6069 143.079 55.2072C143.536 54.6085 143.941 54.4394 144.934 54.4324C145.707 54.4271 145.808 54.4012 146.005 54.1573C146.194 53.9237 146.218 53.7599 146.186 52.9235C146.141 51.7375 146.03 51.6114 145.096 51.6752C144.607 51.7085 144.351 51.8016 143.872 52.1192C143.54 52.3403 143.206 52.5212 143.132 52.5212C143.057 52.5212 142.817 52.3252 142.598 52.0856C142.2 51.6501 142.2 51.6501 141.329 51.6501C140.633 51.6501 140.405 51.6921 140.2 51.8582ZM67.5837 53.8774C67.7523 53.9646 67.9826 54.2217 68.0955 54.449C68.2813 54.8231 68.304 55.1937 68.3348 58.3775C68.3726 62.2759 68.3115 62.8789 67.8336 63.3262C67.4402 63.6944 67.1222 63.7768 66.6705 63.6278C65.8576 63.3595 65.6379 62.3263 65.6398 58.7817C65.6412 56.4657 65.7728 54.9508 66.0173 54.4355C66.326 53.7849 66.9649 53.5574 67.5837 53.8774ZM90.3116 54.0619C90.7646 54.4874 90.799 54.8604 90.7634 58.9644C90.7309 62.707 90.7215 62.8603 90.5021 63.1562C90.377 63.3252 90.0774 63.5332 89.8365 63.6183C89.4364 63.7597 89.3677 63.7551 89.0404 63.5639C88.8434 63.4488 88.5795 63.1586 88.454 62.9191C88.2386 62.5084 88.2235 62.2878 88.1898 59.0539C88.166 56.7681 88.1954 55.4357 88.2778 55.0592C88.4116 54.4483 88.719 53.9761 89.0844 53.8205C89.4308 53.6729 90.0212 53.7889 90.3116 54.0619ZM110.955 54.0136C111.32 54.3385 111.471 54.8578 111.471 55.7889C111.471 56.5776 111.443 56.6961 111.204 56.9357C110.97 57.1692 110.839 57.203 110.165 57.203C109.49 57.203 109.359 57.1692 109.125 56.9357C108.813 56.6231 108.781 56.124 109.005 55.0549C109.211 54.0724 109.633 53.6744 110.369 53.7704C110.571 53.7968 110.835 53.9062 110.955 54.0136ZM134.516 54.0873C134.793 54.409 134.989 55.2322 134.989 56.0701C134.989 56.5602 134.941 56.7168 134.722 56.9357C134.488 57.1692 134.357 57.203 133.682 57.203C132.998 57.203 132.878 57.1711 132.63 56.9228C132.363 56.6558 132.352 56.598 132.398 55.6979C132.451 54.6402 132.645 54.1459 133.112 53.8833C133.538 53.6437 134.219 53.7427 134.516 54.0873ZM151.808 53.8464C152.541 54.1804 152.735 55.1984 152.735 58.7273C152.735 61.2037 152.616 62.5785 152.359 63.0757C151.99 63.7874 151.087 63.908 150.524 63.3204C150.064 62.8405 149.997 62.1525 150.035 58.3117C150.065 55.1948 150.088 54.8223 150.273 54.4497C150.594 53.8056 151.198 53.5681 151.808 53.8464ZM100.522 54.0396C101.12 54.4344 101.12 54.4297 101.122 58.7273C101.124 61.6912 101.09 62.7706 100.988 62.9735C100.651 63.6491 99.5276 63.7989 98.9498 63.2454C98.3889 62.7081 98.2968 62.061 98.2968 58.6582C98.2968 55.2545 98.3713 54.7499 98.961 54.1602C99.3646 53.7566 100.016 53.7062 100.522 54.0396Z" fill="black"/>
</g>
<defs>
<filter id="filter0_d_3687_6900" x="0.285156" y="0" width="205.715" height="128" filterUnits="userSpaceOnUse" color-interpolation-filters="sRGB">
<feFlood flood-opacity="0" result="BackgroundImageFix"/>
<feColorMatrix in="SourceAlpha" type="matrix" values="0 0 0 0 0 0 0 0 0 0 0 0 0 0 0 0 0 0 127 0" result="hardAlpha"/>
<feOffset dy="8"/>
<feGaussianBlur stdDeviation="12"/>
<feComposite in2="hardAlpha" operator="out"/>
<feColorMatrix type="matrix" values="0 0 0 0 0.0745098 0 0 0 0 0.133333 0 0 0 0 0.223529 0 0 0 0.04 0"/>
<feBlend mode="normal" in2="BackgroundImageFix" result="effect1_dropShadow_3687_6900"/>
<feBlend mode="normal" in="SourceGraphic" in2="effect1_dropShadow_3687_6900" result="shape"/>
</filter>
</defs>
</svg>
