<svg width="158" height="80" viewBox="0 0 158 80" fill="none" xmlns="http://www.w3.org/2000/svg">
<rect x="0.285156" width="157.714" height="80" rx="8" fill="white"/>
<rect x="0.785156" y="0.5" width="156.714" height="79" rx="7.5" stroke="#132239" stroke-opacity="0.04"/>
<path fill-rule="evenodd" clip-rule="evenodd" d="M52.7766 30.2046C51.7367 30.4772 51.259 30.7389 50.6541 31.3678C50.009 32.0386 49.7412 32.5815 49.466 33.7764C49.2569 34.6851 49.2471 35.0261 49.2807 40.2286C49.3196 46.2174 49.3263 46.2885 49.9846 47.6015C50.3314 48.2932 51.249 49.1891 51.8936 49.4654C54.6108 50.6302 57.6705 49.8292 58.7589 47.6683C59.1318 46.928 59.3512 45.8394 59.4402 44.2873C59.5162 42.9631 59.5161 42.9619 59.2355 42.6813C58.9801 42.4259 58.8756 42.4006 58.0739 42.4006C57.299 42.4006 57.1627 42.4309 56.9416 42.6519C56.7097 42.8838 56.6861 43.0199 56.6345 44.4212C56.5711 46.1386 56.4568 46.5279 55.8627 47.0495C54.9303 47.8681 53.0915 47.5556 52.5871 46.4928C52.1576 45.5876 52.0855 44.6473 52.0855 39.9508C52.0855 34.5967 52.1733 33.8432 52.8885 33.0539C53.2919 32.6088 53.7212 32.451 54.5377 32.4475C55.1569 32.4449 55.3822 32.4936 55.722 32.7037C56.3784 33.1093 56.5618 33.6531 56.6483 35.4506C56.7397 37.3506 56.73 37.3378 58.0739 37.3378C59.4378 37.3378 59.4408 37.3337 59.4133 35.5502C59.3801 33.3948 59.0585 32.3121 58.1632 31.3408C57.0948 30.1818 54.7501 29.6873 52.7766 30.2046ZM26.9841 30.4735C26.7168 30.7407 26.7168 30.7407 26.7168 39.9508C26.7168 49.161 26.7168 49.161 26.9841 49.4282C27.2175 49.6617 27.3488 49.6955 28.0233 49.6955C28.6978 49.6955 28.8292 49.6617 29.0626 49.4282C29.3299 49.161 29.3299 49.161 29.3314 44.1204C29.3322 41.3481 29.3624 38.9696 29.3985 38.8348C29.5692 38.1977 30.0371 38.7372 30.6968 40.3319C30.9816 41.0206 31.5433 42.368 31.9449 43.3261C32.3466 44.2842 32.9814 45.8031 33.3557 46.7013C34.5404 49.5448 34.6516 49.6955 35.5652 49.6955C35.9775 49.6955 36.1477 49.6381 36.3575 49.4282C36.6248 49.161 36.6248 49.161 36.6248 39.9508C36.6248 30.7407 36.6248 30.7407 36.3575 30.4735C36.1278 30.2438 35.9893 30.2062 35.3727 30.2062C34.756 30.2062 34.6175 30.2438 34.3878 30.4735C34.1206 30.7407 34.1206 30.7407 34.119 35.6725C34.1183 38.3848 34.088 40.7143 34.052 40.8491C33.9726 41.145 33.7812 41.163 33.5406 40.8971C33.3674 40.7058 32.738 39.3141 31.5614 36.5212C29.523 31.6827 29.0921 30.7545 28.7499 30.4659C28.3045 30.09 27.3634 30.0941 26.9841 30.4735ZM77.395 30.4735C77.1277 30.7407 77.1277 30.7407 77.1277 33.0937C77.1277 34.5075 77.0827 35.5308 77.015 35.6573C76.8796 35.9102 76.5531 35.9244 75.93 35.7046C75.3357 35.4949 74.4679 35.4962 73.8474 35.7076C72.7245 36.0902 72.0562 37.0925 71.6812 38.9561C71.4993 39.8606 71.466 40.4707 71.466 42.8957C71.466 45.7955 71.5209 46.3718 71.912 47.5724C72.5317 49.4748 74.2075 50.3231 76.1016 49.6928C76.7503 49.4769 76.9074 49.461 77.3154 49.5702C77.5732 49.6391 78.1286 49.6955 78.5496 49.6955C79.2173 49.6955 79.3493 49.6613 79.5823 49.4282C79.8496 49.161 79.8496 49.161 79.8496 39.9508C79.8496 30.7407 79.8496 30.7407 79.5823 30.4735C79.3456 30.2367 79.221 30.2062 78.4886 30.2062C77.7563 30.2062 77.6317 30.2367 77.395 30.4735ZM92.8557 30.4735C92.5884 30.7407 92.5884 30.7407 92.5884 39.9508C92.5884 49.161 92.5884 49.161 92.8557 49.4282C93.098 49.6706 93.2104 49.6955 94.0583 49.6955C94.9062 49.6955 95.0186 49.6706 95.2609 49.4282C95.5282 49.161 95.5282 49.161 95.5282 45.177C95.5282 40.1996 95.2904 40.6586 97.8691 40.6586C100.448 40.6586 100.21 40.1996 100.21 45.177C100.21 49.161 100.21 49.161 100.477 49.4282C100.72 49.6706 100.832 49.6955 101.68 49.6955C102.528 49.6955 102.64 49.6706 102.882 49.4282C103.15 49.161 103.15 49.161 103.15 39.9508C103.15 30.7407 103.15 30.7407 102.882 30.4735C102.64 30.2311 102.528 30.2062 101.68 30.2062C100.832 30.2062 100.72 30.2311 100.477 30.4735C100.21 30.7407 100.21 30.7407 100.21 34.3436C100.21 38.8796 100.435 38.481 97.8691 38.481C95.3027 38.481 95.5282 38.8796 95.5282 34.3436C95.5282 30.7407 95.5282 30.7407 95.2609 30.4735C95.0186 30.2311 94.9062 30.2062 94.0583 30.2062C93.2104 30.2062 93.098 30.2311 92.8557 30.4735ZM41.9382 35.6463C41.2951 35.7633 40.3914 36.2494 40.0394 36.6678C39.8913 36.8438 39.6571 37.2134 39.519 37.4894C39.0133 38.4988 38.9657 38.9549 38.9657 42.7817C38.9657 46.1837 38.9784 46.4153 39.206 47.1384C39.7821 48.9695 40.8265 49.7712 42.7863 49.8868C44.8674 50.0095 46.2471 49.1037 46.885 47.1959C47.1056 46.5358 47.1259 46.2327 47.1616 43.0639C47.1939 40.2049 47.1712 39.514 47.0233 38.8494C46.5364 36.6606 45.4223 35.6608 43.3883 35.5872C42.8721 35.5685 42.2195 35.5952 41.9382 35.6463ZM64.28 35.6916C63.5588 35.8506 63.3059 35.9825 62.7372 36.4964C62.2182 36.9652 61.7478 37.8557 61.5448 38.7532C61.3552 39.5914 61.3397 45.6173 61.5246 46.6019C61.7022 47.5476 62.0648 48.2506 62.7095 48.8985C63.1744 49.3658 63.4052 49.5034 64.0552 49.7008C65.6553 50.1869 67.5769 49.8007 68.4683 48.8139C69.4751 47.6995 69.615 46.957 69.615 42.7273C69.615 38.536 69.4777 37.7848 68.5107 36.6834C67.6389 35.6905 66.0131 35.3093 64.28 35.6916ZM84.9655 35.6816C83.4821 36.0192 82.6724 36.9942 82.2342 38.9709C82.1312 39.435 82.0899 40.5548 82.0917 42.8361C82.0939 45.8184 82.1114 46.1091 82.3353 46.902C82.6377 47.9725 82.8201 48.3358 83.3185 48.8606C84.0137 49.5926 84.91 49.9098 86.2893 49.9119C88.5699 49.9155 89.8131 48.8326 90.1893 46.5148C90.3498 45.5255 90.3323 45.3607 90.0347 45.0632C89.7959 44.8244 89.6756 44.796 88.9035 44.796C87.7019 44.796 87.5602 44.9215 87.4611 46.0742C87.3728 47.1013 87.1731 47.4679 86.6101 47.6367C86.0179 47.8141 85.4882 47.5638 85.1667 46.9546C84.9507 46.5454 84.9128 46.2878 84.8778 44.9918C84.8378 43.5138 84.84 43.4976 85.115 43.2225C85.3925 42.945 85.3925 42.945 87.563 42.945C90.4216 42.945 90.2504 43.0716 90.2395 40.9669C90.2241 37.9797 89.6276 36.478 88.2148 35.8703C87.5193 35.5711 85.8714 35.4754 84.9655 35.6816ZM108.594 35.6433C106.994 35.937 106.129 36.9147 105.711 38.9043C105.47 40.0518 105.475 45.4439 105.718 46.6242C106.079 48.3712 106.779 49.252 108.16 49.6961C108.806 49.9039 109.09 49.9342 109.984 49.8908C112.038 49.7912 113.079 48.9313 113.547 46.9484C113.791 45.9103 113.763 45.3822 113.444 45.0632C113.207 44.8264 113.082 44.796 112.35 44.796C111.261 44.796 111.054 44.9776 110.957 46.0221C110.919 46.4223 110.81 46.9019 110.714 47.088C110.321 47.8473 109.144 47.8905 108.7 47.1617C108.463 46.7714 108.411 46.4413 108.316 44.7182C108.25 43.5154 108.253 43.4932 108.525 43.2211C108.801 42.945 108.801 42.945 110.924 42.945C112.27 42.945 113.146 42.9 113.317 42.822C113.747 42.6261 113.85 42.2188 113.771 41.0186C113.503 36.9277 112.646 35.672 110.063 35.586C109.525 35.568 108.863 35.5938 108.594 35.6433ZM126.123 35.685C124.688 36.0207 123.899 36.8338 123.459 38.4312C123.324 38.917 123.264 39.763 123.22 41.8018C123.132 45.7781 123.326 47.31 124.057 48.4128C125.052 49.9153 127.641 50.3746 129.566 49.3902C131.008 48.6533 131.567 46.7904 131.567 42.7273C131.567 38.489 130.99 36.7273 129.337 35.9185C128.628 35.5717 127.086 35.4597 126.123 35.685ZM116.2 35.8582C115.943 36.0664 115.943 36.0664 115.913 42.6112C115.883 49.156 115.883 49.156 116.153 49.4258C116.395 49.6675 116.513 49.6955 117.287 49.6955C117.975 49.6955 118.203 49.6531 118.408 49.4874C118.665 49.2795 118.665 49.2795 118.719 44.4432C118.774 39.6069 118.774 39.6069 119.079 39.2072C119.536 38.6085 119.941 38.4394 120.934 38.4324C121.707 38.4271 121.808 38.4012 122.005 38.1573C122.194 37.9237 122.218 37.7599 122.186 36.9235C122.141 35.7375 122.03 35.6114 121.096 35.6752C120.607 35.7085 120.351 35.8016 119.872 36.1192C119.54 36.3403 119.206 36.5212 119.132 36.5212C119.057 36.5212 118.817 36.3252 118.598 36.0857C118.2 35.6501 118.2 35.6501 117.329 35.6501C116.633 35.6501 116.405 35.6921 116.2 35.8582ZM43.5837 37.8774C43.7523 37.9646 43.9826 38.2217 44.0955 38.449C44.2813 38.8231 44.304 39.1937 44.3348 42.3775C44.3726 46.2759 44.3115 46.8789 43.8336 47.3262C43.4402 47.6944 43.1222 47.7768 42.6705 47.6278C41.8576 47.3595 41.6379 46.3263 41.6398 42.7817C41.6412 40.4657 41.7728 38.9508 42.0173 38.4355C42.326 37.7849 42.9649 37.5574 43.5837 37.8774ZM66.3116 38.0619C66.7646 38.4874 66.799 38.8604 66.7634 42.9644C66.7309 46.707 66.7215 46.8603 66.5021 47.1562C66.377 47.3252 66.0774 47.5332 65.8365 47.6183C65.4364 47.7597 65.3677 47.7551 65.0404 47.5639C64.8434 47.4488 64.5795 47.1586 64.454 46.9191C64.2386 46.5084 64.2235 46.2878 64.1898 43.0539C64.166 40.7681 64.1954 39.4357 64.2778 39.0592C64.4116 38.4483 64.719 37.9761 65.0844 37.8205C65.4308 37.6729 66.0212 37.7889 66.3116 38.0619ZM86.9553 38.0136C87.3202 38.3385 87.4711 38.8578 87.4711 39.7889C87.4711 40.5776 87.4435 40.6961 87.2038 40.9357C86.9704 41.1692 86.8391 41.203 86.1646 41.203C85.4901 41.203 85.3588 41.1692 85.1253 40.9357C84.8126 40.6231 84.7806 40.124 85.0047 39.0549C85.2106 38.0724 85.6332 37.6744 86.3686 37.7704C86.5707 37.7968 86.8346 37.9062 86.9553 38.0136ZM110.516 38.0873C110.793 38.409 110.989 39.2322 110.989 40.0701C110.989 40.5602 110.941 40.7168 110.722 40.9357C110.488 41.1692 110.357 41.203 109.682 41.203C108.998 41.203 108.878 41.171 108.63 40.9228C108.363 40.6558 108.352 40.598 108.398 39.6979C108.451 38.6402 108.645 38.1459 109.112 37.8833C109.538 37.6437 110.219 37.7427 110.516 38.0873ZM127.808 37.8464C128.541 38.1804 128.735 39.1984 128.735 42.7273C128.735 45.2037 128.616 46.5785 128.359 47.0757C127.99 47.7874 127.087 47.908 126.524 47.3204C126.064 46.8405 125.997 46.1525 126.035 42.3117C126.065 39.1948 126.088 38.8223 126.273 38.4497C126.594 37.8056 127.198 37.5681 127.808 37.8464ZM76.5215 38.0396C77.1204 38.4344 77.1197 38.4297 77.1222 42.7273C77.1238 45.6912 77.0899 46.7706 76.9884 46.9735C76.6509 47.6491 75.5276 47.7989 74.9498 47.2454C74.3889 46.7081 74.2968 46.061 74.2968 42.6582C74.2968 39.2545 74.3713 38.7499 74.961 38.1602C75.3646 37.7566 76.0158 37.7062 76.5215 38.0396Z" fill="black"/>
</svg>
