<svg width="158" height="80" viewBox="0 0 158 80" fill="none" xmlns="http://www.w3.org/2000/svg">
<rect width="157.714" height="80" rx="8" fill="white"/>
<rect x="0.5" y="0.5" width="156.714" height="79" rx="7.5" stroke="#132239" stroke-opacity="0.04"/>
<path fill-rule="evenodd" clip-rule="evenodd" d="M29.5 40V55H78.8573H128.215V40V25H78.8573H29.5V40ZM84.3749 25.6521C84.5643 25.8413 84.5643 25.8413 84.5631 30.5299C84.5624 33.1086 84.5364 35.2587 84.505 35.3078C84.4738 35.3569 84.3183 35.4215 84.1595 35.4513C83.2223 35.6272 82.4016 36.8343 82.4062 38.0303C82.4082 38.5524 82.5961 39.3429 82.8624 39.9497C82.9925 40.2461 83.099 40.5752 83.099 40.6811C83.099 40.8173 82.9317 41.0426 82.529 41.4493C81.4729 42.5157 81.1089 43.7771 81.4453 45.2046C81.5901 45.8186 81.8335 46.2464 82.2549 46.6271C82.6964 47.0259 83.0344 47.151 83.7466 47.1789C84.0816 47.1921 84.394 47.241 84.4407 47.2877C84.4993 47.3463 84.5324 48.4234 84.5473 50.7633C84.569 54.154 84.569 54.154 84.3773 54.3456C84.1857 54.5373 84.1857 54.5373 57.2635 54.5373C30.3413 54.5373 30.3413 54.5373 30.1521 54.3479C29.9627 54.1587 29.9627 54.1587 29.9627 40C29.9627 25.8413 29.9627 25.8413 30.1521 25.6521C30.3413 25.4627 30.3413 25.4627 57.2635 25.4627C84.1857 25.4627 84.1857 25.4627 84.3749 25.6521ZM38.0975 27.1086C37.4656 27.3949 37.0907 28.1483 36.6667 29.9843C36.4916 30.7423 36.2475 31.6255 36.1243 31.9468C35.7703 32.8696 35.2078 33.4083 34.7681 33.2457C34.4461 33.1266 34.4253 32.9663 34.4505 30.7999C34.4776 28.4516 34.4929 28.3862 35.0984 28.0225C35.5221 27.768 35.6184 27.5064 35.3643 27.3006C35.2069 27.1732 35.0225 27.1594 33.4804 27.1594C32.0579 27.1594 31.7421 27.1795 31.5995 27.2795C31.3066 27.4845 31.3783 27.7409 31.8164 28.0557C32.5125 28.5557 32.4663 28.1711 32.4907 33.6664C32.5117 38.4037 32.5086 38.5227 32.3559 38.8335C32.2546 39.0396 32.0704 39.2331 31.8331 39.383C31.4093 39.6506 31.3287 39.8831 31.5951 40.0696C31.7432 40.1734 32.0397 40.1928 33.4804 40.1928C35.0225 40.1928 35.2069 40.179 35.3643 40.0516C35.6155 39.8482 35.521 39.586 35.1014 39.323C34.5132 38.9542 34.478 38.8118 34.4498 36.6903C34.4364 35.6759 34.4461 34.7634 34.4714 34.6625C34.4967 34.5617 34.5944 34.4508 34.6883 34.416C35.1801 34.2341 35.7948 34.8706 36.1254 35.9039C36.3408 36.5777 36.839 38.6964 36.9523 39.4211C36.9875 39.6464 37.0808 39.8421 37.219 39.9803C37.4316 40.1928 37.4316 40.1928 38.5858 40.1928C39.5896 40.1928 39.7627 40.1744 39.9144 40.0516C40.1686 39.8457 40.069 39.5872 39.627 39.3059C39.1738 39.0174 39.0035 38.6845 38.6803 37.455C38.1272 35.3505 37.7679 34.5811 36.9646 33.7811C36.6766 33.4941 36.4409 33.2039 36.4409 33.1362C36.4409 33.0684 36.4976 32.9032 36.567 32.7692C36.7638 32.3884 37.1027 31.3361 37.2541 30.6356C37.3298 30.2852 37.4535 29.9237 37.5291 29.8322C37.6659 29.6667 37.6679 29.6666 37.9214 29.8124C38.4971 30.1437 38.6107 30.1823 38.8686 30.1339C39.1983 30.0721 39.5669 29.6611 39.6853 29.2234C39.8755 28.5204 39.615 27.5744 39.1334 27.2184C38.874 27.0267 38.3913 26.9754 38.0975 27.1086ZM49.937 30.9075C48.5395 31.281 47.7189 32.7089 48.2792 33.7924C48.5561 34.3278 49.2338 34.4535 49.6421 34.0452C49.9288 33.7585 50.0245 33.3459 49.9423 32.7506C49.8593 32.1479 49.9713 31.7802 50.27 31.6753C50.5518 31.5762 50.836 31.7293 51.0514 32.0959C51.1874 32.3274 51.2095 32.4963 51.2095 33.3032C51.2095 34.1973 51.2004 34.2512 51.0167 34.4488C50.9107 34.5628 50.4584 34.8398 50.0116 35.0645C48.8845 35.6313 48.4667 35.9786 48.1578 36.6059C47.9414 37.0455 47.9033 37.2144 47.8716 37.8727C47.8283 38.7719 47.9299 39.2757 48.2527 39.7631C48.8367 40.6447 49.7935 40.7197 50.6792 39.9533C50.8699 39.7881 51.0993 39.653 51.1888 39.653C51.2808 39.653 51.4945 39.802 51.6799 39.9955C52.0996 40.4335 52.4991 40.5565 53.0802 40.4265C53.9328 40.2357 54.2363 39.6149 53.6302 39.3014C53.1368 39.0463 53.1416 39.0784 53.0969 35.7234C53.0573 32.7604 53.0511 32.6607 52.8769 32.2238C52.5536 31.4128 52.0823 31.0291 51.2122 30.8682C50.6373 30.7619 50.4617 30.7673 49.937 30.9075ZM71.0977 30.893C69.9824 31.1636 69.1851 32.0718 68.7498 33.5672C68.5373 34.2973 68.4571 36.1356 68.5993 37.017C68.8653 38.6676 69.6512 39.8667 70.7658 40.3231C71.3065 40.5446 72.2262 40.5097 72.771 40.2472C73.6003 39.8475 74.3163 38.8942 74.6129 37.7951C75.1865 35.6692 74.8607 33.1468 73.8471 31.8671C73.5174 31.4508 72.876 31.0392 72.3437 30.9023C71.8077 30.7644 71.6326 30.7631 71.0977 30.893ZM78.2517 30.867C77.4752 31.0196 76.7684 31.6497 76.3116 32.5964C75.808 33.6405 75.7374 34.0184 75.7358 35.6812C75.7345 36.9801 75.7543 37.2156 75.9102 37.7544C76.2791 39.0293 76.8619 39.8462 77.6859 40.2432C78.297 40.5375 79.1783 40.5509 79.7442 40.2742C80.7934 39.7614 81.8873 37.8792 81.1362 37.8792C81.0129 37.8792 80.8922 37.9638 80.7783 38.1298C80.3153 38.8056 79.8959 39.1131 79.4371 39.1131C78.617 39.1131 78.0607 38.4372 77.8124 37.1394C77.6384 36.2298 77.6613 35.752 77.8898 35.5235C78.0776 35.3357 78.0911 35.3342 79.5514 35.3342C81.0237 35.3342 81.0237 35.3342 81.2231 35.1348C81.4166 34.9413 81.4209 34.9158 81.3696 34.2672C81.2684 32.9869 80.9852 32.1708 80.4287 31.5548C79.9258 30.9981 79.0279 30.7144 78.2517 30.867ZM44.1266 30.9402C44.006 30.9763 43.7487 31.1295 43.5547 31.2806C43.3608 31.4316 43.1687 31.5553 43.1278 31.5553C43.0869 31.5553 42.9189 31.4338 42.7546 31.2853C42.5514 31.1017 42.381 31.0154 42.2217 31.0154C41.6712 31.0154 40.4759 31.1892 40.3162 31.2924C40.0625 31.4564 40.1002 31.7159 40.422 32.0222C41.014 32.5854 40.9874 32.314 40.9893 37.8098C40.9905 41.1222 40.964 42.7922 40.9079 42.9533C40.8621 43.0844 40.6713 43.3176 40.4837 43.4713C40.1054 43.7812 40.0565 43.9797 40.3141 44.1601C40.4554 44.2592 40.7571 44.2802 42.0321 44.2802C43.3072 44.2802 43.6089 44.2592 43.7502 44.1601C44.0281 43.9655 43.9602 43.7738 43.4903 43.4266C42.9021 42.9921 42.8419 42.8172 42.8419 41.5449C42.8419 40.6177 42.8585 40.4847 42.9904 40.3528C43.1313 40.2119 43.1616 40.2104 43.588 40.322C45.0915 40.7155 46.1731 39.8385 46.7546 37.7543C46.9526 37.0448 46.9669 36.894 46.9632 35.5656C46.9576 33.5855 46.7144 32.5479 46.041 31.6305C45.5828 31.0062 44.8215 30.7318 44.1266 30.9402ZM56.6424 31.0691C55.1233 31.8212 54.2623 34.1578 54.5603 36.72C54.7748 38.5654 55.4345 39.7367 56.567 40.2832C57.0728 40.5272 57.9478 40.5266 58.4097 40.2819C58.9023 40.021 59.3821 39.4871 59.6976 38.8488C60.016 38.2045 60.0338 37.8562 59.7502 37.8159C59.6201 37.7974 59.5423 37.8544 59.4417 38.0418C59.2195 38.4558 58.7334 38.9454 58.4524 39.0381C57.6679 39.297 57.0021 38.5708 56.6657 37.0894C56.4988 36.3548 56.5033 34.3379 56.6739 33.3806C56.8306 32.5011 57.0963 31.9143 57.4116 31.7512C57.5948 31.6565 57.6871 31.6474 57.8077 31.7118C58.0517 31.8425 58.1138 32.1068 58.027 32.646C57.9292 33.253 57.9955 33.6563 58.2412 33.9482C58.5644 34.3323 59.1489 34.3794 59.5124 34.0504C59.7339 33.8501 59.9108 33.1494 59.8474 32.7239C59.6697 31.5312 58.8965 30.8662 57.6835 30.8629C57.1621 30.8615 56.995 30.8946 56.6424 31.0691ZM60.6568 31.2468C60.442 31.4616 60.4598 31.5338 60.8069 31.8534C60.9742 32.0075 61.1478 32.2314 61.1925 32.3508C61.2445 32.4897 61.2738 33.6757 61.2738 35.6427C61.2738 37.6096 61.2445 38.7957 61.1925 38.9346C61.1478 39.054 60.9742 39.2778 60.8069 39.4319C60.4598 39.7516 60.442 39.8238 60.6568 40.0386C60.7988 40.1805 60.9139 40.1928 62.1049 40.1928C63.1512 40.1928 63.4316 40.1698 63.5702 40.0727C63.8027 39.9099 63.7857 39.7085 63.513 39.3979C63.3873 39.2547 63.2485 39.043 63.2045 38.9275C63.1606 38.812 63.1247 38.1456 63.1247 37.4465C63.1247 36.1999 63.1283 36.1719 63.314 35.9862C63.4838 35.8164 63.5676 35.7969 64.1273 35.7969C64.6869 35.7969 64.7707 35.8164 64.9405 35.9862C65.1262 36.1719 65.1298 36.1999 65.1298 37.4465C65.1298 38.1456 65.0939 38.812 65.05 38.9275C65.006 39.043 64.8672 39.2547 64.7415 39.3979C64.4688 39.7085 64.4518 39.9099 64.6843 40.0727C64.8223 40.1694 65.0997 40.1928 66.111 40.1928C67.2635 40.1928 67.379 40.1802 67.5206 40.0386C67.7271 39.832 67.7178 39.7786 67.416 39.4411C67.2737 39.2819 67.1175 39.0759 67.0689 38.9832C67.0069 38.8647 66.9807 37.8746 66.9807 35.6427C66.9807 33.4108 67.0069 32.4206 67.0689 32.3021C67.1175 32.2095 67.2737 32.0034 67.416 31.8442C67.7178 31.5068 67.7271 31.4533 67.5206 31.2468C67.379 31.1052 67.2635 31.0925 66.111 31.0925C64.4148 31.0925 64.2164 31.2267 64.8021 31.9781C65.0913 32.3492 65.0913 32.3492 65.1177 33.4524C65.1439 34.5478 65.1427 34.5571 64.9477 34.7522C64.7695 34.9303 64.6931 34.9486 64.1273 34.9486C63.5676 34.9486 63.4838 34.9291 63.314 34.7593C63.1315 34.5769 63.1247 34.532 63.1247 33.5203C63.1247 32.4114 63.1495 32.3087 63.5216 31.8803C63.786 31.5759 63.8007 31.374 63.5702 31.2126C63.4316 31.1155 63.1512 31.0925 62.1049 31.0925C60.9139 31.0925 60.7988 31.1048 60.6568 31.2468ZM72.1334 31.8249C72.6301 32.2428 72.841 33.3809 72.841 35.6427C72.841 37.9045 72.6301 39.0425 72.1334 39.4605C71.4555 40.0308 70.8805 39.3874 70.6344 37.7832C70.4827 36.7941 70.5305 33.8209 70.7112 33.0095C70.9769 31.8162 71.5529 31.3365 72.1334 31.8249ZM78.9664 31.8564C79.1637 32.0744 79.3086 32.6347 79.3667 33.4032C79.4168 34.0672 79.4127 34.0918 79.2184 34.286C79.0413 34.4631 78.957 34.4859 78.477 34.4859C77.9819 34.4859 77.9244 34.469 77.8068 34.2896C77.5651 33.9207 77.7993 32.3825 78.1686 31.913C78.3652 31.663 78.7657 31.6347 78.9664 31.8564ZM44.2515 32.481C44.768 32.8873 45.0015 33.9291 45.0007 35.823C44.9996 38.2865 44.6138 39.4987 43.8308 39.4987C43.4981 39.4987 43.1195 39.0945 42.9651 38.5745C42.7958 38.0043 42.7818 33.3137 42.9483 32.9154C43.1778 32.3658 43.8291 32.1488 44.2515 32.481ZM85.2197 35.4965C86.6716 35.862 87.0222 38.0221 85.8755 39.537C85.3777 40.1948 85.313 40.324 85.3692 40.5479C85.4222 40.7592 86.5217 42.7044 86.7051 42.9113C86.7708 42.9856 86.908 43.0463 87.0098 43.0463C87.2347 43.0463 87.4471 42.6187 87.6106 41.8372C87.754 41.1523 87.6982 40.9356 87.2914 40.5956C86.9239 40.2884 86.8534 40.0213 87.1042 39.887C87.1866 39.8429 87.7352 39.8072 88.3295 39.8072C89.2691 39.8072 89.4286 39.8257 89.5854 39.9526C89.7428 40.0801 89.7516 40.1141 89.6569 40.2281C89.5975 40.2998 89.4198 40.4242 89.262 40.5047C88.8082 40.7362 88.5384 41.1405 88.0069 42.3858C87.3566 43.9096 87.3575 43.9037 87.6595 44.508C87.9601 45.1096 88.8152 46.0107 89.156 46.0851C89.4789 46.1556 89.8856 46.414 89.8856 46.5486C89.8856 46.6099 89.8311 46.7144 89.7645 46.7812C89.6637 46.8818 89.4206 46.9023 88.326 46.9023H87.0088L86.5913 46.4781C86.357 46.2401 86.1051 46.054 86.0171 46.054C85.9309 46.054 85.7018 46.1936 85.508 46.3642C85.076 46.7444 84.813 46.8274 84.6679 46.629C84.5563 46.4764 84.534 46.2224 84.6139 46.0142C84.6413 45.943 84.8235 45.8162 85.0188 45.7325C85.7417 45.4227 85.7994 45.2006 85.3548 44.4412C84.8242 43.5355 84.5643 43.6248 84.5643 44.7128C84.5643 45.0617 84.5432 45.4022 84.5175 45.4693C84.4448 45.6587 84.066 45.6162 83.7952 45.3884C83.1971 44.8851 82.9051 43.6905 83.122 42.6342C83.1903 42.3016 83.2867 41.9805 83.3363 41.9208C83.4956 41.7289 83.762 41.7956 83.9806 42.0823C84.217 42.3921 84.4474 42.4336 84.5157 42.1787C84.5412 42.0832 84.5627 41.5649 84.5632 41.0269C84.5638 40.4888 84.5976 39.961 84.6383 39.8539C84.679 39.7469 84.8478 39.5902 85.0133 39.5057C85.8103 39.0991 86.0524 37.0983 85.3824 36.4551C85.2483 36.3263 85.0267 36.1619 84.89 36.0897C84.6979 35.9882 84.6414 35.9078 84.6414 35.7362C84.6414 35.3834 84.6902 35.3631 85.2197 35.4965ZM51.1683 35.7147C51.2916 35.9452 51.2704 38.0619 51.1417 38.37C50.9404 38.852 50.4584 39.0863 50.1499 38.8521C49.795 38.5826 49.667 37.5257 49.896 36.7547C50.1437 35.9207 50.9331 35.2753 51.1683 35.7147ZM96.8685 39.9965C97.0554 40.1833 97.0578 40.2036 97.0578 41.5627C97.0578 42.6257 97.0331 42.9735 96.9491 43.0884C96.8424 43.2342 96.8374 43.2343 96.6792 43.0912C96.5906 43.0109 96.518 42.9133 96.518 42.8743C96.518 42.8352 96.3793 42.4484 96.2096 42.0146C95.7399 40.8132 95.4101 40.5797 94.1816 40.5789C93.6458 40.5785 93.5598 40.599 93.3911 40.7677C93.2018 40.957 93.2018 40.957 93.2018 42.9099C93.2018 45.3095 93.1622 45.2057 94.0789 45.2057C96.1149 45.2057 97.2647 46.0414 97.6352 47.7905C97.8571 48.8382 97.73 50.1709 97.3269 51.023C97.045 51.6189 96.4474 52.2483 95.9157 52.5095C95.4769 52.7249 95.4769 52.7249 92.9937 52.7481C90.5681 52.7708 90.5067 52.7677 90.3505 52.6114C90.1441 52.405 90.2341 52.2206 90.6576 51.9826C91.2729 51.6368 91.2326 52.0007 91.2567 46.5718C91.2716 43.2129 91.2521 41.6301 91.1929 41.4047C91.1301 41.1659 90.9863 40.9651 90.6508 40.6479C90.3996 40.4104 90.1941 40.1781 90.1941 40.1316C90.1941 40.0853 90.2712 39.9933 90.3655 39.9273C90.5137 39.8235 90.9533 39.8072 93.6081 39.8072C96.6793 39.8072 96.6793 39.8072 96.8685 39.9965ZM102.228 43.5557C103.294 43.8723 103.908 44.7417 104.146 46.2714C104.284 47.1609 104.259 47.4972 104.041 47.7156C103.853 47.9033 103.84 47.9049 102.379 47.9049C100.907 47.9049 100.907 47.9049 100.707 48.105C100.514 48.2981 100.508 48.3276 100.556 48.9506C100.659 50.2814 100.95 51.0783 101.471 51.4561C102.157 51.953 102.721 51.8424 103.459 51.0669C103.807 50.7005 104.047 50.5166 104.245 50.4638C104.401 50.422 104.658 50.2898 104.815 50.1699C105.192 49.8819 105.564 49.8793 105.935 50.1624C106.465 50.5666 106.614 50.4105 106.844 49.2048C107.153 47.5965 107.256 45.5764 107.054 45.1068C106.995 44.9703 106.804 44.7214 106.63 44.5538C106.283 44.2206 106.221 43.9491 106.461 43.8202C106.664 43.7119 111.128 43.7119 111.33 43.8202C111.553 43.9393 111.512 44.1875 111.215 44.516C111.069 44.6772 110.913 44.9417 110.868 45.1038C110.764 45.4798 110.758 50.6238 110.861 51.2546C110.921 51.6187 110.992 51.7693 111.208 51.9905C111.51 52.2998 111.556 52.5627 111.33 52.6837C111.134 52.7888 108.74 52.7888 108.544 52.6837C108.335 52.5717 108.358 52.2846 108.595 52.0635C109.017 51.6695 109.012 51.7151 109.012 48.2137C109.012 44.9673 109.012 44.9673 108.822 44.778C108.577 44.5325 108.217 44.5277 107.978 44.7667C107.818 44.9273 107.795 45.0421 107.746 45.9428C107.587 48.8775 107.108 51.4372 106.555 52.3089C106.28 52.7427 105.75 53.036 105.386 52.9561C105.051 52.8826 104.742 52.5942 104.585 52.2092C104.25 51.3904 104.189 51.3415 103.902 51.6613C103.796 51.7797 103.567 52.0352 103.394 52.2291C103.221 52.4229 102.896 52.6831 102.671 52.8071C102.316 53.0037 102.184 53.0328 101.647 53.0331C101.138 53.0333 100.952 52.9971 100.588 52.8267C99.4484 52.2923 98.8007 51.0492 98.5958 49.0023C98.3758 46.805 99.1392 44.5531 100.343 43.8475C101.047 43.4349 101.556 43.3561 102.228 43.5557ZM116.32 43.5744C117.218 43.854 117.835 44.4631 118.269 45.4978C118.626 46.3503 118.752 47.2258 118.708 48.5604C118.664 49.8795 118.56 50.3541 118.116 51.261C117.755 51.9989 117.269 52.5196 116.662 52.8176C116.285 53.0029 116.13 53.0333 115.567 53.0326C115.062 53.0321 114.829 52.9941 114.555 52.8678C113.14 52.2165 112.304 50.2389 112.429 47.8356C112.55 45.5041 113.468 43.9354 114.944 43.5373C115.446 43.402 115.796 43.4114 116.32 43.5744ZM123.593 43.6731C124.552 44.0855 125.176 45.3697 125.219 47.0158C125.242 47.9134 125.26 47.9049 123.383 47.9049C121.889 47.9049 121.883 47.9056 121.692 48.0965C121.515 48.274 121.504 48.3262 121.546 48.8098C121.61 49.541 121.804 50.4297 121.984 50.814C122.459 51.8273 123.571 52.0538 124.272 51.2799C124.926 50.5587 124.963 50.5269 125.094 50.5772C125.462 50.7186 124.77 52.042 124.052 52.5694C123.516 52.9627 123.062 53.1004 122.461 53.0522C121.264 52.9561 120.358 52.0888 119.904 50.6041C119.656 49.7929 119.551 48.859 119.598 47.8942C119.756 44.6905 121.55 42.7943 123.593 43.6731ZM115.214 44.3485C115.083 44.4282 114.912 44.6276 114.834 44.7917C114.547 45.3906 114.477 45.9068 114.433 47.7183C114.37 50.3215 114.546 51.5268 115.065 52.046C115.628 52.6086 116.242 52.2181 116.544 51.1054C116.736 50.3967 116.836 48.2257 116.735 46.9409C116.609 45.3415 116.426 44.713 115.982 44.3641C115.729 44.1651 115.521 44.1609 115.214 44.3485ZM101.038 44.5152C100.787 44.814 100.621 45.3734 100.557 46.1351C100.509 46.7084 100.516 46.7426 100.707 46.9339C100.882 47.1085 100.971 47.1337 101.415 47.1337C101.859 47.1337 101.949 47.1083 102.122 46.9349C102.316 46.7411 102.32 46.7188 102.267 46.0406C102.203 45.2274 102.046 44.641 101.835 44.4302C101.607 44.2016 101.272 44.2372 101.038 44.5152ZM122.105 44.4152C121.778 44.788 121.582 45.5168 121.582 46.3619C121.582 47.0297 121.694 47.1337 122.413 47.1337C122.835 47.1337 122.927 47.1068 123.1 46.9337C123.296 46.7384 123.299 46.7152 123.26 45.9504C123.22 45.1673 123.091 44.6952 122.84 44.418C122.68 44.2408 122.259 44.2392 122.105 44.4152ZM93.388 46.3235C93.1956 46.5159 93.1956 46.5159 93.218 48.9516C93.2404 51.3874 93.2404 51.3874 93.5284 51.6513C93.992 52.076 94.5841 51.9846 95.0131 51.4221C95.6621 50.5712 95.7961 48.4041 95.2735 47.2108C94.8838 46.321 93.8684 45.8431 93.388 46.3235Z" fill="#DD0506"/>
</svg>
