<svg width="206" height="128" viewBox="0 0 206 128" fill="none" xmlns="http://www.w3.org/2000/svg">
<g filter="url(#filter0_d_3687_2335)">
<rect x="24" y="16" width="157.714" height="80" rx="8" fill="white" shape-rendering="crispEdges"/>
<rect x="24.5" y="16.5" width="156.714" height="79" rx="7.5" stroke="#132239" stroke-opacity="0.04" shape-rendering="crispEdges"/>
<path fill-rule="evenodd" clip-rule="evenodd" d="M53.5 56V71H102.857H152.215V56V41H102.857H53.5V56ZM108.375 41.6521C108.564 41.8413 108.564 41.8413 108.563 46.5299C108.562 49.1086 108.536 51.2587 108.505 51.3078C108.474 51.3569 108.318 51.4215 108.16 51.4513C107.222 51.6272 106.402 52.8343 106.406 54.0303C106.408 54.5524 106.596 55.3429 106.862 55.9497C106.993 56.2461 107.099 56.5752 107.099 56.6811C107.099 56.8173 106.932 57.0426 106.529 57.4493C105.473 58.5157 105.109 59.7771 105.445 61.2046C105.59 61.8186 105.833 62.2464 106.255 62.6271C106.696 63.0259 107.034 63.151 107.747 63.1789C108.082 63.1921 108.394 63.241 108.441 63.2877C108.499 63.3463 108.532 64.4234 108.547 66.7633C108.569 70.154 108.569 70.154 108.377 70.3456C108.186 70.5373 108.186 70.5373 81.2635 70.5373C54.3413 70.5373 54.3413 70.5373 54.1521 70.3479C53.9627 70.1587 53.9627 70.1587 53.9627 56C53.9627 41.8413 53.9627 41.8413 54.1521 41.6521C54.3413 41.4627 54.3413 41.4627 81.2635 41.4627C108.186 41.4627 108.186 41.4627 108.375 41.6521ZM62.0975 43.1086C61.4656 43.3949 61.0907 44.1483 60.6667 45.9843C60.4916 46.7423 60.2475 47.6255 60.1243 47.9468C59.7703 48.8696 59.2078 49.4083 58.7681 49.2457C58.4461 49.1266 58.4253 48.9664 58.4505 46.7999C58.4776 44.4516 58.4929 44.3862 59.0984 44.0225C59.5221 43.768 59.6184 43.5064 59.3643 43.3006C59.2069 43.1732 59.0225 43.1594 57.4804 43.1594C56.0579 43.1594 55.7421 43.1795 55.5995 43.2795C55.3066 43.4845 55.3783 43.7409 55.8164 44.0557C56.5125 44.5557 56.4663 44.1711 56.4907 49.6664C56.5117 54.4037 56.5086 54.5227 56.3559 54.8335C56.2546 55.0396 56.0704 55.2331 55.8331 55.383C55.4093 55.6506 55.3287 55.8831 55.5951 56.0696C55.7432 56.1734 56.0397 56.1928 57.4804 56.1928C59.0225 56.1928 59.2069 56.179 59.3643 56.0516C59.6155 55.8482 59.521 55.586 59.1014 55.323C58.5132 54.9542 58.478 54.8118 58.4498 52.6903C58.4364 51.6759 58.4461 50.7634 58.4714 50.6625C58.4967 50.5617 58.5944 50.4508 58.6883 50.416C59.1801 50.2341 59.7948 50.8706 60.1254 51.9039C60.3408 52.5777 60.839 54.6964 60.9523 55.4211C60.9875 55.6464 61.0808 55.8421 61.219 55.9803C61.4316 56.1928 61.4316 56.1928 62.5858 56.1928C63.5896 56.1928 63.7627 56.1744 63.9144 56.0516C64.1686 55.8457 64.069 55.5872 63.627 55.3059C63.1738 55.0174 63.0035 54.6845 62.6803 53.455C62.1272 51.3505 61.7679 50.5811 60.9646 49.7811C60.6766 49.4941 60.4409 49.2039 60.4409 49.1362C60.4409 49.0684 60.4976 48.9032 60.567 48.7692C60.7638 48.3884 61.1027 47.3361 61.2541 46.6356C61.3298 46.2852 61.4535 45.9237 61.5291 45.8322C61.6659 45.6667 61.6679 45.6666 61.9214 45.8124C62.4971 46.1437 62.6107 46.1823 62.8686 46.1339C63.1983 46.0721 63.5669 45.6611 63.6853 45.2234C63.8755 44.5204 63.615 43.5744 63.1334 43.2184C62.874 43.0267 62.3913 42.9754 62.0975 43.1086ZM73.937 46.9075C72.5395 47.281 71.7189 48.7089 72.2792 49.7924C72.5561 50.3278 73.2338 50.4535 73.6421 50.0452C73.9288 49.7585 74.0245 49.3459 73.9423 48.7506C73.8593 48.1479 73.9713 47.7802 74.27 47.6753C74.5518 47.5762 74.836 47.7293 75.0514 48.0959C75.1874 48.3274 75.2095 48.4963 75.2095 49.3032C75.2095 50.1973 75.2004 50.2512 75.0167 50.4488C74.9107 50.5628 74.4584 50.8398 74.0116 51.0645C72.8845 51.6313 72.4667 51.9786 72.1578 52.6059C71.9414 53.0455 71.9033 53.2144 71.8716 53.8727C71.8283 54.7719 71.9299 55.2757 72.2527 55.7631C72.8367 56.6447 73.7935 56.7197 74.6792 55.9533C74.8699 55.7881 75.0993 55.653 75.1888 55.653C75.2808 55.653 75.4945 55.802 75.6799 55.9955C76.0996 56.4335 76.4991 56.5565 77.0802 56.4265C77.9328 56.2357 78.2363 55.6149 77.6302 55.3014C77.1368 55.0463 77.1416 55.0784 77.0969 51.7234C77.0573 48.7604 77.0511 48.6607 76.8769 48.2238C76.5536 47.4128 76.0823 47.0291 75.2122 46.8682C74.6373 46.7619 74.4617 46.7673 73.937 46.9075ZM95.0977 46.893C93.9824 47.1636 93.1851 48.0718 92.7498 49.5672C92.5373 50.2973 92.4571 52.1356 92.5993 53.017C92.8653 54.6676 93.6512 55.8667 94.7658 56.3231C95.3065 56.5446 96.2262 56.5097 96.771 56.2472C97.6003 55.8475 98.3163 54.8942 98.6129 53.7951C99.1865 51.6692 98.8607 49.1468 97.8471 47.8671C97.5174 47.4508 96.876 47.0392 96.3437 46.9023C95.8077 46.7644 95.6326 46.7631 95.0977 46.893ZM102.252 46.867C101.475 47.0196 100.768 47.6497 100.312 48.5964C99.808 49.6405 99.7374 50.0184 99.7358 51.6812C99.7345 52.9801 99.7543 53.2156 99.9102 53.7544C100.279 55.0293 100.862 55.8462 101.686 56.2432C102.297 56.5375 103.178 56.5509 103.744 56.2742C104.793 55.7614 105.887 53.8792 105.136 53.8792C105.013 53.8792 104.892 53.9638 104.778 54.1298C104.315 54.8056 103.896 55.1131 103.437 55.1131C102.617 55.1131 102.061 54.4372 101.812 53.1394C101.638 52.2298 101.661 51.752 101.89 51.5235C102.078 51.3357 102.091 51.3342 103.551 51.3342C105.024 51.3342 105.024 51.3342 105.223 51.1348C105.417 50.9413 105.421 50.9158 105.37 50.2672C105.268 48.9869 104.985 48.1708 104.429 47.5548C103.926 46.9981 103.028 46.7144 102.252 46.867ZM68.1266 46.9402C68.006 46.9763 67.7487 47.1295 67.5547 47.2806C67.3608 47.4316 67.1687 47.5553 67.1278 47.5553C67.0869 47.5553 66.9189 47.4338 66.7546 47.2853C66.5514 47.1017 66.381 47.0154 66.2217 47.0154C65.6712 47.0154 64.4759 47.1892 64.3162 47.2924C64.0625 47.4564 64.1002 47.7159 64.422 48.0222C65.014 48.5854 64.9874 48.314 64.9893 53.8098C64.9905 57.1222 64.964 58.7922 64.9079 58.9533C64.8621 59.0844 64.6713 59.3176 64.4837 59.4713C64.1054 59.7812 64.0565 59.9797 64.3141 60.1601C64.4554 60.2592 64.7571 60.2802 66.0321 60.2802C67.3072 60.2802 67.6089 60.2592 67.7502 60.1601C68.0281 59.9655 67.9602 59.7738 67.4903 59.4266C66.9021 58.9921 66.8419 58.8172 66.8419 57.5449C66.8419 56.6177 66.8585 56.4847 66.9904 56.3528C67.1313 56.2119 67.1616 56.2104 67.588 56.322C69.0915 56.7155 70.1731 55.8385 70.7546 53.7543C70.9526 53.0448 70.9669 52.894 70.9632 51.5656C70.9576 49.5855 70.7144 48.5479 70.041 47.6305C69.5828 47.0062 68.8215 46.7318 68.1266 46.9402ZM80.6424 47.0691C79.1233 47.8212 78.2623 50.1578 78.5603 52.72C78.7748 54.5654 79.4345 55.7367 80.567 56.2832C81.0728 56.5272 81.9478 56.5266 82.4097 56.2819C82.9023 56.021 83.3821 55.4871 83.6976 54.8488C84.016 54.2045 84.0338 53.8562 83.7502 53.8159C83.6201 53.7974 83.5423 53.8544 83.4417 54.0418C83.2195 54.4558 82.7334 54.9454 82.4524 55.0381C81.6679 55.297 81.0021 54.5708 80.6657 53.0894C80.4988 52.3548 80.5033 50.3379 80.6739 49.3806C80.8306 48.5011 81.0963 47.9143 81.4116 47.7512C81.5948 47.6565 81.6871 47.6474 81.8077 47.7118C82.0518 47.8425 82.1138 48.1068 82.027 48.646C81.9292 49.253 81.9955 49.6563 82.2412 49.9482C82.5644 50.3323 83.1489 50.3794 83.5124 50.0504C83.7339 49.8501 83.9108 49.1494 83.8474 48.7239C83.6697 47.5312 82.8965 46.8662 81.6835 46.8629C81.1621 46.8615 80.995 46.8946 80.6424 47.0691ZM84.6568 47.2468C84.442 47.4616 84.4598 47.5338 84.8069 47.8534C84.9742 48.0075 85.1478 48.2314 85.1925 48.3508C85.2445 48.4897 85.2738 49.6757 85.2738 51.6427C85.2738 53.6096 85.2445 54.7957 85.1925 54.9346C85.1478 55.054 84.9742 55.2778 84.8069 55.4319C84.4598 55.7516 84.442 55.8238 84.6568 56.0386C84.7988 56.1805 84.9139 56.1928 86.1049 56.1928C87.1512 56.1928 87.4316 56.1698 87.5702 56.0727C87.8027 55.9099 87.7857 55.7085 87.513 55.3979C87.3873 55.2547 87.2485 55.043 87.2045 54.9275C87.1606 54.812 87.1247 54.1456 87.1247 53.4465C87.1247 52.1999 87.1283 52.1719 87.314 51.9862C87.4838 51.8164 87.5676 51.7969 88.1273 51.7969C88.6869 51.7969 88.7707 51.8164 88.9405 51.9862C89.1262 52.1719 89.1298 52.1999 89.1298 53.4465C89.1298 54.1456 89.0939 54.812 89.05 54.9275C89.006 55.043 88.8672 55.2547 88.7415 55.3979C88.4688 55.7085 88.4518 55.9099 88.6843 56.0727C88.8223 56.1694 89.0997 56.1928 90.111 56.1928C91.2635 56.1928 91.379 56.1802 91.5206 56.0386C91.7271 55.832 91.7178 55.7786 91.416 55.4411C91.2737 55.2819 91.1175 55.0759 91.0689 54.9832C91.0069 54.8647 90.9807 53.8746 90.9807 51.6427C90.9807 49.4108 91.0069 48.4206 91.0689 48.3021C91.1175 48.2095 91.2737 48.0034 91.416 47.8442C91.7178 47.5068 91.7271 47.4533 91.5206 47.2468C91.379 47.1052 91.2635 47.0925 90.111 47.0925C88.4148 47.0925 88.2164 47.2267 88.8021 47.9781C89.0913 48.3492 89.0913 48.3492 89.1177 49.4524C89.1439 50.5478 89.1427 50.5571 88.9477 50.7522C88.7695 50.9303 88.6931 50.9486 88.1273 50.9486C87.5676 50.9486 87.4838 50.9291 87.314 50.7593C87.1315 50.5769 87.1247 50.532 87.1247 49.5203C87.1247 48.4114 87.1495 48.3087 87.5216 47.8803C87.786 47.5759 87.8007 47.374 87.5702 47.2126C87.4316 47.1155 87.1512 47.0925 86.1049 47.0925C84.9139 47.0925 84.7988 47.1048 84.6568 47.2468ZM96.1334 47.8249C96.6301 48.2428 96.841 49.3809 96.841 51.6427C96.841 53.9045 96.6301 55.0425 96.1334 55.4605C95.4555 56.0308 94.8805 55.3874 94.6344 53.7832C94.4827 52.7941 94.5305 49.8209 94.7112 49.0095C94.9769 47.8162 95.5529 47.3365 96.1334 47.8249ZM102.966 47.8564C103.164 48.0744 103.309 48.6347 103.367 49.4032C103.417 50.0672 103.413 50.0918 103.218 50.286C103.041 50.4631 102.957 50.4859 102.477 50.4859C101.982 50.4859 101.924 50.469 101.807 50.2896C101.565 49.9207 101.799 48.3825 102.169 47.913C102.365 47.663 102.766 47.6347 102.966 47.8564ZM68.2515 48.481C68.768 48.8873 69.0015 49.9291 69.0007 51.823C68.9996 54.2865 68.6138 55.4987 67.8308 55.4987C67.4981 55.4987 67.1195 55.0945 66.9651 54.5745C66.7958 54.0043 66.7818 49.3137 66.9483 48.9154C67.1778 48.3658 67.8291 48.1488 68.2515 48.481ZM109.22 51.4965C110.672 51.862 111.022 54.0221 109.875 55.537C109.378 56.1948 109.313 56.324 109.369 56.5479C109.422 56.7592 110.522 58.7044 110.705 58.9113C110.771 58.9856 110.908 59.0463 111.01 59.0463C111.235 59.0463 111.447 58.6187 111.611 57.8372C111.754 57.1523 111.698 56.9356 111.291 56.5956C110.924 56.2884 110.853 56.0213 111.104 55.887C111.187 55.8429 111.735 55.8072 112.33 55.8072C113.269 55.8072 113.429 55.8257 113.585 55.9526C113.743 56.0801 113.752 56.1141 113.657 56.2281C113.597 56.2998 113.42 56.4242 113.262 56.5047C112.808 56.7362 112.538 57.1405 112.007 58.3858C111.357 59.9096 111.358 59.9037 111.66 60.508C111.96 61.1096 112.815 62.0107 113.156 62.0851C113.479 62.1556 113.886 62.414 113.886 62.5486C113.886 62.6099 113.831 62.7144 113.764 62.7812C113.664 62.8818 113.421 62.9023 112.326 62.9023H111.009L110.591 62.4781C110.357 62.2401 110.105 62.054 110.017 62.054C109.931 62.054 109.702 62.1936 109.508 62.3642C109.076 62.7444 108.813 62.8274 108.668 62.629C108.556 62.4764 108.534 62.2224 108.614 62.0142C108.641 61.943 108.823 61.8162 109.019 61.7325C109.742 61.4227 109.799 61.2006 109.355 60.4412C108.824 59.5354 108.564 59.6248 108.564 60.7128C108.564 61.0617 108.543 61.4022 108.517 61.4693C108.445 61.6587 108.066 61.6162 107.795 61.3884C107.197 60.8851 106.905 59.6905 107.122 58.6342C107.19 58.3016 107.287 57.9805 107.336 57.9208C107.496 57.7289 107.762 57.7956 107.981 58.0823C108.217 58.3921 108.447 58.4336 108.516 58.1787C108.541 58.0832 108.563 57.5649 108.563 57.0269C108.564 56.4888 108.598 55.961 108.638 55.8539C108.679 55.7469 108.848 55.5902 109.013 55.5057C109.81 55.0991 110.052 53.0983 109.382 52.4551C109.248 52.3264 109.027 52.1619 108.89 52.0897C108.698 51.9882 108.641 51.9078 108.641 51.7362C108.641 51.3834 108.69 51.3631 109.22 51.4965ZM75.1683 51.7147C75.2916 51.9452 75.2704 54.0619 75.1417 54.37C74.9404 54.852 74.4584 55.0863 74.1499 54.8521C73.795 54.5826 73.667 53.5257 73.896 52.7547C74.1437 51.9207 74.9331 51.2753 75.1683 51.7147ZM120.869 55.9965C121.055 56.1833 121.058 56.2036 121.058 57.5627C121.058 58.6257 121.033 58.9735 120.949 59.0884C120.842 59.2342 120.837 59.2343 120.679 59.0912C120.591 59.0109 120.518 58.9133 120.518 58.8743C120.518 58.8352 120.379 58.4484 120.21 58.0146C119.74 56.8132 119.41 56.5797 118.182 56.5789C117.646 56.5785 117.56 56.599 117.391 56.7677C117.202 56.957 117.202 56.957 117.202 58.9099C117.202 61.3095 117.162 61.2057 118.079 61.2057C120.115 61.2057 121.265 62.0414 121.635 63.7905C121.857 64.8382 121.73 66.1709 121.327 67.023C121.045 67.6189 120.447 68.2483 119.916 68.5095C119.477 68.7249 119.477 68.7249 116.994 68.7481C114.568 68.7708 114.507 68.7677 114.35 68.6114C114.144 68.405 114.234 68.2206 114.658 67.9826C115.273 67.6368 115.233 68.0007 115.257 62.5718C115.272 59.2129 115.252 57.6301 115.193 57.4047C115.13 57.1659 114.986 56.9651 114.651 56.6479C114.4 56.4104 114.194 56.1781 114.194 56.1316C114.194 56.0853 114.271 55.9933 114.366 55.9273C114.514 55.8235 114.953 55.8072 117.608 55.8072C120.679 55.8072 120.679 55.8072 120.869 55.9965ZM126.228 59.5557C127.294 59.8723 127.908 60.7417 128.146 62.2714C128.284 63.1609 128.259 63.4972 128.041 63.7156C127.853 63.9033 127.84 63.9049 126.379 63.9049C124.907 63.9049 124.907 63.9049 124.707 64.105C124.514 64.2981 124.508 64.3276 124.556 64.9506C124.659 66.2814 124.95 67.0783 125.471 67.4561C126.157 67.953 126.721 67.8424 127.459 67.0669C127.807 66.7005 128.047 66.5166 128.245 66.4638C128.401 66.422 128.658 66.2898 128.815 66.1699C129.192 65.8819 129.564 65.8793 129.935 66.1624C130.465 66.5666 130.614 66.4105 130.844 65.2048C131.153 63.5965 131.256 61.5764 131.054 61.1068C130.995 60.9703 130.804 60.7214 130.63 60.5538C130.283 60.2206 130.221 59.9491 130.461 59.8202C130.664 59.7119 135.128 59.7119 135.33 59.8202C135.553 59.9393 135.512 60.1875 135.215 60.516C135.069 60.6772 134.913 60.9417 134.868 61.1038C134.764 61.4798 134.758 66.6238 134.861 67.2546C134.921 67.6187 134.992 67.7693 135.208 67.9905C135.51 68.2998 135.556 68.5627 135.33 68.6837C135.134 68.7888 132.74 68.7888 132.544 68.6837C132.335 68.5717 132.358 68.2846 132.595 68.0635C133.017 67.6695 133.012 67.7151 133.012 64.2137C133.012 60.9673 133.012 60.9673 132.822 60.778C132.577 60.5325 132.217 60.5277 131.978 60.7667C131.818 60.9273 131.795 61.0421 131.746 61.9428C131.587 64.8775 131.108 67.4373 130.555 68.3089C130.28 68.7427 129.75 69.036 129.386 68.9561C129.051 68.8826 128.742 68.5942 128.585 68.2092C128.25 67.3904 128.189 67.3415 127.902 67.6613C127.796 67.7797 127.567 68.0352 127.394 68.229C127.221 68.4229 126.896 68.6831 126.671 68.8071C126.316 69.0037 126.184 69.0328 125.647 69.0331C125.138 69.0333 124.952 68.9971 124.588 68.8267C123.448 68.2923 122.801 67.0492 122.596 65.0023C122.376 62.805 123.139 60.5531 124.343 59.8475C125.047 59.4349 125.556 59.3561 126.228 59.5557ZM140.32 59.5744C141.218 59.854 141.835 60.4631 142.269 61.4978C142.626 62.3503 142.752 63.2258 142.708 64.5604C142.664 65.8795 142.56 66.3541 142.116 67.261C141.755 67.9989 141.269 68.5196 140.662 68.8176C140.285 69.0029 140.13 69.0333 139.567 69.0326C139.062 69.0321 138.829 68.9941 138.555 68.8678C137.14 68.2165 136.304 66.2389 136.429 63.8356C136.55 61.5041 137.468 59.9354 138.944 59.5373C139.446 59.402 139.796 59.4114 140.32 59.5744ZM147.593 59.6731C148.552 60.0855 149.176 61.3697 149.219 63.0158C149.242 63.9134 149.26 63.9049 147.383 63.9049C145.889 63.9049 145.883 63.9056 145.692 64.0965C145.515 64.274 145.504 64.3262 145.546 64.8098C145.61 65.541 145.804 66.4297 145.984 66.814C146.459 67.8273 147.571 68.0538 148.272 67.2799C148.926 66.5587 148.963 66.5269 149.094 66.5772C149.462 66.7186 148.77 68.042 148.052 68.5694C147.516 68.9627 147.062 69.1004 146.461 69.0522C145.264 68.9561 144.358 68.0888 143.904 66.6041C143.656 65.7929 143.551 64.859 143.598 63.8942C143.756 60.6905 145.55 58.7943 147.593 59.6731ZM139.214 60.3485C139.083 60.4282 138.912 60.6276 138.834 60.7917C138.547 61.3906 138.477 61.9068 138.433 63.7183C138.37 66.3215 138.546 67.5268 139.065 68.046C139.628 68.6086 140.242 68.2181 140.544 67.1054C140.736 66.3967 140.836 64.2257 140.735 62.9409C140.609 61.3415 140.426 60.713 139.982 60.3641C139.729 60.1651 139.521 60.1609 139.214 60.3485ZM125.038 60.5152C124.787 60.814 124.621 61.3734 124.557 62.1351C124.509 62.7084 124.516 62.7426 124.707 62.9339C124.882 63.1085 124.971 63.1337 125.415 63.1337C125.859 63.1337 125.949 63.1083 126.122 62.9349C126.316 62.7411 126.32 62.7188 126.267 62.0406C126.203 61.2274 126.046 60.641 125.835 60.4302C125.607 60.2016 125.272 60.2372 125.038 60.5152ZM146.105 60.4152C145.778 60.788 145.582 61.5168 145.582 62.3619C145.582 63.0297 145.694 63.1337 146.413 63.1337C146.835 63.1337 146.927 63.1068 147.1 62.9337C147.296 62.7384 147.299 62.7152 147.26 61.9504C147.22 61.1673 147.091 60.6952 146.84 60.418C146.68 60.2408 146.259 60.2392 146.105 60.4152ZM117.388 62.3235C117.196 62.5159 117.196 62.5159 117.218 64.9516C117.24 67.3874 117.24 67.3874 117.528 67.6513C117.992 68.076 118.584 67.9846 119.013 67.4221C119.662 66.5712 119.796 64.4041 119.273 63.2108C118.884 62.321 117.868 61.8431 117.388 62.3235Z" fill="#DD0506"/>
</g>
<defs>
<filter id="filter0_d_3687_2335" x="0" y="0" width="205.715" height="128" filterUnits="userSpaceOnUse" color-interpolation-filters="sRGB">
<feFlood flood-opacity="0" result="BackgroundImageFix"/>
<feColorMatrix in="SourceAlpha" type="matrix" values="0 0 0 0 0 0 0 0 0 0 0 0 0 0 0 0 0 0 127 0" result="hardAlpha"/>
<feOffset dy="8"/>
<feGaussianBlur stdDeviation="12"/>
<feComposite in2="hardAlpha" operator="out"/>
<feColorMatrix type="matrix" values="0 0 0 0 0.0745098 0 0 0 0 0.133333 0 0 0 0 0.223529 0 0 0 0.04 0"/>
<feBlend mode="normal" in2="BackgroundImageFix" result="effect1_dropShadow_3687_2335"/>
<feBlend mode="normal" in="SourceGraphic" in2="effect1_dropShadow_3687_2335" result="shape"/>
</filter>
</defs>
</svg>
