<svg width="136" height="36" viewBox="0 0 136 36" fill="none" xmlns="http://www.w3.org/2000/svg">
<g clip-path="url(#clip0_3601_7652)">
<mask id="mask0_3601_7652" style="mask-type:luminance" maskUnits="userSpaceOnUse" x="0" y="0" width="136" height="36">
<path d="M136 0H0V36H136V0Z" fill="white"/>
</mask>
<g mask="url(#mask0_3601_7652)">
<path fill-rule="evenodd" clip-rule="evenodd" d="M2.47826 5.37313L19 10.7463L35.5217 5.37313L19 0L2.47826 5.37313ZM0 9.13433L16.5217 14.5075V36L0 30.6269V9.13433ZM21.4783 14.5075L38 9.13433V30.6269L21.4783 36V14.5075Z" fill="#459BFF"/>
<path fill-rule="evenodd" clip-rule="evenodd" d="M68.4187 10L68.4407 25.585H71.3547L71.3465 19.8013H71.3547C71.3547 18.8742 71.5533 18.1751 71.9507 17.7042C72.3627 17.2333 72.9441 17.0052 73.6946 17.0199C74.1067 17.0199 74.4672 17.1155 74.7763 17.3068C75.0853 17.4834 75.3282 17.7778 75.5048 18.1898C75.6814 18.6019 75.7697 19.1832 75.7697 19.9338V25.585H78.6836V19.2715C78.6836 17.5791 78.3304 16.3282 77.624 15.5188C76.9176 14.6946 75.8874 14.2826 74.5335 14.2826C73.7093 14.2826 72.9808 14.5033 72.348 14.9448C71.9602 15.2126 71.6246 15.5585 71.3411 15.9827L71.3326 10H68.4187ZM52.4967 25.8499C51.2752 25.8499 50.3481 25.5482 49.7152 24.9448C49.0971 24.3414 48.7881 23.4805 48.7881 22.362V17.0199H47V14.5475H48.7881V11.1038H51.702V14.5475H54.4614V17.0199H51.702V21.7219C51.702 22.1928 51.805 22.5533 52.011 22.8035C52.2171 23.039 52.5188 23.1567 52.9161 23.1567C53.0633 23.1567 53.2252 23.1273 53.4018 23.0684C53.5784 22.9949 53.7623 22.8918 53.9536 22.7594L54.9691 24.9448C54.6159 25.2097 54.2185 25.4231 53.777 25.585C53.3503 25.7616 52.9235 25.8499 52.4967 25.8499ZM61.4052 25.8499C60.3161 25.8499 59.3522 25.6071 58.5133 25.1214C57.6745 24.621 57.0122 23.9367 56.5266 23.0684C56.0557 22.2001 55.8202 21.1994 55.8202 20.0662C55.8202 18.933 56.063 17.9323 56.5487 17.064C57.049 16.1957 57.726 15.5188 58.5796 15.0331C59.4479 14.5327 60.4412 14.2826 61.5597 14.2826C62.5163 14.2826 63.3993 14.5401 64.2087 15.0552C65.0328 15.5556 65.6951 16.2987 66.1955 17.2848C66.6958 18.2561 66.946 19.4408 66.946 20.8389H65.5111H63.988H58.8538C58.9153 21.2069 59.03 21.5306 59.1977 21.8102C59.4626 22.2517 59.8158 22.5901 60.2573 22.8256C60.6988 23.0464 61.1844 23.1567 61.7142 23.1567C62.2882 23.1567 62.7518 23.0316 63.105 22.7815C63.4729 22.5313 63.7525 22.2075 63.9438 21.8102L66.6811 22.8698C66.3721 23.4879 65.9674 24.025 65.467 24.4812C64.9813 24.9227 64.4 25.2612 63.7231 25.4967C63.0461 25.7322 62.2735 25.8499 61.4052 25.8499ZM63.6789 18.521C63.6845 18.5356 63.6901 18.5503 63.6955 18.5651H58.9944C59.0223 18.4722 59.0533 18.3839 59.0873 18.3002C59.2933 17.8146 59.595 17.454 59.9924 17.2185C60.3897 16.9831 60.8754 16.8653 61.4493 16.8653C61.9644 16.8653 62.4133 16.9978 62.7959 17.2627C63.1785 17.5129 63.4729 17.9323 63.6789 18.521ZM86.1077 25.8499C84.9598 25.8499 83.937 25.6071 83.0393 25.1214C82.1415 24.621 81.4425 23.9367 80.9421 23.0684C80.4418 22.1854 80.1916 21.1847 80.1916 20.0662C80.1916 18.933 80.4418 17.9323 80.9421 17.064C81.4425 16.1957 82.1342 15.5188 83.0172 15.0331C83.9002 14.5327 84.9156 14.2826 86.0635 14.2826C87.1673 14.2826 88.1754 14.5548 89.0878 15.0993C90.0003 15.6439 90.6625 16.4312 91.0746 17.4614L88.3373 18.4327C88.1312 18.0059 87.8075 17.6674 87.366 17.4172C86.9392 17.1523 86.4609 17.0199 85.9311 17.0199C85.3866 17.0199 84.9083 17.1523 84.4962 17.4172C84.0841 17.6674 83.7604 18.0206 83.5249 18.4768C83.2894 18.933 83.1717 19.4628 83.1717 20.0662C83.1717 20.6696 83.2894 21.1994 83.5249 21.6556C83.7604 22.0971 84.0915 22.4503 84.5183 22.7152C84.9451 22.9801 85.4307 23.1126 85.9752 23.1126C86.505 23.1126 86.9833 22.9728 87.4101 22.6932C87.8516 22.4135 88.1754 22.0456 88.3814 21.5894L91.1408 22.5607C90.714 23.6056 90.0444 24.415 89.132 24.989C88.2342 25.5629 87.2262 25.8499 86.1077 25.8499ZM99.1787 24.3444L99.2401 25.585H101.999L102.066 19.4702C102.08 18.3517 101.904 17.4099 101.536 16.6446C101.168 15.8646 100.609 15.2759 99.8582 14.8786C99.1224 14.4812 98.2026 14.2826 97.0988 14.2826C96.1717 14.2826 95.3843 14.4297 94.7368 14.7241C94.104 15.0037 93.5889 15.3716 93.1915 15.8278C92.7942 16.2693 92.4925 16.7255 92.2865 17.1965L94.9355 18.1015C95.1856 17.6748 95.4873 17.3657 95.8405 17.1744C96.1937 16.9831 96.5911 16.8874 97.0326 16.8874C97.533 16.8874 97.9303 17.0125 98.2247 17.2627C98.5337 17.4982 98.7618 17.8514 98.909 18.3223C98.9678 18.5045 99.0148 18.7032 99.0501 18.9183H96.5249C95.0973 18.9183 93.9862 19.22 93.1915 19.8234C92.4116 20.4121 92.0216 21.2951 92.0216 22.4724C92.0216 23.5467 92.3821 24.3782 93.1032 24.9669C93.8391 25.5556 94.8692 25.8499 96.1937 25.8499C97.5035 25.8499 98.4454 25.4305 99.0194 24.5916C99.0751 24.5122 99.1282 24.4298 99.1787 24.3444ZM98.7986 22.2075C99.0194 21.8396 99.1297 21.4643 99.1297 21.0817H97.5403C96.5837 21.0817 95.9215 21.1994 95.5536 21.4349C95.1857 21.6556 95.0017 21.972 95.0017 22.3841C95.0017 22.7079 95.1489 22.9654 95.4432 23.1567C95.7375 23.3333 96.1496 23.4216 96.6794 23.4216C97.1503 23.4216 97.5698 23.3113 97.9377 23.0905C98.3056 22.855 98.5926 22.5607 98.7986 22.2075ZM107.677 17.7042C107.28 18.1751 107.081 18.8742 107.081 19.8013V25.585H104.167V14.5475H106.905L107.034 16.0339C107.324 15.5863 107.671 15.2233 108.075 14.9448C108.693 14.5033 109.421 14.2826 110.26 14.2826C111.599 14.2826 112.622 14.6946 113.328 15.5188C113.607 15.8313 113.831 16.2097 113.999 16.6539C114.345 15.9119 114.806 15.3422 115.381 14.9448C116.014 14.5033 116.75 14.2826 117.589 14.2826C118.928 14.2826 119.951 14.6946 120.657 15.5188C121.364 16.3282 121.717 17.5791 121.717 19.2715V25.585H118.803V19.9338C118.803 19.1832 118.715 18.6019 118.538 18.1898C118.362 17.7778 118.119 17.4834 117.81 17.3068C117.515 17.1155 117.155 17.0199 116.728 17.0199C115.977 17.0052 115.396 17.2333 114.984 17.7042C114.587 18.1751 114.388 18.8742 114.388 19.8013V25.585H111.474V19.9338C111.474 19.1832 111.386 18.6019 111.209 18.1898C111.047 17.7778 110.812 17.4834 110.503 17.3068C110.194 17.1155 109.833 17.0199 109.421 17.0199C108.671 17.0052 108.089 17.2333 107.677 17.7042ZM126.806 16.1026L126.67 14.5475H123.933V30H126.847V24.0949C127.119 24.5144 127.443 24.864 127.818 25.1435C128.466 25.6144 129.253 25.8499 130.18 25.8499C131.196 25.8499 132.071 25.6144 132.807 25.1435C133.558 24.6726 134.139 24.0029 134.551 23.1347C134.963 22.2664 135.169 21.2436 135.169 20.0662C135.169 18.8742 134.963 17.8514 134.551 16.9978C134.139 16.1295 133.558 15.4599 132.807 14.989C132.071 14.518 131.196 14.2826 130.18 14.2826C129.253 14.2826 128.466 14.518 127.818 14.989C127.423 15.2828 127.086 15.654 126.806 16.1026ZM126.847 20.0662C126.847 20.6696 126.957 21.2068 127.178 21.6777C127.399 22.1486 127.701 22.5166 128.083 22.7815C128.481 23.0464 128.929 23.1788 129.43 23.1788C129.96 23.1788 130.423 23.0464 130.821 22.7815C131.233 22.5166 131.556 22.1486 131.792 21.6777C132.027 21.2068 132.145 20.6696 132.145 20.0662C132.145 19.4628 132.027 18.9257 131.792 18.4547C131.571 17.9838 131.255 17.6233 130.843 17.3731C130.445 17.1082 129.982 16.9757 129.452 16.9757C128.952 16.9757 128.503 17.1082 128.105 17.3731C127.708 17.638 127.399 18.0059 127.178 18.4768C126.957 18.933 126.847 19.4628 126.847 20.0662Z" fill="#459BFF"/>
</g>
</g>
<defs>
<clipPath id="clip0_3601_7652">
<rect width="136" height="36" fill="white"/>
</clipPath>
</defs>
</svg>
