<svg width="588" height="141" viewBox="0 0 588 141" fill="none" xmlns="http://www.w3.org/2000/svg">
<rect width="115.5" height="140" transform="translate(0 0.262939)" fill="#ECF3EE"/>
<path d="M57.3631 23.3837C54.6811 23.3962 52.1199 23.6249 49.8664 24.0237C43.2276 25.1965 42.0222 27.6514 42.0222 32.1787V38.1578H57.7105V40.1508H42.0222H36.1345C31.5751 40.1508 27.5827 42.8913 26.3339 48.1047C24.8935 54.0804 24.8296 57.8093 26.3339 64.0489C27.4491 68.6935 30.1123 72.0028 34.6717 72.0028H40.0657V64.8352C40.0657 59.657 44.546 55.0894 49.8664 55.0894H65.5364C69.8983 55.0894 73.3805 51.4979 73.3805 47.1173V32.1787C73.3805 27.9271 69.7938 24.7333 65.5364 24.0237C62.8414 23.5751 60.045 23.3713 57.3631 23.3837ZM48.879 28.1926C50.4995 28.1926 51.8228 29.5376 51.8228 31.1913C51.8228 32.8392 50.4995 34.1717 48.879 34.1717C47.2527 34.1717 45.9351 32.8392 45.9351 31.1913C45.9351 29.5376 47.2527 28.1926 48.879 28.1926Z" fill="url(#paint0_linear_1745_8992)"/>
<path d="M75.3363 40.1501V47.1166C75.3363 52.5176 70.7572 57.0635 65.5356 57.0635H49.8656C45.5734 57.0635 42.0215 60.7371 42.0215 65.0357V79.9743C42.0215 84.2259 45.7186 86.7267 49.8656 87.9464C54.8317 89.4066 59.5938 89.6705 65.5356 87.9464C69.4852 86.8029 73.3798 84.5015 73.3798 79.9743V73.9952H57.7098V72.0021H73.3798H81.2239C85.7834 72.0021 87.4824 68.8218 89.0681 64.0483C90.706 59.134 90.6363 54.4081 89.0681 48.104C87.9413 43.565 85.7892 40.1501 81.2239 40.1501H75.3363ZM66.523 77.9813C68.1493 77.9813 69.4669 79.3138 69.4669 80.9617C69.4669 82.6154 68.1493 83.9604 66.523 83.9604C64.9025 83.9604 63.5792 82.6154 63.5792 80.9617C63.5792 79.3138 64.9025 77.9813 66.523 77.9813Z" fill="url(#paint1_linear_1745_8992)"/>
<path d="M30.6045 119.263V109.077H34.2412C35.0296 109.077 35.6836 109.223 36.2031 109.515C36.7227 109.802 37.1123 110.196 37.3721 110.698C37.6318 111.194 37.7617 111.755 37.7617 112.379C37.7617 113.003 37.6318 113.566 37.3721 114.068C37.1123 114.564 36.7204 114.959 36.1963 115.25C35.6768 115.537 35.0205 115.681 34.2275 115.681H31.7393V114.382H34.084C34.5898 114.382 34.9977 114.295 35.3076 114.122C35.6221 113.949 35.8499 113.712 35.9912 113.411C36.137 113.106 36.21 112.762 36.21 112.379C36.21 111.992 36.137 111.65 35.9912 111.354C35.8499 111.053 35.6221 110.818 35.3076 110.65C34.9932 110.481 34.583 110.397 34.0771 110.397H32.1426V119.263H30.6045ZM38.1719 109.077H39.915L42.5811 113.712H42.6904L45.3428 109.077H47.0996L43.4014 115.264V119.263H41.8633V115.264L38.1719 109.077ZM47.667 110.397V109.077H55.5557V110.397H52.3838V119.263H50.8525V110.397H47.667ZM56.6904 119.263V109.077H58.2285V113.507H63.3008V109.077H64.8389V119.263H63.3008V114.826H58.2285V119.263H56.6904ZM70.7451 119.4C69.8701 119.4 69.0863 119.19 68.3936 118.771C67.7008 118.351 67.154 117.752 66.7529 116.973C66.3519 116.189 66.1514 115.257 66.1514 114.177C66.1514 113.088 66.3519 112.154 66.7529 111.374C67.154 110.59 67.7008 109.989 68.3936 109.57C69.0863 109.15 69.8701 108.941 70.7451 108.941C71.6292 108.941 72.4154 109.15 73.1035 109.57C73.7917 109.989 74.334 110.59 74.7305 111.374C75.1315 112.154 75.332 113.088 75.332 114.177C75.332 115.262 75.1315 116.194 74.7305 116.973C74.334 117.752 73.7917 118.351 73.1035 118.771C72.4154 119.19 71.6292 119.4 70.7451 119.4ZM70.7451 117.998C71.333 117.998 71.8571 117.852 72.3174 117.561C72.7777 117.269 73.14 116.838 73.4043 116.269C73.6732 115.699 73.8076 115.002 73.8076 114.177C73.8076 113.348 73.6732 112.648 73.4043 112.078C73.14 111.504 72.7777 111.071 72.3174 110.78C71.8571 110.488 71.333 110.342 70.7451 110.342C70.1618 110.342 69.6377 110.488 69.1729 110.78C68.7126 111.071 68.348 111.504 68.0791 112.078C67.8102 112.648 67.6758 113.348 67.6758 114.177C67.6758 115.002 67.8102 115.699 68.0791 116.269C68.348 116.838 68.7126 117.269 69.1729 117.561C69.6377 117.852 70.1618 117.998 70.7451 117.998ZM84.8887 109.077V119.263H83.4531L78.292 111.798H78.1895V119.263H76.6514V109.077H78.0732L83.2549 116.556H83.3506V109.077H84.8887Z" fill="#7D90A1"/>
<path d="M134.726 79.2629V61.2629H138.293V79.2629H134.726ZM127.5 72.0666V68.4593H145.5V72.0666H127.5Z" fill="#062037"/>
<rect width="115.5" height="140" transform="translate(157.5 0.262939)" fill="#ECF3EE"/>
<path d="M245.202 50.0801C246.789 45.4516 246.244 40.3856 243.71 36.1716C239.896 29.724 232.223 26.408 224.738 27.9509C221.399 24.3126 216.614 22.2401 211.593 22.2631C203.943 22.2631 197.145 27.0528 194.777 34.1222C189.85 35.1124 185.611 38.1059 183.124 42.3429C179.287 48.7906 180.163 56.8962 185.303 62.4227C183.716 67.0512 184.261 72.1172 186.795 76.3082C190.608 82.7789 198.282 86.0948 205.79 84.552C209.106 88.1903 213.89 90.2858 218.912 90.2627C226.562 90.2627 233.359 85.4731 235.728 78.4037C240.654 77.4135 244.894 74.42 247.357 70.1829C251.218 63.7353 250.341 55.6297 245.202 50.1031V50.0801ZM239.754 38.4053C241.27 40.9843 241.839 44.0009 241.317 46.9254C241.223 46.8563 241.033 46.7642 240.915 46.6951L226.988 38.8658C226.278 38.4743 225.401 38.4743 224.691 38.8658L208.372 48.0307V41.3067L221.849 33.7307C228.125 30.2075 236.131 32.303 239.754 38.4053ZM208.372 52.3828L215.241 48.5142L222.109 52.3828V60.097L215.241 63.9656L208.372 60.097V52.3828ZM211.569 26.7074C214.648 26.7074 217.609 27.7436 219.977 29.6549C219.883 29.7009 219.693 29.8161 219.551 29.8852L205.624 37.6914C204.914 38.0829 204.488 38.8198 204.488 39.6257V57.9554L198.495 54.5935V39.4415C198.495 32.3951 204.346 26.7074 211.593 26.6844L211.569 26.7074ZM187.103 44.5766C188.642 41.9975 191.035 40.0172 193.924 38.9809V55.077C193.924 55.883 194.351 56.5968 195.061 57.0113L211.356 66.1532L205.34 69.5382L191.887 61.9852C185.635 58.462 183.479 50.6788 187.103 44.5766ZM190.774 74.1206C189.235 71.5646 188.69 68.525 189.211 65.6005C189.306 65.6696 189.495 65.7617 189.614 65.8308L203.54 73.6601C204.251 74.0515 205.127 74.0515 205.838 73.6601L222.133 64.4952V71.2192L208.656 78.7721C202.38 82.2723 194.374 80.1998 190.75 74.1206H190.774ZM218.935 85.8185C215.88 85.8185 212.896 84.7822 210.551 82.871C210.646 82.8249 210.859 82.7098 210.977 82.6407L224.904 74.8345C225.614 74.443 226.064 73.7061 226.041 72.9002V54.5935L232.033 57.9554V73.0844C232.033 80.1307 226.159 85.8415 218.935 85.8415V85.8185ZM243.425 67.9493C241.886 70.5284 239.47 72.5087 236.604 73.5219V57.4258C236.604 56.6199 236.178 55.883 235.467 55.4915L219.149 46.3267L225.141 42.9647L238.617 50.5176C244.894 54.0408 247.026 61.824 243.402 67.9263L243.425 67.9493Z" fill="#262626"/>
<path d="M196.014 119.4C195.139 119.4 194.355 119.19 193.662 118.771C192.969 118.351 192.423 117.752 192.021 116.973C191.62 116.189 191.42 115.257 191.42 114.177C191.42 113.088 191.62 112.154 192.021 111.374C192.423 110.59 192.969 109.989 193.662 109.57C194.355 109.15 195.139 108.941 196.014 108.941C196.898 108.941 197.684 109.15 198.372 109.57C199.06 109.989 199.603 110.59 199.999 111.374C200.4 112.154 200.601 113.088 200.601 114.177C200.601 115.262 200.4 116.194 199.999 116.973C199.603 117.752 199.06 118.351 198.372 118.771C197.684 119.19 196.898 119.4 196.014 119.4ZM196.014 117.998C196.602 117.998 197.126 117.852 197.586 117.561C198.046 117.269 198.409 116.838 198.673 116.269C198.942 115.699 199.076 115.002 199.076 114.177C199.076 113.348 198.942 112.648 198.673 112.078C198.409 111.504 198.046 111.071 197.586 110.78C197.126 110.488 196.602 110.342 196.014 110.342C195.43 110.342 194.906 110.488 194.441 110.78C193.981 111.071 193.617 111.504 193.348 112.078C193.079 112.648 192.944 113.348 192.944 114.177C192.944 115.002 193.079 115.699 193.348 116.269C193.617 116.838 193.981 117.269 194.441 117.561C194.906 117.852 195.43 117.998 196.014 117.998ZM201.92 119.263V109.077H205.557C206.345 109.077 206.999 109.223 207.519 109.515C208.038 109.802 208.428 110.196 208.688 110.698C208.947 111.194 209.077 111.755 209.077 112.379C209.077 113.003 208.947 113.566 208.688 114.068C208.428 114.564 208.036 114.959 207.512 115.25C206.992 115.537 206.336 115.681 205.543 115.681H203.055V114.382H205.399C205.905 114.382 206.313 114.295 206.623 114.122C206.938 113.949 207.165 113.712 207.307 113.411C207.452 113.106 207.525 112.762 207.525 112.379C207.525 111.992 207.452 111.65 207.307 111.354C207.165 111.053 206.938 110.818 206.623 110.65C206.309 110.481 205.898 110.397 205.393 110.397H203.458V119.263H201.92ZM210.273 119.263V109.077H216.665V110.397H211.812V113.466H216.323V114.779H211.812V117.944H216.713V119.263H210.273ZM226.358 109.077V119.263H224.923L219.762 111.798H219.659V119.263H218.121V109.077H219.543L224.725 116.556H224.82V109.077H226.358ZM228.874 119.263H227.24L230.904 109.077H232.682L236.339 119.263H234.712L231.827 110.93H231.745L228.874 119.263ZM229.147 115.278H234.432V116.563H229.147V115.278ZM238.745 109.077V119.263H237.207V109.077H238.745Z" fill="#7D90A1"/>
<path d="M292.226 79.2629V61.2629H295.793V79.2629H292.226ZM285 72.0666V68.4593H303V72.0666H285Z" fill="#062037"/>
<rect width="115.5" height="140" transform="translate(315 0.262939)" fill="#ECF3EE"/>
<path fill-rule="evenodd" clip-rule="evenodd" d="M342.75 56.2629V88.2629H372.75H402.75V60.8169C402.75 33.8929 402.746 33.3752 402.531 33.5995C402.41 33.7252 398.172 38.4716 393.114 44.147C381.901 56.7282 382.644 55.9151 382.355 55.9151C382.054 55.9151 382.09 55.9477 379.418 53.1905C378.182 51.9151 376.332 50.0108 375.308 48.9586C372.218 45.7864 371.647 45.1669 371.647 44.9854C371.647 44.8013 374.81 40.5915 375.23 40.2161C375.416 40.0498 375.537 40.0221 375.72 40.1036C375.853 40.1632 377.277 41.6712 378.884 43.4548C381.434 46.2844 381.849 46.6977 382.143 46.6977C382.454 46.6977 382.895 46.1311 387.974 39.2195C390.996 35.1064 394.59 30.2139 395.962 28.3473C397.334 26.4807 398.456 24.852 398.456 24.7282C398.456 24.6043 398.355 24.449 398.232 24.3829C398.079 24.3012 389.202 24.2629 370.379 24.2629H342.75V56.2629ZM361.968 54.2321C363.909 54.5464 366.083 55.4082 367.76 56.5271C368.731 57.1754 368.978 57.4209 368.978 57.7374C368.978 58.0447 366.56 61.2838 366.179 61.488C365.985 61.5916 365.771 61.4971 364.85 60.901C362.726 59.5264 361.059 59.0096 358.707 58.9962C357.011 58.9865 356.505 59.0967 355.68 59.6559C354.365 60.5465 354.297 62.2258 355.542 63.0491C356.251 63.5177 357.032 63.7761 359.97 64.513C361.498 64.8962 363.196 65.3673 363.745 65.5598C366.441 66.5056 368.13 67.7557 369.006 69.4527C369.611 70.6256 369.733 71.2014 369.733 72.9006C369.733 74.2563 369.698 74.5128 369.39 75.4513C368.407 78.4487 365.894 80.3601 362.073 81.017C360.583 81.2731 357.274 81.2799 355.922 81.0294C353.344 80.5516 351.007 79.4911 349.046 77.9091C348.547 77.5065 348.321 77.243 348.321 77.0646C348.321 76.7293 350.823 73.2224 351.132 73.1243C351.283 73.0763 351.474 73.1364 351.671 73.2949C352.509 73.9672 353.674 74.7557 354.297 75.0726C357.622 76.7622 361.986 76.7193 363.513 74.9821C363.991 74.4385 364.104 74.1315 364.104 73.3793C364.104 72.9188 364.036 72.6798 363.823 72.3919C363.146 71.4748 362.288 71.1149 358.563 70.1847C355.728 69.4769 354.151 68.9773 353.137 68.4656C351.037 67.4064 349.698 65.8693 349.199 63.9471C348.965 63.0454 348.962 61.1649 349.193 60.2583C349.976 57.1796 352.716 54.9145 356.483 54.2318C357.641 54.0219 360.672 54.022 361.968 54.2321ZM384.297 60.832C387.513 61.3614 389.854 63.146 391.254 66.1361C391.861 67.4315 392.169 68.6589 392.332 70.4345C392.55 72.8111 393.44 72.5431 385.107 72.6108L377.972 72.6687L377.985 73.0982C378.013 74.0292 379.073 75.5659 380.204 76.3143C382.066 77.5469 385.285 77.3758 387.713 75.915C388.745 75.294 388.766 75.3038 389.852 76.8908C390.371 77.6505 390.796 78.3511 390.796 78.4475C390.796 78.8622 389.015 79.9416 387.351 80.5349C386 81.0167 384.738 81.1998 382.713 81.2075C380.477 81.2162 379.607 81.025 377.798 80.1267C376.708 79.5849 376.452 79.3931 375.36 78.298C374.356 77.2901 374.046 76.8907 373.601 76.0311C372.648 74.1922 372.518 73.5926 372.518 71.0455C372.518 68.5838 372.625 67.9818 373.324 66.5017C375.313 62.2946 379.631 60.0638 384.297 60.832ZM381.835 64.8382C380.578 65.0067 379.422 65.688 378.677 66.6993C378.181 67.3726 377.713 68.6272 377.837 68.9512C377.901 69.1157 378.409 69.1319 382.64 69.1048L387.373 69.0745L387.341 68.6687C387.26 67.6176 386.566 66.4297 385.606 65.6982C384.655 64.9734 383.237 64.6503 381.835 64.8382Z" fill="#00B400"/>
<path d="M343.854 119.427C343.093 119.427 342.433 119.309 341.872 119.072C341.316 118.83 340.881 118.486 340.566 118.039C340.252 117.593 340.076 117.062 340.04 116.447H341.585C341.617 116.816 341.735 117.123 341.94 117.369C342.15 117.611 342.421 117.791 342.754 117.909C343.087 118.028 343.451 118.087 343.848 118.087C344.281 118.087 344.668 118.019 345.01 117.882C345.352 117.745 345.618 117.554 345.81 117.308C346.006 117.057 346.104 116.766 346.104 116.433C346.104 116.132 346.017 115.886 345.844 115.695C345.675 115.503 345.445 115.346 345.153 115.223C344.862 115.095 344.534 114.984 344.169 114.888L342.973 114.56C342.152 114.341 341.505 114.015 341.031 113.582C340.557 113.145 340.32 112.573 340.32 111.866C340.32 111.279 340.478 110.766 340.792 110.328C341.111 109.891 341.542 109.551 342.084 109.31C342.631 109.064 343.244 108.941 343.923 108.941C344.616 108.941 345.224 109.064 345.748 109.31C346.277 109.551 346.694 109.884 346.999 110.308C347.309 110.727 347.471 111.208 347.484 111.75H345.994C345.939 111.281 345.721 110.916 345.338 110.656C344.96 110.397 344.477 110.267 343.889 110.267C343.479 110.267 343.118 110.333 342.809 110.465C342.503 110.593 342.266 110.77 342.098 110.998C341.934 111.226 341.852 111.488 341.852 111.784C341.852 112.103 341.95 112.363 342.146 112.564C342.346 112.764 342.588 112.924 342.87 113.042C343.157 113.156 343.433 113.25 343.697 113.323L344.688 113.589C345.012 113.671 345.345 113.781 345.687 113.917C346.028 114.054 346.345 114.234 346.637 114.457C346.933 114.676 347.17 114.949 347.348 115.278C347.53 115.601 347.621 115.993 347.621 116.453C347.621 117.023 347.473 117.533 347.177 117.985C346.881 118.431 346.452 118.784 345.892 119.044C345.331 119.299 344.652 119.427 343.854 119.427ZM348.865 119.263V109.077H355.257V110.397H350.403V113.466H354.915V114.779H350.403V117.944H355.305V119.263H348.865ZM356.713 119.263V109.077H358.251V117.944H362.865V119.263H356.713ZM364.027 119.263V109.077H370.419V110.397H365.565V113.466H370.077V114.779H365.565V117.944H370.467V119.263H364.027ZM380.112 109.077V119.263H378.677L373.516 111.798H373.413V119.263H371.875V109.077H373.297L378.479 116.556H378.574V109.077H380.112ZM383.298 109.077V119.263H381.76V109.077H383.298ZM391.501 109.077H393.039V115.777C393.039 116.488 392.87 117.119 392.533 117.67C392.201 118.217 391.731 118.648 391.125 118.962C390.519 119.272 389.808 119.427 388.992 119.427C388.181 119.427 387.47 119.272 386.859 118.962C386.253 118.648 385.782 118.217 385.444 117.67C385.112 117.119 384.945 116.488 384.945 115.777V109.077H386.483V115.654C386.483 116.114 386.584 116.524 386.784 116.884C386.989 117.24 387.279 117.52 387.652 117.725C388.031 117.93 388.477 118.032 388.992 118.032C389.512 118.032 389.958 117.93 390.332 117.725C390.706 117.52 390.993 117.24 391.193 116.884C391.398 116.524 391.501 116.114 391.501 115.654V109.077ZM394.68 109.077H396.553L399.793 116.993H399.909L403.156 109.077H405.057V119.263H403.553V111.894H403.457L400.442 119.249H399.226L396.245 111.887H396.149V119.263H394.68V109.077Z" fill="#7D90A1"/>
<path d="M449.726 79.2629V61.2629H453.293V79.2629H449.726ZM442.5 72.0666V68.4593H460.5V72.0666H442.5Z" fill="#062037"/>
<rect width="115.5" height="140" transform="translate(472.5 0.262939)" fill="#ECF3EE"/>
<path fill-rule="evenodd" clip-rule="evenodd" d="M512.577 44.946C512.577 58.3031 512.613 65.5587 512.684 66.3994C513.268 73.3711 517.026 79.76 522.869 83.7165C525.911 85.7763 529.235 87.0723 532.855 87.6095C534.241 87.8151 538.311 87.8138 539.713 87.6073C544.652 86.8794 549.147 84.6968 552.675 81.3135C554.787 79.2877 556.345 77.1849 557.566 74.7132C559.299 71.2021 560.068 67.5987 559.935 63.6022C559.834 60.5459 559.331 58.1346 558.215 55.3642C556.099 50.1064 552.14 45.8404 547.085 43.368C544.911 42.3052 542.806 41.6559 540.243 41.2583C538.695 41.0182 535.105 41.0234 533.763 41.2679C530.602 41.8435 527.978 42.8799 525.436 44.5569C524.339 45.2806 522.294 46.9854 521.747 47.6315C521.544 47.871 521.341 48.0441 521.295 48.0163C521.25 47.9883 521.212 42.745 521.212 36.3642V24.7629H516.895H512.577V44.946ZM538.786 50.3159C544.094 51.1963 548.513 55.0526 550.164 60.2438C551.037 62.9899 550.981 66.357 550.017 69.0846C547.378 76.5559 539.267 80.5126 531.655 78.0425C530.549 77.6838 528.64 76.6897 527.638 75.9515C524.844 73.8912 522.944 70.9945 522.094 67.4968C521.9 66.6947 521.871 66.3081 521.871 64.4454C521.871 62.0959 521.97 61.4637 522.625 59.6288C523.863 56.1615 526.452 53.2716 529.797 51.6219C532.585 50.2471 535.669 49.7989 538.786 50.3159Z" fill="#262626"/>
<path fill-rule="evenodd" clip-rule="evenodd" d="M504.947 76.4021C503.878 76.6922 503.135 77.1306 502.276 77.9783C500.986 79.2513 500.453 80.6129 500.564 82.3522C500.643 83.5902 500.88 84.2972 501.546 85.2862C502.249 86.3308 503.498 87.2472 504.716 87.6124C505.392 87.8152 507.556 87.8079 508.16 87.6009C510.132 86.9237 511.668 85.2842 512.125 83.3685C512.805 80.5223 511.137 77.5229 508.333 76.5457C507.508 76.2584 505.75 76.1839 504.947 76.4021Z" fill="#0000FF"/>
<path d="M505.764 119.263V109.077H509.503C510.223 109.077 510.82 109.196 511.294 109.433C511.768 109.67 512.121 109.991 512.354 110.397C512.59 110.798 512.709 111.249 512.709 111.75C512.709 112.174 512.629 112.532 512.47 112.823C512.315 113.115 512.107 113.348 511.848 113.521C511.588 113.694 511.301 113.822 510.986 113.904V113.999C511.328 114.017 511.661 114.127 511.984 114.327C512.308 114.528 512.575 114.813 512.784 115.182C512.998 115.546 513.105 115.993 513.105 116.522C513.105 117.041 512.982 117.508 512.736 117.923C512.495 118.333 512.121 118.659 511.615 118.901C511.109 119.142 510.46 119.263 509.667 119.263H505.764ZM507.302 117.95H509.517C510.255 117.95 510.784 117.807 511.103 117.52C511.422 117.233 511.581 116.875 511.581 116.447C511.581 116.123 511.499 115.829 511.335 115.565C511.175 115.296 510.945 115.082 510.645 114.922C510.344 114.763 509.988 114.683 509.578 114.683H507.302V117.95ZM507.302 113.487H509.366C509.708 113.487 510.018 113.42 510.296 113.288C510.574 113.156 510.793 112.969 510.952 112.728C511.116 112.482 511.198 112.197 511.198 111.873C511.198 111.454 511.05 111.103 510.754 110.821C510.462 110.533 510.013 110.39 509.407 110.39H507.302V113.487ZM520.892 109.077H522.43V115.777C522.43 116.488 522.261 117.119 521.924 117.67C521.591 118.217 521.122 118.648 520.516 118.962C519.91 119.272 519.199 119.427 518.383 119.427C517.572 119.427 516.861 119.272 516.25 118.962C515.644 118.648 515.172 118.217 514.835 117.67C514.502 117.119 514.336 116.488 514.336 115.777V109.077H515.874V115.654C515.874 116.114 515.974 116.524 516.175 116.884C516.38 117.24 516.669 117.52 517.043 117.725C517.421 117.93 517.868 118.032 518.383 118.032C518.902 118.032 519.349 117.93 519.723 117.725C520.096 117.52 520.383 117.24 520.584 116.884C520.789 116.524 520.892 116.114 520.892 115.654V109.077ZM524.07 119.263V109.077H527.81C528.53 109.077 529.127 109.196 529.601 109.433C530.075 109.67 530.428 109.991 530.66 110.397C530.897 110.798 531.016 111.249 531.016 111.75C531.016 112.174 530.936 112.532 530.776 112.823C530.621 113.115 530.414 113.348 530.154 113.521C529.895 113.694 529.607 113.822 529.293 113.904V113.999C529.635 114.017 529.967 114.127 530.291 114.327C530.615 114.528 530.881 114.813 531.091 115.182C531.305 115.546 531.412 115.993 531.412 116.522C531.412 117.041 531.289 117.508 531.043 117.923C530.801 118.333 530.428 118.659 529.922 118.901C529.416 119.142 528.767 119.263 527.974 119.263H524.07ZM525.608 117.95H527.823C528.562 117.95 529.09 117.807 529.409 117.52C529.728 117.233 529.888 116.875 529.888 116.447C529.888 116.123 529.806 115.829 529.642 115.565C529.482 115.296 529.252 115.082 528.951 114.922C528.65 114.763 528.295 114.683 527.885 114.683H525.608V117.95ZM525.608 113.487H527.673C528.015 113.487 528.325 113.42 528.603 113.288C528.881 113.156 529.099 112.969 529.259 112.728C529.423 112.482 529.505 112.197 529.505 111.873C529.505 111.454 529.357 111.103 529.061 110.821C528.769 110.533 528.32 110.39 527.714 110.39H525.608V113.487ZM532.643 119.263V109.077H536.382C537.102 109.077 537.699 109.196 538.173 109.433C538.647 109.67 539 109.991 539.232 110.397C539.469 110.798 539.588 111.249 539.588 111.75C539.588 112.174 539.508 112.532 539.349 112.823C539.194 113.115 538.986 113.348 538.727 113.521C538.467 113.694 538.18 113.822 537.865 113.904V113.999C538.207 114.017 538.54 114.127 538.863 114.327C539.187 114.528 539.453 114.813 539.663 115.182C539.877 115.546 539.984 115.993 539.984 116.522C539.984 117.041 539.861 117.508 539.615 117.923C539.374 118.333 539 118.659 538.494 118.901C537.988 119.142 537.339 119.263 536.546 119.263H532.643ZM534.181 117.95H536.396C537.134 117.95 537.662 117.807 537.981 117.52C538.3 117.233 538.46 116.875 538.46 116.447C538.46 116.123 538.378 115.829 538.214 115.565C538.054 115.296 537.824 115.082 537.523 114.922C537.223 114.763 536.867 114.683 536.457 114.683H534.181V117.95ZM534.181 113.487H536.245C536.587 113.487 536.897 113.42 537.175 113.288C537.453 113.156 537.672 112.969 537.831 112.728C537.995 112.482 538.077 112.197 538.077 111.873C538.077 111.454 537.929 111.103 537.633 110.821C537.341 110.533 536.892 110.39 536.286 110.39H534.181V113.487ZM541.215 119.263V109.077H542.753V117.944H547.367V119.263H541.215ZM548.529 119.263V109.077H554.921V110.397H550.067V113.466H554.579V114.779H550.067V117.944H554.969V119.263H548.529Z" fill="#7D90A1"/>
<defs>
<linearGradient id="paint0_linear_1745_8992" x1="25.2295" y1="23.3832" x2="61.405" y2="54.2097" gradientUnits="userSpaceOnUse">
<stop stop-color="#5A9FD4"/>
<stop offset="1" stop-color="#306998"/>
</linearGradient>
<linearGradient id="paint1_linear_1745_8992" x1="66.146" y1="80.459" x2="53.1676" y2="62.2724" gradientUnits="userSpaceOnUse">
<stop stop-color="#FFD43B"/>
<stop offset="1" stop-color="#FFE873"/>
</linearGradient>
</defs>
</svg>
