<svg width="58" height="84" viewBox="0 0 58 84" fill="none" xmlns="http://www.w3.org/2000/svg">
<path fill-rule="evenodd" clip-rule="evenodd" d="M48.7929 0.765005C48.5475 0.260331 47.8865 0.0223656 47.3166 0.233494C46.7467 0.444623 46.4837 1.0249 46.7292 1.52957C50.6224 9.53395 54.0732 19.1951 54.8177 28.6396C55.5619 38.082 53.5967 47.2083 46.798 54.2897C36.5135 65.0019 21.3751 69.9495 6.25241 74.0273C7.60741 73.0095 9.05701 71.8561 10.1741 70.8041C11.6649 69.4003 13.2675 67.3277 14.4744 65.6486C15.0838 64.8009 15.6032 64.0381 15.9704 63.487C16.1541 63.2113 16.3 62.9882 16.4003 62.8335C16.4504 62.7561 16.4892 62.6957 16.5157 62.6545L16.546 62.607L16.554 62.5945L16.5561 62.5911L16.5567 62.5901C16.5567 62.5901 16.557 62.5896 15.5748 62.0997L16.5567 62.5901C16.858 62.1147 16.6627 61.5094 16.1202 61.2388C15.5777 60.9683 14.8938 61.1343 14.5925 61.6098L14.5907 61.6127L14.584 61.6233L14.5563 61.6666C14.5316 61.7052 14.4947 61.7626 14.4465 61.8369C14.3501 61.9856 14.2086 62.202 14.0299 62.4703C13.6721 63.0073 13.1659 63.7507 12.5728 64.5757C11.3749 66.2422 9.86514 68.1813 8.5263 69.4421C7.16289 70.726 5.21628 72.2153 3.58427 73.3995C2.77342 73.9878 2.04975 74.494 1.52905 74.8529C1.26882 75.0323 1.05958 75.1747 0.91584 75.2719C0.84398 75.3205 0.788516 75.3578 0.751263 75.3828L0.709277 75.411L0.698958 75.4179L0.696542 75.4195Lnan nanL0.696542 75.4195C-0.101874 75.9513 0.243413 77.0764 1.24162 77.1942Lnan nanL1.24162 77.1942L1.24574 77.1947L1.25985 77.1964L1.3173 77.2033C1.36829 77.2095 1.44426 77.2188 1.54282 77.2312C1.73997 77.2558 2.02741 77.2926 2.38615 77.3406C3.10394 77.4368 4.10551 77.5778 5.23929 77.7573C7.52166 78.1185 10.2848 78.6271 12.3509 79.2264C14.3111 79.795 16.7566 80.7682 18.7412 81.6147C19.727 82.0352 20.5874 82.4193 21.201 82.6982C21.5077 82.8376 21.7524 82.9506 21.9199 83.0284C22.0036 83.0673 22.0681 83.0975 22.1113 83.1178L22.1599 83.1406L22.1719 83.1463L22.1747 83.1476C22.7238 83.4074 23.4038 83.2282 23.6928 82.7468C23.9819 82.2654 23.7711 81.6645 23.222 81.4046L22.6986 82.2763C23.222 81.4046 23.222 81.4046 23.222 81.4046L23.2205 81.4039L23.2168 81.4022L23.2031 81.3957L23.1507 81.3711C23.105 81.3496 23.0379 81.3183 22.9514 81.278C22.7783 81.1976 22.5275 81.0819 22.2141 80.9394C21.5875 80.6546 20.7094 80.2626 19.7025 79.8331C17.7014 78.9795 15.1435 77.9575 13.0329 77.3452C11.1462 76.7979 8.77853 76.3349 6.69894 75.9846C21.8996 71.8959 37.7275 66.8196 48.5195 55.5788C55.8199 47.9749 57.8277 38.271 57.0593 28.5229C56.291 18.7768 52.7434 8.88714 48.7929 0.765005Z" fill="#5BD473"/>
</svg>
