<svg width="198" height="72" viewBox="0 0 198 72" fill="none" xmlns="http://www.w3.org/2000/svg">
<path fill-rule="evenodd" clip-rule="evenodd" d="M30 51.3329H24.0528V43.8219L20.3481 39.6598L20.2506 36.2153L23.1754 36.6458L21.518 33.2013L18.9831 32.7229L18.3494 30.7136C18.1544 30.6658 17.6767 30.484 17.3257 30.1395C16.9748 29.7951 16.7895 29.39 16.7408 29.2306L18.1544 29.9003L18.4957 29.2306C18.9181 29.6133 19.8801 30.4266 20.3481 30.6179C20.5399 30.6964 20.9894 30.8418 21.518 31.0048C21.5399 31.0115 21.562 31.0183 21.5842 31.0251C21.6053 31.0316 21.6265 31.0381 21.6478 31.0446L23.8861 35.9761V42.7694L28.5659 50.089L26.031 42.6259V35.689C25.9354 35.549 25.841 35.4108 25.7478 35.2742C23.41 31.8494 21.7765 29.4562 18.7881 26.1209L20.4456 25.212V21.1934L18.4264 18.0359C17.6302 17.9402 15.3359 17.3661 12.528 15.8352C10.2763 14.6075 8.94003 12.3133 8.32303 10.7289C7.4096 7.23711 8.61522 2.80625 10.8911 0C10.8911 0 7.62504 8.03721 12.3048 12.1993C15.0101 14.5305 19.122 15.284 21.4975 15.5275C21.4975 15.5275 23.9171 21.7886 25.7488 25.6801C27.2898 28.9541 30 33.9189 30 33.9189C30 33.9189 28.2066 27.9214 26.8802 24.1355C25.608 20.5044 23.3704 14.9262 23.3704 14.9262H30H36.6296V15.6439C36.6296 15.6439 43.698 15.6439 47.6952 12.1993C52.375 8.03721 49.1089 0 49.1089 0C49.1089 0 52.9112 4.68837 51.6925 10.6684C50.5713 15.1176 45.8428 18.9927 45.8428 18.9927C45.8428 18.9927 46.964 18.4664 48.7677 16.6007C50.5713 14.7349 51.4 13.0605 51.4 13.0605C51.4 13.0605 50.4251 17.414 47.4028 19.4711C44.3804 21.5282 39.5545 21.1934 39.5545 21.1934V25.212L41.2119 26.1209L36.2396 31.6704C37.1821 31.3993 39.184 30.8093 39.6519 30.6179C40.1199 30.4266 41.0819 29.6133 41.5043 29.2306L41.8456 29.9003L43.2592 29.2306C43.2105 29.39 43.0253 29.7951 42.6743 30.1395C42.3233 30.484 41.8456 30.6658 41.6506 30.7136L41.0169 32.7229L38.482 33.2013L36.8246 36.6458L39.7494 36.2153L39.6519 39.6598L35.9472 43.8219V51.3329H30ZM17.939 19.2797L18.7502 21.1904C17.0704 21.1069 14.4828 20.7545 12.5973 19.4711C9.57493 17.414 8.59998 13.0605 8.59998 13.0605C8.59998 13.0605 10.0235 15.4003 11.1631 16.3615C14.2829 18.9927 17.939 19.2797 17.939 19.2797ZM6.74759 38.7508H0.0692215V18.9448L6.74759 13.0605C6.74759 13.0605 6.74759 16.792 9.72117 20.1409C12.6947 23.4897 17.3257 23.394 17.3257 23.394L17.5695 24.303L6.74759 27.8432V38.7508ZM16.302 67.79L17.5207 65.9242V61.9056L9.91616 50.7588H6.74759V41.8126H0.0692215C0.0692215 41.8126 -0.856976 49.2279 4.06649 57.0259C8.98996 64.8239 16.302 67.79 16.302 67.79ZM27.5139 72V68.4598H26.5877V59.8485L21.518 53.9641V44.6831L18.9831 42.004L17.1795 49.2279L19.8401 57.0259V58.4611L14.5959 52.3854L20.3481 60.6139V66.7854L18.8856 68.9382H21.8592V72H27.5139ZM23.3704 52.8159L30 59.3701L36.6296 52.8159L36.1422 52.3854L35.4109 53.1987H30H24.5891L23.8579 52.3854L23.3704 52.8159ZM28.2939 6.69767V12.7734C28.2939 12.7734 21.998 12.9481 19.2756 12.4864C16.422 12.0024 14.1572 10.2857 14.1572 10.2857C14.1572 10.2857 18.3444 8.24052 21.2255 7.53488C23.9232 6.87418 28.2939 6.69767 28.2939 6.69767ZM53.2524 38.7508H59.9308V18.9448L53.2524 13.0605C53.2524 13.0605 53.2524 16.792 50.2788 20.1409C47.3053 23.4897 42.6743 23.394 42.6743 23.394L42.4305 24.303L53.2524 27.8432V38.7508ZM43.698 67.79L42.4793 65.9242V61.9056L50.0838 50.7588H53.2524V41.8126H59.9308C59.9308 41.8126 60.857 49.2279 55.9335 57.0259C51.01 64.8239 43.698 67.79 43.698 67.79ZM32.4861 72V68.4598H33.4123V59.8485L38.482 53.9641V44.6831L41.0169 42.004L42.8205 49.2279L45.4041 52.3854L39.6519 60.6139V66.7854L41.1144 68.9382H38.1408V72H32.4861ZM31.7062 6.69767V12.7734C31.7062 12.7734 38.002 12.9481 40.7244 12.4864C43.578 12.0024 45.8428 10.2857 45.8428 10.2857C45.8428 10.2857 41.6556 8.24052 38.7745 7.53488C36.0768 6.87418 31.7062 6.69767 31.7062 6.69767ZM20.1326 31.2877C19.8596 31.2112 19.2714 30.7136 19.0114 30.4744C19.1089 30.8412 19.4209 31.6417 19.8889 31.9096C20.3568 32.1775 20.9288 31.8937 21.1563 31.7183L21.01 31.4791C20.8313 31.4472 20.4056 31.3643 20.1326 31.2877ZM39.339 31.2877C39.612 31.2112 40.2002 30.7136 40.4602 30.4744C40.3627 30.8412 40.0507 31.6417 39.5827 31.9096C39.1148 32.1775 38.5428 31.8937 38.3153 31.7183L38.4615 31.4791C38.6403 31.4472 39.066 31.3643 39.339 31.2877Z" fill="#61CD81"/>
<path fill-rule="evenodd" clip-rule="evenodd" d="M30.0003 51.3329H24.0532V43.8219L20.3484 39.6598L20.2509 36.2153L23.1757 36.6458L21.5183 33.2013L18.9835 32.7229L18.3497 30.7136C18.1548 30.6658 17.677 30.484 17.326 30.1395C16.9751 29.7951 16.7898 29.39 16.7411 29.2306L18.1548 29.9003L18.496 29.2306C18.9185 29.6133 19.8804 30.4266 20.3484 30.6179C20.5402 30.6964 20.9897 30.8418 21.5183 31.0048C21.5403 31.0115 21.5623 31.0183 21.5846 31.0251C21.6056 31.0316 21.6268 31.0381 21.6481 31.0446L23.8864 35.9761V42.7694L28.5662 50.089L26.0313 42.6259V35.689C25.9357 35.549 25.8414 35.4108 25.7481 35.2742C23.4103 31.8494 21.7768 29.4562 18.7885 26.1209L20.4459 25.212V21.1934L18.4268 18.0359C17.6306 17.9402 15.3362 17.3661 12.5283 15.8352C10.2767 14.6075 8.94035 12.3133 8.32335 10.7289C7.40992 7.23711 8.61554 2.80625 10.8914 0C10.8914 0 7.62535 8.03721 12.3051 12.1993C15.0104 14.5305 19.1224 15.284 21.4978 15.5275C21.4978 15.5275 23.9174 21.7886 25.7491 25.6801C27.2901 28.9541 30.0003 33.9189 30.0003 33.9189C30.0003 33.9189 28.2069 27.9214 26.8805 24.1355C25.6083 20.5044 23.3707 14.9262 23.3707 14.9262H30.0003H36.6299V15.6439C36.6299 15.6439 43.6983 15.6439 47.6956 12.1993C52.3753 8.03721 49.1092 0 49.1092 0C49.1092 0 52.9115 4.68837 51.6928 10.6684C50.5716 15.1176 45.8432 18.9927 45.8432 18.9927C45.8432 18.9927 46.9643 18.4664 48.768 16.6007C50.5716 14.7349 51.4003 13.0605 51.4003 13.0605C51.4003 13.0605 50.4254 17.414 47.4031 19.4711C44.3807 21.5282 39.5548 21.1934 39.5548 21.1934V25.212L41.2122 26.1209L36.24 31.6704C37.1824 31.3993 39.1843 30.8093 39.6523 30.6179C40.1202 30.4266 41.0822 29.6133 41.5047 29.2306L41.8459 29.9003L43.2596 29.2306C43.2108 29.39 43.0256 29.7951 42.6746 30.1395C42.3236 30.484 41.8459 30.6658 41.6509 30.7136L41.0172 32.7229L38.4823 33.2013L36.8249 36.6458L39.7498 36.2153L39.6523 39.6598L35.9475 43.8219V51.3329H30.0003ZM17.9393 19.2797L18.7505 21.1904C17.0707 21.1069 14.4831 20.7545 12.5976 19.4711C9.57524 17.414 8.6003 13.0605 8.6003 13.0605C8.6003 13.0605 10.0238 15.4003 11.1634 16.3615C14.2832 18.9927 17.9393 19.2797 17.9393 19.2797ZM27.5142 72V68.4598H26.588V59.8485L21.5183 53.9641V44.6831L18.9835 42.004L17.1798 49.2279L19.8404 57.0259V58.4611L14.5962 52.3854L20.3484 60.6139V66.7854L18.886 68.9382H21.8595V72H27.5142ZM23.3707 52.8159L30.0003 59.3701L36.6299 52.8159L36.1425 52.3854L35.4113 53.1987H30.0003H24.5894L23.8582 52.3854L23.3707 52.8159ZM32.4864 72V68.4598H33.4126V59.8485L38.4823 53.9641V44.6831L41.0172 42.004L42.8208 49.2279L45.4044 52.3854L39.6523 60.6139V66.7854L41.1147 68.9382H38.1411V72H32.4864ZM20.1329 31.2877C19.8599 31.2112 19.2717 30.7136 19.0117 30.4744C19.1092 30.8412 19.4212 31.6417 19.8892 31.9096C20.3572 32.1775 20.9291 31.8937 21.1566 31.7183L21.0104 31.4791C20.8316 31.4472 20.4059 31.3643 20.1329 31.2877ZM39.3393 31.2877C39.6123 31.2112 40.2005 30.7136 40.4605 30.4744C40.363 30.8412 40.051 31.6417 39.583 31.9096C39.1151 32.1775 38.5431 31.8937 38.3156 31.7183L38.4619 31.4791C38.6406 31.4472 39.0663 31.3643 39.3393 31.2877Z" fill="#091239"/>
<path d="M100.426 23.5444L91.0674 49H85.6655L76.2529 23.5444H81.8174L87.0566 39.8945C87.2253 40.4245 87.418 41.0929 87.6348 41.8999C87.8636 42.6948 88.1165 43.6283 88.3936 44.7002C88.791 43.1947 89.0741 42.1047 89.2427 41.4302C89.4233 40.7557 89.5739 40.2438 89.6943 39.8945L94.9155 23.5444H100.426ZM123.912 44.8809V49H103.154V23.5444H123.171V27.6636H108.483V34.0591H122.069V38.1782H108.483V44.8809H123.912ZM146.82 44.8809V49H127.833V23.5444H133.162V44.8809H146.82ZM171.21 44.8809V49H150.452V23.5444H170.469V27.6636H155.781V34.0591H169.367V38.1782H155.781V44.8809H171.21ZM195.889 41.665C195.889 44.1582 194.961 46.0672 193.106 47.3921C191.264 48.7049 188.554 49.3613 184.977 49.3613C178.533 49.3613 174.781 47.0308 173.721 42.3696L178.87 41.5205C179.219 42.8695 179.9 43.8511 180.912 44.4653C181.923 45.0675 183.326 45.3687 185.121 45.3687C186.988 45.3687 188.385 45.0856 189.312 44.5195C190.24 43.9535 190.704 43.1043 190.704 41.9722C190.704 41.2495 190.493 40.6533 190.071 40.1836C189.65 39.7139 189.048 39.3224 188.265 39.0093C187.879 38.8527 187.313 38.6841 186.566 38.5034C185.82 38.3107 184.892 38.0999 183.784 37.8711C182.507 37.57 181.508 37.3171 180.785 37.1123C180.062 36.8955 179.484 36.6908 179.051 36.498C178.617 36.2933 178.196 36.0705 177.786 35.8296C176.883 35.2876 176.178 34.5649 175.672 33.6616C175.167 32.7583 174.914 31.6322 174.914 30.2832C174.914 27.9827 175.775 26.2243 177.497 25.0078C179.231 23.7793 181.749 23.165 185.049 23.165C188.204 23.165 190.571 23.6589 192.149 24.6465C193.739 25.6341 194.763 27.2661 195.22 29.5425L190.053 30.2471C189.788 29.151 189.246 28.326 188.427 27.772C187.62 27.2179 186.458 26.9409 184.94 26.9409C183.326 26.9409 182.116 27.1938 181.309 27.6997C180.502 28.2056 180.099 28.9644 180.099 29.9761C180.099 30.6385 180.267 31.1805 180.604 31.6021C180.954 32.0236 181.466 32.3849 182.14 32.686C182.778 32.9751 184.146 33.3424 186.241 33.7881C187.458 34.0531 188.506 34.306 189.385 34.5469C190.264 34.7757 190.969 34.9985 191.499 35.2153C192.028 35.4442 192.498 35.6851 192.908 35.938C193.329 36.1909 193.691 36.4619 193.992 36.751C194.606 37.3411 195.076 38.0457 195.401 38.8647C195.726 39.6717 195.889 40.6051 195.889 41.665Z" fill="#091239"/>
</svg>
