<svg width="18" height="19" viewBox="0 0 18 19" fill="none" xmlns="http://www.w3.org/2000/svg">
<path fill-rule="evenodd" clip-rule="evenodd" d="M9 0.89209C8.33805 0.89209 7.95922 1.18139 7.74512 1.60799C7.44118 2.21361 7.28921 2.51641 7.18855 2.58269C7.06129 2.66649 7.06656 2.66508 6.91445 2.65607C6.79415 2.64894 6.51132 2.46262 5.94568 2.08997C5.5468 1.82719 5.07385 1.76581 4.50028 2.09697C3.92577 2.42866 3.74277 2.86987 3.77165 3.34768C3.8125 4.02352 3.83292 4.36143 3.77888 4.46942C3.71069 4.60569 3.71415 4.60224 3.57789 4.67045C3.4699 4.7245 3.13195 4.70412 2.45604 4.66336C1.97833 4.63456 1.53721 4.81758 1.20557 5.392C0.87425 5.96586 0.935851 6.439 1.19897 6.83803C1.57183 7.40346 1.75826 7.68618 1.7654 7.80657C1.77442 7.95869 1.77578 7.95362 1.69193 8.08085C1.62556 8.18155 1.32274 8.33324 0.717095 8.63661C0.289827 8.85062 0 9.22956 0 9.89209C0 10.5542 0.289448 10.9331 0.716247 11.1471C1.32183 11.4509 1.62462 11.6028 1.69092 11.7034C1.77475 11.8307 1.77334 11.8254 1.76435 11.9775C1.75725 12.0978 1.57096 12.3807 1.19837 12.9465C0.935755 13.3453 0.87449 13.8182 1.20557 14.3916C1.53709 14.9659 1.97802 15.149 2.45553 15.1203C3.13149 15.0797 3.46947 15.0595 3.57739 15.1135C3.71365 15.1817 3.7101 15.1782 3.77832 15.3144C3.83236 15.4223 3.81211 15.7603 3.7716 16.4363C3.743 16.9138 3.92611 17.3547 4.50028 17.6862C5.07385 18.0173 5.5468 17.9559 5.94568 17.6932C6.51139 17.3205 6.79425 17.1341 6.9146 17.127C7.06672 17.118 7.06155 17.1166 7.18878 17.2005C7.28944 17.2668 7.44118 17.5696 7.74464 18.1752C7.95867 18.6024 8.33759 18.8921 9 18.8921C9.66316 18.8921 10.0422 18.6017 10.2561 18.1737C10.5589 17.5681 10.7102 17.2652 10.811 17.1988C10.9382 17.1149 10.9333 17.1162 11.0854 17.1252C11.2059 17.1323 11.4886 17.3188 12.0539 17.6918C12.453 17.9551 12.9263 18.0168 13.5003 17.6854C14.0733 17.3546 14.2568 16.9148 14.2291 16.4385C14.1897 15.762 14.17 15.4238 14.224 15.3161C14.2924 15.1799 14.2884 15.1839 14.4246 15.1156C14.5323 15.0616 14.8705 15.0813 15.5469 15.1208C16.0233 15.1486 16.4631 14.9652 16.794 14.392C17.1253 13.8183 17.0638 13.3452 16.8008 12.9463C16.428 12.3807 16.2416 12.0979 16.2345 11.9775C16.2255 11.8254 16.2241 11.8305 16.308 11.7033C16.3744 11.6026 16.6772 11.4509 17.2828 11.1476C17.7101 10.9336 18 10.5547 18 9.89209C18 9.2291 17.7098 8.85008 17.282 8.63613C16.6763 8.33321 16.3734 8.18175 16.307 8.081C16.2231 7.95379 16.2244 7.95868 16.2335 7.80657C16.2406 7.6861 16.4272 7.40349 16.8002 6.83828C17.0637 6.43911 17.1255 5.96577 16.794 5.39163C16.463 4.81828 16.0229 4.63488 15.5463 4.66284C14.87 4.70252 14.5318 4.72236 14.4241 4.66835C14.2879 4.60006 14.2917 4.60394 14.2235 4.46771C14.1695 4.35998 14.1893 4.02183 14.2291 3.34552C14.2571 2.86886 14.0737 2.42876 13.5003 2.0977C12.9263 1.7663 12.453 1.82802 12.0539 2.09132C11.4886 2.46427 11.206 2.65075 11.0855 2.6579C10.9334 2.66694 10.9384 2.66827 10.8112 2.58441C10.7105 2.51801 10.5589 2.21518 10.2557 1.60952C10.0417 1.18207 9.6627 0.89209 9 0.89209Z" fill="#5BD473"/>
<path fill-rule="evenodd" clip-rule="evenodd" d="M9.69638 11.8208L9.69647 11.8209L8.25003 13.2673L4.875 9.89227L6.32144 8.44583L8.24994 10.3743L12.1072 6.51709L13.5536 7.96353L9.69638 11.8208Z" fill="#062037"/>
</svg>
