<svg width="55" height="54" viewBox="0 0 55 54" fill="none" xmlns="http://www.w3.org/2000/svg">
<path fill-rule="evenodd" clip-rule="evenodd" d="M20.9849 7.52332C25.3807 6.49223 29.9554 6.49222 34.3511 7.52332C40.6991 9.01237 45.6557 13.969 47.1448 20.317C48.1759 24.7127 48.1759 29.2874 47.1448 33.6831C45.6557 40.0312 40.6991 44.9878 34.3511 46.4768C29.9554 47.5079 25.3807 47.5079 20.9849 46.4768C14.6369 44.9878 9.68034 40.0312 8.1913 33.6832C7.16019 29.2874 7.16019 24.7127 8.1913 20.317C9.68034 13.9689 14.6369 9.01237 20.9849 7.52332ZM24.1717 23.3513C24.1717 22.7223 24.4719 22.2764 24.8164 22.0559C25.1473 21.8441 25.5283 21.8212 25.895 22.0559L31.5965 25.7046C31.9915 25.9574 32.2412 26.4357 32.2412 27C32.2412 27.5643 31.9915 28.0426 31.5965 28.2954L25.895 31.9441C25.5283 32.1788 25.1473 32.1559 24.8164 31.9441C24.4719 31.7237 24.1717 31.2777 24.1717 30.6487V23.3513ZM27.3504 19.7817C26.0277 18.9353 24.5083 19.0475 23.361 19.7817C22.2273 20.5072 21.4717 21.818 21.4717 23.3513V30.6487C21.4717 32.182 22.2273 33.4928 23.361 34.2183C24.5083 34.9525 26.0277 35.0647 27.3504 34.2183L33.0519 30.5696C34.3462 29.7413 34.9412 28.3277 34.9412 27C34.9412 25.6724 34.3462 24.2587 33.0519 23.4304L27.3504 19.7817Z" fill="#363853"/>
</svg>
