<svg width="191" height="56" viewBox="0 0 191 56" fill="none" xmlns="http://www.w3.org/2000/svg">
<path fill-rule="evenodd" clip-rule="evenodd" d="M14.4001 14.2494C12.1949 16.4316 12.1289 19.9039 12.127 26.7199C18.2997 26.7199 22.1536 24.0975 25.5342 21.7973C28.1753 20.0003 30.5273 18.3999 33.4703 18.3999C37.8507 18.3999 41.6755 21.4647 43.7035 23.0897C43.9895 23.3189 44.2398 23.5194 44.4508 23.6787C44.3868 18.819 44.0423 16.0802 42.1923 14.2494C39.9191 12 36.2604 12 28.9429 12H27.6494C20.332 12 16.6733 12 14.4001 14.2494ZM26.8568 43.9999C27.1161 44 27.3803 44 27.6494 44H28.9429C29.2123 44 29.4766 44 29.7361 43.9999H26.8568ZM44.4655 28.8389C44.4655 28.7729 44.4655 28.7066 44.4655 28.64V27.36C44.4655 27.2934 44.4655 27.2271 44.4655 27.1611V28.8389Z" fill="#0077FF"/>
<path fill-rule="evenodd" clip-rule="evenodd" d="M12.1271 26.7199C18.2998 26.7199 22.1537 24.0975 25.5343 21.7973C28.1754 20.0003 30.5274 18.3999 33.4704 18.3999C37.8508 18.3999 41.6756 21.4647 43.7036 23.0897C43.9896 23.3189 44.2399 23.5194 44.4509 23.6787C44.4656 24.7901 44.4656 26.0124 44.4656 27.3602V28.6402C44.4656 35.881 44.4656 39.5013 42.1924 41.7508C40.0323 43.8882 36.6212 43.9946 30.009 43.9999H26.5835C19.9713 43.9946 16.5603 43.8882 14.4002 41.7508C12.127 39.5013 12.127 35.881 12.127 28.6402V27.3602C12.127 27.1435 12.127 26.9301 12.1271 26.7199Z" fill="#F45FFF"/>
<path d="M37.1895 28.3119C37.1895 27.521 37.8455 26.8799 38.6447 26.8799C39.444 26.8799 40.0999 27.521 40.0999 28.3119V34.0879C40.0999 34.8788 39.444 35.5199 38.6447 35.5199C37.8455 35.5199 37.1895 34.8788 37.1895 34.0879V28.3119Z" fill="#FFFEEA"/>
<path d="M32.0156 24.6322C32.0156 23.8413 32.6716 23.2002 33.4709 23.2002C34.2701 23.2002 34.9261 23.8413 34.9261 24.6322V37.7682C34.9261 38.5591 34.2701 39.2002 33.4709 39.2002C32.6716 39.2002 32.0156 38.5591 32.0156 37.7682V24.6322Z" fill="#FFFEEA"/>
<path d="M26.8413 28.3119C26.8413 27.521 27.4973 26.8799 28.2965 26.8799C29.0958 26.8799 29.7518 27.521 29.7518 28.3119V34.0879C29.7518 34.8788 29.0958 35.5199 28.2965 35.5199C27.4973 35.5199 26.8413 34.8788 26.8413 34.0879V28.3119Z" fill="#FFFEEA"/>
<path d="M21.6665 30.392C21.6665 29.6011 22.3225 28.96 23.1217 28.96C23.921 28.96 24.577 29.6011 24.577 30.392V32.008C24.577 32.7988 23.921 33.44 23.1217 33.44C22.3225 33.44 21.6665 32.7988 21.6665 32.008V30.392Z" fill="#FFFEEA"/>
<path d="M16.4922 30.392C16.4922 29.6011 17.1482 28.96 17.9474 28.96C18.7467 28.96 19.4027 29.6011 19.4027 30.392V32.008C19.4027 32.7988 18.7467 33.44 17.9474 33.44C17.1482 33.44 16.4922 32.7988 16.4922 32.008V30.392Z" fill="#FFFEEA"/>
<path d="M59.4796 20.2652C58.7331 20.2652 58.0593 20.1062 57.4582 19.7884C56.8667 19.4611 56.4062 19.0124 56.0765 18.4421C55.7469 17.8718 55.582 17.2267 55.582 16.5068C55.582 15.7776 55.7469 15.1278 56.0765 14.5575C56.4062 13.9872 56.8667 13.5431 57.4582 13.2253C58.0496 12.898 58.7234 12.7344 59.4796 12.7344C60.2844 12.7344 61.0019 12.9214 61.6321 13.2954C62.272 13.6693 62.7277 14.2069 62.9992 14.9081L61.6612 15.1185C61.4867 14.7819 61.2104 14.5108 60.8322 14.3051C60.4638 14.0994 60.042 13.9966 59.567 13.9966C58.83 13.9966 58.2289 14.2303 57.7636 14.6978C57.3078 15.1652 57.08 15.7682 57.08 16.5068C57.08 17.2454 57.3078 17.8484 57.7636 18.3159C58.2289 18.774 58.83 19.003 59.567 19.003C60.0614 19.003 60.4977 18.8955 60.8759 18.6805C61.2636 18.4655 61.5449 18.1803 61.7194 17.825L63.0573 18.0354C62.7859 18.7459 62.3205 19.2975 61.6612 19.6902C61.0116 20.0735 60.2844 20.2652 59.4796 20.2652Z" fill="#FFFEEA"/>
<path d="M65.1341 12.875H70.4132V20.1252H68.988V14.1371H66.4575L66.2393 17.5589C66.1908 18.4097 65.963 19.0641 65.5558 19.5222C65.1485 19.971 64.5959 20.1954 63.8978 20.1954C63.7136 20.1954 63.51 20.1813 63.287 20.1533L63.1416 18.8351C63.2676 18.8444 63.4567 18.8491 63.7087 18.8491C64.0966 18.8491 64.3729 18.7556 64.5377 18.5686C64.7025 18.3816 64.7996 18.0544 64.8286 17.5869L65.1341 12.875Z" fill="#FFFEEA"/>
<path d="M77.7315 12.875H79.2004L76.059 21.2191C75.8263 21.8455 75.5209 22.2989 75.1428 22.5794C74.7646 22.8599 74.2605 23.0001 73.6303 23.0001H72.5104L72.3795 21.738H73.7175C73.9987 21.738 74.2168 21.6772 74.3719 21.5557C74.5271 21.4435 74.658 21.2425 74.7646 20.9526L74.9246 20.5319L71.5796 12.875H73.1067L75.4918 18.4704H75.6954L77.7315 12.875Z" fill="#FFFEEA"/>
<path d="M90.626 20.1252H80.4893V12.875H81.9145V18.8631H84.8522V12.875H86.2776V18.8631H89.2008V12.875H90.626V20.1252Z" fill="#FFFEEA"/>
<path d="M95.5428 12.7344C96.4735 12.7344 97.2056 13.0289 97.7388 13.6179C98.2818 14.1976 98.5532 15.0109 98.5532 16.0581V20.1249H97.5353L97.2007 18.989C96.9583 19.3536 96.6335 19.6575 96.2263 19.9006C95.8191 20.1436 95.3295 20.2652 94.7575 20.2652C94.2533 20.2652 93.8025 20.167 93.4049 19.9707C93.0073 19.7743 92.6971 19.5032 92.4742 19.1573C92.2511 18.802 92.1396 18.4047 92.1396 17.9653C92.1396 17.2828 92.4208 16.7359 92.9832 16.3245C93.5455 15.9131 94.3599 15.7075 95.4265 15.7075H97.128C97.0892 15.1372 96.9244 14.6978 96.6335 14.3892C96.3427 14.0714 95.9548 13.9124 95.47 13.9124C95.1017 13.9124 94.7769 13.9966 94.4956 14.1648C94.2145 14.3331 94.0011 14.5528 93.8557 14.824L92.5323 14.6136C92.7262 14.034 93.0995 13.5759 93.6521 13.2393C94.2048 12.9027 94.835 12.7344 95.5428 12.7344ZM95.0629 19.1012C95.6737 19.1012 96.1681 18.9095 96.5463 18.5262C96.9341 18.1336 97.128 17.596 97.128 16.9135V16.8294H95.47C94.2096 16.8294 93.5794 17.194 93.5794 17.9232C93.5794 18.2785 93.7151 18.5636 93.9866 18.7787C94.2581 18.9937 94.6169 19.1012 95.0629 19.1012Z" fill="#FFFEEA"/>
<path d="M102.539 20.1251H100.43V12.8749H101.811V18.5825H102.029L105.069 12.8749H107.178V20.1251H105.796V14.4315H105.579L102.539 20.1251ZM103.818 11.9353C103.188 11.9353 102.66 11.7763 102.233 11.4585C101.816 11.1312 101.569 10.6451 101.492 10H102.655C102.703 10.2992 102.825 10.5282 103.019 10.6872C103.222 10.8367 103.489 10.9115 103.818 10.9115C104.148 10.9115 104.409 10.8367 104.603 10.6872C104.807 10.5282 104.929 10.2992 104.967 10H106.145C106.058 10.6451 105.801 11.1312 105.374 11.4585C104.958 11.7763 104.439 11.9353 103.818 11.9353Z" fill="#FFFEEA"/>
<path d="M112.423 20.1252H110.997V14.1371H108.394V12.875H115.026V14.1371H112.423V20.1252Z" fill="#FFFEEA"/>
<path d="M123.254 16.4507C123.254 16.6377 123.249 16.7826 123.238 16.8855H117.028C117.106 17.5305 117.368 18.0447 117.814 18.4281C118.26 18.8114 118.827 19.003 119.515 19.003C119.99 19.003 120.413 18.9142 120.781 18.7366C121.159 18.5496 121.445 18.3065 121.639 18.0074L122.977 18.2177C122.686 18.8721 122.216 19.377 121.566 19.7323C120.926 20.0875 120.214 20.2652 119.429 20.2652C118.682 20.2652 118.013 20.1062 117.422 19.7884C116.829 19.4611 116.37 19.0124 116.04 18.4421C115.71 17.8718 115.545 17.2267 115.545 16.5068C115.545 15.7776 115.71 15.1278 116.04 14.5575C116.37 13.9872 116.825 13.5431 117.406 13.2253C117.989 12.898 118.652 12.7344 119.399 12.7344C120.136 12.7344 120.795 12.898 121.377 13.2253C121.968 13.5431 122.429 13.9872 122.758 14.5575C123.088 15.1185 123.254 15.7495 123.254 16.4507ZM119.399 13.9545C118.827 13.9545 118.333 14.1181 117.916 14.4453C117.508 14.7725 117.237 15.212 117.101 15.7636H121.697C121.571 15.2213 121.299 14.7866 120.883 14.4593C120.476 14.1228 119.981 13.9545 119.399 13.9545Z" fill="#FFFEEA"/>
<path d="M133.113 16.3248C133.501 16.465 133.811 16.6941 134.043 17.012C134.286 17.3205 134.407 17.6851 134.407 18.1058C134.407 18.4891 134.291 18.8351 134.059 19.1436C133.835 19.4521 133.52 19.6952 133.113 19.8728C132.705 20.0411 132.241 20.1252 131.717 20.1252H128.125V12.875H131.586C132.08 12.875 132.522 12.9591 132.91 13.1274C133.297 13.2957 133.598 13.5247 133.811 13.8146C134.034 14.1044 134.146 14.4363 134.146 14.8102C134.146 15.1655 134.054 15.474 133.87 15.7358C133.695 15.9882 133.442 16.1846 133.113 16.3248ZM129.549 14.0389V15.8199H131.586C131.915 15.8199 132.187 15.7405 132.4 15.5815C132.614 15.4133 132.721 15.1982 132.721 14.9365C132.721 14.6747 132.614 14.4596 132.4 14.2914C132.187 14.1231 131.915 14.0389 131.586 14.0389H129.549ZM131.717 18.9613C132.095 18.9613 132.4 18.8678 132.633 18.6808C132.866 18.4938 132.982 18.2507 132.982 17.9516C132.982 17.6524 132.866 17.4093 132.633 17.2223C132.4 17.0353 132.095 16.9418 131.717 16.9418H129.549V18.9613H131.717Z" fill="#FFFEEA"/>
<path d="M65.6693 43.2692H61.5059L55.582 27H58.6511L63.3853 40.4077H63.8611L68.762 27H71.7834L65.6693 43.2692Z" fill="#FFFEEA"/>
<path d="M79.2341 34.8462L86.9422 43.2692H83.1833L76.9025 36.3H76.1889V43.2692H73.334V27H76.1889V33.6231H76.8788L82.8264 27H86.3474L79.2341 34.8462Z" fill="#FFFEEA"/>
<path d="M95.5643 43.2692H92.7808V27H97.2534L101.821 39.3H102.202L106.865 27H111.242V43.2692H108.459V30.6923H108.078L103.297 43.2692H100.632L95.9449 30.6923H95.5643V43.2692Z" fill="#FFFEEA"/>
<path d="M122.895 31.269H125.678L120.611 44.769C120.183 45.9075 119.628 46.7306 118.946 47.2383C118.28 47.746 117.383 47.9998 116.258 47.9998H114.378L114.139 45.5767H116.448C116.907 45.5767 117.256 45.4767 117.495 45.2767C117.748 45.0921 117.962 44.7613 118.136 44.2844L118.28 43.9152L112.784 31.269H115.71L119.35 39.9229H119.731L122.895 31.269Z" fill="#FFFEEA"/>
<path d="M133.808 37.1539C134.49 37.3539 135.053 37.7001 135.497 38.1924C135.958 38.6693 136.187 39.2616 136.187 39.9693C136.187 40.6309 135.973 41.2309 135.544 41.7693C135.132 42.2924 134.53 42.7155 133.737 43.0386C132.959 43.3463 132.064 43.5001 131.048 43.5001C129.7 43.5001 128.542 43.1924 127.575 42.577C126.623 41.9616 125.996 41.1463 125.695 40.1309L128.218 39.7155C128.487 40.2539 128.844 40.6463 129.288 40.8924C129.733 41.1232 130.311 41.2386 131.025 41.2386C131.802 41.2386 132.396 41.1078 132.809 40.8463C133.237 40.5847 133.452 40.2232 133.452 39.7616C133.452 38.8539 132.642 38.4001 131.025 38.4001H129.478V36.0924H131.025C131.755 36.0924 132.31 35.977 132.69 35.7463C133.071 35.5001 133.261 35.1693 133.261 34.7539C133.261 34.3078 133.062 33.9539 132.666 33.6924C132.27 33.4309 131.778 33.3001 131.191 33.3001C130.605 33.3001 130.073 33.4386 129.597 33.7155C129.137 33.9924 128.781 34.3693 128.527 34.8463L126.005 34.4309C126.369 33.3232 127.02 32.4847 127.956 31.9155C128.907 31.3309 130.018 31.0386 131.287 31.0386C132.19 31.0386 133 31.1847 133.713 31.477C134.427 31.7693 134.982 32.177 135.379 32.7001C135.791 33.2232 135.997 33.8155 135.997 34.477C135.997 35.1386 135.791 35.7078 135.379 36.1847C134.982 36.6616 134.458 36.9847 133.808 37.1539Z" fill="#FFFEEA"/>
<path d="M138.325 43.269V31.269H141.061V34.6844H142.988C143.971 34.6844 144.843 34.869 145.604 35.2383C146.366 35.5921 146.961 36.0998 147.389 36.7613C147.818 37.4075 148.031 38.146 148.031 38.9767C148.031 39.8075 147.818 40.5536 147.389 41.2152C146.961 41.8613 146.358 42.369 145.581 42.7383C144.819 43.0921 143.955 43.269 142.988 43.269H138.325ZM152.242 43.269H149.506V31.269H152.242V43.269ZM142.988 40.9613C143.669 40.9613 144.225 40.7767 144.653 40.4075C145.081 40.0383 145.295 39.5613 145.295 38.9767C145.295 38.3921 145.081 37.9152 144.653 37.546C144.225 37.1767 143.669 36.9921 142.988 36.9921H141.061V40.9613H142.988Z" fill="#FFFEEA"/>
<path d="M166.133 43.269H162.54L158.258 38.4921H157.591V43.269H154.855V31.269H157.591V35.9306H158.258L162.397 31.269H165.657L160.446 37.0383L166.133 43.269Z" fill="#FFFEEA"/>
<path d="M178.873 37.1309C178.873 37.3616 178.857 37.6463 178.825 37.9847H168.881C169.008 38.9232 169.405 39.677 170.071 40.2463C170.737 40.8001 171.585 41.077 172.616 41.077C173.314 41.077 173.94 40.9463 174.495 40.6847C175.066 40.4232 175.503 40.0693 175.804 39.6232L178.374 40.0386C177.929 41.1463 177.16 42.0001 176.065 42.6001C174.987 43.2001 173.782 43.5001 172.45 43.5001C171.213 43.5001 170.102 43.2386 169.119 42.7155C168.152 42.177 167.39 41.4386 166.835 40.5001C166.295 39.5463 166.026 38.4693 166.026 37.2693C166.026 36.0693 166.295 35.0001 166.835 34.0616C167.39 33.1078 168.152 32.3693 169.119 31.8463C170.102 31.3078 171.213 31.0386 172.45 31.0386C173.687 31.0386 174.789 31.3078 175.756 31.8463C176.74 32.3693 177.501 33.1001 178.04 34.0386C178.595 34.9616 178.873 35.9924 178.873 37.1309ZM172.45 33.3463C171.625 33.3463 170.903 33.577 170.285 34.0386C169.682 34.5001 169.269 35.1232 169.047 35.9078H175.899C175.661 35.1386 175.233 34.5232 174.614 34.0616C174.012 33.5847 173.29 33.3463 172.45 33.3463Z" fill="#FFFEEA"/>
</svg>
