<svg width="592" height="214" viewBox="0 0 592 214" fill="none" xmlns="http://www.w3.org/2000/svg">
<g filter="url(#filter0_b_533_3748)">
<ellipse cx="106.5" cy="107" rx="106.5" ry="107" fill="url(#paint0_linear_533_3748)"/>
<path d="M212 107C212 165.547 164.762 213 106.5 213C48.2384 213 1 165.547 1 107C1 48.4534 48.2384 1 106.5 1C164.762 1 212 48.4534 212 107Z" stroke="url(#paint1_linear_533_3748)" stroke-width="2"/>
</g>
<path d="M74.164 78.98C76.588 78.98 78.628 79.712 80.284 81.176C81.94 82.616 82.768 84.632 82.768 87.224C82.768 89.816 81.892 91.844 80.14 93.308C78.412 94.772 76.288 95.504 73.768 95.504C71.728 95.504 69.928 95.048 68.368 94.136C66.808 93.224 65.68 91.88 64.984 90.104L69.232 87.62C69.856 89.636 71.368 90.644 73.768 90.644C75.04 90.644 76.024 90.344 76.72 89.744C77.44 89.12 77.8 88.28 77.8 87.224C77.8 86.192 77.452 85.364 76.756 84.74C76.06 84.116 75.112 83.804 73.912 83.804H66.28L67.288 69.8H81.58V74.444H71.896L71.572 78.98H74.164ZM94.9357 95.504C91.7917 95.504 89.3197 94.316 87.5197 91.94C85.7437 89.54 84.8557 86.36 84.8557 82.4C84.8557 78.44 85.7437 75.272 87.5197 72.896C89.3197 70.496 91.7917 69.296 94.9357 69.296C98.1037 69.296 100.576 70.496 102.352 72.896C104.128 75.272 105.016 78.44 105.016 82.4C105.016 86.36 104.128 89.54 102.352 91.94C100.576 94.316 98.1037 95.504 94.9357 95.504ZM91.1197 88.556C91.9837 89.948 93.2557 90.644 94.9357 90.644C96.6157 90.644 97.8877 89.936 98.7517 88.52C99.6397 87.104 100.084 85.064 100.084 82.4C100.084 79.712 99.6397 77.66 98.7517 76.244C97.8877 74.828 96.6157 74.12 94.9357 74.12C93.2557 74.12 91.9837 74.828 91.1197 76.244C90.2557 77.66 89.8237 79.712 89.8237 82.4C89.8237 85.088 90.2557 87.14 91.1197 88.556ZM117.611 95.504C114.467 95.504 111.995 94.316 110.195 91.94C108.419 89.54 107.531 86.36 107.531 82.4C107.531 78.44 108.419 75.272 110.195 72.896C111.995 70.496 114.467 69.296 117.611 69.296C120.779 69.296 123.251 70.496 125.027 72.896C126.803 75.272 127.691 78.44 127.691 82.4C127.691 86.36 126.803 89.54 125.027 91.94C123.251 94.316 120.779 95.504 117.611 95.504ZM113.795 88.556C114.659 89.948 115.931 90.644 117.611 90.644C119.291 90.644 120.563 89.936 121.427 88.52C122.315 87.104 122.759 85.064 122.759 82.4C122.759 79.712 122.315 77.66 121.427 76.244C120.563 74.828 119.291 74.12 117.611 74.12C115.931 74.12 114.659 74.828 113.795 76.244C112.931 77.66 112.499 79.712 112.499 82.4C112.499 85.088 112.931 87.14 113.795 88.556ZM147.055 80.204V84.56H141.115V90.5H136.759V84.56H130.855V80.204H136.759V74.3H141.115V80.204H147.055Z" fill="url(#paint2_linear_533_3748)"/>
<path d="M73.0355 120.208C71.9582 120.208 71.0408 119.963 70.2835 119.472C69.5368 118.981 69.0142 118.309 68.7155 117.456L70.2995 116.528C70.7475 117.787 71.6755 118.416 73.0835 118.416C73.7768 118.416 74.2942 118.283 74.6355 118.016C74.9875 117.739 75.1635 117.381 75.1635 116.944C75.1635 116.485 74.9768 116.139 74.6035 115.904C74.2302 115.659 73.5688 115.392 72.6195 115.104C72.0862 114.944 71.6542 114.795 71.3235 114.656C70.9928 114.517 70.6408 114.325 70.2675 114.08C69.9048 113.824 69.6328 113.509 69.4515 113.136C69.2702 112.763 69.1795 112.325 69.1795 111.824C69.1795 110.832 69.5315 110.048 70.2355 109.472C70.9395 108.885 71.7875 108.592 72.7795 108.592C73.6755 108.592 74.4595 108.811 75.1315 109.248C75.8035 109.685 76.3208 110.288 76.6835 111.056L75.1315 111.952C74.6622 110.907 73.8782 110.384 72.7795 110.384C72.2462 110.384 71.8195 110.512 71.4995 110.768C71.1795 111.013 71.0195 111.349 71.0195 111.776C71.0195 112.192 71.1795 112.523 71.4995 112.768C71.8302 113.003 72.4222 113.253 73.2755 113.52C73.7022 113.659 74.0115 113.765 74.2035 113.84C74.4062 113.904 74.6835 114.011 75.0355 114.16C75.3982 114.309 75.6702 114.459 75.8515 114.608C76.0328 114.757 76.2248 114.944 76.4275 115.168C76.6408 115.392 76.7902 115.648 76.8755 115.936C76.9608 116.224 77.0035 116.549 77.0035 116.912C77.0035 117.925 76.6355 118.731 75.8995 119.328C75.1742 119.915 74.2195 120.208 73.0355 120.208ZM83.8844 112H85.6124V120H83.8844V118.976C83.3617 119.797 82.535 120.208 81.4044 120.208C80.487 120.208 79.7457 119.915 79.1804 119.328C78.615 118.741 78.3324 117.936 78.3324 116.912V112H80.0604V116.736C80.0604 117.333 80.2204 117.792 80.5404 118.112C80.8604 118.432 81.2977 118.592 81.8524 118.592C82.4604 118.592 82.951 118.405 83.3244 118.032C83.6977 117.648 83.8844 117.067 83.8844 116.288V112ZM91.409 120.208C90.2037 120.208 89.1957 119.803 88.385 118.992C87.585 118.181 87.185 117.184 87.185 116C87.185 114.805 87.585 113.808 88.385 113.008C89.1957 112.197 90.2037 111.792 91.409 111.792C92.1877 111.792 92.897 111.979 93.537 112.352C94.177 112.725 94.657 113.227 94.977 113.856L93.489 114.72C93.3077 114.336 93.0303 114.037 92.657 113.824C92.2943 113.6 91.873 113.488 91.393 113.488C90.689 113.488 90.097 113.728 89.617 114.208C89.1477 114.688 88.913 115.285 88.913 116C88.913 116.715 89.1477 117.312 89.617 117.792C90.097 118.272 90.689 118.512 91.393 118.512C91.8623 118.512 92.2837 118.4 92.657 118.176C93.041 117.952 93.329 117.653 93.521 117.28L95.009 118.128C94.6677 118.768 94.177 119.275 93.537 119.648C92.897 120.021 92.1877 120.208 91.409 120.208ZM99.909 120.208C98.7037 120.208 97.6957 119.803 96.885 118.992C96.085 118.181 95.685 117.184 95.685 116C95.685 114.805 96.085 113.808 96.885 113.008C97.6957 112.197 98.7037 111.792 99.909 111.792C100.688 111.792 101.397 111.979 102.037 112.352C102.677 112.725 103.157 113.227 103.477 113.856L101.989 114.72C101.808 114.336 101.53 114.037 101.157 113.824C100.794 113.6 100.373 113.488 99.893 113.488C99.189 113.488 98.597 113.728 98.117 114.208C97.6477 114.688 97.413 115.285 97.413 116C97.413 116.715 97.6477 117.312 98.117 117.792C98.597 118.272 99.189 118.512 99.893 118.512C100.362 118.512 100.784 118.4 101.157 118.176C101.541 117.952 101.829 117.653 102.021 117.28L103.509 118.128C103.168 118.768 102.677 119.275 102.037 119.648C101.397 120.021 100.688 120.208 99.909 120.208ZM105.993 116.736C106.121 117.344 106.414 117.813 106.873 118.144C107.332 118.464 107.892 118.624 108.553 118.624C109.47 118.624 110.158 118.293 110.617 117.632L112.041 118.464C111.252 119.627 110.084 120.208 108.537 120.208C107.236 120.208 106.185 119.813 105.385 119.024C104.585 118.224 104.185 117.216 104.185 116C104.185 114.805 104.58 113.808 105.369 113.008C106.158 112.197 107.172 111.792 108.409 111.792C109.582 111.792 110.542 112.203 111.289 113.024C112.046 113.845 112.425 114.843 112.425 116.016C112.425 116.197 112.404 116.437 112.361 116.736H105.993ZM105.977 115.328H110.681C110.564 114.677 110.292 114.187 109.865 113.856C109.449 113.525 108.958 113.36 108.393 113.36C107.753 113.36 107.22 113.536 106.793 113.888C106.366 114.24 106.094 114.72 105.977 115.328ZM115.185 114.208C115.185 114.475 115.329 114.688 115.617 114.848C115.916 114.997 116.273 115.131 116.689 115.248C117.116 115.355 117.542 115.483 117.969 115.632C118.396 115.781 118.753 116.037 119.041 116.4C119.34 116.752 119.489 117.2 119.489 117.744C119.489 118.512 119.19 119.115 118.593 119.552C118.006 119.989 117.265 120.208 116.369 120.208C115.58 120.208 114.902 120.043 114.337 119.712C113.772 119.381 113.361 118.923 113.105 118.336L114.593 117.472C114.87 118.24 115.462 118.624 116.369 118.624C117.276 118.624 117.729 118.325 117.729 117.728C117.729 117.472 117.58 117.264 117.281 117.104C116.993 116.944 116.636 116.811 116.209 116.704C115.793 116.587 115.372 116.453 114.945 116.304C114.518 116.155 114.156 115.909 113.857 115.568C113.569 115.216 113.425 114.773 113.425 114.24C113.425 113.504 113.702 112.912 114.257 112.464C114.822 112.016 115.521 111.792 116.353 111.792C117.014 111.792 117.601 111.941 118.113 112.24C118.636 112.528 119.036 112.933 119.313 113.456L117.857 114.272C117.58 113.664 117.078 113.36 116.353 113.36C116.022 113.36 115.745 113.435 115.521 113.584C115.297 113.723 115.185 113.931 115.185 114.208ZM122.076 114.208C122.076 114.475 122.22 114.688 122.508 114.848C122.806 114.997 123.164 115.131 123.58 115.248C124.006 115.355 124.433 115.483 124.86 115.632C125.286 115.781 125.644 116.037 125.932 116.4C126.23 116.752 126.38 117.2 126.38 117.744C126.38 118.512 126.081 119.115 125.484 119.552C124.897 119.989 124.156 120.208 123.26 120.208C122.47 120.208 121.793 120.043 121.228 119.712C120.662 119.381 120.252 118.923 119.996 118.336L121.484 117.472C121.761 118.24 122.353 118.624 123.26 118.624C124.166 118.624 124.62 118.325 124.62 117.728C124.62 117.472 124.47 117.264 124.172 117.104C123.884 116.944 123.526 116.811 123.1 116.704C122.684 116.587 122.262 116.453 121.836 116.304C121.409 116.155 121.046 115.909 120.748 115.568C120.46 115.216 120.316 114.773 120.316 114.24C120.316 113.504 120.593 112.912 121.148 112.464C121.713 112.016 122.412 111.792 123.244 111.792C123.905 111.792 124.492 111.941 125.004 112.24C125.526 112.528 125.926 112.933 126.204 113.456L124.748 114.272C124.47 113.664 123.969 113.36 123.244 113.36C122.913 113.36 122.636 113.435 122.412 113.584C122.188 113.723 122.076 113.931 122.076 114.208ZM131.934 110.256C130.676 110.139 130.046 110.667 130.046 111.84V112H131.934V113.664H130.046V120H128.318V113.664H127.102V112H128.318V111.84C128.318 110.741 128.622 109.909 129.23 109.344C129.849 108.768 130.75 108.517 131.934 108.592V110.256ZM138.338 112H140.066V120H138.338V118.976C137.815 119.797 136.988 120.208 135.858 120.208C134.94 120.208 134.199 119.915 133.634 119.328C133.068 118.741 132.786 117.936 132.786 116.912V112H134.514V116.736C134.514 117.333 134.674 117.792 134.994 118.112C135.314 118.432 135.751 118.592 136.306 118.592C136.914 118.592 137.404 118.405 137.778 118.032C138.151 117.648 138.338 117.067 138.338 116.288V112ZM142.086 120V108.32H143.814V120H142.086ZM82.3808 132.8C83.4368 132.8 84.3168 133.152 85.0208 133.856C85.7355 134.56 86.0928 135.435 86.0928 136.48C86.0928 137.515 85.7355 138.389 85.0208 139.104C84.3168 139.808 83.4368 140.16 82.3808 140.16H80.0928V144H78.2528V132.8H82.3808ZM82.3808 138.432C82.9248 138.432 83.3728 138.251 83.7248 137.888C84.0768 137.515 84.2528 137.045 84.2528 136.48C84.2528 135.915 84.0768 135.451 83.7248 135.088C83.3728 134.715 82.9248 134.528 82.3808 134.528H80.0928V138.432H82.3808ZM89.1501 137.344C89.5874 136.352 90.4087 135.856 91.6141 135.856V137.728C90.9527 137.685 90.3767 137.845 89.8861 138.208C89.3954 138.56 89.1501 139.147 89.1501 139.968V144H87.4221V136H89.1501V137.344ZM96.2918 144.208C95.1185 144.208 94.1211 143.803 93.2998 142.992C92.4785 142.181 92.0678 141.184 92.0678 140C92.0678 138.816 92.4785 137.819 93.2998 137.008C94.1211 136.197 95.1185 135.792 96.2918 135.792C97.4758 135.792 98.4731 136.197 99.2838 137.008C100.105 137.819 100.516 138.816 100.516 140C100.516 141.184 100.105 142.181 99.2838 142.992C98.4731 143.803 97.4758 144.208 96.2918 144.208ZM94.5158 141.808C94.9958 142.288 95.5878 142.528 96.2918 142.528C96.9958 142.528 97.5878 142.288 98.0678 141.808C98.5478 141.328 98.7878 140.725 98.7878 140C98.7878 139.275 98.5478 138.672 98.0678 138.192C97.5878 137.712 96.9958 137.472 96.2918 137.472C95.5878 137.472 94.9958 137.712 94.5158 138.192C94.0358 138.672 93.7958 139.275 93.7958 140C93.7958 140.725 94.0358 141.328 94.5158 141.808ZM103.764 134.48C103.551 134.693 103.295 134.8 102.996 134.8C102.698 134.8 102.436 134.693 102.212 134.48C101.999 134.256 101.892 133.995 101.892 133.696C101.892 133.397 101.999 133.141 102.212 132.928C102.436 132.704 102.698 132.592 102.996 132.592C103.295 132.592 103.551 132.704 103.764 132.928C103.988 133.141 104.1 133.397 104.1 133.696C104.1 133.995 103.988 134.256 103.764 134.48ZM102.132 144.32V136H103.86V144.32C103.86 146.539 102.767 147.568 100.58 147.408V145.744C101.114 145.797 101.503 145.712 101.748 145.488C102.004 145.264 102.132 144.875 102.132 144.32ZM107.235 140.736C107.363 141.344 107.657 141.813 108.115 142.144C108.574 142.464 109.134 142.624 109.795 142.624C110.713 142.624 111.401 142.293 111.859 141.632L113.283 142.464C112.494 143.627 111.326 144.208 109.779 144.208C108.478 144.208 107.427 143.813 106.627 143.024C105.827 142.224 105.427 141.216 105.427 140C105.427 138.805 105.822 137.808 106.611 137.008C107.401 136.197 108.414 135.792 109.651 135.792C110.825 135.792 111.785 136.203 112.531 137.024C113.289 137.845 113.667 138.843 113.667 140.016C113.667 140.197 113.646 140.437 113.603 140.736H107.235ZM107.219 139.328H111.923C111.806 138.677 111.534 138.187 111.107 137.856C110.691 137.525 110.201 137.36 109.635 137.36C108.995 137.36 108.462 137.536 108.035 137.888C107.609 138.24 107.337 138.72 107.219 139.328ZM118.917 144.208C117.711 144.208 116.703 143.803 115.893 142.992C115.093 142.181 114.693 141.184 114.693 140C114.693 138.805 115.093 137.808 115.893 137.008C116.703 136.197 117.711 135.792 118.917 135.792C119.695 135.792 120.405 135.979 121.045 136.352C121.685 136.725 122.165 137.227 122.485 137.856L120.997 138.72C120.815 138.336 120.538 138.037 120.165 137.824C119.802 137.6 119.381 137.488 118.901 137.488C118.197 137.488 117.605 137.728 117.125 138.208C116.655 138.688 116.421 139.285 116.421 140C116.421 140.715 116.655 141.312 117.125 141.792C117.605 142.272 118.197 142.512 118.901 142.512C119.37 142.512 119.791 142.4 120.165 142.176C120.549 141.952 120.837 141.653 121.029 141.28L122.517 142.128C122.175 142.768 121.685 143.275 121.045 143.648C120.405 144.021 119.695 144.208 118.917 144.208ZM128.23 137.664H126.246V141.504C126.246 141.835 126.32 142.075 126.47 142.224C126.619 142.363 126.838 142.443 127.126 142.464C127.424 142.475 127.792 142.469 128.23 142.448V144C126.907 144.16 125.958 144.048 125.382 143.664C124.806 143.269 124.518 142.549 124.518 141.504V137.664H123.046V136H124.518V134.272L126.246 133.76V136H128.23V137.664ZM131.052 138.208C131.052 138.475 131.196 138.688 131.484 138.848C131.783 138.997 132.14 139.131 132.556 139.248C132.983 139.355 133.41 139.483 133.836 139.632C134.263 139.781 134.62 140.037 134.908 140.4C135.207 140.752 135.356 141.2 135.356 141.744C135.356 142.512 135.058 143.115 134.46 143.552C133.874 143.989 133.132 144.208 132.236 144.208C131.447 144.208 130.77 144.043 130.204 143.712C129.639 143.381 129.228 142.923 128.972 142.336L130.46 141.472C130.738 142.24 131.33 142.624 132.236 142.624C133.143 142.624 133.596 142.325 133.596 141.728C133.596 141.472 133.447 141.264 133.148 141.104C132.86 140.944 132.503 140.811 132.076 140.704C131.66 140.587 131.239 140.453 130.812 140.304C130.386 140.155 130.023 139.909 129.724 139.568C129.436 139.216 129.292 138.773 129.292 138.24C129.292 137.504 129.57 136.912 130.124 136.464C130.69 136.016 131.388 135.792 132.22 135.792C132.882 135.792 133.468 135.941 133.98 136.24C134.503 136.528 134.903 136.933 135.18 137.456L133.724 138.272C133.447 137.664 132.946 137.36 132.22 137.36C131.89 137.36 131.612 137.435 131.388 137.584C131.164 137.723 131.052 137.931 131.052 138.208Z" fill="#F9FAFA"/>
<g filter="url(#filter1_b_533_3748)">
<circle cx="296" cy="107" r="107" fill="url(#paint3_linear_533_3748)"/>
<circle cx="296" cy="107" r="106" stroke="url(#paint4_linear_533_3748)" stroke-width="2"/>
</g>
<path d="M264.41 95V91.292L273.014 82.436C274.934 80.42 275.894 78.74 275.894 77.396C275.894 76.412 275.582 75.62 274.958 75.02C274.358 74.42 273.578 74.12 272.618 74.12C270.722 74.12 269.318 75.104 268.406 77.072L264.23 74.624C265.022 72.896 266.162 71.576 267.65 70.664C269.138 69.752 270.77 69.296 272.546 69.296C274.826 69.296 276.782 70.016 278.414 71.456C280.046 72.872 280.862 74.792 280.862 77.216C280.862 79.832 279.482 82.52 276.722 85.28L271.79 90.212H281.258V95H264.41ZM293.551 95.504C290.407 95.504 287.935 94.316 286.135 91.94C284.359 89.54 283.471 86.36 283.471 82.4C283.471 78.44 284.359 75.272 286.135 72.896C287.935 70.496 290.407 69.296 293.551 69.296C296.719 69.296 299.191 70.496 300.967 72.896C302.743 75.272 303.631 78.44 303.631 82.4C303.631 86.36 302.743 89.54 300.967 91.94C299.191 94.316 296.719 95.504 293.551 95.504ZM289.735 88.556C290.599 89.948 291.871 90.644 293.551 90.644C295.231 90.644 296.503 89.936 297.367 88.52C298.255 87.104 298.699 85.064 298.699 82.4C298.699 79.712 298.255 77.66 297.367 76.244C296.503 74.828 295.231 74.12 293.551 74.12C291.871 74.12 290.599 74.828 289.735 76.244C288.871 77.66 288.439 79.712 288.439 82.4C288.439 85.088 288.871 87.14 289.735 88.556ZM316.227 95.504C313.083 95.504 310.611 94.316 308.811 91.94C307.035 89.54 306.147 86.36 306.147 82.4C306.147 78.44 307.035 75.272 308.811 72.896C310.611 70.496 313.083 69.296 316.227 69.296C319.395 69.296 321.867 70.496 323.643 72.896C325.419 75.272 326.307 78.44 326.307 82.4C326.307 86.36 325.419 89.54 323.643 91.94C321.867 94.316 319.395 95.504 316.227 95.504ZM312.411 88.556C313.275 89.948 314.547 90.644 316.227 90.644C317.907 90.644 319.179 89.936 320.043 88.52C320.931 87.104 321.375 85.064 321.375 82.4C321.375 79.712 320.931 77.66 320.043 76.244C319.179 74.828 317.907 74.12 316.227 74.12C314.547 74.12 313.275 74.828 312.411 76.244C311.547 77.66 311.115 79.712 311.115 82.4C311.115 85.088 311.547 87.14 312.411 88.556Z" fill="url(#paint5_linear_533_3748)"/>
<path d="M273.864 114.4C273.864 115.893 273.373 117.184 272.392 118.272L273.576 119.488L272.28 120.656L271.048 119.392C270.109 119.936 269.112 120.208 268.056 120.208C266.445 120.208 265.074 119.648 263.944 118.528C262.813 117.397 262.248 116.021 262.248 114.4C262.248 112.779 262.813 111.408 263.944 110.288C265.074 109.157 266.445 108.592 268.056 108.592C269.666 108.592 271.037 109.157 272.168 110.288C273.298 111.408 273.864 112.779 273.864 114.4ZM268.056 118.416C268.653 118.416 269.213 118.293 269.736 118.048L267.688 115.952L268.984 114.784L271.128 116.976C271.725 116.24 272.024 115.381 272.024 114.4C272.024 113.259 271.64 112.304 270.872 111.536C270.104 110.768 269.165 110.384 268.056 110.384C266.946 110.384 266.008 110.768 265.24 111.536C264.472 112.304 264.088 113.259 264.088 114.4C264.088 115.541 264.472 116.496 265.24 117.264C266.008 118.032 266.946 118.416 268.056 118.416ZM280.994 112H282.722V120H280.994V118.976C280.471 119.797 279.644 120.208 278.514 120.208C277.596 120.208 276.855 119.915 276.29 119.328C275.724 118.741 275.442 117.936 275.442 116.912V112H277.17V116.736C277.17 117.333 277.33 117.792 277.65 118.112C277.97 118.432 278.407 118.592 278.962 118.592C279.57 118.592 280.06 118.405 280.434 118.032C280.807 117.648 280.994 117.067 280.994 116.288V112ZM291.078 112H292.806V120H291.078V118.848C290.428 119.755 289.494 120.208 288.278 120.208C287.18 120.208 286.241 119.803 285.462 118.992C284.684 118.171 284.294 117.173 284.294 116C284.294 114.816 284.684 113.819 285.462 113.008C286.241 112.197 287.18 111.792 288.278 111.792C289.494 111.792 290.428 112.24 291.078 113.136V112ZM286.742 117.84C287.222 118.32 287.825 118.56 288.55 118.56C289.276 118.56 289.878 118.32 290.358 117.84C290.838 117.349 291.078 116.736 291.078 116C291.078 115.264 290.838 114.656 290.358 114.176C289.878 113.685 289.276 113.44 288.55 113.44C287.825 113.44 287.222 113.685 286.742 114.176C286.262 114.656 286.022 115.264 286.022 116C286.022 116.736 286.262 117.349 286.742 117.84ZM294.821 120V108.32H296.549V120H294.821ZM300.187 110.48C299.974 110.693 299.718 110.8 299.419 110.8C299.12 110.8 298.859 110.693 298.635 110.48C298.422 110.256 298.315 109.995 298.315 109.696C298.315 109.397 298.422 109.141 298.635 108.928C298.848 108.704 299.11 108.592 299.419 108.592C299.728 108.592 299.99 108.704 300.203 108.928C300.416 109.141 300.523 109.397 300.523 109.696C300.523 109.995 300.411 110.256 300.187 110.48ZM298.555 120V112H300.283V120H298.555ZM308.977 112V120H307.249V113.664H304.593V120H302.865V113.664H301.649V112H302.865V111.84C302.865 109.675 304.071 108.592 306.481 108.592C307.047 108.592 307.639 108.661 308.257 108.8V110.384C307.692 110.299 307.1 110.256 306.481 110.256C305.841 110.256 305.367 110.373 305.057 110.608C304.748 110.843 304.593 111.253 304.593 111.84V112H308.977ZM312.337 116.736C312.465 117.344 312.758 117.813 313.217 118.144C313.675 118.464 314.235 118.624 314.897 118.624C315.814 118.624 316.502 118.293 316.961 117.632L318.385 118.464C317.595 119.627 316.427 120.208 314.881 120.208C313.579 120.208 312.529 119.813 311.729 119.024C310.929 118.224 310.529 117.216 310.529 116C310.529 114.805 310.923 113.808 311.713 113.008C312.502 112.197 313.515 111.792 314.753 111.792C315.926 111.792 316.886 112.203 317.633 113.024C318.39 113.845 318.769 114.843 318.769 116.016C318.769 116.197 318.747 116.437 318.705 116.736H312.337ZM312.321 115.328H317.025C316.907 114.677 316.635 114.187 316.209 113.856C315.793 113.525 315.302 113.36 314.737 113.36C314.097 113.36 313.563 113.536 313.137 113.888C312.71 114.24 312.438 114.72 312.321 115.328ZM326.578 108.8H328.306V120H326.578V118.848C325.928 119.755 324.994 120.208 323.778 120.208C322.68 120.208 321.741 119.803 320.962 118.992C320.184 118.171 319.794 117.173 319.794 116C319.794 114.816 320.184 113.819 320.962 113.008C321.741 112.197 322.68 111.792 323.778 111.792C324.994 111.792 325.928 112.24 326.578 113.136V108.8ZM322.242 117.84C322.722 118.32 323.325 118.56 324.05 118.56C324.776 118.56 325.378 118.32 325.858 117.84C326.338 117.349 326.578 116.736 326.578 116C326.578 115.264 326.338 114.656 325.858 114.176C325.378 113.685 324.776 113.44 324.05 113.44C323.325 113.44 322.722 113.685 322.242 114.176C321.762 114.656 321.522 115.264 321.522 116C321.522 116.736 321.762 117.349 322.242 117.84ZM261.012 144.208C259.935 144.208 259.017 143.963 258.26 143.472C257.513 142.981 256.991 142.309 256.692 141.456L258.276 140.528C258.724 141.787 259.652 142.416 261.06 142.416C261.753 142.416 262.271 142.283 262.612 142.016C262.964 141.739 263.14 141.381 263.14 140.944C263.14 140.485 262.953 140.139 262.58 139.904C262.207 139.659 261.545 139.392 260.596 139.104C260.063 138.944 259.631 138.795 259.3 138.656C258.969 138.517 258.617 138.325 258.244 138.08C257.881 137.824 257.609 137.509 257.428 137.136C257.247 136.763 257.156 136.325 257.156 135.824C257.156 134.832 257.508 134.048 258.212 133.472C258.916 132.885 259.764 132.592 260.756 132.592C261.652 132.592 262.436 132.811 263.108 133.248C263.78 133.685 264.297 134.288 264.66 135.056L263.108 135.952C262.639 134.907 261.855 134.384 260.756 134.384C260.223 134.384 259.796 134.512 259.476 134.768C259.156 135.013 258.996 135.349 258.996 135.776C258.996 136.192 259.156 136.523 259.476 136.768C259.807 137.003 260.399 137.253 261.252 137.52C261.679 137.659 261.988 137.765 262.18 137.84C262.383 137.904 262.66 138.011 263.012 138.16C263.375 138.309 263.647 138.459 263.828 138.608C264.009 138.757 264.201 138.944 264.404 139.168C264.617 139.392 264.767 139.648 264.852 139.936C264.937 140.224 264.98 140.549 264.98 140.912C264.98 141.925 264.612 142.731 263.876 143.328C263.151 143.915 262.196 144.208 261.012 144.208ZM270.997 135.792C272.096 135.792 273.034 136.203 273.813 137.024C274.592 137.835 274.981 138.827 274.981 140C274.981 141.184 274.592 142.181 273.813 142.992C273.034 143.803 272.096 144.208 270.997 144.208C269.781 144.208 268.848 143.76 268.197 142.864V147.2H266.469V136H268.197V137.152C268.848 136.245 269.781 135.792 270.997 135.792ZM268.917 141.84C269.397 142.32 270 142.56 270.725 142.56C271.45 142.56 272.053 142.32 272.533 141.84C273.013 141.349 273.253 140.736 273.253 140C273.253 139.264 273.013 138.656 272.533 138.176C272.053 137.685 271.45 137.44 270.725 137.44C270 137.44 269.397 137.685 268.917 138.176C268.437 138.656 268.197 139.264 268.197 140C268.197 140.736 268.437 141.349 268.917 141.84ZM277.907 140.736C278.035 141.344 278.328 141.813 278.787 142.144C279.246 142.464 279.806 142.624 280.467 142.624C281.384 142.624 282.072 142.293 282.531 141.632L283.955 142.464C283.166 143.627 281.998 144.208 280.451 144.208C279.15 144.208 278.099 143.813 277.299 143.024C276.499 142.224 276.099 141.216 276.099 140C276.099 138.805 276.494 137.808 277.283 137.008C278.072 136.197 279.086 135.792 280.323 135.792C281.496 135.792 282.456 136.203 283.203 137.024C283.96 137.845 284.339 138.843 284.339 140.016C284.339 140.197 284.318 140.437 284.275 140.736H277.907ZM277.891 139.328H282.595C282.478 138.677 282.206 138.187 281.779 137.856C281.363 137.525 280.872 137.36 280.307 137.36C279.667 137.36 279.134 137.536 278.707 137.888C278.28 138.24 278.008 138.72 277.891 139.328ZM289.589 144.208C288.383 144.208 287.375 143.803 286.565 142.992C285.765 142.181 285.365 141.184 285.365 140C285.365 138.805 285.765 137.808 286.565 137.008C287.375 136.197 288.383 135.792 289.589 135.792C290.367 135.792 291.077 135.979 291.717 136.352C292.357 136.725 292.837 137.227 293.157 137.856L291.669 138.72C291.487 138.336 291.21 138.037 290.837 137.824C290.474 137.6 290.053 137.488 289.573 137.488C288.869 137.488 288.277 137.728 287.797 138.208C287.327 138.688 287.093 139.285 287.093 140C287.093 140.715 287.327 141.312 287.797 141.792C288.277 142.272 288.869 142.512 289.573 142.512C290.042 142.512 290.463 142.4 290.837 142.176C291.221 141.952 291.509 141.653 291.701 141.28L293.189 142.128C292.847 142.768 292.357 143.275 291.717 143.648C291.077 144.021 290.367 144.208 289.589 144.208ZM296.07 134.48C295.856 134.693 295.6 134.8 295.302 134.8C295.003 134.8 294.742 134.693 294.518 134.48C294.304 134.256 294.198 133.995 294.198 133.696C294.198 133.397 294.304 133.141 294.518 132.928C294.731 132.704 294.992 132.592 295.302 132.592C295.611 132.592 295.872 132.704 296.086 132.928C296.299 133.141 296.406 133.397 296.406 133.696C296.406 133.995 296.294 134.256 296.07 134.48ZM294.438 144V136H296.166V144H294.438ZM304.508 136H306.236V144H304.508V142.848C303.857 143.755 302.924 144.208 301.708 144.208C300.609 144.208 299.671 143.803 298.892 142.992C298.113 142.171 297.724 141.173 297.724 140C297.724 138.816 298.113 137.819 298.892 137.008C299.671 136.197 300.609 135.792 301.708 135.792C302.924 135.792 303.857 136.24 304.508 137.136V136ZM300.172 141.84C300.652 142.32 301.255 142.56 301.98 142.56C302.705 142.56 303.308 142.32 303.788 141.84C304.268 141.349 304.508 140.736 304.508 140C304.508 139.264 304.268 138.656 303.788 138.176C303.308 137.685 302.705 137.44 301.98 137.44C301.255 137.44 300.652 137.685 300.172 138.176C299.692 138.656 299.452 139.264 299.452 140C299.452 140.736 299.692 141.349 300.172 141.84ZM308.25 144V132.32H309.978V144H308.25ZM313.617 134.48C313.403 134.693 313.147 134.8 312.849 134.8C312.55 134.8 312.289 134.693 312.065 134.48C311.851 134.256 311.745 133.995 311.745 133.696C311.745 133.397 311.851 133.141 312.065 132.928C312.278 132.704 312.539 132.592 312.849 132.592C313.158 132.592 313.419 132.704 313.633 132.928C313.846 133.141 313.953 133.397 313.953 133.696C313.953 133.995 313.841 134.256 313.617 134.48ZM311.985 144V136H313.713V144H311.985ZM317.224 138.208C317.224 138.475 317.368 138.688 317.656 138.848C317.955 138.997 318.312 139.131 318.728 139.248C319.155 139.355 319.581 139.483 320.008 139.632C320.435 139.781 320.792 140.037 321.08 140.4C321.379 140.752 321.528 141.2 321.528 141.744C321.528 142.512 321.229 143.115 320.632 143.552C320.045 143.989 319.304 144.208 318.408 144.208C317.619 144.208 316.941 144.043 316.376 143.712C315.811 143.381 315.4 142.923 315.144 142.336L316.632 141.472C316.909 142.24 317.501 142.624 318.408 142.624C319.315 142.624 319.768 142.325 319.768 141.728C319.768 141.472 319.619 141.264 319.32 141.104C319.032 140.944 318.675 140.811 318.248 140.704C317.832 140.587 317.411 140.453 316.984 140.304C316.557 140.155 316.195 139.909 315.896 139.568C315.608 139.216 315.464 138.773 315.464 138.24C315.464 137.504 315.741 136.912 316.296 136.464C316.861 136.016 317.56 135.792 318.392 135.792C319.053 135.792 319.64 135.941 320.152 136.24C320.675 136.528 321.075 136.933 321.352 137.456L319.896 138.272C319.619 137.664 319.117 137.36 318.392 137.36C318.061 137.36 317.784 137.435 317.56 137.584C317.336 137.723 317.224 137.931 317.224 138.208ZM327.199 137.664H325.215V141.504C325.215 141.835 325.289 142.075 325.439 142.224C325.588 142.363 325.807 142.443 326.095 142.464C326.393 142.475 326.761 142.469 327.199 142.448V144C325.876 144.16 324.927 144.048 324.351 143.664C323.775 143.269 323.487 142.549 323.487 141.504V137.664H322.015V136H323.487V134.272L325.215 133.76V136H327.199V137.664ZM330.021 138.208C330.021 138.475 330.165 138.688 330.453 138.848C330.752 138.997 331.109 139.131 331.525 139.248C331.952 139.355 332.378 139.483 332.805 139.632C333.232 139.781 333.589 140.037 333.877 140.4C334.176 140.752 334.325 141.2 334.325 141.744C334.325 142.512 334.026 143.115 333.429 143.552C332.842 143.989 332.101 144.208 331.205 144.208C330.416 144.208 329.738 144.043 329.173 143.712C328.608 143.381 328.197 142.923 327.941 142.336L329.429 141.472C329.706 142.24 330.298 142.624 331.205 142.624C332.112 142.624 332.565 142.325 332.565 141.728C332.565 141.472 332.416 141.264 332.117 141.104C331.829 140.944 331.472 140.811 331.045 140.704C330.629 140.587 330.208 140.453 329.781 140.304C329.354 140.155 328.992 139.909 328.693 139.568C328.405 139.216 328.261 138.773 328.261 138.24C328.261 137.504 328.538 136.912 329.093 136.464C329.658 136.016 330.357 135.792 331.189 135.792C331.85 135.792 332.437 135.941 332.949 136.24C333.472 136.528 333.872 136.933 334.149 137.456L332.693 138.272C332.416 137.664 331.914 137.36 331.189 137.36C330.858 137.36 330.581 137.435 330.357 137.584C330.133 137.723 330.021 137.931 330.021 138.208Z" fill="#F9FAFA"/>
<g filter="url(#filter2_b_533_3748)">
<ellipse cx="485.5" cy="107" rx="106.5" ry="107" fill="url(#paint6_linear_533_3748)"/>
<path d="M591 107C591 165.547 543.762 213 485.5 213C427.238 213 380 165.547 380 107C380 48.4534 427.238 1 485.5 1C543.762 1 591 48.4534 591 107Z" stroke="url(#paint7_linear_533_3748)" stroke-width="2"/>
</g>
<path d="M485.811 77.972C488.427 78.044 490.551 78.896 492.183 80.528C493.815 82.136 494.631 84.2 494.631 86.72C494.631 89.288 493.779 91.4 492.075 93.056C490.371 94.688 488.175 95.504 485.487 95.504C482.799 95.504 480.603 94.688 478.899 93.056C477.219 91.424 476.379 89.312 476.379 86.72C476.379 84.8 476.871 83.108 477.855 81.644L485.703 69.8H491.391L485.811 77.972ZM482.499 89.708C483.291 90.452 484.287 90.824 485.487 90.824C486.687 90.824 487.683 90.452 488.475 89.708C489.291 88.964 489.699 87.968 489.699 86.72C489.699 85.496 489.291 84.512 488.475 83.768C487.683 83.024 486.687 82.652 485.487 82.652C484.287 82.652 483.291 83.024 482.499 83.768C481.707 84.488 481.311 85.472 481.311 86.72C481.311 87.968 481.707 88.964 482.499 89.708Z" fill="url(#paint8_linear_533_3748)"/>
<path d="M466.728 108.8L462.824 115.552V120H460.984V115.552L457.08 108.8H459.176L461.912 113.76L464.632 108.8H466.728ZM467.587 116.736C467.715 117.344 468.008 117.813 468.467 118.144C468.925 118.464 469.485 118.624 470.147 118.624C471.064 118.624 471.752 118.293 472.211 117.632L473.635 118.464C472.845 119.627 471.677 120.208 470.131 120.208C468.829 120.208 467.779 119.813 466.979 119.024C466.179 118.224 465.779 117.216 465.779 116C465.779 114.805 466.173 113.808 466.963 113.008C467.752 112.197 468.765 111.792 470.003 111.792C471.176 111.792 472.136 112.203 472.883 113.024C473.64 113.845 474.019 114.843 474.019 116.016C474.019 116.197 473.997 116.437 473.955 116.736H467.587ZM467.571 115.328H472.275C472.157 114.677 471.885 114.187 471.459 113.856C471.043 113.525 470.552 113.36 469.987 113.36C469.347 113.36 468.813 113.536 468.387 113.888C467.96 114.24 467.688 114.72 467.571 115.328ZM481.828 112H483.556V120H481.828V118.848C481.178 119.755 480.244 120.208 479.028 120.208C477.93 120.208 476.991 119.803 476.212 118.992C475.434 118.171 475.044 117.173 475.044 116C475.044 114.816 475.434 113.819 476.212 113.008C476.991 112.197 477.93 111.792 479.028 111.792C480.244 111.792 481.178 112.24 481.828 113.136V112ZM477.492 117.84C477.972 118.32 478.575 118.56 479.3 118.56C480.026 118.56 480.628 118.32 481.108 117.84C481.588 117.349 481.828 116.736 481.828 116C481.828 115.264 481.588 114.656 481.108 114.176C480.628 113.685 480.026 113.44 479.3 113.44C478.575 113.44 477.972 113.685 477.492 114.176C477.012 114.656 476.772 115.264 476.772 116C476.772 116.736 477.012 117.349 477.492 117.84ZM487.299 113.344C487.736 112.352 488.557 111.856 489.763 111.856V113.728C489.101 113.685 488.525 113.845 488.035 114.208C487.544 114.56 487.299 115.147 487.299 115.968V120H485.571V112H487.299V113.344ZM492.31 114.208C492.31 114.475 492.454 114.688 492.742 114.848C493.041 114.997 493.398 115.131 493.814 115.248C494.241 115.355 494.667 115.483 495.094 115.632C495.521 115.781 495.878 116.037 496.166 116.4C496.465 116.752 496.614 117.2 496.614 117.744C496.614 118.512 496.315 119.115 495.718 119.552C495.131 119.989 494.39 120.208 493.494 120.208C492.705 120.208 492.027 120.043 491.462 119.712C490.897 119.381 490.486 118.923 490.23 118.336L491.718 117.472C491.995 118.24 492.587 118.624 493.494 118.624C494.401 118.624 494.854 118.325 494.854 117.728C494.854 117.472 494.705 117.264 494.406 117.104C494.118 116.944 493.761 116.811 493.334 116.704C492.918 116.587 492.497 116.453 492.07 116.304C491.643 116.155 491.281 115.909 490.982 115.568C490.694 115.216 490.55 114.773 490.55 114.24C490.55 113.504 490.827 112.912 491.382 112.464C491.947 112.016 492.646 111.792 493.478 111.792C494.139 111.792 494.726 111.941 495.238 112.24C495.761 112.528 496.161 112.933 496.438 113.456L494.982 114.272C494.705 113.664 494.203 113.36 493.478 113.36C493.147 113.36 492.87 113.435 492.646 113.584C492.422 113.723 492.31 113.931 492.31 114.208ZM503.765 110.48C503.552 110.693 503.296 110.8 502.997 110.8C502.698 110.8 502.437 110.693 502.213 110.48C502 110.256 501.893 109.995 501.893 109.696C501.893 109.397 502 109.141 502.213 108.928C502.426 108.704 502.688 108.592 502.997 108.592C503.306 108.592 503.568 108.704 503.781 108.928C503.994 109.141 504.101 109.397 504.101 109.696C504.101 109.995 503.989 110.256 503.765 110.48ZM502.133 120V112H503.861V120H502.133ZM510.075 111.792C510.993 111.792 511.734 112.085 512.299 112.672C512.865 113.259 513.147 114.064 513.147 115.088V120H511.419V115.264C511.419 114.667 511.259 114.208 510.939 113.888C510.619 113.568 510.182 113.408 509.627 113.408C509.019 113.408 508.529 113.6 508.155 113.984C507.782 114.357 507.595 114.933 507.595 115.712V120H505.867V112H507.595V113.024C508.118 112.203 508.945 111.792 510.075 111.792ZM461.993 138.192C462.484 138.448 462.868 138.8 463.145 139.248C463.423 139.696 463.561 140.213 463.561 140.8C463.561 141.717 463.236 142.48 462.585 143.088C461.935 143.696 461.14 144 460.201 144H455.401V132.8H459.849C460.767 132.8 461.54 133.099 462.169 133.696C462.809 134.283 463.129 135.019 463.129 135.904C463.129 136.875 462.751 137.637 461.993 138.192ZM459.849 134.528H457.241V137.472H459.849C460.255 137.472 460.596 137.333 460.873 137.056C461.151 136.768 461.289 136.416 461.289 136C461.289 135.584 461.151 135.237 460.873 134.96C460.596 134.672 460.255 134.528 459.849 134.528ZM460.201 142.272C460.628 142.272 460.985 142.123 461.273 141.824C461.572 141.515 461.721 141.141 461.721 140.704C461.721 140.267 461.572 139.899 461.273 139.6C460.985 139.291 460.628 139.136 460.201 139.136H457.241V142.272H460.201ZM470.603 136H472.331V144H470.603V142.976C470.08 143.797 469.254 144.208 468.123 144.208C467.206 144.208 466.464 143.915 465.899 143.328C465.334 142.741 465.051 141.936 465.051 140.912V136H466.779V140.736C466.779 141.333 466.939 141.792 467.259 142.112C467.579 142.432 468.016 142.592 468.571 142.592C469.179 142.592 469.67 142.405 470.043 142.032C470.416 141.648 470.603 141.067 470.603 140.288V136ZM475.857 138.208C475.857 138.475 476.001 138.688 476.289 138.848C476.588 138.997 476.945 139.131 477.361 139.248C477.788 139.355 478.214 139.483 478.641 139.632C479.068 139.781 479.425 140.037 479.713 140.4C480.012 140.752 480.161 141.2 480.161 141.744C480.161 142.512 479.862 143.115 479.265 143.552C478.678 143.989 477.937 144.208 477.041 144.208C476.252 144.208 475.574 144.043 475.009 143.712C474.444 143.381 474.033 142.923 473.777 142.336L475.265 141.472C475.542 142.24 476.134 142.624 477.041 142.624C477.948 142.624 478.401 142.325 478.401 141.728C478.401 141.472 478.252 141.264 477.953 141.104C477.665 140.944 477.308 140.811 476.881 140.704C476.465 140.587 476.044 140.453 475.617 140.304C475.19 140.155 474.828 139.909 474.529 139.568C474.241 139.216 474.097 138.773 474.097 138.24C474.097 137.504 474.374 136.912 474.929 136.464C475.494 136.016 476.193 135.792 477.025 135.792C477.686 135.792 478.273 135.941 478.785 136.24C479.308 136.528 479.708 136.933 479.985 137.456L478.529 138.272C478.252 137.664 477.75 137.36 477.025 137.36C476.694 137.36 476.417 137.435 476.193 137.584C475.969 137.723 475.857 137.931 475.857 138.208ZM483.218 134.48C483.005 134.693 482.749 134.8 482.45 134.8C482.151 134.8 481.89 134.693 481.666 134.48C481.453 134.256 481.346 133.995 481.346 133.696C481.346 133.397 481.453 133.141 481.666 132.928C481.879 132.704 482.141 132.592 482.45 132.592C482.759 132.592 483.021 132.704 483.234 132.928C483.447 133.141 483.554 133.397 483.554 133.696C483.554 133.995 483.442 134.256 483.218 134.48ZM481.586 144V136H483.314V144H481.586ZM489.529 135.792C490.446 135.792 491.187 136.085 491.753 136.672C492.318 137.259 492.601 138.064 492.601 139.088V144H490.873V139.264C490.873 138.667 490.713 138.208 490.393 137.888C490.073 137.568 489.635 137.408 489.081 137.408C488.473 137.408 487.982 137.6 487.609 137.984C487.235 138.357 487.049 138.933 487.049 139.712V144H485.321V136H487.049V137.024C487.571 136.203 488.398 135.792 489.529 135.792ZM495.821 140.736C495.949 141.344 496.242 141.813 496.701 142.144C497.16 142.464 497.72 142.624 498.381 142.624C499.298 142.624 499.986 142.293 500.445 141.632L501.869 142.464C501.08 143.627 499.912 144.208 498.365 144.208C497.064 144.208 496.013 143.813 495.213 143.024C494.413 142.224 494.013 141.216 494.013 140C494.013 138.805 494.408 137.808 495.197 137.008C495.986 136.197 497 135.792 498.237 135.792C499.41 135.792 500.37 136.203 501.117 137.024C501.874 137.845 502.253 138.843 502.253 140.016C502.253 140.197 502.232 140.437 502.189 140.736H495.821ZM495.805 139.328H500.509C500.392 138.677 500.12 138.187 499.693 137.856C499.277 137.525 498.786 137.36 498.221 137.36C497.581 137.36 497.048 137.536 496.621 137.888C496.194 138.24 495.922 138.72 495.805 139.328ZM505.013 138.208C505.013 138.475 505.157 138.688 505.445 138.848C505.744 138.997 506.101 139.131 506.517 139.248C506.944 139.355 507.37 139.483 507.797 139.632C508.224 139.781 508.581 140.037 508.869 140.4C509.168 140.752 509.317 141.2 509.317 141.744C509.317 142.512 509.018 143.115 508.421 143.552C507.834 143.989 507.093 144.208 506.197 144.208C505.408 144.208 504.73 144.043 504.165 143.712C503.6 143.381 503.189 142.923 502.933 142.336L504.421 141.472C504.698 142.24 505.29 142.624 506.197 142.624C507.104 142.624 507.557 142.325 507.557 141.728C507.557 141.472 507.408 141.264 507.109 141.104C506.821 140.944 506.464 140.811 506.037 140.704C505.621 140.587 505.2 140.453 504.773 140.304C504.346 140.155 503.984 139.909 503.685 139.568C503.397 139.216 503.253 138.773 503.253 138.24C503.253 137.504 503.53 136.912 504.085 136.464C504.65 136.016 505.349 135.792 506.181 135.792C506.842 135.792 507.429 135.941 507.941 136.24C508.464 136.528 508.864 136.933 509.141 137.456L507.685 138.272C507.408 137.664 506.906 137.36 506.181 137.36C505.85 137.36 505.573 137.435 505.349 137.584C505.125 137.723 505.013 137.931 505.013 138.208ZM511.904 138.208C511.904 138.475 512.048 138.688 512.336 138.848C512.634 138.997 512.992 139.131 513.408 139.248C513.834 139.355 514.261 139.483 514.688 139.632C515.114 139.781 515.472 140.037 515.76 140.4C516.058 140.752 516.208 141.2 516.208 141.744C516.208 142.512 515.909 143.115 515.312 143.552C514.725 143.989 513.984 144.208 513.088 144.208C512.298 144.208 511.621 144.043 511.056 143.712C510.49 143.381 510.08 142.923 509.824 142.336L511.312 141.472C511.589 142.24 512.181 142.624 513.088 142.624C513.994 142.624 514.448 142.325 514.448 141.728C514.448 141.472 514.298 141.264 514 141.104C513.712 140.944 513.354 140.811 512.928 140.704C512.512 140.587 512.09 140.453 511.664 140.304C511.237 140.155 510.874 139.909 510.576 139.568C510.288 139.216 510.144 138.773 510.144 138.24C510.144 137.504 510.421 136.912 510.976 136.464C511.541 136.016 512.24 135.792 513.072 135.792C513.733 135.792 514.32 135.941 514.832 136.24C515.354 136.528 515.754 136.933 516.032 137.456L514.576 138.272C514.298 137.664 513.797 137.36 513.072 137.36C512.741 137.36 512.464 137.435 512.24 137.584C512.016 137.723 511.904 137.931 511.904 138.208Z" fill="#F9FAFA"/>
<defs>
<filter id="filter0_b_533_3748" x="-72" y="-72" width="357" height="358" filterUnits="userSpaceOnUse" color-interpolation-filters="sRGB">
<feFlood flood-opacity="0" result="BackgroundImageFix"/>
<feGaussianBlur in="BackgroundImageFix" stdDeviation="36"/>
<feComposite in2="SourceAlpha" operator="in" result="effect1_backgroundBlur_533_3748"/>
<feBlend mode="normal" in="SourceGraphic" in2="effect1_backgroundBlur_533_3748" result="shape"/>
</filter>
<filter id="filter1_b_533_3748" x="117" y="-72" width="358" height="358" filterUnits="userSpaceOnUse" color-interpolation-filters="sRGB">
<feFlood flood-opacity="0" result="BackgroundImageFix"/>
<feGaussianBlur in="BackgroundImageFix" stdDeviation="36"/>
<feComposite in2="SourceAlpha" operator="in" result="effect1_backgroundBlur_533_3748"/>
<feBlend mode="normal" in="SourceGraphic" in2="effect1_backgroundBlur_533_3748" result="shape"/>
</filter>
<filter id="filter2_b_533_3748" x="307" y="-72" width="357" height="358" filterUnits="userSpaceOnUse" color-interpolation-filters="sRGB">
<feFlood flood-opacity="0" result="BackgroundImageFix"/>
<feGaussianBlur in="BackgroundImageFix" stdDeviation="36"/>
<feComposite in2="SourceAlpha" operator="in" result="effect1_backgroundBlur_533_3748"/>
<feBlend mode="normal" in="SourceGraphic" in2="effect1_backgroundBlur_533_3748" result="shape"/>
</filter>
<linearGradient id="paint0_linear_533_3748" x1="106.5" y1="0" x2="106.5" y2="214" gradientUnits="userSpaceOnUse">
<stop stop-color="#2E3F6F" stop-opacity="0.4"/>
<stop offset="1" stop-color="#2E3F6F" stop-opacity="0.32"/>
</linearGradient>
<linearGradient id="paint1_linear_533_3748" x1="0" y1="0" x2="213" y2="214" gradientUnits="userSpaceOnUse">
<stop stop-color="#5BD473"/>
<stop offset="1" stop-color="#98D45B" stop-opacity="0"/>
</linearGradient>
<linearGradient id="paint2_linear_533_3748" x1="55" y1="103" x2="158" y2="103" gradientUnits="userSpaceOnUse">
<stop stop-color="#5BD473"/>
<stop offset="1" stop-color="#98D45B"/>
</linearGradient>
<linearGradient id="paint3_linear_533_3748" x1="296" y1="0" x2="296" y2="214" gradientUnits="userSpaceOnUse">
<stop stop-color="#2E3F6F" stop-opacity="0.4"/>
<stop offset="1" stop-color="#2E3F6F" stop-opacity="0.32"/>
</linearGradient>
<linearGradient id="paint4_linear_533_3748" x1="189" y1="0" x2="401.993" y2="214.998" gradientUnits="userSpaceOnUse">
<stop stop-color="#5BD473"/>
<stop offset="1" stop-color="#98D45B" stop-opacity="0"/>
</linearGradient>
<linearGradient id="paint5_linear_533_3748" x1="244" y1="103" x2="347" y2="103" gradientUnits="userSpaceOnUse">
<stop stop-color="#5BD473"/>
<stop offset="1" stop-color="#98D45B"/>
</linearGradient>
<linearGradient id="paint6_linear_533_3748" x1="485.5" y1="0" x2="485.5" y2="214" gradientUnits="userSpaceOnUse">
<stop stop-color="#2E3F6F" stop-opacity="0.4"/>
<stop offset="1" stop-color="#2E3F6F" stop-opacity="0.32"/>
</linearGradient>
<linearGradient id="paint7_linear_533_3748" x1="379" y1="0" x2="592" y2="214" gradientUnits="userSpaceOnUse">
<stop stop-color="#5BD473"/>
<stop offset="1" stop-color="#98D45B" stop-opacity="0"/>
</linearGradient>
<linearGradient id="paint8_linear_533_3748" x1="434" y1="103" x2="537" y2="103" gradientUnits="userSpaceOnUse">
<stop stop-color="#5BD473"/>
<stop offset="1" stop-color="#98D45B"/>
</linearGradient>
</defs>
</svg>
