<svg width="158" height="80" viewBox="0 0 158 80" fill="none" xmlns="http://www.w3.org/2000/svg">
<rect x="0.142578" width="157.714" height="80" rx="8" fill="white"/>
<rect x="0.642578" y="0.5" width="156.714" height="79" rx="7.5" stroke="#132239" stroke-opacity="0.04"/>
<path fill-rule="evenodd" clip-rule="evenodd" d="M16.1002 45.4551L12.3936 34.8754H14.0143L16.8209 43.2132L19.7918 34.8754H20.9774L23.7885 43.2675L26.7099 34.8754H28.2406L24.5039 45.4551H23.1683L20.3515 37.2036L17.4208 45.4551H16.1002ZM32.2423 45.5902C31.0218 45.5902 30.0614 45.245 29.3611 44.5547C28.6607 43.8644 28.3106 42.909 28.3106 41.6884C28.3106 40.8981 28.4607 40.2077 28.7608 39.6175C29.0709 39.0272 29.4961 38.572 30.0364 38.2519C30.5866 37.9217 31.2219 37.7567 31.9422 37.7567C32.6525 37.7567 33.2478 37.9067 33.728 38.2069C34.2082 38.507 34.5734 38.9322 34.8235 39.4824C35.0736 40.0227 35.1986 40.663 35.1986 41.4033V41.8835H29.7688C29.7941 42.6921 30.0083 43.3074 30.4115 43.7293C30.8517 44.1795 31.472 44.4046 32.2723 44.4046C32.7125 44.4046 33.1227 44.3446 33.5029 44.2245C33.8931 44.0945 34.2632 43.8844 34.6134 43.5943L35.1086 44.6297C34.7585 44.9399 34.3333 45.18 33.833 45.35C33.3328 45.5101 32.8026 45.5902 32.2423 45.5902ZM30.3365 39.5725C30.0434 39.9427 29.8633 40.4229 29.7962 41.0131H33.9041C33.8767 40.3566 33.7079 39.8413 33.3978 39.4674C33.0677 39.0472 32.5875 38.8371 31.9572 38.8371C31.2569 38.8371 30.7167 39.0822 30.3365 39.5725ZM48.086 45.5902C47.3356 45.5902 46.6854 45.4351 46.1351 45.1249C45.5849 44.8048 45.1597 44.3546 44.8595 43.7743C44.5594 43.1841 44.4093 42.4838 44.4093 41.6734C44.4093 40.863 44.5594 40.1677 44.8595 39.5875C45.1597 38.9972 45.5849 38.547 46.1351 38.2369C46.6854 37.9167 47.3356 37.7567 48.086 37.7567C48.8363 37.7567 49.4866 37.9167 50.0368 38.2369C50.5971 38.547 51.0273 38.9972 51.3274 39.5875C51.6376 40.1677 51.7926 40.863 51.7926 41.6734C51.7926 42.4838 51.6376 43.1841 51.3274 43.7743C51.0273 44.3546 50.5971 44.8048 50.0368 45.1249C49.4866 45.4351 48.8363 45.5902 48.086 45.5902ZM48.086 44.4046C48.7463 44.4046 49.2715 44.1745 49.6617 43.7143C50.0518 43.2541 50.2469 42.5738 50.2469 41.6734C50.2469 40.773 50.0518 40.0977 49.6617 39.6475C49.2715 39.1873 48.7463 38.9572 48.086 38.9572C47.4357 38.9572 46.9155 39.1873 46.5253 39.6475C46.1351 40.0977 45.94 40.773 45.94 41.6734C45.94 42.5738 46.1301 43.2541 46.5103 43.7143C46.9004 44.1745 47.4257 44.4046 48.086 44.4046ZM52.2618 37.8917L55.5033 45.4551H56.8839L60.1403 37.8917H58.5946L56.218 43.6754L53.8825 37.8917H52.2618ZM64.5571 45.5902C63.3365 45.5902 62.3761 45.245 61.6758 44.5547C60.9755 43.8644 60.6253 42.909 60.6253 41.6884C60.6253 40.8981 60.7754 40.2077 61.0755 39.6175C61.3857 39.0272 61.8109 38.572 62.3511 38.2519C62.9013 37.9217 63.5366 37.7567 64.257 37.7567C64.9673 37.7567 65.5625 37.9067 66.0427 38.2069C66.523 38.507 66.8881 38.9322 67.1382 39.4824C67.3883 40.0227 67.5134 40.663 67.5134 41.4033V41.8835H62.0835C62.1088 42.6921 62.3231 43.3074 62.7263 43.7293C63.1665 44.1795 63.7867 44.4046 64.5871 44.4046C65.0273 44.4046 65.4375 44.3446 65.8176 44.2245C66.2078 44.0945 66.578 43.8844 66.9281 43.5943L67.4234 44.6297C67.0732 44.9399 66.648 45.18 66.1478 45.35C65.6476 45.5101 65.1173 45.5902 64.5571 45.5902ZM62.6512 39.5725C62.3582 39.9427 62.178 40.4229 62.1109 41.0131H66.2188C66.1914 40.3566 66.0227 39.8413 65.7126 39.4674C65.3824 39.0472 64.9022 38.8371 64.272 38.8371C63.5716 38.8371 63.0314 39.0822 62.6512 39.5725ZM81.6843 44.8548C82.1445 45.345 82.8298 45.5902 83.7402 45.5902C84.3505 45.5902 84.8857 45.4401 85.3459 45.14C85.6832 44.9126 85.9533 44.6182 86.1563 44.2565V45.4551H87.6269V37.8917H86.1112V42.1836C86.1112 42.8439 85.9262 43.3742 85.556 43.7743C85.1858 44.1745 84.7006 44.3746 84.1003 44.3746C83.5701 44.3746 83.1749 44.2245 82.9148 43.9244C82.6547 43.6243 82.5246 43.1591 82.5246 42.5288V37.8917H81.009V42.5588C81.009 43.5893 81.2341 44.3546 81.6843 44.8548ZM92.6382 45.5902C91.8178 45.5902 91.1976 45.3701 90.7774 44.9299C90.3572 44.4797 90.1471 43.8094 90.1471 42.919V39.0622H88.6764V37.8917H90.1471V35.8958L91.6628 35.4906V37.8917H93.6849H93.7637H95.1556V35.8958L96.6712 35.4906V37.8917H98.7722V39.0622H96.6712V42.7839C96.6712 43.3442 96.7713 43.7443 96.9714 43.9844C97.1715 44.2245 97.4616 44.3446 97.8418 44.3446C98.0318 44.3446 98.1969 44.3296 98.337 44.2996C98.487 44.2596 98.6221 44.2145 98.7422 44.1645V45.3951C98.5921 45.4551 98.417 45.5001 98.2169 45.5301C98.0168 45.5701 97.8268 45.5902 97.6467 45.5902C96.8263 45.5902 96.206 45.3701 95.7858 44.9299C95.3657 44.4797 95.1556 43.8094 95.1556 42.919V39.0622H93.7637H93.6849H91.6628V42.7839C91.6628 43.3442 91.7628 43.7443 91.9629 43.9844C92.163 44.2245 92.4531 44.3446 92.8333 44.3446C93.0234 44.3446 93.1884 44.3296 93.3285 44.2996C93.4786 44.2596 93.6136 44.2145 93.7337 44.1645V45.3951C93.5836 45.4551 93.4085 45.5001 93.2085 45.5301C93.0084 45.5701 92.8183 45.5902 92.6382 45.5902ZM103.43 45.5902C102.21 45.5902 101.249 45.245 100.549 44.5547C99.8486 43.8644 99.4985 42.909 99.4985 41.6884C99.4985 40.8981 99.6485 40.2077 99.9487 39.6175C100.259 39.0272 100.684 38.572 101.224 38.2519C101.774 37.9217 102.41 37.7567 103.13 37.7567C103.84 37.7567 104.436 37.9067 104.916 38.2069C105.396 38.507 105.761 38.9322 106.011 39.4824C106.261 40.0227 106.387 40.663 106.387 41.4033V41.8835H100.957C100.982 42.6921 101.196 43.3074 101.599 43.7293C102.04 44.1795 102.66 44.4046 103.46 44.4046C103.9 44.4046 104.311 44.3446 104.691 44.2245C105.081 44.0945 105.451 43.8844 105.801 43.5943L106.296 44.6297C105.946 44.9399 105.521 45.18 105.021 45.35C104.521 45.5101 103.99 45.5902 103.43 45.5902ZM101.524 39.5725C101.231 39.9427 101.051 40.4229 100.984 41.0131H105.092C105.065 40.3566 104.896 39.8413 104.586 39.4674C104.256 39.0472 103.775 38.8371 103.145 38.8371C102.445 38.8371 101.905 39.0822 101.524 39.5725ZM107.916 38.8371C107.936 39.1473 107.946 39.4574 107.946 39.7676V45.4551H109.476V41.1932C109.476 40.813 109.556 40.4579 109.716 40.1277C109.877 39.7976 110.112 39.5374 110.422 39.3474C110.732 39.1473 111.107 39.0472 111.547 39.0472C111.727 39.0472 111.877 39.0572 111.997 39.0772C112.128 39.0872 112.278 39.1273 112.448 39.1973L112.463 37.8467C112.353 37.8167 112.243 37.7967 112.133 37.7867C112.023 37.7667 111.887 37.7567 111.727 37.7567C111.347 37.7567 110.982 37.8317 110.632 37.9818C110.292 38.1318 110.002 38.3619 109.762 38.6721C109.635 38.8359 109.527 39.0221 109.44 39.2306L109.326 37.8917H107.856C107.886 38.2019 107.906 38.517 107.916 38.8371ZM128.675 45.5902C127.925 45.5902 127.275 45.4351 126.724 45.1249C126.174 44.8048 125.749 44.3546 125.449 43.7743C125.149 43.1841 124.999 42.4838 124.999 41.6734C124.999 40.863 125.149 40.1677 125.449 39.5875C125.749 38.9972 126.174 38.547 126.724 38.2369C127.275 37.9167 127.925 37.7567 128.675 37.7567C129.426 37.7567 130.076 37.9167 130.626 38.2369C131.186 38.547 131.617 38.9972 131.917 39.5875C132.227 40.1677 132.382 40.863 132.382 41.6734C132.382 42.4838 132.227 43.1841 131.917 43.7743C131.617 44.3546 131.186 44.8048 130.626 45.1249C130.076 45.4351 129.426 45.5902 128.675 45.5902ZM128.675 44.4046C129.336 44.4046 129.861 44.1745 130.251 43.7143C130.641 43.2541 130.836 42.5738 130.836 41.6734C130.836 40.773 130.641 40.0977 130.251 39.6475C129.861 39.1873 129.336 38.9572 128.675 38.9572C128.025 38.9572 127.505 39.1873 127.115 39.6475C126.724 40.0977 126.529 40.773 126.529 41.6734C126.529 42.5738 126.719 43.2541 127.1 43.7143C127.49 44.1745 128.015 44.4046 128.675 44.4046ZM133.061 37.8917L135.928 45.4551H137.338L139.329 39.9936L141.345 45.4551H142.726L145.607 37.8917H144.091L142.041 43.671L139.949 37.8917H138.779L136.68 43.6519L134.637 37.8917H133.061ZM77.467 45.4551V34.4102H78.9827V45.4551H77.467ZM36.9229 34.8754V45.4551H43.6759V44.1195H38.4836V34.8754H36.9229ZM69.2376 34.8754V45.4551H70.7983V40.758H75.6755V39.5124H70.7983V36.1209H76.0207V34.8754H69.2376ZM113.618 45.4551V34.8754H120.401V36.1209H115.178V39.5124H120.055V40.758H115.178V45.4551H113.618ZM121.847 34.4102V45.4551H123.363V34.4102H121.847Z" fill="black"/>
</svg>
