<svg width="206" height="128" viewBox="0 0 206 128" fill="none" xmlns="http://www.w3.org/2000/svg">
<g filter="url(#filter0_d_3687_2338)">
<rect x="24.1426" y="16" width="157.714" height="80" rx="8" fill="white" shape-rendering="crispEdges"/>
<rect x="24.6426" y="16.5" width="156.714" height="79" rx="7.5" stroke="#132239" stroke-opacity="0.04" shape-rendering="crispEdges"/>
<path fill-rule="evenodd" clip-rule="evenodd" d="M40.0992 61.455L36.3926 50.8752H38.0133L40.8199 59.213L43.7909 50.8752H44.9764L47.7875 59.2674L50.7089 50.8752H52.2396L48.503 61.455H47.1674L44.3505 53.2035L41.4198 61.455H40.0992ZM56.2414 61.59C55.0208 61.59 54.0604 61.2449 53.3601 60.5546C52.6598 59.8643 52.3096 58.9088 52.3096 57.6883C52.3096 56.8979 52.4597 56.2076 52.7598 55.6174C53.0699 55.0271 53.4951 54.5719 54.0354 54.2518C54.5856 53.9216 55.2209 53.7565 55.9412 53.7565C56.6515 53.7565 57.2468 53.9066 57.727 54.2067C58.2072 54.5069 58.5724 54.9321 58.8225 55.4823C59.0726 56.0225 59.1977 56.6628 59.1977 57.4032V57.8834H53.7678C53.7931 58.692 54.0074 59.3073 54.4105 59.7292C54.8507 60.1794 55.471 60.4045 56.2714 60.4045C56.7116 60.4045 57.1217 60.3445 57.5019 60.2244C57.8921 60.0944 58.2623 59.8843 58.6124 59.5941L59.1076 60.6296C58.7575 60.9397 58.3323 61.1799 57.8321 61.3499C57.3318 61.51 56.8016 61.59 56.2414 61.59ZM54.3355 55.5723C54.0424 55.9426 53.8623 56.4228 53.7952 57.013H57.9031C57.8757 56.3564 57.7069 55.8412 57.3969 55.4673C57.0667 55.0471 56.5865 54.837 55.9562 54.837C55.2559 54.837 54.7157 55.0821 54.3355 55.5723ZM72.085 61.59C71.3347 61.59 70.6844 61.435 70.1341 61.1248C69.5839 60.8047 69.1587 60.3545 68.8586 59.7742C68.5584 59.184 68.4084 58.4836 68.4084 57.6733C68.4084 56.8629 68.5584 56.1676 68.8586 55.5873C69.1587 54.9971 69.5839 54.5469 70.1341 54.2367C70.6844 53.9166 71.3347 53.7565 72.085 53.7565C72.8353 53.7565 73.4856 53.9166 74.0359 54.2367C74.5961 54.5469 75.0263 54.9971 75.3264 55.5873C75.6366 56.1676 75.7916 56.8629 75.7916 57.6733C75.7916 58.4836 75.6366 59.184 75.3264 59.7742C75.0263 60.3545 74.5961 60.8047 74.0359 61.1248C73.4856 61.435 72.8353 61.59 72.085 61.59ZM72.085 60.4045C72.7453 60.4045 73.2705 60.1744 73.6607 59.7142C74.0509 59.254 74.246 58.5737 74.246 57.6733C74.246 56.7729 74.0509 56.0976 73.6607 55.6474C73.2705 55.1872 72.7453 54.9571 72.085 54.9571C71.4347 54.9571 70.9145 55.1872 70.5243 55.6474C70.1341 56.0976 69.939 56.7729 69.939 57.6733C69.939 58.5737 70.1291 59.254 70.5093 59.7142C70.8995 60.1744 71.4247 60.4045 72.085 60.4045ZM76.2608 53.8916L79.5023 61.455H80.8829L84.1393 53.8916H82.5937L80.217 59.6753L77.8816 53.8916H76.2608ZM88.5561 61.59C87.3356 61.59 86.3751 61.2449 85.6748 60.5546C84.9745 59.8643 84.6244 58.9088 84.6244 57.6883C84.6244 56.8979 84.7744 56.2076 85.0746 55.6174C85.3847 55.0271 85.8099 54.5719 86.3501 54.2518C86.9004 53.9216 87.5357 53.7565 88.256 53.7565C88.9663 53.7565 89.5616 53.9066 90.0418 54.2067C90.522 54.5069 90.8871 54.9321 91.1373 55.4823C91.3874 56.0225 91.5124 56.6628 91.5124 57.4032V57.8834H86.0826C86.1079 58.692 86.3221 59.3073 86.7253 59.7292C87.1655 60.1794 87.7858 60.4045 88.5861 60.4045C89.0263 60.4045 89.4365 60.3445 89.8167 60.2244C90.2068 60.0944 90.577 59.8843 90.9272 59.5941L91.4224 60.6296C91.0722 60.9397 90.647 61.1799 90.1468 61.3499C89.6466 61.51 89.1164 61.59 88.5561 61.59ZM86.6503 55.5723C86.3572 55.9426 86.1771 56.4228 86.1099 57.013H90.2179C90.1904 56.3564 90.0217 55.8412 89.7116 55.4673C89.3815 55.0471 88.9013 54.837 88.271 54.837C87.5707 54.837 87.0304 55.0821 86.6503 55.5723ZM105.683 60.8547C106.143 61.3449 106.829 61.59 107.739 61.59C108.349 61.59 108.885 61.44 109.345 61.1398C109.682 60.9125 109.952 60.618 110.155 60.2564V61.455H111.626V53.8916H110.11V58.1835C110.11 58.8438 109.925 59.374 109.555 59.7742C109.185 60.1744 108.7 60.3745 108.099 60.3745C107.569 60.3745 107.174 60.2244 106.914 59.9243C106.654 59.6242 106.524 59.1589 106.524 58.5287V53.8916H105.008V58.5587C105.008 59.5891 105.233 60.3545 105.683 60.8547ZM116.637 61.59C115.817 61.59 115.197 61.3699 114.776 60.9297C114.356 60.4795 114.146 59.8092 114.146 58.9188V55.0621H112.675V53.8916H114.146V51.8957L115.662 51.4905V53.8916H117.684H117.763H119.155V51.8957L120.67 51.4905V53.8916H122.771V55.0621H120.67V58.7838C120.67 59.344 120.77 59.7442 120.97 59.9843C121.17 60.2244 121.461 60.3445 121.841 60.3445C122.031 60.3445 122.196 60.3295 122.336 60.2995C122.486 60.2594 122.621 60.2144 122.741 60.1644V61.3949C122.591 61.455 122.416 61.5 122.216 61.53C122.016 61.57 121.826 61.59 121.646 61.59C120.825 61.59 120.205 61.3699 119.785 60.9297C119.365 60.4795 119.155 59.8092 119.155 58.9188V55.0621H117.763H117.684H115.662V58.7838C115.662 59.344 115.762 59.7442 115.962 59.9843C116.162 60.2244 116.452 60.3445 116.832 60.3445C117.022 60.3445 117.187 60.3295 117.328 60.2995C117.478 60.2594 117.613 60.2144 117.733 60.1644V61.3949C117.583 61.455 117.408 61.5 117.207 61.53C117.007 61.57 116.817 61.59 116.637 61.59ZM127.429 61.59C126.209 61.59 125.248 61.2449 124.548 60.5546C123.848 59.8643 123.497 58.9088 123.497 57.6883C123.497 56.8979 123.648 56.2076 123.948 55.6174C124.258 55.0271 124.683 54.5719 125.223 54.2518C125.774 53.9216 126.409 53.7565 127.129 53.7565C127.839 53.7565 128.435 53.9066 128.915 54.2067C129.395 54.5069 129.76 54.9321 130.01 55.4823C130.26 56.0225 130.386 56.6628 130.386 57.4032V57.8834H124.956C124.981 58.692 125.195 59.3073 125.598 59.7292C126.039 60.1794 126.659 60.4045 127.459 60.4045C127.899 60.4045 128.31 60.3445 128.69 60.2244C129.08 60.0944 129.45 59.8843 129.8 59.5941L130.296 60.6296C129.945 60.9397 129.52 61.1799 129.02 61.3499C128.52 61.51 127.989 61.59 127.429 61.59ZM125.523 55.5723C125.23 55.9426 125.05 56.4228 124.983 57.013H129.091C129.064 56.3564 128.895 55.8412 128.585 55.4673C128.255 55.0471 127.774 54.837 127.144 54.837C126.444 54.837 125.904 55.0821 125.523 55.5723ZM131.915 54.837C131.935 55.1472 131.945 55.4573 131.945 55.7674V61.455H133.475V57.1931C133.475 56.8129 133.555 56.4577 133.716 56.1276C133.876 55.7974 134.111 55.5373 134.421 55.3472C134.731 55.1472 135.106 55.0471 135.546 55.0471C135.726 55.0471 135.876 55.0571 135.997 55.0771C136.127 55.0871 136.277 55.1271 136.447 55.1972L136.462 53.8466C136.352 53.8166 136.242 53.7965 136.132 53.7865C136.022 53.7665 135.886 53.7565 135.726 53.7565C135.346 53.7565 134.981 53.8316 134.631 53.9816C134.291 54.1317 134.001 54.3618 133.761 54.6719C133.634 54.8358 133.526 55.022 133.439 55.2305L133.325 53.8916H131.855C131.885 54.2017 131.905 54.5169 131.915 54.837ZM152.674 61.59C151.924 61.59 151.274 61.435 150.723 61.1248C150.173 60.8047 149.748 60.3545 149.448 59.7742C149.148 59.184 148.998 58.4836 148.998 57.6733C148.998 56.8629 149.148 56.1676 149.448 55.5873C149.748 54.9971 150.173 54.5469 150.723 54.2367C151.274 53.9166 151.924 53.7565 152.674 53.7565C153.425 53.7565 154.075 53.9166 154.625 54.2367C155.185 54.5469 155.616 54.9971 155.916 55.5873C156.226 56.1676 156.381 56.8629 156.381 57.6733C156.381 58.4836 156.226 59.184 155.916 59.7742C155.616 60.3545 155.185 60.8047 154.625 61.1248C154.075 61.435 153.425 61.59 152.674 61.59ZM152.674 60.4045C153.335 60.4045 153.86 60.1744 154.25 59.7142C154.64 59.254 154.835 58.5737 154.835 57.6733C154.835 56.7729 154.64 56.0976 154.25 55.6474C153.86 55.1872 153.335 54.9571 152.674 54.9571C152.024 54.9571 151.504 55.1872 151.114 55.6474C150.723 56.0976 150.528 56.7729 150.528 57.6733C150.528 58.5737 150.718 59.254 151.099 59.7142C151.489 60.1744 152.014 60.4045 152.674 60.4045ZM157.06 53.8916L159.927 61.455H161.337L163.328 55.9935L165.344 61.455H166.725L169.606 53.8916H168.09L166.04 59.6709L163.948 53.8916H162.778L160.679 59.6518L158.636 53.8916H157.06ZM101.466 61.455V50.41H102.982V61.455H101.466ZM60.9219 50.8752V61.455H67.6749V60.1194H62.4826V50.8752H60.9219ZM93.2367 50.8752V61.455H94.7974V56.7579H99.6745V55.5123H94.7974V52.1208H100.02V50.8752H93.2367ZM137.617 61.455V50.8752H144.4V52.1208H139.177V55.5123H144.054V56.7579H139.177V61.455H137.617ZM145.846 50.41V61.455H147.362V50.41H145.846Z" fill="black"/>
</g>
<defs>
<filter id="filter0_d_3687_2338" x="0.142578" y="0" width="205.715" height="128" filterUnits="userSpaceOnUse" color-interpolation-filters="sRGB">
<feFlood flood-opacity="0" result="BackgroundImageFix"/>
<feColorMatrix in="SourceAlpha" type="matrix" values="0 0 0 0 0 0 0 0 0 0 0 0 0 0 0 0 0 0 127 0" result="hardAlpha"/>
<feOffset dy="8"/>
<feGaussianBlur stdDeviation="12"/>
<feComposite in2="hardAlpha" operator="out"/>
<feColorMatrix type="matrix" values="0 0 0 0 0.0745098 0 0 0 0 0.133333 0 0 0 0 0.223529 0 0 0 0.04 0"/>
<feBlend mode="normal" in2="BackgroundImageFix" result="effect1_dropShadow_3687_2338"/>
<feBlend mode="normal" in="SourceGraphic" in2="effect1_dropShadow_3687_2338" result="shape"/>
</filter>
</defs>
</svg>
