<svg width="159" height="80" viewBox="0 0 159 80" fill="none" xmlns="http://www.w3.org/2000/svg">
<rect x="0.713867" width="157.714" height="80" rx="8" fill="white"/>
<rect x="1.21387" y="0.5" width="156.714" height="79" rx="7.5" stroke="#132239" stroke-opacity="0.04"/>
<g clip-path="url(#clip0_633_131)">
<path d="M51.1268 51.9194L47.9008 46.5574L44.7416 51.9194H40.9591L45.8185 43.8432L40.8662 36.3453H44.8173L47.9899 41.3513L51.0157 36.3453H54.7978L49.9255 44.0879L54.9313 51.9194H51.1268Z" fill="#100F0D"/>
<path d="M67.2251 46.6244C67.2251 50.0507 64.6444 52.1865 61.2625 52.1865C58.2811 52.1865 55.771 50.5402 55.5264 46.9581H58.7523C58.9748 48.5155 60.2208 49.183 61.5781 49.183C63.2689 49.183 63.9992 48.0483 63.9992 46.5799C63.9992 45.0447 62.8645 44.088 61.2848 44.088C59.9722 44.088 59.1045 44.711 58.704 45.3785H55.6203L56.6864 36.3454H66.8288L66.491 39.3713H59.2359L58.9479 42.3606C58.9479 42.3606 59.7102 41.4627 62.019 41.4627C64.8002 41.4627 67.2251 43.3316 67.2251 46.6244Z" fill="#100F0D"/>
<path d="M55.9088 34.4059C54.1905 27.707 48.7376 23.0005 37.4232 23.0005H23.7627L25.6171 35.5395C27.0121 46.8539 31.3394 50.494 38.9973 51.8342C39.0334 51.8398 39.2749 51.8742 39.2786 51.5903C39.2798 51.4882 39.2148 51.4 39.1263 51.3626C33.9501 49.183 33.3593 42.0364 32.2539 34.864L31.3981 29.1488H39.1965C46.3864 29.1488 51.9366 29.0352 55.4518 34.5846C55.5045 34.6631 55.5855 34.7206 55.6818 34.7206C55.8179 34.7206 55.9184 34.6102 55.9184 34.4742C55.9184 34.4505 55.915 34.4276 55.9088 34.4059Z" fill="#55B435"/>
<path d="M69.9316 44.1205C69.9316 39.2825 73.4442 35.792 78.3264 35.792C81.596 35.792 84.5562 37.6919 85.4179 40.2987L83.5843 40.9173C82.9215 38.9731 80.7345 37.5593 78.3264 37.5593C74.5929 37.5593 71.942 40.2766 71.942 44.1205C71.942 47.9203 74.615 50.7038 78.3264 50.7038C81.6844 50.7038 84.3353 48.2959 84.4237 45.1588L76.6917 45.1367V43.3473H86.4561C86.7875 48.6493 83.3854 52.4712 78.3264 52.4712C73.4442 52.4712 69.9316 48.9586 69.9316 44.1205Z" fill="#100F0D"/>
<path d="M88.873 40.7628H90.6625V42.2649H90.8613C91.3695 41.2487 92.6065 40.5418 93.8437 40.5418C94.3518 40.5418 94.8821 40.6523 95.2134 40.829V42.53C94.639 42.287 93.9763 42.1986 93.5565 42.1986C91.8776 42.1986 90.7067 43.7008 90.7067 45.91V51.9189H88.873V40.7628Z" fill="#100F0D"/>
<path d="M106.385 46.3299C106.385 43.8114 104.64 41.9778 102.232 41.9778C99.8019 41.9778 98.0787 43.8114 98.0787 46.3299C98.0787 48.8704 99.8019 50.7039 102.232 50.7039C104.64 50.7039 106.385 48.8704 106.385 46.3299ZM96.2451 46.3299C96.2451 42.8173 98.7194 40.321 102.232 40.321C105.722 40.321 108.219 42.8173 108.219 46.3299C108.219 49.8645 105.722 52.3608 102.232 52.3608C98.7194 52.3608 96.2451 49.8645 96.2451 46.3299Z" fill="#100F0D"/>
<path d="M120.55 51.9187H118.717V50.3945H118.496C117.723 51.6094 116.464 52.3164 115.005 52.3164C112.156 52.3164 110.366 50.2619 110.366 47.412V40.7625H112.2V47.412C112.2 49.3119 113.304 50.6595 115.226 50.6595C117.104 50.6595 118.717 49.2235 118.717 47.2574V40.7625H120.55V51.9187Z" fill="#100F0D"/>
<path d="M125.261 46.3298C125.261 48.7819 127.006 50.7039 129.414 50.7039C131.8 50.7039 133.545 48.7819 133.545 46.3298C133.545 43.8335 131.8 41.9777 129.414 41.9777C127.006 41.9777 125.261 43.8776 125.261 46.3298ZM135.379 46.3298C135.379 49.8203 132.882 52.3608 129.635 52.3608C127.845 52.3608 126.343 51.5875 125.526 50.2621H125.327V57H123.493V40.7628H125.327V42.4638H125.526C126.343 41.1162 127.779 40.3209 129.613 40.3209C132.86 40.3209 135.379 42.8393 135.379 46.3298Z" fill="#100F0D"/>
</g>
<defs>
<clipPath id="clip0_633_131">
<rect width="111.616" height="34" fill="white" transform="translate(23.7627 23)"/>
</clipPath>
</defs>
</svg>
