<svg width="207" height="128" viewBox="0 0 207 128" fill="none" xmlns="http://www.w3.org/2000/svg">
<g filter="url(#filter0_d_3687_2336)">
<rect x="24.7148" y="16" width="157.714" height="80" rx="8" fill="white" shape-rendering="crispEdges"/>
<rect x="25.2148" y="16.5" width="156.714" height="79" rx="7.5" stroke="#132239" stroke-opacity="0.04" shape-rendering="crispEdges"/>
<g clip-path="url(#clip0_3687_2336)">
<path d="M75.1278 67.9194L71.9018 62.5574L68.7426 67.9194H64.9601L69.8195 59.8432L64.8672 52.3453H68.8183L71.9908 57.3513L75.0166 52.3453H78.7988L73.9265 60.0879L78.9323 67.9194H75.1278Z" fill="#100F0D"/>
<path d="M91.2261 62.6243C91.2261 66.0506 88.6454 68.1864 85.2635 68.1864C82.2821 68.1864 79.772 66.5401 79.5273 62.958H82.7533C82.9758 64.5154 84.2217 65.1829 85.5791 65.1829C87.2698 65.1829 88.0001 64.0482 88.0001 62.5797C88.0001 61.0445 86.8655 60.0879 85.2857 60.0879C83.9731 60.0879 83.1054 60.7108 82.705 61.3784H79.6213L80.6873 52.3453H90.8297L90.492 55.3712H83.2369L82.9489 58.3605C82.9489 58.3605 83.7112 57.4626 86.02 57.4626C88.8012 57.4626 91.2261 59.3315 91.2261 62.6243Z" fill="#100F0D"/>
<path d="M79.9098 50.4056C78.1915 43.7067 72.7385 39.0003 61.4242 39.0003H47.7637L49.6181 51.5393C51.0131 62.8537 55.3404 66.4938 62.9983 67.8339C63.0343 67.8395 63.2759 67.874 63.2795 67.59C63.2808 67.4879 63.2158 67.3998 63.1273 67.3624C57.9511 65.1828 57.3603 58.0361 56.2549 50.8638L55.3991 45.1485H63.1974C70.3874 45.1485 75.9376 45.035 79.4528 50.5844C79.5054 50.6629 79.5864 50.7203 79.6828 50.7203C79.8188 50.7203 79.9194 50.61 79.9194 50.4739C79.9194 50.4502 79.916 50.4274 79.9098 50.4056Z" fill="#55B435"/>
<path d="M93.9316 60.1205C93.9316 55.2825 97.4442 51.792 102.326 51.792C105.596 51.792 108.556 53.6919 109.418 56.2987L107.584 56.9173C106.922 54.9731 104.734 53.5593 102.326 53.5593C98.5929 53.5593 95.942 56.2766 95.942 60.1205C95.942 63.9203 98.615 66.7038 102.326 66.7038C105.684 66.7038 108.335 64.2959 108.424 61.1588L100.692 61.1367V59.3473H110.456C110.788 64.6493 107.385 68.4712 102.326 68.4712C97.4442 68.4712 93.9316 64.9586 93.9316 60.1205Z" fill="#100F0D"/>
<path d="M112.873 56.7628H114.662V58.2649H114.861C115.37 57.2487 116.607 56.5418 117.844 56.5418C118.352 56.5418 118.882 56.6523 119.213 56.829V58.53C118.639 58.287 117.976 58.1986 117.557 58.1986C115.878 58.1986 114.707 59.7008 114.707 61.91V67.9189H112.873V56.7628Z" fill="#100F0D"/>
<path d="M130.386 62.3297C130.386 59.8112 128.641 57.9777 126.233 57.9777C123.803 57.9777 122.08 59.8112 122.08 62.3297C122.08 64.8702 123.803 66.7038 126.233 66.7038C128.641 66.7038 130.386 64.8702 130.386 62.3297ZM120.246 62.3297C120.246 58.8172 122.72 56.3209 126.233 56.3209C129.723 56.3209 132.22 58.8172 132.22 62.3297C132.22 65.8644 129.723 68.3607 126.233 68.3607C122.72 68.3607 120.246 65.8644 120.246 62.3297Z" fill="#100F0D"/>
<path d="M144.551 67.919H142.718V66.3947H142.497C141.724 67.6096 140.464 68.3167 139.006 68.3167C136.157 68.3167 134.367 66.2622 134.367 63.4122V56.7628H136.201V63.4122C136.201 65.3121 137.305 66.6598 139.227 66.6598C141.105 66.6598 142.718 65.2237 142.718 63.2577V56.7628H144.551V67.919Z" fill="#100F0D"/>
<path d="M149.262 62.3298C149.262 64.7819 151.007 66.7039 153.415 66.7039C155.801 66.7039 157.546 64.7819 157.546 62.3298C157.546 59.8335 155.801 57.9777 153.415 57.9777C151.007 57.9777 149.262 59.8776 149.262 62.3298ZM159.38 62.3298C159.38 65.8203 156.883 68.3608 153.636 68.3608C151.846 68.3608 150.344 67.5875 149.527 66.2621H149.328V73H147.494V56.7628H149.328V58.4638H149.527C150.344 57.1162 151.78 56.3209 153.614 56.3209C156.861 56.3209 159.38 58.8393 159.38 62.3298Z" fill="#100F0D"/>
</g>
</g>
<defs>
<filter id="filter0_d_3687_2336" x="0.714844" y="0" width="205.715" height="128" filterUnits="userSpaceOnUse" color-interpolation-filters="sRGB">
<feFlood flood-opacity="0" result="BackgroundImageFix"/>
<feColorMatrix in="SourceAlpha" type="matrix" values="0 0 0 0 0 0 0 0 0 0 0 0 0 0 0 0 0 0 127 0" result="hardAlpha"/>
<feOffset dy="8"/>
<feGaussianBlur stdDeviation="12"/>
<feComposite in2="hardAlpha" operator="out"/>
<feColorMatrix type="matrix" values="0 0 0 0 0.0745098 0 0 0 0 0.133333 0 0 0 0 0.223529 0 0 0 0.04 0"/>
<feBlend mode="normal" in2="BackgroundImageFix" result="effect1_dropShadow_3687_2336"/>
<feBlend mode="normal" in="SourceGraphic" in2="effect1_dropShadow_3687_2336" result="shape"/>
</filter>
<clipPath id="clip0_3687_2336">
<rect width="111.616" height="34" fill="white" transform="translate(47.7637 39)"/>
</clipPath>
</defs>
</svg>
