<svg width="168" height="41" viewBox="0 0 168 41" fill="none" xmlns="http://www.w3.org/2000/svg">
<path d="M38.4431 5.88812C37.4991 3.64794 35.6047 1.94695 33.2776 1.25008C31.7593 0.870205 30.1953 0.705346 28.6313 0.76032H11.3315C9.76744 0.705346 8.20344 0.870206 6.68516 1.25008C4.35805 1.94696 2.46365 3.64794 1.51973 5.88812C0.934039 7.644 0.676286 9.4928 0.759351 11.3421V28.6578C0.676276 30.5072 0.93403 32.356 1.51973 34.1119C2.46365 36.3521 4.35806 38.053 6.68516 38.7499C8.20344 39.1298 9.76744 39.2947 11.3315 39.2397H28.6312C30.1953 39.2947 31.7593 39.1298 33.2775 38.7499C35.6046 38.053 37.499 36.3521 38.443 34.1119C39.0287 32.356 39.2864 30.5072 39.2033 28.6578V11.3421C39.2864 9.49281 39.0287 7.64401 38.4431 5.88812Z" fill="#FFFEEA"/>
<path d="M19.6406 34.8382C26.2071 34.8382 31.5303 29.518 31.5303 22.9552C31.5303 16.3924 26.2071 11.0723 19.6406 11.0723C13.0742 11.0723 7.75098 16.3924 7.75098 22.9552C7.75098 29.518 13.0742 34.8382 19.6406 34.8382Z" fill="#FFCC00"/>
<path d="M25.5943 10.8428L25.5944 21.9594L25.5681 21.9682C25.5681 21.9729 25.5682 21.9777 25.5682 21.9824C25.5682 23.0697 25.4893 24.084 25.342 24.6016C24.6334 27.091 22.3414 28.8967 19.6233 28.8967C16.3401 28.8967 13.7134 26.2454 13.7134 22.964C13.7134 19.6826 16.3401 17.0312 19.6233 17.0312C21.1703 17.0312 22.5793 17.6218 23.6369 18.5896C23.9824 18.9058 24.2904 19.2623 24.5535 19.6516C24.4805 19.3032 24.4086 18.8648 24.4086 18.4901V9.8747V5.125L32.1464 7.49462V12.8611L25.5943 10.8428Z" fill="#FF3333"/>
<path fill-rule="evenodd" clip-rule="evenodd" d="M55.7013 29.4322H54.0224L50.822 36.6247H48.4873L52.0025 28.9335C50.3498 28.0935 49.248 26.571 49.248 23.7622C49.248 19.8247 51.7401 17.856 54.7044 17.856H57.7212V36.6247H55.7013V29.4322ZM55.7013 27.7522V19.5622H54.6257C52.9993 19.5622 51.4254 20.6385 51.4254 23.7622C51.4254 26.781 52.8681 27.7522 54.6257 27.7522H55.7013ZM77.9727 34.9447V39.2235H76.1364V36.6247H70.4702V39.2235H68.6339V34.9447H69.4471C70.6538 32.136 70.785 28.041 70.785 24.5235V23.3947H76.9234V34.9447H77.9727ZM86.8655 35.7322C86.0261 36.3885 84.9243 36.8085 83.6127 36.8085C80.8845 36.8085 79.2056 34.6297 79.2056 30.561C79.2056 26.3085 80.3861 23.211 83.193 23.211C85.3965 23.211 86.8393 24.8647 86.8393 29.3535V30.4822H81.3305C81.3305 33.4747 82.1699 35.0497 83.7963 35.0497C84.9506 35.0497 85.8687 34.5247 86.3934 34.1572L86.8655 35.7322ZM65.4335 23.3947H67.4534V36.6247H65.4335V30.6922H62.3906V36.6247H60.3444V23.3947H62.3906V29.0122H65.4335V23.3947ZM94.473 36.6247L90.984 30.036V36.6247H88.9379V23.3947H90.984V29.511L94.1582 23.3947H96.2306L92.9515 29.616L96.7027 36.6247H94.473ZM101.503 36.8085C98.6702 36.8085 96.9651 34.5247 96.9651 30.0097C96.9651 25.8622 98.5653 23.211 101.661 23.211C102.841 23.211 103.523 23.526 104.1 23.8935L103.812 25.836C103.261 25.3635 102.474 24.9172 101.634 24.9172C100.165 24.9172 99.1161 26.571 99.1161 29.9047C99.1161 33.2122 99.9031 35.1022 101.556 35.1022C102.553 35.1022 103.313 34.7085 103.786 34.2885L104.258 35.811C103.549 36.4147 102.71 36.8085 101.503 36.8085ZM74.9035 34.9447V25.0485H72.6213V25.2847C72.6213 28.0672 72.4901 32.136 71.3883 34.9447H74.9035ZM83.193 24.891C81.9338 24.891 81.4879 26.4397 81.3567 28.8022H84.7407C84.7407 26.5447 84.3734 24.891 83.193 24.891ZM111.76 19.956C111.76 20.9797 111.734 22.5022 111.682 23.7885L111.131 36.6247H110.055L110.868 17.856H112.311L115.118 29.4322C115.354 30.351 115.485 31.2435 115.564 32.031H115.616C115.695 31.2435 115.853 30.351 116.089 29.4322L118.974 17.856H120.443L121.256 36.6247H119.997L119.446 23.6835C119.368 22.2135 119.394 21.0847 119.394 19.9297H119.315C119.158 21.111 118.974 22.2135 118.686 23.316L116.062 33.6847H115.039L112.442 23.316C112.18 22.2922 111.97 21.2422 111.839 19.956H111.76ZM124.273 40.8247C123.985 40.8247 123.775 40.7985 123.591 40.7722L123.46 39.6172C123.67 39.6697 123.932 39.7222 124.273 39.7222C125.165 39.7222 125.795 38.856 126.188 37.386L126.293 36.9922L123.014 23.3947H124.247L126.346 32.031C126.582 33.0285 126.765 33.9997 126.896 35.0235H126.975C127.159 33.9735 127.369 33.0022 127.605 32.031L129.651 23.3947H130.753L127.369 37.3072C126.923 39.0922 126.136 40.8247 124.273 40.8247ZM134.924 36.8872C132.799 36.8872 131.776 35.4172 131.776 35.4172L132.195 34.3935C132.195 34.3935 133.087 35.811 134.897 35.811C136.261 35.811 137.363 34.8397 137.363 32.9235C137.363 31.2697 136.55 30.141 134.583 30.141H133.481V29.1435H134.451C135.973 29.1435 137.048 28.2247 137.048 26.4135C137.048 25.0747 136.34 24.2085 135.055 24.2085C133.848 24.2085 132.982 24.891 132.405 25.7047L132.09 24.5235C132.668 23.7622 133.638 23.1322 135.055 23.1322C137.127 23.1322 138.229 24.4447 138.229 26.3872C138.229 27.6735 137.704 28.8547 136.261 29.5635C137.914 30.1672 138.622 31.4535 138.622 32.8972C138.622 35.4697 136.943 36.8872 134.924 36.8872ZM140.8 36.6247V23.3947H142.033V28.3035H143.003C145.522 28.3035 147.148 29.6685 147.148 32.4247C147.148 35.2335 145.417 36.6247 142.925 36.6247H140.8ZM149.771 23.3947V36.6247H148.565V23.3947H149.771ZM142.951 29.2747H142.033V35.6535H142.82C144.682 35.6535 145.941 34.7347 145.941 32.451C145.941 30.2197 144.839 29.2747 142.951 29.2747ZM153.942 29.7735V36.6247H152.709V23.3947H153.942V29.616L158.375 23.3947H159.582L155.228 29.5372L159.897 36.6247H158.533L153.942 29.7735ZM161.655 30.2197C161.707 33.8422 162.651 35.811 164.566 35.811C166.324 35.811 167.242 34.3935 167.242 34.3935L167.636 35.391C167.636 35.391 166.639 36.8872 164.54 36.8872C161.733 36.8872 160.448 34.341 160.448 30.0097C160.448 25.6785 162.074 23.1322 164.304 23.1322C166.586 23.1322 168.055 25.521 167.636 30.2197H161.655ZM164.304 24.156C162.914 24.156 161.786 25.941 161.681 29.2485H166.481C166.691 25.731 165.642 24.156 164.304 24.156Z" fill="#FFFEEA"/>
<path fill-rule="evenodd" clip-rule="evenodd" d="M53.3737 4.33377H49.9459V12.1248H48.8687V3.35377H54.4509V12.1248H53.3737V4.33377ZM58.4663 12.2473C58.0909 12.2473 57.742 12.1799 57.4196 12.0451C57.0972 11.9104 56.8157 11.7062 56.5749 11.4326C56.3341 11.1591 56.1464 10.814 56.0118 10.3975C55.8771 9.98102 55.8098 9.49511 55.8098 8.93977C55.8098 8.38444 55.8771 7.90057 56.0118 7.48815C56.1464 7.07573 56.3341 6.73273 56.5749 6.45915C56.8157 6.18556 57.0972 5.9814 57.4196 5.84665C57.742 5.7119 58.0909 5.64452 58.4663 5.64452C58.8417 5.64452 59.1926 5.7119 59.5191 5.84665C59.8455 5.9814 60.1271 6.18556 60.3638 6.45915C60.6004 6.73273 60.7881 7.07573 60.9269 7.48815C61.0656 7.90057 61.135 8.38444 61.135 8.93977C61.135 9.49511 61.0656 9.98102 60.9269 10.3975C60.7881 10.814 60.6004 11.1591 60.3638 11.4326C60.1271 11.7062 59.8455 11.9104 59.5191 12.0451C59.1926 12.1799 58.8417 12.2473 58.4663 12.2473ZM58.4663 11.3285C58.6948 11.3285 58.909 11.2856 59.109 11.1999C59.3089 11.1141 59.4823 10.9774 59.6292 10.7895C59.7762 10.6017 59.8924 10.3567 59.9781 10.0545C60.0638 9.75235 60.1067 9.38078 60.1067 8.93977C60.1067 8.49877 60.0638 8.12719 59.9781 7.82502C59.8924 7.52285 59.7762 7.27786 59.6292 7.09002C59.4823 6.90219 59.3089 6.7654 59.109 6.67965C58.909 6.5939 58.6948 6.55102 58.4663 6.55102C58.2296 6.55102 58.0133 6.5939 57.8175 6.67965C57.6216 6.7654 57.4502 6.90219 57.3033 7.09002C57.1564 7.27786 57.0421 7.52285 56.9605 7.82502C56.8789 8.12719 56.8381 8.49877 56.8381 8.93977C56.8381 9.38078 56.8789 9.75235 56.9605 10.0545C57.0421 10.3567 57.1564 10.6017 57.3033 10.7895C57.4502 10.9774 57.6216 11.1141 57.8175 11.1999C58.0133 11.2856 58.2296 11.3285 58.4663 11.3285ZM64.8198 12.2473C64.4117 12.2473 64.0363 12.1799 63.6935 12.0451C63.3508 11.9104 63.057 11.7062 62.8121 11.4326C62.5673 11.1591 62.3775 10.8181 62.2429 10.4098C62.1082 10.0014 62.0409 9.51961 62.0409 8.96427C62.0409 8.4171 62.1103 7.93528 62.249 7.51877C62.3877 7.10227 62.5795 6.75519 62.8244 6.47752C63.0692 6.19986 63.361 5.99161 63.6997 5.85277C64.0384 5.71394 64.4077 5.64452 64.8076 5.64452C65.1503 5.64452 65.4625 5.68536 65.7441 5.76702C66.0256 5.84869 66.2643 5.95486 66.4602 6.08552L66.2154 6.97977C66.0521 6.85727 65.8542 6.75519 65.6216 6.67352C65.389 6.59186 65.1218 6.55102 64.8198 6.55102C64.2648 6.55102 63.8343 6.73885 63.5283 7.11452C63.2222 7.49019 63.0692 8.10677 63.0692 8.96427C63.0692 9.78094 63.2202 10.3791 63.5222 10.7589C63.8241 11.1386 64.2567 11.3285 64.8198 11.3285C65.0973 11.3285 65.3462 11.2938 65.5666 11.2244C65.7869 11.155 65.9909 11.0549 66.1786 10.9243L66.4112 11.7695C66.248 11.9002 66.0297 12.0125 65.7563 12.1064C65.4829 12.2003 65.1707 12.2473 64.8198 12.2473ZM69.1534 10.4343C69.0963 10.7201 69.0208 10.9671 68.9269 11.1754C68.8331 11.3836 68.7127 11.5551 68.5658 11.6899C68.4189 11.8246 68.2414 11.9288 68.0333 12.0023C67.8252 12.0758 67.5783 12.1248 67.2927 12.1493L67.158 11.206C67.5008 11.1734 67.7497 11.0794 67.9047 10.9243C68.0598 10.7691 68.17 10.5119 68.2353 10.1525C68.3169 9.72785 68.3761 9.16436 68.4128 8.46202C68.4495 7.75969 68.4679 6.86136 68.4679 5.76702H72.2628V12.1248H71.259V6.63677H69.4105C69.3942 7.46978 69.3697 8.19865 69.337 8.8234C69.3044 9.44815 69.2432 9.9851 69.1534 10.4343ZM74.3684 14.4155C74.246 14.4155 74.1257 14.4074 74.0073 14.391C73.889 14.3747 73.7931 14.3502 73.7196 14.3175L73.8543 13.4233C73.8951 13.4396 73.9563 13.4559 74.0379 13.4723C74.1195 13.4886 74.2297 13.4968 74.3684 13.4968C74.6051 13.4968 74.8112 13.4274 74.9867 13.2885C75.1621 13.1497 75.307 12.8965 75.4212 12.529L73.2667 5.76702H74.344L75.9599 11.157L77.5636 5.76702H78.5552L76.6087 12.0513C76.4863 12.4514 76.3557 12.8006 76.217 13.0986C76.0782 13.3967 75.9232 13.6438 75.7518 13.8398C75.5804 14.0358 75.3825 14.1807 75.158 14.2746C74.9336 14.3686 74.6704 14.4155 74.3684 14.4155ZM79.5712 5.76702H80.5751V11.255H82.5093V5.76702H83.5131V11.255H85.4473V5.76702H86.4512V12.1248H79.5712V5.76702ZM89.781 11.3285C89.9605 11.3285 90.1237 11.2999 90.2706 11.2428C90.4175 11.1856 90.5522 11.1141 90.6746 11.0284C90.797 10.9426 90.9052 10.8467 90.999 10.7405C91.0929 10.6344 91.1724 10.5282 91.2377 10.422V9.14802H90.5277C89.8911 9.14802 89.4382 9.24602 89.1689 9.44202C88.8995 9.63802 88.7649 9.92794 88.7649 10.3118C88.7649 10.9896 89.1036 11.3285 89.781 11.3285ZM91.3724 12.1248C91.3561 12.0186 91.3397 11.8716 91.3234 11.6838C91.3071 11.4959 91.2949 11.3204 91.2867 11.157C91.2051 11.2877 91.1092 11.4184 90.999 11.549C90.8888 11.6797 90.7623 11.7961 90.6195 11.8981C90.4767 12.0002 90.3155 12.0839 90.136 12.1493C89.9564 12.2146 89.7565 12.2473 89.5361 12.2473C89.2913 12.2473 89.0587 12.2064 88.8383 12.1248C88.618 12.0431 88.4282 11.9247 88.2691 11.7695C88.1099 11.6144 87.9834 11.4204 87.8896 11.1876C87.7957 10.9549 87.7488 10.6834 87.7488 10.373C87.7488 9.67885 87.9753 9.1664 88.4282 8.83565C88.8812 8.5049 89.5524 8.33952 90.442 8.33952H91.2377V7.69027C91.2377 7.27377 91.1378 6.97977 90.9378 6.80827C90.7379 6.63677 90.4012 6.55102 89.9279 6.55102C89.6177 6.55102 89.3158 6.59594 89.022 6.68577C88.7282 6.77561 88.467 6.88994 88.2385 7.02877L88.0181 6.18352C88.2385 6.04469 88.5343 5.92015 88.9057 5.8099C89.277 5.69965 89.6667 5.64452 90.0748 5.64452C90.7929 5.64452 91.3336 5.79969 91.6968 6.11002C92.06 6.42036 92.2416 6.90627 92.2416 7.56777V11.0835C92.2416 11.157 92.2436 11.2407 92.2477 11.3346C92.2518 11.4286 92.2558 11.5245 92.2599 11.6225C92.264 11.7205 92.2701 11.8144 92.2783 11.9043C92.2865 11.9941 92.2946 12.0676 92.3028 12.1248H91.3724ZM96.4283 4.93402C96.1426 4.93402 95.8937 4.89115 95.6815 4.8054C95.4693 4.71965 95.2939 4.60123 95.1551 4.45015C95.0164 4.29906 94.9123 4.12348 94.843 3.9234C94.7736 3.72331 94.7389 3.50894 94.7389 3.28027H95.7183C95.7183 3.59878 95.7815 3.82744 95.908 3.96627C96.0345 4.10511 96.2079 4.17452 96.4283 4.17452C96.6405 4.17452 96.8078 4.10511 96.9302 3.96627C97.0526 3.82744 97.1138 3.59878 97.1138 3.28027H98.0932C98.0932 3.50894 98.0585 3.72331 97.9891 3.9234C97.9197 4.12348 97.8157 4.29906 97.677 4.45015C97.5382 4.60123 97.3648 4.71965 97.1567 4.8054C96.9486 4.89115 96.7058 4.93402 96.4283 4.93402ZM93.8452 5.76702H94.8491V9.82177L94.8368 10.569L97.5178 5.76702H98.5461V12.1248H97.5423V8.49877L97.5668 7.34727L94.8858 12.1248H93.8452V5.76702ZM102.451 6.63677V12.1248H101.447V6.63677H99.7826V5.76702H104.116V6.63677H102.451ZM107.458 6.55102C107.042 6.55102 106.695 6.68985 106.418 6.96752C106.14 7.24519 105.969 7.7066 105.903 8.35177H108.756C108.772 8.0251 108.754 7.7454 108.701 7.51265C108.648 7.2799 108.562 7.09411 108.444 6.95527C108.325 6.81644 108.183 6.71436 108.015 6.64902C107.848 6.58369 107.662 6.55102 107.458 6.55102ZM109.674 11.6225C109.511 11.7532 109.264 11.89 108.933 12.0329C108.603 12.1758 108.18 12.2473 107.666 12.2473C105.789 12.2473 104.851 11.1448 104.851 8.93977C104.851 8.3926 104.916 7.91282 105.047 7.5004C105.177 7.08798 105.359 6.74498 105.591 6.4714C105.824 6.19781 106.101 5.99161 106.424 5.85277C106.746 5.71394 107.095 5.64452 107.47 5.64452C107.862 5.64452 108.215 5.71598 108.529 5.8589C108.844 6.00182 109.103 6.21823 109.307 6.50815C109.511 6.79807 109.652 7.1676 109.729 7.61677C109.807 8.06594 109.805 8.59677 109.723 9.20927H105.879C105.912 9.96878 106.077 10.5119 106.375 10.8385C106.673 11.1652 107.124 11.3285 107.728 11.3285C108.119 11.3285 108.454 11.2652 108.731 11.1386C109.009 11.0121 109.241 10.8712 109.429 10.716L109.674 11.6225ZM116.909 9.27052H114.35V12.1248H113.347V5.76702H114.35V8.40077H116.909V5.76702H117.913V12.1248H116.909V9.27052ZM121.243 11.3285C121.422 11.3285 121.585 11.2999 121.732 11.2428C121.879 11.1856 122.014 11.1141 122.136 11.0284C122.259 10.9426 122.367 10.8467 122.461 10.7405C122.554 10.6344 122.634 10.5282 122.699 10.422V9.14802H121.989C121.353 9.14802 120.9 9.24602 120.63 9.44202C120.361 9.63802 120.226 9.92794 120.226 10.3118C120.226 10.9896 120.565 11.3285 121.243 11.3285ZM122.834 12.1248C122.818 12.0186 122.801 11.8716 122.785 11.6838C122.769 11.4959 122.756 11.3204 122.748 11.157C122.667 11.2877 122.571 11.4184 122.461 11.549C122.35 11.6797 122.224 11.7961 122.081 11.8981C121.938 12.0002 121.777 12.0839 121.598 12.1493C121.418 12.2146 121.218 12.2473 120.998 12.2473C120.753 12.2473 120.52 12.2064 120.3 12.1248C120.08 12.0431 119.89 11.9247 119.731 11.7695C119.572 11.6144 119.445 11.4204 119.351 11.1876C119.257 10.9549 119.21 10.6834 119.21 10.373C119.21 9.67885 119.437 9.1664 119.89 8.83565C120.343 8.5049 121.014 8.33952 121.904 8.33952H122.699V7.69027C122.699 7.27377 122.599 6.97977 122.399 6.80827C122.199 6.63677 121.863 6.55102 121.389 6.55102C121.079 6.55102 120.777 6.59594 120.484 6.68577C120.19 6.77561 119.929 6.88994 119.7 7.02877L119.48 6.18352C119.7 6.04469 119.996 5.92015 120.367 5.8099C120.739 5.69965 121.128 5.64452 121.536 5.64452C122.255 5.64452 122.795 5.79969 123.158 6.11002C123.522 6.42036 123.703 6.90627 123.703 7.56777V11.0835C123.703 11.157 123.705 11.2407 123.709 11.3346C123.713 11.4286 123.717 11.5245 123.722 11.6225C123.726 11.7205 123.732 11.8144 123.74 11.9043C123.748 11.9941 123.756 12.0676 123.764 12.1248H122.834Z" fill="#FFFEEA"/>
</svg>
