<svg width="207" height="128" viewBox="0 0 207 128" fill="none" xmlns="http://www.w3.org/2000/svg">
<g filter="url(#filter0_d_3687_3077)">
<rect x="24.8574" y="16" width="157.714" height="80" rx="8" fill="white" shape-rendering="crispEdges"/>
<rect x="25.3574" y="16.5" width="156.714" height="79" rx="7.5" stroke="#132239" stroke-opacity="0.04" shape-rendering="crispEdges"/>
<path d="M110.247 66C111.835 66 113.139 65.2569 114.053 63.8745L114.224 65.7141H117.344V46H113.973V53.1197C113.127 51.8396 111.87 51.1654 110.396 51.1654C107.139 51.1654 104.864 53.9202 104.864 58.6858C104.864 63.3824 107.071 66 110.248 66H110.247ZM130.99 64.754V62C129.938 62.7083 128.179 63.3367 126.533 63.3367C124.064 63.3367 123.127 62.1712 122.99 59.7939H131.126V58C131.126 53.0407 128.944 51.1654 125.573 51.1654C121.458 51.1654 119.505 54.3084 119.505 58.6284C119.505 63.5878 121.938 66 126.259 66C128.407 66 129.996 65.4281 130.99 64.754ZM94.6475 55.4738C95.2759 54.7082 96.2593 54.0573 97.482 54.0573C98.67 54.0573 99.2077 54.5711 99.2077 55.6459V65.7141H102.579V55.3026C102.579 52.4688 101.447 51.2228 98.6932 51.2228C96.6816 51.2228 95.4929 51.9659 94.8071 52.6401H94.6366L94.5561 51.4514H91.2635V65.7141H94.6351V55.4746L94.6475 55.4738ZM88.522 55.9884C88.522 52.5254 86.7614 51.2228 83.1845 51.2228C80.9675 51.2228 79.1845 52.1604 78.1678 52.8911V55.8171C79.2418 54.9368 80.8877 53.9202 82.7963 53.9202C84.408 53.9202 85.1504 54.4913 85.1504 56.0225V56.9252H84.6134C79.448 56.9252 77.1504 58.5943 77.1504 61.5769C77.1504 64.3309 78.9102 65.9194 81.5161 65.9194C83.5045 65.9194 84.3507 65.2685 85.0016 64.5827H85.1388C85.162 64.9485 85.2759 65.4281 85.3906 65.7141H88.6816C88.5678 64.5557 88.5107 63.3925 88.5103 62.2286V55.9884H88.522ZM141.367 65.7141H145.173L140.521 58.3657L144.544 51.4514H141.173L138.738 55.7598L136.018 51.4514H132.201L136.51 58.2859L132.03 65.7141H135.459L138.327 60.8911L141.367 65.7141ZM111.242 53.8287C113.059 53.8287 113.962 55.2801 113.962 58.5602C113.962 61.8745 113.001 63.3258 111.093 63.3258C109.253 63.3258 108.338 61.9078 108.338 58.6742C108.35 55.3034 109.31 53.8287 111.242 53.8287ZM125.515 53.8287C127.184 53.8287 127.698 55.2228 127.698 57.0058V57.2917H122.99C123.07 55.0174 123.893 53.828 125.516 53.828L125.515 53.8287ZM85.1504 62.3076C84.7273 62.9361 83.9276 63.439 82.7389 63.439C81.3216 63.439 80.6134 62.616 80.6134 61.37C80.6134 59.7249 81.7788 59.1538 84.67 59.1538H85.1504V62.3076Z" fill="black"/>
<path d="M72.1528 62.3658V65.7141H68.7247V60.0682L62.2559 46H65.8328L70.8727 57.0058C71.8444 59.1089 72.1528 59.8396 72.1528 62.3658ZM78.5984 46L74.393 55.5312H70.9075L75.1129 46H78.5984Z" fill="#FC3F1D"/>
</g>
<defs>
<filter id="filter0_d_3687_3077" x="0.857422" y="0" width="205.715" height="128" filterUnits="userSpaceOnUse" color-interpolation-filters="sRGB">
<feFlood flood-opacity="0" result="BackgroundImageFix"/>
<feColorMatrix in="SourceAlpha" type="matrix" values="0 0 0 0 0 0 0 0 0 0 0 0 0 0 0 0 0 0 127 0" result="hardAlpha"/>
<feOffset dy="8"/>
<feGaussianBlur stdDeviation="12"/>
<feComposite in2="hardAlpha" operator="out"/>
<feColorMatrix type="matrix" values="0 0 0 0 0.0745098 0 0 0 0 0.133333 0 0 0 0 0.223529 0 0 0 0.04 0"/>
<feBlend mode="normal" in2="BackgroundImageFix" result="effect1_dropShadow_3687_3077"/>
<feBlend mode="normal" in="SourceGraphic" in2="effect1_dropShadow_3687_3077" result="shape"/>
</filter>
</defs>
</svg>
