<svg width="188" height="60" viewBox="0 0 188 60" fill="none" xmlns="http://www.w3.org/2000/svg">
<path d="M48.4431 15.8881C47.4991 13.6479 45.6047 11.947 43.2776 11.2501C41.7593 10.8702 40.1953 10.7053 38.6313 10.7603H21.3315C19.7674 10.7053 18.2034 10.8702 16.6852 11.2501C14.3581 11.947 12.4636 13.6479 11.5197 15.8881C10.934 17.644 10.6763 19.4928 10.7594 21.3421V38.6578C10.6763 40.5072 10.934 42.356 11.5197 44.1119C12.4637 46.3521 14.3581 48.053 16.6852 48.7499C18.2034 49.1298 19.7674 49.2947 21.3315 49.2397H38.6312C40.1953 49.2947 41.7593 49.1298 43.2775 48.7499C45.6046 48.053 47.499 46.3521 48.443 44.1119C49.0287 42.356 49.2864 40.5072 49.2033 38.6578V21.3421C49.2864 19.4928 49.0287 17.644 48.4431 15.8881Z" fill="#FFFEEA"/>
<path d="M29.6406 44.8382C36.2071 44.8382 41.5303 39.518 41.5303 32.9552C41.5303 26.3924 36.2071 21.0723 29.6406 21.0723C23.0742 21.0723 17.751 26.3924 17.751 32.9552C17.751 39.518 23.0742 44.8382 29.6406 44.8382Z" fill="#FFCC00"/>
<path d="M35.5943 20.8428L35.5944 31.9594L35.5681 31.9682C35.5681 31.9729 35.5682 31.9777 35.5682 31.9824C35.5682 33.0697 35.4893 34.084 35.342 34.6016C34.6334 37.091 32.3414 38.8967 29.6233 38.8967C26.3401 38.8967 23.7134 36.2454 23.7134 32.964C23.7134 29.6826 26.3401 27.0312 29.6233 27.0312C31.1703 27.0312 32.5793 27.6218 33.6369 28.5896C33.9824 28.9058 34.2904 29.2623 34.5535 29.6516C34.4805 29.3032 34.4086 28.8648 34.4086 28.4901V19.8747V15.125L42.1464 17.4946V22.8611L35.5943 20.8428Z" fill="#FF3333"/>
<path fill-rule="evenodd" clip-rule="evenodd" d="M65.4327 36.9019H63.7538L60.5534 44.0944H58.2188L61.7339 36.4032C60.0813 35.5632 58.9795 34.0407 58.9795 31.2319C58.9795 27.2944 61.4716 25.3257 64.4359 25.3257H67.4526V44.0944H65.4327V36.9019ZM65.4327 35.2219V27.0319H64.3572C62.7307 27.0319 61.1568 28.1082 61.1568 31.2319C61.1568 34.2507 62.5996 35.2219 64.3572 35.2219H65.4327ZM87.7041 42.4144V46.6932H85.8679V44.0944H80.2016V46.6932H78.3654V42.4144H79.1786C80.3853 39.6057 80.5164 35.5107 80.5164 31.9932V30.8644H86.6548V42.4144H87.7041ZM96.597 43.2019C95.7575 43.8582 94.6558 44.2782 93.3441 44.2782C90.616 44.2782 88.9371 42.0994 88.9371 38.0307C88.9371 33.7782 90.1175 30.6807 92.9244 30.6807C95.128 30.6807 96.5707 32.3344 96.5707 36.8232V37.9519H91.0619C91.0619 40.9444 91.9014 42.5194 93.5278 42.5194C94.682 42.5194 95.6001 41.9944 96.1248 41.6269L96.597 43.2019ZM75.165 30.8644H77.1849V44.0944H75.165V38.1619H72.122V44.0944H70.0759V30.8644H72.122V36.4819H75.165V30.8644ZM104.204 44.0944L100.715 37.5057V44.0944H98.6694V30.8644H100.715V36.9807L103.89 30.8644H105.962L102.683 37.0857L106.434 44.0944H104.204ZM111.235 44.2782C108.402 44.2782 106.697 41.9944 106.697 37.4794C106.697 33.3319 108.297 30.6807 111.392 30.6807C112.573 30.6807 113.255 30.9957 113.832 31.3632L113.543 33.3057C112.992 32.8332 112.205 32.3869 111.366 32.3869C109.897 32.3869 108.848 34.0407 108.848 37.3744C108.848 40.6819 109.635 42.5719 111.287 42.5719C112.284 42.5719 113.045 42.1782 113.517 41.7582L113.989 43.2807C113.281 43.8844 112.441 44.2782 111.235 44.2782ZM84.6349 42.4144V32.5182H82.3527V32.7544C82.3527 35.5369 82.2215 39.6057 81.1198 42.4144H84.6349ZM92.9244 32.3607C91.6653 32.3607 91.2193 33.9094 91.0881 36.2719H94.4721C94.4721 34.0144 94.1049 32.3607 92.9244 32.3607ZM121.492 27.4257C121.492 28.4494 121.465 29.9719 121.413 31.2582L120.862 44.0944H119.787L120.6 25.3257H122.043L124.849 36.9019C125.086 37.8207 125.217 38.7132 125.295 39.5007H125.348C125.427 38.7132 125.584 37.8207 125.82 36.9019L128.706 25.3257H130.175L130.988 44.0944H129.729L129.178 31.1532C129.099 29.6832 129.125 28.5544 129.125 27.3994H129.047C128.889 28.5807 128.706 29.6832 128.417 30.7857L125.794 41.1544H124.771L122.174 30.7857C121.911 29.7619 121.702 28.7119 121.57 27.4257H121.492ZM134.005 48.2944C133.716 48.2944 133.506 48.2682 133.323 48.2419L133.191 47.0869C133.401 47.1394 133.664 47.1919 134.005 47.1919C134.897 47.1919 135.526 46.3257 135.92 44.8557L136.025 44.4619L132.745 30.8644H133.978L136.077 39.5007C136.313 40.4982 136.497 41.4694 136.628 42.4932H136.707C136.89 41.4432 137.1 40.4719 137.336 39.5007L139.382 30.8644H140.484L137.1 44.7769C136.654 46.5619 135.867 48.2944 134.005 48.2944ZM144.655 44.3569C142.53 44.3569 141.507 42.8869 141.507 42.8869L141.927 41.8632C141.927 41.8632 142.819 43.2807 144.629 43.2807C145.993 43.2807 147.095 42.3094 147.095 40.3932C147.095 38.7394 146.281 37.6107 144.314 37.6107H143.212V36.6132H144.183C145.704 36.6132 146.78 35.6944 146.78 33.8832C146.78 32.5444 146.072 31.6782 144.786 31.6782C143.579 31.6782 142.714 32.3607 142.137 33.1744L141.822 31.9932C142.399 31.2319 143.37 30.6019 144.786 30.6019C146.859 30.6019 147.96 31.9144 147.96 33.8569C147.96 35.1432 147.436 36.3244 145.993 37.0332C147.646 37.6369 148.354 38.9232 148.354 40.3669C148.354 42.9394 146.675 44.3569 144.655 44.3569ZM150.531 44.0944V30.8644H151.764V35.7732H152.735C155.253 35.7732 156.879 37.1382 156.879 39.8944C156.879 42.7032 155.148 44.0944 152.656 44.0944H150.531ZM159.503 30.8644V44.0944H158.296V30.8644H159.503ZM152.682 36.7444H151.764V43.1232H152.551C154.414 43.1232 155.673 42.2044 155.673 39.9207C155.673 37.6894 154.571 36.7444 152.682 36.7444ZM163.674 37.2432V44.0944H162.441V30.8644H163.674V37.0857L168.107 30.8644H169.314L164.959 37.0069L169.628 44.0944H168.264L163.674 37.2432ZM171.386 37.6894C171.438 41.3119 172.383 43.2807 174.298 43.2807C176.055 43.2807 176.974 41.8632 176.974 41.8632L177.367 42.8607C177.367 42.8607 176.37 44.3569 174.272 44.3569C171.465 44.3569 170.179 41.8107 170.179 37.4794C170.179 33.1482 171.806 30.6019 174.035 30.6019C176.318 30.6019 177.787 32.9907 177.367 37.6894H171.386ZM174.035 31.6257C172.645 31.6257 171.517 33.4107 171.412 36.7182H176.213C176.423 33.2007 175.373 31.6257 174.035 31.6257Z" fill="#FFFEEA"/>
<path fill-rule="evenodd" clip-rule="evenodd" d="M63.1051 11.8035H59.6774V19.5945H58.6001V10.8235H64.1824V19.5945H63.1051V11.8035ZM68.1977 19.717C67.8223 19.717 67.4734 19.6496 67.151 19.5149C66.8287 19.3801 66.5471 19.176 66.3063 18.9024C66.0656 18.6288 65.8779 18.2838 65.7432 17.8672C65.6086 17.4507 65.5412 16.9648 65.5412 16.4095C65.5412 15.8542 65.6086 15.3703 65.7432 14.9579C65.8779 14.5455 66.0656 14.2025 66.3063 13.9289C66.5471 13.6553 66.8287 13.4511 67.151 13.3164C67.4734 13.1816 67.8223 13.1142 68.1977 13.1142C68.5731 13.1142 68.9241 13.1816 69.2505 13.3164C69.577 13.4511 69.8585 13.6553 70.0952 13.9289C70.3319 14.2025 70.5196 14.5455 70.6583 14.9579C70.7971 15.3703 70.8664 15.8542 70.8664 16.4095C70.8664 16.9648 70.7971 17.4507 70.6583 17.8672C70.5196 18.2838 70.3319 18.6288 70.0952 18.9024C69.8585 19.176 69.577 19.3801 69.2505 19.5149C68.9241 19.6496 68.5731 19.717 68.1977 19.717ZM68.1977 18.7982C68.4262 18.7982 68.6405 18.7554 68.8404 18.6696C69.0404 18.5839 69.2138 18.4471 69.3607 18.2592C69.5076 18.0714 69.6239 17.8264 69.7096 17.5242C69.7953 17.2221 69.8381 16.8505 69.8381 16.4095C69.8381 15.9685 69.7953 15.5969 69.7096 15.2947C69.6239 14.9926 69.5076 14.7476 69.3607 14.5597C69.2138 14.3719 69.0404 14.2351 68.8404 14.1494C68.6405 14.0636 68.4262 14.0207 68.1977 14.0207C67.961 14.0207 67.7448 14.0636 67.5489 14.1494C67.353 14.2351 67.1816 14.3719 67.0347 14.5597C66.8878 14.7476 66.7736 14.9926 66.692 15.2947C66.6104 15.5969 66.5695 15.9685 66.5695 16.4095C66.5695 16.8505 66.6104 17.2221 66.692 17.5242C66.7736 17.8264 66.8878 18.0714 67.0347 18.2592C67.1816 18.4471 67.353 18.5839 67.5489 18.6696C67.7448 18.7554 67.961 18.7982 68.1977 18.7982ZM74.5512 19.717C74.1432 19.717 73.7678 19.6496 73.425 19.5149C73.0822 19.3801 72.7884 19.176 72.5436 18.9024C72.2987 18.6288 72.109 18.2878 71.9743 17.8795C71.8397 17.4712 71.7723 16.9893 71.7723 16.434C71.7723 15.8868 71.8417 15.405 71.9805 14.9885C72.1192 14.572 72.311 14.2249 72.5558 13.9472C72.8007 13.6696 73.0924 13.4613 73.4311 13.3225C73.7698 13.1837 74.1391 13.1142 74.539 13.1142C74.8818 13.1142 75.1939 13.1551 75.4755 13.2367C75.7571 13.3184 75.9958 13.4246 76.1917 13.5552L75.9468 14.4495C75.7836 14.327 75.5857 14.2249 75.3531 14.1432C75.1205 14.0616 74.8532 14.0207 74.5512 14.0207C73.9963 14.0207 73.5658 14.2086 73.2597 14.5842C72.9537 14.9599 72.8007 15.5765 72.8007 16.434C72.8007 17.2507 72.9516 17.8489 73.2536 18.2286C73.5556 18.6084 73.9881 18.7982 74.5512 18.7982C74.8287 18.7982 75.0776 18.7635 75.298 18.6941C75.5184 18.6247 75.7224 18.5247 75.9101 18.394L76.1427 19.2392C75.9795 19.3699 75.7611 19.4822 75.4877 19.5761C75.2143 19.67 74.9022 19.717 74.5512 19.717ZM78.8849 17.904C78.8277 18.1898 78.7522 18.4369 78.6584 18.6451C78.5645 18.8534 78.4442 19.0249 78.2973 19.1596C78.1503 19.2944 77.9728 19.3985 77.7647 19.472C77.5566 19.5455 77.3097 19.5945 77.0241 19.619L76.8894 18.6757C77.2322 18.6431 77.4811 18.5492 77.6362 18.394C77.7913 18.2388 77.9014 17.9816 77.9667 17.6222C78.0483 17.1976 78.1075 16.6341 78.1442 15.9317C78.181 15.2294 78.1993 14.3311 78.1993 13.2367H81.9943V19.5945H80.9905V14.1065H79.1419C79.1256 14.9395 79.1011 15.6684 79.0685 16.2931C79.0358 16.9179 78.9746 17.4548 78.8849 17.904ZM84.0999 21.8852C83.9775 21.8852 83.8571 21.8771 83.7388 21.8607C83.6204 21.8444 83.5245 21.8199 83.4511 21.7872L83.5857 20.893C83.6265 20.9093 83.6878 20.9257 83.7694 20.942C83.851 20.9583 83.9612 20.9665 84.0999 20.9665C84.3366 20.9665 84.5426 20.8971 84.7181 20.7582C84.8936 20.6194 85.0384 20.3663 85.1527 19.9987L82.9981 13.2367H84.0754L85.6913 18.6267L87.295 13.2367H88.2866L86.3402 19.521C86.2177 19.9212 86.0872 20.2703 85.9484 20.5684C85.8097 20.8665 85.6546 21.1135 85.4832 21.3095C85.3118 21.5055 85.1139 21.6505 84.8895 21.7444C84.6651 21.8383 84.4019 21.8852 84.0999 21.8852ZM89.3027 13.2367H90.3065V18.7247H92.2407V13.2367H93.2446V18.7247H95.1788V13.2367H96.1826V19.5945H89.3027V13.2367ZM99.5124 18.7982C99.6919 18.7982 99.8552 18.7697 100.002 18.7125C100.149 18.6553 100.284 18.5839 100.406 18.4981C100.528 18.4124 100.637 18.3164 100.73 18.2102C100.824 18.1041 100.904 17.9979 100.969 17.8917V16.6177H100.259C99.6226 16.6177 99.1696 16.7157 98.9003 16.9117C98.631 17.1078 98.4963 17.3977 98.4963 17.7815C98.4963 18.4593 98.835 18.7982 99.5124 18.7982ZM101.104 19.5945C101.088 19.4883 101.071 19.3413 101.055 19.1535C101.039 18.9657 101.026 18.7901 101.018 18.6267C100.937 18.7574 100.841 18.8881 100.73 19.0187C100.62 19.1494 100.494 19.2658 100.351 19.3679C100.208 19.47 100.047 19.5537 99.8674 19.619C99.6879 19.6843 99.4879 19.717 99.2676 19.717C99.0227 19.717 98.7901 19.6762 98.5698 19.5945C98.3494 19.5128 98.1597 19.3944 98.0005 19.2392C97.8414 19.0841 97.7149 18.8901 97.621 18.6574C97.5272 18.4246 97.4802 18.1531 97.4802 17.8427C97.4802 17.1486 97.7067 16.6361 98.1597 16.3054C98.6126 15.9746 99.2839 15.8092 100.173 15.8092H100.969V15.16C100.969 14.7435 100.869 14.4495 100.669 14.278C100.469 14.1065 100.133 14.0207 99.6593 14.0207C99.3492 14.0207 99.0472 14.0657 98.7534 14.1555C98.4596 14.2453 98.1984 14.3597 97.9699 14.4985L97.7496 13.6532C97.9699 13.5144 98.2658 13.3899 98.6371 13.2796C99.0084 13.1694 99.3981 13.1142 99.8062 13.1142C100.524 13.1142 101.065 13.2694 101.428 13.5797C101.791 13.8901 101.973 14.376 101.973 15.0375V18.5532C101.973 18.6268 101.975 18.7105 101.979 18.8044C101.983 18.8983 101.987 18.9942 101.991 19.0922C101.995 19.1902 102.002 19.2842 102.01 19.374C102.018 19.4638 102.026 19.5373 102.034 19.5945H101.104ZM106.16 12.4037C105.874 12.4037 105.625 12.3609 105.413 12.2751C105.201 12.1894 105.025 12.071 104.887 11.9199C104.748 11.7688 104.644 11.5932 104.574 11.3931C104.505 11.193 104.47 10.9787 104.47 10.75H105.45C105.45 11.0685 105.513 11.2972 105.639 11.436C105.766 11.5748 105.939 11.6443 106.16 11.6443C106.372 11.6443 106.539 11.5748 106.662 11.436C106.784 11.2972 106.845 11.0685 106.845 10.75H107.825C107.825 10.9787 107.79 11.193 107.721 11.3931C107.651 11.5932 107.547 11.7688 107.408 11.9199C107.27 12.071 107.096 12.1894 106.888 12.2751C106.68 12.3609 106.437 12.4037 106.16 12.4037ZM103.577 13.2367H104.581V17.2915L104.568 18.0387L107.249 13.2367H108.278V19.5945H107.274V15.9685L107.298 14.817L104.617 19.5945H103.577V13.2367ZM112.183 14.1065V19.5945H111.179V14.1065H109.514V13.2367H113.848V14.1065H112.183ZM117.19 14.0207C116.773 14.0207 116.427 14.1596 116.149 14.4372C115.872 14.7149 115.7 15.1763 115.635 15.8215H118.487C118.504 15.4948 118.485 15.2151 118.432 14.9824C118.379 14.7496 118.293 14.5638 118.175 14.425C118.057 14.2862 117.914 14.1841 117.747 14.1187C117.579 14.0534 117.394 14.0207 117.19 14.0207ZM119.405 19.0922C119.242 19.2229 118.995 19.3597 118.665 19.5026C118.334 19.6455 117.912 19.717 117.398 19.717C115.521 19.717 114.582 18.6145 114.582 16.4095C114.582 15.8623 114.647 15.3825 114.778 14.9701C114.909 14.5577 115.09 14.2147 115.323 13.9411C115.555 13.6675 115.833 13.4613 116.155 13.3225C116.478 13.1837 116.826 13.1142 117.202 13.1142C117.594 13.1142 117.947 13.1857 118.261 13.3286C118.575 13.4715 118.834 13.688 119.038 13.9779C119.242 14.2678 119.383 14.6373 119.461 15.0865C119.538 15.5357 119.536 16.0665 119.454 16.679H115.61C115.643 17.4385 115.808 17.9816 116.106 18.3082C116.404 18.6349 116.855 18.7982 117.459 18.7982C117.851 18.7982 118.185 18.735 118.463 18.6084C118.74 18.4818 118.973 18.3409 119.161 18.1857L119.405 19.0922ZM126.64 16.7402H124.082V19.5945H123.078V13.2367H124.082V15.8705H126.64V13.2367H127.644V19.5945H126.64V16.7402ZM130.974 18.7982C131.154 18.7982 131.317 18.7697 131.464 18.7125C131.611 18.6553 131.745 18.5839 131.868 18.4981C131.99 18.4124 132.098 18.3164 132.192 18.2102C132.286 18.1041 132.365 17.9979 132.431 17.8917V16.6177H131.721C131.084 16.6177 130.631 16.7157 130.362 16.9117C130.093 17.1078 129.958 17.3977 129.958 17.7815C129.958 18.4593 130.297 18.7982 130.974 18.7982ZM132.565 19.5945C132.549 19.4883 132.533 19.3413 132.516 19.1535C132.5 18.9657 132.488 18.7901 132.48 18.6267C132.398 18.7574 132.302 18.8881 132.192 19.0187C132.082 19.1494 131.955 19.2658 131.813 19.3679C131.67 19.47 131.509 19.5537 131.329 19.619C131.149 19.6843 130.949 19.717 130.729 19.717C130.484 19.717 130.252 19.6762 130.031 19.5945C129.811 19.5128 129.621 19.3944 129.462 19.2392C129.303 19.0841 129.176 18.8901 129.083 18.6574C128.989 18.4246 128.942 18.1531 128.942 17.8427C128.942 17.1486 129.168 16.6361 129.621 16.3054C130.074 15.9746 130.745 15.8092 131.635 15.8092H132.431V15.16C132.431 14.7435 132.331 14.4495 132.131 14.278C131.931 14.1065 131.594 14.0207 131.121 14.0207C130.811 14.0207 130.509 14.0657 130.215 14.1555C129.921 14.2453 129.66 14.3597 129.432 14.4985L129.211 13.6532C129.432 13.5144 129.727 13.3899 130.099 13.2796C130.47 13.1694 130.86 13.1142 131.268 13.1142C131.986 13.1142 132.527 13.2694 132.89 13.5797C133.253 13.8901 133.435 14.376 133.435 15.0375V18.5532C133.435 18.6268 133.437 18.7105 133.441 18.8044C133.445 18.8983 133.449 18.9942 133.453 19.0922C133.457 19.1902 133.463 19.2842 133.471 19.374C133.479 19.4638 133.488 19.5373 133.496 19.5945H132.565Z" fill="#FFFEEA"/>
</svg>
