<svg width="159" height="80" viewBox="0 0 159 80" fill="none" xmlns="http://www.w3.org/2000/svg">
<rect x="0.857422" width="157.714" height="80" rx="8" fill="white"/>
<rect x="1.35742" y="0.5" width="156.714" height="79" rx="7.5" stroke="#132239" stroke-opacity="0.04"/>
<path d="M86.2469 50C87.8354 50 89.1388 49.2569 90.0531 47.8745L90.2244 49.7141H93.3441V30H89.9733V37.1197C89.1272 35.8396 87.8703 35.1654 86.3956 35.1654C83.1388 35.1654 80.8645 37.9202 80.8645 42.6858C80.8645 47.3824 83.0706 50 86.2476 50H86.2469ZM106.99 48.754V46C105.938 46.7083 104.179 47.3367 102.533 47.3367C100.064 47.3367 99.1272 46.1712 98.99 43.7939H107.126V42C107.126 37.0407 104.944 35.1654 101.573 35.1654C97.458 35.1654 95.5045 38.3084 95.5045 42.6284C95.5045 47.5878 97.9385 50 102.259 50C104.407 50 105.996 49.4281 106.99 48.754ZM70.6475 39.4738C71.2759 38.7082 72.2593 38.0573 73.482 38.0573C74.67 38.0573 75.2077 38.5711 75.2077 39.6459V49.7141H78.5785V39.3026C78.5785 36.4688 77.4472 35.2228 74.6932 35.2228C72.6816 35.2228 71.4929 35.9659 70.8071 36.6401H70.6366L70.5561 35.4514H67.2635V49.7141H70.6351V39.4746L70.6475 39.4738ZM64.522 39.9884C64.522 36.5254 62.7614 35.2228 59.1845 35.2228C56.9675 35.2228 55.1845 36.1604 54.1678 36.8911V39.8171C55.2418 38.9368 56.8877 37.9202 58.7963 37.9202C60.408 37.9202 61.1504 38.4913 61.1504 40.0225V40.9252H60.6134C55.448 40.9252 53.1504 42.5943 53.1504 45.5769C53.1504 48.3309 54.9102 49.9194 57.5161 49.9194C59.5045 49.9194 60.3507 49.2685 61.0016 48.5827H61.1388C61.162 48.9485 61.2759 49.4281 61.3906 49.7141H64.6816C64.5678 48.5557 64.5107 47.3925 64.5103 46.2286V39.9884H64.522ZM117.367 49.7141H121.173L116.521 42.3657L120.544 35.4514H117.173L114.738 39.7598L112.018 35.4514H108.201L112.51 42.2859L108.03 49.7141H111.459L114.327 44.8911L117.367 49.7141ZM87.2418 37.8287C89.059 37.8287 89.9617 39.2801 89.9617 42.5602C89.9617 45.8745 89.0008 47.3258 87.0931 47.3258C85.2527 47.3258 84.3383 45.9078 84.3383 42.6742C84.3499 39.3034 85.31 37.8287 87.2418 37.8287ZM101.515 37.8287C103.184 37.8287 103.698 39.2228 103.698 41.0058V41.2917H98.99C99.0698 39.0174 99.8927 37.828 101.516 37.828L101.515 37.8287ZM61.1504 46.3076C60.7273 46.9361 59.9276 47.439 58.7389 47.439C57.3216 47.439 56.6134 46.616 56.6134 45.37C56.6134 43.7249 57.7788 43.1538 60.67 43.1538H61.1504V46.3076Z" fill="black"/>
<path d="M48.1528 46.3658V49.7141H44.7247V44.0682L38.2559 30H41.8328L46.8727 41.0058C47.8444 43.1089 48.1528 43.8396 48.1528 46.3658ZM54.5984 30L50.393 39.5312H46.9075L51.1129 30H54.5984Z" fill="#FC3F1D"/>
</svg>
