<svg width="159" height="80" viewBox="0 0 159 80" fill="none" xmlns="http://www.w3.org/2000/svg">
<rect x="0.571289" width="157.714" height="80" rx="8" fill="white"/>
<rect x="1.07129" y="0.5" width="156.714" height="79" rx="7.5" stroke="#132239" stroke-opacity="0.04"/>
<path fill-rule="evenodd" clip-rule="evenodd" d="M34.4894 34.581V37.8212L28.9028 43.4078V37.2626L27.2268 35.5866L16.6123 35.5866L16.6123 30L29.9084 30L34.4894 34.581ZM16.6123 45.419L16.6123 42.1788L22.1989 36.5922L22.1989 42.7374L23.8749 44.4134H34.4894V50H21.1933L18.9028 47.7095L16.6123 45.419Z" fill="url(#paint0_linear_633_158)"/>
<path fill-rule="evenodd" clip-rule="evenodd" d="M112.037 45.8093C112.757 46.2714 113.566 46.5024 114.461 46.5024C115.091 46.5024 115.623 46.3974 116.057 46.1874C116.498 45.9773 116.858 45.7148 117.138 45.3998C117.418 45.0777 117.631 44.7557 117.778 44.4336H117.925V46.3134H121.126V30.666H117.873V36.5574H117.778C117.638 36.2354 117.432 35.9098 117.159 35.5808C116.886 35.2517 116.529 34.9787 116.088 34.7616C115.647 34.5376 115.098 34.4256 114.44 34.4256C113.587 34.4256 112.799 34.6496 112.079 35.0977C111.358 35.5388 110.781 36.2074 110.347 37.1035C109.913 37.9996 109.696 39.1198 109.696 40.464C109.696 41.7662 109.906 42.8689 110.326 43.772C110.746 44.6681 111.316 45.3472 112.037 45.8093ZM116.812 43.4885C116.449 43.7755 116.004 43.919 115.479 43.919C114.955 43.919 114.507 43.772 114.136 43.478C113.772 43.1839 113.496 42.7779 113.307 42.2598C113.118 41.7347 113.023 41.1326 113.023 40.4535C113.023 39.7744 113.118 39.1793 113.307 38.6682C113.496 38.1502 113.772 37.7441 114.136 37.45C114.5 37.156 114.948 37.009 115.479 37.009C116.004 37.009 116.452 37.1525 116.823 37.4395C117.194 37.7196 117.474 38.1186 117.663 38.6367C117.852 39.1478 117.946 39.7534 117.946 40.4535C117.946 41.1466 117.848 41.7522 117.652 42.2703C117.463 42.7884 117.183 43.1944 116.812 43.4885ZM70.0834 34.9822C69.5796 35.3532 69.2192 35.9028 69.0023 36.6309H68.8764V34.5726H65.738V46.3134H68.9813V39.6764C68.9813 39.2003 69.0863 38.7802 69.2962 38.4162C69.5131 38.0451 69.8105 37.7581 70.1884 37.5551C70.5663 37.345 70.9896 37.24 71.4584 37.24C71.6893 37.24 71.9378 37.2575 72.2037 37.2925C72.4766 37.3205 72.69 37.359 72.8439 37.408V34.5306C72.697 34.4886 72.529 34.4606 72.3401 34.4466C72.1582 34.4256 71.9832 34.4151 71.8153 34.4151C71.1645 34.4151 70.5872 34.6041 70.0834 34.9822ZM58.968 46.5444C57.7644 46.5444 56.7253 46.2994 55.8506 45.8093C54.9759 45.3192 54.3042 44.6226 53.8353 43.7195C53.3735 42.8094 53.1426 41.7347 53.1426 40.4955C53.1426 39.2913 53.3735 38.2342 53.8353 37.324C54.3042 36.4139 54.9619 35.7033 55.8086 35.1922C56.6623 34.6811 57.663 34.4256 58.8105 34.4256C59.5873 34.4256 60.3115 34.5516 60.9832 34.8036C61.655 35.0487 62.2428 35.4197 62.7466 35.9168C63.2504 36.4069 63.6423 37.0265 63.9222 37.7756C64.2021 38.5177 64.342 39.3893 64.342 40.3905V41.2726H56.3473C56.3675 41.8294 56.4784 42.3124 56.6798 42.7218C56.9037 43.1699 57.2151 43.5165 57.614 43.7615C58.0198 43.9995 58.4852 44.1186 59.01 44.1186C59.3738 44.1186 59.7027 44.066 59.9966 43.961C60.2905 43.856 60.5424 43.702 60.7523 43.499C60.9693 43.2959 61.1302 43.0509 61.2352 42.7639L64.2371 42.9634C64.0901 43.6845 63.7822 44.3146 63.3134 44.8537C62.8516 45.3858 62.2533 45.8023 61.5186 46.1034C60.7838 46.3974 59.9336 46.5444 58.968 46.5444ZM56.6378 38.2167C56.491 38.5314 56.3992 38.8814 56.3624 39.2668H61.2305C61.1919 38.8867 61.1095 38.5437 60.9832 38.2377C60.8013 37.7966 60.5284 37.457 60.1645 37.219C59.8077 36.974 59.3633 36.8515 58.8315 36.8515C58.2997 36.8515 57.8484 36.974 57.4775 37.219C57.1137 37.464 56.8338 37.7966 56.6378 38.2167ZM51.9565 36.7044L46.572 43.625V43.709H52.156V46.3134H42.3105V44.3706L48.052 37.261V37.177H42.4995V34.5726H51.9565V36.7044ZM78.5538 46.5444C77.3713 46.5444 76.3461 46.2924 75.4785 45.7883C74.6178 45.2772 73.953 44.5701 73.4842 43.667C73.0224 42.7569 72.7914 41.6997 72.7914 40.4955C72.7914 39.2773 73.0224 38.2167 73.4842 37.3135C73.953 36.4034 74.6178 35.6963 75.4785 35.1922C76.3461 34.6811 77.3713 34.4256 78.5538 34.4256C79.7434 34.4256 80.7685 34.6811 81.6292 35.1922C82.4969 35.6963 83.1617 36.4034 83.6235 37.3135C84.0923 38.2167 84.3267 39.2773 84.3267 40.4955C84.3267 41.6997 84.0923 42.7569 83.6235 43.667C83.1617 44.5701 82.4969 45.2772 81.6292 45.7883C80.7685 46.2924 79.7434 46.5444 78.5538 46.5444ZM78.5748 44.003C79.1136 44.003 79.565 43.8525 79.9288 43.5515C80.2927 43.2434 80.5656 42.8234 80.7475 42.2913C80.9365 41.7592 81.0309 41.1536 81.0309 40.4745C81.0309 39.7884 80.9365 39.1828 80.7475 38.6577C80.5656 38.1326 80.2927 37.7196 79.9288 37.4185C79.565 37.1175 79.1136 36.967 78.5748 36.967C78.029 36.967 77.5707 37.1175 77.1998 37.4185C76.836 37.7196 76.5596 38.1326 76.3706 38.6577C76.1887 39.1828 76.0977 39.7884 76.0977 40.4745C76.0977 41.1536 76.1887 41.7592 76.3706 42.2913C76.5596 42.8234 76.836 43.2434 77.1998 43.5515C77.5707 43.8525 78.029 44.003 78.5748 44.003ZM87.9584 45.7778C88.8191 46.2889 89.8477 46.5444 91.0443 46.5444C92.0939 46.5444 93.0001 46.3554 93.7628 45.9773C94.5255 45.5923 95.1238 45.0602 95.5577 44.3811C95.9915 43.695 96.2329 42.9039 96.2819 42.0077H93.217C93.126 42.6308 92.8881 43.1209 92.5033 43.478C92.1184 43.828 91.6461 44.003 91.0863 44.003C90.5825 44.003 90.1416 43.863 89.7638 43.583C89.3929 43.3029 89.1025 42.8969 88.8926 42.3648C88.6897 41.8327 88.5882 41.1956 88.5882 40.4535C88.5882 39.7114 88.6897 39.0813 88.8926 38.5632C89.1025 38.0381 89.3929 37.6426 89.7638 37.3765C90.1416 37.1035 90.5825 36.967 91.0863 36.967C91.4851 36.967 91.835 37.0475 92.1359 37.2085C92.4368 37.3695 92.6782 37.5971 92.8601 37.8911C93.0421 38.1852 93.161 38.5282 93.217 38.9203H96.2819C96.2399 38.0101 95.995 37.219 95.5472 36.5469C95.0993 35.8748 94.4905 35.3532 93.7208 34.9822C92.9581 34.6111 92.0659 34.4256 91.0443 34.4256C89.8547 34.4256 88.8296 34.6811 87.9689 35.1922C87.1082 35.7033 86.4435 36.4139 85.9746 37.324C85.5128 38.2342 85.2819 39.2913 85.2819 40.4955C85.2819 41.6857 85.5128 42.7358 85.9746 43.646C86.4365 44.5491 87.0977 45.2597 87.9584 45.7778ZM102.968 46.5444C101.785 46.5444 100.76 46.2924 99.8926 45.7883C99.0319 45.2772 98.3671 44.5701 97.8983 43.667C97.4365 42.7569 97.2056 41.6997 97.2056 40.4955C97.2056 39.2773 97.4365 38.2167 97.8983 37.3135C98.3671 36.4034 99.0319 35.6963 99.8926 35.1922C100.76 34.6811 101.785 34.4256 102.968 34.4256C104.158 34.4256 105.183 34.6811 106.043 35.1922C106.911 35.6963 107.576 36.4034 108.038 37.3135C108.506 38.2167 108.741 39.2773 108.741 40.4955C108.741 41.6997 108.506 42.7569 108.038 43.667C107.576 44.5701 106.911 45.2772 106.043 45.7883C105.183 46.2924 104.158 46.5444 102.968 46.5444ZM102.989 44.003C103.528 44.003 103.979 43.8525 104.343 43.5515C104.707 43.2434 104.98 42.8234 105.162 42.2913C105.351 41.7592 105.445 41.1536 105.445 40.4745C105.445 39.7884 105.351 39.1828 105.162 38.6577C104.98 38.1326 104.707 37.7196 104.343 37.4185C103.979 37.1175 103.528 36.967 102.989 36.967C102.443 36.967 101.985 37.1175 101.614 37.4185C101.25 37.7196 100.974 38.1326 100.785 38.6577C100.603 39.1828 100.512 39.7884 100.512 40.4745C100.512 41.1536 100.603 41.7592 100.785 42.2913C100.974 42.8234 101.25 43.2434 101.614 43.5515C101.985 43.8525 102.443 44.003 102.989 44.003ZM128.369 46.5444C127.165 46.5444 126.126 46.2994 125.251 45.8093C124.377 45.3192 123.705 44.6226 123.236 43.7195C122.774 42.8094 122.543 41.7347 122.543 40.4955C122.543 39.2913 122.774 38.2342 123.236 37.324C123.705 36.4139 124.363 35.7033 125.209 35.1922C126.063 34.6811 127.064 34.4256 128.211 34.4256C128.988 34.4256 129.712 34.5516 130.384 34.8036C131.056 35.0487 131.644 35.4197 132.147 35.9168C132.651 36.4069 133.043 37.0265 133.323 37.7756C133.603 38.5177 133.743 39.3893 133.743 40.3905V41.2726H125.748C125.768 41.8294 125.879 42.3124 126.081 42.7218C126.304 43.1699 126.616 43.5165 127.015 43.7615C127.421 43.9995 127.886 44.1186 128.411 44.1186C128.775 44.1186 129.103 44.066 129.397 43.961C129.691 43.856 129.943 43.702 130.153 43.499C130.37 43.2959 130.531 43.0509 130.636 42.7639L133.638 42.9634C133.491 43.6845 133.183 44.3146 132.714 44.8537C132.252 45.3858 131.654 45.8023 130.919 46.1034C130.185 46.3974 129.334 46.5444 128.369 46.5444ZM126.039 38.2167C125.892 38.5314 125.8 38.8814 125.763 39.2668H130.631C130.593 38.8867 130.51 38.5437 130.384 38.2377C130.202 37.7966 129.929 37.457 129.565 37.219C129.208 36.974 128.764 36.8515 128.232 36.8515C127.7 36.8515 127.249 36.974 126.878 37.219C126.514 37.464 126.234 37.7966 126.039 38.2167ZM139.484 34.9822C138.98 35.3532 138.62 35.9028 138.403 36.6309H138.277V34.5726H135.139V46.3134H138.382V39.6764C138.382 39.2003 138.487 38.7802 138.697 38.4162C138.914 38.0451 139.211 37.7581 139.589 37.5551C139.967 37.345 140.39 37.24 140.859 37.24C141.09 37.24 141.338 37.2575 141.604 37.2925C141.877 37.3205 142.091 37.359 142.245 37.408V34.5306C142.098 34.4886 141.93 34.4606 141.741 34.4466C141.559 34.4256 141.384 34.4151 141.216 34.4151C140.565 34.4151 139.988 34.6041 139.484 34.9822Z" fill="black"/>
<defs>
<linearGradient id="paint0_linear_633_158" x1="16.6123" y1="50" x2="34.4894" y2="50" gradientUnits="userSpaceOnUse">
<stop stop-color="#5BD473"/>
<stop offset="1" stop-color="#98D45B"/>
</linearGradient>
</defs>
</svg>
