<svg width="207" height="128" viewBox="0 0 207 128" fill="none" xmlns="http://www.w3.org/2000/svg">
<g filter="url(#filter0_d_3687_3079)">
<rect x="24.5723" y="16" width="157.714" height="80" rx="8" fill="white" shape-rendering="crispEdges"/>
<rect x="25.0723" y="16.5" width="156.714" height="79" rx="7.5" stroke="#132239" stroke-opacity="0.04" shape-rendering="crispEdges"/>
<path fill-rule="evenodd" clip-rule="evenodd" d="M58.4904 50.581V53.8212L52.9038 59.4078V53.2626L51.2278 51.5866L40.6133 51.5866L40.6133 46L53.9094 46L58.4904 50.581ZM40.6133 61.419L40.6133 58.1788L46.1999 52.5922L46.1999 58.7374L47.8759 60.4134H58.4904V66H45.1943L42.9038 63.7095L40.6133 61.419Z" fill="url(#paint0_linear_3687_3079)"/>
<path fill-rule="evenodd" clip-rule="evenodd" d="M136.039 61.8096C136.759 62.2716 137.568 62.5027 138.463 62.5027C139.093 62.5027 139.625 62.3976 140.059 62.1876C140.499 61.9776 140.86 61.715 141.14 61.4C141.42 61.0779 141.633 60.7559 141.78 60.4338H141.927V62.3136H145.128V46.6663H141.874V52.5577H141.78C141.64 52.2356 141.434 51.9101 141.161 51.581C140.888 51.252 140.531 50.9789 140.09 50.7619C139.649 50.5378 139.1 50.4258 138.442 50.4258C137.589 50.4258 136.801 50.6499 136.081 51.0979C135.36 51.539 134.783 52.2076 134.349 53.1037C133.915 53.9999 133.698 55.12 133.698 56.4642C133.698 57.7664 133.908 58.8691 134.328 59.7722C134.748 60.6684 135.318 61.3475 136.039 61.8096ZM140.814 59.4887C140.45 59.7757 140.006 59.9193 139.481 59.9193C138.957 59.9193 138.509 59.7722 138.138 59.4782C137.774 59.1842 137.498 58.7781 137.309 58.26C137.12 57.7349 137.025 57.1328 137.025 56.4537C137.025 55.7746 137.12 55.1796 137.309 54.6685C137.498 54.1504 137.774 53.7443 138.138 53.4503C138.502 53.1562 138.95 53.0092 139.481 53.0092C140.006 53.0092 140.454 53.1527 140.825 53.4398C141.196 53.7198 141.476 54.1189 141.665 54.637C141.853 55.148 141.948 55.7536 141.948 56.4537C141.948 57.1469 141.85 57.7524 141.654 58.2705C141.465 58.7886 141.185 59.1947 140.814 59.4887ZM94.0854 50.9824C93.5816 51.3535 93.2212 51.9031 93.0043 52.6312H92.8783V50.5729H89.74V62.3136H92.9833V55.6766C92.9833 55.2006 93.0882 54.7805 93.2982 54.4164C93.5151 54.0454 93.8125 53.7583 94.1903 53.5553C94.5682 53.3453 94.9916 53.2403 95.4604 53.2403C95.6913 53.2403 95.9397 53.2578 96.2056 53.2928C96.4785 53.3208 96.6919 53.3593 96.8459 53.4083V50.5308C96.6989 50.4888 96.531 50.4608 96.3421 50.4468C96.1601 50.4258 95.9852 50.4153 95.8173 50.4153C95.1665 50.4153 94.5892 50.6044 94.0854 50.9824ZM82.9699 62.5447C81.7664 62.5447 80.7272 62.2996 79.8526 61.8096C78.9779 61.3195 78.3061 60.6229 77.8373 59.7197C77.3755 58.8096 77.1446 57.7349 77.1446 56.4958C77.1446 55.2916 77.3755 54.2344 77.8373 53.3243C78.3061 52.4141 78.9639 51.7035 79.8106 51.1924C80.6643 50.6814 81.6649 50.4258 82.8125 50.4258C83.5892 50.4258 84.3134 50.5518 84.9852 50.8039C85.657 51.0489 86.2447 51.42 86.7486 51.9171C87.2524 52.4071 87.6442 53.0267 87.9241 53.7758C88.204 54.518 88.344 55.3896 88.344 56.3907V57.2729H80.3493C80.3695 57.8296 80.4803 58.3127 80.6818 58.7221C80.9057 59.1702 81.2171 59.5167 81.6159 59.7617C82.0218 59.9998 82.4871 60.1188 83.0119 60.1188C83.3758 60.1188 83.7047 60.0663 83.9986 59.9613C84.2925 59.8563 84.5444 59.7022 84.7543 59.4992C84.9712 59.2962 85.1321 59.0511 85.2371 58.7641L88.239 58.9636C88.0921 59.6847 87.7842 60.3148 87.3153 60.8539C86.8535 61.386 86.2552 61.8026 85.5205 62.1036C84.7858 62.3976 83.9356 62.5447 82.9699 62.5447ZM80.6398 54.2169C80.493 54.5316 80.4012 54.8816 80.3644 55.2671H85.2325C85.1938 54.8869 85.1114 54.5439 84.9852 54.2379C84.8033 53.7968 84.5304 53.4573 84.1665 53.2193C83.8096 52.9742 83.3653 52.8517 82.8335 52.8517C82.3017 52.8517 81.8503 52.9742 81.4795 53.2193C81.1156 53.4643 80.8357 53.7968 80.6398 54.2169ZM75.9585 52.7047L70.5739 59.6252V59.7092H76.1579V62.3136H66.3125V60.3708L72.0539 53.2613V53.1772H66.5014V50.5729H75.9585V52.7047ZM102.556 62.5447C101.373 62.5447 100.348 62.2926 99.4804 61.7886C98.6197 61.2775 97.955 60.5704 97.4861 59.6672C97.0243 58.7571 96.7934 57.6999 96.7934 56.4958C96.7934 55.2776 97.0243 54.2169 97.4861 53.3138C97.955 52.4036 98.6197 51.6965 99.4804 51.1924C100.348 50.6814 101.373 50.4258 102.556 50.4258C103.745 50.4258 104.77 50.6814 105.631 51.1924C106.499 51.6965 107.164 52.4036 107.625 53.3138C108.094 54.2169 108.329 55.2776 108.329 56.4958C108.329 57.6999 108.094 58.7571 107.625 59.6672C107.164 60.5704 106.499 61.2775 105.631 61.7886C104.77 62.2926 103.745 62.5447 102.556 62.5447ZM102.577 60.0033C103.116 60.0033 103.567 59.8528 103.931 59.5517C104.295 59.2437 104.568 58.8236 104.75 58.2915C104.938 57.7594 105.033 57.1539 105.033 56.4747C105.033 55.7886 104.938 55.1831 104.75 54.658C104.568 54.1329 104.295 53.7198 103.931 53.4188C103.567 53.1177 103.116 52.9672 102.577 52.9672C102.031 52.9672 101.573 53.1177 101.202 53.4188C100.838 53.7198 100.562 54.1329 100.373 54.658C100.191 55.1831 100.1 55.7886 100.1 56.4747C100.1 57.1539 100.191 57.7594 100.373 58.2915C100.562 58.8236 100.838 59.2437 101.202 59.5517C101.573 59.8528 102.031 60.0033 102.577 60.0033ZM111.96 61.7781C112.821 62.2891 113.85 62.5447 115.046 62.5447C116.096 62.5447 117.002 62.3556 117.765 61.9776C118.527 61.5925 119.126 61.0604 119.56 60.3813C119.993 59.6952 120.235 58.9041 120.284 58.008H117.219C117.128 58.6311 116.89 59.1212 116.505 59.4782C116.12 59.8283 115.648 60.0033 115.088 60.0033C114.584 60.0033 114.144 59.8633 113.766 59.5832C113.395 59.3032 113.104 58.8971 112.895 58.365C112.692 57.833 112.59 57.1959 112.59 56.4537C112.59 55.7116 112.692 55.0815 112.895 54.5635C113.104 54.0384 113.395 53.6428 113.766 53.3768C114.144 53.1037 114.584 52.9672 115.088 52.9672C115.487 52.9672 115.837 53.0477 116.138 53.2088C116.439 53.3698 116.68 53.5973 116.862 53.8914C117.044 54.1854 117.163 54.5285 117.219 54.9205H120.284C120.242 54.0104 119.997 53.2193 119.549 52.5472C119.101 51.8751 118.492 51.3535 117.723 50.9824C116.96 50.6114 116.068 50.4258 115.046 50.4258C113.857 50.4258 112.832 50.6814 111.971 51.1924C111.11 51.7035 110.445 52.4141 109.977 53.3243C109.515 54.2344 109.284 55.2916 109.284 56.4958C109.284 57.6859 109.515 58.7361 109.977 59.6462C110.438 60.5494 111.1 61.26 111.96 61.7781ZM126.97 62.5447C125.787 62.5447 124.762 62.2926 123.895 61.7886C123.034 61.2775 122.369 60.5704 121.9 59.6672C121.438 58.7571 121.208 57.6999 121.208 56.4958C121.208 55.2776 121.438 54.2169 121.9 53.3138C122.369 52.4036 123.034 51.6965 123.895 51.1924C124.762 50.6814 125.787 50.4258 126.97 50.4258C128.159 50.4258 129.185 50.6814 130.045 51.1924C130.913 51.6965 131.578 52.4036 132.04 53.3138C132.508 54.2169 132.743 55.2776 132.743 56.4958C132.743 57.6999 132.508 58.7571 132.04 59.6672C131.578 60.5704 130.913 61.2775 130.045 61.7886C129.185 62.2926 128.159 62.5447 126.97 62.5447ZM126.991 60.0033C127.53 60.0033 127.981 59.8528 128.345 59.5517C128.709 59.2437 128.982 58.8236 129.164 58.2915C129.353 57.7594 129.447 57.1539 129.447 56.4747C129.447 55.7886 129.353 55.1831 129.164 54.658C128.982 54.1329 128.709 53.7198 128.345 53.4188C127.981 53.1177 127.53 52.9672 126.991 52.9672C126.445 52.9672 125.987 53.1177 125.616 53.4188C125.252 53.7198 124.976 54.1329 124.787 54.658C124.605 55.1831 124.514 55.7886 124.514 56.4747C124.514 57.1539 124.605 57.7594 124.787 58.2915C124.976 58.8236 125.252 59.2437 125.616 59.5517C125.987 59.8528 126.445 60.0033 126.991 60.0033ZM152.371 62.5447C151.167 62.5447 150.128 62.2996 149.253 61.8096C148.379 61.3195 147.707 60.6229 147.238 59.7197C146.776 58.8096 146.545 57.7349 146.545 56.4958C146.545 55.2916 146.776 54.2344 147.238 53.3243C147.707 52.4141 148.365 51.7035 149.211 51.1924C150.065 50.6814 151.066 50.4258 152.213 50.4258C152.99 50.4258 153.714 50.5518 154.386 50.8039C155.058 51.0489 155.645 51.42 156.149 51.9171C156.653 52.4071 157.045 53.0267 157.325 53.7758C157.605 54.518 157.745 55.3896 157.745 56.3907V57.2729H149.75C149.77 57.8296 149.881 58.3127 150.082 58.7221C150.306 59.1702 150.618 59.5167 151.017 59.7617C151.423 59.9998 151.888 60.1188 152.413 60.1188C152.777 60.1188 153.105 60.0663 153.399 59.9613C153.693 59.8563 153.945 59.7022 154.155 59.4992C154.372 59.2962 154.533 59.0511 154.638 58.7641L157.64 58.9636C157.493 59.6847 157.185 60.3148 156.716 60.8539C156.254 61.386 155.656 61.8026 154.921 62.1036C154.186 62.3976 153.336 62.5447 152.371 62.5447ZM150.041 54.2169C149.894 54.5316 149.802 54.8816 149.765 55.2671H154.633C154.595 54.8869 154.512 54.5439 154.386 54.2379C154.204 53.7968 153.931 53.4573 153.567 53.2193C153.21 52.9742 152.766 52.8517 152.234 52.8517C151.702 52.8517 151.251 52.9742 150.88 53.2193C150.516 53.4643 150.236 53.7968 150.041 54.2169ZM163.486 50.9824C162.982 51.3535 162.622 51.9031 162.405 52.6312H162.279V50.5729H159.141V62.3136H162.384V55.6766C162.384 55.2006 162.489 54.7805 162.699 54.4164C162.916 54.0454 163.213 53.7583 163.591 53.5553C163.969 53.3453 164.392 53.2403 164.861 53.2403C165.092 53.2403 165.34 53.2578 165.606 53.2928C165.879 53.3208 166.093 53.3593 166.247 53.4083V50.5308C166.1 50.4888 165.932 50.4608 165.743 50.4468C165.561 50.4258 165.386 50.4153 165.218 50.4153C164.567 50.4153 163.99 50.6044 163.486 50.9824Z" fill="black"/>
</g>
<defs>
<filter id="filter0_d_3687_3079" x="0.572266" y="0" width="205.715" height="128" filterUnits="userSpaceOnUse" color-interpolation-filters="sRGB">
<feFlood flood-opacity="0" result="BackgroundImageFix"/>
<feColorMatrix in="SourceAlpha" type="matrix" values="0 0 0 0 0 0 0 0 0 0 0 0 0 0 0 0 0 0 127 0" result="hardAlpha"/>
<feOffset dy="8"/>
<feGaussianBlur stdDeviation="12"/>
<feComposite in2="hardAlpha" operator="out"/>
<feColorMatrix type="matrix" values="0 0 0 0 0.0745098 0 0 0 0 0.133333 0 0 0 0 0.223529 0 0 0 0.04 0"/>
<feBlend mode="normal" in2="BackgroundImageFix" result="effect1_dropShadow_3687_3079"/>
<feBlend mode="normal" in="SourceGraphic" in2="effect1_dropShadow_3687_3079" result="shape"/>
</filter>
<linearGradient id="paint0_linear_3687_3079" x1="40.6133" y1="66" x2="58.4904" y2="66" gradientUnits="userSpaceOnUse">
<stop stop-color="#5BD473"/>
<stop offset="1" stop-color="#98D45B"/>
</linearGradient>
</defs>
</svg>
