<svg width="270" height="32" viewBox="0 0 270 32" fill="none" xmlns="http://www.w3.org/2000/svg">
<path fill-rule="evenodd" clip-rule="evenodd" d="M28.6034 7.32961V12.514L19.6648 21.4525V11.6201L16.9832 8.93855L6.81957e-07 8.93855L1.36391e-06 0L21.2737 1.36391e-06L28.6034 7.32961ZM0 24.6704L6.81957e-07 19.486L8.93855 10.5475L8.93855 20.3799L11.6201 23.0615H28.6034V32H7.32961L3.6648 28.3352L0 24.6704Z" fill="#5BD473"/>
<path fill-rule="evenodd" clip-rule="evenodd" d="M152.679 25.2957C153.832 26.035 155.125 26.4047 156.558 26.4047C157.566 26.4047 158.417 26.2366 159.111 25.9006C159.816 25.5645 160.393 25.1445 160.841 24.6404C161.289 24.1251 161.63 23.6098 161.865 23.0946H162.1V26.1022H167.222V1.06641H162.016V10.4926H161.865C161.641 9.97736 161.311 9.45648 160.874 8.93C160.438 8.40352 159.867 7.96665 159.161 7.6194C158.456 7.26095 157.577 7.08172 156.525 7.08172C155.159 7.08172 153.899 7.44017 152.746 8.15708C151.593 8.86279 150.669 9.93255 149.975 11.3664C149.281 12.8002 148.934 14.5925 148.934 16.7432C148.934 18.8267 149.27 20.591 149.942 22.036C150.613 23.4698 151.526 24.5564 152.679 25.2957ZM160.32 21.5823C159.738 22.0416 159.027 22.2712 158.187 22.2712C157.348 22.2712 156.631 22.036 156.038 21.5655C155.456 21.095 155.013 20.4454 154.711 19.6164C154.409 18.7763 154.258 17.813 154.258 16.7264C154.258 15.6398 154.409 14.6877 154.711 13.87C155.013 13.041 155.456 12.3913 156.038 11.9209C156.62 11.4504 157.336 11.2151 158.187 11.2151C159.027 11.2151 159.744 11.4448 160.337 11.9041C160.93 12.3521 161.378 12.9906 161.68 13.8195C161.983 14.6373 162.134 15.6062 162.134 16.7264C162.134 17.8354 161.977 18.8043 161.664 19.6332C161.361 20.4622 160.914 21.1119 160.32 21.5823ZM85.5538 7.97226C84.7477 8.56595 84.1711 9.44528 83.824 10.6103H83.6225V7.31696H78.6011V26.1022H83.7904V15.483C83.7904 14.7213 83.9584 14.0492 84.2943 13.4667C84.6413 12.873 85.1172 12.4137 85.7217 12.0889C86.3263 11.7528 87.0037 11.5848 87.7538 11.5848C88.1233 11.5848 88.5207 11.6128 88.9462 11.6688C89.3828 11.7136 89.7243 11.7752 89.9706 11.8536V7.24975C89.7355 7.18254 89.4668 7.13773 89.1645 7.11533C88.8734 7.08172 88.5935 7.06492 88.3248 7.06492C87.2836 7.06492 86.3599 7.36736 85.5538 7.97226ZM67.7691 26.4719C65.8434 26.4719 64.1808 26.0798 62.7813 25.2957C61.3818 24.5116 60.307 23.397 59.5569 21.952C58.8179 20.4958 58.4485 18.7763 58.4485 16.7936C58.4485 14.8669 58.8179 13.1754 59.5569 11.7192C60.307 10.263 61.3594 9.12603 62.7141 8.30831C64.08 7.49058 65.681 7.08172 67.5172 7.08172C68.7599 7.08172 69.9187 7.28335 70.9935 7.68661C72.0683 8.07867 73.0088 8.67236 73.8149 9.46768C74.621 10.2518 75.248 11.2432 75.6958 12.4417C76.1436 13.6291 76.3675 15.0237 76.3675 16.6256V18.037H63.576C63.6084 18.9278 63.7857 19.7007 64.108 20.3557C64.4663 21.0726 64.9645 21.6271 65.6027 22.0192C66.252 22.4 66.9966 22.5905 67.8363 22.5905C68.4184 22.5905 68.9447 22.5065 69.4149 22.3384C69.8851 22.1704 70.2882 21.924 70.624 21.5991C70.9711 21.2743 71.2286 20.8822 71.3966 20.4229L76.1996 20.7422C75.9645 21.896 75.4719 22.9041 74.7217 23.7667C73.9828 24.618 73.0256 25.2845 71.85 25.7662C70.6744 26.2366 69.3141 26.4719 67.7691 26.4719ZM64.0408 13.1474C63.806 13.6509 63.6591 14.211 63.6002 14.8277H71.3892C71.3273 14.2195 71.1954 13.6706 70.9935 13.181C70.7024 12.4753 70.2658 11.9321 69.6836 11.5512C69.1126 11.1591 68.4016 10.9631 67.5508 10.9631C66.6999 10.9631 65.9777 11.1591 65.3843 11.5512C64.8022 11.9433 64.3543 12.4753 64.0408 13.1474ZM56.5508 10.7279L47.9355 21.8008V21.9352H56.8698V26.1022H41.1172V22.9937L50.3034 11.6184V11.484H41.4195V7.31696H56.5508V10.7279ZM99.1065 26.4719C97.2144 26.4719 95.5741 26.0686 94.1859 25.2621C92.8088 24.4444 91.7451 23.313 90.995 21.868C90.2561 20.4117 89.8866 18.7203 89.8866 16.7936C89.8866 14.8445 90.2561 13.1474 90.995 11.7024C91.7451 10.2462 92.8088 9.11483 94.1859 8.30831C95.5741 7.49058 97.2144 7.08172 99.1065 7.08172C101.01 7.08172 102.65 7.49058 104.027 8.30831C105.415 9.11483 106.479 10.2462 107.218 11.7024C107.968 13.1474 108.343 14.8445 108.343 16.7936C108.343 18.7203 107.968 20.4117 107.218 21.868C106.479 23.313 105.415 24.4444 104.027 25.2621C102.65 26.0686 101.01 26.4719 99.1065 26.4719ZM99.14 22.4056C100.002 22.4056 100.724 22.1648 101.306 21.6831C101.889 21.1903 102.325 20.5182 102.616 19.6668C102.919 18.8155 103.07 17.8466 103.07 16.76C103.07 15.6622 102.919 14.6933 102.616 13.8531C102.325 13.013 101.889 12.3521 101.306 11.8704C100.724 11.3888 100.002 11.1479 99.14 11.1479C98.2668 11.1479 97.5334 11.3888 96.9401 11.8704C96.3579 12.3521 95.9156 13.013 95.6133 13.8531C95.3222 14.6933 95.1767 15.6622 95.1767 16.76C95.1767 17.8466 95.3222 18.8155 95.6133 19.6668C95.9156 20.5182 96.3579 21.1903 96.9401 21.6831C97.5334 22.1648 98.2668 22.4056 99.14 22.4056ZM114.154 25.2453C115.531 26.063 117.177 26.4719 119.091 26.4719C120.771 26.4719 122.22 26.1694 123.441 25.5645C124.661 24.9484 125.618 24.0971 126.313 23.0105C127.007 21.9128 127.393 20.647 127.471 19.2132H122.568C122.422 20.2101 122.041 20.9942 121.426 21.5655C120.81 22.1256 120.054 22.4056 119.158 22.4056C118.352 22.4056 117.647 22.1816 117.042 21.7335C116.449 21.2855 115.984 20.6358 115.648 19.7845C115.324 18.9331 115.161 17.9138 115.161 16.7264C115.161 15.539 115.324 14.5309 115.648 13.7019C115.984 12.8618 116.449 12.2289 117.042 11.8032C117.647 11.3664 118.352 11.1479 119.158 11.1479C119.797 11.1479 120.356 11.2768 120.838 11.5344C121.319 11.792 121.705 12.1561 121.997 12.6266C122.288 13.097 122.478 13.6459 122.568 14.2732H127.471C127.404 12.817 127.012 11.5512 126.296 10.4758C125.579 9.40047 124.605 8.56595 123.374 7.97226C122.153 7.37857 120.726 7.08172 119.091 7.08172C117.188 7.08172 115.548 7.49058 114.171 8.30831C112.793 9.12603 111.73 10.263 110.98 11.7192C110.241 13.1754 109.871 14.8669 109.871 16.7936C109.871 18.6979 110.241 20.3781 110.98 21.8344C111.719 23.2794 112.777 24.4164 114.154 25.2453ZM138.169 26.4719C136.277 26.4719 134.637 26.0686 133.248 25.2621C131.871 24.4444 130.808 23.313 130.058 21.868C129.319 20.4117 128.949 18.7203 128.949 16.7936C128.949 14.8445 129.319 13.1474 130.058 11.7024C130.808 10.2462 131.871 9.11483 133.248 8.30831C134.637 7.49058 136.277 7.08172 138.169 7.08172C140.072 7.08172 141.713 7.49058 143.09 8.30831C144.478 9.11483 145.542 10.2462 146.28 11.7024C147.031 13.1474 147.406 14.8445 147.406 16.7936C147.406 18.7203 147.031 20.4117 146.28 21.868C145.542 23.313 144.478 24.4444 143.09 25.2621C141.713 26.0686 140.072 26.4719 138.169 26.4719ZM138.203 22.4056C139.065 22.4056 139.787 22.1648 140.369 21.6831C140.951 21.1903 141.388 20.5182 141.679 19.6668C141.981 18.8155 142.132 17.8466 142.132 16.76C142.132 15.6622 141.981 14.6933 141.679 13.8531C141.388 13.013 140.951 12.3521 140.369 11.8704C139.787 11.3888 139.065 11.1479 138.203 11.1479C137.329 11.1479 136.596 11.3888 136.003 11.8704C135.42 12.3521 134.978 13.013 134.676 13.8531C134.385 14.6933 134.239 15.6622 134.239 16.76C134.239 17.8466 134.385 18.8155 134.676 19.6668C134.978 20.5182 135.42 21.1903 136.003 21.6831C136.596 22.1648 137.329 22.4056 138.203 22.4056ZM178.81 26.4719C176.885 26.4719 175.222 26.0798 173.822 25.2957C172.423 24.5116 171.348 23.397 170.598 21.952C169.859 20.4958 169.49 18.7763 169.49 16.7936C169.49 14.8669 169.859 13.1754 170.598 11.7192C171.348 10.263 172.401 9.12603 173.755 8.30831C175.121 7.49058 176.722 7.08172 178.558 7.08172C179.801 7.08172 180.96 7.28335 182.035 7.68661C183.109 8.07867 184.05 8.67236 184.856 9.46768C185.662 10.2518 186.289 11.2432 186.737 12.4417C187.185 13.6291 187.409 15.0237 187.409 16.6256V18.037H174.617C174.65 18.9278 174.827 19.7007 175.149 20.3557C175.507 21.0726 176.006 21.6271 176.644 22.0192C177.293 22.4 178.038 22.5905 178.877 22.5905C179.46 22.5905 179.986 22.5065 180.456 22.3384C180.926 22.1704 181.329 21.924 181.665 21.5991C182.012 21.2743 182.27 20.8822 182.438 20.4229L187.241 20.7422C187.006 21.896 186.513 22.9041 185.763 23.7667C185.024 24.618 184.067 25.2845 182.891 25.7662C181.716 26.2366 180.355 26.4719 178.81 26.4719ZM175.082 13.1474C174.847 13.6509 174.7 14.211 174.641 14.8277H182.43C182.368 14.2195 182.237 13.6706 182.035 13.181C181.744 12.4753 181.307 11.9321 180.725 11.5512C180.154 11.1591 179.443 10.9631 178.592 10.9631C177.741 10.9631 177.019 11.1591 176.425 11.5512C175.843 11.9433 175.395 12.4753 175.082 13.1474ZM196.595 7.97226C195.789 8.56595 195.212 9.44528 194.865 10.6103H194.664V7.31696H189.642V26.1022H194.832V15.483C194.832 14.7213 195 14.0492 195.335 13.4667C195.682 12.873 196.158 12.4137 196.763 12.0889C197.367 11.7528 198.045 11.5848 198.795 11.5848C199.164 11.5848 199.562 11.6128 199.987 11.6688C200.424 11.7136 200.765 11.7752 201.012 11.8536V7.24975C200.777 7.18254 200.508 7.13773 200.206 7.11533C199.915 7.08172 199.635 7.06492 199.366 7.06492C198.325 7.06492 197.401 7.36736 196.595 7.97226Z" fill="white"/>
</svg>
