<svg width="21" height="20" viewBox="0 0 21 20" fill="none" xmlns="http://www.w3.org/2000/svg">
<path fill-rule="evenodd" clip-rule="evenodd" d="M10.7098 6.11661C10.4068 5.77025 9.88029 5.73515 9.53392 6.03822C9.18756 6.34129 9.15246 6.86776 9.45553 7.21412L11.1629 9.16537L2.99935 9.16537C2.53911 9.16537 2.16602 9.53846 2.16602 9.9987C2.16602 10.4589 2.53911 10.832 2.99935 10.832L11.1629 10.832L9.45553 12.7833C9.15246 13.1296 9.18756 13.6561 9.53392 13.9592C9.88029 14.2622 10.4068 14.2271 10.7098 13.8808L13.6265 10.5475C13.9014 10.2333 13.9014 9.76413 13.6265 9.44994L10.7098 6.11661ZM14.666 16.6654C14.2058 16.6654 13.8327 17.0385 13.8327 17.4987C13.8327 17.9589 14.2058 18.332 14.666 18.332L17.166 18.332C18.0865 18.332 18.8327 17.5858 18.8327 16.6654L18.8327 3.33203C18.8327 2.41156 18.0865 1.66537 17.166 1.66537L14.666 1.66537C14.2058 1.66537 13.8327 2.03846 13.8327 2.4987C13.8327 2.95894 14.2058 3.33203 14.666 3.33203L17.166 3.33203L17.166 16.6654L14.666 16.6654Z" fill="#132239"/>
</svg>
