<svg width="25" height="24" viewBox="0 0 25 24" fill="none" xmlns="http://www.w3.org/2000/svg">
<path fill-rule="evenodd" clip-rule="evenodd" d="M0.5 12C0.5 5.3772 5.876 0 12.5 0C19.136 0 24.5 5.3772 24.5 12C24.5 18.6252 19.136 24 12.5 24C5.876 24 0.5 18.6252 0.5 12ZM11.816 15.5887L17.516 9.88873C17.924 9.48073 17.924 8.82073 17.516 8.40073C17.108 7.99273 16.436 7.99273 16.028 8.40073L11.072 13.3567L8.97198 11.2567C8.56398 10.8487 7.89198 10.8487 7.48398 11.2567C7.07598 11.6647 7.07598 12.3247 7.48398 12.7447L10.34 15.5887C10.544 15.7927 10.808 15.8887 11.072 15.8887C11.348 15.8887 11.612 15.7927 11.816 15.5887Z" fill="#B3E282"/>
</svg>
